<svg width="24" height="24" viewBox="0 0 24 24" fill="none" xmlns="http://www.w3.org/2000/svg">
<path d="M14.5022 4.94057C15.2552 4.18257 16.4753 4.18257 17.2283 4.94057C17.9813 5.69857 17.9813 6.92657 17.2283 7.68457C16.4753 8.44257 15.2552 8.44257 14.5022 7.68457C13.7492 6.92657 13.7492 5.69857 14.5022 4.94057ZM16.4853 5.68857C16.1433 5.34357 15.5872 5.34357 15.2452 5.68857C14.9032 6.03357 14.9032 6.59257 15.2452 6.93757C15.5872 7.28257 16.1433 7.28257 16.4853 6.93757C16.8273 6.59257 16.8273 6.03357 16.4853 5.68857Z" fill="white"/>
<path d="M12.1912 8.18952C12.3512 8.02852 12.3512 7.76652 12.1912 7.60452C12.0312 7.44252 11.7712 7.44352 11.6102 7.60452L7.23523 12.0095C7.07523 12.1705 7.07523 12.4325 7.23523 12.5945C7.39523 12.7565 7.65523 12.7565 7.81623 12.5945L12.1912 8.18952Z" fill="white"/>
<path d="M12.6859 9.10024C12.8459 9.26124 12.8459 9.52324 12.6859 9.68524L8.80587 13.5912C8.64587 13.7532 8.38587 13.7532 8.22487 13.5912C8.06387 13.4292 8.06487 13.1682 8.22487 13.0062L12.1049 9.10024C12.2649 8.93924 12.5249 8.93924 12.6859 9.10024Z" fill="white"/>
<path d="M12.1907 12.1817C12.3507 12.0207 12.3507 11.7587 12.1907 11.5967C12.0307 11.4347 11.7707 11.4357 11.6097 11.5967L9.21668 14.0057C9.05668 14.1667 9.05668 14.4287 9.21668 14.5907C9.37668 14.7527 9.63668 14.7517 9.79768 14.5907L12.1907 12.1817Z" fill="white"/>
<path d="M20.1306 4.91307C20.1296 4.14907 19.8276 3.41507 19.2886 2.87307C18.7496 2.33107 18.0196 2.02307 17.2556 2.01707L13.1936 1.99907C12.5336 1.99607 11.8796 2.12507 11.2706 2.37807C10.6616 2.63107 10.1086 3.00307 9.64361 3.47107L4.05961 9.09607C3.12461 10.0411 2.59961 11.3171 2.59961 12.6471C2.59961 13.9771 3.12461 15.2531 4.06061 16.1991L6.04761 18.2011C6.49461 18.6531 7.02461 19.0141 7.60761 19.2661C8.26061 20.1201 9.17461 20.7451 10.2166 21.0411L12.9036 21.8071C13.5346 21.9881 14.1956 22.0421 14.8476 21.9661C15.4996 21.8901 16.1306 21.6861 16.7026 21.3661C17.2756 21.0461 17.7796 20.6151 18.1846 20.0991C18.5896 19.5831 18.8896 18.9921 19.0666 18.3601L21.2146 10.6891C21.5736 9.40507 21.4076 8.03107 20.7536 6.86907L20.1356 5.77107L20.1496 5.55207C20.1496 5.59107 20.1506 5.21707 20.1496 5.25607L20.1306 4.91307ZM17.5736 11.4541L11.9886 17.0791C11.6726 17.3981 11.2976 17.6511 10.8836 17.8231C10.4696 17.9951 10.0246 18.0851 9.57661 18.0851C9.12861 18.0851 8.68361 17.9961 8.26961 17.8231C7.85561 17.6501 7.47861 17.3971 7.16261 17.0781L5.17461 15.0761C4.53361 14.4291 4.17461 13.5561 4.17461 12.6461C4.17461 11.7361 4.53361 10.8621 5.17461 10.2161L10.7586 4.59007C11.0766 4.27007 11.4546 4.01607 11.8706 3.84407C12.2866 3.67207 12.7346 3.58307 13.1866 3.58507L17.2496 3.60407C17.5966 3.60707 17.9286 3.74607 18.1736 3.99207C18.4186 4.23807 18.5556 4.57107 18.5566 4.91807L18.5746 9.00807C18.5766 9.46107 18.4896 9.91107 18.3176 10.3311C18.1456 10.7511 17.8936 11.1321 17.5736 11.4541ZM11.4856 19.2901C12.0916 19.0371 12.6416 18.6671 13.1036 18.2011L18.6896 12.5761C18.8846 12.3791 19.0626 12.1681 19.2216 11.9431L17.5476 17.9261C17.4266 18.3591 17.2216 18.7631 16.9446 19.1161C16.6676 19.4691 16.3226 19.7641 15.9296 19.9831C15.5376 20.2021 15.1056 20.3421 14.6596 20.3931C14.2136 20.4441 13.7616 20.4081 13.3296 20.2841L10.7166 19.5391C10.9786 19.4771 11.2366 19.3951 11.4856 19.2901Z" fill="white"/>
</svg>
