<svg width="24" height="24" viewBox="0 0 24 24" fill="none" xmlns="http://www.w3.org/2000/svg">
<path d="M7.03233 3.54186C7.17298 3.68251 7.252 3.87328 7.252 4.07219C7.252 4.2711 7.17298 4.46187 7.03233 4.60252C6.89168 4.74317 6.70091 4.82219 6.502 4.82219H6C5.33696 4.82219 4.70107 5.08558 4.23223 5.55442C3.76339 6.02327 3.5 6.65915 3.5 7.32219V15.3595L7.485 11.0675C7.74239 10.7904 8.05419 10.5693 8.4009 10.4181C8.74761 10.267 9.12177 10.1889 9.5 10.1889C9.87823 10.1889 10.2524 10.267 10.5991 10.4181C10.9458 10.5693 11.2576 10.7904 11.515 11.0675L13.613 13.3265L14.055 12.8835C14.3104 12.628 14.6136 12.4253 14.9473 12.287C15.2811 12.1488 15.6388 12.0776 16 12.0776C16.3612 12.0776 16.7189 12.1488 17.0527 12.287C17.3864 12.4253 17.6896 12.628 17.945 12.8835L20.5 15.4395V11.4765C20.5 11.2776 20.579 11.0868 20.7197 10.9462C20.8603 10.8055 21.0511 10.7265 21.25 10.7265C21.4489 10.7265 21.6397 10.8055 21.7803 10.9462C21.921 11.0868 22 11.2776 22 11.4765V17.9995C22 19.0604 21.5786 20.0778 20.8284 20.8279C20.0783 21.5781 19.0609 21.9995 18 21.9995H6C4.93913 21.9995 3.92172 21.5781 3.17157 20.8279C2.42143 20.0778 2 19.0604 2 17.9995V7.32219C2 6.26133 2.42143 5.24391 3.17157 4.49376C3.92172 3.74362 4.93913 3.32219 6 3.32219H6.502C6.70091 3.32219 6.89168 3.40121 7.03233 3.54186ZM20.47 17.5305L16.884 13.9445C16.7679 13.8284 16.6301 13.7363 16.4784 13.6734C16.3268 13.6106 16.1642 13.5783 16 13.5783C15.8358 13.5783 15.6732 13.6106 15.5216 13.6734C15.3699 13.7363 15.2321 13.8284 15.116 13.9445L14.634 14.4265L16.55 16.4895C16.6853 16.6354 16.757 16.829 16.7495 17.0278C16.742 17.2266 16.6559 17.4142 16.51 17.5495C16.3641 17.6848 16.1705 17.7565 15.9717 17.749C15.7729 17.7415 15.5853 17.6554 15.45 17.5095L10.416 12.0885C10.299 11.9625 10.1573 11.862 9.99965 11.7933C9.84204 11.7245 9.67195 11.689 9.5 11.689C9.32806 11.689 9.15796 11.7245 9.00035 11.7933C8.84274 11.862 8.701 11.9625 8.584 12.0885L3.55 17.5095C3.53411 17.5266 3.51743 17.543 3.5 17.5585C3.5 18.9395 4.62 20.5005 6 20.5005H18C19.38 20.5005 20.47 18.9105 20.47 17.5305Z" fill="white"/>
<path d="M13.4811 2H15.6108V4.12972H13.4811V2Z" fill="white"/>
<path d="M13.4811 6.25944V4.12972H11.3514V6.25944H9.22168V8.38916H11.3514V6.25944H13.4811Z" fill="white"/>
<path d="M15.6108 6.25944V8.38916H13.4811V6.25944H15.6108Z" fill="white"/>
<path d="M17.7406 6.25944H15.6108V4.12972H17.7406V6.25944Z" fill="white"/>
<path d="M19.8703 6.25944V8.38916H17.7406V6.25944H19.8703Z" fill="white"/>
<path d="M19.8703 4.12972H22V6.25944H19.8703V4.12972Z" fill="white"/>
<path d="M19.8703 4.12972V2H17.7406V4.12972H19.8703Z" fill="white"/>
</svg>
