<svg width="24" height="24" viewBox="0 0 24 24" fill="none" xmlns="http://www.w3.org/2000/svg">
<path d="M6 2.74951C6 2.3353 6.33579 1.99951 6.75 1.99951H17.25C17.6642 1.99951 18 2.3353 18 2.74951C18 3.16373 17.6642 3.49951 17.25 3.49951H6.75C6.33579 3.49951 6 3.16373 6 2.74951Z" fill="white"/>
<path d="M5 5.74951C5 5.3353 5.33579 4.99951 5.75 4.99951H18.25C18.6642 4.99951 19 5.3353 19 5.74951C19 6.16373 18.6642 6.49951 18.25 6.49951H5.75C5.33579 6.49951 5 6.16373 5 5.74951Z" fill="white"/>
<path fill-rule="evenodd" clip-rule="evenodd" d="M4 7.99953C2.89543 7.99953 2 8.89496 2 9.99953V19.9995C2 21.1041 2.89543 21.9995 4 21.9995H20C21.1046 21.9995 22 21.1041 22 19.9995V9.99953C22 8.89496 21.1046 7.99953 20 7.99953H4ZM4.5 9.49953C3.94772 9.49953 3.5 9.94724 3.5 10.4995V16.5941L7.04311 12.9761C8.17742 11.8178 10.0624 11.8871 11.1086 13.1255L13.303 15.7231L14.6235 14.6053C15.7079 13.6874 17.313 13.7466 18.3268 14.7419L20.5 16.8754V10.4995C20.5 9.94724 20.0523 9.49953 19.5 9.49953H4.5ZM20.5 18.9774L17.276 15.8123C16.8151 15.3599 16.0855 15.333 15.5926 15.7502L14.271 16.869L15.4014 18.2071C15.6687 18.5236 15.6289 18.9968 15.3125 19.2641C14.9961 19.5314 14.5229 19.4916 14.2556 19.1751L9.96277 14.0935C9.48723 13.5306 8.6304 13.4991 8.11481 14.0256L3.5 18.738V19.4995C3.5 20.0518 3.94772 20.4995 4.5 20.4995H19.5C20.0523 20.4995 20.5 20.0518 20.5 19.4995V18.9774Z" fill="white"/>
</svg>
