<svg width="24" height="24" viewBox="0 0 24 24" fill="none" xmlns="http://www.w3.org/2000/svg">
<path fill-rule="evenodd" clip-rule="evenodd" d="M2.41623 4.87867C1.45541 3.74088 2.26471 2 3.75446 2L20.2454 2C21.7809 2 22.5729 3.83442 21.5193 4.95075L15.7025 12.72C15.6606 12.7645 15.6363 12.8189 15.6345 12.88L15.4107 19.1079C15.3899 19.7948 14.9687 20.406 14.3339 20.6703L11.1445 21.8654C9.99111 22.3457 8.71994 21.4987 8.71994 20.25V12.8806C8.71994 12.8215 8.69905 12.7644 8.66096 12.7193L2.41623 4.87867ZM3.75446 3.5C3.54165 3.5 3.42603 3.7487 3.56329 3.91124L9.80802 11.7519C10.0746 12.0676 10.2209 12.4674 10.2209 12.8806V20.25C10.2209 20.4284 10.4025 20.5494 10.5673 20.4807L13.7566 19.2857C13.8473 19.2479 13.9075 19.1606 13.9105 19.0625L14.1342 12.88C14.1472 12.452 14.3167 12.0615 14.6107 11.75L20.4274 3.92154C20.5779 3.76206 20.4648 3.5 20.2454 3.5H3.75446Z" fill="white"/>
</svg>
