<svg width="24" height="24" viewBox="0 0 24 24" fill="none" xmlns="http://www.w3.org/2000/svg">
<path d="M7.50105 2.74902V4.75302H9.50005V2.74902C9.50005 2.33502 9.83605 1.99902 10.25 1.99902C10.664 1.99902 11 2.33502 11 2.74902V4.75302H12.999V2.74902C12.999 2.33502 13.335 1.99902 13.749 1.99902C14.163 1.99902 14.499 2.33502 14.499 2.74902V4.75302H16.498V2.74902C16.498 2.33502 16.834 1.99902 17.248 1.99902C17.662 1.99902 17.998 2.33502 17.998 2.74902V5.19702C18.319 5.40602 18.594 5.68102 18.803 6.00202H21.251C21.665 6.00202 22.001 6.33802 22.001 6.75202C22.001 7.16602 21.665 7.50202 21.251 7.50202H19.247V9.50102H21.251C21.665 9.50102 22.001 9.83702 22.001 10.251C22.001 10.665 21.665 11.001 21.251 11.001H19.247V13H21.251C21.665 13 22.001 13.336 22.001 13.75C22.001 14.164 21.665 14.5 21.251 14.5H19.247V16.499H21.251C21.665 16.499 22.001 16.835 22.001 17.249C22.001 17.663 21.665 17.999 21.251 17.999H18.803C18.594 18.32 18.319 18.595 17.998 18.804V21.252C17.998 21.666 17.662 22.002 17.248 22.002C16.834 22.002 16.498 21.666 16.498 21.252V19.248H14.499V21.252C14.499 21.666 14.163 22.002 13.749 22.002C13.335 22.002 12.999 21.666 12.999 21.252V19.248H11V21.252C11 21.666 10.664 22.002 10.25 22.002C9.83605 22.002 9.50005 21.666 9.50005 21.252V19.248H7.50105V21.252C7.50105 21.666 7.16505 22.002 6.75105 22.002C6.33705 22.002 6.00105 21.666 6.00105 21.252V18.804C5.68005 18.595 5.40505 18.32 5.19605 17.999H2.74805C2.33405 17.999 1.99805 17.663 1.99805 17.249C1.99805 16.835 2.33405 16.499 2.74805 16.499H4.75205V14.5H2.74805C2.33405 14.5 1.99805 14.164 1.99805 13.75C1.99805 13.336 2.33405 13 2.74805 13H4.75205V11.001H2.74805C2.33405 11.001 1.99805 10.665 1.99805 10.251C1.99805 9.83702 2.33405 9.50102 2.74805 9.50102H4.75205V7.50202H2.74805C2.33405 7.50202 1.99805 7.16602 1.99805 6.75202C1.99805 6.33802 2.33405 6.00202 2.74805 6.00202H5.19605C5.40505 5.68102 5.68005 5.40602 6.00105 5.19702V2.74902C6.00105 2.33502 6.33705 1.99902 6.75105 1.99902C7.16505 1.99902 7.50105 2.33502 7.50105 2.74902ZM7.50105 6.25202C6.81105 6.25202 6.25205 6.81102 6.25205 7.50102V16.497C6.25205 17.187 6.81105 17.746 7.50105 17.746H16.497C17.187 17.746 17.746 17.187 17.746 16.497V7.50102C17.746 6.81102 17.187 6.25202 16.497 6.25202H7.50105Z" fill="white"/>
<path d="M15.254 12.008C14.84 12.008 14.504 11.672 14.504 11.258V9.50902H12.755C12.341 9.50902 12.005 9.17302 12.005 8.75902C12.005 8.34502 12.341 8.00902 12.755 8.00902H15.254C15.668 8.00902 16.004 8.34502 16.004 8.75902V11.258C16.004 11.672 15.668 12.008 15.254 12.008Z" fill="white"/>
<path d="M9.49414 12.7393C9.49414 12.3253 9.15814 11.9893 8.74414 11.9893C8.33014 11.9893 7.99414 12.3253 7.99414 12.7393V15.2383C7.99414 15.6523 8.33014 15.9883 8.74414 15.9883H11.2431C11.6571 15.9883 11.9931 15.6523 11.9931 15.2383C11.9931 14.8243 11.6571 14.4883 11.2431 14.4883H9.49414V12.7393Z" fill="white"/>
</svg>
