<svg width="24" height="24" viewBox="0 0 24 24" fill="none" xmlns="http://www.w3.org/2000/svg">
<path d="M18 2C20.2091 2 22 3.79086 22 6V18C22 20.14 20.3194 21.8879 18.2061 21.9951L18 22H6L5.79395 21.9951C3.7488 21.8913 2.10865 20.2512 2.00488 18.2061L2 18V6C2 3.79086 3.79086 2 6 2H18ZM3.5 18C3.5 19.3807 4.61929 20.5 6 20.5H8V15.833H3.5V18ZM9.5 20.5H18C19.3807 20.5 20.5 19.3807 20.5 18V15.833H9.5V20.5ZM3.5 14.333H8V9.66699H3.5V14.333ZM9.5 14.333H20.5V9.66699H9.5V14.333ZM6 3.5C4.61929 3.5 3.5 4.61929 3.5 6V8.16699H8V3.5H6ZM9.5 8.16699H20.5V6C20.5 4.61929 19.3807 3.5 18 3.5H9.5V8.16699Z" fill="white"/>
</svg>
