<svg width="24" height="24" viewBox="0 0 24 24" fill="none" xmlns="http://www.w3.org/2000/svg">
<path d="M12.001 2.0004C11.173 2.0004 10.461 2.29751 9.86801 2.89074C9.58686 3.16475 9.36487 3.49353 9.21575 3.85676C9.06663 4.21998 8.99354 4.60994 9.00101 5.00254V12.0122C9.00101 12.8405 9.29101 13.5528 9.86801 14.146C10.1473 14.4262 10.48 14.6474 10.8464 14.7964C11.2129 14.9454 11.6055 15.0192 12.001 15.0133C12.829 15.0133 13.532 14.7232 14.111 14.146C14.704 13.5518 15.001 12.8405 15.001 12.0122V5.00154C15.001 4.17322 14.704 3.46995 14.111 2.89074C13.8406 2.60365 13.5132 2.37618 13.1499 2.22287C12.7866 2.06956 12.3953 1.99379 12.001 2.0004Z" fill="white"/>
<path d="M7.69892 11.7279C7.73954 11.8171 7.76003 11.9142 7.75896 12.0122C7.75896 13.1847 8.17296 14.185 9.00096 15.0134C9.82896 15.8417 10.829 16.2558 12.001 16.2558C13.173 16.2558 14.173 15.8417 15.001 15.0134C15.829 14.185 16.244 13.1847 16.244 12.0122C16.2418 11.9164 16.2594 11.8211 16.2955 11.7324C16.3316 11.6436 16.3855 11.5631 16.454 11.496C16.5231 11.4223 16.6066 11.3635 16.6993 11.3232C16.792 11.283 16.8919 11.2621 16.993 11.2619C17.0946 11.2589 17.1957 11.2783 17.289 11.3188C17.3824 11.3592 17.4656 11.4198 17.533 11.496C17.6014 11.5631 17.6553 11.6436 17.6914 11.7324C17.7275 11.8211 17.7451 11.9164 17.743 12.0122C17.743 12.7465 17.618 13.4348 17.368 14.075C17.1252 14.7198 16.7681 15.3156 16.314 15.8337C15.8577 16.3361 15.3185 16.7564 14.72 17.0761C14.1076 17.4054 13.4404 17.62 12.751 17.7094V20.5234H14.509C14.6046 20.5215 14.6996 20.5391 14.7882 20.5752C14.8767 20.6113 14.957 20.6652 15.024 20.7335C15.1004 20.8008 15.1611 20.884 15.2017 20.9774C15.2423 21.0708 15.2619 21.1719 15.259 21.2737C15.2601 21.3718 15.2396 21.4688 15.199 21.558C15.1584 21.6473 15.0986 21.7264 15.024 21.7899C14.884 21.93 14.712 22 14.509 22H9.49396C9.28996 22 9.10996 21.93 8.95396 21.7899C8.81396 21.6489 8.74396 21.4698 8.74396 21.2497C8.74198 21.1541 8.75959 21.059 8.7957 20.9704C8.83182 20.8818 8.88567 20.8015 8.95396 20.7345C9.02306 20.6607 9.10654 20.6019 9.19924 20.5617C9.29194 20.5214 9.3919 20.5006 9.49296 20.5004H11.251V17.7094C10.548 17.6163 9.89196 17.4053 9.28196 17.0761C8.67296 16.748 8.14196 16.3339 7.68796 15.8337C7.24475 15.3081 6.88888 14.7146 6.63396 14.076C6.38396 13.4348 6.25896 12.7465 6.25896 12.0122C6.25684 11.9164 6.27438 11.8211 6.3105 11.7324C6.34662 11.6436 6.40055 11.5631 6.46896 11.496C6.53628 11.4198 6.61956 11.3592 6.71289 11.3188C6.80621 11.2783 6.90729 11.2589 7.00896 11.2619C7.10671 11.2608 7.2035 11.2812 7.2925 11.3217C7.38149 11.3621 7.46051 11.4216 7.52396 11.496C7.59858 11.5596 7.65831 11.6387 7.69892 11.7279Z" fill="white"/>
<path d="M17.9486 2.47055C17.9847 2.5593 18.0023 2.65451 18.0001 2.7503V8.7503C18.0016 8.95069 17.9261 9.14399 17.7892 9.2903C17.7185 9.36006 17.6343 9.41466 17.5418 9.45077C17.4493 9.48688 17.3504 9.50373 17.2511 9.5003C17.0471 9.5003 16.8671 9.4303 16.7111 9.2903C16.5711 9.1333 16.5011 8.9533 16.5011 8.7503V2.7503C16.499 2.65451 16.5166 2.5593 16.5527 2.47055C16.5888 2.3818 16.6427 2.30139 16.7111 2.2343C16.7803 2.16061 16.8638 2.10183 16.9565 2.06159C17.0492 2.02135 17.1491 2.0005 17.2501 2.0003C17.3518 1.99729 17.4529 2.01669 17.5462 2.05713C17.6395 2.09757 17.7228 2.15806 17.7901 2.2343C17.8586 2.30139 17.9125 2.3818 17.9486 2.47055Z" fill="white"/>
<path d="M19.9992 4.74247C20.0011 4.64684 19.9835 4.55182 19.9474 4.46325C19.9113 4.37468 19.8574 4.29444 19.7892 4.22747C19.7219 4.15104 19.6387 4.09037 19.5454 4.04975C19.452 4.00914 19.3509 3.98958 19.2492 3.99247C19.148 3.99279 19.048 4.0138 18.9553 4.05421C18.8626 4.09463 18.7792 4.15359 18.7101 4.22747C18.6419 4.29444 18.588 4.37468 18.5519 4.46325C18.5158 4.55182 18.4982 4.64684 18.5002 4.74247V7.74247C18.5002 7.96147 18.5702 8.14147 18.7101 8.28247C18.8661 8.42247 19.0462 8.49247 19.2502 8.49247C19.3494 8.4959 19.4483 8.47904 19.5408 8.44293C19.6333 8.40682 19.7175 8.35222 19.7882 8.28247C19.8583 8.21164 19.9133 8.12718 19.9496 8.03431C19.9858 7.94144 20.0027 7.84211 19.9992 7.74247V4.74247Z" fill="white"/>
<path d="M21.9476 5.47055C21.9837 5.5593 22.0013 5.65451 21.9992 5.7503V6.7573C22.0006 6.95769 21.9251 7.15099 21.7882 7.2973C21.7175 7.36706 21.6333 7.42166 21.5408 7.45777C21.4483 7.49388 21.3494 7.51073 21.2502 7.5073C21.0462 7.5073 20.8662 7.4373 20.7102 7.2973C20.5702 7.1413 20.5002 6.9613 20.5002 6.7583V5.7503C20.4981 5.65451 20.5156 5.5593 20.5517 5.47055C20.5878 5.3818 20.6418 5.30139 20.7102 5.2343C20.7793 5.16061 20.8628 5.10183 20.9555 5.06159C21.0482 5.02135 21.1481 5.0005 21.2492 5.0003C21.3508 4.99729 21.4519 5.01669 21.5452 5.05713C21.6386 5.09757 21.7218 5.15806 21.7892 5.2343C21.8576 5.30139 21.9115 5.3818 21.9476 5.47055Z" fill="white"/>
<path d="M5.4442 3.64571C5.48481 3.73904 5.50437 3.84017 5.50148 3.94191V9.94091C5.5013 10.0422 5.48035 10.1424 5.43993 10.2353C5.39951 10.3281 5.34048 10.4117 5.26648 10.4809C5.12648 10.6209 4.95448 10.6909 4.75148 10.6909C4.53248 10.6909 4.35248 10.6209 4.21148 10.4809C4.07148 10.3249 4.00148 10.1449 4.00148 9.94191V3.94191C3.99778 3.84233 4.0145 3.74305 4.05061 3.65018C4.08673 3.55731 4.14148 3.47282 4.21148 3.40191C4.28239 3.33191 4.36689 3.27716 4.45975 3.24104C4.55262 3.20493 4.65191 3.18821 4.75148 3.19191C4.84711 3.18993 4.94213 3.20754 5.0307 3.24365C5.11927 3.27977 5.19951 3.33362 5.26648 3.40191C5.3429 3.46914 5.40358 3.55238 5.4442 3.64571Z" fill="white"/>
<path d="M7.5021 4.92606C7.50303 4.82825 7.48246 4.73143 7.44185 4.64244C7.40125 4.55345 7.34159 4.47446 7.2671 4.41106C7.2037 4.33657 7.12472 4.27692 7.03573 4.23631C6.94674 4.1957 6.84992 4.17514 6.7521 4.17606C6.65036 4.17317 6.54923 4.19273 6.4559 4.23335C6.36257 4.27396 6.27933 4.33464 6.2121 4.41106C6.14382 4.47803 6.08996 4.55827 6.05384 4.64684C6.01773 4.73541 6.00012 4.83043 6.0021 4.92606V8.93406C6.0021 9.13706 6.0721 9.31706 6.2121 9.47406C6.3531 9.61406 6.5331 9.68406 6.7521 9.68406C6.9551 9.68406 7.1271 9.61406 7.2671 9.47406C7.3411 9.40489 7.40014 9.32129 7.44055 9.22841C7.48097 9.13553 7.50192 9.03535 7.5021 8.93406V4.92606Z" fill="white"/>
<path d="M3.50115 5.9339C3.50222 5.83592 3.48172 5.7389 3.44111 5.64973C3.4005 5.56055 3.34077 5.48141 3.26615 5.4179C3.20265 5.34359 3.12362 5.28413 3.03464 5.24369C2.94566 5.20326 2.84888 5.18285 2.75115 5.1839C2.64948 5.18088 2.5484 5.20029 2.45507 5.24073C2.36175 5.28117 2.27847 5.34166 2.21115 5.4179C2.14274 5.48499 2.08881 5.56539 2.05269 5.65414C2.01657 5.74289 1.99903 5.8381 2.00115 5.9339V7.9259C2.00115 8.1449 2.07115 8.3249 2.21115 8.4659C2.35215 8.6059 2.53215 8.6759 2.75115 8.6759C2.95415 8.6759 3.12615 8.6059 3.26615 8.4659C3.34257 8.39867 3.40325 8.31543 3.44386 8.2221C3.48448 8.12877 3.50404 8.02764 3.50115 7.9259V5.9339Z" fill="white"/>
</svg>
