<svg width="24" height="24" viewBox="0 0 24 24" fill="none" xmlns="http://www.w3.org/2000/svg">
<path d="M16.9868 3.523C17.6888 3.523 18.2828 3.773 18.7658 4.272C19.2508 4.756 19.4918 5.349 19.4918 6.05V19.843L14.3168 15.206C13.6868 14.623 12.8568 14.305 11.9988 14.317C11.1098 14.317 10.3368 14.613 9.68079 15.206L4.50579 19.841V6.052C4.50579 5.35 4.74779 4.756 5.23179 4.273C5.71579 3.773 6.30879 3.524 7.00979 3.524L16.9868 3.523ZM7.01279 2C5.90379 2 4.95979 2.399 4.17979 3.195C3.39879 3.974 3.00879 4.926 3.00879 6.05V20.966C3.00879 21.403 3.20379 21.715 3.59379 21.902C3.98379 22.074 4.34279 22.019 4.67079 21.738L10.6648 16.329C11.0548 15.985 11.4998 15.814 11.9998 15.814C12.4998 15.814 12.9438 15.986 13.3348 16.329L19.3288 21.738C19.6568 22.019 20.0148 22.074 20.4058 21.902C20.7958 21.715 20.9908 21.402 20.9908 20.966V6.051C20.9908 4.927 20.6008 3.975 19.8198 3.194C19.0398 2.399 18.0958 2 16.9868 2H7.01279Z" fill="white"/>
</svg>
