<svg width="24" height="24" viewBox="0 0 24 24" fill="none" xmlns="http://www.w3.org/2000/svg">
<path d="M9.70991 9.728C9.89691 9.547 10.0139 9.294 10.0139 9.013V8.982C10.0139 8.711 9.89691 8.468 9.70891 8.299C9.52291 8.096 9.28891 7.994 9.00791 7.994H8.99591C8.71491 7.994 8.46191 8.111 8.28091 8.299C8.09391 8.485 8.00091 8.72 8.00091 9.001V9.02C8.00091 9.294 8.10791 9.544 8.28091 9.728C8.48391 9.915 8.72591 10.008 9.00691 10.008H9.03491C9.29891 10.008 9.53691 9.901 9.70991 9.728Z" fill="white"/>
<path d="M15.7049 9.728C15.8919 9.547 16.0089 9.294 16.0089 9.013V8.982C16.0089 8.711 15.8919 8.468 15.7039 8.299C15.5179 8.096 15.2839 7.994 15.0029 7.994H14.9909C14.7099 7.994 14.4569 8.111 14.2759 8.299C14.0889 8.485 13.9959 8.72 13.9959 9.001V9.02C13.9959 9.294 14.1029 9.544 14.2759 9.728C14.4789 9.915 14.7209 10.008 15.0019 10.008H15.0299C15.2939 10.008 15.5319 9.901 15.7049 9.728Z" fill="white"/>
<path d="M20.8329 3.171C20.0519 2.39 19.1079 2 17.9989 2H6.00891C4.90091 2 3.95591 2.391 3.17491 3.172C2.39391 3.953 2.00391 4.897 2.00391 6.006V17.996C2.00391 19.104 2.39391 20.049 3.17491 20.83C3.95591 21.611 4.89991 22.001 6.00891 22.001H11.6109C12.1139 22.001 12.5959 21.906 13.0109 21.743C13.4629 21.572 13.8769 21.322 14.2519 20.994L20.6219 15.42C21.0589 15.045 21.3939 14.592 21.6289 14.062C21.8789 13.53 22.0039 12.977 22.0039 12.398V6.005C22.0039 4.897 21.6139 3.952 20.8329 3.171ZM4.22891 4.248C4.72891 3.749 5.32191 3.499 6.00891 3.499H17.9989V3.497C18.6869 3.497 19.2709 3.746 19.7559 4.246C20.2549 4.731 20.5049 5.316 20.5049 6.003V12.399C20.5049 12.4169 20.5047 12.4348 20.5043 12.4527C20.1305 12.1681 19.7176 11.9229 19.2629 11.72C18.5599 11.407 17.8029 11.251 16.9909 11.251H16.9659C16.1719 11.251 15.4159 11.415 14.7669 11.696L14.7289 11.711C14.0589 12.01 13.4529 12.427 12.9399 12.937C12.4299 13.451 12.0129 14.056 11.6989 14.765C11.6351 14.9158 11.5782 15.0683 11.5282 15.2227C11.1152 15.1636 10.7274 15.0259 10.3639 14.81C9.86391 14.498 9.47391 14.101 9.19391 13.616C9.08491 13.444 8.92791 13.335 8.72491 13.289L8.72991 13.29C8.66391 13.267 8.59191 13.255 8.51791 13.255C8.38591 13.255 8.26291 13.294 8.16291 13.359L8.16591 13.358L8.16191 13.36C7.99491 13.454 7.86891 13.611 7.81491 13.804L7.81591 13.799C7.79991 13.862 7.79091 13.928 7.79091 13.996C7.79091 14.132 7.82591 14.259 7.88491 14.366L7.89691 14.389C8.30791 15.083 8.88391 15.668 9.59391 16.1L9.57291 16.088C10.0798 16.3952 10.6506 16.6075 11.2607 16.7007C11.2562 16.7959 11.2539 16.8916 11.2539 16.988V17.015C11.2539 17.809 11.4179 18.565 11.6989 19.214L11.7139 19.252C11.8891 19.6542 12.1071 20.0334 12.362 20.3833C12.1215 20.4609 11.869 20.5 11.6059 20.5H6.00791C5.31991 20.5 4.72791 20.259 4.22791 19.774C3.74391 19.274 3.50191 18.681 3.50191 17.994V5.965C3.50191 5.292 3.78091 4.683 4.22891 4.248ZM13.6188 19.56C13.4056 19.28 13.2261 18.9691 13.0809 18.627C12.8629 18.112 12.7529 17.566 12.7529 16.988C12.7529 15.817 13.1659 14.817 13.9939 13.99C14.8219 13.163 15.8209 12.749 16.9919 12.749V12.75H17.0199C17.6119 12.75 18.1739 12.88 18.6539 13.102L18.6819 13.112C19.1605 13.31 19.5941 13.5943 19.9639 13.945C19.8683 14.0683 19.7595 14.1844 19.6379 14.293L13.6188 19.56Z" fill="white"/>
</svg>
