<svg width="24" height="24" viewBox="0 0 24 24" fill="none" xmlns="http://www.w3.org/2000/svg">
<path d="M3.75 12.0508C2.7835 12.0508 2 12.8343 2 13.8008L2 20.251C2 21.2175 2.7835 22.001 3.75 22.001H20.2499C21.2164 22.001 21.9999 21.2175 21.9999 20.251V16.8008C21.9999 15.8343 21.2164 15.0508 20.2499 15.0508H16.2499C16.165 15.0508 16.0815 15.0568 15.9999 15.0685V10.8008C15.9999 9.83428 15.2164 9.05078 14.2499 9.05078H9.75C8.7835 9.05078 8 9.83428 8 10.8008V12.0685C7.91835 12.0568 7.83488 12.0508 7.75 12.0508H3.75ZM15.9999 16.8008C15.9999 16.6627 16.1118 16.5508 16.2499 16.5508H20.2499C20.3879 16.5508 20.4999 16.6627 20.4999 16.8008V20.251C20.4999 20.389 20.3879 20.501 20.2499 20.501H15.9999V16.8008ZM14.4999 10.8008V20.501H9.5V10.8008C9.5 10.6627 9.61193 10.5508 9.75 10.5508H14.2499C14.3879 10.5508 14.4999 10.6627 14.4999 10.8008ZM8 13.8008V20.501H3.75C3.61193 20.501 3.5 20.389 3.5 20.251V13.8008C3.5 13.6627 3.61193 13.5508 3.75 13.5508H7.75C7.88807 13.5508 8 13.6627 8 13.8008Z" fill="white"/>
<path d="M11.2714 2.48369C11.4809 1.83877 12.3933 1.83877 12.6029 2.48369L12.959 3.57967H14.1114C14.7895 3.57967 15.0714 4.44741 14.5228 4.84599L13.5905 5.52334L13.9466 6.61932C14.1562 7.26424 13.418 7.80053 12.8694 7.40195L11.9371 6.72459L11.0048 7.40195C10.4562 7.80053 9.71806 7.26424 9.92761 6.61932L10.2837 5.52334L9.35141 4.84599C8.80281 4.44741 9.08476 3.57967 9.76286 3.57967H10.9153L11.2714 2.48369ZM11.9371 3.67083L11.799 4.09599C11.7053 4.3844 11.4365 4.57967 11.1332 4.57967H10.6862L11.0479 4.84244C11.2932 5.02069 11.3959 5.33665 11.3022 5.62506L11.164 6.05022L11.5257 5.78746C11.771 5.60921 12.1032 5.60921 12.3486 5.78746L12.7102 6.05022L12.5721 5.62506C12.4784 5.33665 12.581 5.02069 12.8264 4.84244L13.188 4.57967H12.741C12.4377 4.57967 12.169 4.3844 12.0753 4.09599L11.9371 3.67083Z" fill="white"/>
</svg>
