<svg width="24" height="24" viewBox="0 0 24 24" fill="none" xmlns="http://www.w3.org/2000/svg">
<path d="M7.30398 2.00653L20.09 2.90053C21.22 2.97953 22.072 3.95953 21.993 5.08953L21.099 17.8755C21.02 19.0015 20.046 19.8525 18.921 19.7785V19.9495C18.921 21.0825 18.003 22.0005 16.87 22.0005H4.05198C2.91898 22.0005 2.00098 21.0825 2.00098 19.9495V7.13153C2.00098 5.99853 2.91898 5.08053 4.05198 5.08053H5.03298L5.11498 3.90753C5.19398 2.77753 6.17398 1.92553 7.30398 2.00453V2.00653ZM18.921 18.1525C19.294 18.0205 19.571 17.6775 19.601 17.2575L20.424 5.49353C20.464 4.92853 20.038 4.43853 19.473 4.39953L7.70898 3.57653C7.14398 3.53653 6.65398 3.96253 6.61498 4.52753L6.57598 5.08153H16.871C18.004 5.08153 18.922 5.99953 18.922 7.13253V18.1515L18.921 18.1525ZM4.56498 6.62053C3.99898 6.62053 3.53998 7.07953 3.53998 7.64553V15.2255C4.07398 14.6595 5.58898 13.0495 6.62098 11.9345C7.08298 11.4355 7.57798 11.1875 8.29598 11.1695C9.05598 11.1505 9.67598 11.4955 10.089 11.9345C10.61 12.4885 11.24 13.1645 11.867 13.8395C11.952 13.7465 12.047 13.6435 12.152 13.5295C12.613 13.0305 13.109 12.7825 13.827 12.7645C14.587 12.7455 15.208 13.0905 15.62 13.5295C16.274 14.2255 16.881 14.8455 17.383 15.3485V7.64653C17.383 7.08053 16.924 6.62153 16.358 6.62153H4.56598L4.56498 6.62053ZM3.53998 19.4385C3.53998 20.0045 3.99898 20.4635 4.56498 20.4635H16.357C16.923 20.4635 17.382 20.0045 17.382 19.4385V17.1485C16.868 16.6485 15.885 15.6755 14.76 14.4785C14.548 14.2525 14.232 14.0055 13.826 14.0225C13.451 14.0375 13.212 14.2285 12.981 14.4785C12.887 14.5805 12.8 14.6745 12.719 14.7595C13.362 15.4525 13.94 16.0785 14.314 16.4835C14.555 16.7445 14.534 17.1515 14.27 17.3885C14.011 17.6205 13.614 17.6035 13.378 17.3475C13.008 16.9475 12.433 16.3265 11.797 15.6405C11.772 15.6485 11.768 15.6345 11.773 15.6145C10.916 14.6905 9.95198 13.6535 9.22798 12.8845C9.01598 12.6585 8.69998 12.4115 8.29398 12.4285C7.91898 12.4435 7.67998 12.6345 7.44898 12.8845C6.04698 14.4035 3.92398 16.6865 3.53798 17.1015V19.4385H3.53998Z" fill="white"/>
</svg>
