<svg width="24" height="24" viewBox="0 0 24 24" fill="none" xmlns="http://www.w3.org/2000/svg">
<path d="M3.16391 13.111L13.1149 3.15902C13.8879 2.38602 14.8189 1.99902 15.9049 1.99902C16.9909 1.99902 17.9209 2.38602 18.6959 3.15902L20.8439 5.30802C21.6169 6.08102 22.0039 7.01202 22.0039 8.09802C22.0039 9.18402 21.6169 10.114 20.8439 10.888L10.8919 20.84C10.1189 21.613 9.18791 22 8.10191 22C7.01591 22 6.08591 21.613 5.31091 20.84L3.16391 18.69C2.39091 17.917 2.00391 16.986 2.00391 15.9C2.00391 14.814 2.39091 13.884 3.16391 13.11V13.111ZM15.0409 14.444L19.7319 9.77702C19.9559 9.55902 20.1319 9.29802 20.2509 9.00902C20.3699 8.72002 20.4279 8.41002 20.4229 8.09802C20.4289 7.78602 20.3699 7.47602 20.2509 7.18702C20.1319 6.89802 19.9549 6.63702 19.7319 6.41902L17.5829 4.27102C17.3649 4.04702 17.1039 3.87102 16.8149 3.75202C16.5259 3.63302 16.2159 3.57502 15.9039 3.58002C15.5919 3.57402 15.2819 3.63302 14.9929 3.75202C14.7039 3.87102 14.4429 4.04802 14.2249 4.27102L9.55891 8.96202L15.0399 14.443L15.0409 14.444Z" fill="white"/>
</svg>
