<svg width="24" height="24" viewBox="0 0 24 24" fill="none" xmlns="http://www.w3.org/2000/svg">
<path fill-rule="evenodd" clip-rule="evenodd" d="M16.8711 4.99809H17.9952C19.1043 4.99809 20.0486 5.38778 20.8289 6.16915C21.6093 6.94953 22 7.89477 22 9.00289V10.2709C22 10.6847 21.6717 11.0203 21.2578 11.0203C20.8439 11.0203 20.5012 10.6847 20.5012 10.2709V9.00289C20.5012 8.31544 20.2514 7.7309 19.7518 7.24629C19.2672 6.74669 18.6827 6.49689 17.9952 6.49689H6.0048C5.31735 6.49689 4.72482 6.74669 4.22522 7.24629C3.99052 7.4739 3.80498 7.74721 3.68004 8.04934C3.5551 8.35146 3.49341 8.67599 3.4988 9.00289V17.9957C3.4988 18.6831 3.74061 19.2757 4.22522 19.7753C4.72482 20.2599 5.31735 20.5017 6.0048 20.5017H11.8732C12.2871 20.5017 12.6226 20.8601 12.6226 21.274C12.6226 21.6879 12.2871 22.0005 11.8732 22.0005H6.0048C4.89568 22.0005 3.95144 21.6108 3.17106 20.8294C2.39069 20.049 2 19.1038 2 17.9957V6.00528C2 4.89617 2.38969 3.95193 3.17106 3.17155C3.95144 2.39118 4.89668 2.00049 6.0048 2.00049H13.0072C13.9285 2.00049 14.7478 2.29026 15.4652 2.8668C16.1626 3.39668 16.6585 4.14846 16.8711 4.99809ZM6.0048 3.49929C5.33333 3.49929 4.7558 3.7341 4.27218 4.20173C3.80816 4.64434 3.53139 5.24794 3.4988 5.88838C3.84253 5.6076 4.22522 5.38878 4.64688 5.2329C5.08353 5.07603 5.53617 4.99809 6.0048 4.99809H15.2784C15.0874 4.55649 14.7695 4.18158 14.3651 3.92095C13.9671 3.64228 13.492 3.49486 13.0062 3.49929H6.0048Z" fill="white"/>
<path fill-rule="evenodd" clip-rule="evenodd" d="M18.064 17.0205C19.4447 17.0205 20.564 15.9012 20.564 14.5205C20.564 13.1398 19.4447 12.0205 18.064 12.0205C16.6833 12.0205 15.564 13.1398 15.564 14.5205C15.564 15.9012 16.6833 17.0205 18.064 17.0205ZM18.064 15.5205C18.6162 15.5205 19.064 15.0728 19.064 14.5205C19.064 13.9682 18.6162 13.5205 18.064 13.5205C17.5117 13.5205 17.064 13.9682 17.064 14.5205C17.064 15.0728 17.5117 15.5205 18.064 15.5205Z" fill="white"/>
<path d="M17.7186 17.6203H18.4094C20.6185 17.6203 22 18.7757 22 20.985V21.2532C22 21.667 21.6646 22.0024 21.2507 22.0024C20.8369 22.0024 20.5015 21.667 20.5015 21.2532V21.178C20.5015 19.6896 19.2949 19.1184 18.2159 19.1184C18.1782 19.1184 18.1409 19.1188 18.104 19.1195V19.1217C18.0908 19.1212 18.0774 19.1208 18.064 19.1205C18.0506 19.1208 18.0372 19.1212 18.0239 19.1217V19.1195C17.9871 19.1188 17.9498 19.1184 17.9121 19.1184C16.8331 19.1184 15.6265 19.6896 15.6265 21.178V21.2532C15.6265 21.667 15.291 22.0024 14.8772 22.0024C14.4634 22.0024 14.128 21.667 14.128 21.2532V20.985C14.128 18.7757 15.5095 17.6203 17.7186 17.6203Z" fill="white"/>
</svg>
