<svg width="24" height="24" viewBox="0 0 24 24" fill="none" xmlns="http://www.w3.org/2000/svg">
<path fill-rule="evenodd" clip-rule="evenodd" d="M19.6143 2.03123C20.1436 1.89427 20.6826 2.21702 20.8184 2.75194L21.5655 5.69823C21.7005 6.23133 21.3843 6.77467 20.8575 6.91405L9.47369 9.92577H20.0206L20.2227 9.93651C21.221 10.0388 22.0001 10.8908 22.0001 11.9267V14.3428C22 14.7526 21.6677 15.0849 21.2579 15.0849C20.848 15.0849 20.5158 14.7526 20.5157 14.3428V12.4267C20.5157 11.9089 20.126 11.4829 19.627 11.4316L19.5254 11.4258H4.67974C4.13335 11.426 3.69049 11.8745 3.69049 12.4267V19.499C3.69049 20.0513 4.13335 20.4997 4.67974 20.5H14.335L14.4112 20.5039C14.7896 20.5422 15.085 20.8615 15.085 21.25C15.0849 21.6641 14.7492 21.9998 14.335 22H4.1856C3.0924 22 2.20611 21.1039 2.20611 19.999V11.9267L2.20709 11.8486L2.00299 8.2617C1.94921 7.30718 2.57196 6.44739 3.48834 6.20994L19.6143 2.03123ZM4.28131 7.55272C4.0053 7.62424 3.84554 7.91625 3.93267 8.19041L4.28814 9.30662C4.36846 9.5592 4.62986 9.70449 4.88385 9.63768L7.67291 8.90135L5.26178 7.29881L4.28131 7.55272ZM7.20611 6.79491L9.6065 8.39061L12.2335 7.69725L9.84674 6.11034L7.20611 6.79491ZM11.7901 5.60741L14.167 7.18651L16.5753 6.55077L14.212 4.97948L11.7901 5.60741ZM19.3047 3.66014L16.1563 4.47557L18.5088 6.04002L19.8223 5.69334C20.0859 5.62375 20.2445 5.35164 20.1768 5.08494L19.9073 4.02049C19.8394 3.75297 19.5694 3.59162 19.3047 3.66014Z" fill="white"/>
<path d="M19.4483 17.0137C19.7096 17.0137 19.8809 17.1309 19.9581 17.3652L20.3116 18.3476C20.3401 18.4306 20.3795 18.5095 20.4288 18.582C20.4823 18.6355 20.5457 18.676 20.626 18.7012L21.6485 19.0156C21.883 19.0944 22.0001 19.2641 22.0001 19.5254C22 19.7615 21.8829 19.9193 21.6485 19.998L20.626 20.3115C20.5448 20.3402 20.4752 20.3955 20.4297 20.4687C20.376 20.524 20.3358 20.5915 20.3126 20.665L19.959 21.6465C19.8803 21.881 19.708 22 19.4483 22C19.2138 22 19.0544 21.8828 18.9756 21.6484L18.6241 20.665C18.6008 20.5915 18.5607 20.524 18.5069 20.4687C18.461 20.3951 18.3906 20.3398 18.3087 20.3115L17.2872 19.998C17.0526 19.9193 16.9356 19.7633 16.9356 19.5254C16.9356 19.264 17.0526 19.0944 17.2872 19.0156L18.3087 18.7012C18.3822 18.678 18.4497 18.6378 18.5049 18.584C18.5542 18.5115 18.5936 18.4325 18.6221 18.3496L18.9756 17.3652C19.0544 17.1309 19.2122 17.0137 19.4483 17.0137Z" fill="white"/>
<path d="M14.0167 15.5068C14.226 15.507 14.3631 15.6011 14.4249 15.789L14.7081 16.5771C14.7309 16.6437 14.7633 16.7064 14.8028 16.7646C14.8458 16.8076 14.8965 16.8402 14.961 16.8603L15.7813 17.1133C15.9692 17.1765 16.0635 17.312 16.0635 17.5215C16.0635 17.7108 15.9692 17.8372 15.7813 17.9004L14.961 18.1523C14.8958 18.1753 14.8402 18.2196 14.8038 18.2783C14.7606 18.3226 14.7287 18.3766 14.71 18.4355L14.4258 19.2236C14.3627 19.4114 14.2246 19.5067 14.0167 19.5068C13.8285 19.5068 13.6999 19.4128 13.6368 19.2246L13.3545 18.4355C13.3359 18.3766 13.304 18.3226 13.2608 18.2783C13.224 18.2194 13.1682 18.1751 13.1026 18.1523L12.2823 17.9004C12.0942 17.8372 12.0001 17.7123 12.0001 17.5215C12.0001 17.3119 12.0942 17.1764 12.2823 17.1133L13.1026 16.8603C13.1615 16.8417 13.2156 16.8097 13.2598 16.7666C13.2994 16.7083 13.3307 16.6447 13.3536 16.5781L13.6368 15.789C13.6999 15.6009 13.8271 15.5068 14.0167 15.5068Z" fill="white"/>
<path d="M17.4981 12.626C17.6997 12.6261 17.8312 12.7175 17.8907 12.8984L18.1641 13.6562C18.1861 13.7201 18.216 13.781 18.254 13.8369C18.2954 13.8783 18.3452 13.9093 18.4073 13.9287L19.1963 14.1719C19.3772 14.2327 19.4678 14.3637 19.4678 14.5654C19.4678 14.7475 19.3771 14.8689 19.1963 14.9297L18.4073 15.1719C18.3446 15.1939 18.291 15.2366 18.2559 15.293C18.2144 15.3355 18.1831 15.3876 18.1651 15.4443L17.8926 16.2031C17.8318 16.3839 17.6983 16.4754 17.4981 16.4756C17.317 16.4756 17.1937 16.3851 17.1329 16.2041L16.8614 15.4443C16.8434 15.3876 16.8121 15.3355 16.7706 15.293C16.7351 15.2364 16.6813 15.1937 16.6182 15.1719L15.8292 14.9297C15.6482 14.8689 15.5577 14.7489 15.5577 14.5654C15.5577 14.3636 15.6481 14.2327 15.8292 14.1719L16.6182 13.9287C16.675 13.9108 16.727 13.8795 16.7696 13.8379C16.8076 13.7819 16.8384 13.7212 16.8604 13.6572L17.1329 12.8984C17.1937 12.7173 17.3157 12.626 17.4981 12.626Z" fill="white"/>
</svg>
