<svg width="24" height="24" viewBox="0 0 24 24" fill="none" xmlns="http://www.w3.org/2000/svg">
<path d="M3.96702 7.43599H5.43022C5.96384 7.43599 6.42008 7.62499 6.80196 8.00499C7.18283 8.38399 7.37377 8.83999 7.37377 9.36999V20.042C7.37377 20.589 7.18384 21.052 6.80196 21.43C6.42109 21.809 5.96283 21.999 5.43022 21.999H3.96702C3.41732 21.999 2.95203 21.81 2.57217 21.43C2.38625 21.25 2.24054 21.034 2.14205 20.795C2.04357 20.556 1.99533 20.3 2.00036 20.042V9.36999C2.00036 8.83899 2.19129 8.38399 2.57217 8.00499C2.95304 7.62599 3.41833 7.43599 3.96702 7.43599ZM5.43022 8.89299H3.96702C3.83236 8.89199 3.70172 8.93999 3.60123 9.02899C3.556 9.07399 3.52083 9.12699 3.49772 9.18599C3.4746 9.24499 3.46355 9.30799 3.46455 9.37099V20.043C3.46455 20.179 3.50978 20.301 3.60123 20.407C3.70172 20.496 3.83236 20.544 3.96702 20.543H5.43022C5.56689 20.543 5.68145 20.498 5.7729 20.407C5.86234 20.307 5.91158 20.177 5.91058 20.043V9.37099C5.91259 9.30799 5.90153 9.24499 5.87842 9.18599C5.85531 9.12699 5.82013 9.07399 5.77491 9.02899C5.72969 8.98399 5.67643 8.94899 5.61713 8.92599C5.55784 8.90299 5.49453 8.89199 5.43122 8.89399L5.43022 8.89299Z" fill="white"/>
<path d="M11.269 1.99609H12.7322C13.2658 1.99609 13.723 2.18609 14.1039 2.56509C14.4848 2.94409 14.6757 3.40709 14.6757 3.95309V20.0419C14.6757 20.5889 14.4858 21.0518 14.1039 21.4298C13.723 21.8088 13.2648 21.9988 12.7322 21.9988H11.269C11.0137 22.0019 10.7595 21.9538 10.5243 21.8559C10.2892 21.7579 10.0751 21.6129 9.89724 21.4298C9.71132 21.2498 9.56561 21.0338 9.46712 20.7948C9.36864 20.5558 9.3204 20.2999 9.32543 20.0419V3.95309C9.32543 3.40609 9.51536 2.94309 9.89724 2.56509C10.2781 2.18609 10.7364 1.99609 11.269 1.99609ZM12.7332 3.45209H11.27C11.2047 3.45109 11.1393 3.46509 11.08 3.49209C11.0208 3.51909 10.9685 3.56009 10.9263 3.61109C10.8811 3.65609 10.8459 3.70909 10.8228 3.76809C10.7997 3.82709 10.7886 3.89009 10.7896 3.95309V20.0419C10.7896 20.1779 10.8358 20.2998 10.9263 20.4058C11.0177 20.4968 11.1323 20.5419 11.27 20.5419H12.7332C12.8698 20.5419 12.9844 20.4968 13.0769 20.4058C13.1663 20.3058 13.2145 20.1759 13.2135 20.0419V3.95309C13.2155 3.89009 13.2045 3.82709 13.1804 3.76809C13.1563 3.70909 13.1211 3.65609 13.0769 3.61109C13.0357 3.56009 12.9834 3.52009 12.9231 3.49209C12.8628 3.46409 12.7985 3.45109 12.7332 3.45209Z" fill="white"/>
<path d="M16.6266 14.218V20.043C16.6266 20.59 16.8165 21.053 17.1984 21.431C17.5793 21.81 18.0375 22 18.5701 22H20.0333C20.583 22 21.0483 21.811 21.4282 21.431C21.8091 21.052 22 20.589 22 20.043V14.218C22 13.687 21.8101 13.233 21.4282 12.853C21.2473 12.668 21.0302 12.523 20.7901 12.425C20.5499 12.327 20.2926 12.279 20.0333 12.284H18.5701C18.0365 12.284 17.5803 12.473 17.1984 12.853C16.8175 13.232 16.6266 13.688 16.6266 14.218ZM18.5701 13.74H20.0333C20.17 13.74 20.2846 13.786 20.377 13.876C20.4846 13.967 20.5368 14.082 20.5368 14.218V20.043C20.5368 20.179 20.4835 20.301 20.377 20.407C20.3318 20.452 20.2785 20.487 20.2192 20.51C20.16 20.533 20.0966 20.544 20.0333 20.543H18.5701C18.5068 20.545 18.4435 20.534 18.3852 20.51C18.3269 20.486 18.2727 20.452 18.2285 20.407C18.139 20.307 18.0898 20.177 18.0908 20.043V14.218C18.0888 14.155 18.0998 14.092 18.1229 14.033C18.1461 13.974 18.1812 13.921 18.2264 13.876C18.2717 13.831 18.3249 13.796 18.3842 13.773C18.4435 13.75 18.5068 13.738 18.5701 13.74Z" fill="white"/>
</svg>
