<svg width="24" height="24" viewBox="0 0 24 24" fill="none" xmlns="http://www.w3.org/2000/svg">
<path d="M17.381 21.9244C17.2601 21.9728 17.1306 21.9958 17.0004 21.9922C16.7194 21.9922 16.4774 21.8982 16.2734 21.7112C16.0864 21.5082 15.9934 21.2652 15.9934 20.9852C15.9912 20.8587 16.0149 20.7332 16.063 20.6162C16.1112 20.4993 16.1828 20.3934 16.2734 20.3052C16.3673 20.2074 16.4803 20.1298 16.6053 20.0774C16.7304 20.0249 16.8648 19.9987 17.0004 20.0002C17.1326 19.9972 17.2638 20.0228 17.3852 20.0753C17.5065 20.1278 17.6151 20.2059 17.7034 20.3042C17.8003 20.3889 17.8777 20.4935 17.9304 20.6108C17.983 20.7282 18.0096 20.8556 18.0084 20.9842C18.01 21.1198 17.9837 21.2543 17.9313 21.3793C17.8788 21.5043 17.8013 21.6173 17.7034 21.7112C17.6116 21.8035 17.5019 21.8761 17.381 21.9244Z" fill="white"/>
<path d="M20.381 17.9164C20.2601 17.9648 20.1306 17.9878 20.0004 17.9842C19.7194 17.9842 19.4774 17.8902 19.2734 17.7032C19.0864 17.5002 18.9934 17.2652 18.9934 17.0002C18.9897 16.8701 19.0126 16.7407 19.0608 16.6198C19.1089 16.4989 19.1813 16.3891 19.2734 16.2972C19.3673 16.1994 19.4803 16.1219 19.6053 16.0694C19.7304 16.0169 19.8648 15.9907 20.0004 15.9922C20.1327 15.9893 20.264 16.0151 20.3853 16.0678C20.5067 16.1204 20.6152 16.1987 20.7034 16.2972C20.802 16.3855 20.8802 16.494 20.9329 16.6153C20.9855 16.7367 21.0113 16.868 21.0084 17.0002C21.0082 17.132 20.9811 17.2624 20.9286 17.3833C20.8762 17.5042 20.7995 17.613 20.7034 17.7032C20.6116 17.7956 20.5019 17.8681 20.381 17.9164Z" fill="white"/>
<path d="M20.4224 6.40623C20.0324 6.79723 19.5554 6.99223 18.9924 6.99223C18.4464 6.99223 17.9764 6.79623 17.5864 6.40623C17.1954 6.01523 17.0004 5.54723 17.0004 5.00023C17.0004 4.43723 17.1964 3.96023 17.5864 3.57023C17.9774 3.18023 18.4454 2.98423 18.9924 2.98423C19.2581 2.97901 19.5221 3.02832 19.7681 3.12911C20.014 3.2299 20.2367 3.38003 20.4224 3.57023C20.8134 3.96023 21.0084 4.43723 21.0084 5.00023C21.0084 5.54623 20.8124 6.01623 20.4224 6.40623Z" fill="white"/>
<path d="M13.5555 4.55421C13.8525 4.25821 14.0005 3.90621 14.0005 3.50021C14.0005 3.07821 13.8525 2.72621 13.5555 2.44521C13.2735 2.14821 12.9225 2.00021 12.5005 2.00021C12.2999 1.9968 12.1008 2.03453 11.9154 2.11107C11.73 2.1876 11.5622 2.30133 11.4225 2.44521C11.1405 2.72621 11.0005 3.07821 11.0005 3.50021C10.9981 3.69786 11.0352 3.894 11.1097 4.07708C11.1843 4.26016 11.2947 4.42648 11.4344 4.56625C11.5742 4.70603 11.7405 4.81642 11.9236 4.89095C12.1067 4.96548 12.3028 5.00263 12.5005 5.00021C12.6979 5.0049 12.8941 4.96755 13.0759 4.89066C13.2578 4.81377 13.4213 4.69908 13.5555 4.55421Z" fill="white"/>
<path d="M7.92329 4.38732C7.97574 4.26228 8.00201 4.12781 8.00046 3.99222C8.00333 3.85998 7.97756 3.72868 7.92492 3.60734C7.87227 3.48599 7.79399 3.37747 7.69546 3.28922C7.50846 3.08622 7.27346 2.98422 6.99246 2.98422C6.86067 2.98442 6.73032 3.01158 6.60942 3.06403C6.48853 3.11648 6.37964 3.19312 6.28946 3.28922C6.10246 3.47622 6.00846 3.71122 6.00846 3.99222C6.00371 4.26193 6.10455 4.52282 6.28946 4.71922C6.49246 4.90622 6.72746 4.99922 6.99246 4.99922C7.12254 5.00297 7.25201 4.98006 7.37291 4.9319C7.49381 4.88375 7.60357 4.81137 7.69546 4.71922C7.79329 4.62532 7.87083 4.51236 7.92329 4.38732Z" fill="white"/>
<path d="M3.37747 7.93016C3.26052 7.97849 3.1349 8.00234 3.00837 8.00023C2.72737 8.00023 2.48437 7.90623 2.28137 7.71923C2.09437 7.51523 2.00037 7.27323 2.00037 6.99223C1.99675 6.86207 2.01982 6.73256 2.06815 6.61166C2.11647 6.49076 2.18904 6.38103 2.28137 6.28923C2.37527 6.1914 2.48823 6.11386 2.61327 6.0614C2.73831 6.00894 2.87278 5.98268 3.00837 5.98423C3.137 5.98302 3.26437 6.00966 3.38175 6.06231C3.49912 6.11495 3.60372 6.19236 3.68837 6.28923C3.78672 6.37757 3.86481 6.48613 3.91728 6.60747C3.96975 6.72881 3.99537 6.86006 3.99237 6.99223C3.99405 7.12774 3.96794 7.26217 3.91565 7.38721C3.86337 7.51224 3.78601 7.62524 3.68837 7.71923C3.60024 7.81004 3.49443 7.88183 3.37747 7.93016Z" fill="white"/>
<path d="M21.5551 12.5781C21.8521 12.2811 22.0001 11.9221 22.0001 11.5001C22.0001 11.0781 21.8521 10.7271 21.5551 10.4451C21.2741 10.1481 20.9221 10.0001 20.5001 10.0001C20.3032 9.99827 20.108 10.0368 19.9265 10.1134C19.7451 10.1899 19.5813 10.3028 19.4451 10.4451C19.1491 10.7271 19.0001 11.0781 19.0001 11.5001C18.9977 11.6977 19.0348 11.8939 19.1094 12.0769C19.1839 12.26 19.2943 12.4263 19.4341 12.5661C19.5738 12.7059 19.7402 12.8163 19.9232 12.8908C20.1063 12.9653 20.3025 13.0025 20.5001 13.0001C20.6955 13.0055 20.8899 12.9709 21.0713 12.8983C21.2528 12.8258 21.4174 12.7168 21.5551 12.5781Z" fill="white"/>
<path d="M9.64 21.4136C9.25 21.8036 8.781 21.9986 8.234 21.9986C7.97212 22.0022 7.71226 21.9522 7.47045 21.8516C7.22864 21.751 7.01 21.6019 6.828 21.4136L2.586 17.1706C2.196 16.7806 2 16.3106 2 15.7646C2 15.2026 2.195 14.7256 2.586 14.3346L8.81751 8.10439C9.28175 7.63282 9.84071 7.26507 10.4575 7.02539C11.0521 6.77827 11.6896 6.65084 12.3335 6.65039C12.9735 6.65039 13.6065 6.77539 14.2315 7.02539C14.8482 7.26477 15.4072 7.63218 15.8715 8.10339C16.3565 8.60339 16.7235 9.15839 16.9735 9.76739C17.2235 10.3774 17.3485 11.0024 17.3485 11.6424C17.3485 12.2824 17.2235 12.9164 16.9735 13.5414C16.7199 14.1562 16.3455 14.7138 15.8725 15.1814L9.64 21.4136ZM8.586 20.3586L13.5457 15.4759L8.58875 10.5189L3.64 15.4126C3.59386 15.4586 3.55764 15.5135 3.53356 15.5741C3.50948 15.6346 3.49806 15.6994 3.5 15.7646C3.5 15.9046 3.547 16.0226 3.64 16.1166L7.883 20.3586C7.976 20.4526 8.093 20.4986 8.234 20.4986C8.374 20.4986 8.492 20.4526 8.586 20.3586Z" fill="white"/>
</svg>
