<svg width="24" height="24" viewBox="0 0 24 24" fill="none" xmlns="http://www.w3.org/2000/svg">
<path d="M7.995 8.745C7.995 8.542 8.065 8.37 8.206 8.23C8.275 8.156 8.359 8.097 8.451 8.057C8.543 8.017 8.644 7.996 8.745 7.995H15.255C15.458 7.995 15.63 8.073 15.77 8.23C15.927 8.37 16.005 8.542 16.005 8.745C16.008 8.847 15.988 8.948 15.948 9.041C15.908 9.134 15.847 9.217 15.77 9.285C15.703 9.353 15.623 9.407 15.534 9.443C15.445 9.479 15.351 9.497 15.255 9.495H12.749V15.256C12.749 15.357 12.728 15.457 12.688 15.549C12.648 15.641 12.589 15.725 12.515 15.794C12.448 15.862 12.368 15.916 12.279 15.952C12.19 15.988 12.095 16.006 12 16.003C11.8 16.005 11.607 15.93 11.46 15.793C11.324 15.647 11.248 15.454 11.25 15.253V9.494H8.744C8.544 9.496 8.351 9.42 8.205 9.284C8.135 9.213 8.08 9.129 8.044 9.036C8.008 8.943 7.991 8.844 7.995 8.745Z" fill="white"/>
<path d="M3.171 3.171C2.39 3.951 2 4.896 2 6.005V17.995C2 19.103 2.391 20.048 3.171 20.829C3.951 21.61 4.896 22 6.005 22H17.995C19.103 22 20.048 21.609 20.829 20.829C21.61 20.049 22 19.104 22 17.995V6.005C22 4.897 21.609 3.952 20.829 3.171C20.049 2.39 19.104 2 17.995 2H6.005C4.897 2 3.952 2.391 3.171 3.171ZM4.225 4.248C4.725 3.748 5.317 3.499 6.005 3.499H17.995C18.682 3.499 19.267 3.749 19.752 4.248C20.252 4.733 20.501 5.317 20.501 6.005V17.995C20.501 18.682 20.251 19.275 19.752 19.775C19.267 20.26 18.683 20.501 17.995 20.501H6.005C5.318 20.501 4.725 20.259 4.225 19.775C3.74 19.275 3.499 18.683 3.499 17.995V6.005C3.494 5.678 3.555 5.354 3.68 5.051C3.805 4.748 3.991 4.476 4.225 4.248Z" fill="white"/>
</svg>
