<svg width="24" height="24" viewBox="0 0 24 24" fill="none" xmlns="http://www.w3.org/2000/svg">
<path fill-rule="evenodd" clip-rule="evenodd" d="M15.1666 17.8427L16.3671 21.0419C16.515 21.436 16.9544 21.6358 17.3486 21.4879C17.7427 21.34 17.9426 20.9007 17.7947 20.5065L16.7486 17.7175C18.7021 17.2448 20.1528 15.4852 20.1528 13.3861V5.8358H21.2371C21.6588 5.8358 22 5.49469 22 5.07304C22 4.6514 21.6588 4.31028 21.2371 4.31028H12.7619V3.22614C12.7619 2.80516 12.4218 2.46446 12.001 2.46338L11.999 2.46338C11.5782 2.46446 11.2381 2.80516 11.2381 3.22614V4.31028H2.76288C2.34119 4.31028 2 4.6514 2 5.07304C2 5.49469 2.34119 5.8358 2.76288 5.8358H3.84722V13.3861C3.84722 15.4842 5.29796 17.2438 7.2514 17.7175L6.20534 20.5065C6.05737 20.9007 6.25725 21.34 6.65138 21.4879C7.04557 21.6358 7.48499 21.436 7.63293 21.0419L8.83335 17.8427H15.1666ZM18.626 13.3861V5.8358H5.37098V13.3861C5.37098 15.0049 6.68348 16.3182 8.30355 16.3182H15.6934C17.3125 16.3182 18.626 15.0059 18.626 13.3861Z" fill="white"/>
<path d="M10.7967 11.7043L11.3623 12.1285C12.0339 12.6316 12.9734 12.5647 13.5666 11.9716L16.2332 9.30548C16.5312 9.00746 16.5312 8.52502 16.2332 8.22699C15.9351 7.92897 15.4526 7.92897 15.1545 8.22699L12.488 10.8931C12.4314 10.9496 12.342 10.956 12.2775 10.9076L11.7119 10.4835C11.0402 9.98036 10.1008 10.0473 9.50754 10.6404L7.76462 12.383C7.46654 12.681 7.46654 13.1635 7.76462 13.4615C8.06269 13.7595 8.54519 13.7595 8.84326 13.4615L10.5862 11.7189C10.6427 11.6624 10.7321 11.6559 10.7967 11.7043Z" fill="white"/>
</svg>
