<svg width="24" height="24" viewBox="0 0 24 24" fill="none" xmlns="http://www.w3.org/2000/svg">
<path d="M16.0759 5.05549H17.1399C18.1899 5.05549 19.0832 5.42528 19.8217 6.16688C20.5602 6.90847 20.9299 7.80423 20.9299 8.85617V11.2009C20.9299 11.5938 20.6195 11.9122 20.2276 11.9122C19.8357 11.9122 19.5112 11.5938 19.5112 11.2009V8.85617C19.5112 8.20425 19.2751 7.64906 18.8018 7.18859C18.3437 6.71401 17.79 6.47722 17.1389 6.47722H5.79101C5.14092 6.47722 4.57926 6.71401 4.10701 7.18859C3.88496 7.40421 3.70912 7.66418 3.59056 7.95034C3.47199 8.23649 3.41372 8.54482 3.41874 8.85516V17.3896C3.41874 18.0415 3.64783 18.6047 4.10601 19.0783C4.57926 19.5378 5.13992 19.7675 5.79001 19.7675H11.4891C11.881 19.7675 12.1985 20.1081 12.1985 20.5C12.1985 20.892 11.881 21.1892 11.4891 21.1892H5.79001C4.74002 21.1892 3.84678 20.8194 3.10827 20.0778C2.36976 19.3362 2 18.4405 2 17.3885V6.00868C2 4.95574 2.36875 4.05998 3.10827 3.31939C3.84778 2.57881 4.74102 2.20801 5.79001 2.20801H12.4175C13.2896 2.20801 14.0643 2.48308 14.7436 3.03021C15.4037 3.53301 15.8729 4.24639 16.0739 5.05247L16.0759 5.05549ZM5.79202 3.63276C5.157 3.63276 4.6104 3.85544 4.15223 4.29979C3.71314 4.71996 3.45089 5.29228 3.42075 5.90087C3.7463 5.63486 4.10802 5.42629 4.50691 5.27918C4.91987 5.13006 5.34891 5.0565 5.79202 5.0565H14.5687C14.3879 4.63734 14.0874 4.28165 13.7046 4.03378C13.3278 3.76878 12.8787 3.62974 12.4185 3.63377H5.79202V3.63276Z" fill="white"/>
<path d="M22 17.4533C22 15.0572 20.0628 13.1145 17.6734 13.1145C15.2841 13.1145 13.3469 15.0572 13.3469 17.4533C13.3469 19.8493 15.2841 21.792 17.6734 21.792C20.0628 21.792 22 19.8493 22 17.4533ZM20.5772 17.6054C20.5059 18.9888 19.473 20.1174 18.1356 20.332C18.1407 20.2806 18.1447 20.2272 18.1447 20.1808C18.1447 20.0478 18.1316 19.9662 18.1075 19.8302C18.0774 19.6549 18.0593 19.5541 17.992 19.3899C17.9246 19.2256 17.8724 19.139 17.7689 18.9959C17.7518 18.9727 17.7357 18.9506 17.7217 18.9304C17.6423 18.8176 17.586 18.739 17.4433 18.6483C17.3097 18.5636 17.1761 18.5183 17.0223 18.481C16.8445 18.4387 16.7229 18.4175 16.5441 18.4548C16.4486 18.475 16.3893 18.5173 16.325 18.5646C16.2879 18.5918 16.2477 18.6211 16.1974 18.6483C16.1592 18.6694 16.1271 18.6896 16.097 18.7087C16.0367 18.748 15.9834 18.7823 15.897 18.8024C15.7764 18.8306 15.7001 18.8337 15.5815 18.8024C15.484 18.7772 15.4298 18.7379 15.3584 18.6866C15.3414 18.6745 15.3243 18.6614 15.3042 18.6483C15.2841 18.6342 15.264 18.6211 15.2459 18.61C15.1786 18.5656 15.1253 18.5314 15.0731 18.4548C14.9897 18.3339 14.9475 18.2452 14.9254 18.0991C14.8983 17.9198 14.9153 17.7989 14.9726 17.6276C14.9997 17.548 15.1143 17.5308 15.2489 17.5107C15.3886 17.4895 15.5504 17.4664 15.6538 17.3646C15.696 17.3233 15.7372 17.293 15.7774 17.2628C15.8417 17.2145 15.904 17.1691 15.9603 17.0875C16.097 16.89 16.116 16.7923 16.1492 16.5595C16.1663 16.4396 16.1663 16.3006 16.1492 16.1807C16.1301 16.0497 16.0829 15.9701 16.0206 15.8623L15.9995 15.827C15.9332 15.7121 15.7764 15.5721 15.7764 15.5721C15.7764 15.5721 15.6327 15.5277 15.5051 15.5096C16.0377 14.9121 16.8113 14.5362 17.6734 14.5362C17.8895 14.5362 18.1005 14.5594 18.3024 14.6048C18.2733 14.63 18.2462 14.6562 18.222 14.6803L18.1999 14.7025C18.007 14.896 17.8844 15.0199 17.7769 15.2799C17.6835 15.5046 17.6493 15.6486 17.6594 15.8915C17.6704 16.1494 17.6895 16.3137 17.8021 16.5474C17.8794 16.7066 17.9628 16.7923 18.0764 16.9081C18.0965 16.9283 18.1176 16.9505 18.1407 16.9736C18.3326 17.1731 18.4471 17.29 18.6913 17.42L18.7506 17.4512C18.9083 17.5359 19.0118 17.5923 19.1997 17.6397C19.3725 17.683 19.481 17.691 19.6539 17.69C19.7704 17.689 19.8498 17.6679 19.9422 17.6417C19.9824 17.6306 20.0266 17.6185 20.0759 17.6074C20.112 17.5994 20.1412 17.5893 20.1693 17.5802C20.2165 17.5651 20.2597 17.551 20.322 17.548C20.4014 17.5449 20.4979 17.5732 20.5782 17.6044L20.5772 17.6054Z" fill="white"/>
</svg>
