<svg width="24" height="24" viewBox="0 0 24 24" fill="none" xmlns="http://www.w3.org/2000/svg">
<path fill-rule="evenodd" clip-rule="evenodd" d="M4.75 13.9645C4.33579 13.9645 4 14.3003 4 14.7145V17.0425C4 18.1471 4.89543 19.0425 6 19.0425H6.15868C6.46756 19.9164 7.30099 20.5425 8.28065 20.5425C9.26032 20.5425 10.0937 19.9164 10.4026 19.0425H14C14.598 19.0425 15.1346 18.7801 15.5011 18.3642C15.539 19.5737 16.5313 20.5425 17.75 20.5425C18.7297 20.5425 19.5631 19.9164 19.872 19.0425H20C21.1046 19.0425 22 18.1471 22 17.0425V16.1949C22 15.7496 21.8514 15.317 21.5776 14.9657L19.072 11.7499C18.693 11.2635 18.1109 10.9792 17.4944 10.9792H15.999C15.9655 9.90391 15.0834 9.04253 14 9.04253H13.7964C13.3822 9.04253 13.0464 9.37831 13.0464 9.79253C13.0464 10.2067 13.3822 10.5425 13.7964 10.5425H14C14.2761 10.5425 14.5 10.7664 14.5 11.0425V17.0425C14.5 17.3187 14.2761 17.5425 14 17.5425H10.4026C10.0937 16.6686 9.26032 16.0425 8.28065 16.0425C7.30099 16.0425 6.46756 16.6686 6.15868 17.5425H6C5.72386 17.5425 5.5 17.3187 5.5 17.0425V14.7145C5.5 14.3003 5.16421 13.9645 4.75 13.9645ZM17.75 16.0425C17.0432 16.0425 16.4125 16.3684 16 16.8782V12.4792H17.4944C17.6485 12.4792 17.794 12.5503 17.8888 12.6718L20.3944 15.8876C20.4628 15.9754 20.5 16.0836 20.5 16.1949V17.0425C20.5 17.3187 20.2761 17.5425 20 17.5425H19.872C19.5631 16.6686 18.7297 16.0425 17.75 16.0425ZM9.03065 18.2925C9.03065 18.7067 8.69487 19.0425 8.28065 19.0425C7.86644 19.0425 7.53065 18.7067 7.53065 18.2925C7.53065 17.8783 7.86644 17.5425 8.28065 17.5425C8.69487 17.5425 9.03065 17.8783 9.03065 18.2925ZM18.5 18.2925C18.5 18.7067 18.1642 19.0425 17.75 19.0425C17.3358 19.0425 17 18.7067 17 18.2925C17 17.8783 17.3358 17.5425 17.75 17.5425C18.1642 17.5425 18.5 17.8783 18.5 18.2925Z" fill="white"/>
<path fill-rule="evenodd" clip-rule="evenodd" d="M12.1904 8.66736C12.4841 8.78791 12.8322 8.8532 13.1691 8.64417C13.2583 8.58881 13.3422 8.51667 13.4211 8.42756L14.094 7.66715C14.6962 6.98664 14.6542 5.96623 14.0026 5.33504L12.5727 3.95014C12.2447 3.63247 11.8042 3.45752 11.349 3.45752H10.6675C10.3353 3.45752 10.0185 3.59823 9.79579 3.84479C9.39308 4.29056 9.04868 4.92215 8.42713 5.06121C8.31693 5.08586 8.20311 5.08586 8.09289 5.06121C7.47124 4.92219 7.12678 4.29061 6.72403 3.84479C6.50129 3.59823 6.18456 3.45752 5.85229 3.45752H5.17086C4.71564 3.45752 4.27508 3.63247 3.9471 3.95014L2.51726 5.33504C1.86558 5.96623 1.8236 6.98664 2.42583 7.66716L3.09876 8.42756C3.17762 8.51667 3.26152 8.58881 3.35075 8.64417C3.68762 8.8532 4.03575 8.78791 4.32939 8.66736C4.3273 9.54253 4.31165 10.3249 4.30447 11.1693L4.3045 11.1751C4.32275 12.1215 5.11464 12.8485 6.04518 12.8485H10.4746C11.4052 12.8485 12.1971 12.1215 12.2153 11.1751L12.2153 11.1649C12.1939 10.4401 12.1921 10.0265 12.1909 9.06371C12.1908 8.91622 12.1906 8.78242 12.1904 8.66736ZM5.17086 4.95568C5.09783 4.95568 5.03303 4.98402 4.98941 5.02628L3.55957 6.41117C3.48115 6.48712 3.47857 6.59612 3.54776 6.6743L3.99291 7.17732C4.22483 7.09128 4.68116 6.98844 5.16167 7.27024C5.82755 7.66077 5.82776 8.36214 5.82779 8.46271L5.82779 8.46405C5.82839 9.7383 5.81294 9.88061 5.80279 11.1548C5.8095 11.2428 5.8941 11.3503 6.04518 11.3503H10.4746C10.6257 11.3503 10.7103 11.2428 10.717 11.1548C10.7069 9.88061 10.6914 9.7383 10.692 8.46405V8.46271C10.6921 8.36214 10.6923 7.66077 11.3581 7.27024C11.8387 6.98844 12.295 7.09128 12.5269 7.17732L12.9721 6.6743C13.0412 6.59612 13.0387 6.48712 12.9602 6.41117L11.5304 5.02628C11.4868 4.98402 11.422 4.95568 11.349 4.95568H10.8115C10.1091 5.74196 9.41086 6.53419 8.2636 6.55373L8.25406 6.5539C7.12268 6.52176 6.4079 5.7367 5.70835 4.95568H5.17086Z" fill="white"/>
</svg>
