<svg width="24" height="24" viewBox="0 0 24 24" fill="none" xmlns="http://www.w3.org/2000/svg">
<path d="M7.787 11.7281C9.22 10.2031 10.578 8.92909 11.859 7.90709C13.155 6.88609 14.352 6.06209 15.45 5.43809C16.547 4.79709 17.531 4.33109 18.4 4.04209C19.254 3.73709 19.962 3.54609 20.527 3.47009C20.45 4.03409 20.26 4.74309 19.954 5.59709C19.665 6.46609 19.2 7.44909 18.558 8.54709C17.933 9.64509 17.11 10.8411 16.089 12.1381C15.067 13.4181 13.794 14.7761 12.268 16.2091L11.88 15.7971C11.811 15.7291 11.728 15.6751 11.638 15.6401C11.548 15.6051 11.451 15.5881 11.353 15.5921C11.26 15.5901 11.167 15.6071 11.08 15.6431C10.993 15.6791 10.915 15.7311 10.85 15.7971C10.778 15.8651 10.721 15.9461 10.681 16.0371C10.641 16.1281 10.621 16.2251 10.621 16.3241C10.621 16.5221 10.697 16.6971 10.849 16.8501L11.604 17.6041L12.336 20.2121C12.443 20.6241 12.702 20.8831 13.114 20.9901C13.54 21.0971 13.906 20.9981 14.212 20.6921L15.241 19.6401C15.741 19.1421 16.137 18.5501 16.408 17.8991C16.679 17.2481 16.818 16.5491 16.819 15.8441V13.5331C17.66 12.5511 18.432 11.5111 19.13 10.4231C19.711 9.53709 20.231 8.61209 20.685 7.65509C21.097 6.78609 21.402 6.00009 21.6 5.29909C21.814 4.59609 21.944 3.99509 21.988 3.49209C22.034 3.05009 21.904 2.68409 21.6 2.39409C21.31 2.09009 20.944 1.96009 20.502 2.00609C19.998 2.05109 19.396 2.18209 18.695 2.39409C17.994 2.59209 17.209 2.89809 16.339 3.30909C15.485 3.70509 14.563 4.22309 13.571 4.86409C12.482 5.56109 11.443 6.33309 10.461 7.17409H8.151C7.446 7.17509 6.747 7.31409 6.096 7.58509C5.445 7.85609 4.853 8.25209 4.355 8.75209L3.301 9.78209C2.997 10.0871 2.898 10.4531 3.004 10.8801C3.111 11.2921 3.37 11.5511 3.782 11.6581L6.39 12.3901L7.144 13.1451C7.212 13.2171 7.293 13.2751 7.384 13.3141C7.475 13.3531 7.572 13.3741 7.671 13.3741C7.77 13.3741 7.867 13.3541 7.958 13.3141C8.049 13.2741 8.13 13.2171 8.197 13.1451C8.334 13.0081 8.402 12.8401 8.402 12.6411C8.406 12.5441 8.389 12.4471 8.354 12.3571C8.319 12.2671 8.265 12.1841 8.197 12.1151L7.785 11.7271L7.787 11.7281ZM13.575 19.2531L13.094 17.4471C13.506 17.0661 13.902 16.6931 14.284 16.3271C14.65 15.9611 15.009 15.5871 15.359 15.2061V15.8461C15.359 16.3651 15.26 16.8681 15.062 17.3561C14.865 17.8271 14.578 18.2551 14.216 18.6151L13.576 19.2541L13.575 19.2531ZM8.152 8.64009H8.792C8.426 8.97609 8.052 9.33409 7.671 9.71609C7.306 10.0971 6.932 10.4941 6.551 10.9061L4.746 10.4241L5.386 9.78309C5.746 9.42109 6.173 9.13409 6.644 8.93709C7.123 8.74009 7.636 8.63909 8.154 8.63909L8.153 8.64109L8.152 8.64009Z" fill="white"/>
<path d="M6.39075 14.4522C6.39075 14.6502 6.32175 14.8182 6.18475 14.9552L6.18675 14.9542L4.21975 16.8982C4.15375 16.9732 4.07275 17.0322 3.98175 17.0722C3.89075 17.1122 3.79175 17.1312 3.69275 17.1282C3.49475 17.1282 3.32675 17.0522 3.18875 16.8992C3.05175 16.7622 2.98375 16.5952 2.98375 16.3962C2.98075 16.2992 2.99675 16.2022 3.03275 16.1122C3.06875 16.0222 3.12175 15.9392 3.18975 15.8702L5.13075 13.9272C5.19775 13.8552 5.27975 13.7972 5.37075 13.7582C5.46175 13.7192 5.55875 13.6982 5.65775 13.6982C5.75675 13.6982 5.85475 13.7182 5.94475 13.7582C6.03475 13.7982 6.11675 13.8552 6.18475 13.9272C6.25275 13.9962 6.30675 14.0792 6.34175 14.1692C6.37675 14.2592 6.39375 14.3572 6.38975 14.4542L6.39075 14.4522Z" fill="white"/>
<path d="M10.2424 18.6268C10.2034 18.7168 10.1454 18.7988 10.0734 18.8658L8.13039 20.8108C8.06139 20.8788 7.97839 20.9328 7.88839 20.9678C7.79839 21.0028 7.70039 21.0198 7.60339 21.0158C7.40539 21.0158 7.23739 20.9468 7.10039 20.8098C6.94739 20.6728 6.87139 20.5058 6.87139 20.3068C6.86839 20.2078 6.88839 20.1088 6.92739 20.0178C6.96639 19.9268 7.02639 19.8458 7.10039 19.7798L9.04439 17.8118C9.10939 17.7448 9.18839 17.6928 9.27439 17.6578C9.36039 17.6228 9.45339 17.6058 9.54739 17.6068C9.64439 17.6038 9.74139 17.6198 9.83139 17.6548C9.92139 17.6898 10.0044 17.7438 10.0734 17.8118C10.1454 17.8798 10.2034 17.9608 10.2424 18.0518C10.2814 18.1428 10.3024 18.2398 10.3024 18.3388C10.3024 18.4378 10.2814 18.5358 10.2424 18.6268Z" fill="white"/>
<path d="M12.04 13.012C12.174 12.869 12.248 12.681 12.247 12.485C12.249 12.29 12.175 12.101 12.042 11.958C11.899 11.825 11.71 11.751 11.515 11.753C11.32 11.751 11.131 11.825 10.988 11.958L2.20504 20.741C2.07204 20.884 1.99804 21.073 2.00004 21.268C2.00004 21.466 2.06804 21.642 2.20504 21.795C2.35804 21.932 2.53404 22 2.73204 22C2.93004 22 3.10604 21.932 3.25904 21.795L12.04 13.012Z" fill="white"/>
<path d="M16.576 7.53377C16.4 7.35477 16.19 7.21377 15.958 7.11877C15.726 7.02377 15.477 6.97877 15.226 6.98377C14.707 6.98377 14.265 7.16777 13.899 7.53277C13.72 7.70877 13.58 7.91877 13.485 8.15077C13.39 8.38277 13.345 8.63177 13.35 8.88177C13.35 9.40077 13.533 9.84277 13.898 10.2088C14.263 10.5748 14.706 10.7568 15.225 10.7568C15.476 10.7628 15.724 10.7168 15.957 10.6228C16.19 10.5288 16.399 10.3878 16.575 10.2088C16.941 9.84277 17.123 9.40077 17.123 8.88177C17.128 8.63077 17.082 8.38177 16.988 8.14977C16.894 7.91777 16.752 7.70777 16.573 7.53177L16.574 7.53277L16.576 7.53377ZM14.929 8.56277C15.011 8.48977 15.117 8.44977 15.227 8.44877C15.349 8.44877 15.455 8.48777 15.547 8.56277C15.622 8.65177 15.663 8.76577 15.661 8.88277C15.661 8.98977 15.622 9.08877 15.547 9.18077C15.457 9.25577 15.344 9.29677 15.227 9.29477C15.12 9.29477 15.021 9.25677 14.929 9.18077C14.856 9.09877 14.816 8.99277 14.815 8.88277C14.815 8.76077 14.853 8.65477 14.929 8.56277Z" fill="white"/>
</svg>
