<svg width="24" height="24" viewBox="0 0 24 24" fill="none" xmlns="http://www.w3.org/2000/svg">
<path d="M16.139 17.208L20.694 21.786C20.853 21.928 21.035 22 21.241 22C21.447 22 21.629 21.929 21.788 21.787C21.926 21.639 22.002 21.443 22.001 21.24C22.003 21.037 21.927 20.842 21.788 20.693L17.209 16.138C17.846 15.386 18.344 14.527 18.68 13.6C19.044 12.651 19.226 11.654 19.226 10.611C19.233 9.46001 18.999 8.32001 18.538 7.26601C18.109 6.24301 17.48 5.31501 16.688 4.53801C15.911 3.74601 14.983 3.11701 13.96 2.68801C12.905 2.22701 11.766 1.99201 10.615 2.00001C9.46398 1.99301 8.32398 2.22701 7.26998 2.68801C6.24198 3.12101 5.30698 3.74901 4.51898 4.53801C3.73898 5.32001 3.11798 6.24701 2.69198 7.26601C2.23098 8.32101 1.99598 9.46001 2.00398 10.611C2.00398 11.797 2.23398 12.912 2.69198 13.956C3.12198 14.98 3.74198 15.914 4.51898 16.707C5.31298 17.484 6.24598 18.104 7.26998 18.534C8.32498 18.995 9.46398 19.229 10.615 19.222C11.634 19.226 12.646 19.049 13.604 18.7C14.529 18.35 15.388 17.845 16.143 17.206L16.139 17.208ZM17.706 10.612C17.706 11.593 17.516 12.51 17.136 13.364C16.772 14.235 16.265 14.994 15.618 15.642C14.972 16.283 14.207 16.791 13.365 17.136C12.498 17.518 11.56 17.713 10.613 17.706C9.66598 17.713 8.72698 17.519 7.86098 17.136C7.01398 16.787 6.24098 16.28 5.58298 15.642C4.94498 14.985 4.43798 14.212 4.08898 13.364C3.70698 12.497 3.51198 11.559 3.51898 10.612C3.51898 9.63101 3.70898 8.71401 4.08898 7.86001C4.45298 6.98901 4.94998 6.23901 5.58298 5.60701C6.23098 4.95901 6.98998 4.45301 7.86098 4.08901C8.72798 3.70701 9.66598 3.51201 10.613 3.51901C11.594 3.51901 12.511 3.70901 13.365 4.08901C14.236 4.45301 14.986 4.96001 15.618 5.60701C16.272 6.24701 16.788 7.01401 17.136 7.86001C17.516 8.71401 17.706 9.63101 17.706 10.612Z" fill="white"/>
</svg>
