<svg width="24" height="24" viewBox="0 0 24 24" fill="none" xmlns="http://www.w3.org/2000/svg">
<path d="M2.62102 17.3001C2.62102 17.9481 2.74402 18.5581 2.99102 19.1291C3.23802 19.7001 3.57002 20.2021 3.98702 20.6331C4.41902 21.0501 4.92002 21.3821 5.49102 21.6291C6.06202 21.8761 6.67202 21.9991 7.32002 21.9991H9.28702C10.044 21.9991 10.684 21.7361 11.208 21.2121C11.461 20.9611 11.661 20.6611 11.796 20.3311C11.931 20.0011 11.999 19.6471 11.995 19.2911V15.3321C11.995 14.5751 11.733 13.9351 11.208 13.4111C10.685 12.8861 10.043 12.6241 9.28702 12.6241H5.32902C4.58802 12.6241 3.94802 12.8861 3.40802 13.4111C2.88402 13.9341 2.62102 14.5761 2.62102 15.3321V17.3001ZM9.28802 20.5181H7.32102C6.42602 20.5181 5.66202 20.2091 5.03002 19.5921C4.41302 18.9601 4.10402 18.1951 4.10402 17.3011V15.3341C4.10402 14.9941 4.22002 14.7091 4.45202 14.4781C4.69902 14.2311 4.99102 14.1081 5.33102 14.1081H9.28902C9.62902 14.1081 9.91402 14.2311 10.145 14.4781C10.392 14.7091 10.515 14.9951 10.515 15.3341V19.2931C10.515 19.6331 10.392 19.9251 10.145 20.1721C10.034 20.2851 9.90002 20.3751 9.75302 20.4351C9.60602 20.4951 9.44802 20.5241 9.28902 20.5201L9.28802 20.5181Z" fill="white"/>
<path d="M12.713 7.97209C12.575 7.81809 12.506 7.64009 12.506 7.44009C12.502 7.34209 12.519 7.24409 12.555 7.15209C12.591 7.06009 12.645 6.97709 12.714 6.90709C12.784 6.83809 12.868 6.78409 12.959 6.74809C13.05 6.71209 13.149 6.69609 13.247 6.69909H17.923V11.3751C17.926 11.4731 17.91 11.5711 17.874 11.6631C17.838 11.7551 17.784 11.8381 17.715 11.9081C17.645 11.9771 17.562 12.0311 17.471 12.0661C17.38 12.1011 17.282 12.1181 17.184 12.1151C16.983 12.1151 16.805 12.0461 16.651 11.9081C16.512 11.7691 16.443 11.5911 16.443 11.3751V9.22209L13.759 11.9081C13.689 11.9771 13.605 12.0311 13.514 12.0671C13.423 12.1031 13.324 12.1191 13.226 12.1161C13.131 12.1181 13.037 12.1001 12.95 12.0651C12.863 12.0301 12.783 11.9761 12.717 11.9081C12.649 11.8421 12.596 11.7631 12.561 11.6751C12.526 11.5871 12.508 11.4941 12.51 11.3991C12.506 11.3011 12.523 11.2031 12.559 11.1111C12.595 11.0191 12.649 10.9361 12.718 10.8661L15.404 8.18009H13.251C13.035 8.18009 12.857 8.11109 12.718 7.97309L12.713 7.97209Z" fill="white"/>
<path d="M2.37402 6.69909C2.37402 6.05109 2.49702 5.44109 2.74402 4.87009C3.22202 3.74409 4.11802 2.84809 5.24402 2.37009C5.82202 2.12209 6.44402 1.99609 7.07302 2.00009H16.934C17.582 2.00009 18.192 2.12309 18.763 2.37009C19.32 2.60709 19.824 2.95309 20.244 3.38809C20.676 3.80509 21.015 4.29909 21.262 4.86909C21.509 5.43909 21.632 6.05009 21.632 6.69809V16.5591C21.632 17.2071 21.509 17.8171 21.262 18.3881C20.784 19.5141 19.888 20.4101 18.762 20.8881C18.184 21.1361 17.562 21.2621 16.933 21.2581H13.97C13.773 21.2601 13.582 21.1851 13.438 21.0511C13.303 20.9061 13.229 20.7151 13.231 20.5181C13.231 20.3181 13.3 20.1481 13.438 20.0081C13.506 19.9351 13.589 19.8771 13.681 19.8371C13.773 19.7971 13.872 19.7771 13.972 19.7771H16.935C17.829 19.7771 18.585 19.4681 19.203 18.8511C19.835 18.2191 20.152 17.4541 20.152 16.5601V6.69909C20.152 5.80409 19.836 5.04809 19.204 4.43009C18.586 3.79809 17.829 3.48109 16.934 3.48109H7.07302C6.17802 3.48109 5.41402 3.79709 4.78202 4.42909C4.16502 5.04709 3.85602 5.80409 3.85602 6.69909V9.66209C3.85602 9.76209 3.83502 9.86109 3.79502 9.95209C3.75502 10.0431 3.69702 10.1261 3.62402 10.1941C3.55802 10.2621 3.47802 10.3151 3.39102 10.3511C3.30402 10.3871 3.20902 10.4041 3.11502 10.4021C2.91702 10.4041 2.72602 10.3301 2.58202 10.1951C2.44702 10.0501 2.37302 9.85909 2.37502 9.66209V6.70009L2.37402 6.69909Z" fill="white"/>
</svg>
