<svg width="24" height="24" viewBox="0 0 24 24" fill="none" xmlns="http://www.w3.org/2000/svg">
<path d="M6.00891 2C4.89991 2 3.95591 2.39 3.17491 3.171C2.39491 3.951 2.00391 4.897 2.00391 6.005V17.995C2.00391 19.104 2.39391 20.048 3.17491 20.829C3.95491 21.609 4.90091 22 6.00891 22H17.9989C19.1079 22 20.0519 21.61 20.8329 20.829C21.6129 20.049 22.0039 19.103 22.0039 17.995V6.005C22.0039 4.896 21.6139 3.952 20.8329 3.171C20.0529 2.391 19.1069 2 17.9989 2H6.00891ZM17.9989 3.499C18.6859 3.499 19.2709 3.741 19.7559 4.225C20.2399 4.709 20.4889 5.294 20.5049 5.982H3.50291C3.50591 5.654 3.57291 5.33 3.70191 5.029C3.83091 4.728 4.01791 4.455 4.25291 4.226C4.48091 3.991 4.75391 3.806 5.05591 3.681C5.35791 3.556 5.68291 3.494 6.00991 3.5H17.9999L17.9989 3.499ZM3.50291 17.995V7.48H20.5049V17.995C20.5049 18.682 20.2549 19.275 19.7559 19.775C19.5279 20.01 19.2549 20.195 18.9529 20.32C18.6509 20.445 18.3259 20.507 17.9989 20.501H6.00891C5.67891 20.505 5.35091 20.443 5.04591 20.318C4.74091 20.193 4.46291 20.008 4.22991 19.775C3.99591 19.542 3.81091 19.264 3.68691 18.959C3.56291 18.654 3.49991 18.326 3.50391 17.996L3.50291 17.995Z" fill="white"/>
<path d="M9.49791 16.216V11.181C9.49791 10.79 9.66191 10.502 9.98991 10.315C10.3179 10.111 10.6539 10.111 10.9969 10.315L15.4229 12.844C15.7509 13.031 15.9149 13.321 15.9149 13.71C15.9219 13.889 15.8779 14.066 15.7859 14.219C15.6939 14.372 15.5609 14.497 15.3999 14.576L10.9739 17.082C10.8259 17.174 10.6559 17.223 10.4819 17.223C10.3079 17.223 10.1379 17.174 9.98991 17.082C9.66191 16.879 9.49791 16.59 9.49791 16.216Z" fill="white"/>
</svg>
