<svg width="24" height="24" viewBox="0 0 24 24" fill="none" xmlns="http://www.w3.org/2000/svg">
<path d="M15.5378 8.85895C15.9458 8.85895 16.3698 9.07095 16.7838 9.42295L16.7808 9.42395C16.9338 9.55395 17.0848 9.70295 17.2338 9.86695C18.6098 11.386 19.7788 14.24 19.7788 15.669C19.7788 20.532 16.2948 22.002 11.9978 22.002C11.8708 22.002 11.7458 22.001 11.6208 21.998C11.6098 21.999 11.5978 22.001 11.5868 22.002C11.4358 21.999 11.2888 21.992 11.1458 21.982C7.2498 21.79 4.2168 20.207 4.2168 15.669C4.2168 12.8292 6.20701 10.9107 8.17814 9.01052L8.1808 9.00795C9.6958 7.54895 11.1988 6.09995 11.7798 4.25295C11.9968 3.56495 12.0848 2.82195 11.9988 2.00195C12.6288 2.68795 13.0498 3.41295 13.3178 4.15195C14.1151 6.35112 13.5587 8.67908 13.1239 10.4984L13.1228 10.503C12.6568 12.45 12.3308 13.814 13.9518 13.814C15.9328 13.814 16.0668 12.014 15.8698 10.563C15.8528 10.434 15.8328 10.308 15.8108 10.186C15.7222 9.68649 15.607 9.2593 15.5388 9.00679L15.5378 9.00295L15.5358 8.99695C15.5275 8.96444 15.5197 8.93527 15.5127 8.90913C15.5095 8.89748 15.5066 8.88643 15.5038 8.87595C15.4688 8.73995 15.4688 8.71895 15.5378 8.85895ZM16.6718 19.459C17.6248 18.799 18.3228 17.702 18.3228 15.668C18.3228 15.396 18.2338 14.893 18.0088 14.223C17.8288 13.686 17.5828 13.108 17.2958 12.556C17.2258 12.905 17.1118 13.257 16.9378 13.59C16.6848 14.071 16.3018 14.515 15.7558 14.828C15.2158 15.138 14.6008 15.271 13.9538 15.271C13.2968 15.271 12.5258 15.117 11.9498 14.51C11.3878 13.918 11.2868 13.18 11.2858 12.66C11.2848 12.131 11.3878 11.565 11.4968 11.061C11.5558 10.787 11.6348 10.456 11.7138 10.128C11.7216 10.095 11.7295 10.0621 11.7373 10.0293C11.7873 9.81909 11.8364 9.61267 11.8788 9.42495C12.0968 8.46595 12.2648 7.51695 12.2648 6.60095C11.4458 7.88595 10.3488 8.94395 9.3948 9.86395L9.3558 9.90195C7.2088 11.973 5.6788 13.482 5.6788 15.667C5.6788 17.582 6.2978 18.667 7.1658 19.338C6.8258 17.97 7.2998 16.294 8.2198 14.855C8.5538 14.333 8.9458 13.842 9.3788 13.409C9.3818 14.03 9.6158 14.508 9.9838 14.909C10.4363 15.4023 11.0905 15.7795 11.7611 16.1661L11.7678 16.17C13.1088 16.942 14.5158 17.753 14.5158 19.602C14.5158 19.751 14.5158 20.023 14.4148 20.334L14.4128 20.335C15.3238 20.158 16.0828 19.867 16.6718 19.459ZM11.2328 20.524C11.3378 20.529 11.4438 20.533 11.5518 20.536C12.6508 20.392 12.9218 20.057 12.9698 19.992C13.0428 19.891 13.0558 19.786 13.0558 19.602C13.0558 18.762 12.5708 18.321 11.2208 17.54C11.1618 17.505 11.0988 17.469 11.0338 17.432L11.0219 17.4251C10.4687 17.1071 9.76079 16.7003 9.2018 16.188C9.1938 16.181 9.18605 16.1737 9.1783 16.1665C9.17055 16.1592 9.1628 16.152 9.1548 16.145C8.6948 17.016 8.4658 17.909 8.5238 18.625C8.5678 19.17 8.7698 19.573 9.1388 19.87C9.4948 20.157 10.1318 20.445 11.2328 20.524Z" fill="white"/>
</svg>
