<svg width="24" height="24" viewBox="0 0 24 24" fill="none" xmlns="http://www.w3.org/2000/svg">
<path d="M9.5 17C13.642 17 17 13.642 17 9.5C17 5.358 13.642 2 9.5 2C5.358 2 2 5.358 2 9.5C2 13.642 5.358 17 9.5 17ZM19.582 8.984C19.216 8.647 18.817 8.346 18.39 8.086C18.463 8.547 18.5 9.019 18.5 9.5C18.5 9.686 18.494 9.871 18.483 10.054L19.582 8.984ZM20.964 10.694C20.706 10.257 20.405 9.848 20.067 9.474L18.35 11.145C18.108 12.453 17.584 13.661 16.843 14.704L20.964 10.694ZM12.708 21.785C12.162 21.651 11.639 21.457 11.147 21.211L21.299 11.331C21.532 11.829 21.711 12.357 21.83 12.907L12.708 21.785ZM10.52 20.858C10.09 20.588 9.69 20.277 9.325 19.928L10.905 18.39C12.221 18.184 13.442 17.693 14.503 16.982L10.52 20.858ZM14.5 22C14.918 22 15.329 21.966 15.729 21.9L21.864 15.929C21.953 15.466 22 14.989 22 14.5C22 14.244 21.987 13.99 21.962 13.74L13.538 21.939C13.853 21.979 14.174 22 14.5 22ZM21.47 17.274C20.684 19.248 19.083 20.809 17.083 21.543L21.47 17.274ZM9.5 18.5C9.604 18.5 9.707 18.498 9.81 18.495L8.848 19.431C8.565 19.107 8.31 18.759 8.086 18.39C8.547 18.463 9.019 18.5 9.5 18.5Z" fill="white"/>
</svg>
