<svg width="24" height="24" viewBox="0 0 24 24" fill="none" xmlns="http://www.w3.org/2000/svg">
<path d="M13.4886 9.98357C13.7356 9.71457 13.9536 9.41557 14.1346 9.09257C14.6926 8.09857 14.8746 6.93757 14.6496 5.82057C14.4246 4.70357 13.8056 3.70457 12.9066 3.00457C12.0076 2.30457 10.8866 1.95057 9.74858 2.00557C8.61058 2.06157 7.52958 2.52357 6.70358 3.30757C5.87758 4.09157 5.35958 5.14657 5.24458 6.28057C5.12958 7.41457 5.42458 8.55157 6.07658 9.48657C6.59058 10.2236 7.29958 10.7956 8.11758 11.1436V12.6396C7.50958 11.8566 6.40058 11.6256 5.52058 12.1386C4.56358 12.6976 4.24058 13.9266 4.79958 14.8846L7.49058 19.4946C7.51958 19.5446 7.55158 19.5936 7.58458 19.6406C8.45558 21.0366 10.4706 21.9996 12.4756 21.9996C13.4376 21.9996 14.4576 21.7816 15.3486 21.4246C16.2256 21.0736 17.0536 20.5566 17.5666 19.9016C18.1306 19.2066 18.6586 18.1786 18.9686 17.1396C19.3016 16.0236 19.5396 14.7636 19.4596 13.8696V13.8316C19.4596 12.7226 18.5606 11.8246 17.4526 11.8246C17.2536 11.8246 17.0536 11.8566 16.8596 11.9146C16.5406 11.2266 15.8446 10.7496 15.0366 10.7496C14.8416 10.7496 14.6266 10.7766 14.4126 10.8346C14.2046 10.4616 13.8806 10.1626 13.4896 9.98457L13.4886 9.98357ZM13.3156 6.76157C13.3156 7.78357 12.8556 8.69757 12.1326 9.30957V7.86457C12.1326 6.75557 11.2336 5.85757 10.1256 5.85757C9.01758 5.85757 8.11858 6.75657 8.11858 7.86457V9.52557C7.23258 8.92657 6.64958 7.91257 6.64958 6.76257C6.64958 4.92157 8.14158 3.42957 9.98258 3.42957C11.8236 3.42957 13.3156 4.92057 13.3156 6.76157ZM9.54558 7.86457C9.54558 7.54457 9.80458 7.28557 10.1246 7.28557C10.4446 7.28557 10.7036 7.54457 10.7036 7.86457V11.1886C10.7036 11.5156 10.9256 11.8006 11.2416 11.8806C11.5576 11.9606 11.8886 11.8166 12.0456 11.5296C12.1146 11.4036 12.3726 11.2326 12.6596 11.2326C12.9796 11.2326 13.2386 11.4916 13.2386 11.8116V11.9016C13.2386 12.2016 13.4266 12.4696 13.7086 12.5726C13.9906 12.6756 14.3066 12.5906 14.4996 12.3616C14.5606 12.2896 14.7776 12.1766 15.0376 12.1766C15.3576 12.1766 15.6166 12.4356 15.6166 12.7556V13.0926C15.6166 13.4016 15.8146 13.6746 16.1076 13.7716C16.4006 13.8686 16.7226 13.7646 16.9056 13.5166C17.0036 13.3836 17.2476 13.2526 17.4536 13.2526C17.7736 13.2526 18.0326 13.5116 18.0326 13.8316V13.9036C18.0326 13.9276 18.0336 13.9516 18.0366 13.9756C18.0976 14.5846 17.9266 15.6436 17.6016 16.7316C17.3356 17.6236 16.8856 18.4796 16.4566 19.0066L16.4466 19.0186C16.1476 19.4016 15.5726 19.7976 14.8186 20.0996C14.0766 20.3966 13.2366 20.5726 12.4766 20.5726C10.8226 20.5726 9.32958 19.7526 8.78958 18.8726C8.77958 18.8566 8.76958 18.8406 8.75858 18.8256C8.74758 18.8106 8.73658 18.7936 8.72558 18.7756L6.03458 14.1656C5.87358 13.8896 5.96658 13.5356 6.24258 13.3736C6.51858 13.2116 6.87258 13.3056 7.03458 13.5816L8.21658 15.6066C8.37958 15.8856 8.70858 16.0206 9.01958 15.9356C9.33058 15.8506 9.54758 15.5686 9.54758 15.2466V7.86557L9.54558 7.86457Z" fill="white"/>
</svg>
