<svg width="24" height="24" viewBox="0 0 24 24" fill="none" xmlns="http://www.w3.org/2000/svg">
<path d="M2.00108 7.2194C2.00108 6.60991 2.11707 6.03503 2.35008 5.49779C2.79981 4.43857 3.64332 3.59507 4.70253 3.14533C5.24588 2.91131 5.83196 2.79328 6.42414 2.79633H8.27599C9.06048 2.79633 9.77883 2.98457 10.4321 3.36308C11.069 3.71004 11.6083 4.21269 12.001 4.82217C12.3938 4.21167 12.9331 3.71004 13.57 3.36308C14.2253 2.98457 14.9701 2.78921 15.7261 2.79633H17.578C18.1874 2.79633 18.7613 2.91233 19.2996 3.14533C19.8236 3.36816 20.2977 3.69478 20.6935 4.10382C21.1026 4.49962 21.4282 4.97378 21.651 5.49779C21.883 6.03503 22 6.6089 22 7.2194V14.6471C22 15.2566 21.884 15.8305 21.651 16.3687C21.2013 17.428 20.3578 18.2715 19.2985 18.7212C18.7552 18.9552 18.1691 19.0732 17.5769 19.0702H15.3985C14.9925 19.0702 14.5987 19.1506 14.2222 19.3103C13.8631 19.4528 13.5365 19.6685 13.2627 19.9422L12 21.2039L10.7363 19.9402C10.4585 19.6624 10.1238 19.4477 9.75645 19.3083C9.39218 19.1485 8.99943 19.0671 8.60159 19.0692H6.42312C5.83094 19.0732 5.24588 18.9542 4.70152 18.7202C4.17649 18.4963 3.69724 18.1789 3.28618 17.7831C2.89037 17.372 2.57291 16.8917 2.34906 16.3677C2.11504 15.8244 1.99701 15.2383 2.00006 14.6471V7.2194H2.00108ZM11.303 7.2194C11.303 6.37691 11.0059 5.66568 10.4107 5.08468C9.82869 4.48945 9.11644 4.19132 8.27497 4.19132H6.42312C5.5959 4.19132 4.88365 4.48843 4.28841 5.08367C3.69317 5.66568 3.39607 6.37792 3.39607 7.2194V14.6471C3.39607 15.4744 3.69317 16.1866 4.28841 16.7818C4.88365 17.3771 5.59488 17.6742 6.42312 17.6742H8.60159C9.09507 17.6742 9.57431 17.7546 10.0393 17.9153C10.5043 18.0761 10.9256 18.2999 11.302 18.5899L11.303 7.2194ZM12.697 18.591C13.0786 18.2989 13.5059 18.071 13.9607 17.9164C14.4227 17.7566 14.9091 17.6762 15.3975 17.6762H17.5759C18.4031 17.6762 19.1154 17.3791 19.7106 16.7829C20.3059 16.1866 20.603 15.4764 20.603 14.6481V7.22041C20.603 6.37792 20.3059 5.66669 19.7106 5.0857C19.1154 4.49047 18.4042 4.19234 17.5759 4.19234H15.7241C14.8816 4.19234 14.1622 4.48945 13.568 5.08468C12.986 5.66669 12.696 6.37894 12.696 7.22041V18.591H12.697Z" fill="white"/>
</svg>
