<svg width="24" height="24" viewBox="0 0 24 24" fill="none" xmlns="http://www.w3.org/2000/svg">
<path d="M7.35976 2.0001H18.5138C19.2108 2.0001 19.8058 2.2551 20.3008 2.7621C20.8088 3.2571 21.0628 3.8591 21.0628 4.5711V15.2461C21.0628 15.6091 20.9758 15.9431 20.8018 16.2481C20.6448 16.5501 20.4118 16.8051 20.1258 16.9891V19.4291C20.1258 20.1411 19.8798 20.7511 19.3848 21.2591C18.8918 21.7531 18.2878 22.0001 17.5768 22.0001H5.96476C5.12276 22.0001 4.40276 21.7031 3.80876 21.1071C3.52776 20.8281 3.30576 20.4951 3.15576 20.1281C3.00576 19.7611 2.93176 19.3681 2.93676 18.9721V6.4231C2.93676 5.8131 3.05276 5.2401 3.28576 4.7021C3.73576 3.6431 4.57976 2.8001 5.63876 2.3501C6.18276 2.1161 6.76876 1.9961 7.35976 2.0001ZM8.27476 18.2741H18.7318V17.3371H5.96576C5.51476 17.3371 5.12976 17.4971 4.81176 17.8171C4.65676 17.9661 4.53476 18.1461 4.45276 18.3451C4.37076 18.5441 4.32976 18.7571 4.33276 18.9721C4.33276 19.4221 4.49276 19.8071 4.81276 20.1261C5.13276 20.4451 5.51676 20.6061 5.96676 20.6061H17.5788C17.8548 20.6061 18.1018 20.5191 18.3198 20.3451C18.5378 20.1551 18.6688 19.9301 18.7118 19.6691H8.27576C8.08976 19.6701 7.91076 19.6001 7.77476 19.4741C7.64776 19.3381 7.57776 19.1581 7.57976 18.9721C7.57976 18.7831 7.64476 18.6231 7.77476 18.4921C7.83876 18.4231 7.91676 18.3691 8.00276 18.3311C8.08876 18.2931 8.18076 18.2741 8.27576 18.2741H8.27476ZM18.9718 15.9431C19.1608 15.9431 19.3208 15.8781 19.4518 15.7481C19.5228 15.6851 19.5788 15.6081 19.6168 15.5211C19.6548 15.4341 19.6728 15.3401 19.6698 15.2461V4.5711C19.6698 4.2511 19.5538 3.9761 19.3208 3.7441C19.2188 3.6321 19.0948 3.5421 18.9558 3.4821C18.8168 3.4221 18.6668 3.3921 18.5148 3.3951H7.36076C6.51876 3.3951 5.79876 3.6921 5.20476 4.2881C4.92376 4.5671 4.70176 4.9001 4.55176 5.2671C4.40176 5.6341 4.32776 6.0271 4.33276 6.4231V16.4231C4.57076 16.2751 4.82676 16.1581 5.09476 16.0741C5.37076 15.9871 5.66176 15.9441 5.96676 15.9441L18.9718 15.9431Z" fill="white"/>
<path d="M14.8757 8.92847L11.2147 6.16247C10.8957 5.91547 10.5537 5.87947 10.1917 6.05347C9.84271 6.22747 9.66871 6.51047 9.66871 6.90347V12.4585C9.66871 12.8505 9.84371 13.1345 10.1917 13.3085C10.5547 13.4695 10.8957 13.4325 11.2147 13.1995L14.8757 10.4105C14.9927 10.3265 15.0877 10.2145 15.1517 10.0855C15.2157 9.95647 15.2477 9.81347 15.2457 9.66947C15.2487 9.52547 15.2167 9.38247 15.1517 9.25347C15.0867 9.12447 14.9927 9.01247 14.8757 8.92847Z" fill="white"/>
</svg>
