<svg width="24" height="24" viewBox="0 0 24 24" fill="none" xmlns="http://www.w3.org/2000/svg">
<path d="M2.00488 9.95407C2.00488 9.28107 2.13288 8.64707 2.38988 8.05407C2.88588 6.88507 3.81688 5.95507 4.98588 5.45807C5.58588 5.20007 6.23288 5.06907 6.88488 5.07307H9.96188C10.1699 5.07307 10.3469 5.15307 10.4899 5.31307C10.6509 5.45807 10.7309 5.63407 10.7309 5.84207C10.7309 5.94607 10.7089 6.04907 10.6679 6.14407C10.6269 6.23907 10.5659 6.32507 10.4899 6.39607C10.4209 6.46607 10.3389 6.52107 10.2479 6.55807C10.1569 6.59507 10.0599 6.61307 9.96188 6.61107H6.88488C5.95588 6.61107 5.16188 6.93907 4.50588 7.59607C3.86488 8.23807 3.54388 9.02407 3.54388 9.95307V17.1161C3.54688 17.2201 3.52688 17.3241 3.48588 17.4201C3.44488 17.5161 3.38288 17.6011 3.30388 17.6701C3.23488 17.7401 3.15288 17.7951 3.06188 17.8321C2.97088 17.8691 2.87288 17.8871 2.77488 17.8851C2.56988 17.8871 2.37088 17.8101 2.22088 17.6701C2.14888 17.5971 2.09288 17.5101 2.05588 17.4151C2.01888 17.3201 2.00188 17.2181 2.00588 17.1161V9.95307L2.00488 9.95407Z" fill="white"/>
<path d="M21.6189 16.9731C21.8749 16.3791 22.0039 15.7461 22.0039 15.0741V7.88707C22.0039 7.67907 21.9239 7.50207 21.7639 7.35907C21.6189 7.19807 21.4429 7.11807 21.2349 7.11807C21.1309 7.11807 21.0279 7.14007 20.9329 7.18107C20.8379 7.22207 20.7519 7.28307 20.6809 7.35907C20.5369 7.50307 20.4659 7.67907 20.4659 7.88707V15.0741C20.4659 15.9881 20.1369 16.7731 19.4799 17.4301C18.8389 18.0871 18.0529 18.4161 17.1249 18.4161H14.0479C13.8419 18.4141 13.6439 18.4921 13.4939 18.6321C13.4219 18.7041 13.3659 18.7911 13.3289 18.8861C13.2919 18.9811 13.2749 19.0821 13.2779 19.1841C13.2759 19.3891 13.3529 19.5881 13.4929 19.7381C13.6429 19.8781 13.8409 19.9561 14.0459 19.9541H17.1229C17.7759 19.9581 18.4229 19.8271 19.0219 19.5691C20.1909 19.0731 21.1219 18.1421 21.6189 16.9731Z" fill="white"/>
<path d="M16.5229 7.28607C16.1229 7.68707 15.6419 7.88707 15.0809 7.88707C14.5209 7.88707 14.0389 7.68607 13.6389 7.28607C13.2389 6.88607 13.0379 6.40507 13.0379 5.84407C13.0379 5.28407 13.2389 4.80207 13.6389 4.40207C14.0389 4.00207 14.5199 3.80107 15.0809 3.80107C15.6409 3.80107 16.1229 4.00207 16.5229 4.40207C16.9229 4.80207 17.1239 5.28307 17.1239 5.84407C17.1239 6.40407 16.9229 6.88607 16.5229 7.28607Z" fill="white"/>
<path d="M20.6219 3.41007C20.5389 3.46407 20.4439 3.49907 20.3459 3.51207C19.8489 3.60807 19.3989 3.71107 18.9989 3.82407C18.6139 3.93707 18.2629 4.05707 17.9419 4.18507C17.8469 4.22507 17.7449 4.24507 17.6419 4.24507C17.5389 4.24507 17.4369 4.22507 17.3419 4.18507C17.1489 4.10407 17.0139 3.96907 16.9339 3.77607C16.8939 3.68107 16.8739 3.57907 16.8739 3.47607C16.8739 3.37307 16.8939 3.27107 16.9339 3.17607C16.9729 3.08107 17.0319 2.99607 17.1069 2.92607C17.1819 2.85607 17.2699 2.80207 17.3669 2.76807C17.7349 2.60807 18.1429 2.47207 18.5929 2.36007C19.0409 2.23207 19.5389 2.11907 20.0829 2.02307C20.1779 1.99807 20.2779 1.99607 20.3739 2.01707C20.4699 2.03807 20.5599 2.08207 20.6359 2.14407C20.7219 2.19707 20.7959 2.26707 20.8529 2.35007C20.9099 2.43307 20.9509 2.52607 20.9719 2.62407C20.9889 2.72507 20.9839 2.82807 20.9599 2.92707C20.9359 3.02607 20.8909 3.11907 20.8289 3.20107C20.7769 3.28607 20.7069 3.35807 20.6239 3.41207L20.6219 3.41007Z" fill="white"/>
<path d="M14.2169 9.06507C14.3129 9.24107 14.3389 9.44707 14.2889 9.64107C14.1919 9.94607 14.1129 10.2341 14.0479 10.5071C13.9829 10.7801 13.9279 11.0521 13.8809 11.3231C13.7199 12.0261 13.5349 12.7241 13.3269 13.4151C13.1189 14.1681 12.7419 15.1691 12.1969 16.4201C12.1579 16.5151 12.0989 16.6001 12.0249 16.6701C11.9509 16.7401 11.8619 16.7941 11.7659 16.8281C11.5769 16.8921 11.3709 16.8831 11.1889 16.8031C10.9959 16.7231 10.8609 16.5881 10.7809 16.3951C10.7409 16.3001 10.7209 16.1981 10.7209 16.0951C10.7209 15.9921 10.7409 15.8901 10.7809 15.7951C11.3089 14.6261 11.6699 13.7041 11.8619 13.0311C12.0549 12.3581 12.2149 11.7091 12.3429 11.0831C12.4079 10.8111 12.4709 10.5221 12.5359 10.2171C12.6149 9.91307 12.7039 9.58407 12.7999 9.23207C12.8259 9.13507 12.8719 9.04507 12.9339 8.96707C12.9959 8.88907 13.0729 8.82307 13.1609 8.77507C13.2499 8.72007 13.3499 8.68607 13.4539 8.67307C13.5579 8.66007 13.6629 8.67107 13.7619 8.70307C13.8609 8.72407 13.9539 8.76707 14.0329 8.82907C14.1119 8.89107 14.1759 8.97207 14.2189 9.06407L14.2169 9.06507Z" fill="white"/>
<path d="M10.3699 20.6271C10.7709 20.2261 10.9709 19.7461 10.9709 19.1851C10.9709 18.6081 10.7699 18.1181 10.3699 17.7181C9.96988 17.3181 9.48888 17.1171 8.92788 17.1171C8.36788 17.1171 7.88588 17.3181 7.48588 17.7181C7.08588 18.1181 6.88488 18.6071 6.88488 19.1851C6.88488 19.7451 7.08588 20.2271 7.48588 20.6271C7.67288 20.8201 7.89688 20.9731 8.14488 21.0771C8.39288 21.1811 8.65988 21.2321 8.92788 21.2281C9.48788 21.2281 9.96988 21.0271 10.3699 20.6271Z" fill="white"/>
<path d="M5.99488 21.5021C5.91688 21.5641 5.82688 21.6091 5.72988 21.6361C5.37688 21.7331 5.04088 21.8121 4.71988 21.8771C4.41588 21.9251 4.13488 21.9651 3.87888 21.9971C3.65388 22.0131 3.46288 21.9571 3.30288 21.8291C3.22588 21.7631 3.16288 21.6821 3.11788 21.5911C3.07288 21.5001 3.04588 21.4021 3.03788 21.3001C3.01888 21.1011 3.07888 20.9011 3.20588 20.7461C3.26888 20.6641 3.34788 20.5951 3.43888 20.5461C3.52988 20.4971 3.62988 20.4661 3.73388 20.4581C3.96788 20.4361 4.20088 20.4041 4.43088 20.3621C4.72388 20.3091 5.01288 20.2371 5.29688 20.1471C5.39188 20.1141 5.49388 20.1041 5.59288 20.1171C5.69188 20.1301 5.78888 20.1641 5.87288 20.2191C5.96588 20.2641 6.04788 20.3281 6.11388 20.4061C6.17988 20.4841 6.22888 20.5761 6.25788 20.6751C6.30688 20.8771 6.28088 21.0911 6.18588 21.2761C6.13788 21.3631 6.07288 21.4411 5.99388 21.5021H5.99488Z" fill="white"/>
</svg>
