<svg width="24" height="24" viewBox="0 0 24 24" fill="none" xmlns="http://www.w3.org/2000/svg">
<path d="M6.99414 6.14676C6.99414 5.73254 6.65835 5.39676 6.24414 5.39676C5.82993 5.39676 5.49414 5.73254 5.49414 6.14676C5.49414 6.56097 5.82993 6.89676 6.24414 6.89676C6.65835 6.89676 6.99414 6.56097 6.99414 6.14676Z" fill="white"/>
<path d="M8.74414 5.39676C9.15835 5.39676 9.49414 5.73254 9.49414 6.14676C9.49414 6.56097 9.15835 6.89676 8.74414 6.89676C8.32993 6.89676 7.99414 6.56097 7.99414 6.14676C7.99414 5.73254 8.32993 5.39676 8.74414 5.39676Z" fill="white"/>
<path d="M18.3286 5.39624H14.8286C14.4144 5.39624 14.0786 5.73203 14.0786 6.14624C14.0786 6.56045 14.4144 6.89624 14.8286 6.89624H18.3286C18.7428 6.89624 19.0786 6.56045 19.0786 6.14624C19.0786 5.73203 18.7428 5.39624 18.3286 5.39624Z" fill="white"/>
<path d="M4.75 2.92801C3.23122 2.92801 2 4.15923 2 5.67801V18.3214C2 19.8402 3.23122 21.0714 4.75 21.0714L19.25 21.0709C20.7688 21.0709 22 19.8397 22 18.3209V5.67749C22 4.15871 20.7688 2.92749 19.25 2.92749L4.75 2.92801ZM3.5 5.67801C3.5 4.98765 4.05964 4.42801 4.75 4.42801L19.25 4.42749C19.9404 4.42749 20.5 4.98713 20.5 5.67749V8.23022L3.5 8.23074V5.67801ZM3.5 9.73074L20.5 9.73022V18.3209C20.5 19.0112 19.9404 19.5709 19.25 19.5709L4.75 19.5714C4.05964 19.5714 3.5 19.0118 3.5 18.3214V9.73074Z" fill="white"/>
<path d="M11.9183 18.0017C11.8111 18.4018 11.3999 18.6393 10.9998 18.5321C10.5997 18.4249 10.3622 18.0136 10.4695 17.6135L12.081 11.599C12.1882 11.1989 12.5995 10.9615 12.9996 11.0687C13.3997 11.1759 13.6371 11.5871 13.5299 11.9872L11.9183 18.0017Z" fill="white"/>
<path d="M8.16365 11.5439C8.45654 11.251 8.93142 11.251 9.22431 11.5439C9.5172 11.8367 9.5172 12.3116 9.22431 12.6045L7.26978 14.559L9.22431 16.5136C9.5172 16.8065 9.5172 17.2813 9.22431 17.5742C8.93142 17.8671 8.45654 17.8671 8.16365 17.5742L5.68878 15.0994C5.5398 14.9504 5.4666 14.7543 5.46917 14.5591C5.46657 14.3638 5.53977 14.1677 5.68878 14.0187L8.16365 11.5439Z" fill="white"/>
<path d="M14.7757 11.5439C15.0686 11.251 15.5435 11.251 15.8363 11.5439L18.3112 14.0187C18.4602 14.1677 18.5334 14.3637 18.5308 14.559C18.5334 14.7543 18.4602 14.9504 18.3112 15.0994L15.8363 17.5742C15.5435 17.8671 15.0686 17.8671 14.7757 17.5742C14.4828 17.2813 14.4828 16.8065 14.7757 16.5136L16.7302 14.559L14.7757 12.6045C14.4828 12.3116 14.4828 11.8367 14.7757 11.5439Z" fill="white"/>
</svg>
