<svg width="24" height="24" viewBox="0 0 24 24" fill="none" xmlns="http://www.w3.org/2000/svg">
<path d="M5.46398 21.4054C5.06798 21.8014 4.59398 21.9984 4.04098 21.9984C3.47098 21.9984 2.98798 21.8004 2.59398 21.4054C2.19998 21.0104 2.00098 20.5274 2.00098 19.9584C2.00098 19.4054 2.19898 18.9304 2.59398 18.5354C2.98898 18.1394 3.47198 17.9424 4.04098 17.9424C4.59398 17.9424 5.06898 18.1404 5.46398 18.5354C5.85998 18.9314 6.05698 19.4054 6.05698 19.9584C6.05698 20.5284 5.85898 21.0114 5.46398 21.4054Z" fill="white"/>
<path d="M2.47431 12.3411C2.62231 12.2031 2.81831 12.1271 3.02131 12.1281C4.20231 12.1211 5.37331 12.3551 6.46131 12.8161C7.51631 13.2601 8.47531 13.9041 9.28531 14.7131C10.0943 15.5231 10.7383 16.4821 11.1823 17.5371C11.6433 18.6251 11.8773 19.7951 11.8703 20.9771C11.8713 21.1801 11.7953 21.3761 11.6563 21.5241C11.5843 21.5951 11.4993 21.6501 11.4063 21.6861C11.3133 21.7221 11.2123 21.7401 11.1123 21.7361C10.9063 21.7361 10.7233 21.6651 10.5653 21.5231C10.4223 21.3641 10.3513 21.1821 10.3513 20.9761C10.3513 19.9641 10.1623 19.0141 9.78231 18.1291C9.41831 17.2511 8.88631 16.4541 8.21631 15.7811C7.55231 15.1161 6.76931 14.5951 5.86831 14.2151C4.98231 13.8351 4.03331 13.6451 3.02131 13.6451C2.81631 13.6451 2.63331 13.5741 2.47431 13.4321C2.33231 13.2741 2.26131 13.0921 2.26131 12.8861C2.25731 12.7851 2.27431 12.6851 2.31131 12.5911C2.34831 12.4971 2.40331 12.4111 2.47431 12.3401V12.3411Z" fill="white"/>
<path d="M2.47431 7.29066C2.33231 7.43266 2.26131 7.60666 2.26131 7.81166C2.25731 7.91266 2.27431 8.01266 2.31131 8.10666C2.34831 8.20066 2.40331 8.28566 2.47431 8.35766C2.62231 8.49666 2.81831 8.57366 3.02131 8.57266C4.73031 8.57266 6.33431 8.89666 7.83731 9.54466C9.31631 10.1667 10.6623 11.0697 11.7993 12.2017C12.9313 13.3387 13.8343 14.6847 14.4563 16.1637C15.1053 17.6667 15.4293 19.2717 15.4293 20.9797C15.4273 21.1827 15.5033 21.3777 15.6423 21.5267C15.7143 21.5977 15.7993 21.6527 15.8933 21.6897C15.9873 21.7267 16.0873 21.7427 16.1883 21.7397C16.2853 21.7417 16.3813 21.7237 16.4713 21.6877C16.5613 21.6517 16.6423 21.5967 16.7103 21.5277C16.7853 21.4577 16.8453 21.3727 16.8863 21.2787C16.9273 21.1847 16.9483 21.0837 16.9483 20.9807C16.9483 19.0517 16.5843 17.2477 15.8573 15.5727C15.1433 13.9227 14.1213 12.4247 12.8453 11.1597C11.5793 9.88266 10.0813 8.86066 8.43231 8.14666C6.75631 7.41966 4.95231 7.05566 3.02331 7.05566C2.92031 7.05566 2.81931 7.07666 2.72531 7.11766C2.63131 7.15866 2.54631 7.21866 2.47631 7.29366L2.47431 7.29066Z" fill="white"/>
<path d="M3.02 1.99902C2.918 1.99902 2.816 2.02002 2.722 2.06102C2.628 2.10202 2.543 2.16102 2.473 2.23602C2.404 2.30402 2.349 2.38502 2.313 2.47502C2.277 2.56502 2.259 2.66102 2.261 2.75802C2.261 2.96402 2.332 3.14602 2.474 3.30502C2.633 3.44702 2.815 3.51802 3.021 3.51802C5.425 3.51802 7.687 3.97702 9.806 4.89502C11.942 5.81202 13.792 7.06102 15.358 8.64202C16.939 10.208 18.188 12.059 19.106 14.194C20.023 16.314 20.482 18.575 20.482 20.979C20.482 21.185 20.553 21.367 20.695 21.526C20.854 21.668 21.036 21.739 21.242 21.739C21.448 21.739 21.622 21.668 21.764 21.526C21.839 21.456 21.898 21.371 21.939 21.277C21.98 21.183 22.001 21.082 22.001 20.979C22.001 18.353 21.503 15.895 20.506 13.6C19.51 11.292 18.149 9.28302 16.427 7.57502C14.718 5.85102 12.709 4.49102 10.4 3.49502C8.106 2.49802 5.648 2.00002 3.022 2.00002L3.02 1.99902Z" fill="white"/>
</svg>
