<svg width="24" height="24" viewBox="0 0 24 24" fill="none" xmlns="http://www.w3.org/2000/svg">
<path d="M7.60506 2.26751C7.44506 2.43651 7.35706 2.66051 7.35906 2.89351V16.2805H5.93106C5.14306 16.2805 4.46606 16.5635 3.90006 17.1275C3.35106 17.6785 3.07506 18.3475 3.07506 19.1365C3.06906 19.5135 3.14006 19.8865 3.28106 20.2355C3.42206 20.5845 3.63306 20.9015 3.90006 21.1665C4.16606 21.4335 4.48306 21.6435 4.83106 21.7855C5.17906 21.9275 5.55406 21.9975 5.93006 21.9915C6.30306 21.9985 6.67406 21.9285 7.02006 21.7865C7.36606 21.6445 7.67806 21.4335 7.93906 21.1655C8.50406 20.6005 8.78606 19.9235 8.78606 19.1345V8.60351C8.78106 8.51651 8.80206 8.43051 8.84606 8.35451C8.89006 8.27851 8.95406 8.21851 9.03206 8.17851C9.21006 8.08951 9.37406 8.09651 9.52206 8.20151L13.0251 10.5445C13.3371 10.7515 13.6571 10.7675 13.9841 10.5885C14.3271 10.4105 14.4981 10.1275 14.4981 9.74151V6.32851C14.5001 6.17251 14.4621 6.01851 14.3871 5.88151C14.3131 5.73351 14.2081 5.61451 14.0751 5.52451L9.23306 2.31151C9.08406 2.20751 8.92706 2.13351 8.76506 2.08851C8.60106 2.02851 8.43006 1.99951 8.25206 1.99951C8.13206 1.99751 8.01206 2.01951 7.90106 2.06551C7.79006 2.11151 7.68906 2.17951 7.60506 2.26551V2.26751Z" fill="white"/>
<path d="M20.8691 14.3445C20.9071 14.4295 20.9271 14.5215 20.9261 14.6145V21.2865C20.9271 21.3795 20.9081 21.4715 20.8691 21.5565C20.8301 21.6415 20.7741 21.7165 20.7031 21.7765C20.6431 21.8475 20.5671 21.9045 20.4821 21.9435C20.3971 21.9825 20.3051 22.0015 20.2111 22.0005C20.1151 22.0005 20.0191 21.9805 19.9311 21.9415C19.8431 21.9025 19.7631 21.8465 19.6971 21.7765C19.5641 21.6435 19.4971 21.4795 19.4971 21.2865V14.6145C19.4951 14.5235 19.5121 14.4325 19.5461 14.3485C19.5801 14.2645 19.6321 14.1875 19.6971 14.1235C19.7631 14.0535 19.8431 13.9975 19.9311 13.9585C20.0191 13.9195 20.1151 13.9005 20.2111 13.9005C20.3041 13.8995 20.3971 13.9185 20.4811 13.9575C20.5651 13.9965 20.6411 14.0525 20.7021 14.1235C20.7731 14.1845 20.8311 14.2595 20.8691 14.3445Z" fill="white"/>
<path d="M14.9671 13.9005C14.7591 13.9005 14.5361 13.9685 14.2981 14.1015C14.0751 14.2355 13.9191 14.4435 13.8301 14.7265L11.9111 21.0625C11.8811 21.1535 11.8701 21.2505 11.8781 21.3455C11.8861 21.4405 11.9121 21.5345 11.9561 21.6195C12.0531 21.7775 12.2031 21.8965 12.3801 21.9545C12.4681 21.9845 12.5601 21.9965 12.6531 21.9885C12.7461 21.9805 12.8351 21.9535 12.9161 21.9095C13.0021 21.8685 13.0781 21.8085 13.1401 21.7355C13.2021 21.6625 13.2471 21.5775 13.2731 21.4855L13.8981 19.4105H16.0401L16.6651 21.4855C16.6911 21.5775 16.7371 21.6625 16.7981 21.7355C16.8591 21.8085 16.9361 21.8675 17.0221 21.9095C17.1041 21.9535 17.1931 21.9795 17.2851 21.9875C17.3771 21.9955 17.4701 21.9835 17.5581 21.9545C17.6481 21.9305 17.7311 21.8875 17.8041 21.8305C17.8771 21.7735 17.9381 21.7015 17.9821 21.6195C18.0701 21.4475 18.0941 21.2495 18.0491 21.0615L16.1301 14.7255C16.0411 14.4425 15.8771 14.2355 15.6391 14.0995C15.4161 13.9665 15.1931 13.8995 14.9701 13.8995L14.9671 13.9005ZM14.9671 15.8865L15.6141 17.9835H14.3421L14.9671 15.8865Z" fill="white"/>
</svg>
