<svg width="24" height="24" viewBox="0 0 24 24" fill="none" xmlns="http://www.w3.org/2000/svg">
<path d="M21.9995 2.74999C21.9995 2.53099 21.9295 2.35099 21.7895 2.21099V2.20999C21.635 2.07217 21.4581 2.00219 21.259 2.00004C21.2559 2 21.2527 1.99999 21.2495 1.99999C21.245 1.99995 21.2405 1.99995 21.236 1.99999H17.2425C17.0421 1.99853 16.8488 2.07406 16.7025 2.21099C16.6328 2.28166 16.5782 2.36583 16.5421 2.45834C16.506 2.55084 16.4891 2.64974 16.4925 2.74899C16.4908 2.94924 16.566 3.14251 16.7025 3.28899C16.8487 3.42531 17.0416 3.50045 17.2415 3.49899H19.4205L16.2095 6.70999C16.1395 6.7809 16.0848 6.86539 16.0487 6.95826C16.0125 7.05113 15.9958 7.15041 15.9995 7.24999C15.9975 7.34561 16.0152 7.44064 16.0513 7.5292C16.0874 7.61777 16.1412 7.69801 16.2095 7.76499C16.2787 7.83899 16.3623 7.89802 16.4552 7.93844C16.5481 7.97886 16.6482 7.9998 16.7495 7.99999C16.8508 7.9998 16.951 7.97886 17.0439 7.93844C17.1368 7.89802 17.2204 7.83899 17.2895 7.76499L20.4995 4.55499V6.73399C20.4958 6.83356 20.5125 6.93284 20.5487 7.02571C20.5848 7.11858 20.6395 7.20307 20.7095 7.27399C20.856 7.41055 21.0493 7.48571 21.2495 7.48399C21.3453 7.48611 21.4405 7.46857 21.5293 7.43245C21.618 7.39633 21.6984 7.3424 21.7655 7.27399C21.8418 7.20666 21.9023 7.12339 21.9427 7.03006C21.9831 6.93674 22.0025 6.83565 21.9995 6.73399V2.74999Z" fill="white"/>
<path d="M6.70905 16.21L3.49905 19.42V17.242C3.49905 17.039 3.42105 16.867 3.26505 16.727C3.12405 16.57 2.95205 16.492 2.74905 16.492C2.64775 16.4921 2.54755 16.513 2.45467 16.5535C2.36178 16.5939 2.27818 16.6529 2.20905 16.727C2.06905 16.867 1.99905 17.039 1.99905 17.242V21.25C1.99733 21.4502 2.07249 21.6435 2.20905 21.79C2.35552 21.9265 2.5488 22.0017 2.74905 22C2.7594 22.0002 2.76975 22.0002 2.78008 22H6.75705C6.85268 22.002 6.9477 21.9844 7.03627 21.9482C7.12484 21.9121 7.20508 21.8583 7.27205 21.79C7.34605 21.7208 7.40508 21.6372 7.4455 21.5443C7.48592 21.4515 7.50687 21.3513 7.50705 21.25C7.50705 21.047 7.42905 20.875 7.27205 20.734C7.13205 20.578 6.96005 20.5 6.75705 20.5H4.57905L7.78905 17.29C7.92905 17.133 7.99905 16.953 7.99905 16.75C7.99905 16.547 7.92905 16.367 7.78905 16.21C7.63205 16.07 7.45205 16 7.24905 16C7.0488 15.9983 6.85552 16.0734 6.70905 16.21Z" fill="white"/>
<path d="M22.0005 21.2499C22.0005 21.4689 21.9305 21.6489 21.7905 21.7889V21.7899C21.636 21.9277 21.4591 21.9977 21.26 21.9999C21.2568 21.9999 21.2537 21.9999 21.2505 21.9999C21.246 22 21.2415 22 21.237 21.9999H17.2435C17.0431 22.0014 16.8498 21.9259 16.7035 21.7889C16.6337 21.7183 16.5791 21.6341 16.543 21.5416C16.5069 21.4491 16.4901 21.3502 16.4935 21.2509C16.4918 21.0507 16.5669 20.8574 16.7035 20.7109C16.8497 20.5746 17.0426 20.4995 17.2425 20.5009H19.4215L16.2105 17.2899C16.1405 17.219 16.0858 17.1345 16.0496 17.0417C16.0135 16.9488 15.9968 16.8495 16.0005 16.7499C15.9985 16.6543 16.0161 16.5593 16.0522 16.4707C16.0884 16.3821 16.1422 16.3019 16.2105 16.2349C16.2797 16.1609 16.3633 16.1019 16.4562 16.0615C16.549 16.0211 16.6492 16.0001 16.7505 15.9999C16.8518 16.0001 16.952 16.0211 17.0449 16.0615C17.1377 16.1019 17.2213 16.1609 17.2905 16.2349L20.5005 19.4449V17.2659C20.4968 17.1664 20.5135 17.0671 20.5496 16.9742C20.5858 16.8813 20.6405 16.7968 20.7105 16.7259C20.857 16.5894 21.0503 16.5142 21.2505 16.5159C21.3463 16.5138 21.4415 16.5313 21.5303 16.5675C21.619 16.6036 21.6994 16.6575 21.7665 16.7259C21.8427 16.7933 21.9032 16.8765 21.9437 16.9699C21.9841 17.0632 22.0035 17.1643 22.0005 17.2659V21.2499Z" fill="white"/>
<path d="M6.71003 7.78993L3.50003 4.57993V6.75793C3.50003 6.96093 3.42203 7.13293 3.26603 7.27293C3.12503 7.42993 2.95303 7.50793 2.75003 7.50793C2.64873 7.5078 2.54853 7.48688 2.45564 7.44646C2.36276 7.40604 2.27916 7.34697 2.21003 7.27293C2.07003 7.13293 2.00003 6.96093 2.00003 6.75793V2.74993C1.9983 2.54968 2.07347 2.3564 2.21003 2.20993C2.3565 2.07337 2.54978 1.9982 2.75003 1.99993C2.76038 1.9997 2.77073 1.9997 2.78106 1.99993H6.75803C6.85366 1.99794 6.94868 2.01555 7.03725 2.05167C7.12581 2.08778 7.20605 2.14164 7.27303 2.20993C7.34703 2.2791 7.40606 2.3627 7.44648 2.45558C7.4869 2.54846 7.50785 2.64864 7.50803 2.74993C7.50803 2.95293 7.43003 3.12493 7.27303 3.26593C7.13303 3.42193 6.96103 3.49993 6.75803 3.49993H4.58003L7.79003 6.70993C7.93003 6.86693 8.00003 7.04693 8.00003 7.24993C8.00003 7.45293 7.93003 7.63293 7.79003 7.78993C7.63303 7.92993 7.45303 7.99993 7.25003 7.99993C7.04978 8.00165 6.8565 7.92649 6.71003 7.78993Z" fill="white"/>
</svg>
