<svg width="24" height="24" viewBox="0 0 24 24" fill="none" xmlns="http://www.w3.org/2000/svg">
<path d="M21.7779 3.24201L16.7669 8.27601C16.8869 8.45601 16.9929 8.65201 17.0829 8.86401C17.1889 9.07401 17.2639 9.29201 17.3089 9.51801L20.7629 6.06401C20.8979 5.92901 21.0639 5.86101 21.2589 5.86101C21.3549 5.85701 21.4499 5.87401 21.5399 5.90801C21.6299 5.94201 21.7109 5.99501 21.7789 6.06301C21.8499 6.13001 21.9069 6.21001 21.9459 6.30001C21.9849 6.39001 22.0049 6.48601 22.0049 6.58301C22.0049 6.68101 21.9849 6.77701 21.9459 6.86701C21.9069 6.95701 21.8499 7.03701 21.7789 7.10401L17.4229 11.458V13.265L20.7639 9.92301C20.8989 9.78801 21.0649 9.72101 21.2599 9.72101C21.3559 9.71701 21.4509 9.73301 21.5409 9.76801C21.6309 9.80301 21.7119 9.85601 21.7799 9.92301C21.9299 10.059 22.0049 10.232 22.0049 10.443C22.0059 10.537 21.9859 10.63 21.9469 10.716C21.9079 10.802 21.8499 10.878 21.7789 10.939L17.9419 14.799C17.8729 14.87 17.7879 14.924 17.6929 14.957C17.6059 14.987 17.5139 15.002 17.4219 15.002V18.141C17.4219 19.21 17.0459 20.12 16.2929 20.872C15.5399 21.624 14.6309 22.001 13.5619 22.001H5.86488C4.79588 22.001 3.88588 21.625 3.13388 20.872C2.38188 20.119 2.00488 19.209 2.00488 18.141V10.444C2.00488 9.37501 2.38088 8.46501 3.13388 7.71301C3.88688 6.96101 4.79688 6.58401 5.86488 6.58401H9.00288C9.00288 6.49301 9.01688 6.40301 9.04788 6.31301C9.07988 6.21901 9.13388 6.13401 9.20588 6.06401L13.0659 2.22701C13.1269 2.15501 13.2029 2.09801 13.2889 2.05901C13.3749 2.02001 13.4679 2.00001 13.5619 2.00101C13.7729 2.00101 13.9459 2.07601 14.0819 2.22701C14.2169 2.36201 14.2839 2.53501 14.2839 2.74601C14.2839 2.94201 14.2169 3.10701 14.0819 3.24201L10.7389 6.58301H12.5459L16.9019 2.22701C16.9689 2.15601 17.0489 2.09901 17.1389 2.06001C17.2289 2.02101 17.3249 2.00101 17.4229 2.00101C17.6189 2.00101 17.7919 2.07601 17.9429 2.22701C18.0779 2.36201 18.1449 2.53501 18.1449 2.74601C18.1449 2.94201 18.0779 3.10701 17.9429 3.24201L14.4879 6.69601C14.7139 6.74101 14.9319 6.81601 15.1429 6.92201C15.3539 7.01201 15.5489 7.11801 15.7309 7.23801L20.7639 2.22701C20.8249 2.15501 20.9009 2.09801 20.9869 2.05901C21.0729 2.02001 21.1659 2.00001 21.2599 2.00101C21.4719 2.00101 21.6439 2.07601 21.7799 2.22701C21.9299 2.36201 22.0049 2.53501 22.0049 2.74601C22.0059 2.84001 21.9859 2.93401 21.9469 3.01901C21.9079 3.10401 21.8489 3.18101 21.7779 3.24201ZM11.1019 8.02701H5.86488C5.20188 8.02701 4.63088 8.26001 4.14988 8.72701C3.68288 9.19301 3.44988 9.76501 3.44988 10.441V18.139C3.44988 18.802 3.68288 19.373 4.14988 19.854C4.63188 20.321 5.20288 20.554 5.86488 20.554H13.5619C14.2389 20.554 14.8109 20.321 15.2769 19.854C15.7439 19.372 15.9769 18.801 15.9769 18.139V12.902L14.0809 14.799C14.0129 14.866 13.9319 14.919 13.8419 14.954C13.7519 14.989 13.6569 15.005 13.5619 15.002C13.4699 15.004 13.3779 14.987 13.2929 14.952C13.2079 14.917 13.1299 14.865 13.0659 14.8C12.9939 14.739 12.9359 14.663 12.8969 14.577C12.8579 14.491 12.8379 14.398 12.8389 14.303C12.8389 14.091 12.9139 13.919 13.0649 13.783L15.9759 10.849V10.443C15.9789 10.05 15.8859 9.66301 15.7049 9.31401L10.2189 14.799C10.1509 14.866 10.0699 14.919 9.97988 14.954C9.88988 14.989 9.79488 15.005 9.69888 15.002C9.60688 15.004 9.51488 14.987 9.42988 14.952C9.34488 14.917 9.26688 14.865 9.20288 14.8C9.13688 14.736 9.08488 14.658 9.04988 14.572C9.01488 14.486 8.99788 14.395 8.99988 14.303C8.99588 14.207 9.01188 14.111 9.04688 14.022C9.08188 13.933 9.13488 13.851 9.20188 13.783L14.6879 8.29801C14.3389 8.11701 13.9519 8.02501 13.5589 8.02701H13.1529L10.2179 10.939C10.1529 11.012 10.0729 11.071 9.98388 11.11C9.89488 11.149 9.79688 11.168 9.69888 11.165C9.60488 11.166 9.51088 11.146 9.42588 11.107C9.34088 11.068 9.26388 11.01 9.20288 10.939C9.13688 10.875 9.08488 10.797 9.04988 10.712C9.01488 10.627 8.99788 10.535 8.99988 10.443C8.99588 10.347 9.01188 10.251 9.04688 10.162C9.08188 10.073 9.13488 9.99101 9.20188 9.92301L11.0989 8.02801L11.1019 8.02701Z" fill="white"/>
</svg>
