<svg width="24" height="24" viewBox="0 0 24 24" fill="none" xmlns="http://www.w3.org/2000/svg">
<path d="M2.70916 2.21106C2.31741 2.21106 2 2.52865 2 2.92061C2 3.31257 2.31741 3.63016 2.70916 3.63016H4.59455V8.11156C4.59455 8.50352 4.91196 8.82111 5.3037 8.82111C5.69545 8.82111 6.01286 8.50352 6.01286 8.11156V3.63016H7.89724C8.28899 3.63016 8.6064 3.31257 8.6064 2.92061C8.6064 2.52865 8.28899 2.21106 7.89724 2.21106H2.70916Z" fill="white"/>
<path d="M8.7631 4.41005C10.2708 4.26131 11.7896 4.55076 13.1366 5.24322C14.1953 5.78694 15.1124 6.56181 15.8245 7.50553L15.94 6.85428C16.0083 6.46835 16.377 6.21106 16.7617 6.28041C17.1464 6.34975 17.4046 6.71759 17.3352 7.10252L16.8953 9.57789C16.841 9.88543 16.596 10.1106 16.3037 10.1548C16.2062 10.1759 16.1028 10.1759 15.9993 10.1528L13.5484 9.60101C13.1667 9.51458 12.9266 9.13568 13.012 8.75277C13.0974 8.36985 13.4771 8.13066 13.8598 8.21608L14.7307 8.41206C14.141 7.61407 13.3746 6.96081 12.4867 6.50453C11.3817 5.93669 10.1362 5.6995 8.8997 5.82111C8.50997 5.8593 8.16343 5.57488 8.12425 5.18493C8.08508 4.79498 8.37035 4.44825 8.76008 4.40905L8.7631 4.41005Z" fill="white"/>
<path d="M13.7292 10.9126C12.2938 10.9126 11.1296 12.0774 11.1296 13.5136V19.1879C11.1296 20.6241 12.2938 21.7889 13.7292 21.7889H19.4004C20.8358 21.7889 22 20.6241 22 19.1879V13.5136C22 12.0774 20.8358 10.9126 19.4004 10.9126H13.7292ZM12.5479 13.5136C12.5479 12.8603 13.0773 12.3317 13.7292 12.3317H19.4004C20.0533 12.3317 20.5817 12.8613 20.5817 13.5136V16.3829L19.8986 15.9859C19.3914 15.6915 18.7656 15.6874 18.2553 15.9759L16.9596 16.7075L16.1409 15.8683C15.5151 15.2281 14.4946 15.201 13.8357 15.808L12.5469 16.997V13.5126L12.5479 13.5136ZM12.5479 18.9276C12.552 18.9236 12.556 18.9206 12.56 18.9166L14.7969 16.8523C14.8914 16.7658 15.037 16.7699 15.1264 16.8613L17.1464 18.9307C17.4196 19.2111 17.8686 19.2161 18.1489 18.9427C18.4291 18.6694 18.4341 18.2201 18.1609 17.9397L17.9841 17.7588L18.9524 17.2121C19.0248 17.1709 19.1142 17.1719 19.1875 17.2131L20.5827 18.0231V19.1879C20.5827 19.8412 20.0533 20.3699 19.4014 20.3699H13.7302C13.0773 20.3699 12.5489 19.8402 12.5489 19.1879V18.9266L12.5479 18.9276Z" fill="white"/>
</svg>
