<svg width="24" height="24" viewBox="0 0 24 24" fill="none" xmlns="http://www.w3.org/2000/svg">
<path d="M12.0002 3.53817C10.8312 3.53817 9.73317 3.76317 8.70817 4.21117C7.70117 4.63117 6.78617 5.24317 6.01517 6.01417C5.24417 6.78517 4.63217 7.70117 4.21217 8.70717C3.76417 9.73317 3.53917 10.8302 3.53917 12.0002C3.53917 13.1702 3.76417 14.2672 4.21217 15.2922C4.63217 16.2992 5.24417 17.2142 6.01517 17.9852C6.78617 18.7562 7.70117 19.3682 8.70717 19.7882C9.73317 20.2362 10.8302 20.4612 12.0002 20.4612C13.1702 20.4612 14.2672 20.2362 15.2922 19.7882C16.2992 19.3682 17.2142 18.7562 17.9852 17.9852C18.7562 17.2142 19.3682 16.2992 19.7882 15.2932C20.2362 14.2672 20.4612 13.1702 20.4612 12.0002C20.4612 11.7922 20.5332 11.6152 20.6762 11.4712C20.7472 11.3952 20.8332 11.3352 20.9282 11.2942C21.0232 11.2532 21.1262 11.2312 21.2302 11.2312C21.4382 11.2312 21.6152 11.3112 21.7592 11.4712C21.9192 11.6162 21.9992 11.7922 21.9992 12.0002C22.0072 13.3392 21.7372 14.6652 21.2062 15.8942C20.7082 17.0892 19.9812 18.1752 19.0672 19.0912C18.1572 19.9972 17.0792 20.7152 15.8942 21.2072C14.6652 21.7382 13.3392 22.0072 12.0002 21.9992C10.6612 22.0072 9.33517 21.7372 8.10617 21.2062C6.91517 20.7112 5.83017 19.9932 4.90917 19.0902C4.00617 18.1692 3.28817 17.0842 2.79317 15.8932C2.26217 14.6642 1.99217 13.3382 2.00017 11.9992C2.00017 10.6212 2.26517 9.32217 2.79317 8.10517C3.28417 6.92017 4.00317 5.84217 4.90917 4.93317C5.82517 4.01817 6.91117 3.29117 8.10617 2.79417C9.33517 2.26317 10.6612 1.99217 12.0002 2.00017C13.1222 2.00017 14.1882 2.17617 15.1972 2.52917C16.1902 2.85717 17.1242 3.34417 17.9612 3.97117V2.76917C17.9612 2.56117 18.0332 2.38417 18.1772 2.24017C18.2482 2.16417 18.3342 2.10417 18.4292 2.06317C18.5242 2.02217 18.6272 2.00017 18.7312 2.00017C18.9392 2.00017 19.1162 2.08017 19.2592 2.24017C19.4192 2.38517 19.5002 2.56117 19.5002 2.76917V6.61517H15.6542C15.4492 6.61717 15.2502 6.54017 15.1002 6.40017C14.9602 6.25017 14.8832 6.05217 14.8852 5.84617C14.8852 5.63817 14.9572 5.46117 15.1002 5.31717C15.1712 5.24117 15.2572 5.18117 15.3522 5.14017C15.4472 5.09917 15.5502 5.07717 15.6542 5.07717H16.8552C16.1602 4.59317 15.3992 4.21317 14.5962 3.94717C13.7582 3.67217 12.8822 3.53317 12.0002 3.53817Z" fill="white"/>
<path d="M9.65068 8.46681C9.89168 8.29081 10.1637 8.18581 10.4687 8.15381C10.7737 8.12181 11.0697 8.19481 11.3577 8.36881L14.7227 10.3898C15.0277 10.5818 15.2437 10.8308 15.3717 11.1348C15.5157 11.4228 15.5877 11.7118 15.5877 12.0008C15.5877 12.2898 15.5157 12.5858 15.3727 12.8898C15.2337 13.1898 15.0067 13.4418 14.7227 13.6108L11.3577 15.6308C11.0697 15.8048 10.7727 15.8778 10.4687 15.8458C10.1727 15.8168 9.89068 15.7088 9.65168 15.5328C9.42868 15.3588 9.24768 15.1368 9.12268 14.8838C8.99568 14.6138 8.92968 14.3178 8.93068 14.0188V9.97881C8.93068 9.67381 8.99468 9.39381 9.12268 9.13781C9.25068 8.86481 9.42768 8.64181 9.65168 8.46481L9.65068 8.46581V8.46681ZM10.5657 9.69181C10.5387 9.72181 10.5147 9.75381 10.4937 9.78781C10.4757 9.84981 10.4677 9.91481 10.4687 9.97981V14.0188C10.4687 14.0988 10.4767 14.1628 10.4927 14.2108C10.5137 14.2448 10.5377 14.2768 10.5647 14.3068L13.9307 12.2878L14.0027 12.2158C14.0397 12.1498 14.0557 12.0748 14.0507 11.9998C14.0507 11.9038 14.0347 11.8398 14.0027 11.8068C13.9817 11.7728 13.9577 11.7408 13.9307 11.7118L10.5657 9.69181Z" fill="white"/>
</svg>
