<svg width="24" height="24" viewBox="0 0 24 24" fill="none" xmlns="http://www.w3.org/2000/svg">
<path fill-rule="evenodd" clip-rule="evenodd" d="M17.0983 16.1629C16.2304 18.4078 14.0511 20 11.5 20H8C4.68629 20 2 17.3137 2 14V6C2 4.89543 2.89543 4 4 4H15.5C16.6046 4 17.5 4.89543 17.5 6V7.16291H19C20.6569 7.16291 22 8.50606 22 10.1629V13.1629C22 14.8198 20.6569 16.1629 19 16.1629H17.0983ZM4 5.5H15.5C15.7761 5.5 16 5.72386 16 6V14C16 16.4853 13.9853 18.5 11.5 18.5H8C5.51472 18.5 3.5 16.4853 3.5 14V6C3.5 5.72386 3.72386 5.5 4 5.5ZM17.5 8.66291V14.6629H19C19.8284 14.6629 20.5 13.9913 20.5 13.1629V10.1629C20.5 9.33448 19.8284 8.66291 19 8.66291H17.5Z" fill="white"/>
</svg>
