<svg width="24" height="24" viewBox="0 0 24 24" fill="none" xmlns="http://www.w3.org/2000/svg">
<path d="M14.2924 3.336C14.3424 3.217 14.3674 3.089 14.3664 2.96C14.3694 2.834 14.3444 2.709 14.2954 2.594C14.2464 2.479 14.1714 2.375 14.0774 2.291C13.8984 2.098 13.6824 2.001 13.4294 2.001C13.3004 2 13.1724 2.025 13.0534 2.074C12.9344 2.123 12.8264 2.198 12.7374 2.291C12.5594 2.469 12.4694 2.693 12.4694 2.961C12.4654 3.218 12.5614 3.466 12.7374 3.653C12.9304 3.831 13.1624 3.92 13.4284 3.92C13.5484 3.922 13.6684 3.9 13.7794 3.854C13.8904 3.808 13.9914 3.74 14.0754 3.654C14.1684 3.565 14.2424 3.457 14.2924 3.338V3.336Z" fill="white"/>
<path d="M15.0804 6.822L9.34535 8.362C8.89035 8.484 8.47435 8.722 8.13935 9.053L2.78235 14.41C2.52935 14.656 2.32935 14.952 2.19535 15.278C2.06135 15.604 1.99535 15.955 2.00135 16.308C2.00135 17.051 2.26135 17.684 2.78235 18.205L5.79535 21.218C6.31635 21.739 6.94835 21.999 7.69235 21.999C8.43635 21.999 9.06935 21.739 9.59035 21.218L14.9474 15.861C15.2794 15.526 15.5174 15.111 15.6384 14.655L17.1784 8.919C17.3424 8.279 17.1934 7.729 16.7324 7.267C16.2714 6.805 15.7204 6.658 15.0804 6.822ZM9.72335 9.768L12.0454 9.143L14.8574 11.955L14.2324 14.277C14.2024 14.382 14.1574 14.477 14.0984 14.567C14.0524 14.658 13.9924 14.74 13.9194 14.812L8.54035 20.192C8.30235 20.43 8.01135 20.549 7.67035 20.549C7.34235 20.549 7.06035 20.43 6.82235 20.192L3.80735 17.179C3.69335 17.07 3.60235 16.938 3.54135 16.792C3.48035 16.646 3.44935 16.489 3.45035 16.331C3.45035 15.988 3.56935 15.698 3.80735 15.46L9.18735 10.081C9.25935 10.008 9.34235 9.948 9.43335 9.902C9.52235 9.843 9.61935 9.797 9.72235 9.769L9.72335 9.768Z" fill="white"/>
<path d="M14.2924 20.479C14.3424 20.36 14.3674 20.232 14.3664 20.103C14.3694 19.977 14.3444 19.852 14.2954 19.737C14.2464 19.622 14.1714 19.518 14.0774 19.434C13.8984 19.241 13.6824 19.144 13.4294 19.144C13.3004 19.143 13.1724 19.168 13.0534 19.218C12.9344 19.268 12.8264 19.342 12.7374 19.435C12.5594 19.613 12.4694 19.837 12.4694 20.105C12.4654 20.362 12.5614 20.61 12.7374 20.797C12.9304 20.975 13.1624 21.064 13.4284 21.064C13.5484 21.066 13.6684 21.044 13.7794 20.998C13.8904 20.952 13.9914 20.884 14.0754 20.798C14.1684 20.709 14.2424 20.601 14.2924 20.482V20.479Z" fill="white"/>
<path d="M20.4814 18.585C20.8534 18.214 21.0394 17.767 21.0394 17.246C21.0394 16.725 20.8524 16.278 20.4814 15.907C20.1094 15.535 19.6634 15.349 19.1424 15.349C18.6064 15.349 18.1524 15.536 17.7804 15.907C17.4084 16.278 17.2224 16.725 17.2224 17.246C17.2224 17.766 17.4094 18.214 17.7804 18.585C17.9574 18.766 18.1694 18.909 18.4034 19.005C18.6374 19.101 18.8894 19.148 19.1424 19.143C19.6624 19.143 20.1104 18.956 20.4814 18.585Z" fill="white"/>
<path d="M21.7094 13.161C21.9024 12.968 21.9994 12.744 21.9994 12.491C22.0024 12.365 21.9774 12.24 21.9274 12.124C21.8774 12.008 21.8024 11.905 21.7094 11.821C21.5314 11.628 21.3074 11.531 21.0394 11.531C20.9104 11.53 20.7824 11.555 20.6634 11.605C20.5444 11.655 20.4364 11.729 20.3474 11.822C20.1694 12 20.0804 12.224 20.0804 12.492C20.0784 12.741 20.1744 12.982 20.3474 13.162C20.5414 13.34 20.7724 13.43 21.0394 13.43C21.1634 13.433 21.2864 13.411 21.4024 13.365C21.5184 13.319 21.6224 13.249 21.7094 13.161Z" fill="white"/>
<path d="M17.6244 2.023C17.9664 1.978 18.3014 2.067 18.6294 2.291L18.9414 2.537C18.9924 2.578 19.0554 2.602 19.1204 2.604C19.1924 2.604 19.2634 2.581 19.3204 2.537L19.6324 2.29C19.9754 2.067 20.3094 1.979 20.6374 2.023C20.9654 2.053 21.2624 2.193 21.5304 2.447C21.7324 2.63 21.8734 2.872 21.9324 3.138C22.0064 3.391 22.0064 3.637 21.9324 3.875C21.8134 4.366 21.4934 4.865 20.9714 5.37C20.5004 5.833 20.0014 6.265 19.4764 6.665C19.3724 6.739 19.2474 6.778 19.1194 6.776C19.0054 6.778 18.8944 6.738 18.8074 6.665C18.3314 6.308 17.8334 5.876 17.3114 5.37C16.7914 4.864 16.4634 4.366 16.3304 3.875C16.2564 3.637 16.2484 3.391 16.3074 3.139C16.3804 2.873 16.5284 2.633 16.7324 2.447C17.0004 2.195 17.2974 2.052 17.6244 2.023Z" fill="white"/>
<path d="M4.81235 3.741C4.77635 3.759 4.73935 3.773 4.70135 3.786H4.70035L3.13835 4.032C3.04835 4.032 2.98835 4.077 2.96035 4.166C2.94535 4.207 2.94135 4.251 2.94935 4.294C2.95735 4.337 2.97635 4.377 3.00435 4.41L4.14235 5.571C4.17335 5.603 4.19635 5.641 4.20935 5.683C4.22335 5.726 4.23135 5.771 4.23135 5.816L3.96535 7.467C3.95635 7.507 3.95835 7.548 3.97035 7.587C3.98235 7.626 4.00335 7.662 4.03235 7.69C4.10535 7.735 4.18835 7.735 4.27735 7.69L5.66235 6.931C5.70135 6.903 5.74735 6.888 5.79535 6.886C5.85035 6.885 5.90535 6.9 5.95135 6.931L7.33535 7.69C7.36835 7.712 7.40735 7.724 7.44735 7.724C7.48735 7.724 7.52635 7.712 7.55935 7.69C7.59435 7.665 7.62035 7.631 7.63635 7.591C7.65235 7.551 7.65635 7.508 7.64735 7.466L7.38035 5.815C7.36535 5.772 7.36535 5.724 7.38035 5.681C7.39335 5.64 7.41635 5.602 7.44735 5.571L8.58535 4.409C8.65935 4.335 8.68135 4.253 8.65235 4.163C8.62335 4.073 8.56235 4.03 8.47335 4.03L6.91135 3.784L6.77735 3.739C6.74435 3.705 6.71435 3.668 6.68835 3.628L5.99635 2.133C5.95135 2.043 5.88535 2 5.79535 2C5.70535 2 5.64535 2.044 5.61735 2.133L4.90335 3.628C4.88735 3.674 4.85535 3.714 4.81335 3.739L4.81235 3.741Z" fill="white"/>
</svg>
