<svg width="24" height="24" viewBox="0 0 24 24" fill="none" xmlns="http://www.w3.org/2000/svg">
<path fill-rule="evenodd" clip-rule="evenodd" d="M6.98656 1.99961C6.6403 1.99955 6.30965 1.99951 6 1.99951C4.34315 1.99951 3 3.34266 3 4.99951V18.9995C3 20.6564 4.34315 21.9995 6 21.9995H18C19.6569 21.9995 21 20.6564 21 18.9995C21 17.1892 20.9984 14.4757 20.9968 12.0072L20.995 8.87061C20.9945 7.68379 20.4674 6.56013 19.5558 5.80015L16.1127 2.92966C15.3938 2.33027 14.4878 2.00202 13.5518 2.00178L13.0636 2.00161C13.0419 2.00022 13.0202 1.99951 12.9982 1.99951H7.00076C6.99602 1.99951 6.99128 1.99954 6.98656 1.99961ZM6 3.49951C5.17157 3.49951 4.5 4.17108 4.5 4.99951V18.9995C4.5 19.8279 5.17157 20.4995 6 20.4995H7V15.9995C7 14.8949 7.89543 13.9995 9 13.9995H15C16.1046 13.9995 17 14.8949 17 15.9995V20.4995H18C18.8284 20.4995 19.5 19.8279 19.5 18.9995C19.5 17.1908 19.4984 14.4804 19.4969 12.0132L19.495 8.87135C19.4947 8.12982 19.1656 7.42775 18.5953 6.95228L15.1522 4.08178C14.8185 3.80361 14.4205 3.61889 13.9982 3.54211V5.99951C13.9982 7.10408 13.1028 7.99951 11.9982 7.99951H8.00076C6.89619 7.99951 6.00076 7.10408 6.00076 5.99951L6 3.49951C5.99975 3.49951 6.00025 3.49951 6 3.49951ZM7.49948 3.49972V5.49951C7.49948 6.0518 7.9472 6.49951 8.49948 6.49951H11.4995C12.0518 6.49951 12.4995 6.0518 12.4995 5.49951V3.50142L10.6737 3.50079C9.59204 3.50038 8.49598 3.49996 7.49948 3.49972ZM15.5 20.4995H8.5V16.4995C8.5 15.9472 8.94772 15.4995 9.5 15.4995H14.5C15.0523 15.4995 15.5 15.9472 15.5 16.4995V20.4995Z" fill="white"/>
</svg>
