<svg width="24" height="24" viewBox="0 0 24 24" fill="none" xmlns="http://www.w3.org/2000/svg">
<path d="M12 2.00098C12.4142 2.00098 12.7499 2.33782 12.75 2.75195V3.98926H14.25C14.6642 3.98926 15 4.32504 15 4.73926C15 5.15347 14.6642 5.48926 14.25 5.48926H12.75V11.7188L13.2744 12.2432L13.7461 11.8281L13.9141 11.6934C14.7782 11.0661 15.9801 11.13 16.7734 11.874L18.5 13.4932V9.74219C18.5 9.32797 18.8358 8.99219 19.25 8.99219C19.6642 8.99219 20 9.32797 20 9.74219V16.9893C19.9997 18.6459 18.6567 19.9893 17 19.9893H12.75V21.249C12.7497 21.663 12.4141 21.999 12 21.999C11.5859 21.999 11.2503 21.663 11.25 21.249V2.75195C11.2501 2.33782 11.5858 2.00098 12 2.00098ZM15.7471 12.9678C15.465 12.7036 15.0282 12.6976 14.7383 12.9531L14.3496 13.2949L15.7842 14.6699L15.8369 14.7256C16.0832 15.0149 16.0751 15.4502 15.8066 15.7305C15.538 16.0104 15.1041 16.0364 14.8047 15.8027L14.7461 15.7529L12.75 13.8379V18.4893H17C17.8283 18.4893 18.4997 17.8175 18.5 16.9893V15.5498L15.7471 12.9678Z" fill="white"/>
<path d="M7.5 17.9893C7.77614 17.9893 8 18.2131 8 18.4893V19.4893C7.99974 19.7652 7.77598 19.9893 7.5 19.9893H6.5C6.22402 19.9893 6.00026 19.7652 6 19.4893V18.4893C6 18.2131 6.22386 17.9893 6.5 17.9893H7.5Z" fill="white"/>
<path d="M5.5 15.9893C5.77614 15.9893 6 16.2131 6 16.4893V17.4893C5.99974 17.7652 5.77598 17.9893 5.5 17.9893H4.5C4.22402 17.9893 4.00026 17.7652 4 17.4893V16.4893C4 16.2131 4.22386 15.9893 4.5 15.9893H5.5Z" fill="white"/>
<path d="M7.5 13.9893C7.77614 13.9893 8 14.2131 8 14.4893V15.4893C7.99974 15.7652 7.77598 15.9893 7.5 15.9893H6.5C6.22402 15.9893 6.00026 15.7652 6 15.4893V14.4893C6 14.2131 6.22386 13.9893 6.5 13.9893H7.5Z" fill="white"/>
<path d="M5.5 11.9893C5.77614 11.9893 6 12.2131 6 12.4893V13.4893C5.99974 13.7652 5.77598 13.9893 5.5 13.9893H4.5C4.22402 13.9893 4.00026 13.7652 4 13.4893V12.4893C4 12.2131 4.22386 11.9893 4.5 11.9893H5.5Z" fill="white"/>
<path d="M9.5 11.9893C9.77614 11.9893 10 12.2131 10 12.4893V13.4893C9.99974 13.7652 9.77598 13.9893 9.5 13.9893H8.5C8.22402 13.9893 8.00026 13.7652 8 13.4893V12.4893C8 12.2131 8.22386 11.9893 8.5 11.9893H9.5Z" fill="white"/>
<path d="M7.5 9.98926C7.77614 9.98926 8 10.2131 8 10.4893V11.4893C7.99974 11.7652 7.77598 11.9893 7.5 11.9893H6.5C6.22402 11.9893 6.00026 11.7652 6 11.4893V10.4893C6 10.2131 6.22386 9.98926 6.5 9.98926H7.5Z" fill="white"/>
<path d="M5.5 7.98926C5.77614 7.98926 6 8.21312 6 8.48926V9.48926C5.99974 9.76518 5.77598 9.98926 5.5 9.98926H4.5C4.22402 9.98926 4.00026 9.76518 4 9.48926V8.48926C4 8.21312 4.22386 7.98926 4.5 7.98926H5.5Z" fill="white"/>
<path d="M9.5 7.98926C9.77614 7.98926 10 8.21312 10 8.48926V9.48926C9.99974 9.76518 9.77598 9.98926 9.5 9.98926H8.5C8.22402 9.98926 8.00026 9.76518 8 9.48926V8.48926C8 8.21312 8.22386 7.98926 8.5 7.98926H9.5Z" fill="white"/>
<path d="M7.5 5.98926C7.77614 5.98926 8 6.21312 8 6.48926V7.48926C7.99974 7.76518 7.77598 7.98926 7.5 7.98926H6.5C6.22402 7.98926 6.00026 7.76518 6 7.48926V6.48926C6 6.21312 6.22386 5.98926 6.5 5.98926H7.5Z" fill="white"/>
<path d="M18.1182 3.99219C18.2942 3.99157 18.4127 4.08 18.4727 4.25586L18.7168 5.02734C18.7417 5.08051 18.7809 5.1266 18.8291 5.16016C18.8627 5.20776 18.9081 5.2459 18.9609 5.27051L19.7344 5.50977L19.7354 5.51074C19.9114 5.56853 19.9994 5.68631 20 5.8623C20.0006 6.05415 19.9131 6.17836 19.7373 6.23828L18.9668 6.50586C18.9129 6.51739 18.8651 6.54927 18.834 6.59473C18.7929 6.6351 18.7561 6.67996 18.7236 6.72754L18.4844 7.5C18.4257 7.67727 18.3079 7.76693 18.1318 7.76758C17.9407 7.76827 17.8149 7.67979 17.7549 7.50391L17.4873 6.73242C17.4683 6.68212 17.4379 6.63711 17.3984 6.60059C17.3618 6.56152 17.3168 6.53149 17.2666 6.5127L16.4932 6.25C16.3161 6.19132 16.2274 6.06688 16.2266 5.87598C16.2259 5.69999 16.3136 5.5815 16.4893 5.52148L17.2607 5.27637C17.3084 5.2436 17.3532 5.2065 17.3936 5.16504C17.4386 5.13399 17.4701 5.08676 17.4814 5.0332L17.7432 4.25977C17.8018 4.0825 17.926 3.99289 18.1182 3.99219Z" fill="white"/>
<path d="M9.5 3.98926C9.77614 3.98926 10 4.21312 10 4.48926V5.48926C9.99974 5.76518 9.77598 5.98926 9.5 5.98926H8.5C8.22402 5.98926 8.00026 5.76518 8 5.48926V4.48926C8 4.21312 8.22386 3.98926 8.5 3.98926H9.5Z" fill="white"/>
</svg>
