<svg width="24" height="24" viewBox="0 0 24 24" fill="none" xmlns="http://www.w3.org/2000/svg">
<path d="M2 12.0005C2 6.47738 6.47737 2 12.0005 2C17.5236 2 22.001 5.33118 22.001 10.8543C22.001 11.2703 21.6955 11.6193 21.2826 11.6704C20.9753 11.7085 20.6397 11.731 20.4439 11.6851C20.154 11.6171 19.9148 11.4641 19.7476 11.3571C19.6668 11.3054 19.6028 11.2645 19.558 11.249C18.9784 11.0493 18.5601 11.1678 18.1333 11.2888C17.7327 11.4024 17.3242 11.5182 16.767 11.3756C16.6856 11.3548 16.6056 11.3345 16.5276 11.3148C15.3839 11.0248 14.595 11.3725 13.6968 10.5279C12.4183 9.32551 11.8085 8.67655 12.0622 6.93982C12.2518 5.64167 13.7071 4.26989 14.3501 3.72011C13.6032 3.50861 12.815 3.39542 12.0005 3.39542C9.39812 3.39542 7.06556 4.55063 5.48764 6.37622C5.84903 6.71802 6.36515 7.27526 6.53097 7.80312C6.83411 8.76817 6.4955 9.46132 6.08447 10.3027C5.99845 10.4787 5.90925 10.6613 5.8221 10.8543C5.67486 11.1802 5.47924 11.4093 5.29073 11.6301C4.34767 12.7344 4.25592 16.4473 6.36135 15.2408C6.86062 14.9546 7.37448 14.6602 8.00127 14.7991C8.18074 14.8389 8.35172 14.8712 8.51518 14.902C9.31942 15.0536 9.94527 15.1716 10.5444 15.9953C11.0404 16.6773 11.6156 17.6063 11.6156 18.1479C11.6156 18.2225 11.6176 18.3093 11.6197 18.4061C11.6333 19.0119 11.6556 20.0073 11.2644 20.8298C11.2335 20.8949 11.2022 20.9627 11.1704 21.0314C10.9566 21.4944 10.7226 22.001 10.4506 22.001C4.92745 22.001 2 17.5236 2 12.0005Z" fill="white"/>
<path d="M16.62 13.4087C17.7916 12.2371 19.6911 12.2371 20.8627 13.4087L21.1224 13.6684C22.294 14.84 22.294 16.7395 21.1224 17.911L20.418 18.6154C20.1254 18.9081 19.6509 18.9081 19.3583 18.6154C19.0657 18.3228 19.0657 17.8483 19.3583 17.5557L19.9315 16.9825C20.5173 16.3967 20.5173 15.447 19.9315 14.8612L19.6699 14.5996C19.0841 14.0138 18.1343 14.0138 17.5485 14.5996L16.9754 15.1728C16.6827 15.4654 16.2083 15.4654 15.9156 15.1728C15.623 14.8801 15.623 14.4057 15.9156 14.1131L16.62 13.4087Z" fill="white"/>
<path d="M17.9113 21.1221C16.7397 22.2937 14.8403 22.2937 13.6687 21.1221L13.409 20.8624C12.2374 19.6908 12.2374 17.7914 13.409 16.6198L14.1133 15.9154C14.406 15.6228 14.8804 15.6228 15.173 15.9154C15.4657 16.208 15.4657 16.6825 15.173 16.9751L14.5999 17.5483C14.0141 18.1341 14.0141 19.0838 14.5999 19.6696L14.8615 19.9312C15.4473 20.517 16.397 20.517 16.9828 19.9312L17.556 19.3581C17.8486 19.0654 18.3231 19.0654 18.6157 19.3581C18.9083 19.6507 18.9083 20.1251 18.6157 20.4178L17.9113 21.1221Z" fill="white"/>
<path d="M17.6328 15.8376C17.9257 15.5447 18.4006 15.5447 18.6935 15.8376C18.9864 16.1305 18.9864 16.6054 18.6935 16.8983L16.5721 19.0196C16.2792 19.3125 15.8044 19.3125 15.5115 19.0196C15.2186 18.7267 15.2186 18.2518 15.5115 17.9589L17.6328 15.8376Z" fill="white"/>
</svg>
