<svg width="24" height="24" viewBox="0 0 24 24" fill="none" xmlns="http://www.w3.org/2000/svg">
<path d="M19.9912 3.903C19.9912 3.256 19.7342 2.749 19.2202 2.382C18.7062 2 18.1482 1.904 17.5452 2.095L9.54325 4.652C9.16125 4.784 8.84525 5.019 8.59525 5.357C8.36025 5.681 8.24225 6.047 8.24225 6.459V16.356H6.83125C6.05225 16.356 5.38325 16.635 4.82525 17.193C4.56125 17.451 4.35225 17.76 4.21225 18.101C4.07225 18.442 4.00325 18.809 4.01025 19.178C4.01025 19.957 4.28325 20.626 4.82525 21.184C5.08825 21.447 5.40125 21.655 5.74525 21.795C6.08925 21.935 6.45925 22.004 6.83125 21.999C7.53625 21.999 8.14625 21.779 8.66025 21.338C9.18925 20.883 9.50525 20.324 9.60825 19.663H9.65225V9.083C9.65225 8.877 9.71125 8.694 9.82925 8.532C9.94225 8.359 10.1142 8.234 10.3132 8.179L17.3673 5.931C17.5023 5.879 17.6492 5.864 17.7922 5.887C17.9352 5.91 18.0702 5.971 18.1822 6.063C18.4472 6.254 18.5793 6.504 18.5793 6.813V14.484H17.1682C16.3892 14.484 15.7212 14.763 15.1622 15.321C14.8982 15.579 14.6892 15.887 14.5492 16.229C14.4092 16.571 14.3402 16.937 14.3472 17.306C14.3472 18.085 14.6202 18.754 15.1622 19.312C15.4252 19.575 15.7383 19.783 16.0823 19.923C16.4263 20.063 16.7962 20.132 17.1682 20.127C17.8732 20.127 18.4842 19.907 18.9972 19.466C19.5132 19.034 19.8573 18.432 19.9683 17.768H19.9902L19.9912 3.903Z" fill="white"/>
</svg>
