<svg width="24" height="24" viewBox="0 0 24 24" fill="none" xmlns="http://www.w3.org/2000/svg">
<path d="M14.2889 14.4148H17.4079V17.5338H14.2889V14.4148Z" fill="white"/>
<path d="M17.9952 2.00049C19.1043 2.00049 20.0486 2.39018 20.8289 3.17155C21.6093 3.95193 22 4.89717 22 6.00528V17.9957C22 19.1048 21.6103 20.0491 20.8289 20.8294C20.0486 21.6098 19.1033 22.0005 17.9952 22.0005H6.0048C4.89568 22.0005 3.95144 21.6108 3.17106 20.8294C2.39069 20.0491 2 19.1038 2 17.9957V6.00528C2 4.89617 2.38969 3.95193 3.17106 3.17155C3.95144 2.39118 4.89668 2.00049 6.0048 2.00049H17.9952ZM17.995 3.49929H6.00461C5.63065 3.49929 5.28479 3.57321 4.96668 3.72105L9.50156 8.25593L9.50157 5.78597C9.50157 5.37175 9.83735 5.03597 10.2516 5.03597C10.6658 5.03597 11.0016 5.37175 11.0016 5.78597L11.0016 10.0228C11.0016 10.2409 10.9084 10.4373 10.7598 10.5743C10.6227 10.723 10.4263 10.8161 10.2082 10.8161L5.99186 10.8162C5.57765 10.8162 5.24185 10.4804 5.24185 10.0662C5.24184 9.65201 5.57762 9.31622 5.99183 9.31621L8.44049 9.31617L3.89092 4.7666C3.87576 4.75144 3.86186 4.7354 3.84921 4.71858C3.78432 4.82478 3.72765 4.93615 3.67985 5.05173C3.55491 5.35386 3.49323 5.67839 3.49862 6.00528L3.49961 17.9957C3.49961 18.6831 3.74142 19.2757 4.22603 19.7753C4.27236 19.8202 4.31948 19.8631 4.3674 19.9038L19.8846 4.3866C19.8424 4.33976 19.7981 4.29379 19.7516 4.24869C19.267 3.74909 18.6825 3.49929 17.995 3.49929ZM8.06966 17.5599V20.5017H11.1886V17.5338H8.09586L8.06966 17.5599ZM14.2889 14.4148L11.2154 14.4142L11.1886 14.441V17.5338H14.2889V20.5017H17.4079V17.5338H20.502L20.5017 14.4148H17.4079V11.3145H20.5015L20.5012 8.19551H17.4341L17.4079 8.22169V11.3145L14.3157 11.3139L14.2889 11.3407V14.4148Z" fill="white"/>
</svg>
