<svg width="24" height="24" viewBox="0 0 24 24" fill="none" xmlns="http://www.w3.org/2000/svg">
<path d="M12.3791 11.6069C12.3791 12.2609 12.2681 12.8779 12.0441 13.4559C11.8131 14.0249 11.4891 14.5509 11.0861 15.0139C10.6951 15.4789 10.2191 15.8639 9.6831 16.1509C9.1371 16.4519 8.5411 16.6479 7.9231 16.7309V18.3074H9.4151C9.6241 18.3074 9.7951 18.3814 9.9281 18.5304C10.0761 18.6634 10.1501 18.8344 10.1501 19.0424C10.1511 19.1414 10.1321 19.2404 10.0941 19.3324C10.0561 19.4244 9.9991 19.5074 9.9281 19.5764C9.8611 19.6434 9.7801 19.6954 9.6921 19.7294C9.6041 19.7634 9.5091 19.7804 9.4151 19.7764H7.9231V21.2464C7.9241 21.3454 7.9051 21.4444 7.8671 21.5364C7.8291 21.6284 7.7721 21.7114 7.7011 21.7804C7.6371 21.8534 7.5581 21.9104 7.4691 21.9494C7.3801 21.9884 7.2841 22.0064 7.1881 22.0034C7.0881 22.0044 6.9901 21.9854 6.8981 21.9474C6.8061 21.9094 6.7231 21.8524 6.6541 21.7804C6.5221 21.6344 6.4501 21.4434 6.4541 21.2464V19.7764H4.9621C4.7651 19.7804 4.5731 19.7094 4.4271 19.5764C4.2941 19.4304 4.2221 19.2384 4.2271 19.0414C4.2241 18.9464 4.2391 18.8524 4.2741 18.7644C4.3091 18.6764 4.3601 18.5954 4.4271 18.5284C4.4961 18.4564 4.5791 18.4004 4.6711 18.3614C4.7631 18.3224 4.8621 18.3044 4.9621 18.3054H6.4541V16.7289C5.8371 16.6469 5.2401 16.4499 4.6951 16.1489C4.1551 15.8599 3.6721 15.4749 3.2701 15.0129C2.8791 14.5449 2.5641 14.0189 2.3351 13.4549C2.1101 12.8639 1.9961 12.2369 2.0001 11.6049C2.0001 10.8919 2.1331 10.2169 2.4011 9.57793C2.6741 8.96793 3.0511 8.41093 3.5151 7.92993C3.9901 7.45493 4.5391 7.08393 5.1631 6.81593C5.8051 6.54793 6.4941 6.41193 7.1901 6.41593C7.9031 6.41593 8.5771 6.54893 9.2171 6.81693C9.8281 7.07593 10.3801 7.45493 10.8421 7.93093C11.3171 8.40593 11.6971 8.95493 11.9791 9.57893C12.2461 10.2179 12.3801 10.8929 12.3801 11.6059L12.3791 11.6069ZM7.1881 7.88893C6.1641 7.88893 5.2871 8.25293 4.5601 8.97993C3.8471 9.70793 3.4911 10.5839 3.4911 11.6079C3.4911 12.6319 3.8471 13.5079 4.5601 14.2359C5.2881 14.9489 6.1641 15.3049 7.1881 15.3049C8.2121 15.3049 9.0811 14.9489 9.7941 14.2359C10.5221 13.5079 10.8861 12.6319 10.8861 11.6079C10.8861 10.5839 10.5221 9.70793 9.7941 8.97993C9.0811 8.25293 8.2131 7.88893 7.1881 7.88893Z" fill="white"/>
<path d="M8.23585 9.52528C8.11485 9.39028 7.94885 9.30328 7.76785 9.28028L7.76685 9.28128C7.66085 9.26528 7.55385 9.27428 7.45185 9.30928C7.34985 9.34428 7.25985 9.40328 7.18685 9.48028C7.10885 9.54828 7.04885 9.63528 7.01385 9.73228C6.97885 9.82928 6.96985 9.93428 6.98685 10.0373C7.08785 10.6223 7.28285 11.1863 7.56585 11.7083C7.86185 12.2113 8.23785 12.6633 8.67985 13.0443C8.88785 13.2373 9.10985 13.2743 9.34785 13.1553C9.46785 13.1023 9.57185 13.0193 9.64985 12.9143C9.72785 12.8093 9.77785 12.6853 9.79285 12.5553C9.80785 12.4073 9.78485 12.2643 9.72585 12.1313C9.68085 11.9973 9.60685 11.8863 9.50385 11.7973C9.25085 11.5443 9.03585 11.2703 8.85785 10.9723C8.69485 10.6603 8.57585 10.3343 8.50085 9.99228C8.45685 9.81428 8.36785 9.65828 8.23485 9.52428L8.23585 9.52528Z" fill="white"/>
<path d="M17.9206 2.01974L21.4396 2.90974C21.4846 2.90974 21.5216 2.92474 21.5506 2.95474C21.5886 2.96674 21.6256 2.98174 21.6616 2.99974C21.7546 3.06274 21.8306 3.14674 21.8846 3.24474C21.9456 3.33874 21.9836 3.44474 21.9956 3.55674V3.68974C21.9956 3.71974 21.9876 3.75674 21.9736 3.80174L21.1486 7.34274C21.1306 7.43974 21.0906 7.53274 21.0336 7.61374C20.9766 7.69474 20.9016 7.76174 20.8156 7.81074C20.6496 7.91274 20.4486 7.94474 20.2586 7.89974C20.0696 7.84374 19.9056 7.72574 19.7906 7.56574C19.6866 7.39174 19.6546 7.18374 19.7016 6.98574L20.1246 5.11474L16.3428 7.34174C16.4908 7.72774 16.5878 8.12874 16.6318 8.54474C16.6918 8.95974 16.6918 9.38374 16.6318 9.81474C16.5388 10.6787 16.2158 11.5017 15.6968 12.1977C15.2058 12.8837 14.5558 13.4407 13.8038 13.8227C13.5508 13.9427 13.3208 13.9197 13.1128 13.7557C13.0128 13.6737 12.9368 13.5667 12.8938 13.4447C12.8508 13.3227 12.8418 13.1917 12.8678 13.0657C12.8818 12.9197 12.9358 12.7807 13.0248 12.6647C13.1098 12.5497 13.2158 12.4517 13.3368 12.3747C13.8278 12.1067 14.2478 11.7247 14.5618 11.2607C14.8868 10.7737 15.0928 10.2167 15.1628 9.63574C15.2958 8.61074 15.0438 7.69674 14.4058 6.89474C13.7818 6.07874 12.9578 5.61074 11.9328 5.49174C11.5618 5.44674 11.1858 5.46274 10.8188 5.53674C10.4628 5.59574 10.1288 5.70774 9.8168 5.87074C9.7238 5.91674 9.6268 5.95374 9.5268 5.98174C9.4218 5.99674 9.3188 5.99674 9.2148 5.98174C8.8588 5.93774 8.6288 5.75974 8.5238 5.44774C8.4188 5.13574 8.5238 4.89074 8.8358 4.71274C9.3108 4.43074 9.8238 4.22974 10.3728 4.11174C10.9418 3.97774 11.5308 3.94774 12.1108 4.02274C12.8178 4.10474 13.4998 4.33274 14.1148 4.69074C14.7228 5.04674 15.2288 5.50074 15.6298 6.04974L19.3236 3.86674L17.5416 3.46574C17.4436 3.44074 17.3516 3.39574 17.2716 3.33474C17.1916 3.27374 17.1236 3.19674 17.0736 3.10974C17.0226 3.02674 16.9906 2.93474 16.9796 2.83874C16.9686 2.74274 16.9776 2.64474 17.0076 2.55274C17.0286 2.45874 17.0686 2.37074 17.1266 2.29374C17.1846 2.21674 17.2576 2.15274 17.3416 2.10674C17.5196 2.00274 17.7126 1.97474 17.9206 2.01974Z" fill="white"/>
</svg>
