<svg width="24" height="24" viewBox="0 0 24 24" fill="none" xmlns="http://www.w3.org/2000/svg">
<path d="M8.65905 15.2461C8.88405 15.7591 9.26005 16.3741 9.78905 17.0961C10.3341 17.8011 11.0711 18.1531 12.0001 18.1531C12.9291 18.1531 13.6671 17.792 14.2111 17.071C14.7561 16.35 15.1331 15.7341 15.3411 15.2211C15.4051 15.0931 15.3891 14.9881 15.2931 14.9081C15.1971 14.8121 15.0851 14.7951 14.9571 14.8601C14.5881 15.0041 14.1231 15.1651 13.5621 15.3411C13.0551 15.4951 12.5291 15.5761 12.0001 15.5811C11.4711 15.5811 10.9331 15.5011 10.3901 15.3411C9.93905 15.2091 9.49705 15.0491 9.06705 14.8601C9.01105 14.8351 8.94805 14.8291 8.88705 14.8421C8.82605 14.8551 8.77205 14.8861 8.73005 14.9321C8.63505 15.0131 8.61005 15.1171 8.65805 15.2451V15.2461H8.65905Z" fill="white"/>
<path d="M13.6591 10.3651C13.4891 10.2601 13.3611 10.0991 13.2991 9.90905C13.2501 9.70405 13.2841 9.48805 13.3941 9.30805L13.3951 9.28405L13.4191 9.25905C13.4191 9.24405 13.4271 9.23505 13.4431 9.23505C13.4431 9.21905 13.4511 9.20205 13.4681 9.18705C13.4971 9.15905 13.5211 9.12605 13.5401 9.09105C13.6521 8.93905 13.7901 8.80905 13.9481 8.70605C14.1241 8.56205 14.3491 8.43305 14.6221 8.32105C14.8941 8.20805 15.2151 8.15305 15.5831 8.15305C15.9681 8.15305 16.2961 8.20905 16.5691 8.32105C16.8421 8.43405 17.0661 8.56105 17.2421 8.70605C17.4001 8.80905 17.539 8.93905 17.651 9.09105L17.699 9.18705L17.7471 9.23505V9.25905C17.7621 9.25905 17.7711 9.26705 17.7711 9.28405L17.7951 9.30805C17.9081 9.50105 17.9311 9.70105 17.8671 9.90905C17.8421 10.0061 17.7971 10.0961 17.7351 10.1751C17.6731 10.2541 17.596 10.3181 17.508 10.3661C17.332 10.4621 17.1251 10.4881 16.9311 10.4381C16.8341 10.4131 16.7431 10.3681 16.6641 10.3061C16.5851 10.2441 16.5201 10.1661 16.4731 10.0781H16.449V10.0541C16.428 10.0341 16.4041 10.0181 16.3771 10.0061C16.3581 9.97005 16.3341 9.93805 16.3051 9.91005C16.2151 9.84905 16.1181 9.80105 16.0161 9.76605C15.8781 9.71305 15.7311 9.68805 15.5831 9.69305C15.3331 9.68405 15.0871 9.76005 14.8861 9.90805L14.7911 10.0051C14.7671 10.0291 14.7431 10.0531 14.7191 10.0771C14.6691 10.1681 14.6001 10.2471 14.5171 10.3101C14.4341 10.3731 14.3381 10.4161 14.2371 10.4381C14.0431 10.4861 13.8371 10.4591 13.6611 10.3651H13.6591Z" fill="white"/>
<path d="M7.32705 10.3101C7.41005 10.2481 7.47905 10.1681 7.52905 10.0771C7.54405 10.0771 7.55305 10.0691 7.55305 10.0531L7.69805 9.90805C7.76205 9.86005 7.85005 9.81205 7.96305 9.76405C8.09105 9.71505 8.24305 9.69105 8.41905 9.69205C8.66905 9.68305 8.91505 9.75905 9.11605 9.90705C9.14505 9.93505 9.16905 9.96805 9.18805 10.0031C9.21405 10.0151 9.23905 10.0321 9.26005 10.0511L9.28505 10.0751C9.33205 10.1631 9.39705 10.2411 9.47505 10.3031C9.55305 10.3651 9.64405 10.4101 9.74105 10.4351C9.94305 10.4841 10.1571 10.4581 10.3421 10.3631C10.4251 10.3131 10.4981 10.2471 10.5561 10.1681C10.6141 10.0891 10.6551 10.0011 10.6791 9.90605C10.7431 9.69805 10.7191 9.49805 10.6071 9.30505V9.28105L10.5821 9.25605C10.5821 9.24105 10.5741 9.23205 10.5581 9.23205C10.5581 9.21605 10.5421 9.19905 10.5101 9.18405L10.4621 9.08805C10.3501 8.93605 10.2121 8.80605 10.0541 8.70305C9.87805 8.55805 9.65305 8.43105 9.38005 8.31805C9.10805 8.20605 8.78705 8.15005 8.41805 8.15005C8.03405 8.15005 7.70605 8.20505 7.43305 8.31805C7.16005 8.43105 6.93705 8.55905 6.75905 8.70305C6.60105 8.80605 6.46305 8.93605 6.35105 9.08805L6.30305 9.18405L6.23105 9.25605V9.28105L6.20705 9.30505C6.09705 9.48505 6.06205 9.70105 6.11105 9.90605C6.17705 10.1011 6.31405 10.2651 6.49605 10.3631C6.66405 10.4581 6.86205 10.4831 7.04805 10.4351C7.14905 10.4131 7.24505 10.3691 7.32805 10.3071L7.32705 10.3101Z" fill="white"/>
<path d="M8.10605 2.79305C9.33505 2.26205 10.6611 1.99205 12.0001 2.00005C13.3391 1.99205 14.6641 2.26305 15.8931 2.79405C17.0831 3.28805 18.1621 4.01505 19.0661 4.93305C19.9841 5.83705 20.7121 6.91505 21.2061 8.10505C21.7371 9.33405 22.0071 10.6601 21.9991 11.9991C22.0071 13.3381 21.7371 14.6641 21.2061 15.8931C20.7081 17.0881 19.9811 18.1741 19.0671 19.0901C18.1571 19.9961 17.0791 20.7141 15.8941 21.2061C14.6651 21.7371 13.3391 22.0071 12.0001 21.9991C10.6611 22.0071 9.33505 21.7371 8.10605 21.2061C6.91505 20.7111 5.83005 19.9931 4.90905 19.0901C4.00605 18.1691 3.28805 17.0841 2.79305 15.8931C2.26505 14.6761 2.00005 13.3771 2.00005 11.9991C1.99205 10.6601 2.26205 9.33505 2.79305 8.10605C3.28405 6.92005 4.00305 5.84205 4.90905 4.93305C5.82505 4.01805 6.91105 3.29005 8.10605 2.79305ZM4.21105 8.70805C3.76305 9.73405 3.53805 10.8311 3.53805 12.0001C3.53805 13.1701 3.76405 14.2681 4.21205 15.2931C4.63205 16.2991 5.24405 17.2141 6.01505 17.9851C6.78605 18.7561 7.70205 19.3681 8.70805 19.7881C9.73405 20.2361 10.8311 20.4611 12.0001 20.4611C13.1701 20.4611 14.2681 20.2361 15.2931 19.7881C16.2991 19.3681 17.2141 18.7561 17.9851 17.9851C18.7561 17.2141 19.3681 16.2981 19.7881 15.2921C20.2361 14.2661 20.4611 13.1691 20.4611 12.0001C20.4611 10.8301 20.2361 9.73205 19.7881 8.70705C19.3681 7.70105 18.7561 6.78605 17.9851 6.01505C17.2131 5.24405 16.2981 4.63205 15.2921 4.21205C14.2661 3.76405 13.1691 3.53905 12.0001 3.53905C10.8301 3.53905 9.73205 3.76405 8.70705 4.21205C7.70005 4.63205 6.78505 5.24405 6.01405 6.01505C5.24305 6.78605 4.63105 7.70205 4.21105 8.70805Z" fill="white"/>
</svg>
