<svg width="24" height="24" viewBox="0 0 24 24" fill="none" xmlns="http://www.w3.org/2000/svg">
<path d="M7.38039 4.32221C7.89939 3.61621 8.57339 3.03821 9.35039 2.63321C10.1684 2.21021 11.0784 1.99221 11.9994 2.00021C12.7964 2.00021 13.5404 2.15621 14.2274 2.46921C14.9104 2.75321 15.5314 3.16721 16.0564 3.68821C16.5904 4.20721 17.0124 4.82921 17.2984 5.51721C17.5954 6.22021 17.7434 6.97121 17.7434 7.76821V9.36321C18.4004 9.64421 18.9564 10.1182 19.3384 10.7232C19.7604 11.3332 19.9714 12.0202 19.9714 12.7862V16.2572C19.9714 17.0372 19.8224 17.7812 19.5254 18.4842C19.2284 19.1652 18.8064 19.7852 18.2834 20.3132C17.7554 20.8372 17.1354 21.2582 16.4544 21.5552C15.7494 21.8522 14.9924 22.0032 14.2274 22.0002H9.77139C9.00639 22.0032 8.24939 21.8522 7.54439 21.5552C6.86339 21.2582 6.24339 20.8362 5.71539 20.3132C5.19139 19.7852 4.77039 19.1652 4.47339 18.4842C4.17539 17.7792 4.02439 17.0212 4.02739 16.2562V12.7862C4.02739 11.7402 4.39439 10.8552 5.12939 10.1372C5.86339 9.40321 6.74739 9.03521 7.77839 9.03521H16.2424V7.77021C16.2424 6.59821 15.8284 5.59721 15.0004 4.76921C14.1724 3.92521 13.1714 3.50321 11.9994 3.50321C11.2964 3.50321 10.6464 3.65921 10.0534 3.97221C9.47039 4.27521 8.96439 4.70921 8.57539 5.23821C8.45339 5.39221 8.27739 5.49221 8.08339 5.51821C7.98839 5.53521 7.89139 5.53221 7.79739 5.50721C7.70339 5.48221 7.61739 5.43921 7.54239 5.37821C7.46039 5.32121 7.39139 5.24821 7.33939 5.16421C7.28739 5.08021 7.25239 4.98521 7.23839 4.88621C7.22239 4.78821 7.22639 4.68721 7.25039 4.59021C7.27439 4.49321 7.31839 4.40221 7.37839 4.32321L7.37939 4.32421L7.38039 4.32221ZM7.77839 10.5342C7.48239 10.5292 7.18739 10.5852 6.91339 10.6982C6.63939 10.8112 6.39139 10.9792 6.18439 11.1922C5.97139 11.3992 5.80339 11.6472 5.69039 11.9212C5.57739 12.1952 5.52139 12.4892 5.52639 12.7862V16.2572C5.52639 17.4282 5.94039 18.4292 6.76839 19.2582C7.59739 20.0852 8.59839 20.4992 9.76939 20.4992H14.2254C15.3964 20.4992 16.3974 20.0852 17.2264 19.2572C18.0554 18.4292 18.4684 17.4282 18.4684 16.2562V12.7862C18.4734 12.4902 18.4174 12.1952 18.3044 11.9212C18.1914 11.6472 18.0234 11.3992 17.8104 11.1922C17.6034 10.9792 17.3554 10.8112 17.0814 10.6982C16.8074 10.5852 16.5134 10.5292 16.2164 10.5342H7.77539H7.77839Z" fill="white"/>
<path d="M12.6936 12.7237C12.7336 12.8167 12.7536 12.9177 12.7506 13.0197V18.0137C12.7506 18.1147 12.7296 18.2147 12.6896 18.3077C12.6496 18.4007 12.5906 18.4847 12.5166 18.5537C12.3756 18.6937 12.2036 18.7637 12.0006 18.7637C11.7976 18.7637 11.6176 18.6937 11.4606 18.5537C11.3206 18.3967 11.2506 18.2167 11.2506 18.0137V13.0197C11.2466 12.9197 11.2636 12.8207 11.2996 12.7277C11.3356 12.6347 11.3906 12.5507 11.4606 12.4797C11.6076 12.3427 11.8006 12.2677 12.0006 12.2697C12.0966 12.2677 12.1916 12.2847 12.2806 12.3207C12.3696 12.3567 12.4496 12.4107 12.5166 12.4797C12.5926 12.5467 12.6536 12.6307 12.6936 12.7237Z" fill="white"/>
</svg>
