<svg width="24" height="24" viewBox="0 0 24 24" fill="none" xmlns="http://www.w3.org/2000/svg">
<path d="M5.65678 7.07871C5.64259 7.17878 5.63574 7.28173 5.63574 7.38905V8.11705C5.63574 8.66305 5.83174 9.13305 6.22174 9.52305C6.45187 9.75377 6.71236 9.91623 7.00293 10.0106C7.06729 10.0314 7.13307 10.0492 7.20031 10.0634C7.31771 10.0881 7.43955 10.1029 7.56598 10.1075C7.5944 10.1085 7.62305 10.109 7.65193 10.109H9.65993L9.65953 16.61C9.65799 16.677 9.66023 16.7438 9.66599 16.8104C9.68251 17.0078 9.72897 17.202 9.80453 17.386C9.90553 17.632 10.0555 17.854 10.2455 18.04C10.4265 18.229 10.6455 18.379 10.8875 18.479C11.1295 18.579 11.3895 18.63 11.6515 18.626H12.3705C12.9165 18.626 13.3865 18.43 13.7765 18.04C13.875 17.9417 13.9611 17.838 14.0348 17.7287C14.1837 17.5081 14.2817 17.2652 14.3292 17C14.3522 16.875 14.3639 16.745 14.3639 16.609V10.109H16.3559C16.3848 10.109 16.4133 10.1085 16.4417 10.1075C16.5856 10.1022 16.7235 10.0838 16.8557 10.0521C16.906 10.0401 16.9554 10.0262 17.0039 10.0104C17.2182 9.94051 17.4171 9.83339 17.5985 9.68995C17.6634 9.63869 17.7262 9.58272 17.7868 9.52205L17.8008 9.50805C18.1825 9.12086 18.3719 8.65648 18.3719 8.11605V7.38905C18.3719 7.37168 18.3717 7.35439 18.3713 7.33719C18.3691 7.23348 18.3601 7.13274 18.3443 7.03498C18.2789 6.63005 18.0974 6.27628 17.8008 5.97413V5.97305H17.7998L17.7859 5.95905C17.3959 5.56905 16.9189 5.37305 16.3559 5.37305H7.65174C7.08874 5.37305 6.61174 5.56905 6.22174 5.95905C5.92547 6.25532 5.74116 6.6018 5.66968 6.99805C5.66492 7.02445 5.66053 7.05187 5.65678 7.07871ZM10.6069 7.001H10.6049L10.7328 6.87305H11.9338L10.1988 8.60805H8.99988L10.6069 7.001ZM13.5049 7.001H13.5039L13.5049 7L13.6308 6.87405H14.5978L11.4728 9.99905H11.4739L11.1599 10.313L11.1608 9.99905V9.3451L13.5049 7.001ZM12.7229 16.983L12.7069 16.999L12.706 17C12.6156 17.0832 12.5033 17.124 12.3715 17.124H11.6525C11.5665 17.124 11.4895 17.107 11.4205 17.072L11.4929 17L12.8635 15.63V16.609C12.864 16.6767 12.8522 16.7435 12.8292 16.8062C12.8053 16.8707 12.7695 16.9309 12.7229 16.983ZM16.8709 8.118C16.8719 8.18477 16.858 8.25153 16.8302 8.31236C16.8022 8.37256 16.7603 8.4265 16.7078 8.46805C16.6138 8.56105 16.4958 8.60805 16.3558 8.60805H14.5619L16.1689 7.001H16.1679L16.1699 6.99905L16.2948 6.87305H16.3558C16.4228 6.87205 16.4898 6.88605 16.5508 6.91405C16.5968 6.93516 16.6389 6.96424 16.6748 7H16.6719C16.6839 7.012 16.6959 7.025 16.7069 7.039C16.7589 7.081 16.8009 7.135 16.8299 7.196C16.8589 7.257 16.8729 7.324 16.8709 7.391V8.118ZM11.1609 12.009L12.8639 10.306V11.171L12.0049 12.029L11.1609 12.874V12.009ZM9.03674 6.87305L8.91065 6.99905H8.90874L7.37246 8.53533C7.33894 8.51647 7.30736 8.49372 7.27774 8.46805C7.18374 8.37405 7.13774 8.25605 7.13774 8.11605V7.38905C7.13674 7.32305 7.14774 7.25805 7.17174 7.19805C7.19667 7.13806 7.23157 7.08337 7.27693 7.039C7.28948 7.02549 7.30203 7.01384 7.31547 7.00135L7.31693 7H7.31587C7.35568 6.96528 7.40081 6.93702 7.44874 6.91605C7.51274 6.88805 7.58274 6.87305 7.65274 6.87305H9.03674ZM11.7315 14L12.0049 13.726L12.8639 12.867V13.932L11.1609 15.635V14.5706L11.7315 14Z" fill="white"/>
<path d="M2.00391 6C2.00391 3.791 3.79491 2 6.00391 2H18.0039C20.2129 2 22.0039 3.791 22.0039 6V18C22.0039 20.209 20.2129 22 18.0039 22H6.00391C3.79491 22 2.00391 20.209 2.00391 18V6ZM17.5039 20.5C19.1609 20.5 20.5039 19.157 20.5039 17.5V6.5C20.5039 4.89812 19.2487 3.5897 17.6681 3.50442C17.6313 3.50246 17.5943 3.50112 17.557 3.50047C17.5393 3.50016 17.5216 3.5 17.5038 3.5H6.50391C4.84691 3.5 3.50391 4.843 3.50391 6.5V17.5C3.50391 19.157 4.84691 20.5 6.50391 20.5H17.5039Z" fill="white"/>
</svg>
