<svg width="24" height="24" viewBox="0 0 24 24" fill="none" xmlns="http://www.w3.org/2000/svg">
<path fill-rule="evenodd" clip-rule="evenodd" d="M10.3517 3.49115C6.40613 3.49115 3.20762 6.68966 3.20762 10.6352C3.20762 11.4324 3.33846 12.2005 3.58043 12.9183C3.623 13.0446 3.64807 13.1194 3.66438 13.1746L3.66994 13.194L3.66675 13.2006C3.64739 13.2406 3.61863 13.2942 3.56488 13.3936L2.32229 15.6936C2.24525 15.8361 2.16495 15.9847 2.10972 16.1139C2.05483 16.2423 1.96607 16.4775 2.00974 16.7563C2.06096 17.0832 2.25337 17.3711 2.53586 17.5434C2.77678 17.6903 3.02808 17.6983 3.16771 17.6966C3.30817 17.695 3.47613 17.6776 3.63727 17.6609L7.51504 17.26C7.57714 17.2536 7.60964 17.2503 7.63346 17.2485L7.637 17.2482L7.64676 17.2517C7.67601 17.2622 7.71568 17.2774 7.78408 17.3038C8.49077 17.576 9.25105 17.7391 10.0435 17.7728C11.1037 19.4194 12.953 20.5098 15.057 20.5098C15.8104 20.5098 16.5329 20.3696 17.1985 20.1132C17.2393 20.0975 17.2666 20.087 17.2869 20.0794L17.2942 20.0801L17.3534 20.0861L20.5144 20.4129C20.6433 20.4263 20.7863 20.4411 20.9073 20.4425C21.0274 20.4439 21.2652 20.4382 21.4961 20.2973C21.7611 20.1357 21.9415 19.8657 21.9896 19.559C22.0314 19.2918 21.9458 19.0699 21.8986 18.9595C21.851 18.8482 21.7827 18.7218 21.7211 18.6078L20.7078 16.7322C20.6867 16.6932 20.6703 16.6628 20.6563 16.6364L20.649 16.6226C20.6613 16.584 20.6787 16.5323 20.7045 16.4555C20.9064 15.8566 21.0155 15.216 21.0155 14.5513C21.0155 12.0601 19.4867 9.92602 17.3161 9.036C16.5899 5.86038 13.7475 3.49115 10.3517 3.49115ZM17.4935 10.8169C17.4097 14.1752 15.0084 16.9581 11.8287 17.6264C12.6407 18.4787 13.7868 19.0098 15.057 19.0098C15.6232 19.0098 16.163 18.9047 16.6593 18.7135L16.6834 18.7042C16.7608 18.6741 16.8649 18.6338 16.962 18.6114C17.0494 18.5912 17.1263 18.581 17.216 18.5776C17.3152 18.5738 17.4157 18.5844 17.487 18.5919L17.5076 18.5941L20.1567 18.8679L19.388 17.4452L19.3699 17.4119C19.3081 17.2984 19.2214 17.1395 19.1786 16.971C19.1398 16.8188 19.1283 16.684 19.1407 16.5274C19.1545 16.3535 19.2192 16.1639 19.2678 16.0215L19.2831 15.9764C19.4336 15.5299 19.5155 15.051 19.5155 14.5513C19.5155 12.9881 18.711 11.6129 17.4935 10.8169ZM4.70762 10.6352C4.70762 7.51809 7.23456 4.99115 10.3517 4.99115C13.4688 4.99115 15.9958 7.51809 15.9958 10.6352C15.9958 13.7524 13.4688 16.2793 10.3517 16.2793C9.63534 16.2793 8.95183 16.1462 8.32333 15.9041L8.29395 15.8927C8.19645 15.855 8.08106 15.8103 7.97471 15.7858C7.87782 15.7635 7.79411 15.7523 7.69474 15.7485C7.58604 15.7444 7.47527 15.756 7.38572 15.7654L7.36081 15.768L3.78746 16.1374L4.8846 14.1066L4.90656 14.0662C4.98411 13.9236 5.07955 13.7481 5.12651 13.5636C5.16946 13.3949 5.18197 13.2482 5.16824 13.0746C5.15317 12.8842 5.08157 12.6737 5.02051 12.4942L5.00186 12.4392C4.81125 11.8737 4.70762 11.2673 4.70762 10.6352Z" fill="white"/>
</svg>
