<svg width="24" height="24" viewBox="0 0 24 24" fill="none" xmlns="http://www.w3.org/2000/svg">
<path d="M20.616 6.91517C20.616 6.53217 20.926 6.22217 21.309 6.22217C21.692 6.22217 22.002 6.53217 22.002 6.91517V17.0842C22.002 17.4672 21.692 17.7772 21.309 17.7772C20.926 17.7772 20.616 17.4672 20.616 17.0842V6.91517Z" fill="white"/>
<path d="M17.843 8.74617C17.843 8.36317 18.153 8.05317 18.536 8.05317C18.919 8.05317 19.229 8.36317 19.229 8.74617V15.2172C19.229 15.6002 18.919 15.9102 18.536 15.9102C18.153 15.9102 17.843 15.6002 17.843 15.2172V8.74617Z" fill="white"/>
<path d="M15.07 10.1122C15.07 9.72917 15.38 9.41917 15.763 9.41917C16.146 9.41917 16.456 9.72917 16.456 10.1122V14.2722C16.456 14.6552 16.146 14.9652 15.763 14.9652C15.38 14.9652 15.07 14.6552 15.07 14.2722V10.1122Z" fill="white"/>
<path d="M7.8071 6.40513L10.4941 4.17513C11.1871 3.59713 11.9451 3.50313 12.7681 3.89213C13.6071 4.26713 14.0251 4.91113 14.0251 5.82113V18.1701C14.0251 19.0811 13.6061 19.7311 12.7681 20.1211C11.9451 20.4961 11.1871 20.3961 10.4941 19.8181L7.8071 17.5861C7.7251 17.5161 7.6291 17.4651 7.5261 17.4341C7.4241 17.3911 7.3241 17.3691 7.2231 17.3691H6.3121C5.7401 17.3731 5.1731 17.2621 4.6441 17.0441C4.1241 16.8131 3.6691 16.5021 3.2791 16.1121C2.8891 15.7221 2.5781 15.2671 2.3471 14.7471C2.1161 14.2271 2.0001 13.6701 2.0001 13.0781V10.9111C1.9961 10.3361 2.1141 9.76813 2.3471 9.24213C2.5711 8.73313 2.8861 8.27113 3.2791 7.87713C3.6731 7.48513 4.1361 7.16913 4.6441 6.94513C5.1641 6.72913 5.7201 6.62013 6.3121 6.62013H7.2231C7.3261 6.62013 7.4281 6.60613 7.5261 6.57713C7.6271 6.53313 7.7211 6.47513 7.8071 6.40313V6.40513ZM11.3821 5.23513L8.6951 7.46913L8.4791 7.64313C8.4071 7.68613 8.3271 7.72913 8.2401 7.77213V16.2221C8.3251 16.2641 8.4051 16.3151 8.4791 16.3741C8.5541 16.4191 8.6271 16.4701 8.6951 16.5251L11.3821 18.7581C11.4891 18.8551 11.6231 18.9171 11.7661 18.9371C11.9091 18.9571 12.0551 18.9321 12.1831 18.8671C12.4861 18.7221 12.6381 18.4911 12.6381 18.1741V5.82313C12.6381 5.50613 12.4861 5.28113 12.1831 5.15213C11.8941 5.00713 11.6261 5.03613 11.3811 5.23813L11.3821 5.23513ZM6.8531 15.9831V8.00813H6.3111C5.9231 8.00313 5.5391 8.07713 5.1811 8.22613C4.8231 8.37513 4.5001 8.59613 4.2311 8.87513C3.6681 9.43813 3.3861 10.1171 3.3861 10.9121V13.0791C3.3861 13.8731 3.6671 14.5591 4.2311 15.1371C4.5031 15.4101 4.8281 15.6261 5.1851 15.7721C5.5421 15.9181 5.9251 15.9891 6.3111 15.9831H6.8531Z" fill="white"/>
</svg>
