<svg width="24" height="24" viewBox="0 0 24 24" fill="none" xmlns="http://www.w3.org/2000/svg">
<path d="M12.1789 2.00002C12.0589 1.99802 11.9389 2.02102 11.8279 2.06702C11.7169 2.11302 11.6159 2.18102 11.5319 2.26802C11.4509 2.35002 11.3869 2.44802 11.3449 2.55502C11.3029 2.66202 11.2829 2.77702 11.2869 2.89302V16.286H9.85786C9.06886 16.286 8.39086 16.569 7.82686 17.134C7.55886 17.395 7.34786 17.708 7.20586 18.053C7.06386 18.398 6.99386 18.77 7.00086 19.143C7.00086 19.932 7.27686 20.61 7.82686 21.174C8.09286 21.441 8.40986 21.651 8.75886 21.793C9.10786 21.935 9.48186 22.005 9.85886 21.999C10.6479 21.999 11.3169 21.723 11.8679 21.173C12.4329 20.607 12.7159 19.93 12.7159 19.142V8.60602C12.7159 8.41302 12.7979 8.27202 12.9619 8.18202C13.1399 8.09202 13.3049 8.10002 13.4519 8.20502L16.9569 10.526C17.2689 10.75 17.5889 10.772 17.9169 10.593C18.2599 10.415 18.4299 10.132 18.4299 9.74502V6.33002C18.4319 6.17402 18.3939 6.02002 18.3189 5.88302C18.2479 5.73802 18.1409 5.61502 18.0069 5.52602L13.1629 2.29002C13.0169 2.20202 12.8589 2.13402 12.6939 2.08902C12.5289 2.02902 12.3559 1.99902 12.1809 1.99902L12.1789 2.00002Z" fill="white"/>
<path d="M21.2289 13.627C21.2679 13.712 21.2869 13.804 21.2859 13.897V15.816C21.2859 15.912 21.2659 16.008 21.2279 16.096C21.1899 16.184 21.1339 16.264 21.0629 16.33C20.9289 16.463 20.7649 16.53 20.5719 16.53C20.3789 16.53 20.2069 16.463 20.0579 16.33C19.9249 16.181 19.8579 16.01 19.8579 15.817V13.897C19.8559 13.806 19.8729 13.715 19.9069 13.631C19.9409 13.547 19.9929 13.47 20.0579 13.406C20.1239 13.336 20.2039 13.279 20.2919 13.241C20.3799 13.203 20.4759 13.183 20.5719 13.182C20.6649 13.181 20.7579 13.2 20.8429 13.239C20.9279 13.278 21.0029 13.335 21.0639 13.406C21.1349 13.466 21.1899 13.542 21.2289 13.627Z" fill="white"/>
<path d="M18.4289 13.897C18.4299 13.804 18.4109 13.712 18.3719 13.627C18.3329 13.542 18.2769 13.467 18.2059 13.407C18.1459 13.336 18.0699 13.279 17.9849 13.24C17.8999 13.201 17.8079 13.182 17.7139 13.183C17.6179 13.183 17.5219 13.203 17.4339 13.242C17.3459 13.281 17.2659 13.337 17.1999 13.407C17.1349 13.471 17.0839 13.547 17.0489 13.632C17.0139 13.717 16.9979 13.807 16.9999 13.898V17.715C16.9999 17.908 17.0669 18.08 17.1999 18.229C17.3499 18.362 17.5209 18.429 17.7139 18.429C17.9069 18.429 18.0709 18.362 18.2049 18.229C18.2749 18.163 18.3309 18.083 18.3699 17.995C18.4089 17.907 18.4279 17.811 18.4279 17.715V13.898L18.4289 13.897Z" fill="white"/>
<path d="M15.3479 11.509C15.2139 11.36 15.0499 11.286 14.8569 11.286C14.7609 11.286 14.6649 11.306 14.5769 11.344C14.4889 11.382 14.4089 11.438 14.3429 11.509C14.2099 11.643 14.1429 11.807 14.1429 12V18.673C14.1409 18.864 14.2129 19.048 14.3429 19.187C14.4829 19.317 14.6669 19.389 14.8569 19.387C14.9479 19.389 15.0389 19.372 15.1229 19.338C15.2069 19.304 15.2839 19.252 15.3479 19.187C15.4179 19.121 15.4739 19.042 15.5119 18.953C15.5499 18.864 15.5699 18.77 15.5699 18.673V11.999C15.5699 11.806 15.4959 11.642 15.3469 11.508L15.3479 11.509Z" fill="white"/>
<path d="M9.14286 7.46902C9.33586 7.46902 9.49986 7.54302 9.63386 7.69302C9.78286 7.82602 9.85686 7.99002 9.85686 8.18302V13.897C9.85986 13.994 9.84086 14.09 9.80286 14.179C9.76486 14.268 9.70686 14.347 9.63386 14.411C9.56986 14.476 9.49386 14.527 9.40886 14.562C9.32386 14.597 9.23386 14.613 9.14286 14.611C8.95186 14.613 8.76786 14.541 8.62886 14.411C8.56186 14.343 8.50986 14.263 8.47586 14.175C8.44186 14.087 8.42586 13.992 8.42886 13.897V8.18302C8.42886 7.99002 8.49586 7.82602 8.62886 7.69302C8.69486 7.62202 8.77486 7.56602 8.86286 7.52802C8.95086 7.49002 9.04686 7.47002 9.14286 7.46902Z" fill="white"/>
<path d="M6.77686 6.73102C6.64286 6.59802 6.47886 6.53102 6.28586 6.53102C6.09486 6.52902 5.91086 6.60102 5.77186 6.73102C5.70486 6.79902 5.65286 6.87902 5.61886 6.96702C5.58486 7.05502 5.56886 7.15002 5.57186 7.24502V14.856C5.56986 15.047 5.64186 15.231 5.77186 15.37C5.91086 15.5 6.09586 15.572 6.28586 15.57C6.37686 15.572 6.46786 15.555 6.55186 15.521C6.63586 15.487 6.71286 15.435 6.77686 15.37C6.84686 15.304 6.90286 15.224 6.94186 15.136C6.98086 15.048 6.99986 14.952 6.99986 14.856V7.24502C6.99986 7.03602 6.92586 6.86502 6.77686 6.73102Z" fill="white"/>
<path d="M3.42886 8.42902C3.62186 8.42902 3.78586 8.50302 3.91986 8.65202C4.06886 8.78602 4.14286 8.95002 4.14286 9.14302V12.96C4.14286 13.056 4.12286 13.151 4.08486 13.24C4.04686 13.329 3.99086 13.408 3.92086 13.474C3.85686 13.539 3.78086 13.59 3.69586 13.625C3.61086 13.66 3.52086 13.676 3.42986 13.674C3.23886 13.676 3.05486 13.604 2.91586 13.474C2.78586 13.334 2.71386 13.15 2.71586 12.96V9.14402C2.71586 8.95102 2.78286 8.78702 2.91586 8.65302C2.98186 8.58302 3.06186 8.52702 3.14986 8.48802C3.23786 8.44902 3.33386 8.43002 3.42986 8.43002L3.42886 8.42902Z" fill="white"/>
</svg>
