<svg width="24" height="24" viewBox="0 0 24 24" fill="none" xmlns="http://www.w3.org/2000/svg">
<path d="M17.0526 7.07705C17.0526 6.36505 16.9256 5.70805 16.6726 5.10705C16.4136 4.50605 16.0446 3.95905 15.5826 3.49605C15.1186 3.03405 14.5706 2.66305 13.9686 2.40505C13.3476 2.13505 12.6766 1.99705 11.9986 2.00005C11.3026 2.00005 10.6466 2.13505 10.0296 2.40405C9.41258 2.67305 8.87558 3.03705 8.41658 3.49505C7.95458 3.95905 7.58358 4.50705 7.32558 5.10905C7.06758 5.73305 6.93858 6.40305 6.94558 7.07805C6.94558 7.77305 7.07258 8.43005 7.32558 9.04705C7.59358 9.66405 7.95858 10.201 8.41658 10.66C8.87558 11.102 9.41258 11.459 10.0296 11.728C10.6476 11.996 11.3026 12.131 11.9986 12.131C12.6946 12.131 13.3506 11.996 13.9676 11.728C14.5656 11.472 15.1116 11.11 15.5816 10.66C16.0436 10.196 16.4146 9.64805 16.6726 9.04705C16.9256 8.43005 17.0526 7.77305 17.0526 7.07705ZM15.5346 7.07705C15.5346 8.05805 15.1866 8.89605 14.4906 9.59105C13.8106 10.271 12.9806 10.611 11.9996 10.611C11.5336 10.619 11.0706 10.532 10.6386 10.357C10.2066 10.182 9.81458 9.92105 9.48558 9.59105C9.15558 9.26205 8.89458 8.87005 8.71958 8.43805C8.54458 8.00605 8.45758 7.54305 8.46558 7.07705C8.46558 6.09605 8.80558 5.25805 9.48558 4.56205C9.81158 4.22605 10.2026 3.96005 10.6346 3.78005C11.0666 3.60005 11.5316 3.51205 11.9996 3.51905C12.9806 3.51905 13.8116 3.86605 14.4896 4.56205C14.8266 4.88805 15.0926 5.27905 15.2726 5.71105C15.4526 6.14305 15.5416 6.60805 15.5346 7.07705Z" fill="white"/>
<path d="M4.90639 19.2242C4.74839 19.8402 4.66939 20.5132 4.66939 21.2402C4.66939 21.3432 4.64839 21.4442 4.60739 21.5382C4.56639 21.6322 4.50639 21.7172 4.43139 21.7872C4.28939 21.9292 4.11539 22.0002 3.91039 22.0002C3.68839 22.0002 3.50639 21.9292 3.36339 21.7872C3.22139 21.6282 3.15039 21.4462 3.15039 21.2402C3.15439 20.4172 3.24939 19.5982 3.43439 18.7972C3.64039 17.9592 4.08339 17.2002 4.76339 16.5202C5.42739 15.8562 6.34439 15.3422 7.51439 14.9782C8.68539 14.5982 10.1794 14.4082 11.9984 14.4082C13.8174 14.4082 15.3114 14.5972 16.4824 14.9782C17.6524 15.3412 18.5694 15.8562 19.2334 16.5202C19.9134 17.2002 20.3484 17.9592 20.5384 18.7972C20.7444 19.6352 20.8474 20.4502 20.8474 21.2402C20.8494 21.4432 20.7724 21.6392 20.6334 21.7872C20.5614 21.8582 20.4764 21.9132 20.3834 21.9492C20.2904 21.9852 20.1894 22.0032 20.0894 21.9992C19.8834 21.9992 19.7004 21.9282 19.5424 21.7862C19.3994 21.6272 19.3284 21.4452 19.3284 21.2392C19.3284 20.5112 19.2494 19.8402 19.0914 19.2232C18.9334 18.6062 18.6244 18.0682 18.1664 17.6092C17.7074 17.1342 16.9964 16.7392 16.0304 16.4232C15.0654 16.0912 13.7214 15.9252 11.9974 15.9252C10.2734 15.9252 8.92939 16.0912 7.96439 16.4232C6.99939 16.7392 6.28739 17.1352 5.82839 17.6092C5.36939 18.0692 5.06139 18.6052 4.90339 19.2232L4.90639 19.2242Z" fill="white"/>
</svg>
