<svg width="24" height="24" viewBox="0 0 24 24" fill="none" xmlns="http://www.w3.org/2000/svg">
<path d="M10.5312 2.00386C10.7501 1.96303 10.866 2.24655 10.6982 2.39155C10.6717 2.41437 10.6453 2.43777 10.6191 2.46089L10.6172 2.46284C10.5127 2.55496 10.4103 2.64935 10.3105 2.74604L10.3095 2.748C10.1402 2.91227 9.97754 3.08305 9.82223 3.25972C9.63876 3.46845 9.4646 3.68561 9.30173 3.91011C7.84898 5.9126 7.237 8.50955 7.83493 11.1103C8.92209 15.8372 13.7935 18.8426 18.4687 17.7685C18.5667 17.7461 18.6643 17.7227 18.7607 17.6972C19.0322 17.6254 19.2978 17.5415 19.5566 17.4462C19.9129 17.3151 20.2575 17.1624 20.5879 16.9902L20.5888 16.9892C20.6198 16.9731 20.6509 16.9569 20.6816 16.9404C20.8758 16.8365 21.0961 17.0428 20.9863 17.2304L20.9834 17.2343L20.9795 17.2392C20.9551 17.2784 20.9302 17.3176 20.9052 17.3564C20.6995 17.6772 20.4752 17.9872 20.2343 18.2832C20.186 18.3426 20.1366 18.4016 20.0869 18.4599C19.9209 18.6546 19.7471 18.8433 19.5664 19.0253C18.2698 20.3311 16.6007 21.2983 14.6748 21.7412C9.24677 22.9892 3.83488 19.5988 2.58688 14.1708C1.48372 9.37257 4.00361 4.58655 8.35348 2.67866C8.65506 2.5464 8.96559 2.42782 9.28415 2.32417C9.56836 2.2317 9.85938 2.1512 10.1562 2.08296C10.2334 2.06506 10.3115 2.04803 10.3886 2.03218C10.4359 2.02248 10.484 2.01292 10.5312 2.00386ZM6.65426 5.80073C6.68753 5.70227 6.5694 5.62172 6.49411 5.69331C4.37394 7.71579 3.34473 10.7726 4.0488 13.8349C5.1113 18.4558 9.71856 21.3415 14.3388 20.2792C14.9537 20.1378 15.5379 19.934 16.0859 19.6757C16.1797 19.6313 16.1474 19.492 16.0439 19.4873C11.4917 19.2974 7.44351 16.1012 6.37301 11.4462C5.92597 9.50179 6.05761 7.55981 6.65426 5.80073Z" fill="white"/>
<path d="M18.8037 6.53022C19.0711 6.53038 19.2529 6.66501 19.3427 6.93257L19.7441 8.05464C19.7706 8.1386 19.8165 8.21519 19.8779 8.27827C19.9303 8.36223 20.01 8.42564 20.1035 8.45796L21.2695 8.81538C21.5372 8.90526 21.6718 9.08388 21.6718 9.35542C21.6717 9.65352 21.5371 9.84663 21.2695 9.93647L20.1035 10.2958C20.0195 10.3223 19.9429 10.3681 19.8799 10.4296C19.8236 10.5125 19.7786 10.6025 19.7461 10.6972L19.3427 11.8203C19.2529 12.0877 19.073 12.2215 18.8037 12.2216C18.5055 12.2216 18.3096 12.0878 18.2216 11.8203L17.8183 10.6992C17.7858 10.6045 17.7408 10.5144 17.6845 10.4316C17.6234 10.3704 17.5507 10.3245 17.459 10.2958L16.2929 9.93647C16.0253 9.84663 15.8907 9.65352 15.8906 9.35542C15.8906 9.08579 16.0252 8.90526 16.2929 8.81538L17.459 8.45796C17.5518 8.42526 17.6307 8.36189 17.6826 8.27827C17.744 8.21518 17.7898 8.13861 17.8164 8.05464L18.2197 6.93452C18.3096 6.66681 18.5073 6.53022 18.8037 6.53022Z" fill="white"/>
<path d="M13.041 6.1894C13.2092 6.18949 13.3233 6.27412 13.3799 6.44233L13.6328 7.14839C13.6495 7.20118 13.6781 7.24935 13.7168 7.28901C13.7497 7.34181 13.7996 7.38197 13.8584 7.40229L14.5918 7.6269C14.76 7.68338 14.8446 7.79523 14.8447 7.96577C14.8447 8.15338 14.7601 8.27546 14.5918 8.33198L13.8584 8.55757C13.8055 8.57422 13.7574 8.60384 13.7177 8.64253C13.6824 8.69457 13.6542 8.75101 13.6338 8.8105L13.3799 9.51655C13.3233 9.68475 13.2104 9.76842 13.041 9.7685C12.8534 9.7685 12.7301 9.6849 12.6748 9.51655L12.4209 8.81147C12.4004 8.75198 12.3722 8.69554 12.3369 8.6435C12.2984 8.60504 12.253 8.5756 12.1953 8.55757L11.4619 8.33198C11.2935 8.27546 11.209 8.15338 11.209 7.96577C11.2091 7.79643 11.2936 7.68338 11.4619 7.6269L12.1953 7.40229C12.2537 7.38174 12.3032 7.34162 12.3359 7.28901C12.3745 7.24935 12.4032 7.20119 12.4199 7.14839L12.6738 6.44331C12.7304 6.27511 12.8547 6.1894 13.041 6.1894Z" fill="white"/>
<path d="M16.3252 1.99995C16.4612 1.99996 16.5539 2.06797 16.5996 2.20405L16.8037 2.77436C16.8172 2.81703 16.8398 2.85656 16.8711 2.88862C16.8977 2.93132 16.9387 2.96302 16.9863 2.97944L17.5791 3.16108C17.7151 3.20675 17.7831 3.29757 17.7832 3.4355C17.7832 3.58714 17.7152 3.68571 17.5791 3.7314L16.9863 3.91401C16.9436 3.92747 16.9041 3.95109 16.872 3.98237C16.8436 4.02438 16.8211 4.07012 16.8047 4.11811L16.5996 4.68843C16.5539 4.82451 16.4622 4.89252 16.3252 4.89253C16.1735 4.89253 16.074 4.82451 16.0293 4.68843L15.8242 4.11909C15.8077 4.07109 15.7853 4.02535 15.7568 3.98335C15.7257 3.95224 15.6882 3.92859 15.6416 3.91401L15.0488 3.7314C14.9127 3.68571 14.8447 3.58714 14.8447 3.4355C14.8448 3.29854 14.9128 3.20675 15.0488 3.16108L15.6416 2.97944C15.6888 2.96283 15.7294 2.93114 15.7558 2.88862C15.7871 2.85656 15.8097 2.81705 15.8232 2.77436L16.0283 2.20503C16.074 2.06894 16.1745 1.99995 16.3252 1.99995Z" fill="white"/>
</svg>
