<svg width="24" height="24" viewBox="0 0 24 24" fill="none" xmlns="http://www.w3.org/2000/svg">
<path d="M9.66982 12.0039C9.00089 12.0078 8.33848 11.8723 7.72482 11.6061C7.13444 11.3532 6.59448 10.996 6.13082 10.5517C5.67411 10.0934 5.30833 9.5528 5.05282 8.9585C4.80128 8.3414 4.67386 7.68082 4.67782 7.01449C4.67782 6.31185 4.80282 5.66319 5.05282 5.06949C5.31782 4.4608 5.67782 3.93008 6.13082 3.47731C6.58927 3.02047 7.13014 2.65454 7.72482 2.39886C8.3384 2.13232 9.00081 1.9965 9.66982 2.00007C10.3578 2.00007 11.0058 2.133 11.6148 2.39886C12.2248 2.66373 12.7548 3.02354 13.2088 3.47631C13.6618 3.92908 14.0218 4.45981 14.2868 5.06949C14.5368 5.66219 14.6618 6.31085 14.6618 7.01349C14.6618 7.70014 14.5368 8.34881 14.2868 8.9575C14.0313 9.5518 13.6655 10.0924 13.2088 10.5507C12.7452 10.995 12.2052 11.3522 11.6148 11.6051C11.0012 11.8717 10.3388 12.0075 9.66982 12.0039ZM9.66982 10.5047C10.6388 10.5047 11.4598 10.1689 12.1298 9.49722C12.4624 9.17581 12.7256 8.78968 12.9031 8.36268C13.0806 7.93567 13.1686 7.47684 13.1618 7.01449C13.1618 6.04599 12.8178 5.21842 12.1308 4.53077C11.4588 3.84412 10.6388 3.5013 9.66982 3.5013C8.70082 3.5013 7.87282 3.84412 7.18582 4.53077C6.85933 4.85574 6.60179 5.2432 6.42859 5.66996C6.25539 6.09673 6.1701 6.55402 6.17782 7.01449C6.17782 7.983 6.51382 8.81057 7.18582 9.49722C7.51085 9.82342 7.89834 10.0808 8.32514 10.2539C8.75194 10.427 9.20928 10.5123 9.66982 10.5047Z" fill="white"/>
<path d="M15.6816 5.15899C15.6816 6.04098 15.9908 6.79155 16.61 7.40987C16.9016 7.70357 17.2495 7.93538 17.6328 8.09142C18.0161 8.24746 18.427 8.32452 18.8408 8.31798C19.7229 8.31798 20.4667 8.01471 21.0725 7.40987C21.6908 6.79155 22 6.04098 22 5.15899C22 4.29048 21.6908 3.54664 21.0725 2.92832C20.4659 2.30916 19.7229 2 18.8408 2C17.9723 2 17.2284 2.30916 16.61 2.92832C15.9908 3.54664 15.6816 4.29048 15.6816 5.15899ZM18.8408 3.2636C18.9857 3.2636 19.1239 3.28381 19.2553 3.32256C19.4002 3.34952 19.5384 3.39501 19.6706 3.46156L17.1433 5.98875C17.0791 5.86161 17.0261 5.72913 16.9849 5.59282C16.9587 5.4497 16.9454 5.3045 16.9453 5.15899C16.9453 4.64513 17.1298 4.20455 17.498 3.83642C17.8804 3.45482 18.3278 3.2636 18.8408 3.2636ZM18.8408 7.05438C18.6959 7.05438 18.551 7.04174 18.407 7.01479C18.2789 6.97673 18.1534 6.93059 18.0312 6.87663L20.5586 4.34944C20.6116 4.46738 20.6512 4.59964 20.6765 4.74453C20.7169 4.87594 20.7363 5.0141 20.7363 5.15899C20.7408 5.40868 20.6941 5.65666 20.5991 5.8876C20.504 6.11855 20.3626 6.32757 20.1837 6.50177C20.0095 6.68072 19.8004 6.82208 19.5695 6.91712C19.3385 7.01216 19.0905 7.05888 18.8408 7.05438Z" fill="white"/>
<path d="M17.339 21.35C17.339 22.0285 16.7623 22.0168 16.231 21.9861C16.0166 21.9737 15.8417 21.795 15.8417 21.5802C15.8417 20.205 15.5511 18.7944 14.5594 17.7936C13.3465 16.5695 11.3679 16.1 9.70843 16.1C8.02411 16.1 6.01819 16.5481 4.78408 17.7936C3.77754 18.8079 3.50173 20.1878 3.50173 21.5802C3.4999 21.7941 3.32591 21.9722 3.11229 21.9832C2.57916 22.0106 1.99426 22.0213 2.00004 21.35C2.00004 19.635 2.34288 17.9353 3.59404 16.686C5.12808 15.152 7.6215 14.6 9.71515 14.6C11.7779 14.6 14.2373 15.1783 15.745 16.686C16.9777 17.9187 17.339 19.6561 17.339 21.35Z" fill="white"/>
</svg>
