<svg width="24" height="24" viewBox="0 0 24 24" fill="none" xmlns="http://www.w3.org/2000/svg">
<path d="M3.49868 7.76105V14.8798C3.49868 15.567 3.73997 16.1595 4.2246 16.6594C4.7245 17.1441 5.31704 17.3854 6.00428 17.3854H17.9937C18.6809 17.3854 19.2653 17.1441 19.75 16.6594C20.2498 16.1595 20.4993 15.567 20.4993 14.8798V7.76105L18.4376 9.21289C18.011 9.50611 17.504 9.66188 16.9857 9.65781C16.4716 9.65781 15.9951 9.51018 15.5573 9.21289L11.998 6.70729L8.43759 9.21289C8.011 9.50611 7.50397 9.66188 6.98575 9.65781C6.47159 9.65781 5.99511 9.51018 5.55732 9.21289L3.49664 7.76105H3.49868ZM2 14.8798V6.80096C2 6.39575 2.18021 6.09846 2.53961 5.91214C2.899 5.72582 3.24109 5.7472 3.56893 5.98239L6.4268 7.99522C6.59886 8.10518 6.78619 8.15913 6.9888 8.15913C7.20872 8.15913 7.40216 8.10518 7.57422 7.99522L11.438 5.27988C11.6101 5.16993 11.7974 5.11597 12 5.11597C12.2026 5.11597 12.3899 5.16993 12.562 5.27988L16.4258 7.99522C16.5978 8.10518 16.7852 8.15913 16.9878 8.15913C17.2067 8.15913 17.4011 8.10518 17.5732 7.99522L20.4311 5.98239C20.7589 5.7472 21.101 5.7248 21.4604 5.91214C21.8198 6.09947 22 6.39575 22 6.80096V14.8798C22 15.9885 21.6101 16.9333 20.8292 17.7132C20.0483 18.4931 19.1034 18.884 17.9957 18.884H6.00631C4.89758 18.884 3.95276 18.4941 3.17288 17.7132C2.393 16.9323 2.00204 15.9875 2.00204 14.8798H2Z" fill="white"/>
</svg>
