<svg width="24" height="24" viewBox="0 0 24 24" fill="none" xmlns="http://www.w3.org/2000/svg">
<path d="M8.03194 3.081C8.66594 2.601 9.40894 2.288 10.1949 2.169C10.9669 2.058 11.7449 2.001 12.5249 2C12.7329 2 12.9089 2.08 13.0529 2.24C13.2139 2.385 13.2939 2.561 13.2939 2.769C13.2939 2.873 13.2719 2.976 13.2309 3.071C13.1899 3.166 13.1289 3.252 13.0529 3.323C12.9839 3.393 12.9019 3.448 12.8109 3.485C12.7199 3.522 12.6229 3.54 12.5249 3.538C11.7559 3.538 11.0759 3.586 10.4829 3.682C9.92894 3.769 9.40294 3.983 8.94494 4.307C8.49594 4.643 8.06394 5.172 7.64694 5.893C7.24694 6.614 6.90194 7.679 6.61394 9.088C6.59894 9.104 6.58994 9.12 6.58994 9.136V9.184H10.4569C10.5589 9.18 10.6609 9.197 10.7559 9.234C10.8509 9.271 10.9379 9.327 11.0109 9.399C11.1549 9.544 11.2259 9.728 11.2259 9.952C11.2259 10.16 11.1539 10.345 11.0109 10.504C10.9379 10.576 10.8519 10.632 10.7559 10.669C10.6599 10.706 10.5589 10.723 10.4569 10.719H6.25294C5.99394 11.902 5.74594 13.088 5.50794 14.276C5.28794 15.3 5.07194 16.325 4.85894 17.351C4.68994 18.15 4.52994 18.95 4.37894 19.753L4.04194 21.362C3.99694 21.567 3.87694 21.747 3.70594 21.867C3.62194 21.922 3.52694 21.959 3.42794 21.976C3.32894 21.993 3.22694 21.988 3.12994 21.964C3.03194 21.951 2.93694 21.916 2.85394 21.862C2.77094 21.808 2.70094 21.736 2.64894 21.651C2.53794 21.481 2.49494 21.274 2.52894 21.074C2.60894 20.69 2.72094 20.162 2.86494 19.488C2.99294 18.816 3.14494 18.039 3.32094 17.158C3.51394 16.261 3.72094 15.268 3.94594 14.179C4.18594 13.089 4.43394 11.936 4.68994 10.719H3.29594C3.19394 10.722 3.09294 10.705 2.99794 10.668C2.90294 10.631 2.81694 10.575 2.74494 10.503C2.60494 10.353 2.52694 10.155 2.52894 9.95C2.52494 9.848 2.54294 9.747 2.57994 9.652C2.61694 9.557 2.67294 9.471 2.74394 9.399C2.81694 9.327 2.90294 9.271 2.99794 9.234C3.09294 9.197 3.19494 9.179 3.29694 9.183H5.00294C5.01894 9.103 5.03494 9.03 5.05094 8.967C5.06594 8.902 5.08294 8.831 5.09894 8.751C5.41894 7.277 5.81994 6.084 6.29894 5.172C6.78094 4.26 7.35694 3.563 8.02894 3.081H8.03194Z" fill="white"/>
<path d="M13.5339 9.172C13.4349 9.172 13.3369 9.192 13.2459 9.232C13.1509 9.271 13.0659 9.33 12.9959 9.405C12.9259 9.48 12.8719 9.568 12.8379 9.665C12.7989 9.756 12.7779 9.854 12.7779 9.953C12.7779 10.052 12.7979 10.15 12.8379 10.241L14.8799 15.238L9.90594 20.691C9.76094 20.852 9.68994 21.044 9.68994 21.268C9.69694 21.369 9.72394 21.468 9.76994 21.558C9.81594 21.648 9.87794 21.729 9.95494 21.796C10.0279 21.865 10.1149 21.918 10.2109 21.951C10.3069 21.984 10.4069 21.997 10.5079 21.988C10.7079 21.976 10.8959 21.89 11.0369 21.748L15.5299 16.799L17.4519 21.507C17.5299 21.697 17.6749 21.851 17.8599 21.94C17.9509 21.979 18.0489 22 18.1479 22C18.2469 22 18.3449 21.98 18.4359 21.94C18.5329 21.906 18.6209 21.852 18.6959 21.782C18.7709 21.712 18.8289 21.627 18.8689 21.532C18.9089 21.437 18.9289 21.335 18.9289 21.232C18.9289 21.129 18.9089 21.027 18.8689 20.932L16.6589 15.55L21.2949 10.457C21.3639 10.384 21.4169 10.297 21.4499 10.201C21.4829 10.105 21.4959 10.005 21.4869 9.904C21.4709 9.696 21.3909 9.519 21.2469 9.375C21.1699 9.304 21.0779 9.251 20.9789 9.218C20.8799 9.185 20.7739 9.173 20.6699 9.184C20.5699 9.183 20.4709 9.204 20.3789 9.245C20.2869 9.286 20.2069 9.347 20.1419 9.424L16.0089 13.965L14.2549 9.665C14.2189 9.566 14.1619 9.475 14.0869 9.401C14.0119 9.327 13.9219 9.269 13.8229 9.233C13.7319 9.193 13.6339 9.173 13.5349 9.173L13.5339 9.172Z" fill="white"/>
</svg>
