<svg width="24" height="24" viewBox="0 0 24 24" fill="none" xmlns="http://www.w3.org/2000/svg">
<path d="M16.6133 11.0642C16.8629 11.6564 16.9877 12.305 16.9877 13.0077C16.9877 13.6941 16.8629 14.3416 16.6133 14.9512C16.3576 15.5455 15.9924 16.0856 15.5362 16.5439C15.0728 16.9878 14.5338 17.3448 13.9435 17.5975C13.3349 17.8624 12.6874 17.9954 12 17.9954C11.3126 17.9954 10.6661 17.8624 10.0565 17.5975C9.44681 17.3315 8.91592 16.9797 8.46379 16.5439C8.01166 16.0897 7.6516 15.5609 7.38666 14.9512C7.13707 14.3426 7.01228 13.6941 7.01228 13.0077C7.00512 12.3408 7.13298 11.68 7.38666 11.0642C7.64239 10.4698 8.00757 9.92975 8.46379 9.47148C8.91796 9.01935 9.44681 8.65929 10.0565 8.39436C10.6661 8.12942 11.3126 7.99542 12 7.99542C12.668 7.99235 13.3308 8.12738 13.9435 8.39436C14.5378 8.65008 15.0779 9.01526 15.5362 9.47148C15.9924 9.92975 16.3576 10.4698 16.6133 11.0642ZM14.4591 15.4893C15.1455 14.8029 15.4892 13.9754 15.4892 13.0077C15.4963 12.5453 15.4083 12.086 15.2304 11.6595C15.0524 11.2329 14.7905 10.8463 14.4581 10.5251C13.7891 9.83871 12.9687 9.49603 12 9.49603C11.5376 9.48887 11.0794 9.57684 10.6528 9.75381C10.2263 9.93077 9.83961 10.1937 9.51841 10.5251C8.84738 11.2125 8.51084 12.04 8.51084 13.0077C8.50368 13.468 8.58858 13.9252 8.76146 14.3518C8.93433 14.7784 9.1921 15.165 9.51841 15.4903C9.8437 15.8166 10.2304 16.0734 10.6569 16.2462C11.0835 16.4191 11.5407 16.505 12.001 16.4969C12.9697 16.4969 13.7881 16.1613 14.4591 15.4893Z" fill="white"/>
<path d="M15.3951 3.56927C15.9433 3.92729 16.3811 4.43057 16.6604 5.02181C16.7883 5.29084 16.9724 5.5302 17.1984 5.72455C17.4327 5.91174 17.6976 6.00483 17.9953 6.00483C19.1031 6.00483 20.0483 6.39456 20.8288 7.17606C21.6093 7.95757 22 8.9007 22 10.0095V16.9878C22 18.0967 21.6093 19.0408 20.8288 19.8213C20.0483 20.6018 19.1041 20.9926 17.9953 20.9926H6.00471C4.89689 20.9926 3.95172 20.6028 3.17124 19.8213C2.39075 19.0398 2 18.0967 2 16.9878V10.0095C2 8.9007 2.39075 7.95655 3.17124 7.17606C3.95172 6.39558 4.89587 6.00483 6.00471 6.00483C6.30135 6.00483 6.56731 5.91072 6.80053 5.72455C7.02762 5.53122 7.21174 5.29186 7.33961 5.02181C7.61989 4.42852 8.04235 3.94366 8.60495 3.5703C9.16755 3.19693 9.79869 3.00769 10.5014 3.00769H13.4986C14.1727 2.99951 14.8345 3.19489 15.3951 3.56927ZM19.7516 8.23069C19.2668 7.74583 18.6827 7.50442 17.9953 7.50442C17.2926 7.50442 16.7156 7.30188 16.2615 6.89579C15.8247 6.47332 15.5045 6.06007 15.302 5.65397C15.1455 5.31129 14.903 5.03715 14.5757 4.83462C14.2637 4.61674 13.9047 4.50728 13.4986 4.50728H10.5014C10.1097 4.50319 9.72606 4.61674 9.40078 4.83462C9.08777 5.03715 8.85557 5.31129 8.69804 5.65397C8.4955 6.06109 8.16714 6.47435 7.71399 6.89476C7.27721 7.30188 6.70745 7.50442 6.00573 7.50442C5.67533 7.50033 5.348 7.56273 5.04214 7.68752C4.73629 7.81232 4.45908 7.99746 4.22586 8.23069C3.741 8.71453 3.49959 9.30782 3.49959 10.0106V16.9899C3.49959 17.6916 3.741 18.2849 4.22586 18.7687C4.45908 19.003 4.73629 19.1871 5.04214 19.3119C5.348 19.4367 5.67533 19.4991 6.00573 19.495H17.9963C18.3237 19.5001 18.6479 19.4388 18.9497 19.314C19.2514 19.1892 19.5256 19.003 19.7527 18.7687C20.2518 18.2849 20.5025 17.6916 20.5025 16.9889V10.0095C20.5025 9.30782 20.2518 8.71453 19.7516 8.23069Z" fill="white"/>
</svg>
