<svg width="24" height="24" viewBox="0 0 24 24" fill="none" xmlns="http://www.w3.org/2000/svg">
<path d="M2.05683 21.5535C2.09312 21.642 2.14716 21.7222 2.21563 21.7891H2.21463C2.28161 21.8574 2.36185 21.9113 2.45041 21.9474C2.53898 21.9835 2.634 22.0011 2.72963 21.9991C2.82911 22.0026 2.92825 21.9856 3.02094 21.9493C3.11363 21.913 3.19792 21.8582 3.26863 21.7881L6.99663 18.0809V21.2501C6.99293 21.3497 7.00965 21.449 7.04576 21.5418C7.08188 21.6347 7.13663 21.7192 7.20663 21.7901C7.3531 21.9267 7.54638 22.0018 7.74663 22.0001C7.84243 22.0022 7.93764 21.9847 8.02639 21.9486C8.11514 21.9125 8.19554 21.8585 8.26263 21.7901C8.33887 21.7228 8.39936 21.6395 8.4398 21.5462C8.48024 21.4529 8.49965 21.3518 8.49663 21.2501V16.2581C8.49663 16.0551 8.42663 15.8751 8.28663 15.7181C8.12963 15.5781 7.94963 15.5081 7.74663 15.5081H2.75463C2.65297 15.5051 2.55188 15.5245 2.45856 15.5649C2.36523 15.6054 2.28195 15.6659 2.21463 15.7421C2.07463 15.8831 2.00463 16.0551 2.00463 16.2581C2.00291 16.4584 2.07807 16.6516 2.21463 16.7981C2.28554 16.8681 2.37004 16.9229 2.4629 16.959C2.55577 16.9951 2.65506 17.0118 2.75463 17.0081H5.92429L2.21463 20.7341C2.14463 20.805 2.08988 20.8895 2.05376 20.9824C2.01765 21.0753 2.00093 21.1745 2.00463 21.2741C2.00278 21.3698 2.02054 21.4649 2.05683 21.5535Z" fill="white"/>
<path d="M2.73094 2.00152C2.52794 2.00152 2.35594 2.07252 2.21594 2.21252L2.21494 2.20952C2.14493 2.28043 2.09018 2.36492 2.05407 2.45779C2.01795 2.55066 2.00123 2.64994 2.00494 2.74952C2.00308 2.84522 2.02085 2.94028 2.05714 3.02885C2.09342 3.11743 2.14747 3.19763 2.21594 3.26452L5.92314 6.99252H2.75394C2.65227 6.9895 2.55119 7.00891 2.45786 7.04935C2.36454 7.08979 2.28126 7.15028 2.21394 7.22652C2.07394 7.36752 2.00394 7.53952 2.00394 7.74252C2.00221 7.94277 2.07738 8.13605 2.21394 8.28252C2.28485 8.35252 2.36934 8.40727 2.46221 8.44339C2.55508 8.4795 2.65436 8.49622 2.75394 8.49252H7.70007C7.71564 8.49332 7.73127 8.49365 7.74694 8.49352C7.94718 8.49524 8.14046 8.42008 8.28694 8.28352C8.42694 8.12652 8.49694 7.94652 8.49694 7.74352C8.49694 7.7296 8.4966 7.71579 8.49594 7.70209V2.75052C8.49594 2.53152 8.41794 2.35152 8.26194 2.21052C8.12094 2.07052 7.94894 2.00052 7.74594 2.00052C7.54569 1.99879 7.35241 2.07396 7.20594 2.21052C7.13593 2.28143 7.08118 2.36592 7.04507 2.45879C7.00895 2.55166 6.99223 2.65094 6.99594 2.75052V5.92018L3.27094 2.21152C3.20002 2.14151 3.11553 2.08677 3.02266 2.05065C2.92979 2.01453 2.83051 1.99781 2.73094 2.00152Z" fill="white"/>
<path d="M16.1232 8.49251C16.0853 8.47416 16.0462 8.45845 16.0062 8.44551H15.9822C15.9362 8.41451 15.8892 8.39051 15.8422 8.37551C15.8064 8.34041 15.7672 8.30893 15.7252 8.2815C15.6942 8.2345 15.6622 8.1955 15.6312 8.1635C15.6141 8.11395 15.5906 8.06687 15.5612 8.02351L15.5142 7.88251V2.7505C15.5105 2.65093 15.5272 2.55165 15.5633 2.45878C15.5994 2.36591 15.6542 2.28142 15.7242 2.2105C15.8706 2.07394 16.0639 1.99878 16.2642 2.0005C16.36 1.99838 16.4552 2.01593 16.5439 2.05204C16.6327 2.08816 16.7131 2.14209 16.7802 2.2105C16.8564 2.27783 16.9169 2.36111 16.9573 2.45443C16.9978 2.54776 17.0172 2.64884 17.0142 2.7505V5.9385L20.7412 2.2105C20.8081 2.14222 20.8884 2.08836 20.977 2.05225C21.0655 2.01613 21.1605 1.99852 21.2562 2.0005C21.3558 1.9968 21.455 2.01352 21.5479 2.04964C21.6408 2.08575 21.7253 2.1405 21.7962 2.2105C21.8662 2.28142 21.9209 2.36591 21.957 2.45878C21.9932 2.55165 22.0099 2.65093 22.0062 2.7505C22.008 2.8462 21.9903 2.94127 21.954 3.02984C21.9177 3.11841 21.8636 3.19862 21.7952 3.2655L18.0692 6.99251H21.2562C21.3578 6.98949 21.4589 7.00889 21.5522 7.04933C21.6456 7.08978 21.7289 7.15026 21.7962 7.22651C21.8646 7.2936 21.9185 7.374 21.9546 7.46275C21.9908 7.5515 22.0083 7.64671 22.0062 7.74251C22.0079 7.94275 21.9327 8.13603 21.7962 8.28251C21.7253 8.35251 21.6408 8.40726 21.5479 8.44337C21.455 8.47949 21.3558 8.49621 21.2562 8.49251H16.1232Z" fill="white"/>
<path d="M16.1232 15.5075C16.0853 15.5258 16.0462 15.5415 16.0062 15.5545H15.9822C15.9362 15.5855 15.8892 15.6095 15.8422 15.6245C15.8064 15.6596 15.7672 15.6911 15.7252 15.7185C15.6942 15.7655 15.6622 15.8045 15.6312 15.8365C15.6141 15.8861 15.5906 15.9331 15.5612 15.9765L15.5142 16.1175V21.2495C15.5105 21.3491 15.5272 21.4484 15.5633 21.5412C15.5994 21.6341 15.6542 21.7186 15.7242 21.7895C15.8706 21.9261 16.0639 22.0012 16.2642 21.9995C16.36 22.0016 16.4552 21.9841 16.5439 21.948C16.6327 21.9118 16.7131 21.8579 16.7802 21.7895C16.8564 21.7222 16.9169 21.6389 16.9573 21.5456C16.9978 21.4522 17.0172 21.3512 17.0142 21.2495V18.0615L20.7412 21.7895C20.8081 21.8578 20.8884 21.9116 20.977 21.9478C21.0655 21.9839 21.1605 22.0015 21.2562 21.9995C21.3558 22.0032 21.455 21.9865 21.5479 21.9504C21.6408 21.9142 21.7253 21.8595 21.7962 21.7895C21.8662 21.7186 21.9209 21.6341 21.957 21.5412C21.9932 21.4484 22.0099 21.3491 22.0062 21.2495C22.008 21.1538 21.9903 21.0587 21.954 20.9702C21.9177 20.8816 21.8636 20.8014 21.7952 20.7345L18.0692 17.0075H21.2562C21.3578 17.0105 21.4589 16.9911 21.5522 16.9507C21.6456 16.9102 21.7289 16.8497 21.7962 16.7735C21.8646 16.7064 21.9185 16.626 21.9546 16.5373C21.9908 16.4485 22.0083 16.3533 22.0062 16.2575C22.0079 16.0572 21.9327 15.864 21.7962 15.7175C21.7253 15.6475 21.6408 15.5927 21.5479 15.5566C21.455 15.5205 21.3558 15.5038 21.2562 15.5075H16.1232Z" fill="white"/>
</svg>
