<svg width="24" height="24" viewBox="0 0 24 24" fill="none" xmlns="http://www.w3.org/2000/svg">
<path d="M9.21115 22.0001C10.0832 22.0001 10.9032 21.8551 11.6722 21.5641C12.4382 21.2841 13.1522 20.8791 13.7862 20.3661C14.4072 19.8471 14.9372 19.2291 15.3542 18.5361C15.7892 17.8401 16.0992 17.0741 16.2702 16.2711C17.0732 16.1011 17.8402 15.7911 18.5352 15.3551C19.2242 14.9411 19.8362 14.4101 20.3442 13.7871C20.8662 13.1621 21.2742 12.4581 21.5642 11.6731C21.8552 10.9031 22.0002 10.0841 22.0002 9.21206C22.0042 8.24706 21.8112 7.29006 21.4332 6.40206C21.0672 5.54806 20.5422 4.77206 19.8862 4.11406C19.2292 3.45806 18.4532 2.93306 17.5992 2.56706C16.7102 2.18906 15.7542 1.99606 14.7882 2.00006C13.9162 2.00006 13.0962 2.14506 12.3272 2.43606C11.5572 2.71806 10.8422 3.13006 10.2132 3.65606C9.58915 4.16406 9.05915 4.77606 8.64515 5.46606C8.21015 6.16206 7.90015 6.92806 7.72915 7.73106C6.92615 7.90106 6.15915 8.21106 5.46415 8.64706C4.77115 9.06406 4.15315 9.59406 3.63415 10.2141C3.12015 10.8481 2.71515 11.5621 2.43515 12.3281C2.14215 13.1151 1.99515 13.9491 2.00115 14.7891C2.00115 15.7771 2.19015 16.7131 2.56815 17.5991C2.93415 18.4531 3.45915 19.2291 4.11515 19.8871C4.77215 20.5431 5.54815 21.0681 6.40215 21.4341C7.29115 21.8121 8.24715 22.0051 9.21315 22.0011H9.21215L9.21115 22.0001ZM8.97115 9.21106V9.10206C8.97115 9.05806 8.97815 9.02206 8.99315 8.99306C9.02015 8.97906 9.04915 8.97106 9.07915 8.97106H9.21015C9.55315 8.97306 9.89615 9.00206 10.2342 9.05806L9.05715 10.2351C9.02915 10.0691 9.00715 9.90106 8.99215 9.73306C8.97715 9.55906 8.97115 9.38506 8.97115 9.21106ZM9.21115 7.57706C9.55715 6.38906 10.2742 5.34306 11.2592 4.59306C11.7532 4.21506 12.3052 3.92106 12.8932 3.72106C13.5002 3.50106 14.1422 3.39006 14.7882 3.39406C15.5872 3.39406 16.3422 3.54606 17.0542 3.85106C17.7512 4.15706 18.3612 4.57806 18.8832 5.11506C19.4202 5.63606 19.8492 6.25806 20.1472 6.94406C20.4522 7.65606 20.6042 8.41206 20.6042 9.21006C20.6042 9.87806 20.4952 10.5091 20.2772 11.1061C20.0772 11.6941 19.7832 12.2461 19.4062 12.7391C18.6552 13.7221 17.6092 14.4401 16.4212 14.7871C16.4252 13.8221 16.2322 12.8651 15.8542 11.9771C15.4882 11.1231 14.9632 10.3471 14.3072 9.68906C13.6502 9.03306 12.8742 8.50806 12.0202 8.14206C11.1312 7.76406 10.1752 7.57106 9.20915 7.57506L9.21115 7.57706ZM15.0282 14.7891V14.9191C15.0282 14.9491 15.0202 14.9791 15.0062 15.0061C14.9722 15.0221 14.9352 15.0291 14.8972 15.0281H14.7882C14.6132 15.0281 14.4392 15.0211 14.2652 15.0061C14.0972 14.9911 13.9302 14.9691 13.7642 14.9411L14.9412 13.7641C14.9972 14.1031 15.0272 14.4461 15.0282 14.7891ZM13.7862 11.1941C13.9162 11.3681 14.0322 11.5501 14.1352 11.7391C14.2512 11.9131 14.3602 12.0951 14.4612 12.2841L12.2832 14.4621L11.7162 14.1571C11.5382 14.0391 11.3642 13.9151 11.1942 13.7871L13.7862 11.1941ZM11.7162 9.53906C11.9052 9.64006 12.0872 9.74906 12.2612 9.86506C12.4502 9.96706 12.6322 10.0831 12.8062 10.2141L10.2142 12.8071C10.0842 12.6321 9.96015 12.4581 9.84415 12.2841C9.74215 12.0951 9.63915 11.9061 9.53915 11.7171L11.7172 9.53906H11.7162Z" fill="white"/>
</svg>
