<svg width="24" height="24" viewBox="0 0 24 24" fill="none" xmlns="http://www.w3.org/2000/svg">
<path d="M11 2.75146C11 2.33725 10.6642 2.00146 10.25 2.00146C9.83579 2.00146 9.5 2.33725 9.5 2.75146V4.94308C9.00336 5.20174 8.59317 5.65412 8.39913 6.29809C8.27454 6.71157 8.23977 7.1469 8.29715 7.57491L8.63365 10.0848C8.64136 10.1423 8.62374 10.2003 8.58537 10.2437L2.23129 17.4421C1.95757 17.7555 1.91058 18.2025 2.17811 18.5212C3.10845 19.6293 5.82153 22.0001 12.0056 22.0001C18.1906 22.0001 20.8963 19.6306 21.8228 18.5237C22.0892 18.2055 22.0421 17.7597 21.7693 17.4469L15.4092 10.2464C15.3707 10.2028 15.3531 10.1447 15.3609 10.0871L15.7019 7.57605C15.76 7.14774 15.7256 6.71194 15.6009 6.29809C15.4068 5.65412 14.9966 5.20174 14.5 4.94308V2.75146C14.5 2.33725 14.1642 2.00146 13.75 2.00146C13.3358 2.00146 13 2.33725 13 2.75146V4.72468C12.6394 4.7922 12.2936 4.94523 12 5.18439C11.7064 4.94523 11.3606 4.7922 11 4.72468V2.75146ZM14.2155 7.37424L13.8356 10.1723H10.1588L9.78385 7.37559C9.75488 7.15946 9.77243 6.93964 9.83534 6.73085C10.0047 6.16885 10.8013 6.03823 11.252 6.34979C11.2818 6.37038 11.3117 6.3918 11.3419 6.41345L11.3548 6.42274C11.5484 6.56195 11.751 6.70762 11.9833 6.70762C12.2145 6.70762 12.4168 6.56355 12.6103 6.42579C12.6459 6.40044 12.6812 6.3753 12.7164 6.35132C13.1755 6.03781 13.995 6.16793 14.1647 6.73085C14.2274 6.9392 14.2448 7.15861 14.2155 7.37424ZM3.80865 17.9218L9.32516 11.6723H14.6673L20.1915 17.9264C20.2273 17.9669 20.225 18.0281 20.185 18.0644C19.1407 19.0119 16.757 20.5001 12.0056 20.5001C7.25235 20.5001 4.86298 19.0092 3.81521 18.0598C3.77513 18.0235 3.77286 17.9624 3.80865 17.9218Z" fill="white"/>
</svg>
