<svg width="24" height="24" viewBox="0 0 24 24" fill="none" xmlns="http://www.w3.org/2000/svg">
<path d="M4.97848 8.51723C4.97842 8.11647 5.21763 7.75439 5.58629 7.59721L11.6795 4.99938C11.9295 4.89277 12.2122 4.89255 12.4624 4.99876L18.4128 7.52454C18.7822 7.68134 19.0221 8.04376 19.0221 8.44505V15.5589C19.0221 15.9604 18.7819 16.323 18.4122 16.4796L12.4673 18.9988C12.2177 19.1045 11.9359 19.1044 11.6864 18.9985L5.58878 16.4102C5.21944 16.2535 4.97957 15.8911 4.97951 15.4899L4.97848 8.51723ZM16.1825 8.53878C16.3288 8.47671 16.3288 8.26946 16.1825 8.20739L12.1412 6.49193C12.0962 6.47285 12.0454 6.47285 12.0005 6.49193L7.96511 8.20485C7.81888 8.26692 7.81888 8.47416 7.96511 8.53623L12.0065 10.2517C12.0514 10.2708 12.1022 10.2708 12.1471 10.2517L16.1825 8.53878ZM13.0006 17.1426L17.4124 15.2699C17.4789 15.2417 17.5221 15.1764 17.5221 15.1042V9.87167C17.5221 9.74271 17.3904 9.65559 17.2717 9.70598L12.8599 11.5787C12.7934 11.6069 12.7502 11.6722 12.7502 11.7444V16.9769C12.7502 17.1059 12.8819 17.193 13.0006 17.1426ZM6.58806 15.2049L10.9999 17.0776C11.1186 17.128 11.2502 17.0408 11.2502 16.9119V11.6794C11.2502 11.6071 11.207 11.5419 11.1406 11.5137L6.72872 9.64096C6.61002 9.59057 6.47839 9.67769 6.47839 9.80665V15.0392C6.47839 15.1114 6.52157 15.1766 6.58806 15.2049Z" fill="white"/>
<path d="M2.4957 5.84578C2.31429 5.78837 2.16273 5.66195 2.0737 5.49378C1.99559 5.32476 1.97897 5.13376 2.0267 4.95378V4.86078C2.042 4.83178 2.05022 4.79957 2.0507 4.76678L2.6837 2.91578C2.71128 2.81936 2.75896 2.72986 2.82359 2.65316C2.88822 2.57647 2.96834 2.51431 3.0587 2.47078C3.14828 2.42472 3.2461 2.39685 3.3465 2.38879C3.44691 2.38072 3.54792 2.39261 3.6437 2.42378C3.8317 2.50178 3.9727 2.63378 4.0657 2.82178C4.11222 2.90721 4.14043 3.0014 4.14852 3.09833C4.15661 3.19527 4.14441 3.29283 4.1127 3.38478L4.0657 3.52478C4.1437 3.47778 4.2297 3.43078 4.3237 3.38478C4.4337 3.33778 4.5507 3.28278 4.6757 3.22078C4.9257 3.11078 5.1987 2.99378 5.4957 2.86878C5.8087 2.72878 6.1057 2.61878 6.3857 2.54078C6.72442 2.44085 7.0691 2.36236 7.4177 2.30578C7.8077 2.22778 8.1597 2.16578 8.4727 2.11878L8.51695 2.11425C8.65676 2.09992 8.7901 2.08626 8.9177 2.07178C9.0577 2.05578 9.1757 2.04078 9.2687 2.02478H9.4097C9.44727 2.0111 9.48674 2.00334 9.5267 2.00178H9.6207C9.71881 1.99303 9.81767 2.00516 9.91075 2.0374C10.0038 2.06963 10.089 2.12123 10.1607 2.18878C10.2362 2.24767 10.2982 2.32205 10.3425 2.40692C10.3869 2.49179 10.4125 2.58517 10.4177 2.68078C10.4263 2.77897 10.414 2.87787 10.3816 2.97095C10.3492 3.06403 10.2974 3.14918 10.2297 3.22078C10.1082 3.37439 9.93181 3.47479 9.7377 3.50078H9.5507C9.51069 3.50266 9.47122 3.51076 9.4337 3.52478C9.3397 3.52478 9.2227 3.53278 9.0817 3.54878C8.9567 3.56378 8.8237 3.58778 8.6827 3.61878C8.3707 3.64978 8.0427 3.69678 7.6987 3.75878C7.40592 3.81299 7.11646 3.88377 6.8317 3.97078C6.5977 4.04878 6.3397 4.14178 6.0577 4.25078C5.7927 4.36078 5.5347 4.47078 5.2847 4.57978C5.1747 4.64178 5.0657 4.69678 4.9567 4.74378C4.8627 4.79078 4.7767 4.83778 4.6987 4.88378L4.6047 4.93178C4.5897 4.93178 4.5747 4.93878 4.5587 4.95478L4.9567 5.07178C5.1437 5.14978 5.2847 5.28278 5.3787 5.47078C5.42508 5.55608 5.45321 5.65009 5.4613 5.74684C5.46939 5.84359 5.45727 5.94097 5.4257 6.03278C5.35519 6.22709 5.2122 6.38657 5.0267 6.47778C4.8491 6.55637 4.64836 6.56495 4.4647 6.50178L2.4957 5.84578Z" fill="white"/>
<path d="M21.5054 18.1536C21.6934 18.2166 21.8254 18.3336 21.9034 18.5056C21.9962 18.6696 22.0213 18.8634 21.9734 19.0456C21.973 19.078 21.9652 19.1098 21.9504 19.1386V19.2326L21.3174 21.0836C21.2898 21.18 21.2421 21.2695 21.1775 21.3462C21.1129 21.4229 21.0327 21.4851 20.9424 21.5286C20.8528 21.5747 20.755 21.6025 20.6546 21.6106C20.5542 21.6187 20.4532 21.6068 20.3574 21.5756C20.1771 21.504 20.0277 21.3712 19.9354 21.2006C19.8892 21.1109 19.8612 21.0129 19.8532 20.9123C19.8451 20.8117 19.8571 20.7105 19.8884 20.6146L19.9354 20.4746C19.8446 20.5275 19.7504 20.5743 19.6534 20.6146L19.3254 20.7786C19.0754 20.8886 18.7954 21.0136 18.4824 21.1536C18.1998 21.2736 17.9099 21.3755 17.6144 21.4586C17.2686 21.5601 16.9165 21.6386 16.5604 21.6936C16.1854 21.7716 15.8404 21.8336 15.5284 21.8806L15.4849 21.8851C15.3448 21.8994 15.2112 21.9131 15.0834 21.9276C14.9434 21.9426 14.8254 21.9586 14.7324 21.9746H14.5674C14.5386 21.9894 14.5067 21.9973 14.4744 21.9976H14.3804C14.2823 22.0064 14.1834 21.9942 14.0903 21.962C13.9972 21.9298 13.9121 21.8782 13.8404 21.8106C13.7649 21.7517 13.7029 21.6773 13.6585 21.5925C13.6142 21.5076 13.5886 21.4142 13.5834 21.3186C13.5648 21.124 13.6237 20.93 13.7474 20.7786C13.8807 20.6269 14.0636 20.5277 14.2634 20.4986H14.4274C14.475 20.4982 14.5223 20.4901 14.5674 20.4746C14.8198 20.4672 15.0709 20.4357 15.3174 20.3806C15.6304 20.3496 15.9504 20.3026 16.2784 20.2406C16.6224 20.1776 16.9194 20.1076 17.1694 20.0286C17.4034 19.9506 17.6534 19.8576 17.9194 19.7486C18.2004 19.6386 18.4664 19.5286 18.7164 19.4196C18.8264 19.3576 18.9264 19.3026 19.0214 19.2556C19.1304 19.2086 19.2244 19.1616 19.3014 19.1156C19.3231 19.1027 19.3473 19.0945 19.3724 19.0916C19.398 19.0797 19.4216 19.0638 19.4424 19.0446L19.0444 18.9276C18.8641 18.856 18.7147 18.7232 18.6224 18.5526C18.5762 18.4629 18.5482 18.3649 18.5402 18.2643C18.5321 18.1637 18.5441 18.0625 18.5754 17.9666C18.6062 17.8746 18.6553 17.7898 18.7198 17.7173C18.7842 17.6448 18.8627 17.5861 18.9504 17.5446C19.0401 17.4984 19.1381 17.4705 19.2387 17.4624C19.3392 17.4543 19.4404 17.4663 19.5364 17.4976L21.5054 18.1536Z" fill="white"/>
</svg>
