<svg width="24" height="24" viewBox="0 0 24 24" fill="none" xmlns="http://www.w3.org/2000/svg">
<path d="M7.31777 6.19762C7.6267 6.50673 7.62702 7.00788 7.31775 7.31714C7.00851 7.62637 6.5073 7.62628 6.19809 7.31715L4.92908 6.048C4.61984 5.73883 4.61985 5.23765 4.92907 4.92844C5.23831 4.61921 5.7393 4.61931 6.04851 4.92843L7.31777 6.19762Z" fill="white"/>
<path d="M4.92906 19.0706C4.61985 18.7614 4.61985 18.2602 4.92907 17.951L6.19808 16.6819C6.50728 16.3728 7.0085 16.3726 7.31774 16.6819C7.62696 16.9911 7.62699 17.4923 7.31775 17.8014L6.04855 19.0705C5.73954 19.3797 5.23828 19.3798 4.92906 19.0706Z" fill="white"/>
<path d="M16.6825 6.19759L17.9516 4.92844C18.2607 4.61931 18.762 4.61922 19.0712 4.92843C19.3804 5.23764 19.3804 5.73884 19.0712 6.048L17.8021 7.31712C17.493 7.62629 16.9918 7.62632 16.6825 7.31715C16.3733 7.00794 16.3733 6.50675 16.6825 6.19759Z" fill="white"/>
<path d="M19.0713 17.9511C19.3802 18.2602 19.3805 18.7614 19.0712 19.0706C18.762 19.3798 18.2607 19.3797 17.9516 19.0706L16.6825 17.8014C16.3733 17.4923 16.3733 16.9911 16.6825 16.6819C16.9918 16.3726 17.4928 16.3727 17.802 16.6819L19.0713 17.9511Z" fill="white"/>
<path d="M2.7917 12.7911C2.35441 12.7911 2.00006 12.4368 2.00006 11.9995C2.00006 11.5622 2.35441 11.2078 2.7917 11.2078H4.58654C5.02384 11.2078 5.37819 11.5622 5.37819 11.9995C5.37819 12.4368 5.02384 12.7911 4.58654 12.7911H2.7917Z" fill="white"/>
<path d="M11.2085 19.4131C11.2085 18.9759 11.5628 18.6214 12.0001 18.6214C12.4375 18.6214 12.7918 18.9759 12.7918 19.4131V21.2079C12.7918 21.6451 12.4375 21.9995 12.0001 21.9995C11.5628 21.9995 11.2085 21.6451 11.2085 21.2079V19.4131Z" fill="white"/>
<path d="M19.4137 12.7911C18.9764 12.7911 18.622 12.4368 18.622 11.9995C18.622 11.5622 18.9764 11.2078 19.4137 11.2078H21.2086C21.6456 11.2078 22.0001 11.5622 22.0001 11.9995C22.0001 12.4368 21.6456 12.7911 21.2086 12.7911H19.4137Z" fill="white"/>
<path d="M11.2085 2.79115C11.2085 2.35395 11.5628 1.99951 12.0001 1.99951C12.4375 1.99951 12.7918 2.35395 12.7918 2.79115V4.586C12.7918 5.0232 12.4375 5.37764 12.0001 5.37764C11.5628 5.37764 11.2085 5.0232 11.2085 4.586V2.79115Z" fill="white"/>
<path fill-rule="evenodd" clip-rule="evenodd" d="M11.9999 15.5495C13.9605 15.5495 15.5499 13.9601 15.5499 11.9995C15.5499 10.0389 13.9605 8.44952 11.9999 8.44952C10.0393 8.44952 8.44993 10.0389 8.44993 11.9995C8.44993 13.9601 10.0393 15.5495 11.9999 15.5495ZM11.9999 17.0495C14.789 17.0495 17.0499 14.7886 17.0499 11.9995C17.0499 9.21048 14.789 6.94952 11.9999 6.94952C9.21089 6.94952 6.94993 9.21048 6.94993 11.9995C6.94993 14.7886 9.21089 17.0495 11.9999 17.0495Z" fill="white"/>
</svg>
