<svg width="24" height="24" viewBox="0 0 24 24" fill="none" xmlns="http://www.w3.org/2000/svg">
<path fill-rule="evenodd" clip-rule="evenodd" d="M12 2C12.4148 2 12.7511 2.33629 12.7511 2.75112V6.24597C12.7511 6.6608 12.4148 6.99709 12 6.99709C11.5852 6.99709 11.2489 6.6608 11.2489 6.24597V2.75112C11.2489 2.33629 11.5852 2 12 2Z" fill="white"/>
<path fill-rule="evenodd" clip-rule="evenodd" d="M11.3144 9.04528C11.4234 8.72062 11.6623 8.55596 12.0217 8.55596C12.3464 8.55596 12.5667 8.7183 12.6757 9.04296L13.1627 10.4042C13.1949 10.5061 13.2505 10.599 13.325 10.6756C13.3886 10.7774 13.4852 10.8544 13.5987 10.8935L15.0133 11.3272C15.338 11.4362 15.5003 11.6519 15.5003 11.9812C15.5003 12.3429 15.338 12.5772 15.0133 12.6862L13.5987 13.1221C13.4968 13.1542 13.4038 13.2098 13.3274 13.2845C13.2591 13.385 13.2045 13.4942 13.165 13.6091L12.6757 14.9704C12.5667 15.2951 12.3487 15.4574 12.0217 15.4574C11.66 15.4574 11.4234 15.2951 11.3168 14.9704L10.8274 13.6114C10.788 13.4965 10.7334 13.3873 10.6651 13.2868C10.5909 13.2126 10.5028 13.1569 10.3915 13.1221L8.97686 12.6862C8.65219 12.5772 8.48987 12.3429 8.48987 11.9812C8.48987 11.6542 8.65219 11.4362 8.97686 11.3272L10.3915 10.8935C10.5041 10.8539 10.5998 10.777 10.6628 10.6756C10.7373 10.599 10.7929 10.5061 10.8251 10.4042L11.3144 9.04528Z" fill="white"/>
<path fill-rule="evenodd" clip-rule="evenodd" d="M12.7511 17.754C12.7511 17.3392 12.4148 17.0029 12 17.0029C11.5852 17.0029 11.2489 17.3392 11.2489 17.754V21.2489C11.2489 21.6637 11.5852 22 12 22C12.4148 22 12.7511 21.6637 12.7511 21.2489V17.754Z" fill="white"/>
<path fill-rule="evenodd" clip-rule="evenodd" d="M22 12C22 12.4148 21.6637 12.7511 21.2489 12.7511H17.754C17.3392 12.7511 17.0029 12.4148 17.0029 12C17.0029 11.5852 17.3392 11.2489 17.754 11.2489H21.2489C21.6637 11.2489 22 11.5852 22 12Z" fill="white"/>
<path fill-rule="evenodd" clip-rule="evenodd" d="M6.24597 12.7511C6.6608 12.7511 6.99709 12.4148 6.99709 12C6.99709 11.5852 6.6608 11.2489 6.24597 11.2489H2.75112C2.33629 11.2489 2 11.5852 2 12C2 12.4148 2.33629 12.7511 2.75112 12.7511H6.24597Z" fill="white"/>
<path fill-rule="evenodd" clip-rule="evenodd" d="M6.10306 6.20887C6.39639 5.91554 6.87197 5.91554 7.1653 6.20887L8.34583 7.3894C8.63916 7.68273 8.63916 8.15831 8.34583 8.45164C8.0525 8.74497 7.57692 8.74497 7.28359 8.45164L6.10306 7.27111C5.80973 6.97778 5.80973 6.5022 6.10306 6.20887Z" fill="white"/>
<path fill-rule="evenodd" clip-rule="evenodd" d="M4.49855 5.47459C4.91338 5.47459 5.24967 5.1383 5.24967 4.72347C5.24967 4.30864 4.91338 3.97235 4.49855 3.97235C4.08372 3.97235 3.74743 4.30864 3.74743 4.72347C3.74743 5.1383 4.08372 5.47459 4.49855 5.47459Z" fill="white"/>
<path fill-rule="evenodd" clip-rule="evenodd" d="M17.6005 6.20887C17.3072 5.91554 16.8316 5.91554 16.5383 6.20887L15.3577 7.3894C15.0644 7.68273 15.0644 8.15831 15.3577 8.45164C15.6511 8.74497 16.1267 8.74497 16.42 8.45164L17.6005 7.27111C17.8938 6.97778 17.8938 6.5022 17.6005 6.20887Z" fill="white"/>
<path fill-rule="evenodd" clip-rule="evenodd" d="M19.205 5.47459C18.7902 5.47459 18.4539 5.1383 18.4539 4.72347C18.4539 4.30864 18.7902 3.97235 19.205 3.97235C19.6198 3.97235 19.9561 4.30864 19.9561 4.72347C19.9561 5.1383 19.6198 5.47459 19.205 5.47459Z" fill="white"/>
<path fill-rule="evenodd" clip-rule="evenodd" d="M6.10306 18.2851C6.39639 18.5785 6.87197 18.5785 7.1653 18.2851L8.34583 17.1046C8.63916 16.8113 8.63916 16.3357 8.34583 16.0424C8.0525 15.749 7.57692 15.749 7.28359 16.0424L6.10306 17.2229C5.80973 17.5162 5.80973 17.9918 6.10306 18.2851Z" fill="white"/>
<path fill-rule="evenodd" clip-rule="evenodd" d="M4.49855 19.0194C4.91338 19.0194 5.24967 19.3557 5.24967 19.7705C5.24967 20.1854 4.91338 20.5217 4.49855 20.5217C4.08372 20.5217 3.74743 20.1854 3.74743 19.7705C3.74743 19.3557 4.08372 19.0194 4.49855 19.0194Z" fill="white"/>
<path fill-rule="evenodd" clip-rule="evenodd" d="M18.1908 18.2851C18.4841 17.9918 18.4841 17.5162 18.1908 17.2229L17.0102 16.0424C16.7169 15.749 16.2413 15.749 15.948 16.0424C15.6547 16.3357 15.6547 16.8113 15.948 17.1046L17.1285 18.2851C17.4219 18.5785 17.8975 18.5785 18.1908 18.2851Z" fill="white"/>
<path fill-rule="evenodd" clip-rule="evenodd" d="M19.7953 19.0194C19.3804 19.0194 19.0442 19.3557 19.0442 19.7705C19.0442 20.1854 19.3804 20.5217 19.7953 20.5217C20.2101 20.5217 20.5464 20.1854 20.5464 19.7705C20.5464 19.3557 20.2101 19.0194 19.7953 19.0194Z" fill="white"/>
</svg>
