<svg width="24" height="24" viewBox="0 0 24 24" fill="none" xmlns="http://www.w3.org/2000/svg">
<path d="M20.425 20.927L12.436 3.943C12.378 3.807 12.28 3.693 12.155 3.614C12.032 3.538 11.89 3.498 11.745 3.498C11.6 3.498 11.458 3.538 11.335 3.614C11.221 3.698 11.132 3.812 11.077 3.943L3.06501 20.926C2.98701 21.112 2.97901 21.32 3.04201 21.512C3.11801 21.697 3.25901 21.847 3.44001 21.934C3.61801 22.012 3.81901 22.02 4.00301 21.957C4.09701 21.924 4.18401 21.872 4.25601 21.804C4.32801 21.736 4.38601 21.653 4.42501 21.561L7.16601 15.751H16.325L19.066 21.561C19.152 21.741 19.303 21.883 19.488 21.959C19.68 22.022 19.887 22.014 20.074 21.936C20.162 21.895 20.241 21.836 20.305 21.764C20.369 21.692 20.418 21.606 20.449 21.514C20.488 21.421 20.506 21.32 20.502 21.219C20.498 21.118 20.472 21.019 20.426 20.929L20.425 20.927ZM11.757 6.005L15.622 14.25H7.86901L11.757 6.005Z" fill="white"/>
<path d="M18.7651 2.00013L20.3435 3.6578C20.7818 4.1136 21.001 4.66616 21.001 5.31431C21.001 5.94613 20.7818 6.48937 20.3435 6.94517C19.9052 7.40097 19.3701 7.63062 18.7383 7.63062C18.4422 7.63412 18.1484 7.57467 17.8756 7.45576C17.6029 7.33686 17.3592 7.16433 17.1587 6.94517C16.9466 6.73067 16.7787 6.47538 16.6656 6.1956C16.5525 5.91583 16.4966 5.61623 16.5012 5.31314C16.5012 4.66383 16.7204 4.11127 17.1587 3.65664L18.7639 1.99896L18.7651 2.00013Z" fill="white"/>
</svg>
