<svg width="24" height="24" viewBox="0 0 24 24" fill="none" xmlns="http://www.w3.org/2000/svg">
<path d="M21.1902 10.981C22.2758 9.89536 22.2759 8.08269 21.1902 6.997C20.1207 5.85755 18.2744 5.90475 17.1822 6.997L6.47219 17.707C6.28731 17.8905 6.18527 18.1506 6.19019 18.411V20.989C6.19019 21.5613 6.62644 21.996 7.19819 21.996H9.77619C10.0492 21.996 10.2875 21.8837 10.4792 21.692L21.1902 10.981ZM7.69019 18.622L15.7302 10.582L17.6042 12.458L9.56519 20.497H7.69019V18.622ZM18.2602 8.052C18.7567 7.52368 19.6198 7.53749 20.1228 8.04043C20.6374 8.55511 20.627 9.40366 20.1352 9.927L18.6592 11.403L16.7842 9.528L18.2602 8.052Z" fill="white"/>
<path d="M2.41689 8.95865L3.64901 9.3409C3.79613 9.40942 3.96827 9.58081 4.03718 9.72774L4.42692 10.9555C4.61641 11.5113 5.40183 11.5097 5.58718 10.9498L6.00391 9.71904C6.04082 9.5434 6.20686 9.43266 6.35477 9.33101L7.58257 8.94126C8.13806 8.75184 8.13671 7.96635 7.57683 7.78101L6.34608 7.36428C6.1857 7.30432 6.05422 7.17356 5.99401 7.01328L5.56829 5.78562C5.37776 5.22683 4.5923 5.23474 4.40804 5.79135L4.02728 7.02198C3.92605 7.17025 3.81586 7.33659 3.64032 7.37417L2.41265 7.7999C1.85799 7.98902 1.86062 8.77647 2.41689 8.95865Z" fill="white"/>
<path d="M9.94813 7.0262L10.6348 7.23923C10.7168 7.27741 10.8127 7.37293 10.8511 7.45481L11.0683 8.13906C11.1739 8.44876 11.6116 8.44788 11.7149 8.13586L11.9472 7.44997C11.9677 7.35208 12.0603 7.29037 12.1427 7.23371L12.827 7.01651C13.1365 6.91095 13.1358 6.4732 12.8238 6.36991L12.1379 6.13766C12.0485 6.10425 11.9752 6.03138 11.9417 5.94206L11.7044 5.25788C11.5982 4.94647 11.1605 4.95088 11.0578 5.26108L10.8456 5.9469C10.7892 6.02953 10.7278 6.12223 10.6299 6.14318L9.94577 6.38043C9.63666 6.48583 9.63813 6.92468 9.94813 7.0262Z" fill="white"/>
<path d="M6.89857 3.80909L7.5203 4.00197C7.59454 4.03654 7.6814 4.12303 7.71617 4.19717L7.91284 4.81671C8.00845 5.09713 8.40477 5.09633 8.4983 4.81382L8.70858 4.19278C8.7272 4.10415 8.81099 4.04827 8.88563 3.99698L9.50517 3.80031C9.78547 3.70473 9.78479 3.30837 9.50228 3.21485L8.88124 3.00457C8.80031 2.97431 8.73397 2.90833 8.70359 2.82745L8.48877 2.20797C8.39262 1.92601 7.99629 1.93 7.90331 2.21087L7.71117 2.83184C7.66009 2.90666 7.60449 2.99059 7.51591 3.00956L6.89643 3.22438C6.61655 3.31981 6.61788 3.71716 6.89857 3.80909Z" fill="white"/>
</svg>
