<svg width="24" height="24" viewBox="0 0 24 24" fill="none" xmlns="http://www.w3.org/2000/svg">
<path d="M13.1538 2.47651L14.0771 3.39983C14.7145 3.11382 15.3279 2.89215 15.8732 2.73065C16.6502 2.50047 17.3597 3.1071 17.3597 3.85469V6.97191C17.3597 9.69479 15.329 11.9434 12.6995 12.286V14.0787H16.518C17.5106 14.0787 18.2731 14.9578 18.1327 15.9404L17.9533 17.1965C17.9523 17.2039 17.9513 17.2113 17.9501 17.2186L17.5813 19.8004C17.4009 21.0631 16.3195 22.001 15.044 22.001H8.95702C7.68149 22.001 6.60007 21.0631 6.41968 19.8004L6.05085 17.2186C6.04969 17.2112 6.04864 17.2039 6.0477 17.1965L5.86826 15.9404C5.72789 14.9578 6.49035 14.0787 7.48293 14.0787H11.3015V12.286C8.67194 11.9434 6.64129 9.69479 6.64129 6.97191V4.09812C6.64129 3.17666 7.65748 2.61723 8.43607 3.11006L9.52459 3.79907L10.8472 2.47651C11.4841 1.83954 12.5169 1.83954 13.1538 2.47651ZM11.8357 3.46508L10.7354 4.56545L11.3926 4.98145C11.8371 4.64117 12.301 4.33714 12.768 4.06779L12.1652 3.46508C12.0743 3.37408 11.9267 3.37408 11.8357 3.46508ZM12.0005 10.9331C14.1882 10.9331 15.9616 9.1596 15.9616 6.97191V4.16722C15.4348 4.3391 14.8546 4.56791 14.2641 4.8556C14.2466 4.86513 14.2288 4.87386 14.2107 4.88179C13.419 5.27189 12.6111 5.76772 11.8904 6.37395L11.7204 6.51672C11.0147 7.10909 10.4761 7.56117 10.0842 8.10143C9.73089 8.5885 9.49121 9.1611 9.44539 9.99894C10.1351 10.5818 11.0268 10.9331 12.0005 10.9331ZM8.95252 7.28054C9.31836 6.77619 9.77793 6.33865 10.2612 5.91994L8.03934 4.51353V6.97191C8.03934 7.49843 8.14207 8.00096 8.32858 8.46055C8.48209 8.02555 8.69305 7.63825 8.95252 7.28054ZM7.48293 15.4768C7.34113 15.4768 7.23221 15.6023 7.25226 15.7427L7.34742 16.4088H16.6536L16.7487 15.7427C16.7688 15.6023 16.6598 15.4768 16.518 15.4768H7.48293ZM7.80368 19.6027C7.88568 20.1766 8.37723 20.6029 8.95702 20.6029H15.044C15.6237 20.6029 16.1153 20.1766 16.1973 19.6027L16.4538 17.8068H7.54714L7.80368 19.6027Z" fill="white"/>
</svg>
