<svg width="24" height="24" viewBox="0 0 24 24" fill="none" xmlns="http://www.w3.org/2000/svg">
<path d="M9.66982 12.003C9.00089 12.0068 8.33848 11.8713 7.72482 11.6052C7.13444 11.3522 6.59448 10.995 6.13082 10.5507C5.67411 10.0924 5.30833 9.55182 5.05282 8.95752C4.80128 8.34043 4.67386 7.67985 4.67782 7.01352C4.67782 6.31088 4.80282 5.66221 5.05282 5.06852C5.31782 4.45983 5.67782 3.9291 6.13082 3.47633C6.58927 3.01949 7.13013 2.65356 7.72482 2.39789C8.3384 2.13134 9.00081 1.99553 9.66982 1.99909C10.3578 1.99909 11.0058 2.13202 11.6148 2.39789C12.2248 2.66275 12.7548 3.02257 13.2088 3.47533C13.6618 3.9281 14.0218 4.45883 14.2868 5.06852C14.5368 5.66121 14.6618 6.30988 14.6618 7.01252C14.6618 7.69916 14.5368 8.34783 14.2868 8.95652C14.0313 9.55082 13.6655 10.0914 13.2088 10.5497C12.7452 10.994 12.2052 11.3512 11.6148 11.6042C11.0012 11.8707 10.3388 12.0065 9.66982 12.003ZM9.66982 10.5037C10.6388 10.5037 11.4598 10.1679 12.1298 9.49624C12.4624 9.17483 12.7256 8.78871 12.9031 8.3617C13.0806 7.93469 13.1686 7.47586 13.1618 7.01352C13.1618 6.04501 12.8178 5.21744 12.1308 4.52979C11.4588 3.84314 10.6388 3.50032 9.66982 3.50032C8.70082 3.50032 7.87282 3.84314 7.18582 4.52979C6.85933 4.85476 6.60179 5.24222 6.42859 5.66899C6.25539 6.09575 6.1701 6.55305 6.17782 7.01352C6.17782 7.98202 6.51382 8.80959 7.18582 9.49624C7.51085 9.82244 7.89834 10.0798 8.32514 10.2529C8.75194 10.426 9.20928 10.5113 9.66982 10.5037Z" fill="white"/>
<path d="M8.92386 16.1307C9.33556 16.0969 9.66992 15.7646 9.66992 15.3516C9.66992 14.9362 9.33216 14.5975 8.9177 14.625C7.01586 14.7511 4.93721 15.3414 3.59404 16.6845C2.34288 17.9338 2.00004 19.6335 2.00004 21.3485C1.99426 22.0198 2.57916 22.0092 3.11229 21.9817C3.32591 21.9707 3.4999 21.7926 3.50173 21.5787C3.50173 20.1863 3.77754 18.8064 4.78408 17.7921C5.83106 16.7355 7.43353 16.2528 8.92386 16.1307Z" fill="white"/>
<path d="M16.0283 15.1968C15.6141 15.1968 15.2783 15.5325 15.2783 15.9468V17.3648C15.2783 17.779 15.6141 18.1148 16.0283 18.1148C16.4425 18.1148 16.7783 17.779 16.7783 17.3648V15.9468C16.7783 15.5325 16.4425 15.1968 16.0283 15.1968Z" fill="white"/>
<path d="M15.2783 19.1577C15.2783 18.7435 15.6141 18.4077 16.0283 18.4077C16.4425 18.4077 16.7783 18.7435 16.7783 19.1577C16.7783 19.5719 16.4425 19.9077 16.0283 19.9077C15.6141 19.9077 15.2783 19.5719 15.2783 19.1577Z" fill="white"/>
<path d="M15.9885 13.0748L20.1426 20.502H11.8345L15.9885 13.0748ZM16.8613 11.5624C16.4796 10.8799 15.4975 10.8799 15.1158 11.5624L10.1092 20.5138C9.73633 21.1804 10.2182 22.002 10.9819 22.002H20.9951C21.7589 22.002 22.2407 21.1804 21.8679 20.5138L16.8613 11.5624Z" fill="white"/>
</svg>
