<svg width="24" height="24" viewBox="0 0 24 24" fill="none" xmlns="http://www.w3.org/2000/svg">
<path d="M12.0001 21.9989C10.6631 22.0069 9.33915 21.7349 8.11315 21.2029C6.92315 20.7059 5.84115 19.9829 4.92815 19.0719C4.01715 18.1589 3.29315 17.0779 2.79715 15.8879C2.26415 14.6619 1.99315 13.3369 2.00115 11.9999C1.99415 10.6629 2.26515 9.3389 2.79715 8.1129C3.29415 6.9229 4.01815 5.8409 4.92815 4.9279C5.84115 4.0169 6.92315 3.2929 8.11215 2.7969C9.33915 2.2639 10.6631 1.9929 12.0001 2.0009C13.3371 1.9939 14.6611 2.2649 15.8871 2.7969C17.0771 3.2939 18.1591 4.0179 19.0721 4.9279C19.9831 5.8409 20.7061 6.9219 21.2031 8.1119C21.7361 9.3389 22.0071 10.6629 21.9991 11.9999C22.0061 13.3369 21.7351 14.6609 21.2031 15.8869C20.7061 17.0769 19.9831 18.1589 19.0721 19.0719C18.1591 19.9829 17.0771 20.7069 15.8881 21.2029C14.6611 21.7359 13.3371 22.0069 12.0001 21.9989ZM12.0001 20.4999C13.1361 20.5069 14.2611 20.2759 15.3021 19.8209C16.3081 19.3999 17.2231 18.7879 17.9951 18.0169C18.7741 17.2389 19.3941 16.3159 19.8211 15.3009C20.2761 14.2599 20.5081 13.1349 20.5001 11.9989C20.5071 10.8629 20.2761 9.7379 19.8211 8.6969C19.3971 7.6869 18.7761 6.7709 17.9951 6.0039C17.2281 5.2219 16.3121 4.6009 15.3021 4.1779C14.2611 3.7229 13.1361 3.4909 12.0001 3.4989C10.8641 3.4919 9.73915 3.7229 8.69815 4.1779C7.68315 4.6049 6.76115 5.2249 5.98215 6.0039C5.21215 6.7759 4.59915 7.6909 4.17815 8.6969C3.72315 9.7379 3.49115 10.8629 3.49915 11.9989C3.49915 13.1699 3.72615 14.2699 4.17815 15.3009C4.60315 16.3119 5.21415 17.2329 5.98215 18.0169C6.76515 18.7839 7.68715 19.3959 8.69815 19.8209C9.73915 20.2759 10.8641 20.5079 12.0001 20.4999Z" fill="white"/>
<path d="M12.6901 5.7199C12.7301 5.8089 12.7511 5.9059 12.7491 6.0039V11.5769C12.7491 11.6099 12.7571 11.6419 12.7721 11.6709C12.7891 11.7019 12.8041 11.7329 12.8191 11.7649L15.5371 14.4569C15.6731 14.6029 15.7491 14.7969 15.7471 14.9969C15.7491 15.1969 15.6741 15.3899 15.5371 15.5369C15.3801 15.6769 15.2001 15.7469 14.9971 15.7469C14.7941 15.7469 14.6141 15.6769 14.4581 15.5369L11.7651 12.8189C11.5931 12.6629 11.4601 12.4759 11.3661 12.2569C11.2891 12.0379 11.2491 11.8119 11.2491 11.5779V6.0049C11.2471 5.9089 11.2641 5.8139 11.3001 5.7249C11.3361 5.6359 11.3901 5.5559 11.4581 5.4889C11.5271 5.4149 11.6111 5.3559 11.7041 5.3159C11.7971 5.2759 11.8971 5.2549 11.9981 5.2549C12.0961 5.2539 12.1931 5.2739 12.2821 5.3149C12.3711 5.3559 12.4501 5.4149 12.5141 5.4889C12.5881 5.5529 12.6481 5.6319 12.6881 5.7209L12.6901 5.7199Z" fill="white"/>
</svg>
