<svg width="24" height="24" viewBox="0 0 24 24" fill="none" xmlns="http://www.w3.org/2000/svg">
<path d="M2.16413 6.98845C1.96266 6.41473 1.9463 5.79294 2.11709 5.21001C2.27356 4.67208 2.57422 4.18631 2.98432 3.80383C3.39032 3.41419 3.88121 3.16465 4.45902 3.0542C5.02149 2.92944 5.60749 3.01432 6.21598 3.31192L20.9231 10.2897C21.641 10.6333 22 11.2029 22 11.9996C22 12.7962 21.64 13.3659 20.9231 13.7085L6.21598 20.6882C5.60851 20.9848 5.02252 21.0707 4.46004 20.946C3.90882 20.8498 3.39748 20.5983 2.98534 20.2209C2.57729 19.8282 2.27867 19.3352 2.11811 18.7922C1.9463 18.2093 1.96266 17.5865 2.16515 17.0127L3.78098 11.9996L2.16515 6.98743L2.16413 6.98845ZM5.11558 12.7492L3.59383 17.4791C3.37498 18.1356 3.50793 18.6736 3.99166 19.0959C4.49072 19.5163 5.01433 19.6022 5.56044 19.3526L20.2911 12.3514C20.3525 12.3207 20.4016 12.2716 20.4312 12.2102C20.4772 12.1499 20.5018 12.0753 20.5008 11.9996C20.5008 11.9239 20.4762 11.8503 20.4312 11.7899C20.4016 11.7286 20.3525 11.6785 20.2911 11.6478L5.56044 4.64651C5.01433 4.39698 4.49175 4.48289 3.99166 4.90321C3.50691 5.32455 3.37396 5.8635 3.59179 6.52006L5.11558 11.2499H8.98028C9.18277 11.2499 9.35458 11.3277 9.49469 11.4841C9.65014 11.6253 9.7299 11.7971 9.7299 11.9996C9.7299 12.1008 9.70843 12.201 9.66854 12.2941C9.62866 12.3872 9.56934 12.47 9.49469 12.5395C9.42821 12.6081 9.34742 12.6612 9.25947 12.6981C9.17152 12.7349 9.07641 12.7512 8.98028 12.7502L5.11558 12.7492Z" fill="white"/>
</svg>
