<svg width="24" height="24" viewBox="0 0 24 24" fill="none" xmlns="http://www.w3.org/2000/svg">
<path d="M22 11.999C22 17.522 17.523 21.999 12 21.999C6.477 21.999 2 17.522 2 11.999C2 6.47602 6.477 1.99902 12 1.99902C17.523 1.99902 22 6.47602 22 11.999ZM20.5 11.999C20.5 9.92102 19.754 8.01702 18.516 6.54002L6.542 18.514C8.019 19.752 9.923 20.498 12.001 20.498C16.695 20.498 20.501 16.692 20.501 11.998L20.5 11.999ZM17.455 5.48002C15.979 4.24302 14.076 3.49902 12 3.49902C7.306 3.49902 3.5 7.30502 3.5 11.999C3.5 14.075 4.244 15.978 5.481 17.454L17.455 5.48002Z" fill="white"/>
</svg>
