<svg width="24" height="24" viewBox="0 0 24 24" fill="none" xmlns="http://www.w3.org/2000/svg">
<path d="M10.5096 8.16356C10.8208 7.53553 11.294 7.00204 11.8805 6.61824C12.4671 6.23751 13.1186 6.04306 13.8765 6.04306L13.8844 6.04302C14.3754 6.04043 14.8616 6.14046 15.3117 6.33669C15.7756 6.53967 16.1731 6.81492 16.5146 7.16614L16.5279 7.1797C16.8758 7.52846 17.1547 7.93969 17.3502 8.39182L17.3587 8.41114C17.5668 8.87458 17.6773 9.36617 17.6872 9.90105C17.6978 10.4693 18.0286 10.9827 18.5416 11.2272C19.1102 11.4982 19.5769 11.911 19.9531 12.5086L19.9592 12.5181C20.318 13.0786 20.5011 13.7013 20.5011 14.4248C20.5011 14.8931 20.4237 15.32 20.2758 15.7176L20.273 15.7254C20.1326 16.1091 19.9227 16.4636 19.6538 16.7711L19.6394 16.7879C19.3857 17.0869 19.0796 17.3406 18.7102 17.5491C18.3558 17.748 17.9663 17.8762 17.5631 17.9266C17.5098 17.9333 17.4571 17.9428 17.405 17.9551H6.84971C6.37257 17.9551 5.95415 17.8631 5.57566 17.6906L5.55526 17.6815C5.15606 17.5068 4.79374 17.2578 4.48749 16.948C4.18404 16.611 3.93951 16.2252 3.7642 15.8069C3.58628 15.3712 3.49621 14.9047 3.49912 14.434V14.4248C3.49912 13.9908 3.56546 13.5879 3.69321 13.2066C3.83782 12.816 4.03045 12.4715 4.26736 12.1681C4.5125 11.8692 4.80615 11.6137 5.13606 11.4122C5.14503 11.4067 5.15395 11.4011 5.1628 11.3954C5.48715 11.1878 5.84634 11.0405 6.22306 10.9607C6.74105 10.8508 7.16276 10.4761 7.33265 9.97454C7.43212 9.68091 7.61843 9.42443 7.8669 9.23902L7.87344 9.23409C8.10741 9.05749 8.39165 8.96073 8.68429 8.9576C8.76147 8.97021 8.83953 8.97677 8.91776 8.97721C8.99937 8.99083 9.08281 8.99768 9.16555 8.99768C9.7357 8.99768 10.2565 8.67445 10.5096 8.16356ZM11.0615 5.36155C10.2503 5.8918 9.59575 6.62932 9.16555 7.49768C9.08634 7.48405 9.00543 7.47724 8.92622 7.47724C8.85893 7.46446 8.7925 7.45765 8.72606 7.45765C8.09278 7.45167 7.47529 7.6553 6.9698 8.03682C6.47781 8.40396 6.10891 8.91185 5.91195 9.49328C5.35844 9.61063 4.83069 9.82704 4.35415 10.1321C3.87559 10.4244 3.45019 10.7959 3.09614 11.2308C2.7512 11.6694 2.47779 12.1626 2.27849 12.7077C2.09281 13.2536 1.99912 13.8252 1.99912 14.4248C1.99498 15.0953 2.1238 15.7599 2.37814 16.3803C2.6232 16.9672 2.9675 17.5074 3.39595 17.9773C3.84083 18.4338 4.36982 18.8 4.95376 19.0556C5.5389 19.3222 6.17088 19.4551 6.84971 19.4551H17.6496C17.6837 19.4441 17.717 19.4307 17.7493 19.415C18.3456 19.3404 18.9219 19.1507 19.4459 18.8563C19.9655 18.5633 20.4109 18.1971 20.7831 17.7584C21.1734 17.312 21.478 16.7975 21.6817 16.2407C21.8946 15.6683 22.0011 15.0636 22.0011 14.4248C22.0011 13.4266 21.7422 12.5212 21.2226 11.7095C20.703 10.8841 20.0251 10.2726 19.187 9.87315C19.1733 9.14066 19.02 8.44906 18.727 7.79664C18.4568 7.17139 18.071 6.60272 17.59 6.12044C17.1105 5.62729 16.5509 5.24146 15.9121 4.96209C15.2702 4.68208 14.5768 4.53935 13.8765 4.54304C12.8382 4.54304 11.9004 4.81644 11.0615 5.36155Z" fill="white"/>
<path d="M13.8306 13.7622C13.6746 13.8872 13.5026 13.9492 13.3146 13.9492V13.9502C13.1276 13.9502 12.9626 13.8872 12.8226 13.7622C12.6976 13.6222 12.6116 13.4342 12.5646 13.2002V10.351C12.5646 10.116 12.6276 9.936 12.7516 9.811C12.8926 9.67 13.0806 9.6 13.3146 9.6C13.5486 9.6 13.7286 9.678 13.8546 9.835C13.9946 9.99 14.0646 10.163 14.0646 10.35V13.2002C14.069 13.3053 14.0503 13.4101 14.0099 13.5072C13.9695 13.6043 13.9083 13.6913 13.8306 13.7622Z" fill="white"/>
<path d="M13.0204 14.8554C13.1133 14.8151 13.2134 14.7943 13.3146 14.7943C13.4125 14.793 13.5095 14.8133 13.5987 14.8538C13.6879 14.8942 13.7671 14.9538 13.8306 15.0283C13.905 15.0917 13.9645 15.1707 14.0049 15.2597C14.0454 15.3487 14.0657 15.4455 14.0646 15.5433C14.0646 15.6445 14.0438 15.7446 14.0035 15.8375C13.9633 15.9304 13.9044 16.014 13.8306 16.0833C13.6896 16.2233 13.5176 16.2933 13.3146 16.2933C13.1116 16.2933 12.9316 16.2233 12.7746 16.0833C12.6346 15.9273 12.5646 15.7473 12.5646 15.5443C12.5625 15.4485 12.58 15.3533 12.6162 15.2645C12.6523 15.1758 12.7062 15.0954 12.7746 15.0283C12.8439 14.9545 12.9275 14.8956 13.0204 14.8554Z" fill="white"/>
</svg>
