<svg width="24" height="24" viewBox="0 0 24 24" fill="none" xmlns="http://www.w3.org/2000/svg">
<path d="M15.5133 3.9892H14.5533C14.4173 3.4182 14.0853 2.9122 13.6163 2.5602C13.1593 2.1902 12.5883 1.9922 12.0003 1.9992C11.4063 1.9942 10.8273 2.1932 10.3613 2.5622C9.90334 2.9202 9.58034 3.4242 9.44734 3.9912H8.48834C7.33234 3.9912 6.34934 4.3972 5.53634 5.2082C4.72634 6.0192 4.31934 7.0032 4.31934 8.1582V17.8072C4.31934 18.9632 4.72534 19.9542 5.53634 20.7822C6.34834 21.5942 7.33234 22.0002 8.48734 22.0002H15.5143C16.6693 22.0002 17.6523 21.5942 18.4653 20.7822C19.2763 19.9552 19.6823 18.9712 19.6823 17.8312V8.1582C19.6823 7.0032 19.2763 6.0202 18.4653 5.2072C17.6533 4.3962 16.6683 3.9892 15.5133 3.9892ZM12.0003 5.9572C11.6403 5.9572 11.3293 5.8312 11.0633 5.5812C10.8203 5.3312 10.6853 4.9942 10.6893 4.6452C10.6893 4.2852 10.8133 3.9812 11.0633 3.7322C11.3293 3.4662 11.6423 3.3332 12.0003 3.3332C12.3603 3.3332 12.6643 3.4662 12.9133 3.7322C13.1793 3.9822 13.3123 4.2862 13.3123 4.6452C13.3123 5.0042 13.1793 5.3162 12.9133 5.5812C12.6633 5.8312 12.3583 5.9572 12.0003 5.9572ZM12.0003 7.2682C12.6103 7.2682 13.1473 7.0802 13.6163 6.7052C14.1013 6.3302 14.4123 5.8622 14.5533 5.3002H15.5123C16.3083 5.3002 16.9813 5.5812 17.5263 6.1432C18.0893 6.6892 18.3693 7.3602 18.3693 8.1562V17.8052C18.3693 18.6012 18.0883 19.2812 17.5263 19.8432C16.9793 20.3892 16.3093 20.6622 15.5133 20.6622H8.48634C8.10934 20.6692 7.73434 20.6002 7.38434 20.4592C7.03434 20.3182 6.71634 20.1092 6.44834 19.8432C6.18234 19.5762 5.97234 19.2572 5.83134 18.9072C5.69034 18.5572 5.62134 18.1822 5.62834 17.8052V8.1562C5.62834 7.3602 5.90134 6.6882 6.44734 6.1432C6.71134 5.8712 7.02834 5.6552 7.37934 5.5102C7.73034 5.3652 8.10634 5.2932 8.48634 5.3002H9.44534C9.58534 5.8622 9.89134 6.3302 10.3583 6.7052C10.8243 7.0742 11.4033 7.2722 11.9983 7.2682H12.0003Z" fill="white"/>
<path d="M8.18312 15.8154C8.05812 15.9404 7.99512 16.0974 7.99512 16.2844C7.99612 16.4584 8.06312 16.6264 8.18312 16.7534C8.31712 16.8754 8.49312 16.9424 8.67512 16.9404H15.3261C15.4131 16.9434 15.4991 16.9274 15.5801 16.8954C15.6611 16.8634 15.7341 16.8154 15.7951 16.7534C15.8601 16.6934 15.9121 16.6214 15.9481 16.5414C15.9841 16.4614 16.0031 16.3744 16.0051 16.2864C16.0051 16.0984 15.9351 15.9414 15.7951 15.8164C15.6701 15.6764 15.5141 15.6064 15.3261 15.6064H8.67512C8.48712 15.6064 8.32312 15.6754 8.18312 15.8154Z" fill="white"/>
<path d="M8.18329 12.9354C8.31729 12.8124 8.49329 12.7454 8.67529 12.7474H15.3263C15.4133 12.7444 15.4993 12.7604 15.5803 12.7924C15.6613 12.8244 15.7343 12.8724 15.7953 12.9344C15.8623 12.9924 15.9163 13.0644 15.9533 13.1454C15.9903 13.2264 16.0073 13.3144 16.0053 13.4034C16.0073 13.4924 15.9893 13.5804 15.9533 13.6614C15.9173 13.7424 15.8633 13.8144 15.7953 13.8724C15.7343 13.9344 15.6613 13.9824 15.5803 14.0144C15.4993 14.0464 15.4133 14.0624 15.3263 14.0594H8.67529C8.48729 14.0594 8.32329 13.9964 8.18329 13.8714C8.05829 13.7464 7.99529 13.5904 7.99529 13.4024C7.99329 13.3154 8.00829 13.2294 8.04129 13.1494C8.07429 13.0694 8.12229 12.9964 8.18329 12.9354Z" fill="white"/>
<path d="M8.40729 9.92121C8.49229 9.88521 8.58329 9.86621 8.67529 9.86621V9.86721H15.3263C15.4153 9.86521 15.5033 9.88321 15.5843 9.91921C15.6653 9.95521 15.7373 10.0092 15.7953 10.0772C15.8623 10.1352 15.9163 10.2072 15.9523 10.2872C15.9883 10.3672 16.0063 10.4562 16.0043 10.5442C16.0033 10.6322 15.9843 10.7202 15.9483 10.8012C15.9123 10.8822 15.8603 10.9542 15.7953 11.0142C15.7343 11.0762 15.6613 11.1242 15.5803 11.1562C15.4993 11.1882 15.4133 11.2032 15.3263 11.2012H8.67529C8.48729 11.2012 8.32329 11.1392 8.18329 11.0142C8.05829 10.8732 7.99529 10.7172 7.99529 10.5452C7.99329 10.4582 8.00829 10.3722 8.04029 10.2912C8.07229 10.2102 8.12129 10.1372 8.18229 10.0762C8.24529 10.0092 8.32129 9.95621 8.40629 9.92021L8.40729 9.92121Z" fill="white"/>
</svg>
