<svg width="24" height="24" viewBox="0 0 24 24" fill="none" xmlns="http://www.w3.org/2000/svg">
<path d="M13.7976 12.2113C15.255 11.2819 16.2239 9.64147 16.2239 7.77147C16.2239 4.87392 13.8977 2.52454 11.0275 2.52454C8.15727 2.52454 5.83115 4.87392 5.83115 7.77147C5.83115 9.63945 6.798 11.2799 8.25537 12.2103C7.58383 12.4288 6.93656 12.7271 6.32873 13.1003C5.03015 13.8983 3.95305 15.0148 3.19655 16.3458C2.44006 17.6767 2.02844 19.1796 2.00012 20.7138C1.99304 21.1113 2.30656 21.441 2.70099 21.4491C3.09542 21.4572 3.42108 21.1426 3.42816 20.7452C3.45142 19.4527 3.79831 18.1864 4.43648 17.0648C5.07465 15.9432 5.98184 15.0027 7.07613 14.3301C8.16941 13.6576 9.41439 13.2753 10.6927 13.2176C11.9711 13.16 13.2434 13.43 14.3913 14.0014C14.7453 14.1774 15.1731 14.0318 15.347 13.6758C15.521 13.3198 15.3743 12.8879 15.0204 12.7109C14.6249 12.5137 14.2163 12.3469 13.7986 12.2103L13.7976 12.2113ZM14.7898 7.77147C14.7898 9.89026 13.0927 11.5843 11.0275 11.5843C8.96231 11.5843 7.26525 9.89026 7.26525 7.77147C7.26525 5.65267 8.96231 3.95864 11.0275 3.95864C13.0927 3.95864 14.7898 5.65267 14.7898 7.77147Z" fill="white"/>
<path d="M11.9489 15.5071C11.9873 15.3038 12.2806 15.2987 12.3261 15.5L12.6973 17.1283C12.7134 17.2001 12.7701 17.2557 12.8439 17.2719L14.3913 17.6117C14.5936 17.6562 14.5915 17.9414 14.3883 17.9819L12.8469 18.2944C12.7731 18.3096 12.7145 18.3652 12.6983 18.438L12.3281 20.0511C12.2816 20.2524 11.9893 20.2463 11.9509 20.044L11.6495 18.4491C11.6343 18.3702 11.5716 18.3096 11.4917 18.2964L9.93726 18.0405C9.73196 18.0061 9.71982 17.7199 9.92108 17.6694L11.5039 17.2739C11.5767 17.2557 11.6323 17.1971 11.6454 17.1242L11.9489 15.5051V15.5071Z" fill="white"/>
<path d="M16 16.3393C16 15.528 16.9382 15.0471 17.6323 15.5026L21.0415 17.7397C21.6528 18.1408 21.6528 19.0121 21.0415 19.4132L17.6323 21.6504C16.9382 22.1058 16 21.6249 16 20.8136V16.3393Z" fill="white"/>
</svg>
