<svg width="24" height="24" viewBox="0 0 24 24" fill="none" xmlns="http://www.w3.org/2000/svg">
<path d="M6.01015 2.45148C3.79541 2.45148 2 4.24234 2 6.45148V13.4515C2 15.6606 3.79541 17.4515 6.01015 17.4515H7.01705V21.0475C7.01705 21.4816 7.53349 21.7095 7.85549 21.4175L12.2296 17.4515H17.9898C20.2046 17.4515 22 15.6606 22 13.4515V6.45148C22 4.24234 20.2046 2.45148 17.9898 2.45148L6.01015 2.45148ZM6.51142 3.95148H17.4886C19.1496 3.95148 20.4962 5.29462 20.4962 6.95148V12.9515C20.4962 14.6083 19.1496 15.9515 18.2426 15.9515H11.9479C11.7653 15.9515 11.5899 16.0225 11.4589 16.1493L8.73319 18.7901C8.54249 18.9749 8.22287 18.8401 8.22287 18.5749V16.3515C8.22287 16.1306 8.04333 15.9515 7.82186 15.9515H6.51142C4.85036 15.9515 3.50381 14.6083 3.50381 12.9515V6.95148C3.50381 5.29462 4.85036 3.95148 6.51142 3.95148Z" fill="white"/>
<path d="M10.6073 11.3966C11.0253 11.6264 11.1495 12.1792 10.7713 12.4695C10.2546 12.8663 9.60735 13.1022 8.90488 13.1022C7.21346 13.1022 5.84229 11.7345 5.84229 10.0473C5.84229 8.36019 7.21346 6.99249 8.90488 6.99249C9.57564 6.99249 10.196 7.20758 10.7005 7.57238C11.0922 7.85562 10.9766 8.41912 10.5557 8.65704C10.2396 8.83569 9.84833 8.75717 9.51397 8.61548C9.32686 8.53619 9.12101 8.49232 8.9049 8.49232C8.04391 8.49232 7.34595 9.18852 7.34595 10.0473C7.34595 10.9061 8.04391 11.6023 8.9049 11.6023C9.13661 11.6023 9.35651 11.5519 9.55419 11.4615C9.8888 11.3083 10.2849 11.2193 10.6073 11.3966Z" fill="white"/>
<path d="M17.7675 11.3966C18.1855 11.6264 18.3097 12.1792 17.9315 12.4695C17.4148 12.8663 16.7676 13.1022 16.0651 13.1022C14.3737 13.1022 13.0025 11.7345 13.0025 10.0473C13.0025 8.36019 14.3737 6.99249 16.0651 6.99249C16.7359 6.99249 17.3562 7.20758 17.8607 7.57238C18.2524 7.85562 18.1368 8.41912 17.7159 8.65704C17.3998 8.83569 17.0085 8.75717 16.6742 8.61548C16.4871 8.53619 16.2812 8.49232 16.0651 8.49232C15.2041 8.49232 14.5062 9.18852 14.5062 10.0473C14.5062 10.9061 15.2041 11.6023 16.0651 11.6023C16.2968 11.6023 16.5167 11.5519 16.7144 11.4615C17.049 11.3083 17.4451 11.2193 17.7675 11.3966Z" fill="white"/>
</svg>
