<svg width="24" height="24" viewBox="0 0 24 24" fill="none" xmlns="http://www.w3.org/2000/svg">
<path d="M13.336 3.98995C12.976 3.66195 12.532 3.49795 12.001 3.49795C11.47 3.49795 11.025 3.66195 10.666 3.98995L3.99095 9.79795C3.83495 9.95395 3.71095 10.118 3.61595 10.29C3.53795 10.459 3.49895 10.643 3.49895 10.83V19.002C3.49895 19.346 3.65495 19.681 3.96795 20.009C4.29595 20.337 4.75595 20.501 5.34995 20.501H7.55095C8.14495 20.501 8.59695 20.337 8.90995 20.009C9.23695 19.681 9.40095 19.345 9.40095 19.002V16.519C9.40095 15.879 9.62095 15.388 10.057 15.044C10.494 14.684 10.954 14.504 11.439 14.504H12.562C13.047 14.504 13.507 14.684 13.944 15.044C14.382 15.388 14.6 15.879 14.6 16.519V19.002C14.6 19.346 14.756 19.681 15.068 20.009C15.396 20.337 15.857 20.501 16.45 20.501H18.651C19.245 20.501 19.697 20.337 20.01 20.009C20.338 19.681 20.502 19.345 20.502 19.002V10.829C20.502 10.641 20.454 10.455 20.362 10.29C20.275 10.106 20.156 9.93995 20.01 9.79795L13.336 3.98995ZM20.994 8.67495C21.307 8.95595 21.549 9.28495 21.72 9.65795C21.907 10.033 22 10.423 22 10.829V19.002C22 19.829 21.673 20.54 21.017 21.133C20.362 21.711 19.573 21.999 18.652 21.999H16.451C15.53 21.999 14.742 21.709 14.086 21.133C13.431 20.539 13.103 19.829 13.103 19.002V16.519C13.104 16.452 13.089 16.385 13.061 16.325C13.033 16.265 12.99 16.211 12.938 16.169C12.892 16.115 12.835 16.073 12.77 16.044C12.705 16.015 12.635 16.002 12.564 16.005H11.439C11.365 16.004 11.292 16.018 11.223 16.046C11.154 16.074 11.093 16.116 11.041 16.169C10.995 16.215 10.959 16.27 10.935 16.33C10.911 16.39 10.9 16.455 10.901 16.52V19.003C10.901 19.83 10.572 20.541 9.91695 21.134C9.26195 21.712 8.47295 22 7.55195 22H5.35095C4.42995 22 3.64095 21.71 2.98595 21.134C2.32995 20.54 2.00195 19.83 2.00195 19.003V10.83C2.00195 10.424 2.08795 10.034 2.25995 9.65895C2.44795 9.28395 2.69795 8.95695 3.00895 8.67595L9.68395 2.86795C10.324 2.28995 11.097 2.00195 12.002 2.00195C12.907 2.00195 13.681 2.29195 14.32 2.86795L20.995 8.67595L20.994 8.67495Z" fill="white"/>
</svg>
