<svg width="24" height="24" viewBox="0 0 24 24" fill="none" xmlns="http://www.w3.org/2000/svg">
<path d="M19.563 2.18804C19.895 2.29104 20.21 2.44104 20.5 2.63304C20.532 2.46004 20.623 2.30304 20.758 2.18804C20.892 2.06504 21.068 1.99804 21.25 2.00004C21.348 1.99904 21.444 2.02004 21.533 2.06004C21.622 2.10004 21.701 2.16004 21.764 2.23504C21.838 2.29804 21.898 2.37704 21.939 2.46604C21.98 2.55504 22 2.65204 21.999 2.75004V8.25504C21.999 8.35604 21.978 8.45604 21.938 8.54904C21.898 8.64204 21.839 8.72504 21.765 8.79404C21.625 8.93404 21.453 9.00404 21.25 9.00404C21.062 9.00404 20.898 8.94204 20.758 8.81604C20.624 8.70204 20.533 8.54504 20.5 8.37104C20.219 8.57404 19.906 8.73004 19.563 8.84004C19.22 8.95004 18.86 9.00404 18.486 9.00404C18.026 9.01204 17.569 8.92604 17.142 8.75304C16.715 8.58004 16.328 8.32304 16.003 7.99604C15.331 7.30904 14.996 6.48204 14.996 5.51304C14.988 5.05304 15.074 4.59504 15.247 4.16904C15.42 3.74304 15.678 3.35504 16.004 3.03004C16.691 2.34304 17.518 2.00004 18.487 2.00004C18.854 1.99904 19.218 2.06304 19.563 2.18804ZM17.723 7.35804C17.965 7.45904 18.224 7.50904 18.486 7.50504C19.049 7.50504 19.525 7.30904 19.915 6.91904C20.306 6.52804 20.501 6.06004 20.501 5.51404C20.501 4.95104 20.305 4.47504 19.915 4.08504C19.525 3.69504 19.049 3.49904 18.486 3.49904C17.94 3.49904 17.471 3.69504 17.081 4.08504C16.69 4.47504 16.495 4.95104 16.495 5.51404C16.495 6.06004 16.691 6.52904 17.081 6.91904C17.263 7.10704 17.481 7.25804 17.723 7.35804Z" fill="white"/>
<path d="M19.424 20.928L11.435 3.94404C11.377 3.80804 11.279 3.69404 11.154 3.61504C11.031 3.53904 10.889 3.49904 10.744 3.49904C10.599 3.49904 10.457 3.53904 10.334 3.61504C10.22 3.69904 10.131 3.81304 10.076 3.94404L2.06404 20.927C1.98604 21.113 1.97804 21.321 2.04104 21.513C2.11704 21.698 2.25804 21.848 2.43904 21.935C2.61704 22.013 2.81804 22.021 3.00204 21.958C3.09604 21.925 3.18304 21.873 3.25504 21.805C3.32704 21.737 3.38504 21.654 3.42404 21.562L6.16504 15.752H15.324L18.065 21.562C18.151 21.742 18.302 21.884 18.487 21.96C18.679 22.023 18.886 22.015 19.073 21.937C19.161 21.896 19.24 21.837 19.304 21.765C19.368 21.693 19.417 21.607 19.448 21.515C19.487 21.422 19.505 21.321 19.501 21.22C19.497 21.119 19.471 21.02 19.425 20.93L19.424 20.928ZM10.756 6.00604L14.621 14.251H6.86804L10.756 6.00604Z" fill="white"/>
</svg>
