<svg width="24" height="24" viewBox="0 0 24 24" fill="none" xmlns="http://www.w3.org/2000/svg">
<path d="M8.17868 2.21003C7.82568 2.35403 7.50568 2.56703 7.23668 2.83703L5.92668 4.12203C5.77668 4.25803 5.70168 4.43103 5.70168 4.64103C5.69968 4.73303 5.71668 4.82503 5.75168 4.91103C5.78668 4.99703 5.83868 5.07403 5.90468 5.13803C5.97068 5.20903 6.05168 5.26503 6.14068 5.30403C6.22968 5.34303 6.32568 5.36303 6.42268 5.36303C6.61568 5.36403 6.80168 5.29203 6.94268 5.16003L8.25268 3.87503C8.53868 3.58903 8.88568 3.44503 9.29168 3.44503C9.48868 3.44003 9.68368 3.47603 9.86668 3.55003C10.0497 3.62403 10.2147 3.73403 10.3527 3.87503L11.1427 4.64203L4.14568 11.437C3.36268 12.205 2.97168 13.13 2.97168 14.214C2.97168 15.298 3.36268 16.223 4.14568 16.991L6.87468 19.654C7.65768 20.407 8.59868 20.783 9.69668 20.783C10.8107 20.783 11.7587 20.407 12.5407 19.654L19.2897 13.086C19.6507 12.74 19.8317 12.318 19.8317 11.822C19.8317 11.326 19.6507 10.904 19.2897 10.558L11.3677 2.83803C10.7957 2.28203 10.1027 2.00303 9.29168 2.00303C8.91068 1.99703 8.53268 2.06903 8.17968 2.21203L8.17868 2.21003ZM5.15968 12.474L12.1807 5.63503L18.2747 11.571C18.3097 11.603 18.3367 11.641 18.3567 11.683C18.3767 11.725 18.3867 11.772 18.3877 11.818C18.3867 11.865 18.3767 11.911 18.3567 11.954C18.3367 11.997 18.3097 12.035 18.2747 12.067L17.7557 12.564H5.04768C5.07268 12.553 5.09468 12.537 5.11468 12.519L5.15968 12.474Z" fill="white"/>
<path d="M19.1097 17.169L20.4637 18.591C20.8397 18.982 21.0277 19.456 21.0277 20.012C21.0277 20.554 20.8397 21.02 20.4637 21.411C20.0877 21.802 19.6287 21.999 19.0867 21.999C18.8327 22.002 18.5807 21.951 18.3467 21.849C18.1127 21.747 17.9037 21.599 17.7317 21.411C17.5497 21.227 17.4057 21.008 17.3087 20.768C17.2117 20.528 17.1637 20.271 17.1677 20.011C17.1677 19.454 17.3557 18.98 17.7317 18.59L19.1087 17.168L19.1097 17.169Z" fill="white"/>
</svg>
