<svg width="24" height="24" viewBox="0 0 24 24" fill="none" xmlns="http://www.w3.org/2000/svg">
<path d="M11.9994 19.075C11.9114 19.077 11.8244 19.093 11.7414 19.122C11.6584 19.14 11.5794 19.171 11.5074 19.216L6.63538 21.909C6.51138 21.979 6.36838 22.009 6.22638 21.997C6.08438 21.985 5.94938 21.929 5.83938 21.839C5.58938 21.651 5.49538 21.393 5.55838 21.065L6.49438 15.327C6.52538 15.171 6.51838 15.01 6.47138 14.858C6.42538 14.704 6.33538 14.565 6.21338 14.46L2.23238 10.385C2.01238 10.166 1.95038 9.90005 2.04438 9.58905C2.13838 9.27605 2.34138 9.09705 2.65438 9.04905L8.11138 8.22905C8.27238 8.20305 8.42538 8.13905 8.55738 8.04205C8.69738 7.93205 8.80738 7.80805 8.88538 7.66705L11.3204 2.44405C11.3884 2.31505 11.4844 2.20205 11.6024 2.11505C11.7214 2.03905 11.8594 1.99805 12.0004 1.99805C12.1404 1.99805 12.2664 2.03805 12.3754 2.11505C12.5034 2.19705 12.6084 2.31005 12.6804 2.44405L15.1154 7.66705C15.1934 7.80705 15.2954 7.93305 15.4204 8.04205C15.5604 8.13605 15.7174 8.19805 15.8894 8.23005L21.3464 9.05005C21.6594 9.09705 21.8624 9.27605 21.9564 9.58905C22.0504 9.90105 21.9874 10.167 21.7684 10.385L17.7884 14.459C17.6784 14.57 17.5974 14.707 17.5544 14.857C17.5074 15.009 17.4914 15.169 17.5074 15.327L18.4434 21.064C18.5064 21.392 18.4134 21.65 18.1634 21.838C18.0534 21.929 17.9174 21.984 17.7754 21.996C17.6334 22.008 17.4904 21.978 17.3654 21.908L12.4934 19.215C12.4144 19.168 12.3264 19.136 12.2354 19.121C12.1614 19.091 12.0814 19.075 12.0014 19.074L12.0004 19.075H11.9994ZM11.9994 4.52905V17.576C12.2024 17.576 12.4054 17.607 12.6094 17.67C12.8124 17.717 13.0154 17.795 13.2184 17.904L16.7314 19.849L16.0284 15.562C15.9654 15.179 15.9894 14.787 16.0984 14.415C16.2244 14.025 16.4274 13.689 16.7084 13.408L19.7294 10.316L15.6544 9.70705C15.2474 9.64405 14.8614 9.48305 14.5304 9.23805C14.2044 8.99005 13.9394 8.66905 13.7574 8.30205L12.0004 4.53005L11.9994 4.52905Z" fill="white"/>
</svg>
