<svg width="24" height="24" viewBox="0 0 24 24" fill="none" xmlns="http://www.w3.org/2000/svg">
<path d="M16.9531 16.7999C17.0463 16.8406 17.1294 16.9011 17.1965 16.9774L18.2055 17.9604C18.342 18.1069 18.4172 18.3002 18.4155 18.5004C18.4172 18.7007 18.342 18.894 18.2055 19.0404C18.0485 19.1804 17.8685 19.2504 17.6655 19.2504C17.4625 19.2504 17.2825 19.1794 17.1265 19.0394L16.1425 18.0314C15.9855 17.8914 15.9075 17.7194 15.9075 17.5164C15.9047 17.4149 15.9244 17.3139 15.965 17.2208C16.0056 17.1276 16.0662 17.0446 16.1425 16.9774C16.2058 16.9029 16.2848 16.8432 16.3738 16.8026C16.4628 16.762 16.5597 16.7414 16.6575 16.7424C16.7591 16.7397 16.86 16.7593 16.9531 16.7999Z" fill="white"/>
<path d="M8.03332 17.8001C7.9927 17.8891 7.93301 17.9681 7.85847 18.0315L6.87547 19.0405C6.71847 19.1805 6.53847 19.2505 6.33547 19.2505C6.13247 19.2505 5.95247 19.1805 5.79547 19.0405C5.65547 18.8835 5.58547 18.7035 5.58547 18.5005C5.58427 18.3004 5.65979 18.1075 5.79647 17.9615L6.80447 16.9775C6.86783 16.9029 6.9468 16.8432 7.0358 16.8026C7.1248 16.762 7.22165 16.7415 7.31947 16.7425C7.42097 16.7396 7.52186 16.7591 7.615 16.7995C7.70814 16.8399 7.79126 16.9004 7.85847 16.9765C7.93489 17.0437 7.99557 17.1269 8.03619 17.2203C8.0768 17.3136 8.09636 17.4147 8.09347 17.5165C8.09446 17.6143 8.07393 17.7111 8.03332 17.8001Z" fill="white"/>
<path d="M18.4155 6.73636C18.4169 6.93626 18.3418 7.12914 18.2055 7.27536H18.2045L17.1975 8.25936C17.1302 8.33578 17.047 8.39646 16.9537 8.43707C16.8604 8.47769 16.7592 8.49725 16.6575 8.49436C16.4545 8.49436 16.2825 8.41636 16.1425 8.25936C15.9855 8.11936 15.9075 7.94736 15.9075 7.74436C15.9047 7.64278 15.9244 7.54184 15.965 7.4487C16.0056 7.35555 16.0662 7.27248 16.1425 7.20536L17.1255 6.19636C17.2719 6.0598 17.4652 5.98463 17.6655 5.98636C17.8657 5.98463 18.059 6.0598 18.2055 6.19636C18.342 6.34283 18.4172 6.53611 18.4155 6.73636Z" fill="white"/>
<path d="M6.33195 5.98586C6.5322 5.98413 6.72548 6.0593 6.87195 6.19586V6.19786L7.85495 7.20386C7.93137 7.27109 7.99205 7.35432 8.03266 7.44765C8.07328 7.54098 8.09284 7.64211 8.08995 7.74386C8.091 7.84159 8.07058 7.93837 8.03015 8.02735C7.98972 8.11633 7.93025 8.19536 7.85595 8.25886C7.78872 8.33528 7.70548 8.39596 7.61215 8.43657C7.51882 8.47719 7.41769 8.49675 7.31595 8.49386C7.11295 8.49386 6.94095 8.41586 6.80095 8.25886L5.79195 7.27586C5.65195 7.11886 5.58195 6.93886 5.58195 6.73586C5.58022 6.53561 5.65539 6.34233 5.79195 6.19586C5.93842 6.0593 6.1317 5.98413 6.33195 5.98586Z" fill="white"/>
<path d="M12.0002 22.0031L9.46925 19.4711C9.32925 19.3311 9.25825 19.1591 9.25825 18.9561C9.25481 18.8566 9.27176 18.7574 9.30804 18.6647C9.34433 18.5721 9.39919 18.4878 9.46925 18.4171C9.5326 18.3425 9.61158 18.2828 9.70058 18.2422C9.78958 18.2016 9.88642 18.1811 9.98425 18.1821C10.0858 18.1793 10.1868 18.1989 10.2799 18.2396C10.3731 18.2802 10.4561 18.3408 10.5232 18.4171L11.2502 19.1201V16.9401C11.2481 16.8443 11.2657 16.749 11.3018 16.6603C11.3379 16.5715 11.3918 16.4911 11.4602 16.4241C11.5295 16.3502 11.6131 16.2914 11.706 16.2511C11.7989 16.2109 11.899 16.1901 12.0002 16.1901C12.0982 16.1888 12.1951 16.2091 12.2843 16.2495C12.3735 16.29 12.4527 16.3496 12.5162 16.4241C12.5907 16.4876 12.6503 16.5668 12.6908 16.656C12.7312 16.7452 12.7515 16.8421 12.7502 16.9401V19.1201L13.4772 18.4171C13.5406 18.3425 13.6196 18.2828 13.7086 18.2422C13.7976 18.2016 13.8944 18.1811 13.9922 18.1821C14.0939 18.179 14.195 18.1984 14.2883 18.2389C14.3816 18.2793 14.4649 18.3398 14.5322 18.4161C14.6023 18.487 14.657 18.5715 14.6931 18.6643C14.7292 18.7572 14.746 18.8565 14.7422 18.9561C14.7442 19.0518 14.7264 19.1468 14.6901 19.2354C14.6538 19.324 14.5998 19.4042 14.5312 19.4711L12.0002 22.0031Z" fill="white"/>
<path d="M21.9986 12.4984L19.4666 9.96736L19.4686 9.96636C19.3977 9.89636 19.3132 9.84161 19.2203 9.8055C19.1275 9.76938 19.0282 9.75266 18.9286 9.75636C18.7256 9.75636 18.5536 9.82636 18.4136 9.96636C18.2566 10.1074 18.1786 10.2874 18.1786 10.5064C18.1776 10.6042 18.1982 10.701 18.2388 10.79C18.2794 10.879 18.3391 10.958 18.4136 11.0214L19.1166 11.7484H16.9366C16.8354 11.7484 16.7353 11.7692 16.6424 11.8095C16.5495 11.8497 16.4659 11.9085 16.3966 11.9824C16.2566 12.1234 16.1866 12.2954 16.1866 12.4984C16.1849 12.6986 16.26 12.8919 16.3966 13.0384C16.5431 13.1749 16.7364 13.2501 16.9366 13.2484H19.1156L18.4126 13.9744C18.2556 14.1154 18.1776 14.2944 18.1776 14.5144C18.1765 14.6124 18.1969 14.7094 18.2376 14.7986C18.2782 14.8878 18.3379 14.9669 18.4126 15.0304C18.4796 15.0986 18.5598 15.1525 18.6484 15.1886C18.737 15.2247 18.832 15.2423 18.9276 15.2404C19.0271 15.2438 19.1262 15.2269 19.2189 15.1906C19.3116 15.1543 19.3959 15.0994 19.4666 15.0294L21.9986 12.4984Z" fill="white"/>
<path d="M4.53 9.96736L2 12.4984L4.531 15.0304C4.59797 15.0986 4.67821 15.1525 4.76678 15.1886C4.85535 15.2247 4.95037 15.2423 5.046 15.2404C5.14548 15.2438 5.24462 15.2269 5.33731 15.1906C5.43 15.1543 5.51429 15.0994 5.585 15.0294C5.65954 14.966 5.71923 14.887 5.75984 14.798C5.80046 14.709 5.82099 14.6122 5.82 14.5144C5.82 14.2954 5.742 14.1154 5.585 13.9754L4.882 13.2484H7.062C7.15779 13.2505 7.25301 13.2329 7.34176 13.1968C7.43051 13.1607 7.51091 13.1068 7.578 13.0384C7.65182 12.9691 7.71066 12.8855 7.75091 12.7926C7.79115 12.6997 7.81194 12.5996 7.812 12.4984C7.812 12.2954 7.734 12.1234 7.578 11.9824C7.437 11.8264 7.265 11.7484 7.062 11.7484H4.882L5.585 11.0214C5.65949 10.958 5.71914 10.879 5.75975 10.79C5.80036 10.701 5.82092 10.6042 5.82 10.5064C5.82 10.2874 5.742 10.1074 5.586 9.96636C5.51509 9.89636 5.4306 9.84161 5.33773 9.8055C5.24486 9.76938 5.14558 9.75266 5.046 9.75636C4.843 9.75636 4.671 9.82736 4.53 9.96736Z" fill="white"/>
<path d="M14.5303 4.53L11.9993 2V2.001L9.46734 4.53C9.39734 4.60091 9.34259 4.6854 9.30647 4.77827C9.27036 4.87114 9.25364 4.97042 9.25734 5.07C9.25549 5.1657 9.27325 5.26077 9.30954 5.34934C9.34583 5.43791 9.39987 5.51811 9.46834 5.585C9.53174 5.65949 9.61073 5.71914 9.69972 5.75975C9.78871 5.80036 9.88553 5.82092 9.98334 5.82C10.0849 5.82274 10.1859 5.80311 10.279 5.7625C10.3721 5.72189 10.4552 5.66129 10.5223 5.585L11.2493 4.882V7.062C11.2476 7.26225 11.3228 7.45553 11.4593 7.602C11.6058 7.73856 11.7991 7.81372 11.9993 7.812C12.0951 7.81412 12.1903 7.79658 12.2791 7.76046C12.3678 7.72434 12.4482 7.67041 12.5153 7.602C12.5892 7.53278 12.6481 7.44915 12.6883 7.35626C12.7286 7.26338 12.7493 7.16323 12.7493 7.062V4.882L13.4763 5.585C13.5397 5.65949 13.6187 5.71914 13.7077 5.75975C13.7967 5.80036 13.8935 5.82092 13.9913 5.82C14.0931 5.82289 14.1942 5.80333 14.2875 5.76272C14.3809 5.7221 14.4641 5.66142 14.5313 5.585C14.6713 5.445 14.7413 5.273 14.7413 5.07C14.7413 4.851 14.6703 4.671 14.5303 4.53Z" fill="white"/>
<path d="M15.0003 12C15.0003 11.1692 14.7084 10.4618 14.123 9.87725C13.5385 9.29266 12.8304 9 12.0003 9C11.1694 9 10.4621 9.29192 9.87753 9.87725C9.29295 10.4618 9.00028 11.1699 9.00028 12C9.00028 12.8308 9.2922 13.5382 9.87753 14.1228C10.4621 14.7073 11.1702 15 12.0003 15C12.8311 15 13.5385 14.7081 14.123 14.1228C14.7076 13.5382 15.0003 12.8301 15.0003 12ZM10.123 12C10.123 11.485 10.3042 11.0472 10.6672 10.6841C11.0414 10.3099 11.4861 10.1228 12.0003 10.1228V13.8772C11.753 13.8802 11.5076 13.8336 11.2787 13.7401C11.0497 13.6466 10.8418 13.5082 10.6672 13.3331C10.492 13.1585 10.3536 12.9506 10.2601 12.7216C10.1667 12.4927 10.12 12.2473 10.123 12Z" fill="white"/>
</svg>
