<svg width="24" height="24" viewBox="0 0 24 24" fill="none" xmlns="http://www.w3.org/2000/svg">
<path fill-rule="evenodd" clip-rule="evenodd" d="M4 18C4 19.1046 4.89543 20 6 20H11.25L11.25 21.25C11.25 21.6642 11.5858 22 12 22C12.4142 22 12.75 21.6642 12.75 21.25V20H18C19.1046 20 20 19.1046 20 18V15C20 13.8954 19.1046 13 18 13H12.75V11H15C16.1046 11 17 10.1046 17 9V6C17 4.89543 16.1046 4 15 4L12.75 4V2.75C12.75 2.33579 12.4142 2 12 2C11.5858 2 11.25 2.33579 11.25 2.75V4L9 4C7.89543 4 7 4.89543 7 6L7 9C7 10.1046 7.89543 11 9 11H11.25V13H6C4.89543 13 4 13.8954 4 15L4 18ZM5.5 15L5.5 18C5.5 18.2761 5.72386 18.5 6 18.5H18C18.2761 18.5 18.5 18.2761 18.5 18V15C18.5 14.7239 18.2761 14.5 18 14.5H6C5.72386 14.5 5.5 14.7239 5.5 15ZM8.5 6V9C8.5 9.27614 8.72386 9.5 9 9.5H15C15.2761 9.5 15.5 9.27614 15.5 9V6C15.5 5.72386 15.2761 5.5 15 5.5L9 5.5C8.72386 5.5 8.5 5.72386 8.5 6Z" fill="white"/>
</svg>
