<svg width="24" height="24" viewBox="0 0 24 24" fill="none" xmlns="http://www.w3.org/2000/svg">
<path d="M4.90264 2.37673C5.48114 2.12693 6.09762 2.00203 6.75306 2.00203L16.4069 2.00203C17.0431 1.99828 17.6731 2.12619 18.2574 2.37773C18.8206 2.61733 19.3302 2.96727 19.7561 3.4069C20.1961 3.83273 20.5463 4.34234 20.7862 4.9057C21.036 5.48423 21.1609 6.10074 21.1609 6.75621V9.0044C21.1608 9.10562 21.1399 9.20574 21.0995 9.29855C21.0591 9.39136 21.0001 9.47489 20.9261 9.54397C20.7862 9.68386 20.6143 9.7538 20.4115 9.7538C20.1927 9.7538 20.0129 9.68386 19.873 9.54397C19.7321 9.3871 19.6612 9.20724 19.6612 9.0044V6.75621C19.6612 5.86593 19.3414 5.10054 18.702 4.46106C18.0615 3.82157 17.2962 3.50183 16.4069 3.50183H6.75405C5.86382 3.50183 5.09847 3.82157 4.45902 4.46106C3.81956 5.10154 3.49984 5.86693 3.49984 6.75621L3.53181 11.8677L5.97087 8.61235C6.29959 8.26863 6.70524 8.09677 7.18883 8.09677C7.41992 8.09337 7.64926 8.13737 7.86269 8.22604C8.07612 8.31472 8.26911 8.44619 8.42976 8.61235L9.50584 9.71247C9.55905 9.75583 9.62508 9.78041 9.69368 9.78241C9.76194 9.7802 9.82759 9.75562 9.88052 9.71247L12.4573 7.11356C12.8 6.76984 13.2137 6.59797 13.6973 6.59797C13.9253 6.59298 14.1519 6.63635 14.362 6.72521C14.5721 6.81408 14.761 6.94643 14.9162 7.11356L16.2281 8.40052C16.3645 8.54688 16.4396 8.74 16.4379 8.94009C16.4396 9.14018 16.3645 9.3333 16.2281 9.47966C16.0712 9.61955 15.8914 9.68949 15.6886 9.68949C15.4857 9.68949 15.3059 9.61855 15.15 9.47866L13.8621 8.16771C13.8152 8.12075 13.7532 8.09777 13.6743 8.09777C13.6436 8.09764 13.6133 8.10379 13.5851 8.11581C13.5569 8.12784 13.5315 8.1455 13.5104 8.16771L10.9346 10.7666C10.5909 11.1103 10.1773 11.2822 9.69368 11.2822C9.2101 11.2822 8.79645 11.1103 8.45274 10.7666L7.37567 9.66651C7.32771 9.61954 7.26576 9.59656 7.18783 9.59656C7.15736 9.59658 7.12721 9.60278 7.09921 9.61481C7.07122 9.62683 7.04595 9.64442 7.02496 9.66651L3.57677 13.975C3.56078 13.975 3.55379 13.983 3.55379 13.998H3.53081L3.49884 15.3738C3.49884 16.264 3.81856 17.0294 4.45802 17.6689C5.09847 18.3094 5.86382 18.6291 6.75306 18.6291H8.25177C8.34756 18.6272 8.44273 18.6448 8.53141 18.6811C8.62009 18.7174 8.70039 18.7714 8.76733 18.84C8.84325 18.907 8.90353 18.9899 8.94392 19.0828C8.98432 19.1757 9.00385 19.2763 9.00113 19.3775C9.00108 19.4787 8.98031 19.5787 8.94009 19.6715C8.89988 19.7643 8.84109 19.8479 8.76733 19.9171C8.62645 20.058 8.4546 20.1279 8.25177 20.1279H6.75306C6.09762 20.1279 5.48114 20.003 4.90264 19.7532C4.32513 19.5034 3.81856 19.1677 3.38094 18.746C2.9593 18.3084 2.62359 17.8018 2.3738 17.2243C2.12401 16.6457 1.99912 16.0292 1.99912 15.3738L1.99912 6.75621C1.99502 6.12013 2.12259 5.49008 2.3738 4.9057C2.85732 3.76693 3.76393 2.86028 4.90264 2.37673Z" fill="white"/>
<path d="M15.3821 21.7166L20.9459 16.1995C21.6489 15.4965 22.0009 14.6535 22.0009 13.6685C22.0009 12.6845 21.6489 11.8405 20.9459 11.1375C20.2589 10.4345 19.4149 10.0825 18.4149 10.0825C17.9468 10.0747 17.4821 10.1644 17.0506 10.3459C16.619 10.5273 16.2298 10.7966 15.9079 11.1365L10.3441 16.6535C10.2501 16.7475 10.1721 16.8565 10.1091 16.9815C10.0631 17.1065 10.0391 17.2316 10.0391 17.3566V20.9666C10.0377 21.102 10.064 21.2363 10.1165 21.3611C10.1689 21.486 10.2464 21.5988 10.3441 21.6925C10.4379 21.7903 10.5507 21.8677 10.6756 21.9202C10.8004 21.9726 10.9347 21.999 11.0701 21.9975H14.6801C14.8086 21.9997 14.9363 21.9755 15.0551 21.9265C15.178 21.8809 15.2895 21.8093 15.3821 21.7166ZM14.4451 20.4275C14.3873 20.4576 14.3233 20.4737 14.2581 20.4746L12.0781 20.4736C11.9381 20.4736 11.8201 20.4275 11.7261 20.3336C11.6331 20.2246 11.5861 20.0986 11.5861 19.9586V17.7786C11.5864 17.7155 11.5945 17.6527 11.6101 17.5916C11.64 17.5309 11.6795 17.4755 11.7271 17.4275L14.9229 14.3015L17.8059 17.1835L14.6101 20.3105C14.5618 20.3582 14.5061 20.3977 14.4451 20.4275ZM18.8839 16.0815L16.0009 13.1985L16.9849 12.2145C17.3759 11.8235 17.8529 11.6285 18.4149 11.6285C18.9929 11.6285 19.4779 11.8245 19.8679 12.2145C20.2739 12.6205 20.4779 13.1055 20.4779 13.6675C20.4779 14.2305 20.2739 14.7075 19.8679 15.0975L18.8839 16.0815Z" fill="white"/>
</svg>
