<svg width="24" height="24" viewBox="0 0 24 24" fill="none" xmlns="http://www.w3.org/2000/svg">
<path d="M10.9451 4.40987C10.9451 4.1455 11.159 3.93118 11.4229 3.93118H12.8562C13.1201 3.93118 13.334 4.1455 13.334 4.40987V5.84596C13.334 6.11033 13.1201 6.32465 12.8562 6.32465H11.4229C11.159 6.32465 10.9451 6.11033 10.9451 5.84596V4.40987Z" fill="white"/>
<path d="M8.56461 6.80335C8.56461 6.53897 8.77852 6.32465 9.0424 6.32465H10.4758C10.7397 6.32465 10.9536 6.53897 10.9536 6.80335V8.23943C10.9536 8.50381 10.7397 8.71813 10.4758 8.71813H9.0424C8.77852 8.71813 8.56461 8.50381 8.56461 8.23943V6.80335Z" fill="white"/>
<path d="M9.0424 11.1116C8.77852 11.1116 8.56461 11.3259 8.56461 11.5903V13.0264C8.56461 13.2908 8.77852 13.5051 9.0424 13.5051H10.4758C10.7397 13.5051 10.9536 13.2908 10.9536 13.0264V11.5903C10.9536 11.3259 10.7397 11.1116 10.4758 11.1116H9.0424Z" fill="white"/>
<path d="M6.66193 3.93118C6.39805 3.93118 6.18413 4.1455 6.18413 4.40987V5.84596C6.18413 6.11033 6.39805 6.32465 6.66193 6.32465H8.0953C8.35918 6.32465 8.57309 6.11033 8.57309 5.84596V4.40987C8.57309 4.1455 8.35918 3.93118 8.0953 3.93118H6.66193Z" fill="white"/>
<path d="M6.18413 9.19682C6.18413 8.93245 6.39805 8.71813 6.66193 8.71813H8.0953C8.35918 8.71813 8.57309 8.93245 8.57309 9.19682V10.6329C8.57309 10.8973 8.35918 11.1116 8.0953 11.1116H6.66193C6.39805 11.1116 6.18413 10.8973 6.18413 10.6329V9.19682Z" fill="white"/>
<path d="M6.66193 13.5051C6.39805 13.5051 6.18413 13.7194 6.18413 13.9838V15.4199C6.18413 15.6842 6.39805 15.8986 6.66193 15.8986H8.0953C8.35918 15.8986 8.57309 15.6842 8.57309 15.4199V13.9838C8.57309 13.7194 8.35918 13.5051 8.0953 13.5051H6.66193Z" fill="white"/>
<path d="M4.28145 6.32465C4.01757 6.32465 3.80366 6.53897 3.80366 6.80335V8.23943C3.80366 8.50381 4.01757 8.71813 4.28145 8.71813H5.71483C5.97871 8.71813 6.19262 8.50381 6.19262 8.23943V6.80335C6.19262 6.53897 5.97871 6.32465 5.71483 6.32465H4.28145Z" fill="white"/>
<path d="M3.80366 11.5903C3.80366 11.3259 4.01757 11.1116 4.28145 11.1116H5.71483C5.97871 11.1116 6.19262 11.3259 6.19262 11.5903V13.0264C6.19262 13.2908 5.97871 13.5051 5.71483 13.5051H4.28145C4.01757 13.5051 3.80366 13.2908 3.80366 13.0264V11.5903Z" fill="white"/>
<path d="M4.28145 15.8986C4.01757 15.8986 3.80366 16.1129 3.80366 16.3772V17.8133C3.80366 18.0777 4.01757 18.292 4.28145 18.292H5.71483C5.97871 18.292 6.19262 18.0777 6.19262 17.8133V16.3772C6.19262 16.1129 5.97871 15.8986 5.71483 15.8986H4.28145Z" fill="white"/>
<path d="M17.047 13.3718C16.4168 12.9409 15.5538 12.9873 14.9718 13.525L12.9793 15.8255C12.7581 16.0748 12.7515 16.4486 12.964 16.7056C13.2238 17.02 13.7005 17.0336 13.9778 16.7345L15.9435 14.5808C16.0384 14.493 16.1859 14.4968 16.2763 14.5895L18.2596 16.6936C18.5362 16.9773 18.99 16.9827 19.2731 16.7056C19.5511 16.4336 19.5613 15.9905 19.3 15.706L17.8336 14.1316L17.4442 13.7322L17.047 13.3718Z" fill="white"/>
<path d="M18.7949 13.0813C19.4303 13.0813 19.9454 12.5652 19.9454 11.9286C19.9454 11.292 19.4303 10.7759 18.7949 10.7759C18.1595 10.7759 17.6443 11.292 17.6443 11.9286C17.6443 12.5652 18.1595 13.0813 18.7949 13.0813Z" fill="white"/>
<path d="M2.00391 5.83037C2.00391 3.71536 3.71522 2.00081 5.82624 2.00081L18.1816 2C20.2926 2 22.0039 3.71455 22.0039 5.82956V18.1696C22.0039 20.2846 20.2926 21.9992 18.1816 21.9992L5.82624 22C3.71522 22 2.00391 20.2854 2.00391 18.1704V5.83037ZM3.43728 6.30906V17.6917C3.43728 19.278 4.72077 20.5639 6.30403 20.5639H9.39959L10.2352 18.292H9.0424C8.77852 18.292 8.56461 18.0777 8.56461 17.8133V16.3772C8.56461 16.1129 8.77852 15.8986 9.0424 15.8986H10.4758C10.6266 15.8986 10.7036 15.9453 10.7036 16.0881L12.1454 11.1116H11.4229C11.159 11.1116 10.9451 10.8973 10.9451 10.6329V9.19682C10.9451 8.93245 11.159 8.71813 11.4229 8.71813H12.7704L14.1494 3.43689H6.30403C4.72077 3.43689 3.43728 4.72281 3.43728 6.30906ZM10.8812 20.5639L17.7038 20.5631C19.287 20.5631 20.5705 19.2772 20.5705 17.6909V6.30826C20.5705 4.722 19.287 3.43609 17.7038 3.43609L15.6311 3.43689L10.8812 20.5639Z" fill="white"/>
<path d="M6.35324 18.7707C6.35324 18.5063 6.56715 18.292 6.83103 18.292H7.79887C8.06275 18.292 8.27666 18.5063 8.27666 18.7707V19.6939C8.27666 19.9583 8.06275 20.1726 7.79887 20.1726H6.83103C6.56715 20.1726 6.35324 19.9583 6.35324 19.6939V18.7707Z" fill="white"/>
</svg>
