<svg width="24" height="24" viewBox="0 0 24 24" fill="none" xmlns="http://www.w3.org/2000/svg">
<path d="M6.34492 10.0008C6.78161 8.76438 7.61203 7.71393 8.68591 7C9.63615 6.36826 10.7773 6 12.0039 6C13.6609 6 15.1609 6.67132 16.2467 7.75722C16.8691 8.37961 17.3554 9.13809 17.657 9.98421L17.6629 10.0008C17.8838 10.6261 18.0039 11.299 18.0039 12C18.0039 12.7013 17.8837 13.3744 17.6626 14C17.5122 14.4252 17.3156 14.8285 17.0782 15.2036C17.0575 15.2364 17.0364 15.269 17.015 15.3013C16.7909 15.6408 16.5332 15.9562 16.2467 16.2428C15.9445 16.545 15.6102 16.8151 15.2494 17.0476C14.8625 17.2969 14.445 17.503 14.0039 17.659C13.3782 17.8801 12.7054 18 12.0039 18C11.3026 18 10.6293 17.8797 10.0037 17.6586C8.29873 17.0556 6.94773 15.705 6.34473 14L6.34573 14.001C6.1244 13.3752 6.00391 12.7017 6.00391 12C6.00391 11.299 6.12406 10.6261 6.34492 10.0008ZM8.44748 9.24307C8.26519 9.47799 8.10559 9.73141 7.97191 10L7.97069 10.002C7.70769 10.531 7.54591 11.119 7.51091 11.741L9.25281 9.99909L9.25098 9.99909L11.7427 7.508C11.1204 7.54356 10.5327 7.70535 10.0039 7.96817C9.39355 8.2714 8.86181 8.70982 8.44748 9.24307ZM7.78991 13.583C7.84353 13.7256 7.9041 13.8647 7.97126 14H7.97291C8.07791 14.212 8.19991 14.415 8.33691 14.607L8.61454 14.3293H8.61328L11.3283 11.6143V11.6156L12.9448 10H12.9429L14.6109 8.332C14.443 8.21243 14.2658 8.10353 14.0807 8.00693L14.0771 8.00504C14.0534 7.99274 14.0296 7.98063 14.0057 7.96874C13.9608 7.94631 13.9156 7.9249 13.8699 7.90399C13.7769 7.86157 13.6822 7.8222 13.5859 7.786L11.3719 10L11.3289 10.0428V10.045L7.78991 13.583ZM12.3682 12.6967L10.0039 15.061L10.0037 15.062L9.39738 15.6683C9.58824 15.8042 9.79108 15.9263 10.0039 16.0322C10.143 16.1013 10.2861 16.1634 10.4329 16.218L13.66 12.9902H13.6616L14.0039 12.648V12.646L16.2216 10.4283C16.1672 10.2817 16.104 10.1388 16.0349 10C15.93 9.78817 15.8078 9.58566 15.6709 9.3938L15.219 9.8457H15.2202L12.3682 12.6977V12.6967ZM12.2799 16.492C12.5331 16.4764 12.7805 16.4402 13.0204 16.3849C13.3651 16.3053 13.6946 16.1861 14.0039 16.0323V16.031C15.4073 15.3333 16.3951 13.9252 16.4958 12.2771L12.2799 16.492Z" fill="white"/>
<path d="M10.0049 1.99805L10.0039 1.99905H5.77391C4.72791 1.99905 3.83791 2.36605 3.10391 3.10005C2.37091 3.83505 2.00391 4.71805 2.00391 5.75005L2.00293 18.247C2.00293 19.294 2.36993 20.185 3.10293 20.92C3.83693 21.638 4.72693 21.998 5.77293 21.998L14.0039 21.999V22.001H18.2339C19.2799 22.001 20.1699 21.641 20.9039 20.923C21.6369 20.188 22.0039 19.297 22.0039 18.25V5.751C22.0039 4.719 21.6369 3.836 20.9039 3.101C20.1699 2.367 19.2799 2 18.2339 2H10.0049V1.99805ZM19.0979 20.337C18.8229 20.45 18.5299 20.505 18.2339 20.5H17.0039V20.498H5.77393C5.14893 20.498 4.61093 20.279 4.15793 19.842C3.71993 19.404 3.50193 18.873 3.50193 18.247L3.50291 5.75005C3.50291 5.14005 3.72091 4.61705 4.15891 4.17905C4.61191 3.72505 5.14991 3.49905 5.77491 3.49905H7.00391V3.501H18.2339C18.5319 3.497 18.8279 3.555 19.1019 3.672C19.3759 3.789 19.6229 3.963 19.8259 4.181C20.2789 4.618 20.5049 5.141 20.5049 5.752L20.5059 18.249C20.5059 18.873 20.2789 19.406 19.8269 19.844C19.6199 20.057 19.3729 20.224 19.0979 20.337Z" fill="white"/>
</svg>
