<svg width="24" height="24" viewBox="0 0 24 24" fill="none" xmlns="http://www.w3.org/2000/svg">
<path d="M16.5697 3.78047L16.6901 3.706C17.2604 3.35288 17.8212 3.00567 18.5042 2.91369C18.8621 2.86337 19.2267 2.88694 19.5751 2.98345C19.9207 3.07253 20.2457 3.2262 20.5339 3.43629C20.85 3.673 21.1268 3.95867 21.3536 4.28213C21.726 4.78371 21.9454 5.3828 21.9852 6.00696C22.0399 6.63787 21.9431 7.21947 21.6927 7.75087C21.4748 8.30508 21.1329 8.85386 20.6674 9.39658C20.1806 9.95332 19.6512 10.4703 19.0837 10.9438C18.4973 11.4368 17.8834 11.8962 17.245 12.3193C16.7946 12.6193 16.3375 12.9084 15.8735 13.1864L16.0794 13.8678C16.2763 14.5196 15.7814 15.1553 15.1298 15.1575C15.0263 15.8816 14.9695 16.8018 15.2305 17.7332C15.5049 18.7122 16.1445 19.7554 17.5892 20.6028C17.9465 20.8124 18.0662 21.2719 17.8567 21.6292C17.6471 21.9865 17.1875 22.1063 16.8303 21.8967C15.0451 20.8495 14.1636 19.4846 13.7862 18.138C13.4409 16.9062 13.53 15.735 13.6485 14.9197C13.0701 14.6949 12.8178 13.9721 13.1871 13.4273L13.6105 12.8027C13.4208 12.5895 13.2339 12.374 13.0498 12.1561C13.0249 12.2125 12.9996 12.2688 12.9739 12.3249C12.6633 13.0101 12.3142 13.6771 11.9279 14.3224C11.6715 14.753 11.4058 15.1776 11.1303 15.5961L11.6697 16.1964C12.1069 16.6832 11.9595 17.4276 11.4246 17.7323C11.5698 18.2894 11.7321 19.0412 11.6832 19.7621C11.627 20.5893 11.2753 21.4899 10.2427 21.9378C9.86269 22.1026 9.42102 21.9281 9.2562 21.5481C9.09137 21.1681 9.26581 20.7264 9.64582 20.5616C9.99551 20.41 10.1542 20.1384 10.1866 19.6605C10.2174 19.2064 10.1174 18.6779 9.98907 18.1731C9.33949 18.266 8.75683 17.7012 8.86398 17.0255L8.97637 16.3168C8.48343 16.111 7.99563 15.8934 7.51356 15.6639C6.8311 15.3408 6.16587 14.9827 5.5212 14.5898C4.90889 14.2052 4.32584 13.7761 3.77687 13.3055C3.2479 12.8431 2.83866 12.3585 2.54879 11.8506C2.23131 11.3693 2.05052 10.8192 2.00719 10.2008C1.96648 9.58674 2.09925 8.97379 2.39108 8.43181C2.56539 8.08573 2.79426 7.76975 3.06814 7.49522C3.31485 7.25293 3.60465 7.05851 3.92348 6.92336C4.25238 6.77866 4.60809 6.70298 4.96716 6.70021C5.64939 6.69448 6.20529 6.93743 6.80167 7.19808C6.85668 7.22212 6.91204 7.24631 6.96787 7.27048C7.23352 7.38491 7.55607 7.2912 7.71189 7.04501L7.78705 6.928C8.14258 6.3736 8.49217 5.82846 9.05818 5.45759C9.25726 5.3255 9.47319 5.22179 9.69967 5.14916C9.73214 4.82453 9.81276 4.49904 9.94163 4.1728C10.1741 3.59075 10.5654 3.08595 11.0717 2.71626C11.384 2.4749 11.7331 2.28518 12.1054 2.15332C12.4385 2.03914 12.7902 1.98788 13.1425 2.00382C13.5083 2.01542 13.8684 2.10222 14.1995 2.25747C14.8288 2.55201 15.2328 3.01953 15.6661 3.52108C15.7061 3.56735 15.7463 3.61391 15.787 3.66064C15.9808 3.88252 16.3183 3.93818 16.5697 3.78047ZM10.1954 16.555C10.1116 16.5805 10.0277 16.5957 9.94386 16.6006L9.85164 17.1821L10.9258 16.8647L10.5092 16.401C10.4155 16.4686 10.3109 16.5199 10.1954 16.555ZM14.3427 13.5047L14.0148 13.9884L15.1221 14.1571L14.9585 13.6157C14.8649 13.6262 14.7694 13.624 14.672 13.6092C14.5542 13.5912 14.4445 13.5564 14.3427 13.5047ZM13.5636 3.61603L13.5627 3.61558C13.415 3.54635 13.2553 3.50815 13.095 3.50307L13.0849 3.50275L13.0747 3.50229C12.915 3.49506 12.7536 3.51776 12.5985 3.56997C12.3777 3.64908 12.1721 3.7616 11.9891 3.90305L11.9729 3.91559L11.9563 3.92768C11.6789 4.13026 11.4639 4.40691 11.3357 4.72662C11.1922 5.09091 11.1579 5.41508 11.2001 5.72186L11.2067 5.76975L11.2102 5.81797C11.2389 6.21339 11.3504 6.67234 11.5782 7.20368C11.8438 7.80392 12.1531 8.38394 12.5038 8.93938C12.8926 9.53579 13.3135 10.1118 13.7637 10.6657L13.7657 10.6682C14.1362 11.1261 14.5197 11.5738 14.9154 12.011C15.4229 11.7116 15.9222 11.3981 16.4135 11.0709L16.4164 11.0689C17.0071 10.6775 17.5754 10.2522 18.1185 9.79566L18.1227 9.79211C18.6282 9.37034 19.0997 8.91009 19.5334 8.41469C19.9084 7.97655 20.1516 7.57112 20.2968 7.20181L20.3148 7.1561L20.3358 7.11166C20.4637 6.84004 20.5247 6.52668 20.4908 6.13668L20.4893 6.11958L20.4882 6.10245C20.4668 5.76687 20.3489 5.44516 20.1492 5.17619L20.1372 5.15998L20.1256 5.14346C19.9915 4.95223 19.8285 4.78333 19.643 4.6431C19.5091 4.54693 19.3594 4.47689 19.2007 4.436L19.1876 4.43261L19.1745 4.429C19.0252 4.38761 18.868 4.37729 18.713 4.39908L18.7044 4.40026C18.3551 4.44731 18.0558 4.62653 17.3603 5.05519C16.4649 5.61245 15.3187 5.40474 14.6572 4.64735L14.6555 4.64542L14.6168 4.60088C14.0948 4.00099 13.8946 3.77094 13.5636 3.61603ZM11.2413 9.74949C10.8477 9.12707 10.5006 8.47657 10.2031 7.80293C10.0461 7.43799 9.92603 7.083 9.84288 6.73775C9.60503 6.90642 9.41378 7.17003 9.04972 7.73773L8.97608 7.85238C8.41198 8.73799 7.29359 9.04402 6.37446 8.64811L6.3721 8.64709C6.31374 8.62183 6.25627 8.59672 6.20194 8.57297L6.20096 8.57254C5.57049 8.29699 5.29613 8.1975 4.97977 8.20016L4.97873 8.20017C4.82229 8.20138 4.66831 8.23443 4.52753 8.29636L4.51824 8.30044L4.50891 8.3044C4.36759 8.36431 4.23711 8.45086 4.1243 8.56041C3.9643 8.722 3.83156 8.9064 3.73074 9.10658L3.72151 9.12489L3.71179 9.14295C3.55431 9.43542 3.4822 9.76645 3.50372 10.0989C3.53072 10.478 3.63628 10.7751 3.80093 11.0247L3.82755 11.0651L3.85152 11.1071C4.04271 11.4421 4.33371 11.7991 4.7588 12.1715C5.24722 12.5898 5.76585 12.9716 6.31054 13.3143C6.90681 13.6772 7.52272 14.0087 8.15534 14.3081L8.15825 14.3095C8.67328 14.5547 9.19535 14.7858 9.72365 15.0027C10.0416 14.5288 10.3466 14.0462 10.6391 13.5549L10.6409 13.5519C10.9978 12.9558 11.3205 12.3392 11.6077 11.7057L11.61 11.7006C11.7439 11.408 11.8663 11.1106 11.9769 10.8088C11.7214 10.463 11.476 10.1098 11.2413 9.74949Z" fill="white"/>
</svg>
