<svg width="24" height="24" viewBox="0 0 24 24" fill="none" xmlns="http://www.w3.org/2000/svg">
<path d="M9.15597 10.3917C9.15597 10.819 8.80959 11.1653 8.3823 11.1653C7.95502 11.1653 7.60863 10.819 7.60863 10.3917C7.60863 9.96439 7.95502 9.618 8.3823 9.618C8.80959 9.618 9.15597 9.96439 9.15597 10.3917Z" fill="white"/>
<path d="M6.74327 10.3917C6.74327 10.819 6.39688 11.1653 5.9696 11.1653C5.54231 11.1653 5.19593 10.819 5.19593 10.3917C5.19593 9.96439 5.54231 9.618 5.9696 9.618C6.39688 9.618 6.74327 9.96439 6.74327 10.3917Z" fill="white"/>
<path fill-rule="evenodd" clip-rule="evenodd" d="M8.175 2.34406C7.21483 2.34406 6.43644 3.12243 6.43644 4.08262V6.35734H4.70223C3.20916 6.35734 1.99878 7.56771 1.99878 9.06079V14.8912C1.99878 16.3841 3.20914 17.5946 4.70223 17.5946H5.08112C5.5084 17.5946 5.85479 17.2482 5.85479 16.8209C5.85479 16.3937 5.5084 16.0473 5.08112 16.0473H4.70223C4.06375 16.0473 3.54612 15.5296 3.54612 14.8912V9.06079C3.54612 8.42229 4.06373 7.90468 4.70223 7.90468H19.2977C19.9362 7.90468 20.4538 8.42228 20.4538 9.06079V14.8912C20.4538 15.5296 19.9362 16.0473 19.2977 16.0473H18.463C18.0357 16.0473 17.6894 16.3937 17.6894 16.8209C17.6894 17.2482 18.0357 17.5946 18.463 17.5946H19.2977C20.7908 17.5946 22.0011 16.3841 22.0011 14.8912V9.06079C22.0011 7.56772 20.7908 6.35734 19.2977 6.35734H17.4989V4.08262C17.4989 3.12244 16.7206 2.34406 15.7604 2.34406H8.175ZM15.9516 6.35734V4.08262C15.9516 3.977 15.866 3.89139 15.7604 3.89139H8.175C8.06939 3.89139 7.98378 3.97701 7.98378 4.08262V6.35734H15.9516Z" fill="white"/>
<path d="M18.0308 13.096H5.9696C5.54231 13.096 5.19593 13.4424 5.19593 13.8697C5.19593 14.297 5.54231 14.6434 5.9696 14.6434H6.59521V20.856C6.5949 20.865 6.59474 20.8741 6.59474 20.8832C6.59474 21.3106 6.94164 21.6569 7.36888 21.6569H11.8532C12.2805 21.6569 12.6269 21.3105 12.6269 20.8832C12.6269 20.4559 12.2805 20.1096 11.8532 20.1096H8.14255V14.6434H15.6609V20.1096H14.3455C13.9182 20.1096 13.5718 20.4559 13.5718 20.8832C13.5718 21.3105 13.9182 21.6569 14.3455 21.6569H16.4345C16.8618 21.6569 17.2082 21.3105 17.2082 20.8832V14.6434H18.0308C18.458 14.6434 18.8044 14.297 18.8044 13.8697C18.8044 13.4424 18.458 13.096 18.0308 13.096Z" fill="white"/>
</svg>
