<svg width="24" height="24" viewBox="0 0 24 24" fill="none" xmlns="http://www.w3.org/2000/svg">
<path fill-rule="evenodd" clip-rule="evenodd" d="M8.408 18.7238C8.11552 19.0169 7.64042 19.0174 7.34745 18.7246C7.05448 18.432 7.054 17.9572 7.34648 17.664L7.69267 17.3172C7.47587 17.3023 7.26054 17.2721 7.04765 17.2266C6.88554 17.1919 6.72538 17.1485 6.56767 17.0962C5.86698 16.8643 5.23271 16.4662 4.71903 15.9359C4.20536 15.4057 3.82743 14.7591 3.61796 14.0512C3.47929 13.5824 3.41728 13.0961 3.43241 12.6106C3.44511 12.1993 3.84355 11.9352 4.24735 12.0146C4.65116 12.094 4.90458 12.4887 4.92411 12.8998C4.93583 13.1458 4.97734 13.3904 5.04765 13.6282C5.18876 14.1055 5.44316 14.5414 5.78935 14.899C6.13603 15.2564 6.56327 15.5248 7.03593 15.6812C7.27128 15.7591 7.51444 15.808 7.76005 15.8275C7.88163 15.8372 8.00077 15.8673 8.11064 15.9154L7.34648 15.1502C7.054 14.857 7.05448 14.3821 7.34745 14.0895C7.64042 13.7968 8.11552 13.7973 8.408 14.0904L10.158 15.8434C10.3133 15.9987 10.386 16.2052 10.3767 16.4085C10.3782 16.4369 10.3777 16.4655 10.3758 16.4938C10.3636 16.6675 10.2908 16.8378 10.158 16.9707L8.408 18.7238ZM8.60136 16.4071L8.58573 16.3916C8.58866 16.3992 8.59159 16.4068 8.59403 16.4145L8.60136 16.4071Z" fill="white"/>
<path fill-rule="evenodd" clip-rule="evenodd" d="M13.6496 3.46808C13.9421 3.17499 14.4172 3.1745 14.7101 3.46722C15.0031 3.75983 15.0036 4.23468 14.7111 4.52789L14.3649 4.8747C14.5817 4.88959 14.7971 4.91974 15.01 4.96527C15.1721 4.99994 15.3322 5.0434 15.4899 5.09564C16.1906 5.32758 16.8249 5.72565 17.3386 6.25592C17.8522 6.78619 18.2302 7.4328 18.4396 8.14069C18.5783 8.60944 18.6403 9.09576 18.6252 9.58124C18.6125 9.99262 18.2141 10.2567 17.8102 10.1773C17.4064 10.0978 17.153 9.70319 17.1335 9.29205C17.1218 9.04608 17.0803 8.80145 17.01 8.56366C16.8688 8.08637 16.6144 7.65045 16.2683 7.29291C15.9216 6.93549 15.4943 6.66705 15.0217 6.51068C14.7863 6.4328 14.5432 6.38385 14.2976 6.36432C14.176 6.35468 14.0568 6.32452 13.947 6.27643L14.7111 7.04169C15.0036 7.3349 15.0031 7.80975 14.7101 8.10236C14.4172 8.39508 13.9421 8.39459 13.6496 8.1015L11.8996 6.34845C11.7443 6.19318 11.6716 5.98663 11.6809 5.78339C11.6794 5.75494 11.6799 5.72638 11.6818 5.69806C11.694 5.52435 11.7668 5.35407 11.8996 5.22113L13.6496 3.46808ZM13.4562 5.78473L13.4719 5.80023C13.4689 5.79266 13.466 5.7851 13.4636 5.77741L13.4562 5.78473Z" fill="white"/>
<path d="M2.75 2.00049C2.33579 2.00049 2 2.33627 2 2.75049C2 3.1647 2.33579 3.50049 2.75 3.50049H4.74414V8.23839C4.74414 8.6526 5.07993 8.98839 5.49414 8.98839C5.90835 8.98839 6.24414 8.6526 6.24414 8.23839V3.50049H8.2379C8.65211 3.50049 8.9879 3.1647 8.9879 2.75049C8.9879 2.33627 8.65211 2.00049 8.2379 2.00049H2.75Z" fill="white"/>
<path fill-rule="evenodd" clip-rule="evenodd" d="M12.0981 21.2468L12.0981 12.7105H21.2526C21.6668 12.7105 22.0026 13.0463 22.0026 13.4605C22.0026 13.8747 21.6668 14.2105 21.2526 14.2105H13.5981L13.5981 21.2468C13.5981 21.661 13.2624 21.9968 12.8481 21.9968C12.4339 21.9968 12.0981 21.661 12.0981 21.2468Z" fill="white"/>
<path d="M14.6475 16.5668C14.6475 16.7324 14.7818 16.8668 14.9475 16.8668H16.8475C17.0131 16.8668 17.1475 16.7324 17.1475 16.5668V15.6639C17.1475 15.4982 17.0131 15.3639 16.8475 15.3639H14.9475C14.7818 15.3639 14.6475 15.4982 14.6475 15.6639V16.5668Z" fill="white"/>
<path d="M18.034 16.5668C18.034 16.7324 18.1683 16.8668 18.334 16.8668H20.234C20.3996 16.8668 20.534 16.7324 20.534 16.5668V15.6639C20.534 15.4982 20.3996 15.3639 20.234 15.3639H18.334C18.1683 15.3639 18.034 15.4982 18.034 15.6639V16.5668Z" fill="white"/>
<path d="M14.6475 19.2645C14.6475 19.4302 14.7818 19.5645 14.9475 19.5645H16.8475C17.0131 19.5645 17.1475 19.4302 17.1475 19.2645V18.3616C17.1475 18.1959 17.0131 18.0616 16.8475 18.0616H14.9475C14.7818 18.0616 14.6475 18.1959 14.6475 18.3616V19.2645Z" fill="white"/>
</svg>
