<svg width="24" height="24" viewBox="0 0 24 24" fill="none" xmlns="http://www.w3.org/2000/svg">
<path d="M2 6.07756C2 4.06807 3.62899 2.43909 5.63847 2.43909H18.3615C20.371 2.43909 22 4.06807 22 6.07756V15.3953C22 17.4048 20.371 19.0338 18.3615 19.0338H12.7277V20.1056H14.0327C14.4344 20.1056 14.7604 20.4316 14.7604 20.8333C14.7604 21.235 14.4344 21.561 14.0327 21.561H9.96629C9.56459 21.561 9.23859 21.235 9.23859 20.8333C9.23859 20.4316 9.56459 20.1056 9.96629 20.1056H11.2723V19.0338H5.63847C3.62899 19.0338 2 17.4048 2 15.3953V6.07756ZM5.63847 3.89448C4.43238 3.89448 3.45539 4.87146 3.45539 6.07756V11.0967L5.89382 8.79859C6.45801 8.28386 7.13323 8.02548 7.92249 8.02548C8.29088 8.02044 8.65624 8.08604 8.99737 8.21926C9.33851 8.35249 9.64534 8.5493 9.90169 8.79859L10.3589 9.23057L12.5319 7.04748C13.0951 6.47118 13.7874 6.18354 14.608 6.18354C15.4285 6.18354 16.1209 6.47118 16.6831 7.04748L20.5456 10.9635V6.07756C20.5456 4.87146 19.5676 3.89448 18.3625 3.89448H5.63847ZM3.45539 14.4304H20.5446V13.083L15.5486 8.02447C15.2913 7.76609 14.9784 7.63691 14.607 7.63691C14.4293 7.63186 14.2527 7.66315 14.0902 7.73077C13.9277 7.79839 13.7824 7.89831 13.6663 8.02447L8.47658 13.2778C8.40997 13.3505 8.32923 13.41 8.23738 13.4524C8.14554 13.4948 8.04764 13.521 7.9457 13.5271C7.84275 13.5311 7.74081 13.514 7.64493 13.4797C7.54905 13.4453 7.46225 13.3919 7.38958 13.3232C7.31288 13.2617 7.25131 13.1849 7.20993 13.0982C7.16855 13.0114 7.14736 12.9175 7.14836 12.8226C7.13222 12.6248 7.19681 12.4502 7.34114 12.2988L9.32035 10.2984L8.81268 9.81999C8.55531 9.5929 8.2505 9.47986 7.89624 9.47986C7.73072 9.47582 7.56621 9.50509 7.4128 9.56363C7.25939 9.62217 7.1201 9.70998 7.00404 9.82201L3.45438 13.1648L3.45539 14.4304ZM20.4891 15.8868H3.5109C3.73395 16.8557 4.60194 17.5794 5.63847 17.5794H18.3615C19.3981 17.5794 20.266 16.8567 20.4891 15.8868Z" fill="white"/>
</svg>
