<svg width="24" height="24" viewBox="0 0 24 24" fill="none" xmlns="http://www.w3.org/2000/svg">
<path d="M6.75145 10.583C7.14067 10.441 7.57191 10.642 7.71399 11.031L8.28431 12.596C8.42639 12.985 8.22528 13.416 7.83606 13.558C7.44684 13.7 7.0156 13.499 6.87352 13.11L6.3032 11.545C6.16112 11.156 6.36223 10.725 6.75145 10.583Z" fill="white"/>
<path d="M9.05675 10.583C9.44597 10.441 9.87721 10.642 10.0193 11.031L10.5896 12.596C10.7317 12.985 10.5306 13.416 10.1414 13.558C9.75214 13.7 9.3209 13.499 9.17882 13.11L8.6085 11.545C8.46642 11.156 8.66753 10.725 9.05675 10.583Z" fill="white"/>
<path d="M14.92 10.583C14.5308 10.441 14.0996 10.642 13.9575 11.031L13.3872 12.596C13.2451 12.985 13.4462 13.416 13.8354 13.558C14.2247 13.7 14.6559 13.499 14.798 13.11L15.3683 11.545C15.5104 11.156 15.3093 10.725 14.92 10.583Z" fill="white"/>
<path d="M17.2253 10.583C16.8361 10.441 16.4049 10.642 16.2628 11.031L15.6925 12.596C15.5504 12.985 15.7515 13.416 16.1407 13.558C16.53 13.7 16.9612 13.499 17.1033 13.11L17.6736 11.545C17.8157 11.156 17.6146 10.725 17.2253 10.583Z" fill="white"/>
<path d="M11.7933 21.977C11.9244 22.008 12.0604 22.008 12.1915 21.977C13.3231 21.728 14.4038 21.284 15.3823 20.663C16.3539 20.037 17.1903 19.224 17.8457 18.272C18.5331 17.303 19.0654 16.154 19.4416 14.826C19.8178 13.498 20.0039 11.989 20.0039 10.301C20.0039 8.925 19.7928 7.72 19.3705 6.69C18.9493 5.643 18.37 4.775 17.6346 4.087C16.9152 3.4 16.0707 2.883 15.1011 2.54C14.1316 2.18 13.091 2 11.9814 2C10.8868 2 9.8542 2.179 8.88465 2.539C7.93412 2.871 7.06263 3.399 6.32721 4.087C5.60781 4.775 5.03749 5.643 4.61425 6.69C4.20802 7.721 4.00391 8.933 4.00391 10.323C4.00391 12.106 4.18401 13.668 4.54421 15.013C4.8884 16.358 5.39569 17.506 6.07007 18.459C6.72344 19.38 7.56291 20.155 8.53245 20.734C9.48599 21.312 10.5736 21.727 11.7933 21.977ZM17.9878 14.427C17.6586 15.599 17.2053 16.592 16.626 17.405V17.404C16.0967 18.185 15.4193 18.854 14.6319 19.375C13.8164 19.889 12.9209 20.261 11.9814 20.475C10.9488 20.257 10.0413 19.913 9.25986 19.445C8.48843 18.97 7.82405 18.339 7.31177 17.592C6.74945 16.811 6.3042 15.826 5.97501 14.638C5.66184 13.451 5.50575 12.012 5.50575 10.323C5.50575 9.104 5.67785 8.072 6.02104 7.229C6.38124 6.385 6.8345 5.697 7.38281 5.165C7.96313 4.623 8.65052 4.208 9.39994 3.946C10.1824 3.649 11.0429 3.5 11.9814 3.5C12.9349 3.5 13.8034 3.649 14.5849 3.946C15.3433 4.204 16.0387 4.619 16.626 5.165C17.1733 5.696 17.6186 6.384 17.9638 7.229C18.323 8.073 18.5031 9.097 18.5031 10.3C18.5031 11.879 18.331 13.254 17.9878 14.427Z" fill="white"/>
</svg>
