<svg width="24" height="24" viewBox="0 0 24 24" fill="none" xmlns="http://www.w3.org/2000/svg">
<path d="M2.00195 6.76701C2.00195 6.11201 2.12695 5.49501 2.37695 4.91801C2.85995 3.77901 3.76695 2.87201 4.90495 2.38901C5.48895 2.13801 6.11895 2.01001 6.75495 2.01401H17.244C17.899 2.01401 18.516 2.13901 19.094 2.38901C19.657 2.62901 20.167 2.97801 20.592 3.41801C21.032 3.84401 21.381 4.35301 21.621 4.91601C21.871 5.49401 21.997 6.11101 21.997 6.76601V17.255C21.997 17.911 21.872 18.528 21.622 19.105C21.374 19.664 21.025 20.172 20.592 20.603C20.161 21.031 19.652 21.373 19.094 21.61C18.51 21.861 17.88 21.989 17.244 21.985H10.196C10.097 21.988 9.99795 21.972 9.90495 21.935C9.81195 21.898 9.72795 21.844 9.65795 21.774C9.58795 21.703 9.53295 21.619 9.49695 21.526C9.46095 21.433 9.44395 21.334 9.44795 21.235C9.44795 21.033 9.51795 20.861 9.65795 20.721C9.72495 20.645 9.80795 20.584 9.90195 20.544C9.99595 20.504 10.096 20.484 10.198 20.487H17.245C18.134 20.487 18.899 20.174 19.54 19.55C20.179 18.911 20.499 18.145 20.499 17.255V6.76601C20.499 5.86101 20.179 5.09701 19.54 4.47201C18.901 3.83201 18.135 3.51201 17.245 3.51201H6.75595C5.86695 3.51201 5.10195 3.83201 4.46095 4.47101C3.82195 5.09601 3.50195 5.86101 3.50195 6.76601V10.559C3.50195 10.762 3.43095 10.942 3.28995 11.098C3.21895 11.168 3.13495 11.222 3.04195 11.259C2.94895 11.296 2.84995 11.312 2.75095 11.308C2.55095 11.31 2.35895 11.234 2.21295 11.098C2.07695 10.952 2.00095 10.759 2.00295 10.559L2.00195 6.76701Z" fill="white"/>
<path d="M17.713 6.74401C17.758 6.83101 17.782 6.92701 17.783 7.02501L17.784 10.841C17.787 10.943 17.768 11.043 17.727 11.137C17.686 11.231 17.626 11.313 17.55 11.381C17.409 11.521 17.237 11.591 17.036 11.591C16.816 11.591 16.636 11.521 16.497 11.381C16.356 11.24 16.286 11.06 16.286 10.843V8.80601L12.774 12.294C12.711 12.368 12.632 12.428 12.543 12.468C12.454 12.508 12.357 12.529 12.26 12.528C12.159 12.528 12.059 12.507 11.966 12.467C11.873 12.427 11.79 12.368 11.721 12.294C11.581 12.153 11.511 11.981 11.511 11.78C11.507 11.68 11.524 11.581 11.561 11.488C11.598 11.395 11.652 11.311 11.722 11.24L15.232 7.72801H12.751C12.548 7.72801 12.368 7.65801 12.212 7.51801C12.072 7.36101 12.002 7.18201 12.002 6.97901C12 6.88301 12.018 6.78901 12.054 6.70001C12.09 6.61101 12.144 6.53101 12.212 6.46401C12.281 6.39001 12.365 6.33101 12.457 6.29101C12.549 6.25101 12.65 6.23001 12.751 6.22901H16.989C17.045 6.22801 17.1 6.23601 17.153 6.25301C17.208 6.26701 17.263 6.28201 17.317 6.30001C17.359 6.32701 17.399 6.35901 17.435 6.39401C17.479 6.40801 17.519 6.43201 17.552 6.46401C17.63 6.54201 17.686 6.63901 17.716 6.74501L17.713 6.74401Z" fill="white"/>
<path d="M6.00595 21.986C5.90595 21.99 5.80695 21.973 5.71395 21.936C5.62095 21.899 5.53695 21.845 5.46595 21.775C5.32995 21.629 5.25395 21.436 5.25595 21.236V15.525H2.75095C2.55095 15.527 2.35895 15.451 2.21295 15.315C2.07695 15.169 2.00095 14.976 2.00295 14.776C1.99895 14.677 2.01595 14.578 2.05195 14.485C2.08795 14.392 2.14295 14.308 2.21195 14.237C2.35795 14.101 2.55095 14.026 2.75095 14.027H5.84095C5.86195 14.014 5.88595 14.006 5.91095 14.003H6.07495C6.10695 14.003 6.12995 14.01 6.14495 14.026H9.23595C9.43995 14.026 9.61095 14.096 9.75095 14.237C9.90695 14.377 9.98495 14.557 9.98495 14.776C9.98495 14.877 9.96395 14.976 9.92395 15.069C9.88395 15.162 9.82495 15.245 9.75195 15.314C9.68495 15.383 9.60495 15.437 9.51595 15.473C9.42695 15.509 9.33195 15.527 9.23595 15.525H6.75495V21.238C6.75495 21.339 6.73395 21.439 6.69395 21.531C6.65395 21.623 6.59495 21.707 6.52095 21.776C6.45395 21.844 6.37395 21.898 6.28495 21.934C6.19595 21.97 6.10095 21.988 6.00595 21.986Z" fill="white"/>
</svg>
