<svg width="24" height="24" viewBox="0 0 24 24" fill="none" xmlns="http://www.w3.org/2000/svg">
<path d="M14.6527 2.00015C15.6364 1.99584 16.6107 2.19243 17.5158 2.57789C18.3858 2.9505 19.1768 3.48536 19.8467 4.15391C20.5152 4.82348 21.05 5.6142 21.4227 6.48384C21.8082 7.3874 22.0005 8.34211 22.0005 9.34795C22.0005 10.2364 21.8527 11.0717 21.5563 11.8559C21.2692 12.6401 20.8489 13.3687 20.3136 14.0097C19.7965 14.645 19.1728 15.1857 18.4705 15.6075C17.7616 16.0511 17.3782 16.2146 16.5602 16.3883C16.3865 17.2063 16.05 17.7619 15.6065 18.4708C15.1811 19.1769 14.6411 19.8072 14.0087 20.3357C13.3632 20.8592 12.6354 21.2721 11.8549 21.5575C11.0527 21.8561 10.2028 22.006 9.3469 21.9998C8.36313 22.0041 7.38885 21.8075 6.48374 21.4221C5.61376 21.0495 4.82271 20.5146 4.15286 19.8461C3.48441 19.1765 2.94955 18.3858 2.57684 17.5161C2.19138 16.611 1.99478 15.6367 1.99909 14.6529C1.99909 13.7645 2.14684 12.9292 2.44329 12.145C2.72846 11.3645 3.141 10.6367 3.66414 9.99119C4.19271 9.3587 4.82297 8.81872 5.52903 8.3934C6.23791 7.94979 6.80592 7.84683 7.62395 7.67329C7.63374 7.0202 7.9495 6.23897 8.39311 5.53009C8.81493 4.8278 9.35557 4.20416 9.99091 3.68698C10.6274 3.15469 11.3453 2.73985 12.1447 2.44435C12.9467 2.14513 13.7966 1.9946 14.6527 2.00015ZM14.6527 3.42084C13.9717 3.42084 13.3286 3.53165 12.7205 3.75423C12.1212 3.95753 11.5591 4.25729 11.0564 4.64168C10.0546 5.40713 9.32351 6.47269 8.96991 7.68291C9.95368 7.6786 10.928 7.87519 11.8331 8.26065C12.703 8.63326 13.4941 9.16812 14.164 9.83667C14.8324 10.5063 15.3673 11.297 15.74 12.1666C16.1255 13.0702 16.3177 14.0239 16.3177 15.0307C17.2255 14.7667 18.0564 14.2881 18.7402 13.6353C19.424 12.9825 19.9406 12.1747 20.2464 11.2801C20.469 10.672 20.5798 10.0289 20.5798 9.34795C20.5798 8.53343 20.4245 7.76436 20.1138 7.03886C19.8102 6.33943 19.3726 5.7062 18.8257 5.17491C18.2944 4.62801 17.6612 4.19041 16.9618 3.88682C16.2321 3.57513 15.4461 3.41653 14.6527 3.42084ZM9.3469 20.5801C10.0279 20.5801 10.671 20.4693 11.279 20.2467C11.869 20.048 12.4232 19.7557 12.9204 19.381C13.4243 18.9965 13.8609 18.5381 14.2303 18.0048C14.5855 17.4868 14.8516 16.9251 15.0297 16.318C14.0459 16.3223 13.0716 16.1257 12.1665 15.7403C11.2965 15.3676 10.5055 14.8328 9.83561 14.1642C9.16717 13.4947 8.63231 12.7039 8.2596 11.8343C7.87401 10.9289 7.67741 9.95428 7.68185 8.9702C7.08065 9.14529 6.51122 9.41513 5.99502 9.76957C5.47067 10.1316 5.00631 10.5736 4.61884 11.0794C4.24406 11.5769 3.95177 12.1314 3.75317 12.7218C3.52892 13.3408 3.41604 13.9946 3.41978 14.6529C3.41978 15.4675 3.57511 16.2365 3.88577 16.962C4.19737 17.6724 4.61884 18.3013 5.15113 18.8487C5.69823 19.3813 6.3375 19.81 7.0378 20.1141C7.7675 20.4258 8.55342 20.5844 9.3469 20.5801ZM14.808 13.987L13.9863 14.8087C14.9388 14.9882 15.0588 14.8681 14.808 13.987ZM11.3671 13.6319C11.5442 13.7645 11.7223 13.8905 11.8994 14.0089C12.0917 14.1131 12.2849 14.2173 12.4771 14.3196L14.3193 12.4782C14.2173 12.2881 14.1063 12.1029 13.9868 11.9232C13.8825 11.7296 13.7637 11.5441 13.6317 11.3682L11.3662 13.6319H11.3671ZM10.3679 12.6327L12.6334 10.369C12.4572 10.2368 12.2714 10.1181 12.0774 10.0138C11.8978 9.89431 11.7125 9.78338 11.5224 9.68134L9.68029 11.5227L9.99094 12.1004C10.1093 12.2776 10.2353 12.4556 10.3679 12.6327ZM9.19157 10.0139L10.0136 9.19263C8.83116 8.99557 9.01844 8.96398 9.19157 10.0139Z" fill="white"/>
</svg>
