<svg width="24" height="24" viewBox="0 0 24 24" fill="none" xmlns="http://www.w3.org/2000/svg">
<path d="M8.776 4.42746C10.277 4.27946 11.79 4.56746 13.132 5.25646C14.186 5.79746 15.1 6.56946 15.809 7.50846L15.924 6.86046C15.992 6.47646 16.359 6.22046 16.743 6.28846C17.127 6.35646 17.383 6.72346 17.315 7.10746L16.877 9.57146C16.823 9.87746 16.579 10.1015 16.288 10.1465C16.191 10.1675 16.088 10.1675 15.985 10.1445L13.544 9.59446C13.164 9.50846 12.925 9.13146 13.01 8.75046C13.095 8.36946 13.474 8.13146 13.854 8.21646L14.721 8.41146C14.134 7.61746 13.37 6.96646 12.486 6.51246C11.385 5.94746 10.145 5.71146 8.914 5.83246C8.526 5.87046 8.18 5.58746 8.142 5.19946C8.104 4.81146 8.387 4.46546 8.775 4.42746H8.776Z" fill="white"/>
<path d="M2 2.706C2 2.316 2.316 2 2.706 2H7.872C8.262 2 8.578 2.316 8.578 2.706C8.578 3.096 8.262 3.412 7.872 3.412H5.995V7.872C5.995 8.262 5.679 8.578 5.289 8.578C4.899 8.578 4.583 8.262 4.583 7.872V3.412H2.706C2.316 3.412 2 3.096 2 2.706Z" fill="white"/>
<path d="M14.839 15.964C15.229 15.964 15.545 15.648 15.545 15.258C15.545 14.868 15.229 14.552 14.839 14.552C14.449 14.552 14.133 14.868 14.133 15.258C14.133 15.648 14.449 15.964 14.839 15.964Z" fill="white"/>
<path d="M19.041 15.258C19.041 15.648 18.725 15.964 18.335 15.964C17.945 15.964 17.629 15.648 17.629 15.258C17.629 14.868 17.945 14.552 18.335 14.552C18.725 14.552 19.041 14.868 19.041 15.258Z" fill="white"/>
<path d="M11.174 13.056V20.117C11.174 21.157 12.017 22 13.057 22H17.286C17.475 22.003 17.657 21.929 17.791 21.795L21.817 17.769C21.934 17.652 22 17.492 22 17.326V13.057C22 12.017 21.157 11.174 20.117 11.174H13.056C12.016 11.174 11.173 12.017 11.173 13.057L11.174 13.056ZM20.588 13.526V16.02C20.531 16.018 20.473 16.017 20.415 16.017C18.879 16.017 17.521 16.774 16.693 17.936C16.645 17.935 16.597 17.934 16.548 17.931C15.995 17.885 15.496 17.721 15.053 17.436C14.888 17.339 14.709 17.315 14.519 17.365C14.428 17.379 14.341 17.414 14.264 17.466C14.187 17.518 14.124 17.587 14.078 17.666C14.027 17.742 13.991 17.827 13.974 17.917C13.957 18.007 13.957 18.1 13.977 18.19C14.018 18.369 14.126 18.527 14.278 18.63C14.813 18.97 15.41 19.197 16.033 19.296C15.914 19.703 15.85 20.134 15.85 20.579V20.588H13.529C13.009 20.588 12.588 20.167 12.588 19.647V13.528C12.588 13.008 13.009 12.587 13.529 12.587H19.648C20.168 12.587 20.589 13.009 20.589 13.528L20.588 13.526ZM17.272 20.316C17.398 18.787 18.618 17.567 20.149 17.439L17.272 20.316Z" fill="white"/>
</svg>
