<svg width="24" height="24" viewBox="0 0 24 24" fill="none" xmlns="http://www.w3.org/2000/svg">
<path fill-rule="evenodd" clip-rule="evenodd" d="M19.8849 17.4458C19.626 17.5411 19.3605 17.625 19.0889 17.6969C18.9923 17.7225 18.895 17.7465 18.7969 17.769C18.5849 17.8177 18.373 17.8584 18.1615 17.8912V14.3511C19.5228 13.6486 19.6792 11.4567 18.0162 10.7354L15.9129 9.82301C16.3605 9.56344 16.6615 9.07913 16.6615 8.52451C16.6615 8.42582 16.5154 8.40649 16.4515 8.48173C16.2892 8.67298 16.047 8.79434 15.7766 8.79434C15.2878 8.79434 14.8916 8.39815 14.8916 7.90942C14.8916 7.63893 15.013 7.39678 15.2042 7.23446C15.2795 7.1706 15.2602 7.02451 15.1615 7.02451C14.333 7.02451 13.6615 7.69608 13.6615 8.52451C13.6615 9.08778 13.9719 9.57853 14.4311 9.83499L12.3221 10.7287C10.6447 11.4396 10.7941 13.6465 12.1615 14.3514V16.679C10.2073 15.477 8.71761 13.5224 8.16288 11.11C7.56492 8.50918 8.17741 5.91263 9.63023 3.91011C9.79313 3.68556 9.9666 3.46849 10.1501 3.25972C10.3055 3.08291 10.4682 2.91204 10.6377 2.74764L10.6388 2.74652C10.7388 2.64963 10.8411 2.55498 10.9458 2.46268L10.9476 2.46103C10.9739 2.43787 11.0003 2.41486 11.0269 2.392C11.1949 2.247 11.0789 1.963 10.8599 2.004C10.8124 2.01313 10.7641 2.0227 10.7166 2.03246C10.6393 2.04832 10.5621 2.06509 10.4849 2.083C10.1879 2.15128 9.89697 2.23202 9.61259 2.32454C9.29396 2.42821 8.98353 2.54667 8.68189 2.67897C4.33199 4.58688 1.81166 9.37269 2.91488 14.171C4.16288 19.599 9.57488 22.989 15.0029 21.741C16.9289 21.2982 18.5981 20.3315 19.8947 19.0257C20.0756 18.8436 20.2493 18.6548 20.4153 18.46C20.4651 18.4015 20.5143 18.3425 20.5627 18.283C20.8036 17.987 21.0277 17.6774 21.2335 17.3566C21.2584 17.3177 21.2832 17.2786 21.3076 17.2393L21.3109 17.234L21.312 17.2347L21.3149 17.23C21.4249 17.0423 21.2041 16.8359 21.0099 16.94C20.979 16.9566 20.948 16.973 20.9169 16.9892L20.9158 16.9898C20.5853 17.162 20.2413 17.3147 19.8849 17.4458ZM13.6615 17.4178C14.6072 17.7777 15.6205 17.9785 16.6615 17.9951V14.5706H13.6615V17.4178ZM6.98262 5.80047C7.01606 5.70189 6.89792 5.62172 6.8226 5.69357C4.70242 7.71607 3.67265 10.7726 4.37674 13.8349C5.43919 18.4559 10.0465 21.3414 14.6668 20.2791C15.2818 20.1377 15.866 19.9337 16.4141 19.6754C16.5083 19.631 16.4758 19.4919 16.3718 19.4876C11.8196 19.2977 7.77143 16.1011 6.70102 11.4461C6.25394 9.50153 6.38588 7.55964 6.98262 5.80047ZM17.4193 12.1115L15.1877 11.1435L12.9074 12.1098C12.74 12.1808 12.6764 12.2676 12.6444 12.3345C12.6046 12.4177 12.5855 12.5366 12.6125 12.6697C12.6396 12.8029 12.7036 12.9048 12.7727 12.9659C12.8283 13.0151 12.9207 13.0702 13.1025 13.0702H17.2203C17.4009 13.0702 17.4933 13.0156 17.5492 12.9664C17.6184 12.9055 17.6825 12.8041 17.7099 12.6718C17.7374 12.5395 17.719 12.421 17.6797 12.3376C17.648 12.2702 17.5849 12.1833 17.4193 12.1115Z" fill="white"/>
</svg>
