<svg width="24" height="24" viewBox="0 0 24 24" fill="none" xmlns="http://www.w3.org/2000/svg">
<path d="M18.1009 2.89797L18.3781 5.62455C18.3845 5.66059 18.3883 5.69752 18.3894 5.73514L19.8947 20.5422C19.9523 21.1036 19.5342 21.6014 18.9712 21.6416L13.9935 21.9976C13.4474 22.0367 12.9715 21.6294 12.9256 21.0839L12.1091 11.1934C12.0988 11.0711 11.92 11.0712 11.9098 11.1935L11.086 21.0829C11.0407 21.6288 10.5646 22.0367 10.0182 21.9977L5.02873 21.6415C4.46576 21.6013 4.04757 21.1035 4.10516 20.542L5.91673 2.89797C5.96905 2.38787 6.39873 2 6.91151 2H17.1061C17.6189 2 18.0486 2.38787 18.1009 2.89797ZM7.35364 3.5898L7.2082 5.00631L16.8079 5.00631L16.664 3.5898C16.6588 3.53879 16.6158 3.5 16.5645 3.5H7.45312C7.40184 3.5 7.35888 3.53879 7.35364 3.5898ZM12.6821 6.50631V9.73801C13.1641 9.94512 13.5468 10.3883 13.6038 11.0678L14.3707 20.3678C14.3753 20.4223 14.4229 20.4631 14.4775 20.4592L18.247 20.1896C18.3033 20.1856 18.3452 20.1358 18.3394 20.0796L17.3701 10.5392C16.7493 10.4999 16.0386 10.275 15.4128 9.76536C14.6121 9.11328 14.0214 8.05617 13.8703 6.50631L12.6821 6.50631ZM16.36 8.60225C16.6395 8.82989 16.9429 8.95326 17.2146 9.00877L16.9603 6.50631L15.3788 6.50631C15.5178 7.64271 15.9462 8.26522 16.36 8.60225ZM10.1474 6.50631C9.99632 8.05617 9.40556 9.11328 8.60485 9.76536C7.9765 10.2771 7.26255 10.5017 6.64002 10.5397L5.66047 20.0794C5.65471 20.1356 5.69653 20.1854 5.75283 20.1894L9.53342 20.4593C9.58806 20.4632 9.63567 20.4224 9.6402 20.3678L10.4149 11.0694C10.4652 10.4638 10.7743 10.0456 11.1821 9.81479V6.50631L10.1474 6.50631ZM8.63883 6.50631L7.05417 6.50631L6.79709 9.00998C7.07031 8.95507 7.37607 8.83156 7.65765 8.60225C8.07151 8.26522 8.49987 7.64271 8.63883 6.50631Z" fill="white"/>
</svg>
