<svg width="24" height="24" viewBox="0 0 24 24" fill="none" xmlns="http://www.w3.org/2000/svg">
<path d="M16.871 4.99895H17.995C19.104 4.99895 20.048 5.38895 20.829 6.16995C21.61 6.95095 22 7.89595 22 9.00395V17.997C22 19.106 21.61 20.05 20.829 20.831C20.048 21.612 19.103 22.002 17.995 22.002H6.005C4.896 22.002 3.952 21.612 3.171 20.831C2.39 20.05 2 19.105 2 17.997V6.00695C2 4.89795 2.39 3.95395 3.171 3.17295C3.952 2.39195 4.897 2.00195 6.005 2.00195H13.007C13.928 2.00195 14.748 2.29195 15.465 2.86795C16.162 3.39795 16.658 4.14995 16.871 4.99895ZM6.005 3.49995C5.334 3.49995 4.756 3.73495 4.272 4.20195C3.808 4.64495 3.531 5.24795 3.499 5.88895C3.843 5.60795 4.225 5.38895 4.647 5.23395C5.084 5.07695 5.536 4.99895 6.005 4.99895H15.279C15.088 4.55695 14.77 4.18295 14.366 3.92195C13.968 3.64295 13.493 3.49595 13.007 3.49995H6.005ZM3.499 9.00295V17.996C3.499 18.683 3.741 19.276 4.225 19.776C4.725 20.261 5.317 20.502 6.005 20.502H17.995C18.682 20.502 19.267 20.26 19.752 19.776C20.252 19.276 20.501 18.684 20.501 17.996V9.00295C20.501 8.31595 20.251 7.73095 19.752 7.24595C19.267 6.74595 18.683 6.49695 17.995 6.49695H6.005C5.318 6.49695 4.725 6.74695 4.225 7.24595C3.99 7.47395 3.805 7.74695 3.68 8.04895C3.555 8.35095 3.493 8.67595 3.499 9.00295Z" fill="white"/>
</svg>
