<svg width="24" height="24" viewBox="0 0 24 24" fill="none" xmlns="http://www.w3.org/2000/svg">
<path d="M16.534 9.49634C16.827 9.78834 16.827 10.2613 16.534 10.5523L10.995 16.0603L7.45901 12.5443C7.16601 12.2523 7.16601 11.7793 7.45901 11.4883C7.75201 11.1973 8.22801 11.1963 8.52101 11.4883L10.994 13.9483L15.47 9.49634C15.763 9.20434 16.239 9.20434 16.532 9.49634H16.534Z" fill="white"/>
<path d="M6.014 2C4.902 2 3.956 2.388 3.174 3.167C2.391 3.945 2 4.886 2 5.992V18.008C2 19.114 2.391 20.055 3.174 20.833C3.956 21.612 4.903 22 6.014 22H17.986C19.098 22 20.044 21.612 20.826 20.833C21.608 20.055 22 19.114 22 18.008V5.992C22 4.886 21.609 3.945 20.826 3.167C20.043 2.389 19.097 2 17.986 2H6.014ZM17.986 3.494C18.69 3.494 19.285 3.735 19.77 4.218C20.256 4.7 20.498 5.292 20.498 5.991V18.008C20.498 18.708 20.256 19.3 19.77 19.782C19.285 20.265 18.69 20.506 17.987 20.506H6.013C5.309 20.506 4.714 20.265 4.229 19.782C3.743 19.3 3.501 18.708 3.501 18.009V5.991C3.501 5.291 3.743 4.699 4.229 4.217C4.714 3.734 5.309 3.493 6.012 3.493L17.986 3.494Z" fill="white"/>
</svg>
