<svg width="24" height="24" viewBox="0 0 24 24" fill="none" xmlns="http://www.w3.org/2000/svg">
<path fill-rule="evenodd" clip-rule="evenodd" d="M2.34866 5.64144C2.11627 6.16678 2.00008 6.72848 2.00008 7.32472V14.5886C1.99642 15.1669 2.1151 15.7397 2.34866 16.271C2.5728 16.784 2.89027 17.253 3.28563 17.6553C3.69697 18.0419 4.17663 18.3523 4.70132 18.5714C5.24496 18.7999 5.83108 18.916 6.42282 18.9123H8.60165C8.99896 18.9102 9.39228 18.9898 9.75614 19.1458C10.1237 19.2818 10.4577 19.4925 10.7359 19.7639L12 21L13.2633 19.7657C13.3747 19.6564 13.495 19.5566 13.6227 19.4674C13.9283 19.254 14.1025 18.8666 13.9616 18.5216C13.8178 18.1697 13.4144 17.9887 13.0877 18.183C12.953 18.263 12.8227 18.3502 12.6972 18.4442V7.32472C12.6972 6.50126 12.9872 5.80504 13.5691 5.23607C14.164 4.65438 14.8835 4.36353 15.7256 4.36353H17.5773C18.4055 4.36353 19.1175 4.65528 19.7124 5.23698C20.3073 5.80504 20.6048 6.50126 20.6048 7.32472V13.439C20.6048 13.7723 20.9095 14.0438 21.2412 14.0761C21.6475 14.1157 22 13.8034 22 13.3952V7.32472C22 6.72848 21.8829 6.16678 21.6505 5.64144C21.4276 5.12907 21.1021 4.66551 20.6931 4.27809C20.2969 3.87786 19.8228 3.55924 19.2988 3.34102C18.7606 3.11379 18.187 3.00018 17.5773 3.00018H15.7256C14.969 2.99326 14.2244 3.18471 13.5691 3.55461C12.9321 3.89427 12.3926 4.38494 12 4.98158C11.6075 4.38494 11.068 3.89427 10.431 3.55461C9.77752 3.18469 9.05899 3.00018 8.27446 3.00018H6.42282C5.83108 2.99645 5.24496 3.1125 4.70132 3.34102C3.64194 3.78087 2.7985 4.60558 2.34866 5.64144ZM10.4105 5.23698C11.0054 5.80504 11.3029 6.50126 11.3029 7.32472V18.4442C10.9255 18.1606 10.5044 17.9406 10.0396 17.7843C9.57488 17.628 9.09524 17.5489 8.60165 17.5489H6.42282C5.5946 17.5489 4.88258 17.2581 4.28767 16.6764C3.69277 16.0938 3.39532 15.3976 3.39532 14.5886V7.32472C3.39532 6.50126 3.69277 5.80504 4.28767 5.23607C4.88351 4.65438 5.59553 4.36353 6.42282 4.36353H8.27446C9.11662 4.36353 9.82864 4.65528 10.4105 5.23698Z" fill="white"/>
<path fill-rule="evenodd" clip-rule="evenodd" d="M18.8808 18.6288C18.3734 18.9286 17.7727 19.0825 17.1404 19.0373C15.4856 18.9188 14.2401 17.4814 14.3585 15.8265C14.477 14.1717 15.9144 12.9263 17.5692 13.0447C19.2241 13.1631 20.4695 14.6006 20.3511 16.2554C20.3112 16.813 20.1215 17.3242 19.8242 17.7523L21.3067 19.422C21.5428 19.6879 21.5186 20.0947 21.2528 20.3308C20.9869 20.5668 20.5801 20.5426 20.344 20.2768L18.8808 18.6288ZM19.067 16.1635C18.9993 17.1091 18.1779 17.8208 17.2323 17.7531C16.2867 17.6855 15.575 16.864 15.6426 15.9184C15.7103 14.9728 16.5317 14.2611 17.4773 14.3288C18.4229 14.3965 19.1346 15.2179 19.067 16.1635Z" fill="white"/>
</svg>
