<svg width="24" height="24" viewBox="0 0 24 24" fill="none" xmlns="http://www.w3.org/2000/svg">
<path d="M19.2895 13.6439C19.2735 12.8108 18.9667 12.1041 18.3702 11.5226L21.1501 8.62442C21.4318 8.34473 21.6524 8.0099 21.7977 7.64098C21.9431 7.27207 22.0123 6.87709 21.9982 6.4811C21.9822 5.64804 21.6764 4.94128 21.0789 4.35984L19.6183 2.96939C19.3386 2.68769 19.0038 2.46714 18.6349 2.32178C18.266 2.17642 17.871 2.10725 17.474 2.12129C17.077 2.12229 16.684 2.20449 16.3191 2.36289C15.9542 2.52128 15.6264 2.75085 15.3537 3.04057L12.5728 5.93876C12.2901 5.66408 11.9543 5.44854 11.5854 5.30719C11.2165 5.16584 10.8235 5.09968 10.4295 5.11471C10.0325 5.11572 9.63956 5.19792 9.27465 5.35531C8.90974 5.5127 8.58093 5.74327 8.30825 6.03199L4.8206 9.661C4.68025 9.80235 4.68025 10.07 4.8206 10.462C4.96095 10.855 5.21257 11.3181 5.57447 11.8524C6.00454 12.475 6.46869 13.0725 6.96492 13.6429C7.55939 14.3336 8.18795 14.9942 8.84859 15.6228C9.50723 16.2554 10.1909 16.8609 10.8997 17.4373C11.4881 17.9095 12.1017 18.3496 12.7372 18.7566C13.3036 19.1024 13.7828 19.33 14.1748 19.4403C14.5668 19.5656 14.8344 19.5576 14.9748 19.4172L18.4635 15.7882C18.7381 15.5055 18.9537 15.1697 19.095 14.8007C19.2364 14.4318 19.3025 14.0389 19.2875 13.6449L19.2895 13.6439ZM17.3577 14.7506L14.9307 17.2719L6.96692 9.61388L9.39395 7.06956C9.67665 6.77082 10.0225 6.62246 10.4305 6.62246C10.631 6.61143 10.8315 6.64351 11.019 6.71669C11.2064 6.78987 11.3749 6.90215 11.5142 7.04751L12.622 8.08408L16.4394 4.1032C16.7171 3.81349 17.0981 3.64407 17.4991 3.63103C17.6996 3.62001 17.9001 3.65209 18.0875 3.72527C18.275 3.79845 18.4434 3.91073 18.5827 4.05609L20.0203 5.44654C20.3191 5.72924 20.4684 6.08312 20.4684 6.50717C20.4835 6.91518 20.3501 7.26906 20.0674 7.5668L16.2269 11.5727L17.3336 12.6093C17.6324 12.892 17.7818 13.2459 17.7818 13.6699C17.7968 14.078 17.6564 14.4389 17.3577 14.7536V14.7506Z" fill="white"/>
<path d="M5.97747 13.5496C5.93937 13.4564 5.88123 13.3732 5.80805 13.304C5.73487 13.2349 5.64765 13.1817 5.55342 13.1486C5.46319 13.1096 5.36595 13.0915 5.26771 13.0955C5.16946 13.0995 5.07423 13.1256 4.98701 13.1727L2.46575 14.3025C2.36851 14.3446 2.2813 14.4068 2.20812 14.484C2.13493 14.5612 2.07879 14.6524 2.0417 14.7516C1.97855 14.9361 1.98757 15.1376 2.06576 15.317C2.16 15.5065 2.30135 15.6388 2.48981 15.718C2.68229 15.7812 2.89181 15.7722 3.07928 15.694L5.59953 14.5401C5.68975 14.504 5.77296 14.4499 5.84113 14.3807C5.9093 14.3115 5.96444 14.2293 6.00053 14.1391C6.03962 14.0449 6.05767 13.9436 6.05366 13.8424C6.04965 13.7411 6.02358 13.6409 5.97647 13.5506L5.97747 13.5496Z" fill="white"/>
<path d="M9.37189 18.0458C9.29871 18.111 9.24057 18.1932 9.20448 18.2844L7.98044 20.7826C7.93432 20.8728 7.90625 20.9711 7.89823 21.0723C7.89021 21.1736 7.90224 21.2748 7.93332 21.3721C8.00951 21.5585 8.15186 21.7089 8.33331 21.7961C8.41953 21.8422 8.51376 21.8703 8.611 21.8783C8.70824 21.8863 8.80649 21.8743 8.89872 21.8432C8.99395 21.8101 9.08017 21.757 9.15335 21.6888C9.22653 21.6207 9.28468 21.5365 9.32277 21.4432L10.5468 18.946C10.5929 18.8598 10.619 18.7636 10.624 18.6663C10.629 18.5691 10.61 18.4709 10.5709 18.3806C10.5428 18.2834 10.4947 18.1942 10.4305 18.117C10.3664 18.0398 10.2852 17.9776 10.1939 17.9335C10.1077 17.8864 10.0115 17.8603 9.91323 17.8563C9.81499 17.8523 9.71775 17.8704 9.62753 17.9095C9.53229 17.9355 9.44507 17.9826 9.37089 18.0478L9.37189 18.0458Z" fill="white"/>
<path d="M6.21305 17.4132C6.06569 17.2759 5.8712 17.2007 5.6697 17.2017C5.46921 17.2007 5.27573 17.2759 5.12836 17.4132L2.29934 20.2413C2.162 20.3886 2.08681 20.5821 2.08782 20.7836C2.08782 20.9881 2.15799 21.1685 2.29934 21.3259C2.43969 21.4663 2.61412 21.5375 2.81763 21.5375C2.91788 21.5415 3.01712 21.5244 3.11035 21.4883C3.20359 21.4523 3.2888 21.3971 3.35997 21.3269L6.21105 18.4759C6.3514 18.3355 6.42257 18.1611 6.42257 17.9576C6.42658 17.8573 6.40954 17.7581 6.37345 17.6649C6.33736 17.5716 6.28323 17.4864 6.21305 17.4162V17.4132Z" fill="white"/>
</svg>
