<svg width="24" height="24" viewBox="0 0 24 24" fill="none" xmlns="http://www.w3.org/2000/svg">
<path d="M6.33478 12.4444C6.39819 12.3408 6.48373 12.2532 6.58639 12.1878C7.35429 11.7329 8.19163 11.3716 9.10144 11.1019C10.0253 10.8321 10.9915 10.6963 12.0009 10.6963C13.0104 10.6963 13.9695 10.8321 14.8783 11.1019C15.8022 11.3716 16.6476 11.7339 17.4155 12.1888C17.5171 12.2522 17.6007 12.3408 17.6611 12.4444C17.7215 12.5481 17.7537 12.6658 17.7567 12.7856C17.7728 12.9003 17.7587 13.0171 17.7184 13.1248C17.6782 13.2325 17.6097 13.3291 17.5222 13.4046L16.6697 14.1936C16.5137 14.3345 16.3286 14.421 16.1152 14.4482C15.9169 14.4623 15.7247 14.413 15.5405 14.2993C15.0081 14.0064 14.4425 13.7779 13.8558 13.6169C12.636 13.2767 11.3458 13.2767 10.126 13.6169C9.54728 13.78 8.98872 14.0084 8.46236 14.2993C8.27819 14.413 8.07891 14.4633 7.86555 14.4482C7.66628 14.42 7.48915 14.3345 7.33215 14.1926L6.47971 13.4036C6.39215 13.3281 6.32271 13.2325 6.27842 13.1248C6.23414 13.0171 6.21502 12.9013 6.22307 12.7856C6.23414 12.6648 6.27239 12.5481 6.33478 12.4444Z" fill="white"/>
<path d="M2.21547 9.14162C2.13999 9.06211 2.08162 8.96851 2.04539 8.86586C2.00916 8.7632 1.99406 8.6535 2.00211 8.54481C2.00513 8.43209 2.03432 8.32239 2.08564 8.22275C2.13697 8.12312 2.21044 8.03657 2.30001 7.96914C2.97432 7.45385 3.68686 6.99089 4.43162 6.5843C5.19851 6.18576 5.98654 5.85162 6.79771 5.5819C7.60688 5.29809 8.45328 5.08473 9.33591 4.94282C10.2014 4.80092 11.0901 4.73047 11.9999 4.73047C12.9097 4.73047 13.7984 4.80192 14.6649 4.94282C15.5455 5.08473 16.3909 5.29708 17.2021 5.5819C18.0113 5.85162 18.8013 6.18576 19.5682 6.5843C20.321 6.99593 21.0326 7.45787 21.6998 7.96914C21.7894 8.03657 21.8629 8.12312 21.9142 8.22275C21.9655 8.32239 21.9947 8.43209 21.9977 8.54481C22.0058 8.6535 21.9917 8.7632 21.9544 8.86586C21.9172 8.96851 21.8598 9.06211 21.7844 9.14162L20.8675 10.1007C20.792 10.1843 20.6994 10.2527 20.5968 10.3C20.4941 10.3473 20.3834 10.3745 20.2707 10.3785C20.0442 10.3926 19.8198 10.3332 19.6316 10.2074C19.1093 9.81693 18.5527 9.47475 17.969 9.18389C17.3863 8.87089 16.7683 8.60821 16.1132 8.39485C15.465 8.17948 14.8018 8.00839 14.1305 7.88359C13.426 7.76886 12.7135 7.71149 11.9989 7.7125C11.2743 7.7125 10.5637 7.76987 9.8673 7.88359C9.18495 7.98323 8.51769 8.13822 7.86352 8.35158C7.22444 8.56494 6.61253 8.82057 6.02981 9.11948C5.4481 9.43248 4.89256 9.77969 4.3672 10.1641C4.18504 10.305 3.95759 10.3735 3.72813 10.3564C3.50369 10.3503 3.29134 10.2587 3.13132 10.1017L2.21447 9.14061V9.14263L2.21547 9.14162Z" fill="white"/>
<path d="M10.2529 17.4978C10.267 17.2854 10.3807 17.1214 10.5941 17.0077C11.0329 16.7963 11.514 16.6876 12.0011 16.6876C12.4882 16.6876 12.9692 16.7963 13.408 17.0067C13.6204 17.1214 13.7271 17.2844 13.7271 17.4978C13.7341 17.6035 13.719 17.7092 13.6818 17.8088C13.6446 17.9084 13.5882 17.998 13.5137 18.0735L12.6391 19.0115C12.5556 19.095 12.456 19.1614 12.3463 19.2057C12.2366 19.25 12.1188 19.2711 12.0001 19.2671C11.8813 19.2701 11.7636 19.249 11.6528 19.2057C11.5421 19.1624 11.4425 19.095 11.359 19.0115L10.4854 18.0745C10.3294 17.9034 10.2509 17.7112 10.2509 17.4988L10.2529 17.4978Z" fill="white"/>
</svg>
