<svg width="24" height="24" viewBox="0 0 24 24" fill="none" xmlns="http://www.w3.org/2000/svg">
<path d="M16.9463 14.251C17.3708 14.2514 17.7146 14.595 17.7148 15.0195C17.7147 15.4442 17.3709 15.7887 16.9463 15.7891H9.06152C8.63679 15.7889 8.29312 15.4443 8.29297 15.0195C8.29325 14.5949 8.63687 14.2512 9.06152 14.251H16.9463Z" fill="white"/>
<path d="M14.8975 10.7129C15.3221 10.7131 15.6667 11.0568 15.667 11.4815C15.6668 11.9062 15.3222 12.2508 14.8975 12.251H9.06152C8.63679 12.2508 8.29312 11.9062 8.29297 11.4815C8.29329 11.0569 8.6369 10.7131 9.06152 10.7129H14.8975Z" fill="white"/>
<path d="M15.2217 1.99904C15.6391 1.99779 16.0535 2.06966 16.4463 2.21095C16.8438 2.34669 17.2171 2.54519 17.5518 2.79884L20.5166 5.10256C20.981 5.45498 21.3535 5.91552 21.6006 6.44338C21.8665 6.9599 22 7.51658 22 8.11232V15.416C22 16.4503 21.6314 17.3359 20.8936 18.0723C20.554 18.4293 20.1455 18.7142 19.6924 18.9082C19.2394 19.1022 18.7516 19.2017 18.2588 19.2012C18.0141 20.0075 17.5193 20.7156 16.8467 21.2236C16.1561 21.7402 15.3651 21.999 14.4697 21.999H5.97656C4.87928 21.999 3.93741 21.6068 3.15234 20.8233C2.38442 20.0398 2 19.0984 2 18.001V9.21681C2.00006 8.30803 2.27516 7.50848 2.82324 6.81935C3.34029 6.1354 4.0677 5.63991 4.89355 5.40822C4.98893 4.45218 5.39535 3.64544 6.11816 2.98634C6.83887 2.32834 7.69397 1.99913 8.68164 1.99904H15.2217ZM4.86914 7.12306C4.4937 7.31165 4.18709 7.59358 3.95117 7.96974C3.7163 8.34586 3.59868 8.76147 3.59863 9.21681V18.002C3.59373 18.3152 3.65141 18.6265 3.76855 18.917C3.88579 19.2077 4.06027 19.472 4.28125 19.6944C4.50039 19.9213 4.76337 20.1014 5.05469 20.2227C5.34615 20.344 5.65989 20.4048 5.97559 20.4004H14.4697C14.9082 20.4004 15.3077 20.2908 15.6689 20.0713C16.0326 19.8652 16.3343 19.5643 16.541 19.2012L16.54 19.2002H8.68066C8.17866 19.2074 7.68054 19.1127 7.21582 18.9229C6.75096 18.7329 6.32883 18.4515 5.97559 18.0947C5.23872 17.3584 4.86914 16.4644 4.86914 15.4151V7.12306ZM8.68066 3.43361C8.36527 3.42939 8.0519 3.4901 7.76074 3.61134C7.46967 3.73263 7.2063 3.91192 6.9873 4.13869C6.53253 4.59313 6.30469 5.15052 6.30469 5.80861V15.4151C6.30115 15.7249 6.3603 16.0325 6.47754 16.3194C6.59473 16.606 6.76792 16.8663 6.9873 17.085C7.20637 17.3118 7.46961 17.492 7.76074 17.6133C8.05189 17.7345 8.36527 17.7952 8.68066 17.791H18.1875C18.4997 17.7967 18.81 17.7367 19.0977 17.6153C19.3853 17.4938 19.6439 17.3126 19.8574 17.085C20.3282 16.6145 20.5635 16.058 20.5635 15.416V9.38185H17.2461C16.5245 9.38177 15.9056 9.13037 15.3877 8.62892C14.8858 8.11232 14.6338 7.49369 14.6338 6.77248V3.43361H8.68066ZM16.0459 6.77248C16.0438 6.93019 16.074 7.08687 16.1348 7.23244C16.1955 7.37798 16.2858 7.50973 16.3994 7.61916C16.6342 7.83763 16.9161 7.94818 17.2461 7.94826H20.5635C20.5484 7.61922 20.4539 7.3048 20.2812 7.00685C20.1246 6.69293 19.9125 6.43507 19.6455 6.23146L16.6816 3.92677C16.5873 3.86357 16.4854 3.8015 16.375 3.7383C16.2657 3.67617 16.1562 3.62134 16.0459 3.57423V6.77248Z" fill="white"/>
</svg>
