<svg width="24" height="24" viewBox="0 0 24 24" fill="none" xmlns="http://www.w3.org/2000/svg">
<path fill-rule="evenodd" clip-rule="evenodd" d="M6.5 8.29419C6.5 7.87998 6.83579 7.54419 7.25 7.54419H20.75C21.1642 7.54419 21.5 7.87998 21.5 8.29419C21.5 8.7084 21.1642 9.04419 20.75 9.04419H20.25V17.1145C21.2643 17.433 22 18.3806 22 19.5C22 20.8807 20.8807 22 19.5 22C18.1193 22 17 20.8807 17 19.5C17 18.3806 17.7357 17.433 18.75 17.1145V9.04419H14.75V17.1137C15.7643 17.4323 16.5 18.3799 16.5 19.4993C16.5 20.88 15.3807 21.9993 14 21.9993C12.6193 21.9993 11.5 20.88 11.5 19.4993C11.5 18.3799 12.2357 17.4323 13.25 17.1137V9.04419H9.1425L7.29831 17.3624C8.01884 17.8011 8.5 18.594 8.5 19.4993C8.5 20.88 7.38071 21.9993 6 21.9993C4.61929 21.9993 3.5 20.88 3.5 19.4993C3.5 18.171 4.53594 17.0846 5.84397 17.0041L7.60871 9.04419H7.25C6.83579 9.04419 6.5 8.7084 6.5 8.29419ZM14 20.4993C14.5523 20.4993 15 20.0516 15 19.4993C15 18.947 14.5523 18.4993 14 18.4993C13.4477 18.4993 13 18.947 13 19.4993C13 20.0516 13.4477 20.4993 14 20.4993ZM7 19.4993C7 20.0516 6.55228 20.4993 6 20.4993C5.44772 20.4993 5 20.0516 5 19.4993C5 18.947 5.44772 18.4993 6 18.4993C6.55228 18.4993 7 18.947 7 19.4993ZM20.5 19.5C20.5 20.0523 20.0523 20.5 19.5 20.5C18.9477 20.5 18.5 20.0523 18.5 19.5C18.5 18.9477 18.9477 18.5 19.5 18.5C20.0523 18.5 20.5 18.9477 20.5 19.5Z" fill="white"/>
<path d="M3.41888 5.47832C3.43547 5.41357 3.47176 5.38146 3.52826 5.38146C3.59306 5.37318 3.63765 5.39752 3.66149 5.45397L4.03734 6.42305C4.04511 6.43962 4.05755 6.45568 4.07362 6.47173C4.0897 6.48779 4.10628 6.49608 4.12235 6.49608L5.0192 6.78716C5.07622 6.81099 5.10422 6.85553 5.10422 6.91975C5.11251 6.97673 5.084 7.01299 5.0192 7.02904L4.12235 7.38021C4.10421 7.38953 4.08814 7.40196 4.07362 7.41646C4.06378 7.42734 4.05548 7.43925 4.04926 7.45272L3.68586 8.39797C3.66979 8.45494 3.62883 8.48291 3.56507 8.48291C3.50027 8.47462 3.45931 8.44251 3.44324 8.38554L3.17678 7.47706C3.16952 7.45427 3.15708 7.43356 3.14049 7.41646C3.1322 7.40093 3.11561 7.38849 3.09176 7.38021L2.09746 7.06478C2.03266 7.04924 2 7.00832 2 6.9441C2 6.87987 2.03266 6.83896 2.09746 6.82342L3.07932 6.50799C3.10369 6.50799 3.11976 6.50022 3.12805 6.48416C3.14464 6.46707 3.15708 6.44584 3.16434 6.42305L3.41888 5.47832Z" fill="white"/>
<path d="M6.51114 2.1263C6.53243 2.04323 6.57899 2.00203 6.65149 2.00203C6.73464 1.99139 6.79184 2.02263 6.82244 2.09507L7.30468 3.33847C7.31465 3.35973 7.33062 3.38034 7.35124 3.40094C7.37186 3.42154 7.39314 3.43217 7.41376 3.43217L8.56449 3.80566C8.63765 3.83623 8.67357 3.89338 8.67357 3.97579C8.68421 4.04889 8.64763 4.09541 8.56449 4.11601L7.41376 4.56658C7.39048 4.57855 7.36986 4.5945 7.35124 4.6131C7.3386 4.62706 7.32796 4.64234 7.31997 4.65962L6.8537 5.87246C6.83308 5.94556 6.78053 5.98145 6.69872 5.98145C6.61557 5.97081 6.56302 5.92961 6.5424 5.85651L6.20051 4.69086C6.1912 4.66162 6.17524 4.63503 6.15395 4.6131C6.14331 4.59317 6.12202 4.57722 6.09143 4.56658L4.81565 4.16186C4.73251 4.14193 4.6906 4.08943 4.6906 4.00702C4.6906 3.92461 4.73251 3.87211 4.81565 3.85218L6.07546 3.44746C6.10673 3.44746 6.12735 3.43749 6.13799 3.41689C6.15927 3.39496 6.17524 3.36771 6.18455 3.33847L6.51114 2.1263Z" fill="white"/>
</svg>
