<svg width="24" height="24" viewBox="0 0 24 24" fill="none" xmlns="http://www.w3.org/2000/svg">
<path d="M2.75 15C3.16421 15 3.5 15.3358 3.5 15.75V18C3.5 19.3807 4.61929 20.5 6 20.5H8.25C8.66421 20.5 9 20.8358 9 21.25C9 21.6642 8.66421 22 8.25 22H6L5.79395 21.9951C3.7488 21.8913 2.10865 20.2512 2.00488 18.2061L2 18V15.75C2 15.3358 2.33579 15 2.75 15Z" fill="white"/>
<path d="M21.25 15C21.6642 15 22 15.3358 22 15.75V18L21.9951 18.2061C21.8913 20.2512 20.2512 21.8913 18.2061 21.9951L18 22H15.75C15.3358 22 15 21.6642 15 21.25C15 20.8358 15.3358 20.5 15.75 20.5H18C19.3807 20.5 20.5 19.3807 20.5 18V15.75C20.5 15.3358 20.8358 15 21.25 15Z" fill="white"/>
<path d="M16.25 6.81641C16.6642 6.81641 17 7.15219 17 7.56641C17 7.98062 16.6642 8.31641 16.25 8.31641H12.75V16.4336C12.75 16.8478 12.4142 17.1836 12 17.1836C11.5858 17.1836 11.25 16.8478 11.25 16.4336V8.31641H7.75C7.33579 8.31641 7 7.98062 7 7.56641C7 7.15219 7.33579 6.81641 7.75 6.81641H16.25Z" fill="white"/>
<path d="M8.25 2C8.66421 2 9 2.33579 9 2.75C9 3.16421 8.66421 3.5 8.25 3.5H6C4.61929 3.5 3.5 4.61929 3.5 6V8.25C3.5 8.66421 3.16421 9 2.75 9C2.33579 9 2 8.66421 2 8.25V6C2 3.85996 3.68056 2.11211 5.79395 2.00488L6 2H8.25Z" fill="white"/>
<path d="M18 2L18.2061 2.00488C20.3194 2.11211 22 3.85996 22 6V8.25C22 8.66421 21.6642 9 21.25 9C20.8358 9 20.5 8.66421 20.5 8.25V6C20.5 4.61929 19.3807 3.5 18 3.5H15.75C15.3358 3.5 15 3.16421 15 2.75C15 2.33579 15.3358 2 15.75 2H18Z" fill="white"/>
</svg>
