<svg width="24" height="24" viewBox="0 0 24 24" fill="none" xmlns="http://www.w3.org/2000/svg">
<path d="M18.634 7.43295C18.784 7.57295 18.982 7.65095 19.188 7.64895C19.286 7.65095 19.384 7.63195 19.474 7.59495C19.564 7.55795 19.647 7.50295 19.716 7.43295C19.792 7.36195 19.852 7.27695 19.894 7.18195C19.936 7.08695 19.957 6.98395 19.957 6.88095V5.60595H21.231C21.333 5.60995 21.435 5.59295 21.53 5.55595C21.625 5.51895 21.712 5.46295 21.785 5.39095C21.929 5.22995 22 5.04595 22 4.83795C22 4.61195 21.928 4.42895 21.785 4.28395C21.712 4.21195 21.626 4.15595 21.53 4.11895C21.434 4.08195 21.333 4.06495 21.231 4.06895H19.957V2.77095C19.957 2.56295 19.877 2.38595 19.716 2.24195C19.572 2.08195 19.396 2.00195 19.188 2.00195C19.084 2.00195 18.982 2.02295 18.886 2.06495C18.79 2.10695 18.705 2.16695 18.634 2.24195C18.49 2.38695 18.419 2.56295 18.419 2.77095V4.07095H17.122C17.02 4.06695 16.918 4.08495 16.823 4.12195C16.728 4.15895 16.641 4.21595 16.568 4.28795C16.497 4.35995 16.441 4.44695 16.403 4.54195C16.365 4.63695 16.349 4.73795 16.352 4.83995C16.35 5.04495 16.427 5.24395 16.567 5.39395C16.639 5.46595 16.726 5.52195 16.821 5.55895C16.916 5.59595 17.018 5.61395 17.12 5.60995H18.418V6.88195C18.416 7.08695 18.493 7.28595 18.633 7.43595L18.634 7.43295Z" fill="white"/>
<path d="M13.249 4.04295C13.475 4.04295 13.659 4.12295 13.803 4.28395C13.947 4.42795 14.018 4.60395 14.018 4.81195C14.022 4.91395 14.005 5.01595 13.968 5.11095C13.931 5.20595 13.875 5.29295 13.803 5.36595C13.73 5.43795 13.644 5.49395 13.548 5.53095C13.452 5.56795 13.351 5.58495 13.249 5.58095H6.87997C5.95097 5.58095 5.15697 5.90895 4.50097 6.56695C4.19097 6.87495 3.94597 7.24195 3.77997 7.64695C3.61397 8.05195 3.53297 8.48595 3.53897 8.92295V17.12C3.53897 18.049 3.85997 18.843 4.50097 19.499C5.15697 20.14 5.95097 20.461 6.87997 20.461H15.077C15.99 20.461 16.775 20.14 17.433 19.499C18.089 18.843 18.418 18.049 18.418 17.12V10.726C18.418 10.518 18.491 10.341 18.635 10.197C18.704 10.119 18.789 10.057 18.885 10.015C18.981 9.97295 19.084 9.95395 19.188 9.95695C19.396 9.95695 19.573 10.037 19.716 10.197C19.877 10.341 19.957 10.518 19.957 10.726V17.12C19.957 17.793 19.829 18.427 19.572 19.019C19.076 20.188 18.145 21.118 16.976 21.615C16.376 21.873 15.729 22.004 15.077 22H6.87997C6.22697 22.004 5.57997 21.873 4.98097 21.615C4.40197 21.368 3.87297 21.017 3.41897 20.581C2.98297 20.127 2.63297 19.598 2.38497 19.019C2.12697 18.419 1.99597 17.772 1.99997 17.12V8.92295C1.99997 8.24995 2.12797 7.61695 2.38497 7.02395C2.88197 5.85595 3.81197 4.92495 4.98097 4.42895C5.58097 4.17095 6.22797 4.03995 6.87997 4.04295H13.249Z" fill="white"/>
<path d="M11.711 11.495H14.308C14.516 11.495 14.693 11.423 14.837 11.279C14.913 11.208 14.973 11.122 15.014 11.027C15.055 10.932 15.077 10.829 15.077 10.725C15.08 10.621 15.06 10.518 15.018 10.422C14.976 10.326 14.915 10.242 14.837 10.173C14.768 10.103 14.686 10.047 14.595 10.01C14.504 9.97295 14.406 9.95495 14.308 9.95695H7.64997C7.44497 9.95495 7.24597 10.032 7.09597 10.172C7.02397 10.245 6.96797 10.331 6.93097 10.427C6.89397 10.523 6.87697 10.624 6.88097 10.726C6.88097 10.934 6.95297 11.119 7.09597 11.279C7.25697 11.423 7.44197 11.494 7.64997 11.494H10.173V16.35C10.173 16.558 10.246 16.743 10.39 16.904C10.55 17.048 10.735 17.119 10.943 17.119C11.045 17.123 11.147 17.105 11.242 17.068C11.337 17.031 11.424 16.975 11.496 16.903C11.636 16.753 11.713 16.554 11.711 16.349V11.495Z" fill="white"/>
</svg>
