<svg width="24" height="24" viewBox="0 0 24 24" fill="none" xmlns="http://www.w3.org/2000/svg">
<path d="M6.40481 9.91411C6.47881 9.98511 6.53681 10.0711 6.57781 10.1661C6.61881 10.2611 6.63881 10.3621 6.63881 10.4651C6.63881 10.5681 6.61781 10.6691 6.57781 10.7641C6.53781 10.8591 6.47881 10.9441 6.40481 11.0161L5.02281 12.3741C4.55381 12.8351 4.17981 13.3841 3.92181 13.9901C3.68981 14.5721 3.56281 15.1901 3.54681 15.8161C3.53081 16.4251 3.63281 17.0181 3.85181 17.5961C4.08481 18.1711 4.42681 18.6961 4.85881 19.1411C5.31181 19.5791 5.82581 19.9141 6.40381 20.1481C6.98181 20.3671 7.57481 20.4681 8.18381 20.4531C8.80981 20.4371 9.42881 20.3101 10.0098 20.0781C10.6148 19.8201 11.1638 19.4461 11.6258 18.9771L12.9848 17.5961C13.0558 17.5221 13.1418 17.4641 13.2358 17.4241C13.3298 17.3841 13.4318 17.3631 13.5348 17.3631C13.6368 17.3631 13.7388 17.3841 13.8338 17.4241C13.9288 17.4641 14.0138 17.5231 14.0848 17.5961C14.2248 17.7521 14.2948 17.9391 14.2948 18.1571C14.2948 18.3601 14.2248 18.5401 14.0848 18.6971L12.7028 20.0541C11.5118 21.2591 9.90081 21.9561 8.20681 21.9981C7.39881 22.0111 6.59581 21.8681 5.84181 21.5761C5.06681 21.2731 4.36481 20.8101 3.78081 20.2171C3.18881 19.6331 2.72581 18.9311 2.42281 18.1571C2.13081 17.4031 1.98781 16.6001 2.00081 15.7921C2.01681 14.9801 2.18881 14.1831 2.51681 13.4041C2.85081 12.6151 3.33581 11.8981 3.94581 11.2961L5.30381 9.91411C5.44981 9.77811 5.64281 9.70311 5.84181 9.70411C6.06081 9.70411 6.24981 9.77411 6.40481 9.91411Z" fill="white"/>
<path d="M15.8412 8.93023C15.8412 8.71123 15.7632 8.53123 15.6062 8.39223C15.4662 8.23523 15.2862 8.15723 15.0692 8.15723C14.9682 8.15723 14.8682 8.17823 14.7752 8.21923C14.6822 8.26023 14.5992 8.31823 14.5302 8.39223L8.39519 14.5262C8.23819 14.6832 8.16019 14.8702 8.16019 15.0882C8.15919 15.1862 8.18019 15.2832 8.22019 15.3712C8.26019 15.4592 8.32019 15.5392 8.39519 15.6022C8.45819 15.6762 8.53719 15.7362 8.62619 15.7772C8.71519 15.8182 8.81219 15.8382 8.90919 15.8372C9.01419 15.8392 9.11819 15.8182 9.21519 15.7782C9.31219 15.7382 9.39919 15.6782 9.47219 15.6022L15.6072 9.46823C15.6812 9.39923 15.7402 9.31623 15.7802 9.22323C15.8202 9.13023 15.8412 9.03123 15.8422 8.92923L15.8412 8.93023Z" fill="white"/>
<path d="M17.5951 3.84913C18.1701 4.08213 18.6941 4.42413 19.1401 4.85613C19.5721 5.30113 19.9141 5.82613 20.1471 6.40113C20.3651 6.97613 20.4691 7.58913 20.4521 8.20413C20.4341 8.82313 20.3081 9.43313 20.0771 10.0071C19.8191 10.6121 19.4451 11.1611 18.9761 11.6231L17.5941 12.9821C17.5201 13.0531 17.4621 13.1391 17.4221 13.2331C17.3821 13.3271 17.3611 13.4291 17.3611 13.5321C17.3611 13.6351 17.3821 13.7361 17.4221 13.8311C17.4621 13.9251 17.5211 14.0111 17.5941 14.0821C17.7401 14.2181 17.9331 14.2941 18.1341 14.2921C18.3411 14.2961 18.5421 14.2211 18.6951 14.0821L20.0531 12.7011C20.6631 12.0991 21.1481 11.3821 21.4821 10.5931C21.8031 9.84413 21.9781 9.04113 21.9981 8.22713C22.0131 7.41113 21.8701 6.60013 21.5761 5.83913C21.2731 5.06513 20.8101 4.36313 20.2181 3.77913C19.6091 3.17013 18.9221 2.71713 18.1571 2.42013C17.3951 2.12713 16.5841 1.98313 15.7681 1.99813C14.9731 2.01313 14.1831 2.18613 13.4041 2.51213C12.6141 2.84613 11.8981 3.33113 11.2961 3.94113L9.91413 5.30013C9.77313 5.45613 9.70313 5.64413 9.70313 5.86113C9.70213 6.06113 9.77813 6.25413 9.91513 6.39913C9.98613 6.47213 10.0721 6.53113 10.1661 6.57113C10.2601 6.61113 10.3621 6.63113 10.4641 6.63113C10.5661 6.63113 10.6681 6.61013 10.7621 6.57113C10.8561 6.53213 10.9421 6.47313 11.0131 6.39913L12.3721 5.01813C12.8331 4.54913 13.3821 4.17513 13.9881 3.91713C14.5621 3.68713 15.1731 3.56013 15.7911 3.54213C16.4061 3.52513 17.0191 3.62813 17.5941 3.84713L17.5951 3.84913Z" fill="white"/>
</svg>
