<svg width="24" height="24" viewBox="0 0 24 24" fill="none" xmlns="http://www.w3.org/2000/svg">
<path d="M6.54763 9.7323C6.98746 9.7323 7.36369 9.8886 7.6763 10.2003C7.98891 10.4993 8.14521 10.8682 8.14521 11.309V14.9503C8.14521 15.3902 7.98891 15.7664 7.6763 16.079C7.53018 16.2301 7.35465 16.3497 7.16052 16.4304C6.9664 16.511 6.75781 16.551 6.54763 16.5479H4.7374C4.29665 16.5479 3.92043 16.3916 3.60873 16.079C3.45761 15.9329 3.33804 15.7574 3.25739 15.5632C3.17674 15.3691 3.13672 15.1605 3.13981 14.9503C3.13981 13.5926 3.13981 12.2083 3.13981 10.861C3.13981 9.6396 3.37427 8.48913 3.84228 7.41044C4.27776 6.36014 4.91465 5.40526 5.71703 4.59967C6.5284 3.78891 7.4907 3.1449 8.54961 2.70402C9.63869 2.23322 10.8137 1.99371 12.0001 2.00065C13.1865 1.99342 14.3615 2.23262 15.4507 2.70311C16.5049 3.14113 17.4606 3.78602 18.2614 4.59967C19.0748 5.40082 19.7194 6.35687 20.1571 7.41135C20.6276 8.5005 20.8668 9.67547 20.8595 10.8619C20.8586 11.0088 20.8593 11.1602 20.8595 11.309V14.9503C20.8595 16.0081 20.2418 17.2923 19.7091 18.1664C19.2403 18.9312 18.6505 19.6147 17.9624 20.1902C17.2653 20.7529 16.4814 21.1988 15.6415 21.5106C14.77 21.8381 13.8462 22.0041 12.9152 22.0004H11.0832C10.6434 22.0004 10.2671 21.8441 9.95453 21.5315C9.80929 21.3822 9.69507 21.2056 9.61849 21.0118C9.5419 20.8181 9.50446 20.6111 9.50834 20.4028V19.4868C9.50834 19.047 9.65737 18.678 9.95544 18.3791C10.1016 18.2281 10.2772 18.1087 10.4713 18.0282C10.6654 17.9477 10.874 17.9078 11.0841 17.9111H12.9162C13.356 17.9111 13.7249 18.0674 14.0239 18.3791C14.3356 18.678 14.4919 19.047 14.4919 19.4877V20.4446C15.5022 20.1954 16.4375 19.7059 17.2182 19.0179C17.9979 18.3435 18.6104 17.4974 19.0075 16.5461H17.4526C17.0128 16.5461 16.6366 16.3907 16.324 16.0781C16.173 15.9321 16.0535 15.7567 15.9728 15.5627C15.8922 15.3688 15.8521 15.1604 15.8551 14.9503V11.3081C15.8551 10.8682 16.0114 10.4993 16.324 10.2003C16.4702 10.0493 16.6457 9.92994 16.8399 9.84945C17.034 9.76896 17.2425 9.72909 17.4526 9.7323H19.4119C19.2793 8.85058 18.991 7.99946 18.5604 7.21869C18.1311 6.45118 17.5686 5.7662 16.8992 5.19581C16.2371 4.62227 15.4804 4.16811 14.6628 3.85359C13.8138 3.52494 12.9105 3.35878 12.0001 3.36377C11.0632 3.36377 10.1754 3.52735 9.33749 3.8545C8.51517 4.17188 7.75208 4.62531 7.08016 5.19581C6.4208 5.77068 5.86558 6.45501 5.43895 7.21869C5.00836 7.99946 4.72004 8.85058 4.58745 9.7323H6.54763ZM19.4973 14.0343V11.3081C19.4978 11.1883 19.381 11.0894 19.2629 11.0954H17.4526C17.3316 11.099 17.2177 11.1804 17.2182 11.3081V14.9503C17.2182 15.0822 17.3207 15.1848 17.4526 15.1848H19.3265C19.3582 15.1683 19.4973 15.142 19.4973 14.9281C19.4973 14.6757 19.4973 14.3481 19.4973 14.0343ZM12.9162 20.6373C13.0438 20.6378 13.1253 20.5239 13.1288 20.4028V19.4868C13.1293 19.3747 13.0278 19.2737 12.9162 19.2742H11.0841C10.9702 19.2737 10.871 19.373 10.8715 19.4868V20.4028C10.8715 20.508 10.9604 20.6373 11.0841 20.6373H12.9162ZM4.7374 11.0954C4.61632 11.0892 4.50244 11.1836 4.50294 11.3081V14.9503C4.50294 15.0555 4.5818 15.1848 4.7374 15.1848H6.54763C6.66595 15.1853 6.78209 15.068 6.78209 14.9503V11.3081C6.78209 11.1977 6.65499 11.095 6.54763 11.0954H4.7374Z" fill="white"/>
</svg>
