<svg width="24" height="24" viewBox="0 0 24 24" fill="none" xmlns="http://www.w3.org/2000/svg">
<path d="M4.26758 6.68065C4.26758 5.34665 5.34958 4.26465 6.68358 4.26465C8.01758 4.26465 9.09958 5.34665 9.09958 6.68065C9.09958 8.01465 8.01758 9.09665 6.68358 9.09665C5.34958 9.09665 4.26758 8.01465 4.26758 6.68065ZM6.68358 5.65965C6.11958 5.65965 5.66258 6.11665 5.66258 6.68065C5.66258 7.24465 6.11958 7.70165 6.68358 7.70165C7.24758 7.70165 7.70458 7.24465 7.70458 6.68065C7.70458 6.11665 7.24758 5.65965 6.68358 5.65965Z" fill="white"/>
<path d="M2.00195 4.55602C2.00195 3.14402 3.14695 1.99902 4.55895 1.99902H8.80795C10.22 1.99902 11.365 3.14402 11.365 4.55602V8.80502C11.365 10.217 10.22 11.362 8.80795 11.362H4.55895C3.14695 11.362 2.00195 10.217 2.00195 8.80502V4.55602ZM4.55895 3.39402C3.91695 3.39402 3.39695 3.91402 3.39695 4.55602V8.80502C3.39695 9.44702 3.91695 9.96702 4.55895 9.96702H8.80795C9.44995 9.96702 9.96995 9.44702 9.96995 8.80502V4.55602C9.96995 3.91402 9.44995 3.39402 8.80795 3.39402H4.55895Z" fill="white"/>
<path d="M7.94195 15.9608C7.37795 14.9748 5.94795 14.9988 5.41695 16.0028L4.60295 17.5428C4.09495 18.5028 4.79095 19.6578 5.87695 19.6578H7.57295C8.67995 19.6578 9.37395 18.4608 8.82395 17.5008L7.94195 15.9608ZM6.64995 16.6558C6.65695 16.6428 6.66295 16.6388 6.66595 16.6368C6.67095 16.6338 6.67895 16.6308 6.69095 16.6308C6.70295 16.6308 6.71095 16.6338 6.71595 16.6358C6.71895 16.6378 6.72495 16.6408 6.73195 16.6538L7.61295 18.1928C7.61995 18.2048 7.61995 18.2118 7.61995 18.2158C7.61995 18.2218 7.61795 18.2298 7.61295 18.2398C7.60795 18.2498 7.60095 18.2548 7.59595 18.2578C7.59295 18.2598 7.58695 18.2628 7.57295 18.2628H5.87695C5.86295 18.2628 5.85695 18.2598 5.85395 18.2578C5.84895 18.2548 5.84295 18.2488 5.83695 18.2398C5.83095 18.2308 5.82995 18.2228 5.82895 18.2168C5.82895 18.2128 5.82895 18.2068 5.83495 18.1938L6.64895 16.6548L6.64995 16.6558Z" fill="white"/>
<path d="M2.00195 15.1927C2.00195 13.7807 3.14695 12.6357 4.55895 12.6357H8.80795C10.22 12.6357 11.365 13.7807 11.365 15.1927V19.4417C11.365 20.8537 10.22 21.9987 8.80795 21.9987H4.55895C3.14695 21.9987 2.00195 20.8537 2.00195 19.4417V15.1927ZM4.55895 14.0307C3.91695 14.0307 3.39695 14.5507 3.39695 15.1927V19.4417C3.39695 20.0837 3.91695 20.6037 4.55895 20.6037H8.80795C9.44995 20.6037 9.96995 20.0837 9.96995 19.4417V15.1927C9.96995 14.5507 9.44995 14.0307 8.80795 14.0307H4.55895Z" fill="white"/>
<path d="M15.192 1.99902C13.78 1.99902 12.635 3.14402 12.635 4.55602V19.441C12.635 20.853 13.78 21.998 15.192 21.998H19.441C20.853 21.998 21.998 20.853 21.998 19.441V4.55602C21.998 3.14402 20.853 1.99902 19.441 1.99902H15.192ZM14.03 4.55602C14.03 3.91402 14.55 3.39402 15.192 3.39402H19.441C20.083 3.39402 20.603 3.91402 20.603 4.55602V19.441C20.603 20.082 20.083 20.603 19.441 20.603H17.545C17.731 19.94 18.185 18.193 18.185 16.962C18.185 15.634 17.983 14.663 17.926 14.415C18.079 14.227 19.087 12.959 19.613 11.685C20.144 10.398 20.005 9.22902 19.739 8.50802C19.488 7.83002 18.894 7.04102 18.483 6.54502L18.485 6.54302C18.485 6.54302 18.201 6.09802 17.977 5.87902C17.496 5.40802 16.634 5.50702 16.423 6.14602L16.419 6.15802C16.346 6.38602 16.325 6.74802 16.319 6.89702C16.288 7.18802 16.047 9.19602 15.199 10.734C14.93 11.221 14.911 11.975 15.177 12.696C15.463 13.473 16.201 14.395 16.598 14.856C16.681 15.437 16.786 16.428 16.702 17.317C16.601 18.389 16.225 19.976 16.069 20.603H15.192C14.551 20.603 14.03 20.083 14.03 19.441V4.55602ZM17.606 7.78602C17.851 8.06402 18.239 8.53802 18.363 8.88602C18.591 9.52302 18.737 10.103 18.363 11.009C18.083 11.688 17.559 12.51 17.099 13.169C16.883 12.904 16.646 12.577 16.554 12.319L16.542 12.287C16.325 11.682 16.32 11.667 16.732 10.797C17.29 9.61602 17.55 8.13302 17.606 7.78602Z" fill="white"/>
</svg>
