<svg width="24" height="24" viewBox="0 0 24 24" fill="none" xmlns="http://www.w3.org/2000/svg">
<path d="M7.99594 2.74902C7.99594 2.54602 8.06594 2.37402 8.20694 2.23402C8.27594 2.16002 8.35994 2.10102 8.45194 2.06102C8.54394 2.02102 8.64494 2.00002 8.74594 1.99902H15.2559C15.4589 1.99902 15.6309 2.07702 15.7709 2.23402C15.9279 2.37402 16.0059 2.54602 16.0059 2.74902C16.0089 2.85102 15.9889 2.95202 15.9489 3.04502C15.9089 3.13802 15.8479 3.22102 15.7709 3.28902C15.7039 3.35702 15.6239 3.41102 15.5349 3.44702C15.4459 3.48302 15.3519 3.50102 15.2559 3.49902H12.7499V8.25302C12.7499 8.35402 12.7289 8.45402 12.6889 8.54702C12.6489 8.64002 12.5899 8.72302 12.5159 8.79302C12.4489 8.86102 12.3689 8.91502 12.2799 8.95102C12.1909 8.98702 12.0959 9.00502 12.0009 9.00202C11.8009 9.00402 11.6079 8.92902 11.4609 8.79202C11.3249 8.64602 11.2489 8.45302 11.2509 8.25202V3.49802H8.74494C8.54494 3.49902 8.35194 3.42402 8.20594 3.28802C8.13594 3.21702 8.08094 3.13302 8.04494 3.04002C8.00894 2.94702 7.99194 2.84802 7.99594 2.74902Z" fill="white"/>
<path d="M5.09194 15.653C4.70094 16.464 4.50594 17.332 4.50594 18.253C4.50594 18.354 4.48494 18.453 4.44494 18.546C4.40494 18.639 4.34594 18.722 4.27194 18.792C4.13094 18.932 3.95894 19.002 3.75594 19.002C3.55294 19.002 3.37294 18.932 3.21594 18.792C3.07594 18.636 3.00594 18.456 3.00594 18.253C2.99994 17.127 3.24794 16.014 3.73194 14.998C4.19094 14.011 4.84394 13.127 5.65094 12.398C6.49394 11.639 7.47094 11.044 8.53194 10.642C9.63794 10.218 10.8139 10.003 11.9979 10.009C13.1819 10.003 14.3569 10.218 15.4629 10.642C16.5189 11.04 17.4879 11.636 18.3209 12.398C19.1409 13.122 19.8019 14.007 20.2639 14.998C20.7479 16.014 20.9969 17.127 20.9899 18.252C20.9899 18.353 20.9689 18.453 20.9289 18.546C20.8889 18.639 20.8299 18.722 20.7559 18.792C20.6149 18.932 20.4429 19.002 20.2399 19.002C20.0369 19.002 19.8569 18.932 19.6999 18.792C19.5599 18.636 19.4899 18.456 19.4899 18.253C19.4899 17.332 19.2939 16.465 18.9039 15.653C18.5319 14.83 17.9889 14.095 17.3109 13.499C16.6169 12.876 15.8159 12.384 14.9459 12.047C14.0249 11.687 13.0419 11.507 11.9949 11.507C10.9859 11.5 9.98494 11.683 9.04294 12.047C8.16794 12.388 7.35994 12.879 6.65494 13.499C5.98894 14.101 5.45494 14.834 5.08594 15.653H5.09194Z" fill="white"/>
<path d="M20.9929 21.251C20.9929 21.352 20.9719 21.452 20.9319 21.544C20.8919 21.636 20.8329 21.72 20.7589 21.789C20.6919 21.857 20.6119 21.911 20.5229 21.947C20.4339 21.983 20.3389 22.001 20.2429 21.999C20.0429 22.001 19.8499 21.926 19.7029 21.789C19.5669 21.643 19.4909 21.449 19.4929 21.249C19.4899 21.15 19.5059 21.051 19.5429 20.959C19.5799 20.867 19.6339 20.783 19.7029 20.712C19.8489 20.575 20.0419 20.5 20.2429 20.501C20.4459 20.501 20.6179 20.571 20.7589 20.711C20.9149 20.852 20.9929 21.032 20.9929 21.251Z" fill="white"/>
<path d="M4.27194 21.789C4.13094 21.93 3.95894 22 3.75594 22C3.55294 22 3.37294 21.929 3.21594 21.789C3.07594 21.633 3.00594 21.453 3.00594 21.25C3.00194 21.15 3.01894 21.051 3.05494 20.959C3.09094 20.867 3.14594 20.782 3.21594 20.711C3.36194 20.575 3.55494 20.499 3.75594 20.501C3.85194 20.499 3.94694 20.517 4.03594 20.553C4.12494 20.589 4.20494 20.643 4.27194 20.712C4.34794 20.779 4.40794 20.862 4.44894 20.955C4.48994 21.048 4.50894 21.149 4.50594 21.25C4.50594 21.351 4.48494 21.451 4.44494 21.544C4.40494 21.637 4.34594 21.72 4.27194 21.79V21.789Z" fill="white"/>
</svg>
