<svg width="24" height="24" viewBox="0 0 24 24" fill="none" xmlns="http://www.w3.org/2000/svg">
<path d="M15.777 2.41705L18.448 3.91605C19.198 4.32205 19.682 4.93105 19.9 5.74305C20.01 6.12205 20.04 6.52005 19.988 6.91105C19.936 7.30205 19.802 7.67905 19.596 8.01505L14.279 16.9861C14.122 17.2361 13.935 17.4631 13.716 17.6661C13.495 17.8701 13.242 18.0371 12.966 18.1581L11.677 18.7911C11.553 18.8531 11.436 18.9311 11.327 19.0251C11.237 19.0991 11.158 19.1861 11.092 19.2831L10.248 20.5011H20.251C20.454 20.5011 20.626 20.5711 20.767 20.7111C20.923 20.8521 21.001 21.0321 21.001 21.2511C21.001 21.3521 20.98 21.4521 20.94 21.5451C20.9 21.6381 20.841 21.7211 20.767 21.7901C20.7 21.8581 20.62 21.9121 20.531 21.9481C20.442 21.9841 20.347 22.0021 20.251 21.9991H3.78305C3.64605 22.0041 3.51105 21.9721 3.39105 21.9061C3.27105 21.8401 3.17205 21.7431 3.10305 21.6251C3.03405 21.5121 2.99805 21.3821 2.99805 21.2501C2.99805 21.1181 3.03405 20.9881 3.10305 20.8751L5.75205 16.3531C5.81405 16.2281 5.86105 16.0961 5.89205 15.9551C5.93905 15.7991 5.95405 15.6501 5.93905 15.5101L5.84505 14.1751C5.82905 13.8841 5.85205 13.5931 5.91505 13.3081C5.99305 13.0111 6.11105 12.7291 6.26705 12.4641L11.584 3.49205C11.78 3.14605 12.046 2.84505 12.364 2.60705C12.682 2.36905 13.047 2.20005 13.435 2.11105C13.826 2.00005 14.235 1.97105 14.637 2.02305C15.039 2.07505 15.427 2.20905 15.777 2.41605V2.41705ZM9.85005 18.4391C10.007 18.2211 10.179 18.0331 10.366 17.8771C10.57 17.7051 10.788 17.557 11.023 17.432L12.311 16.8221C12.451 16.7441 12.576 16.658 12.686 16.564C12.804 16.463 12.906 16.344 12.99 16.213L18.307 7.24105C18.511 6.89705 18.557 6.53105 18.448 6.14105C18.397 5.94405 18.306 5.75905 18.181 5.59805C18.056 5.43705 17.9 5.30305 17.722 5.20405L15.051 3.70505C14.865 3.59805 14.658 3.53005 14.445 3.50605C14.232 3.48205 14.015 3.50205 13.81 3.56505C13.388 3.67405 13.075 3.90805 12.873 4.26805L7.55605 13.2391C7.47905 13.3621 7.42405 13.4961 7.39205 13.6381C7.36105 13.7761 7.34505 13.9171 7.34505 14.0591L7.43905 15.4181C7.45405 15.7151 7.42305 16.012 7.34505 16.307C7.28305 16.586 7.18105 16.8551 7.04005 17.1041L6.61805 17.831L9.21905 19.3301L9.85205 18.4411L9.85105 18.4401L9.85005 18.4391Z" fill="white"/>
</svg>
