<svg width="24" height="24" viewBox="0 0 24 24" fill="none" xmlns="http://www.w3.org/2000/svg">
<path fill-rule="evenodd" clip-rule="evenodd" d="M17.5861 2.95571C17.7158 2.88029 17.9609 2.75 18.2395 2.75C18.5181 2.75 18.7632 2.88029 18.8929 2.95571C19.0589 3.05229 19.2348 3.1814 19.4104 3.32998C19.7634 3.62879 20.1626 4.04655 20.5387 4.55277C21.2846 5.55664 22 6.99135 22 8.62158C22 10.1483 21.6337 11.4129 20.9675 12.3165C20.4521 13.0157 19.7661 13.482 18.9895 13.6641V19.75H20.75C21.1642 19.75 21.5 20.0858 21.5 20.5C21.5 20.9142 21.1642 21.25 20.75 21.25H2.75C2.33578 21.25 2 20.9142 2 20.5C2 20.0858 2.33578 19.75 2.75 19.75H4.74036L4.74036 18.0471H4.34418C3.92996 18.0471 3.59418 17.7113 3.59418 17.2971C3.59418 16.8829 3.92996 16.5471 4.34418 16.5471H6.26178V15.5471C5.72592 15.5285 5.29724 15.0882 5.29724 14.5478V12.5478C5.29724 11.9955 5.74496 11.5478 6.29724 11.5478H12.2972C12.8495 11.5478 13.2972 11.9955 13.2972 12.5478V14.5478C13.2972 15.0881 12.8686 15.5284 12.3328 15.5471V16.5471H14.2502C14.6645 16.5471 15.0002 16.8829 15.0002 17.2971C15.0002 17.7113 14.6645 18.0471 14.2502 18.0471H13.8541V19.75H17.4895V13.6641C16.7128 13.482 16.0269 13.0157 15.5114 12.3165C14.8453 11.4129 14.4789 10.1483 14.4789 8.62158C14.4789 6.99135 15.1943 5.55664 15.9402 4.55277C16.3163 4.04655 16.7155 3.62879 17.0686 3.32998C17.2441 3.1814 17.42 3.05229 17.5861 2.95571ZM12.3541 19.75V18.0471H6.24036V19.75H12.3541ZM17.1442 5.44738C16.5128 6.29716 15.9789 7.42323 15.9789 8.62158C15.9789 9.92338 16.2924 10.8481 16.7188 11.4265C17.1354 11.9915 17.6712 12.25 18.2395 12.25C18.8077 12.25 19.3436 11.9915 19.7601 11.4265C20.1865 10.8481 20.5 9.92338 20.5 8.62158C20.5 7.42323 19.9661 6.29716 19.3347 5.44738C19.0222 5.02678 18.7007 4.6945 18.4414 4.47498C18.3639 4.40947 18.2961 4.35746 18.2395 4.31766C18.1828 4.35746 18.115 4.40947 18.0376 4.47498C17.7782 4.6945 17.4567 5.02678 17.1442 5.44738ZM6.89724 13.0478C6.84201 13.0478 6.79724 13.0925 6.79724 13.1478V13.9478C6.79724 14.003 6.84201 14.0478 6.89724 14.0478H11.6972C11.7525 14.0478 11.7972 14.003 11.7972 13.9478V13.1478C11.7972 13.0925 11.7525 13.0478 11.6972 13.0478H6.89724ZM10.8328 15.5478H7.76178V16.5471H10.8328V15.5478Z" fill="white"/>
</svg>
