<svg width="24" height="24" viewBox="0 0 24 24" fill="none" xmlns="http://www.w3.org/2000/svg">
<path d="M12.3105 10.1655C15.5051 10.3158 18.0946 12.7724 18.4551 15.9077H21.25L21.3271 15.9116C21.7049 15.9502 21.9997 16.2698 22 16.6577C21.9996 17.0454 21.7048 17.3651 21.3271 17.4037L21.25 17.4077H2.75C2.33606 17.4077 2.00044 17.0715 2 16.6577C2.00029 16.2437 2.33596 15.9077 2.75 15.9077H5.54492C5.91702 12.6714 8.66405 10.1577 12 10.1577L12.3105 10.1655ZM12 11.6577C9.49376 11.6577 7.42065 13.5024 7.05859 15.9077H16.9414C16.5793 13.5024 14.5062 11.6577 12 11.6577Z" fill="white"/>
<path d="M20.9619 12.0561C21.3446 11.898 21.7832 12.0797 21.9414 12.4623C22.0994 12.845 21.9177 13.2836 21.5352 13.4418L20.3701 13.9428C19.9875 14.1008 19.5489 13.9181 19.3906 13.5356C19.2326 13.1529 19.4143 12.7144 19.7969 12.5561L20.9619 12.0561Z" fill="white"/>
<path d="M2.06641 12.4399C2.22528 12.0574 2.66437 11.8758 3.04688 12.0346L4.20312 12.5405C4.58555 12.6994 4.76724 13.1385 4.6084 13.5209C4.44944 13.9032 4.01031 14.0849 3.62793 13.9262L2.47168 13.4194C2.08947 13.2605 1.90807 12.8222 2.06641 12.4399Z" fill="white"/>
<path d="M7.88574 6.65473C8.26538 6.48939 8.70755 6.66379 8.87305 7.0434L9.36328 8.21137C9.52855 8.59097 9.35514 9.03317 8.97559 9.19867C8.59599 9.36406 8.15386 9.19049 7.98828 8.81098L7.49805 7.64105C7.33301 7.26154 7.50634 6.82021 7.88574 6.65473Z" fill="white"/>
<path d="M15.1484 7.0434C15.3139 6.66392 15.7552 6.48967 16.1348 6.65473C16.5142 6.82016 16.6884 7.26155 16.5234 7.64105L16.0332 8.81098C15.8677 9.19047 15.4255 9.36384 15.0459 9.19867C14.6663 9.03318 14.492 8.59098 14.6572 8.21137L15.1484 7.0434Z" fill="white"/>
</svg>
