<svg width="24" height="24" viewBox="0 0 24 24" fill="none" xmlns="http://www.w3.org/2000/svg">
<path d="M9.00202 6.00502V7.99502H6.00402C4.89502 7.99502 3.95102 8.38502 3.17002 9.16602C2.38902 9.94702 1.99902 10.892 1.99902 12V17.995C1.99902 19.104 2.38902 20.048 3.17002 20.829C3.95102 21.61 4.89602 22 6.00402 22H11.999C13.108 22 14.052 21.61 14.833 20.829C15.614 20.048 16.004 19.103 16.004 17.995V14.997H17.994C19.103 14.997 20.047 14.607 20.828 13.826C21.609 13.045 21.999 12.101 21.999 10.992V6.00402C21.999 4.89502 21.609 3.95102 20.828 3.17002C20.047 2.38902 19.102 1.99902 17.994 1.99902H13.006C11.897 1.99902 10.953 2.38902 10.172 3.17002C9.39102 3.95102 9.00102 4.89602 9.00102 6.00402L9.00202 6.00502ZM13.007 3.49902H17.995C18.682 3.49902 19.267 3.74902 19.752 4.24802C20.252 4.73302 20.501 5.31702 20.501 6.00502V10.993C20.501 11.695 20.251 12.289 19.752 12.773C19.524 13.008 19.251 13.193 18.949 13.318C18.647 13.443 18.322 13.505 17.995 13.499H13.007C12.305 13.499 11.711 13.257 11.227 12.773C10.742 12.289 10.501 11.696 10.501 10.994V6.00502C10.501 5.31802 10.743 4.73302 11.227 4.24802C11.711 3.74802 12.304 3.49902 13.006 3.49902H13.007Z" fill="white"/>
</svg>
