<svg width="24" height="24" viewBox="0 0 24 24" fill="none" xmlns="http://www.w3.org/2000/svg">
<path d="M8.86493 21.978C9.81293 21.978 10.6999 21.794 11.5249 21.427C12.3389 21.093 13.0789 20.603 13.7029 19.983C14.3289 19.357 14.8179 18.623 15.1709 17.782C15.5379 16.956 15.7219 16.07 15.7219 15.122C15.7219 14.174 15.5379 13.287 15.1709 12.462C14.8339 11.644 14.3349 10.903 13.7029 10.284C13.0839 9.65204 12.3429 9.15304 11.5249 8.81604C10.6869 8.44604 9.77993 8.25904 8.86493 8.26504C7.91693 8.26504 7.02993 8.44904 6.20493 8.81604C5.36393 9.16804 4.62993 9.65704 4.00393 10.284C3.38393 10.908 2.89393 11.648 2.55993 12.462C2.18993 13.3 2.00293 14.207 2.00893 15.122C2.00893 16.07 2.19293 16.957 2.55993 17.782C2.91193 18.623 3.39293 19.357 4.00393 19.983C4.63893 20.6 5.38693 21.09 6.20493 21.427C7.03093 21.794 7.91693 21.978 8.86493 21.978ZM11.3189 16.842C11.3189 16.941 11.2979 17.039 11.2589 17.129C11.2199 17.219 11.1619 17.301 11.0889 17.369C11.0229 17.436 10.9449 17.489 10.8579 17.524C10.7709 17.559 10.6779 17.577 10.5849 17.575H7.14493C7.09793 17.575 7.05193 17.567 7.00793 17.552C6.96193 17.537 6.91593 17.523 6.86993 17.506L6.73293 17.461L6.61793 17.346C6.55293 17.279 6.49793 17.201 6.45793 17.117C6.42793 17.028 6.41193 16.936 6.41193 16.842V13.402C6.41193 13.203 6.48093 13.035 6.61793 12.898C6.68593 12.825 6.76693 12.768 6.85793 12.728C6.94893 12.688 7.04693 12.668 7.14593 12.668C7.35893 12.668 7.53493 12.744 7.67193 12.898C7.80893 13.035 7.87793 13.203 7.87793 13.402V15.054L9.78193 13.173C9.84393 13.1 9.92093 13.042 10.0079 13.002C10.0949 12.962 10.1899 12.942 10.2859 12.943C10.4999 12.943 10.6759 13.02 10.8139 13.173C10.9659 13.31 11.0429 13.486 11.0429 13.7C11.0439 13.796 11.0239 13.89 10.9839 13.977C10.9439 14.064 10.8859 14.141 10.8129 14.203L8.93193 16.108H10.5839C10.7829 16.108 10.9509 16.177 11.0879 16.314C11.2419 16.452 11.3189 16.628 11.3189 16.842Z" fill="white"/>
<path d="M13.2299 6.37104C13.3209 6.33104 13.4199 6.31204 13.5199 6.31504H16.9369C16.9839 6.31504 17.0299 6.32304 17.0749 6.33704C17.1219 6.33704 17.1679 6.34504 17.2119 6.36104C17.2529 6.38804 17.2909 6.41904 17.3259 6.45304C17.3689 6.46604 17.4089 6.49004 17.4409 6.52204L17.4649 6.54404C17.5279 6.60904 17.5749 6.68804 17.6019 6.77404C17.6499 6.85804 17.6729 6.95304 17.6709 7.04904V10.466C17.6739 10.565 17.6549 10.664 17.6149 10.756C17.5749 10.848 17.5159 10.929 17.4419 10.995C17.3039 11.132 17.1359 11.201 16.9369 11.201C16.7379 11.201 16.5619 11.132 16.4089 10.995C16.2719 10.857 16.2029 10.681 16.2029 10.467V8.81604L15.2859 9.73304C15.2199 9.80804 15.1389 9.86704 15.0469 9.90704C14.9549 9.94704 14.8569 9.96604 14.7569 9.96304C14.5579 9.96304 14.3899 9.88604 14.2529 9.73304C14.0999 9.59604 14.0229 9.42804 14.0229 9.22904C14.0199 9.13004 14.0389 9.03104 14.0789 8.94004C14.1189 8.84904 14.1779 8.76804 14.2529 8.70204L15.1699 7.78404H13.5189C13.3049 7.78404 13.1289 7.71504 12.9909 7.57804C12.8539 7.42404 12.7849 7.24804 12.7849 7.05004C12.7829 6.95604 12.7999 6.86304 12.8349 6.77604C12.8699 6.68904 12.9229 6.61104 12.9899 6.54504C13.0559 6.47004 13.1369 6.41104 13.2289 6.37204L13.2299 6.37104Z" fill="white"/>
<path d="M10.8329 6.28804C11.2479 5.46004 11.8829 4.76104 12.6679 4.26904C13.4839 3.75204 14.4309 3.48104 15.3969 3.48904C16.0999 3.48904 16.7649 3.62604 17.3919 3.90204C18.0189 4.17804 18.5609 4.54404 19.0199 5.00304C19.4859 5.47204 19.8589 6.02404 20.1209 6.63104C20.3959 7.25704 20.5339 7.92304 20.5339 8.62704C20.5339 9.60504 20.2889 10.491 19.7999 11.286C19.3339 12.059 18.6679 12.693 17.8729 13.121C17.7059 13.226 17.5829 13.39 17.5289 13.58C17.4989 13.671 17.4889 13.768 17.5009 13.863C17.5129 13.958 17.5459 14.049 17.5969 14.13C17.6429 14.214 17.7049 14.287 17.7799 14.347C17.8549 14.407 17.9409 14.45 18.0329 14.475C18.2319 14.536 18.4149 14.513 18.5839 14.406C19.6069 13.856 20.4629 13.039 21.0589 12.043C21.6869 11.02 21.9999 9.88104 21.9999 8.62604C21.9999 7.72404 21.8239 6.86804 21.4719 6.05804C21.1319 5.28004 20.6499 4.57204 20.0509 3.97104C19.4499 3.37104 18.7419 2.88904 17.9639 2.54904C17.1539 2.19704 16.2789 2.01804 15.3959 2.02204C14.7539 2.02204 14.1339 2.11404 13.5379 2.29704C12.9629 2.46204 12.4149 2.71004 11.9099 3.03104C11.4019 3.34004 10.9389 3.71904 10.5339 4.15504C10.1399 4.59304 9.80093 5.07804 9.52493 5.59904C9.47993 5.68704 9.45193 5.78304 9.44493 5.88104C9.43793 5.97904 9.44893 6.07804 9.47893 6.17204C9.53993 6.35604 9.65493 6.49404 9.82193 6.58504C9.90293 6.63704 9.99393 6.67004 10.0899 6.68104C10.1859 6.69204 10.2819 6.68304 10.3729 6.65304C10.5619 6.58504 10.7229 6.45604 10.8319 6.28704L10.8329 6.28804Z" fill="white"/>
</svg>
