<svg width="24" height="24" viewBox="0 0 24 24" fill="none" xmlns="http://www.w3.org/2000/svg">
<path d="M7.85365 2.44974V2.45075L11.9995 8.5598L16.0305 2.38473C16.223 2.02175 16.716 1.88874 17.0625 2.10263C17.4139 2.27004 17.557 2.78413 17.3425 3.11457L12.8665 10.0888L15.3045 14.4658C16.1197 14.1829 17.0084 14.1996 17.8125 14.513C18.6555 14.8262 19.3045 15.3914 19.7575 16.2066C20.2725 17.1161 20.3975 18.0809 20.1325 19.1008C20.0133 19.589 19.7958 20.0474 19.4935 20.4479C19.1911 20.8485 18.8103 21.1827 18.3745 21.4299C17.4835 21.9791 16.5305 22.1126 15.5155 21.8305C14.5155 21.5474 13.7575 20.944 13.2415 20.0184C12.7942 19.2525 12.6359 18.3508 12.7955 17.4775C12.9525 16.568 13.3585 15.815 14.0155 15.2187L11.9995 11.6418L9.98349 15.2659C10.6405 15.8462 11.0465 16.5911 11.2025 17.5006C11.3585 18.3951 11.2105 19.2494 10.7575 20.0656C10.2415 20.9751 9.47649 21.5715 8.46049 21.8536C7.46049 22.1357 6.51449 22.0102 5.62449 21.4771C5.18866 21.2299 4.80785 20.8957 4.50551 20.4951C4.20317 20.0946 3.9857 19.6361 3.86649 19.148C3.60149 18.113 3.72649 17.1402 4.24149 16.2307C4.69449 15.4306 5.33549 14.8734 6.16349 14.5592C6.97158 14.2307 7.87056 14.2057 8.69549 14.4889L11.1555 10.0888L6.54165 3.17958C6.31212 2.8165 6.45645 2.35047 6.82265 2.14455C7.16867 1.95953 7.66204 2.10171 7.85365 2.44974ZM15.3745 16.0891C14.8435 16.4023 14.4915 16.8732 14.3195 17.5016C14.1607 18.1051 14.2451 18.7471 14.5545 19.2886C14.8665 19.8538 15.3195 20.2222 15.9145 20.3949C16.2017 20.4744 16.5023 20.4924 16.7969 20.4478C17.0915 20.4032 17.3735 20.2969 17.6245 20.1359C18.1555 19.8227 18.4995 19.3518 18.6555 18.7244C18.8275 18.0969 18.7575 17.5006 18.4445 16.9364C18.1325 16.3712 17.6715 16.0108 17.0625 15.8542C16.7801 15.7749 16.4845 15.7548 16.1941 15.7953C15.9037 15.8357 15.6247 15.9357 15.3745 16.0891ZM5.55449 16.9595C5.24512 17.501 5.16069 18.144 5.31949 18.7475C5.49149 19.3749 5.84349 19.8538 6.37449 20.1831C6.62469 20.3365 6.9037 20.4366 7.19412 20.477C7.48455 20.5174 7.78015 20.4973 8.06249 20.418C8.67149 20.2453 9.13249 19.8769 9.44549 19.3117C9.59855 19.0434 9.69604 18.7468 9.73213 18.4397C9.76822 18.1326 9.74215 17.8214 9.65549 17.5247C9.49949 16.8973 9.15549 16.4264 8.62449 16.1122C8.09349 15.799 7.52249 15.7287 6.91449 15.9004C6.62717 15.9729 6.35795 16.1045 6.12386 16.2868C5.88977 16.4691 5.6959 16.6981 5.55449 16.9595Z" fill="white"/>
<path d="M20.0001 5.05863C20.0013 4.96089 19.9809 4.86409 19.9404 4.7751C19.9 4.6861 19.8405 4.60708 19.7662 4.54363C19.7026 4.46902 19.6235 4.40928 19.5343 4.36867C19.4451 4.32806 19.3481 4.30756 19.2501 4.30863C19.1489 4.30882 19.0487 4.32976 18.9558 4.37018C18.8629 4.4106 18.7793 4.46964 18.7101 4.54363C18.6419 4.61061 18.588 4.69085 18.5519 4.77942C18.5158 4.86798 18.4982 4.96301 18.5002 5.05863V12.0666C18.5002 12.2696 18.5702 12.4496 18.7101 12.6066C18.8671 12.7466 19.0471 12.8166 19.2501 12.8166C19.4531 12.8166 19.6252 12.7466 19.7662 12.6066C19.84 12.5374 19.8988 12.4537 19.9391 12.3609C19.9793 12.268 20.0001 12.1679 20.0001 12.0666V5.05863Z" fill="white"/>
<path d="M17.766 7.54359C17.625 7.38659 17.453 7.30859 17.25 7.30859C17.1487 7.30878 17.0486 7.33072 16.9557 7.37114C16.8628 7.41156 16.7792 7.47059 16.71 7.54459C16.57 7.68459 16.5 7.85659 16.5 8.05959V10.0736C16.4983 10.2738 16.5735 10.4671 16.71 10.6136C16.8565 10.7502 17.0498 10.8253 17.25 10.8236C17.3458 10.8257 17.441 10.8082 17.5298 10.7721C17.6185 10.7359 17.6989 10.682 17.766 10.6136C17.8397 10.5445 17.8985 10.461 17.9387 10.3683C17.979 10.2756 17.9998 10.1756 18 10.0746V8.05859C18 7.85559 17.922 7.68359 17.766 7.54359Z" fill="white"/>
<path d="M21.9404 7.7751C21.9809 7.86409 22.0013 7.96089 22.0002 8.05863V11.0586C22.0032 11.1603 21.9838 11.2614 21.9433 11.3547C21.9029 11.448 21.8424 11.5313 21.7662 11.5986C21.6252 11.7386 21.4531 11.8086 21.2502 11.8086C21.0472 11.8086 20.8671 11.7386 20.7101 11.5986C20.5702 11.4576 20.5002 11.2776 20.5002 11.0586V8.05863C20.4982 7.96301 20.5158 7.86798 20.5519 7.77942C20.588 7.69085 20.6419 7.61061 20.7101 7.54363C20.7793 7.46964 20.8629 7.4106 20.9558 7.37018C21.0487 7.32976 21.1489 7.30882 21.2502 7.30863C21.3481 7.30756 21.4451 7.32806 21.5343 7.36867C21.6235 7.40928 21.7026 7.46902 21.7662 7.54363C21.8405 7.60708 21.9 7.6861 21.9404 7.7751Z" fill="white"/>
<path d="M5.50015 5.05863C5.50127 4.96089 5.48088 4.86409 5.44045 4.7751C5.40001 4.6861 5.34051 4.60708 5.26615 4.54363C5.20264 4.46902 5.12349 4.40928 5.03432 4.36867C4.94515 4.32806 4.84813 4.30756 4.75015 4.30863C4.64886 4.30882 4.54868 4.32976 4.4558 4.37018C4.36292 4.4106 4.27932 4.46964 4.21015 4.54363C4.14186 4.61061 4.08801 4.69085 4.05189 4.77942C4.01578 4.86798 3.99817 4.96301 4.00015 5.05863V12.0666C4.00015 12.2696 4.07015 12.4496 4.21015 12.6066C4.36715 12.7466 4.54715 12.8166 4.75015 12.8166C4.95315 12.8166 5.12515 12.7466 5.26615 12.6066C5.33997 12.5374 5.39881 12.4537 5.43906 12.3609C5.47931 12.268 5.5001 12.1679 5.50015 12.0666V5.05863Z" fill="white"/>
<path d="M3.26603 7.54359C3.12503 7.38659 2.95303 7.30859 2.75003 7.30859C2.64874 7.30878 2.54856 7.33072 2.45568 7.37114C2.3628 7.41156 2.2792 7.47059 2.21003 7.54459C2.07003 7.68459 2.00003 7.85659 2.00003 8.05959V10.0736C1.9983 10.2738 2.07347 10.4671 2.21003 10.6136C2.3565 10.7502 2.54978 10.8253 2.75003 10.8236C2.84582 10.8257 2.94104 10.8082 3.02979 10.7721C3.11854 10.7359 3.19894 10.682 3.26603 10.6136C3.33972 10.5445 3.3985 10.461 3.43874 10.3683C3.47898 10.2756 3.49984 10.1756 3.50003 10.0746V8.05859C3.50003 7.85559 3.42203 7.68359 3.26603 7.54359Z" fill="white"/>
<path d="M7.44045 7.7751C7.48088 7.86409 7.50127 7.96089 7.50015 8.05863V11.0586C7.50316 11.1603 7.48376 11.2614 7.44332 11.3547C7.40288 11.448 7.34239 11.5313 7.26615 11.5986C7.12515 11.7386 6.95315 11.8086 6.75015 11.8086C6.54715 11.8086 6.36715 11.7386 6.21015 11.5986C6.07015 11.4576 6.00015 11.2776 6.00015 11.0586V8.05863C5.99817 7.96301 6.01578 7.86798 6.05189 7.77942C6.08801 7.69085 6.14186 7.61061 6.21015 7.54363C6.27932 7.46964 6.36292 7.4106 6.4558 7.37018C6.54868 7.32976 6.64886 7.30882 6.75015 7.30863C6.84813 7.30756 6.94515 7.32806 7.03432 7.36867C7.1235 7.40928 7.20264 7.46902 7.26615 7.54363C7.34051 7.60708 7.40001 7.6861 7.44045 7.7751Z" fill="white"/>
</svg>
