<svg width="24" height="24" viewBox="0 0 24 24" fill="none" xmlns="http://www.w3.org/2000/svg">
<path d="M12 2C10.891 2 9.947 2.39 9.166 3.171C8.385 3.952 7.995 4.897 7.995 6.005V7.995H6.005C4.896 7.995 3.952 8.385 3.171 9.166C2.39 9.947 2 10.892 2 12V17.995C2 19.104 2.39 20.048 3.171 20.829C3.952 21.61 4.897 22 6.005 22H12C13.109 22 14.053 21.61 14.834 20.829C15.615 20.048 16.005 19.103 16.005 17.995V16.005H17.995C19.104 16.005 20.048 15.615 20.829 14.834C21.61 14.053 22 13.108 22 12V6.005C22 4.896 21.61 3.952 20.829 3.171C20.048 2.39 19.103 2 17.995 2H12ZM7.995 9.494V12C7.995 13.109 8.385 14.053 9.166 14.834C9.947 15.615 10.892 16.005 12 16.005H14.506V17.995C14.506 18.682 14.256 19.275 13.757 19.775C13.529 20.01 13.256 20.195 12.954 20.32C12.652 20.445 12.327 20.507 12 20.501H6.005C5.675 20.505 5.347 20.443 5.042 20.318C4.737 20.193 4.459 20.008 4.226 19.775C3.992 19.542 3.807 19.264 3.683 18.959C3.559 18.654 3.496 18.326 3.5 17.996V12.001C3.5 11.314 3.742 10.729 4.226 10.244C4.726 9.744 5.318 9.495 6.006 9.495H7.996L7.995 9.494Z" fill="white"/>
</svg>
