<svg width="24" height="24" viewBox="0 0 24 24" fill="none" xmlns="http://www.w3.org/2000/svg">
<path fill-rule="evenodd" clip-rule="evenodd" d="M16 6.5H8C7.17157 6.5 6.5 7.17157 6.5 8V16C6.5 16.8284 7.17157 17.5 8 17.5H16C16.8284 17.5 17.5 16.8284 17.5 16V8C17.5 7.17157 16.8284 6.5 16 6.5ZM8 5C6.34315 5 5 6.34315 5 8V16C5 17.6569 6.34315 19 8 19H16C17.6569 19 19 17.6569 19 16V8C19 6.34315 17.6569 5 16 5H8Z" fill="white"/>
<path d="M4 3.5H7.25C7.66421 3.5 8 3.16421 8 2.75C8 2.33579 7.66421 2 7.25 2H4C2.89543 2 2 2.89543 2 4V7.25C2 7.66421 2.33579 8 2.75 8C3.16421 8 3.5 7.66421 3.5 7.25V4C3.5 3.72386 3.72386 3.5 4 3.5Z" fill="white"/>
<path d="M3.5 16.75C3.5 16.3358 3.16421 16 2.75 16C2.33579 16 2 16.3358 2 16.75V20C2 21.1046 2.89543 22 4 22H7.25C7.66421 22 8 21.6642 8 21.25C8 20.8358 7.66421 20.5 7.25 20.5H4C3.72386 20.5 3.5 20.2761 3.5 20V16.75Z" fill="white"/>
<path d="M20.5 16.75C20.5 16.3358 20.8358 16 21.25 16C21.6642 16 22 16.3358 22 16.75V20C22 21.1046 21.1046 22 20 22H16.75C16.3358 22 16 21.6642 16 21.25C16 20.8358 16.3358 20.5 16.75 20.5H20C20.2761 20.5 20.5 20.2761 20.5 20V16.75Z" fill="white"/>
<path d="M22 7.25C22 7.66421 21.6642 8 21.25 8C20.8358 8 20.5 7.66421 20.5 7.25V4C20.5 3.72386 20.2761 3.5 20 3.5H16.75C16.3358 3.5 16 3.16421 16 2.75C16 2.33579 16.3358 2 16.75 2H20C21.1046 2 22 2.89543 22 4V7.25Z" fill="white"/>
</svg>
