<svg width="24" height="24" viewBox="0 0 24 24" fill="none" xmlns="http://www.w3.org/2000/svg">
<path d="M6.111 5.84602V6.11102H5.846C4.789 6.11102 3.883 6.48702 3.13 7.24002C2.376 7.97802 2 8.88302 2 9.95702V18.154C2 19.211 2.376 20.117 3.13 20.87C3.883 21.624 4.788 22 5.846 22H14.043C15.117 22 16.022 21.624 16.76 20.87C17.513 20.117 17.889 19.212 17.889 18.154V17.889H18.154C18.658 17.897 19.158 17.803 19.625 17.613C20.092 17.423 20.515 17.141 20.87 16.783C21.624 16.03 22 15.116 22 14.042V5.84502C22 4.78802 21.624 3.88202 20.87 3.12902C20.117 2.37502 19.212 1.99902 18.154 1.99902H9.957C8.883 1.99902 7.969 2.37502 7.216 3.12902C6.858 3.48402 6.576 3.90802 6.386 4.37402C6.196 4.84002 6.102 5.34102 6.11 5.84502L6.111 5.84602ZM7.649 6.11102V5.84602C7.649 5.20502 7.874 4.66002 8.322 4.21102C8.534 3.99302 8.789 3.82102 9.07 3.70502C9.351 3.58902 9.653 3.53202 9.957 3.53802H18.154C18.458 3.53302 18.76 3.58902 19.041 3.70502C19.322 3.82102 19.577 3.99302 19.789 4.21102C20.237 4.66002 20.462 5.20502 20.462 5.84602V14.043C20.467 14.347 20.411 14.649 20.295 14.93C20.179 15.211 20.007 15.466 19.789 15.678C19.577 15.896 19.322 16.068 19.041 16.184C18.76 16.3 18.458 16.357 18.154 16.351H17.889V9.95702C17.889 8.88302 17.513 7.97802 16.76 7.24002C16.022 6.48702 15.117 6.11102 14.043 6.11102H7.649ZM3.538 9.95702C3.538 9.31602 3.763 8.77102 4.211 8.32202C4.423 8.10402 4.678 7.93202 4.959 7.81602C5.24 7.70002 5.542 7.64302 5.846 7.64902H14.043C14.347 7.64402 14.649 7.70002 14.93 7.81602C15.211 7.93202 15.466 8.10402 15.678 8.32202C16.126 8.77102 16.351 9.31602 16.351 9.95702V18.154C16.356 18.458 16.3 18.76 16.184 19.041C16.068 19.322 15.896 19.577 15.678 19.789C15.466 20.007 15.211 20.179 14.93 20.295C14.649 20.411 14.347 20.468 14.043 20.462H5.846C5.542 20.467 5.24 20.411 4.959 20.295C4.678 20.179 4.423 20.007 4.211 19.789C3.993 19.577 3.821 19.322 3.705 19.041C3.589 18.76 3.532 18.458 3.538 18.154V9.95702Z" fill="white"/>
</svg>
