<svg width="24" height="24" viewBox="0 0 24 24" fill="none" xmlns="http://www.w3.org/2000/svg">
<path d="M4.99811 14.997V6.00402C4.99811 4.89602 5.38911 3.95102 6.16911 3.17002C6.94911 2.38902 7.89411 1.99902 9.00311 1.99902H17.9961C19.1041 1.99902 20.0491 2.39002 20.8301 3.17002C21.6111 3.95002 22.0011 4.89502 22.0011 6.00402V14.997C22.0011 16.105 21.6101 17.05 20.8301 17.831C20.0501 18.612 19.1051 19.002 17.9961 19.002H9.00311C7.89511 19.002 6.95011 18.611 6.16911 17.831C5.38811 17.051 4.99811 16.106 4.99811 14.997ZM17.9951 3.49902H9.00211C8.31511 3.49902 7.72211 3.74902 7.22211 4.24802C6.73711 4.73302 6.49611 5.31702 6.49611 6.00502V14.998C6.49211 15.328 6.55411 15.656 6.67911 15.961C6.80411 16.266 6.98911 16.544 7.22211 16.777C7.45511 17.011 7.73311 17.196 8.03811 17.32C8.34311 17.444 8.67111 17.507 9.00111 17.503H17.9941C18.3211 17.508 18.6451 17.447 18.9481 17.322C19.2511 17.197 19.5231 17.012 19.7511 16.777C20.2511 16.277 20.5001 15.685 20.5001 14.997V6.00402C20.5001 5.31702 20.2501 4.73202 19.7511 4.24702C19.2661 3.74702 18.6821 3.49802 17.9941 3.49802L17.9951 3.49902Z" fill="white"/>
<path d="M3.44911 8.96902C3.48511 9.06202 3.50211 9.16102 3.49811 9.26002L3.49911 9.25802V15.253C3.49511 15.954 3.63911 16.649 3.92111 17.291C4.18811 17.911 4.57011 18.475 5.04511 18.954C5.52311 19.43 6.08711 19.812 6.70711 20.079C7.34711 20.361 8.02611 20.501 8.74411 20.501H14.7391C14.8391 20.497 14.9381 20.514 15.0311 20.551C15.1241 20.588 15.2081 20.642 15.2791 20.712C15.3491 20.783 15.4031 20.867 15.4391 20.959C15.4751 21.051 15.4921 21.15 15.4881 21.249C15.4901 21.449 15.4151 21.642 15.2781 21.789C15.2071 21.859 15.1231 21.914 15.0301 21.95C14.9371 21.986 14.8381 22.003 14.7381 22H8.74311C7.82211 22 6.94711 21.821 6.12011 21.461C5.30811 21.101 4.59811 20.618 3.98911 20.009C3.38011 19.399 2.89711 18.689 2.53711 17.878C2.17811 17.051 1.99911 16.176 1.99911 15.255V9.26002C1.99511 9.16102 2.01211 9.06102 2.04811 8.96902C2.08411 8.87702 2.13911 8.79202 2.20911 8.72102C2.35511 8.58502 2.54811 8.51002 2.74811 8.51102C2.84811 8.50702 2.94711 8.52402 3.03911 8.56002C3.13111 8.59602 3.21611 8.65102 3.28711 8.72102C3.35711 8.79202 3.41311 8.87602 3.44911 8.96902Z" fill="white"/>
</svg>
