<svg width="24" height="24" viewBox="0 0 24 24" fill="none" xmlns="http://www.w3.org/2000/svg">
<path d="M9.52993 13.485C9.57093 13.392 9.63093 13.309 9.70693 13.242L13.2429 9.70602C13.3059 9.63202 13.3849 9.57202 13.4739 9.53102C13.5629 9.49002 13.6599 9.47002 13.7569 9.47102C13.8579 9.46802 13.9589 9.48802 14.0519 9.52802C14.1449 9.56802 14.2279 9.62902 14.2949 9.70502C14.3709 9.77202 14.4319 9.85502 14.4729 9.94902C14.5139 10.043 14.5329 10.143 14.5299 10.245C14.5309 10.343 14.5109 10.439 14.4699 10.528C14.4289 10.617 14.3699 10.696 14.2949 10.759L10.7599 14.296C10.6889 14.366 10.6049 14.421 10.5119 14.457C10.4189 14.493 10.3199 14.51 10.2209 14.506C10.0179 14.506 9.84593 14.435 9.70593 14.295C9.54893 14.155 9.47093 13.983 9.47093 13.78C9.46793 13.679 9.48793 13.578 9.52793 13.485H9.52993Z" fill="white"/>
<path d="M11.7969 15.254C11.8329 15.343 11.8869 15.423 11.9559 15.49C12.0249 15.564 12.1079 15.622 12.2009 15.662C12.2939 15.702 12.3929 15.723 12.4939 15.723C12.5949 15.723 12.6949 15.702 12.7879 15.662C12.8809 15.622 12.9639 15.563 13.0339 15.489L15.4929 13.006C15.5669 12.943 15.6269 12.864 15.6669 12.775C15.7069 12.686 15.7279 12.589 15.7269 12.492C15.7269 12.272 15.6489 12.093 15.4929 11.952C15.4219 11.882 15.3379 11.828 15.2449 11.791C15.1519 11.754 15.0529 11.738 14.9539 11.742C14.8579 11.74 14.7629 11.758 14.6739 11.794C14.5849 11.83 14.5049 11.884 14.4379 11.953L11.9549 14.434C11.8849 14.505 11.8299 14.589 11.7939 14.682C11.7579 14.775 11.7409 14.874 11.7449 14.974C11.7429 15.07 11.7609 15.165 11.7969 15.254Z" fill="white"/>
<path d="M8.51193 10.969C8.43793 11.038 8.37893 11.122 8.33893 11.214C8.29893 11.306 8.27793 11.407 8.27793 11.508C8.27793 11.609 8.29893 11.708 8.33893 11.801C8.37893 11.894 8.43793 11.977 8.51093 12.046C8.65193 12.186 8.82393 12.257 9.02693 12.257C9.12593 12.261 9.22493 12.244 9.31793 12.208C9.41093 12.172 9.49493 12.117 9.56593 12.048L12.0479 9.56502C12.1849 9.41902 12.2599 9.22602 12.2589 9.02502C12.2599 8.82602 12.1849 8.63302 12.0489 8.48702C11.9029 8.35002 11.7099 8.27502 11.5089 8.27602C11.3089 8.27402 11.1169 8.35002 10.9699 8.48602L8.51093 10.969H8.51193Z" fill="white"/>
<path d="M12.1419 2.39902C11.3859 2.64402 10.6749 3.00702 10.0339 3.47602L10.0349 3.47502C9.38593 3.95202 8.81693 4.52902 8.34793 5.18502C7.89693 5.83802 7.54993 6.55702 7.31893 7.31602C6.69993 7.50002 6.10893 7.76802 5.56193 8.11102C5.01493 8.45402 4.51193 8.86402 4.06293 9.32902C3.62293 9.80202 3.24493 10.329 2.93893 10.898C2.62593 11.46 2.39193 12.054 2.23693 12.679C2.08193 13.304 2.00293 13.943 2.00293 14.599C2.01793 15.24 2.11193 15.877 2.28293 16.495C2.79993 18.38 4.03593 19.987 5.72493 20.969C6.28293 21.295 6.88093 21.547 7.50493 21.718C8.12293 21.889 8.75993 21.983 9.40093 21.999C10.0479 22 10.6929 21.921 11.3219 21.764C11.9439 21.609 12.5419 21.373 13.1029 21.062C13.6719 20.756 14.1989 20.378 14.6719 19.938C15.1339 19.493 15.5359 18.989 15.8659 18.439C16.2099 17.893 16.4769 17.302 16.6619 16.683C17.5159 16.42 18.3169 16.007 19.0269 15.465C19.7369 14.927 20.3479 14.269 20.8309 13.521C21.3099 12.768 21.6509 11.935 21.8379 11.062C22.0249 10.172 22.0479 9.28202 21.9079 8.39302C21.7839 7.50302 21.5019 6.66702 21.0649 5.88702C20.6359 5.10102 20.0649 4.40202 19.3789 3.82702C18.7129 3.23702 17.9419 2.77602 17.1069 2.46802C16.2649 2.15502 15.3899 1.99902 14.4839 1.99902C13.6869 1.99902 12.8949 2.13402 12.1429 2.39802L12.1419 2.39902ZM16.5679 3.89602C17.2359 4.14502 17.8539 4.51002 18.3939 4.97502L18.3949 4.97302C18.9349 5.43402 19.3879 5.98902 19.7299 6.61202C20.0739 7.23802 20.3039 7.92002 20.4089 8.62602C20.5189 9.32802 20.4949 10.031 20.3389 10.733C20.1979 11.435 19.9319 12.092 19.5429 12.701C19.1689 13.309 18.6839 13.841 18.1139 14.27C17.5449 14.702 16.9029 15.027 16.2179 15.229C16.1079 15.276 15.9989 15.331 15.8899 15.394C15.7809 15.457 15.6869 15.526 15.6079 15.604C15.4319 15.78 15.3029 15.998 15.2329 16.237C15.0769 16.737 14.8579 17.205 14.5779 17.642C14.3119 18.08 13.9919 18.477 13.6179 18.837C12.8719 19.554 11.9519 20.062 10.9479 20.312C10.4479 20.437 9.94093 20.499 9.42593 20.499C8.90993 20.499 8.40393 20.429 7.90393 20.289C7.40393 20.148 6.92793 19.945 6.47493 19.68C6.02193 19.415 5.61693 19.102 5.25693 18.743C4.88193 18.384 4.56293 17.978 4.29693 17.526C4.04693 17.072 3.85093 16.597 3.71093 16.097C3.57093 15.597 3.49993 15.09 3.49993 14.574C3.49993 14.061 3.56293 13.55 3.68793 13.052C3.81293 12.536 3.99993 12.053 4.24993 11.599C4.74893 10.694 5.47493 9.93502 6.35793 9.39802C6.79493 9.11702 7.26293 8.90602 7.76293 8.76602C7.87193 8.71902 7.98093 8.66402 8.09093 8.60102C8.19293 8.54402 8.28793 8.47302 8.37193 8.39102C8.46593 8.29702 8.54393 8.20302 8.60693 8.10902C8.66993 7.99902 8.71693 7.88102 8.74693 7.75802C9.12693 6.52902 9.88993 5.45402 10.9249 4.69002C11.9489 3.91402 13.1989 3.49402 14.4839 3.49502C15.1979 3.49402 15.9049 3.63002 16.5679 3.89402V3.89602Z" fill="white"/>
</svg>
