<svg width="24" height="24" viewBox="0 0 24 24" fill="none" xmlns="http://www.w3.org/2000/svg">
<path d="M12.2935 21.7895C12.2465 21.9295 12.1435 22.0005 11.9885 22.0005C11.8485 22.0005 11.7535 21.9305 11.7065 21.7905L11.4965 21.2035C11.4826 21.1596 11.4587 21.1195 11.4265 21.0865C11.3991 21.0426 11.3574 21.0094 11.3085 20.9925L10.6985 20.8055C10.5585 20.7585 10.4885 20.6655 10.4885 20.5235C10.4885 20.3675 10.5585 20.2665 10.6985 20.2195L11.3085 20.0315C11.3525 20.0176 11.3925 19.9937 11.4255 19.9615C11.455 19.9181 11.4785 19.8711 11.4955 19.8215L11.7065 19.2345C11.7535 19.0945 11.8475 19.0245 11.9885 19.0245C12.1445 19.0245 12.2465 19.0945 12.2925 19.2345L12.5035 19.8205C12.5205 19.8701 12.5441 19.9171 12.5735 19.9605C12.6055 19.9925 12.6435 20.0165 12.6915 20.0315L13.3015 20.2195C13.4415 20.2665 13.5115 20.3675 13.5115 20.5235C13.5115 20.6645 13.4415 20.7585 13.3015 20.8055L12.6915 20.9925C12.6429 21.0096 12.6017 21.0427 12.5745 21.0865C12.5424 21.1195 12.5184 21.1596 12.5045 21.2035L12.2935 21.7895Z" fill="white"/>
<path d="M12.6016 16.8704C12.5546 17.0104 12.4516 17.0814 12.2966 17.0814C12.1566 17.0814 12.0616 17.0114 12.0146 16.8714L11.8046 16.2844C11.7908 16.2404 11.7668 16.2004 11.7346 16.1674C11.7072 16.1235 11.6656 16.0903 11.6166 16.0734L11.0066 15.8864C10.8666 15.8394 10.7966 15.7464 10.7966 15.6044C10.7966 15.4484 10.8666 15.3474 11.0066 15.3004L11.6166 15.1124C11.6606 15.0985 11.7007 15.0746 11.7336 15.0424C11.7631 14.999 11.7866 14.9519 11.8036 14.9024L12.0146 14.3154C12.0616 14.1754 12.1556 14.1054 12.2966 14.1054C12.4526 14.1054 12.5546 14.1754 12.6006 14.3154L12.8116 14.9014C12.8287 14.9509 12.8522 14.998 12.8816 15.0414C12.9136 15.0734 12.9516 15.0974 12.9996 15.1124L13.6096 15.3004C13.7496 15.3474 13.8196 15.4484 13.8196 15.6044C13.8196 15.7454 13.7496 15.8394 13.6096 15.8864L12.9996 16.0734C12.9511 16.0905 12.9098 16.1236 12.8826 16.1674C12.8505 16.2004 12.8265 16.2404 12.8126 16.2844L12.6016 16.8704Z" fill="white"/>
<path d="M9.86007 19.1015C9.81307 19.2415 9.71007 19.3125 9.55507 19.3125C9.41507 19.3125 9.32007 19.2425 9.27307 19.1025L9.06307 18.5155C9.0492 18.4716 9.02522 18.4315 8.99307 18.3985C8.96567 18.3546 8.92401 18.3214 8.87507 18.3045L8.26507 18.1175C8.12507 18.0705 8.05507 17.9775 8.05507 17.8355C8.05507 17.6795 8.12507 17.5785 8.26507 17.5315L8.87507 17.3435C8.91902 17.3297 8.9591 17.3057 8.99207 17.2735C9.02152 17.2302 9.04506 17.1831 9.06207 17.1335L9.27307 16.5465C9.32007 16.4065 9.41407 16.3365 9.55507 16.3365C9.71107 16.3365 9.81307 16.4065 9.85907 16.5465L10.0701 17.1325C10.0871 17.1821 10.1106 17.2292 10.1401 17.2725C10.1721 17.3045 10.2101 17.3285 10.2581 17.3435L10.8681 17.5315C11.0081 17.5785 11.0781 17.6795 11.0781 17.8355C11.0781 17.9765 11.0081 18.0705 10.8681 18.1175L10.2581 18.3045C10.2095 18.3216 10.1682 18.3548 10.1411 18.3985C10.1089 18.4315 10.085 18.4716 10.0711 18.5155L9.86007 19.1015Z" fill="white"/>
<path fill-rule="evenodd" clip-rule="evenodd" d="M21.2965 16.7455L17.9101 20.1199C17.4411 20.5889 16.8745 20.8229 16.2103 20.8229C15.5538 20.8229 14.9921 20.5884 14.5231 20.1194C14.0541 19.651 13.8196 19.0964 13.8196 18.4322C13.8196 17.768 14.0541 17.2014 14.5231 16.7324L17.897 13.346C18.366 12.877 18.932 12.6425 19.5973 12.6425C20.2615 12.6425 20.8281 12.8764 21.2965 13.3454C21.7655 13.8144 22 14.381 22 15.0452C22 15.7099 21.7655 16.2765 21.2965 16.7455ZM18.4723 13.9333L16.2998 16.1064L18.5361 18.3427L20.7092 16.1702C21.0239 15.855 21.182 15.4798 21.182 15.0457C21.1851 14.8376 21.1446 14.6311 21.0631 14.4396C20.9817 14.248 20.8612 14.0755 20.7092 13.9333C20.4022 13.6186 20.0314 13.4605 19.5973 13.4605C19.1627 13.4605 18.7875 13.6181 18.4723 13.9333Z" fill="white"/>
<path d="M6.75 22.0005H8.62472C9.03472 22.0005 9.37472 21.6605 9.37472 21.2505C9.37472 20.8405 9.03472 20.5005 8.62472 20.5005H6.75C4.96 20.5005 3.5 19.0405 3.5 17.2505V6.75049C3.5 4.96049 4.96 3.50049 6.75 3.50049H17.25C19.04 3.50049 20.5 4.96049 20.5 6.75049L20.5 10.2505C20.5 10.6605 20.84 11.0005 21.25 11.0005C21.66 11.0005 22 10.6605 22 10.2505L22 6.75049C22 4.13049 19.87 2.00049 17.25 2.00049H6.75C4.13 2.00049 2 4.13049 2 6.75049V17.2505C2 19.8705 4.13 22.0005 6.75 22.0005Z" fill="white"/>
<path d="M6 7.01337C6 6.20205 6.93816 5.72112 7.63228 6.1766L11.0415 8.41372C11.6528 8.81487 11.6528 9.68611 11.0415 10.0873L7.63228 12.3244C6.93816 12.7799 6 12.2989 6 11.4876V7.01337Z" fill="white"/>
</svg>
