<svg width="24" height="24" viewBox="0 0 24 24" fill="none" xmlns="http://www.w3.org/2000/svg">
<path d="M6.754 2.00005H7.62C7.722 1.99705 7.823 2.01705 7.916 2.05705C8.009 2.09705 8.092 2.15805 8.16 2.23505C8.228 2.30205 8.282 2.38205 8.318 2.47105C8.354 2.56005 8.372 2.65405 8.37 2.75005C8.374 2.84905 8.357 2.94905 8.321 3.04105C8.285 3.13305 8.23 3.21805 8.16 3.28905C8.089 3.35905 8.005 3.41405 7.912 3.45005C7.819 3.48605 7.72 3.50305 7.621 3.49905H6.755C6.613 3.49905 6.472 3.51505 6.333 3.54605C6.193 3.56205 6.051 3.58605 5.911 3.61605C5.714 3.66405 5.506 3.63905 5.325 3.54605C5.153 3.43705 5.044 3.28005 4.998 3.07805C4.967 2.98905 4.957 2.89405 4.969 2.80005C4.981 2.70605 5.015 2.61705 5.068 2.53905C5.169 2.35805 5.337 2.22405 5.536 2.16405C5.724 2.11705 5.919 2.07805 6.122 2.04705C6.325 2.01605 6.536 2.00005 6.754 2.00005Z" fill="white"/>
<path d="M19.516 8.46305L20.992 7.01205C21.257 6.74805 21.465 6.43405 21.606 6.08805C21.747 5.74205 21.817 5.37105 21.811 4.99805C21.811 4.21805 21.538 3.55405 20.992 3.00805C20.734 2.74305 20.424 2.53305 20.082 2.39205C19.74 2.25105 19.372 2.18205 19.002 2.18805C18.628 2.18305 18.258 2.25205 17.912 2.39305C17.566 2.53405 17.252 2.74305 16.988 3.00705L8.3 11.719C8.205 11.815 8.125 11.925 8.065 12.047C8.016 12.166 7.993 12.293 7.995 12.422V14.998C7.995 15.279 8.089 15.521 8.276 15.724C8.48 15.911 8.722 16.004 9.002 16.004H11.578C11.718 16.004 11.844 15.981 11.953 15.934C12.074 15.874 12.185 15.795 12.281 15.7L19.516 8.46305ZM9.495 12.631L15.536 6.58905L17.409 8.46205L11.367 14.504H9.494L9.495 12.631ZM18.065 4.06105C18.315 3.81105 18.62 3.68605 18.978 3.68605C19.353 3.68605 19.673 3.81105 19.938 4.06105C20.188 4.32605 20.313 4.64705 20.313 5.02005C20.313 5.38005 20.188 5.68405 19.938 5.93405L18.464 7.41005L16.591 5.53705L18.066 4.06205L18.065 4.06105Z" fill="white"/>
<path d="M20.5 12.8661V11.1321L20.501 11.1331C20.497 11.0331 20.514 10.9341 20.55 10.8421C20.586 10.7501 20.641 10.6651 20.711 10.5941C20.782 10.5241 20.866 10.4691 20.959 10.4331C21.052 10.3971 21.151 10.3801 21.25 10.3841C21.346 10.3821 21.441 10.4001 21.529 10.4361C21.617 10.4721 21.698 10.5261 21.765 10.5941C21.841 10.6611 21.902 10.7441 21.943 10.8381C21.984 10.9321 22.003 11.0321 22 11.1341V12.8671C22.003 12.9691 21.983 13.0701 21.943 13.1631C21.903 13.2561 21.842 13.3391 21.765 13.4071C21.625 13.5471 21.453 13.6171 21.25 13.6171C21.031 13.6171 20.851 13.5471 20.711 13.4071C20.57 13.2661 20.499 13.0861 20.499 12.8671L20.5 12.8661Z" fill="white"/>
<path d="M20.501 16.3781V17.2451C20.501 17.3851 20.485 17.5261 20.454 17.6671C20.438 17.8071 20.414 17.9481 20.384 18.0891C20.336 18.2861 20.361 18.494 20.454 18.675C20.564 18.847 20.72 18.955 20.923 19.003C21.11 19.065 21.29 19.0421 21.462 18.9331C21.643 18.8311 21.778 18.663 21.837 18.463C21.884 18.276 21.923 18.0811 21.954 17.8781C21.986 17.6691 22.001 17.4571 22.001 17.2461V16.38C22.004 16.278 21.984 16.1771 21.944 16.0841C21.904 15.9911 21.843 15.9081 21.766 15.8401C21.699 15.7721 21.619 15.7181 21.53 15.6821C21.441 15.6461 21.347 15.6281 21.251 15.6301C21.151 15.6261 21.052 15.6431 20.96 15.6791C20.868 15.7151 20.783 15.7701 20.712 15.8401C20.642 15.9111 20.587 15.995 20.551 16.088C20.515 16.181 20.498 16.2791 20.502 16.3781H20.501Z" fill="white"/>
<path d="M17.667 20.477L18.089 20.3841C18.184 20.3601 18.283 20.355 18.38 20.372C18.477 20.389 18.569 20.424 18.651 20.477C18.74 20.519 18.818 20.581 18.878 20.659C18.938 20.737 18.981 20.827 19 20.923C19.031 21.016 19.041 21.115 19.028 21.212C19.015 21.309 18.982 21.4021 18.93 21.4851C18.823 21.6561 18.656 21.781 18.462 21.837C18.274 21.884 18.079 21.9231 17.876 21.9541C17.673 21.9851 17.462 22 17.244 22H16.378C16.159 22 15.979 21.9301 15.838 21.7901C15.698 21.6341 15.628 21.454 15.628 21.251C15.624 21.151 15.641 21.052 15.677 20.96C15.713 20.868 15.768 20.783 15.838 20.712C15.909 20.642 15.993 20.5871 16.086 20.5511C16.179 20.5151 16.278 20.4981 16.377 20.5021H17.243C17.384 20.5021 17.525 20.4941 17.665 20.4781L17.667 20.477Z" fill="white"/>
<path d="M12.865 20.501H11.132C11.032 20.497 10.933 20.514 10.84 20.55C10.747 20.586 10.663 20.6411 10.592 20.7111C10.522 20.7821 10.467 20.866 10.431 20.959C10.395 21.052 10.378 21.151 10.382 21.25C10.382 21.453 10.452 21.633 10.592 21.789C10.733 21.929 10.913 21.9991 11.132 21.9991H12.865C12.964 22.0031 13.064 21.9861 13.156 21.9501C13.248 21.9141 13.333 21.859 13.404 21.789C13.54 21.643 13.616 21.4501 13.614 21.2491C13.617 21.1501 13.601 21.051 13.564 20.959C13.527 20.867 13.473 20.782 13.404 20.712C13.333 20.642 13.249 20.5871 13.156 20.5511C13.063 20.5151 12.965 20.498 12.865 20.501Z" fill="white"/>
<path d="M6.121 21.953C5.918 21.922 5.723 21.8831 5.535 21.8361H5.537C5.333 21.774 5.177 21.656 5.067 21.484C5.014 21.401 4.981 21.3081 4.969 21.2111C4.957 21.1141 4.967 21.0151 4.997 20.9221C5.015 20.8281 5.054 20.7391 5.111 20.6621C5.168 20.5851 5.241 20.521 5.325 20.476C5.5 20.369 5.711 20.336 5.911 20.383L6.333 20.476C6.474 20.492 6.615 20.5 6.755 20.5H7.62C7.72 20.496 7.819 20.513 7.912 20.55C8.005 20.587 8.089 20.6411 8.16 20.7111C8.23 20.7821 8.284 20.866 8.32 20.958C8.356 21.05 8.373 21.149 8.369 21.248C8.371 21.448 8.296 21.641 8.159 21.788C8.088 21.858 8.004 21.913 7.911 21.949C7.818 21.985 7.719 22.0021 7.619 21.9991H6.753C6.534 21.9991 6.323 21.984 6.121 21.953Z" fill="white"/>
<path d="M2 16.3781V17.2451C2 17.4641 2.016 17.6751 2.047 17.8771C2.078 18.0791 2.117 18.275 2.164 18.463C2.227 18.666 2.344 18.823 2.516 18.931C2.599 18.984 2.692 19.017 2.789 19.029C2.886 19.041 2.985 19.031 3.078 19.001C3.172 18.983 3.26 18.9441 3.337 18.8881C3.414 18.8321 3.478 18.759 3.523 18.675C3.63 18.5 3.663 18.2891 3.616 18.0891L3.523 17.6671C3.507 17.5271 3.499 17.3861 3.499 17.2451V16.3791C3.503 16.2791 3.486 16.18 3.45 16.088C3.414 15.996 3.359 15.9111 3.289 15.8401C3.218 15.7701 3.134 15.7151 3.041 15.6791C2.948 15.6431 2.849 15.6261 2.75 15.6301C2.55 15.6281 2.358 15.7041 2.211 15.8401C2.141 15.9111 2.086 15.995 2.05 16.088C2.014 16.181 1.997 16.2801 2.001 16.3791L2 16.3781Z" fill="white"/>
<path d="M2 12.8661V11.1321L2.001 11.1331C1.997 11.0331 2.014 10.9341 2.05 10.8421C2.086 10.7501 2.141 10.6651 2.211 10.5941C2.357 10.4581 2.55 10.3831 2.75 10.3841C2.849 10.3801 2.949 10.3971 3.041 10.4331C3.133 10.4691 3.218 10.5241 3.289 10.5941C3.359 10.6651 3.414 10.7491 3.45 10.8421C3.486 10.9351 3.503 11.0341 3.499 11.1331V12.8661C3.503 12.9661 3.486 13.0651 3.449 13.1581C3.412 13.2511 3.358 13.3351 3.288 13.4061C3.217 13.4761 3.133 13.5301 3.041 13.5661C2.949 13.6021 2.85 13.6191 2.751 13.6151C2.547 13.6151 2.367 13.5451 2.211 13.4051C2.07 13.2641 2 13.0841 2 12.8651V12.8661Z" fill="white"/>
<path d="M2.165 5.53705C2.117 5.73005 2.077 5.92505 2.047 6.12205C2.015 6.33105 2 6.54305 2 6.75405V7.62005C2 7.83905 2.07 8.01905 2.211 8.16005C2.367 8.30005 2.547 8.37005 2.751 8.37005C2.85 8.37305 2.949 8.35705 3.041 8.32105C3.133 8.28505 3.217 8.23005 3.288 8.16105C3.358 8.09005 3.413 8.00605 3.449 7.91305C3.485 7.82005 3.502 7.72105 3.499 7.62105V6.75505C3.499 6.61505 3.507 6.47405 3.523 6.33305L3.616 5.91105C3.64 5.81605 3.644 5.71705 3.628 5.62105C3.612 5.52505 3.576 5.43205 3.523 5.35005C3.481 5.26105 3.419 5.18305 3.342 5.12205C3.265 5.06105 3.174 5.01905 3.078 4.99905C2.985 4.96805 2.887 4.95905 2.789 4.97105C2.691 4.98305 2.599 5.01705 2.516 5.06905C2.345 5.17705 2.22 5.34405 2.164 5.53905L2.165 5.53705Z" fill="white"/>
<path d="M12.866 2.00005H11.133C11.031 1.99705 10.93 2.01705 10.837 2.05705C10.744 2.09705 10.661 2.15805 10.593 2.23505C10.525 2.30205 10.471 2.38205 10.435 2.47105C10.399 2.56005 10.381 2.65405 10.383 2.75005C10.383 2.96905 10.453 3.14905 10.593 3.29005C10.734 3.43005 10.914 3.50005 11.133 3.50005H12.866C12.965 3.50405 13.065 3.48705 13.157 3.45105C13.249 3.41505 13.334 3.36005 13.405 3.29005C13.475 3.21905 13.53 3.13505 13.566 3.04205C13.602 2.94905 13.619 2.85005 13.615 2.75105C13.617 2.65505 13.599 2.56005 13.563 2.47205C13.527 2.38405 13.473 2.30305 13.405 2.23605C13.338 2.16005 13.255 2.09905 13.161 2.05805C13.067 2.01705 12.967 1.99805 12.865 2.00105L12.866 2.00005Z" fill="white"/>
</svg>
