<svg width="24" height="24" viewBox="0 0 24 24" fill="none" xmlns="http://www.w3.org/2000/svg">
<path d="M4.91791 6.763C4.91791 5.82 5.68191 5.056 6.62491 5.056H9.08791C10.0309 5.056 10.7949 5.82 10.7949 6.763V9.226C10.7949 10.169 10.0309 10.933 9.08791 10.933H6.62491C5.68191 10.933 4.91791 10.169 4.91791 9.226V6.763ZM6.62591 6.519C6.49091 6.519 6.38191 6.628 6.38191 6.763V9.226C6.38191 9.361 6.49091 9.47 6.62591 9.47H9.08891C9.22391 9.47 9.33291 9.361 9.33291 9.226V6.763C9.33291 6.628 9.22391 6.519 9.08891 6.519H6.62591Z" fill="white"/>
<path d="M6.62591 13.066C5.68291 13.066 4.91891 13.83 4.91891 14.773V17.236C4.91891 18.179 5.68291 18.943 6.62591 18.943H9.08891C10.0319 18.943 10.7959 18.179 10.7959 17.236V14.773C10.7959 13.83 10.0319 13.066 9.08891 13.066H6.62591ZM6.38191 14.774C6.38191 14.639 6.49091 14.53 6.62591 14.53H9.08891C9.22391 14.53 9.33291 14.639 9.33291 14.774V17.237C9.33291 17.372 9.22391 17.481 9.08891 17.481H6.62591C6.49091 17.481 6.38191 17.372 6.38191 17.237V14.774Z" fill="white"/>
<path d="M12.6579 6.287C12.6579 5.883 12.9859 5.555 13.3899 5.555H18.2679C18.6719 5.555 18.9999 5.883 18.9999 6.287C18.9999 6.691 18.6719 7.019 18.2679 7.019H13.3899C12.9859 7.019 12.6579 6.691 12.6579 6.287Z" fill="white"/>
<path d="M13.3899 13.566C12.9859 13.566 12.6579 13.894 12.6579 14.298C12.6579 14.702 12.9859 15.03 13.3899 15.03H18.2679C18.6719 15.03 18.9999 14.702 18.9999 14.298C18.9999 13.894 18.6719 13.566 18.2679 13.566H13.3899Z" fill="white"/>
<path d="M12.6579 9.702C12.6579 9.298 12.9859 8.97 13.3899 8.97H18.2679C18.6719 8.97 18.9999 9.298 18.9999 9.702C18.9999 10.106 18.6719 10.434 18.2679 10.434H13.3899C12.9859 10.434 12.6579 10.106 12.6579 9.702Z" fill="white"/>
<path d="M13.3899 16.981C12.9859 16.981 12.6579 17.309 12.6579 17.713C12.6579 18.117 12.9859 18.445 13.3899 18.445H18.2679C18.6719 18.445 18.9999 18.117 18.9999 17.713C18.9999 17.309 18.6719 16.981 18.2679 16.981H13.3899Z" fill="white"/>
<path d="M2.00391 6.634C2.00391 4.075 4.07891 2 6.63791 2H17.3699C19.9289 2 22.0039 4.075 22.0039 6.634V17.366C22.0039 19.925 19.9289 22 17.3699 22H6.63791C4.07891 22 2.00391 19.925 2.00391 17.366V6.634ZM6.63791 3.463C4.88691 3.463 3.46691 4.883 3.46691 6.634V17.366C3.46691 19.117 4.88691 20.537 6.63791 20.537H17.3699C19.1209 20.537 20.5409 19.117 20.5409 17.366V6.634C20.5409 4.883 19.1209 3.463 17.3699 3.463H6.63791Z" fill="white"/>
</svg>
