<svg width="24" height="24" viewBox="0 0 24 24" fill="none" xmlns="http://www.w3.org/2000/svg">
<path d="M20.7526 4.7593L19.7258 4.4408C19.6032 4.38371 19.4598 4.2409 19.4023 4.11848L19.0775 3.09545C18.9196 2.63242 18.2651 2.63374 18.1106 3.10024L17.7633 4.12572C17.7332 4.26894 17.6001 4.36037 17.4789 4.44359L17.4709 4.44904L16.4477 4.77379C15.9848 4.93161 15.9859 5.5861 16.4525 5.74053L17.4782 6.08776C17.6118 6.13771 17.7214 6.24667 17.7716 6.38021L18.1264 7.40313C18.2851 7.86872 18.9397 7.86213 19.0933 7.39835L19.4106 6.37297L19.416 6.36497C19.4989 6.24351 19.5899 6.11016 19.7331 6.07951L20.7562 5.72479C21.2184 5.56721 21.2162 4.91109 20.7526 4.7593Z" fill="white"/>
<path d="M15.1865 7.49958L14.377 7.24845C14.2804 7.20343 14.1673 7.09083 14.122 6.9943L13.866 6.18764C13.7415 5.82254 13.2254 5.82358 13.1037 6.19141L12.8299 7.00001C12.8061 7.11294 12.7012 7.18503 12.6056 7.25065L12.5994 7.25495L11.7927 7.51101C11.4277 7.63545 11.4286 8.15152 11.7965 8.27329L12.6051 8.54708C12.7104 8.58647 12.7968 8.67238 12.8364 8.77768L13.1161 9.58425C13.2413 9.95137 13.7573 9.94617 13.8784 9.58048L14.1285 8.77197L14.1328 8.76566C14.1982 8.66989 14.2699 8.56474 14.3828 8.54058L15.1893 8.26088C15.5537 8.13662 15.552 7.61927 15.1865 7.49958Z" fill="white"/>
<path d="M17.8896 10.4178L17.2616 10.223C17.1866 10.188 17.0988 10.1007 17.0637 10.0258L16.865 9.3999C16.7684 9.11663 16.3681 9.11743 16.2736 9.40283L16.0612 10.0302C16.0427 10.1178 15.9613 10.1738 15.8872 10.2247L15.8823 10.228L15.2564 10.4267C14.9733 10.5232 14.974 10.9236 15.2594 11.0181L15.8867 11.2305C15.9685 11.2611 16.0355 11.3277 16.0662 11.4094L16.2832 12.0352C16.3803 12.3201 16.7807 12.3161 16.8746 12.0323L17.0687 11.405L17.0721 11.4001C17.1228 11.3258 17.1784 11.2442 17.266 11.2255L17.8918 11.0085C18.1745 10.9121 18.1732 10.5107 17.8896 10.4178Z" fill="white"/>
<path d="M2.70155 18.923C2.3141 18.923 2 18.6089 2 18.2215V11.6743C2 11.2868 2.3141 10.9727 2.70155 10.9727C3.08901 10.9727 3.4031 11.2868 3.4031 11.6743V18.2215C3.4031 18.6089 3.08901 18.923 2.70155 18.923Z" fill="white"/>
<path d="M3.93742 16.2038C3.93742 17.8245 5.21001 19.0753 6.80889 19.0753C8.40778 19.0753 9.69124 17.8245 9.69124 16.2038C9.69124 14.5832 8.40778 13.3324 6.80889 13.3324C5.21001 13.3324 3.93742 14.5832 3.93742 16.2038ZM8.28814 16.2038C8.28814 17.0848 7.64641 17.7048 6.80889 17.7048C5.98226 17.7048 5.34053 17.0848 5.34053 16.2038C5.34053 15.3228 5.98226 14.7028 6.80889 14.7028C7.64641 14.7028 8.28814 15.3228 8.28814 16.2038Z" fill="white"/>
<path d="M14.508 14.159C14.508 13.7866 14.8153 13.4846 15.1877 13.4846C15.5662 13.4846 15.8785 13.7914 15.8785 14.1699V18.662C15.8785 20.4458 14.4753 21.2507 13.0396 21.2507C12.1432 21.2507 11.3824 20.9861 10.8614 20.462C10.5977 20.1968 10.721 19.7752 11.0455 19.5894C11.3813 19.3971 11.7941 19.553 12.1189 19.7634C12.3442 19.9095 12.6495 19.9998 13.0831 19.9998C13.9641 19.9998 14.508 19.5212 14.508 18.662V18.0746C14.1273 18.5858 13.5399 18.9013 12.7677 18.9013C11.2232 18.9013 10.0594 17.6504 10.0594 16.1168C10.0594 14.5941 11.2232 13.3324 12.7677 13.3324C13.5399 13.3324 14.1273 13.6478 14.508 14.159ZM12.9852 17.6069C13.8663 17.6069 14.508 16.987 14.508 16.1168C14.508 15.2575 13.8663 14.6376 12.9852 14.6376C12.1042 14.6376 11.4625 15.2575 11.4625 16.1168C11.4625 16.987 12.1042 17.6069 12.9852 17.6069Z" fill="white"/>
<path d="M19.1177 19.0753C17.5188 19.0753 16.2462 17.8245 16.2462 16.2038C16.2462 14.5832 17.5188 13.3324 19.1177 13.3324C20.7166 13.3324 22 14.5832 22 16.2038C22 17.8245 20.7166 19.0753 19.1177 19.0753ZM19.1177 17.7048C19.9552 17.7048 20.5969 17.0848 20.5969 16.2038C20.5969 15.3228 19.9552 14.7028 19.1177 14.7028C18.291 14.7028 17.6493 15.3228 17.6493 16.2038C17.6493 17.0848 18.291 17.7048 19.1177 17.7048Z" fill="white"/>
</svg>
