<svg width="24" height="24" viewBox="0 0 24 24" fill="none" xmlns="http://www.w3.org/2000/svg">
<path d="M5.02404 2C5.46004 2 5.81404 2.353 5.81404 2.79V6.346C6.72804 6.671 7.38204 7.543 7.38204 8.569V15.432C7.38204 16.457 6.72804 17.33 5.81404 17.655V21.212C5.81404 21.648 5.46104 22.002 5.02404 22.002C4.58704 22.002 4.23404 21.649 4.23404 21.212V17.656C3.32004 17.331 2.66504 16.459 2.66504 15.433V8.57C2.66504 7.544 3.32004 6.672 4.23404 6.347V2.791C4.23404 2.355 4.58704 2 5.02404 2ZM5.02404 7.789C4.59404 7.789 4.24504 8.138 4.24504 8.568V15.431C4.24504 15.861 4.59404 16.21 5.02404 16.21C5.45404 16.21 5.80304 15.861 5.80304 15.431V8.568C5.80304 8.138 5.45404 7.789 5.02404 7.789Z" fill="white"/>
<path d="M11.211 2.79V8.472C11.211 8.495 11.212 8.518 11.214 8.541C10.298 8.865 9.64204 9.738 9.64204 10.765V13.236C9.64204 14.261 10.297 15.134 11.211 15.459V21.212C11.211 21.648 11.564 22.002 12.001 22.002C12.438 22.002 12.791 21.649 12.791 21.212V15.459C13.705 15.134 14.36 14.262 14.36 13.236V10.765C14.36 9.738 13.704 8.865 12.788 8.541C12.79 8.518 12.791 8.495 12.791 8.472V2.79C12.791 2.354 12.438 2 12.001 2C11.564 2 11.211 2.353 11.211 2.79ZM11.221 10.763C11.221 10.333 11.57 9.984 12 9.984C12.43 9.984 12.779 10.333 12.779 10.763V13.237C12.779 13.667 12.43 14.016 12 14.016C11.57 14.016 11.221 13.667 11.221 13.237V10.763Z" fill="white"/>
<path d="M18.187 2.79C18.187 2.354 18.54 2 18.977 2C19.414 2 19.767 2.353 19.767 2.79V4.24C20.681 4.565 21.336 5.437 21.336 6.463V17.536C21.336 18.562 20.681 19.434 19.767 19.759V21.21C19.767 21.646 19.414 22 18.977 22C18.54 22 18.187 21.647 18.187 21.21V19.759C17.273 19.434 16.618 18.562 16.618 17.536V6.463C16.618 5.438 17.273 4.565 18.187 4.24V2.79ZM18.976 5.684C18.546 5.684 18.197 6.033 18.197 6.463V17.537C18.197 17.967 18.546 18.316 18.976 18.316C19.406 18.316 19.755 17.967 19.755 17.537V6.463C19.755 6.033 19.406 5.684 18.976 5.684Z" fill="white"/>
</svg>
