<svg width="24" height="24" viewBox="0 0 24 24" fill="none" xmlns="http://www.w3.org/2000/svg">
<path d="M4.00387 4.90767C3.45301 4.90767 2.98055 5.10419 2.58853 5.4962C2.19652 5.88822 2 6.36068 2 6.91154V8.39306C2 9.49783 2.34823 10.456 3.04572 11.2695C3.75746 12.0831 4.63619 12.5769 5.68191 12.7511C5.84177 13.4048 6.09531 14.0157 6.44456 14.5808C6.78872 15.1419 7.21535 15.6489 7.70919 16.0847C8.20914 16.5104 8.76611 16.8616 9.36483 17.1305C9.97882 17.4074 10.6335 17.5836 11.3035 17.6528V19.788H8.27431C8.18063 19.788 8.08696 19.8074 8.00143 19.845C7.91589 19.8827 7.83749 19.9367 7.77334 20.0059C7.71021 20.068 7.6593 20.1434 7.6257 20.2259C7.5921 20.3083 7.57581 20.3969 7.57784 20.4855C7.57784 20.6739 7.64301 20.8419 7.77334 20.9875C7.91793 21.1178 8.08594 21.183 8.27533 21.183H15.7267C15.9151 21.183 16.0749 21.1178 16.2053 20.9875C16.2745 20.9234 16.3285 20.846 16.3662 20.7594C16.4038 20.6729 16.4232 20.5802 16.4232 20.4855C16.4242 20.3949 16.4048 20.3043 16.3672 20.2218C16.3295 20.1393 16.2735 20.065 16.2043 20.0059C16.1452 19.9367 16.0719 19.8817 15.9894 19.844C15.9069 19.8064 15.8163 19.787 15.7257 19.789H12.6965V17.6538C13.3665 17.5846 14.0212 17.4084 14.6352 17.1315C15.2339 16.8627 15.7909 16.5104 16.2908 16.0858C16.7846 15.65 17.2113 15.1429 17.5554 14.5818C17.9037 14.0157 18.1582 13.4058 18.3181 12.7521C19.3404 12.5912 20.269 12.0648 20.9319 11.2706C21.6436 10.457 22 9.49885 22 8.39408V6.91256C22 6.3617 21.8035 5.88924 21.4115 5.49722C21.2282 5.30783 21.0082 5.15815 20.7649 5.05633C20.5215 4.95451 20.2599 4.90461 19.9961 4.90869H18.143C17.8355 4.29571 17.3691 3.77642 16.7918 3.40579C16.1971 3.01377 15.4996 2.8091 14.7879 2.81725H9.21006C8.46879 2.81725 7.80084 3.01377 7.20619 3.40579C6.61155 3.7978 6.16047 4.29775 5.855 4.90869H4.00183L4.00387 4.90767ZM9.2121 4.21018H14.7899C15.4294 4.21018 15.9731 4.44234 16.4242 4.90767C16.8885 5.35874 17.1217 5.90248 17.1217 6.54192V11.183C17.1217 11.8947 16.9832 12.5637 16.7083 13.1869C16.4517 13.7897 16.0821 14.3375 15.6188 14.7997C15.1545 15.264 14.6087 15.6347 13.9845 15.9106C13.3573 16.1754 12.6822 16.3087 12.002 16.3026C11.2903 16.3026 10.6295 16.1723 10.0196 15.9106C9.41065 15.6449 8.85572 15.2681 8.3853 14.7997C7.92099 14.3354 7.55748 13.7978 7.29681 13.1869C7.01884 12.5556 6.87832 11.8723 6.88239 11.183V6.54192C6.88239 5.90248 7.10742 5.35874 7.5585 4.90767C8.02281 4.44336 8.57469 4.21018 9.21413 4.21018H9.2121ZM5.48641 11.2695C4.88667 11.0781 4.36127 10.7044 3.9835 10.2014C3.59149 9.68111 3.38479 9.04472 3.39497 8.39306V6.91154C3.39497 6.7527 3.45403 6.61422 3.5701 6.49814C3.62509 6.43806 3.69229 6.38919 3.76764 6.35559C3.84299 6.32199 3.92343 6.30366 4.00489 6.30264H5.50881C5.49455 6.34439 5.48641 6.38817 5.48641 6.43297V11.2695ZM18.5156 11.2695V6.43297C18.5156 6.38919 18.5075 6.34439 18.4932 6.30264H19.9972C20.156 6.30264 20.2945 6.36781 20.4106 6.49814C20.5409 6.61422 20.606 6.7527 20.606 6.91154V8.39306C20.6162 9.04778 20.4014 9.6862 19.9972 10.2024C19.6296 10.7075 19.1103 11.0812 18.5156 11.2695Z" fill="white"/>
</svg>
