<svg width="24" height="24" viewBox="0 0 24 24" fill="none" xmlns="http://www.w3.org/2000/svg">
<path fill-rule="evenodd" clip-rule="evenodd" d="M14.0079 2.7495C14.0079 2.33556 13.6723 2 13.2584 2H6.00891C4.90091 2 3.95591 2.391 3.17491 3.172C2.39391 3.953 2.00391 4.897 2.00391 6.006V17.996C2.00391 19.104 2.39391 20.049 3.17491 20.83C3.95591 21.611 4.89991 22.001 6.00891 22.001H11.6109C12.1139 22.001 12.5959 21.906 13.0109 21.743C13.4629 21.572 13.8769 21.322 14.2519 20.994L20.6219 15.42C21.0589 15.045 21.3939 14.592 21.6289 14.062C21.8789 13.53 22.0039 12.977 22.0039 12.398V10.7495C22.0039 10.3356 21.6683 10 21.2544 10C20.8405 10 20.5049 10.3356 20.5049 10.7495V12.399C20.5049 12.4169 20.5047 12.4348 20.5043 12.4527C20.1305 12.1681 19.7176 11.9229 19.2629 11.72C18.5599 11.407 17.8029 11.251 16.9909 11.251H16.9659C16.1719 11.251 15.4159 11.415 14.7669 11.696L14.7289 11.711C14.0589 12.01 13.4529 12.427 12.9399 12.937C12.4299 13.451 12.0129 14.056 11.6989 14.765C11.6351 14.9158 11.5782 15.0683 11.5282 15.2227C11.1152 15.1636 10.7274 15.0259 10.3639 14.81C9.86391 14.498 9.47391 14.101 9.19391 13.616C9.08491 13.444 8.92791 13.335 8.72491 13.289L8.72991 13.29C8.66391 13.267 8.59191 13.255 8.51791 13.255C8.38591 13.255 8.26291 13.294 8.16291 13.359L8.16591 13.358L8.16191 13.36C7.99491 13.454 7.86891 13.611 7.81491 13.804L7.81591 13.799C7.79991 13.862 7.79091 13.928 7.79091 13.996C7.79091 14.132 7.82591 14.259 7.88491 14.366L7.89691 14.389C8.30791 15.083 8.88391 15.668 9.59391 16.1L9.57291 16.088C10.0798 16.3952 10.6506 16.6075 11.2607 16.7007C11.2562 16.7959 11.2539 16.8916 11.2539 16.988V17.015C11.2539 17.809 11.4179 18.565 11.6989 19.214L11.7139 19.252C11.8891 19.6542 12.1071 20.0334 12.362 20.3833C12.1215 20.4609 11.869 20.5 11.6059 20.5H6.00791C5.31991 20.5 4.72791 20.259 4.22791 19.774C3.74391 19.274 3.50191 18.681 3.50191 17.994V5.965C3.50191 5.292 3.78091 4.683 4.22891 4.248C4.72891 3.749 5.32191 3.499 6.00891 3.499H13.2584C13.6723 3.499 14.0079 3.16344 14.0079 2.7495ZM13.0809 18.627C13.2261 18.9691 13.4056 19.28 13.6188 19.56L19.6379 14.293C19.7595 14.1844 19.8683 14.0683 19.9639 13.945C19.5941 13.5943 19.1605 13.31 18.6819 13.112L18.6539 13.102C18.1739 12.88 17.6119 12.75 17.0199 12.75H16.9919V12.749C15.8209 12.749 14.8219 13.163 13.9939 13.99C13.1659 14.817 12.7529 15.817 12.7529 16.988C12.7529 17.566 12.8629 18.112 13.0809 18.627Z" fill="white"/>
<path d="M9.7099 9.72802C9.8969 9.54702 10.0139 9.29402 10.0139 9.01302V8.98202C10.0139 8.71102 9.8969 8.46802 9.7089 8.29902C9.5229 8.09602 9.2889 7.99402 9.0079 7.99402H8.9959C8.7149 7.99402 8.4619 8.11102 8.2809 8.29902C8.0939 8.48502 8.0009 8.72002 8.0009 9.00102V9.02002C8.0009 9.29402 8.1079 9.54402 8.2809 9.72802C8.4839 9.91502 8.7259 10.008 9.0069 10.008H9.0349C9.2989 10.008 9.5369 9.90102 9.7099 9.72802Z" fill="white"/>
<path d="M15.7049 9.72802C15.8919 9.54702 16.0089 9.29402 16.0089 9.01302V8.98202C16.0089 8.71102 15.8919 8.46802 15.7039 8.29902C15.5179 8.09602 15.2839 7.99402 15.0029 7.99402H14.9909C14.7099 7.99402 14.4569 8.11102 14.2759 8.29902C14.0889 8.48502 13.9959 8.72002 13.9959 9.00102V9.02002C13.9959 9.29402 14.1029 9.54402 14.2759 9.72802C14.4789 9.91502 14.7209 10.008 15.0019 10.008H15.0299C15.2939 10.008 15.5319 9.90102 15.7049 9.72802Z" fill="white"/>
<path d="M18.978 2.00049C19.103 2.00049 19.189 2.06349 19.236 2.18849H19.234L19.774 3.92249C19.791 3.97249 19.815 4.01949 19.844 4.06249C19.893 4.09449 19.95 4.11049 20.008 4.10949H21.741C21.866 4.10949 21.945 4.17149 21.975 4.29749C22.007 4.40549 21.975 4.49949 21.882 4.57749L20.476 5.63149C20.434 5.67049 20.402 5.71849 20.382 5.77249C20.366 5.82649 20.366 5.88249 20.382 5.93649L20.922 7.67049C20.969 7.77849 20.937 7.87249 20.827 7.95049C20.734 8.02849 20.64 8.02849 20.547 7.95049L19.141 6.87349C19.095 6.84249 19.04 6.82649 18.977 6.82649C18.927 6.82749 18.878 6.84449 18.837 6.87349L17.432 7.95049C17.338 8.02849 17.244 8.02849 17.15 7.95049C17.056 7.87249 17.026 7.77949 17.056 7.66949L17.596 5.93649C17.612 5.88249 17.612 5.82549 17.596 5.77149C17.576 5.71849 17.544 5.67049 17.502 5.63149L16.097 4.57749C16.003 4.49949 15.972 4.40649 16.003 4.29649C16.05 4.17149 16.127 4.10949 16.237 4.10949H17.994C18.045 4.10849 18.094 4.09149 18.135 4.06149C18.176 4.02249 18.208 3.97449 18.228 3.92149L18.768 2.18849C18.798 2.06349 18.869 2.00049 18.978 2.00049Z" fill="white"/>
</svg>
