<svg width="24" height="24" viewBox="0 0 24 24" fill="none" xmlns="http://www.w3.org/2000/svg">
<path d="M21.088 10.993C21.635 10.446 21.907 9.78396 21.907 9.00196C21.907 8.21996 21.634 7.55796 21.088 7.01096C20.833 6.73996 20.525 6.52396 20.182 6.37896C19.839 6.23396 19.47 6.16196 19.098 6.16696C18.318 6.16696 17.646 6.44796 17.083 7.00996L6.38101 17.712C6.28701 17.805 6.21501 17.917 6.16901 18.041C6.12001 18.16 6.09701 18.287 6.09901 18.416V20.992C6.09901 21.273 6.19301 21.515 6.38001 21.718C6.58301 21.905 6.82601 21.998 7.10601 21.998H9.68201C9.80701 21.998 9.93201 21.975 10.057 21.928C10.182 21.866 10.291 21.788 10.385 21.694L21.088 10.991V10.993ZM7.59701 18.628L15.631 10.594L17.504 12.469L9.47101 20.502H7.59701V18.628ZM18.16 8.06596C18.41 7.79996 18.715 7.66696 19.073 7.66696C19.249 7.66496 19.423 7.69896 19.586 7.76496C19.749 7.83096 19.897 7.92996 20.021 8.05396C20.145 8.17796 20.244 8.32596 20.31 8.48896C20.376 8.65196 20.41 8.82596 20.408 9.00196C20.408 9.36196 20.283 9.67296 20.033 9.93896L18.558 11.414L16.684 9.53996L18.159 8.06496L18.16 8.06596Z" fill="white"/>
<path d="M13.147 2.05196C13.236 2.08796 13.316 2.14196 13.383 2.20996H13.382C13.458 2.27696 13.518 2.35996 13.559 2.45296C13.6 2.54596 13.619 2.64696 13.616 2.74796C13.617 2.84596 13.597 2.94296 13.557 3.03196C13.517 3.12096 13.457 3.19996 13.383 3.26396L12.164 4.50496L13.382 5.74596C13.458 5.81296 13.518 5.89596 13.559 5.98896C13.6 6.08196 13.619 6.18296 13.616 6.28396C13.617 6.38196 13.597 6.47896 13.556 6.56796C13.515 6.65696 13.456 6.73596 13.382 6.79996C13.241 6.93996 13.07 7.00996 12.867 7.00996C12.663 7.00996 12.484 6.93996 12.327 6.79996L11.087 5.55896L9.86801 6.79996C9.71201 6.93996 9.53301 7.00996 9.33001 7.00996C9.12701 7.00996 8.94701 6.93996 8.79001 6.79996C8.65001 6.65896 8.58001 6.48696 8.58001 6.28496C8.57601 6.18496 8.59301 6.08596 8.62901 5.99296C8.66501 5.89996 8.72001 5.81596 8.79001 5.74496L10.031 4.50396L8.79001 3.26296C8.65001 3.12196 8.58001 2.94996 8.58001 2.74796C8.57601 2.64796 8.59301 2.54896 8.62901 2.45596C8.66501 2.36296 8.72001 2.27896 8.79001 2.20796C8.93601 2.07196 9.12901 1.99696 9.32901 1.99796C9.52901 1.99696 9.72201 2.07196 9.86801 2.20796L11.086 3.44896L12.327 2.20796C12.473 2.07196 12.666 1.99696 12.866 1.99796C12.962 1.99596 13.057 2.01296 13.146 2.04896L13.147 2.05196Z" fill="white"/>
<path d="M6.59001 10.994C6.59001 10.587 6.44201 10.236 6.14501 9.93896C6.01101 9.79396 5.84701 9.67996 5.66601 9.60296C5.48501 9.52596 5.28801 9.48896 5.09101 9.49396C4.68501 9.49396 4.33401 9.64296 4.03801 9.93896C3.89601 10.075 3.78301 10.239 3.70601 10.42C3.62901 10.601 3.59101 10.796 3.59201 10.993C3.59001 11.191 3.62701 11.387 3.70101 11.569C3.77501 11.751 3.88601 11.918 4.02501 12.058C4.16501 12.198 4.33101 12.308 4.51401 12.382C4.69701 12.456 4.89301 12.494 5.09001 12.491C5.51201 12.491 5.86301 12.351 6.14401 12.069C6.44101 11.772 6.58901 11.413 6.58901 10.992V10.993L6.59001 10.994ZM8.08901 10.994C8.08901 11.82 7.79201 12.531 7.20001 13.124C6.92601 13.405 6.59801 13.627 6.23601 13.776C5.87401 13.925 5.48401 13.998 5.09201 13.991C4.69701 13.997 4.30401 13.923 3.93801 13.774C3.57201 13.625 3.23901 13.404 2.96001 13.124C2.68001 12.845 2.45901 12.512 2.31001 12.146C2.16101 11.78 2.08801 11.387 2.09301 10.992C2.09301 10.165 2.38301 9.46196 2.95901 8.88296C3.55301 8.28996 4.26301 7.99396 5.09101 7.99396C5.91901 7.99396 6.62101 8.29096 7.20001 8.88296C7.79301 9.46196 8.08901 10.164 8.08901 10.992V10.994Z" fill="white"/>
</svg>
