<svg width="24" height="24" viewBox="0 0 24 24" fill="none" xmlns="http://www.w3.org/2000/svg">
<path d="M13.0945 12.1772C13.0945 10.7562 14.2489 9.60522 15.6719 9.60522C17.0949 9.60522 18.2493 10.7572 18.2493 12.1772C18.2493 13.5972 17.0949 14.7492 15.6719 14.7492C14.2479 14.7492 13.0945 13.5972 13.0945 12.1772ZM15.6729 11.0082C15.0255 11.0082 14.5014 11.5312 14.5014 12.1772C14.5014 12.8232 15.0255 13.3462 15.6729 13.3462C16.3203 13.3462 16.8444 12.8232 16.8444 12.1772C16.8444 11.5312 16.3193 11.0082 15.6729 11.0082Z" fill="white"/>
<path d="M2.04524 10.1789C2.97419 5.58185 7.0427 2.12085 11.9229 2.12085C17.4886 2.12085 22 6.62285 22 12.1769C22 15.6639 19.1671 18.4909 15.6728 18.4909C13.9041 18.4909 12.3047 17.7669 11.1573 16.5989C11.1022 16.6129 11.0451 16.6199 10.986 16.6199H3.67064C3.54237 16.6199 3.44016 16.7239 3.43615 16.8458L4.74188 20.0508C4.77896 20.1418 4.80602 20.2388 4.82005 20.2878L4.82506 20.3069C4.86214 20.4368 5.00744 20.5089 5.13671 20.4578L7.02366 19.7108C7.38441 19.5679 7.79327 19.7438 7.93657 20.1038C8.07987 20.4639 7.9035 20.8719 7.54275 21.0149L5.6558 21.7628C4.74489 22.1229 3.73979 21.6129 3.47523 20.6959L3.46321 20.6539C3.44918 20.6049 3.44617 20.5928 3.44016 20.5798L2.13443 17.3748C2.09835 17.2848 2.04825 17.1458 2.03522 16.9758C1.96407 16.0388 2.70562 15.2169 3.67164 15.2169H10.1272C9.9568 14.9068 9.81049 14.5819 9.69325 14.2429C9.40564 13.4129 8.78835 12.8778 8.17507 12.8778H4.42522C3.05034 12.8778 1.73459 11.7228 2.04624 10.1789H2.04524ZM11.9229 3.52385C7.72513 3.52385 4.2228 6.50185 3.42312 10.4558C3.32592 10.9378 3.72776 11.4748 4.42322 11.4748H8.17306C9.63011 11.4748 10.6312 12.6608 11.02 13.7838C11.6874 15.7078 13.5193 17.0879 15.6718 17.0879C18.3894 17.0879 20.5931 14.8889 20.5931 12.1769C20.5931 7.39785 16.7119 3.52385 11.9229 3.52385Z" fill="white"/>
</svg>
