<svg width="24" height="24" viewBox="0 0 24 24" fill="none" xmlns="http://www.w3.org/2000/svg">
<path fill-rule="evenodd" clip-rule="evenodd" d="M18.322 2.01656C16.981 1.95196 15.3118 2.0728 13.9846 2.6723C13.3114 2.97635 12.687 3.42147 12.2576 4.06663C12.1815 4.18099 12.1128 4.29975 12.0517 4.42285C11.0966 3.11143 9.21861 1.88164 8.16015 2.49275C7.00706 3.15848 7.25971 5.75896 8.07471 7.20585C7.97993 7.19425 7.88626 7.18415 7.79417 7.17542C6.88174 7.08896 5.9325 7.8012 6.05137 8.87807C6.11613 9.46469 6.31105 10.1342 6.76186 10.6886C7.2302 11.2646 7.92598 11.6547 8.85556 11.7302C9.28743 11.7652 9.72867 11.6841 10.1265 11.521V13.2819H5.92492C4.83276 13.2819 3.9938 14.2492 4.14826 15.3304L4.755 19.5776C4.95348 20.967 6.1434 21.999 7.54689 21.999H14.2445C15.648 21.999 16.8379 20.967 17.0364 19.5776L17.6431 15.3304C17.7976 14.2492 16.9586 13.2819 15.8665 13.2819H11.6649V9.63991C11.6649 9.35086 11.8052 8.99891 12.0782 8.69267C12.2438 8.50692 12.4321 8.36729 12.6183 8.27834C12.9925 8.6403 13.458 8.91023 13.9686 9.05276C14.9169 9.31746 15.7754 9.30509 16.5334 9.0483C17.2881 8.7926 17.8839 8.31474 18.3442 7.74446C19.2473 6.62561 19.6821 5.08871 19.8544 3.82717C19.9856 2.86698 19.2475 2.06114 18.322 2.01656ZM5.67111 15.1129C5.64904 14.9584 5.76889 14.8202 5.92492 14.8202H15.8665C16.0225 14.8202 16.1424 14.9584 16.1203 15.1129L16.0156 15.8458H5.77581L5.67111 15.1129ZM13.2518 6.3023C13.1895 5.68414 13.3204 5.24636 13.5383 4.91889C13.7638 4.58007 14.1247 4.29695 14.6178 4.07423C15.623 3.6202 17.0091 3.49341 18.248 3.55309C18.2867 3.55495 18.3086 3.57051 18.3195 3.58319C18.3253 3.58984 18.3281 3.59577 18.3294 3.60009C18.3305 3.60365 18.3316 3.60921 18.3303 3.61901C18.1751 4.75544 17.7976 5.97244 17.1472 6.77826C16.8307 7.17031 16.4644 7.44747 16.0398 7.59134C15.6183 7.73412 15.08 7.76587 14.3822 7.57108C13.7549 7.39597 13.3091 6.87092 13.2518 6.3023ZM7.95542 9.71813C7.75028 9.46584 7.62659 9.11391 7.5816 8.71997C7.59293 8.71282 7.61548 8.70369 7.64906 8.70687C8.19245 8.75836 8.74933 8.86125 9.20929 9.02589C9.68974 9.19787 9.95201 9.39696 10.0586 9.56368C10.0901 9.61288 10.0856 9.62996 10.0822 9.64268L10.0816 9.64494C10.0728 9.67985 10.0358 9.76147 9.9223 9.86463C9.6834 10.0818 9.29573 10.2225 8.98002 10.1969C8.44568 10.1535 8.14487 9.95113 7.95542 9.71813ZM6.27785 19.3601L5.99557 17.3841H15.7958L15.5136 19.3601C15.4233 19.9916 14.8825 20.4607 14.2445 20.4607H7.54689C6.90894 20.4607 6.36807 19.9916 6.27785 19.3601ZM10.9175 7.29888C11.4808 6.97366 11.5564 6.05002 11.0864 5.23587C10.6163 4.42173 9.47587 3.50101 8.91257 3.82623C8.34927 4.15146 8.57642 5.59945 9.04646 6.4136C9.51651 7.22775 10.3542 7.6241 10.9175 7.29888Z" fill="white"/>
</svg>
