<svg width="24" height="24" viewBox="0 0 24 24" fill="none" xmlns="http://www.w3.org/2000/svg">
<path fill-rule="evenodd" clip-rule="evenodd" d="M13.8138 14.9308C13.9768 15.3908 14.1039 15.8632 14.1939 16.3439C14.4283 17.5967 14.7167 20.5973 13.019 20.9541C12.0235 21.1633 11.1128 20.7929 10.6338 19.8948C9.93316 18.5814 9.75569 15.9543 8.5183 15.0053C8.40209 14.9162 8.26143 14.8661 8.1174 14.8396C5.51602 14.36 3.82129 12.3364 3.82129 9.41952C3.82129 3.90911 10.1795 2.66306 14.5575 3.05544C15.721 3.05544 16.7055 3.9827 16.7055 5.16315C16.7055 5.37155 16.6723 5.58245 16.6109 5.78605C17.333 6.12045 17.834 6.85155 17.834 7.69965C17.834 7.90475 17.8057 8.13025 17.7448 8.35515C18.3893 8.71575 18.7515 9.40495 18.7515 10.1959C18.7515 10.3136 18.7105 10.4343 18.6693 10.5556C18.6474 10.62 18.6254 10.6847 18.6095 10.749H18.6787C19.7954 11.0849 20.1787 11.6591 20.1787 12.8231C20.1787 13.9871 19.2351 14.9308 18.071 14.9308L13.8138 14.9308ZM12.7105 19.4862C11.2956 19.9937 12.007 16.0352 9.40208 13.7407C9.12874 13.5564 8.67709 13.3897 8.35397 13.3242C6.54272 12.9573 5.40107 11.5364 5.40107 9.41952C5.40107 5.08047 11.0499 4.2091 14.4467 4.55165C14.8193 4.5889 15.2055 4.69577 15.2055 5.16315C15.2055 5.37885 14.9279 5.73805 14.9279 5.73805C14.667 5.93025 14.559 6.26825 14.6601 6.57605C14.7612 6.88385 15.0486 7.09195 15.3727 7.09195C15.7976 7.09195 16.334 7.13278 16.334 7.69965C16.334 7.97205 16.2157 8.20045 16.1399 8.26415C15.8987 8.46705 15.81 8.79905 15.918 9.09515C16.0259 9.39115 16.3075 9.58825 16.6226 9.58825C16.984 9.58825 17.325 9.79299 17.325 10.1959C17.325 10.4969 16.9995 10.7681 16.867 10.8402C16.5657 11.0041 16.414 11.3515 16.4985 11.6839C16.5831 12.0163 16.8824 12.249 17.2254 12.249L18.071 12.2154C18.4066 12.2154 18.6787 12.4875 18.6787 12.8231C18.6787 13.1587 18.4066 13.4308 18.071 13.4308L12.7105 13.3991C12.4332 13.3975 12.2303 13.6195 12.3034 13.887C12.9739 16.3439 13.3448 19.2586 12.7105 19.4862Z" fill="white"/>
</svg>
