<svg width="24" height="24" viewBox="0 0 24 24" fill="none" xmlns="http://www.w3.org/2000/svg">
<path d="M17.257 21.97H10.767C10.358 21.97 10.018 21.63 10.018 21.221C10.018 20.812 10.358 20.472 10.767 20.472H17.257C19.044 20.472 20.502 19.014 20.502 17.227V6.743C20.502 4.956 19.044 3.498 17.257 3.498H6.73909C4.95209 3.498 3.49409 4.956 3.49409 6.743V10.238C3.49409 10.647 3.15409 10.987 2.74509 10.987C2.33609 10.987 1.99609 10.647 1.99609 10.238V6.743C1.99609 4.127 4.12309 2 6.73909 2H17.257C19.873 2 22 4.127 22 6.743V17.227C22 19.843 19.873 21.97 17.257 21.97Z" fill="white"/>
<path d="M9.23509 14.012H2.74509C2.33609 14.012 1.99609 14.352 1.99609 14.761C1.99609 15.17 2.33609 15.51 2.74509 15.51H5.24109V21.251C5.24109 21.66 5.58109 22 5.99009 22C6.39909 22 6.73909 21.66 6.73909 21.251V15.51H9.23509C9.64409 15.51 9.98409 15.17 9.98409 14.761C9.98409 14.352 9.64409 14.012 9.23509 14.012Z" fill="white"/>
<path d="M12.015 7.005C12.015 6.195 12.952 5.715 13.645 6.169L17.049 8.403C17.659 8.804 17.659 9.673 17.049 10.074L13.645 12.308C12.952 12.763 12.015 12.282 12.015 11.472V7.005Z" fill="white"/>
</svg>
