<svg width="24" height="24" viewBox="0 0 24 24" fill="none" xmlns="http://www.w3.org/2000/svg">
<path d="M13.75 8.5C13.3358 8.5 13 8.16421 13 7.75C13 7.33579 13.3358 7 13.75 7H17.7C18.1143 7 18.45 7.33579 18.45 7.75C18.45 8.16421 18.1143 8.5 17.7 8.5H13.75Z" fill="white"/>
<path d="M13.75 11.25C13.3358 11.25 13 10.9142 13 10.5C13 10.0858 13.3358 9.75 13.75 9.75H17.7C18.1143 9.75 18.45 10.0858 18.45 10.5C18.45 10.9142 18.1143 11.25 17.7 11.25H13.75Z" fill="white"/>
<path d="M13 13.25C13 13.6642 13.3358 14 13.75 14H17.7C18.1143 14 18.45 13.6642 18.45 13.25C18.45 12.8358 18.1143 12.5 17.7 12.5H13.75C13.3358 12.5 13 12.8358 13 13.25Z" fill="white"/>
<path fill-rule="evenodd" clip-rule="evenodd" d="M5 7.35046C5 6.79818 5.44772 6.35046 6 6.35046H10C10.5523 6.35046 11 6.79818 11 7.35046V13.6496C11 14.2018 10.5523 14.6496 10 14.6496H6C5.44772 14.6496 5 14.2018 5 13.6496V7.35046ZM6.5 8.05046C6.5 7.94001 6.58954 7.85046 6.7 7.85046H9.3C9.41046 7.85046 9.5 7.94001 9.5 8.05046V12.9496C9.5 13.06 9.41046 13.1496 9.3 13.1496H6.7C6.58954 13.1496 6.5 13.06 6.5 12.9496V8.05046Z" fill="white"/>
<path fill-rule="evenodd" clip-rule="evenodd" d="M12 2C12.4142 2 12.75 2.33579 12.75 2.75V3.5H17.5V2.75C17.5 2.33579 17.8358 2 18.25 2C18.6642 2 19 2.33579 19 2.75V3.5H21C21.5523 3.5 22 3.94772 22 4.5V16.5C22 17.0523 21.5523 17.5 21 17.5H19V21.25C19 21.6642 18.6642 22 18.25 22C17.8358 22 17.5 21.6642 17.5 21.25V17.5H6.5V21.25C6.5 21.6642 6.16421 22 5.75 22C5.33579 22 5 21.6642 5 21.25V17.5H3C2.44772 17.5 2 17.0523 2 16.5V4.5C2 3.94772 2.44772 3.5 3 3.5H5V2.75C5 2.33579 5.33579 2 5.75 2C6.16421 2 6.5 2.33579 6.5 2.75V3.5H11.25V2.75C11.25 2.33579 11.5858 2 12 2ZM3.7 5C3.58954 5 3.5 5.08954 3.5 5.2V15.8C3.5 15.9105 3.58954 16 3.7 16H20.3C20.4105 16 20.5 15.9105 20.5 15.8V5.2C20.5 5.08954 20.4105 5 20.3 5H3.7Z" fill="white"/>
</svg>
