<svg width="24" height="24" viewBox="0 0 24 24" fill="none" xmlns="http://www.w3.org/2000/svg">
<path d="M4.83972 15.512C5.00507 15.1359 5.44404 14.965 5.82017 15.1304L10.8409 17.3376C11.5815 17.6632 12.4185 17.6632 13.159 17.3376L18.1798 15.1304C18.556 14.965 18.9949 15.1359 19.1603 15.512C19.3256 15.8882 19.1548 16.3271 18.7786 16.4925L13.7579 18.6997C12.6357 19.193 11.3643 19.193 10.2421 18.6997L5.22136 16.4925C4.84523 16.3271 4.67436 15.8882 4.83972 15.512Z" fill="white"/>
<path fill-rule="evenodd" clip-rule="evenodd" d="M21.256 19.0697C21.6669 19.0697 22 18.7366 22 18.3258L22 10.4198C21.9994 9.74046 21.6899 8.91319 20.891 8.55208L13.7009 5.30185C12.6053 4.80661 11.3947 4.80661 10.2991 5.30185L3.10899 8.55208C2.30938 8.91353 2 9.742 2 10.4217C2 11.1014 2.30937 11.9299 3.10899 12.2914L10.2991 15.5416C11.3947 16.0368 12.6053 16.0368 13.7009 15.5416L20.5121 12.4626V18.3258C20.5121 18.7366 20.8452 19.0697 21.256 19.0697ZM13.088 6.65767C12.382 6.33855 11.618 6.33855 10.912 6.65767L3.72187 9.9079C3.62511 9.95164 3.48791 10.1136 3.48791 10.4217C3.48791 10.7299 3.62511 10.8918 3.72187 10.9355L10.912 14.1858C11.618 14.5049 12.382 14.5049 13.088 14.1858L20.2781 10.9355C20.3749 10.8918 20.5121 10.7299 20.5121 10.4217C20.5121 10.1136 20.3749 9.95164 20.2781 9.9079L13.088 6.65767Z" fill="white"/>
</svg>
