<svg width="24" height="24" viewBox="0 0 24 24" fill="none" xmlns="http://www.w3.org/2000/svg">
<path d="M6.06966 18.5633C6.10932 19.0845 5.71782 19.55 5.19523 19.6029C4.67264 19.6558 4.21684 19.2762 4.17718 18.7549C4.13752 18.2337 4.52901 17.7682 5.05161 17.7153C5.5742 17.6624 6.03 18.042 6.06966 18.5633Z" fill="white"/>
<path d="M20.8185 16.9283C20.8582 17.4495 20.4667 17.915 19.9441 17.9679C19.4215 18.0209 18.9657 17.6412 18.926 17.12C18.8864 16.5987 19.2779 16.1333 19.8005 16.0804C20.3231 16.0274 20.7789 16.4071 20.8185 16.9283Z" fill="white"/>
<path d="M17.926 3.09079C17.9657 3.61203 17.5742 4.07749 17.0516 4.13042C16.529 4.18335 16.0732 3.80371 16.0336 3.28247C15.9939 2.76123 16.3854 2.29577 16.908 2.24284C17.4306 2.18991 17.8864 2.56955 17.926 3.09079Z" fill="white"/>
<path d="M15.5809 21.052C15.6029 21.3413 15.3856 21.5997 15.0955 21.6291C14.8055 21.6584 14.5525 21.4477 14.5305 21.1584C14.5084 20.8691 14.7257 20.6107 15.0158 20.5814C15.3059 20.552 15.5588 20.7627 15.5809 21.052Z" fill="white"/>
<path fill-rule="evenodd" clip-rule="evenodd" d="M12.0672 3.92221C11.7371 3.80041 11.5355 3.84357 11.3404 4.01909C11.2035 4.14215 11.1351 4.3054 11.1669 4.65035C11.1961 4.96737 11.2961 5.30565 11.4188 5.72103C11.446 5.81312 11.4744 5.909 11.5033 6.00927C11.6407 6.4855 11.8161 7.13487 11.699 7.73674C11.6346 8.06736 11.4832 8.38892 11.2081 8.65856C10.9406 8.92078 10.5956 9.09538 10.202 9.20759C9.49351 9.40953 8.78594 9.13351 8.25457 8.85442C7.79792 8.61458 7.32054 8.28704 6.89307 7.99375C6.80267 7.93172 6.71449 7.87122 6.62922 7.81341C6.09912 7.45403 5.68314 7.19977 5.35512 7.09726C5.20184 7.04935 5.12343 7.05363 5.09394 7.05941L5.0926 7.05966C5.08085 7.06188 5.05652 7.06648 5.01066 7.12215C4.96179 7.18147 4.94062 7.22277 4.93162 7.2452C4.92337 7.26575 4.92335 7.27508 4.92334 7.27767C4.92333 7.28067 4.9232 7.32861 4.99856 7.43638C5.17097 7.68293 5.54079 7.97265 6.08355 8.32344C6.24117 8.42532 6.41689 8.53429 6.59835 8.64683C6.97085 8.87783 7.36752 9.12384 7.68145 9.35416C7.92415 9.53223 8.17117 9.73754 8.36298 9.97008C8.55167 10.1989 8.74636 10.5263 8.74636 10.9349C8.74636 11.4013 8.53548 11.7735 8.27315 12.0488C8.0215 12.3129 7.69809 12.516 7.3831 12.6791C6.9177 12.9202 6.33374 13.139 5.79223 13.3419C5.61761 13.4073 5.4474 13.4711 5.28701 13.5334C4.56556 13.8138 4.02127 14.0711 3.71382 14.3544C3.57375 14.4835 3.52463 14.5814 3.50787 14.6491C3.4931 14.7088 3.48417 14.82 3.57269 15.0206C3.57401 15.0236 3.57526 15.0263 3.57644 15.0289C3.59588 15.03 3.62597 15.0301 3.66947 15.026C3.90586 15.0037 4.20246 14.9039 4.64543 14.755C4.71736 14.7308 4.79315 14.7053 4.87316 14.6786C5.86226 14.349 7.45556 13.8514 8.82606 14.9639C9.17853 15.25 9.42114 15.5912 9.54868 15.98C9.67394 16.3618 9.67187 16.7393 9.61687 17.0787C9.52799 17.6271 9.27263 18.1929 9.0743 18.6323C9.04275 18.7022 9.01264 18.769 8.98488 18.8319C8.87274 19.0861 8.78785 19.296 8.73688 19.4797C8.68553 19.6648 8.68426 19.7706 8.694 19.8264C8.69976 19.8594 8.70998 19.8938 8.77352 19.9477C8.85394 20.0159 9.02679 20.1174 9.37468 20.2102C9.68774 20.2938 9.81575 20.2547 9.84867 20.2405C9.86935 20.2316 9.92149 20.2054 9.98509 20.0632C10.0542 19.9089 10.109 19.6753 10.1426 19.3469C10.1755 19.0244 10.1839 18.6577 10.1858 18.2548C10.1863 18.1474 10.1862 18.0363 10.1861 17.9226C10.1857 17.23 10.1852 16.4395 10.3136 15.7975C10.3901 15.4149 10.526 15.0008 10.7974 14.6624C11.091 14.2962 11.5051 14.0672 12.0163 14.0243C12.2779 14.0024 12.5393 14.0254 12.7882 14.1197C13.0416 14.2157 13.2391 14.3694 13.3925 14.546C13.6548 14.848 13.8081 15.2524 13.9206 15.5488C13.9253 15.5612 13.9299 15.5734 13.9344 15.5854L13.9392 15.5979C14.1904 16.2586 14.4523 16.9477 15.2353 17.5564C15.3863 17.6738 15.6146 17.7154 15.8941 17.6172C16.1789 17.5172 16.4243 17.2982 16.538 17.0438C16.538 17.0438 16.5703 17.0354 16.492 16.9096C16.3912 16.7477 16.1982 16.5543 15.8957 16.2875C15.8428 16.2408 15.786 16.1915 15.7268 16.1401C15.4847 15.9297 15.2016 15.6836 14.9662 15.4314C14.6735 15.1178 14.3538 14.6942 14.2598 14.1613C14.1341 13.4496 14.3517 12.8171 14.8477 12.3868C15.3059 11.9891 15.922 11.8311 16.511 11.8213C18.0872 11.7953 19.1123 11.5421 19.7307 11.2388C20.3538 10.9333 20.4797 10.6277 20.4976 10.5072C20.5136 10.3994 20.4746 10.2385 20.2533 10.0933C20.0321 9.94831 19.6406 9.8439 19.1135 9.96793C18.8787 10.0232 18.4765 10.1574 17.9399 10.3376L17.9291 10.3413C17.4154 10.5139 16.811 10.717 16.2209 10.8868C15.6346 11.0556 15.02 11.2045 14.4969 11.2509C14.2371 11.2739 13.9566 11.276 13.6951 11.2205C13.4369 11.1656 13.1037 11.0328 12.8837 10.708C12.6729 10.3969 12.645 10.0522 12.6646 9.78379C12.6843 9.51417 12.7577 9.23956 12.8392 8.99083C12.9223 8.73751 13.0283 8.46889 13.1326 8.20877C13.1488 8.16847 13.1649 8.1283 13.181 8.08821C13.2718 7.86245 13.3616 7.63925 13.4458 7.41114C13.6468 6.86667 13.7852 6.37296 13.7977 5.94229C13.8095 5.53734 13.7106 5.22439 13.4573 4.96253C12.9238 4.41104 12.4489 4.06307 12.0672 3.92221ZM12.5864 2.51496C13.2823 2.77174 13.9456 3.30987 14.5354 3.91962C15.1324 4.53678 15.3176 5.2766 15.2971 5.98575C15.2773 6.66917 15.067 7.35087 14.8529 7.93071C14.7606 8.18077 14.6618 8.4265 14.5712 8.65166C14.5555 8.6908 14.54 8.72932 14.5248 8.76714C14.4196 9.02954 14.3306 9.25663 14.2646 9.45813C14.2231 9.58464 14.1958 9.686 14.1794 9.76608C14.2307 9.76585 14.292 9.76314 14.3645 9.75672C14.739 9.72353 15.2408 9.60811 15.8059 9.4454C16.3632 9.28495 16.9407 9.09094 17.4621 8.91576L17.4988 8.90345C17.9866 8.73952 18.457 8.58143 18.7699 8.50781C19.6395 8.30321 20.4638 8.4376 21.0759 8.83901C21.6878 9.24031 22.0993 9.9334 21.9814 10.7275C21.8653 11.509 21.2729 12.1532 20.3912 12.5856C19.5049 13.0202 18.2389 13.293 16.5358 13.3211C16.1669 13.3272 15.9372 13.4273 15.8308 13.5197C15.7832 13.561 15.7574 13.6019 15.7427 13.6456C15.7276 13.6907 15.7139 13.7703 15.7369 13.9006C15.7549 14.0026 15.8351 14.1641 16.0627 14.4079C16.2393 14.5971 16.4441 14.7754 16.6787 14.9796C16.746 15.0382 16.8158 15.0989 16.888 15.1626C17.1794 15.4197 17.5334 15.7443 17.7653 16.1167C18.0197 16.5252 18.1704 17.0675 17.9075 17.6558C17.6109 18.3194 17.0293 18.8084 16.3912 19.0325C15.7479 19.2584 14.9575 19.2404 14.3146 18.7406C13.1978 17.8723 12.8095 16.8489 12.5519 16.17C12.5453 16.1526 12.5388 16.1354 12.5323 16.1184C12.3909 15.7463 12.323 15.6022 12.26 15.5296C12.2566 15.5258 12.2541 15.523 12.2523 15.5212C12.2404 15.5186 12.2071 15.5136 12.1416 15.5191C12.0378 15.5278 12.0025 15.5573 11.9677 15.6007C11.9106 15.6719 11.8391 15.8184 11.7844 16.0916C11.6879 16.5744 11.6873 17.1884 11.6866 17.8967C11.6865 18.0158 11.6863 18.1376 11.6858 18.2618C11.6838 18.671 11.6757 19.0996 11.6348 19.4995C11.5945 19.8935 11.5182 20.3095 11.3543 20.6759C11.1849 21.0544 10.9022 21.4201 10.4416 21.6183C9.99323 21.8113 9.49355 21.7944 8.98792 21.6595C8.04559 21.408 7.36266 20.9226 7.21634 20.0843C7.15317 19.7224 7.20978 19.3732 7.29148 19.0787C7.37356 18.7828 7.49689 18.4885 7.61249 18.2265C7.64876 18.1442 7.68408 18.0652 7.71816 17.9888C7.92204 17.5323 8.08172 17.1748 8.1362 16.8387C8.1645 16.6641 8.15399 16.5408 8.12341 16.4476C8.09512 16.3613 8.03452 16.2533 7.88074 16.1285C7.21555 15.5886 6.41371 15.7463 5.34744 16.1017C5.28405 16.1228 5.2181 16.1452 5.15019 16.1683C4.73082 16.311 4.23687 16.4791 3.81032 16.5194C3.54282 16.5446 3.22018 16.5312 2.90838 16.3819C2.57806 16.2238 2.34533 15.9547 2.20036 15.6262C2.00481 15.183 1.9425 14.7302 2.05183 14.2886C2.15916 13.8551 2.4116 13.5147 2.69732 13.2514C3.24143 12.75 4.04561 12.4065 4.74366 12.1353C4.95069 12.0548 5.15078 11.9798 5.34284 11.9077C5.85742 11.7148 6.31443 11.5434 6.69322 11.3472C6.94604 11.2162 7.10173 11.1038 7.18723 11.014C7.20949 10.9907 7.22367 10.9723 7.23254 10.959C7.22565 10.9494 7.21688 10.9379 7.2058 10.9245C7.12986 10.8324 6.9976 10.7129 6.79412 10.5636C6.52425 10.3656 6.22035 10.1775 5.88384 9.96936C5.68977 9.84929 5.48484 9.72251 5.26935 9.58323C4.74176 9.24225 4.13083 8.81299 3.7693 8.29598C3.57784 8.02219 3.42228 7.67714 3.42335 7.27371C3.42444 6.86122 3.58886 6.48892 3.85295 6.16837C4.10666 5.8604 4.43086 5.66084 4.80539 5.58742C5.16162 5.51759 5.50603 5.57287 5.80258 5.66555C6.37424 5.84421 6.96598 6.2295 7.47095 6.57185C7.57302 6.64105 7.67273 6.70934 7.77036 6.77622C8.19555 7.06747 8.5814 7.33177 8.95206 7.52645C9.4297 7.77732 9.67773 7.79727 9.79076 7.76505C10.0174 7.70044 10.1169 7.62777 10.1581 7.58735C10.1918 7.55436 10.2134 7.51791 10.2266 7.45024C10.2645 7.25552 10.2127 6.94713 10.0621 6.42506C10.0413 6.35308 10.0185 6.27655 9.99458 6.19642C9.87048 5.7804 9.7174 5.26723 9.67323 4.78806C9.61663 4.17423 9.72025 3.45878 10.3373 2.90382C11.0233 2.28677 11.8389 2.23912 12.5864 2.51496ZM7.25573 10.9966L7.25509 10.9951ZM14.16 9.94255L14.1603 9.9447Z" fill="white"/>
</svg>
