<svg width="24" height="24" viewBox="0 0 24 24" fill="none" xmlns="http://www.w3.org/2000/svg">
<path d="M12.9669 4.27671C12.8047 3.84185 12.4814 3.6239 11.998 3.6239C11.5135 3.6239 11.1913 3.84081 11.0291 4.27671L9.38469 8.7565C9.26411 9.04014 9.03826 9.266 8.75461 9.38658L4.27585 11.0331C3.84099 11.1942 3.62305 11.5165 3.62305 12.0009C3.62305 12.4854 3.83996 12.8076 4.27585 12.9698L8.75461 14.6132C8.8943 14.6735 9.01858 14.7646 9.1182 14.8797C9.23182 14.9768 9.31962 15.0976 9.38469 15.2433L11.0312 19.722C11.1923 20.1569 11.5146 20.3748 11.999 20.3748C12.4835 20.3748 12.8057 20.1579 12.9679 19.722L14.6134 15.2433C14.7341 14.9597 14.9599 14.7339 15.2434 14.6132L19.7222 12.9667C20.1571 12.8056 20.375 12.4833 20.375 11.9988C20.375 11.5144 20.1581 11.1921 19.7222 11.03L15.2414 9.38658C15.1011 9.32496 14.9706 9.24318 14.854 9.14384C14.7547 9.02721 14.6729 8.89672 14.6113 8.7565L12.9648 4.27774L12.9669 4.27671ZM11.998 6.14217L13.16 9.31324C13.3046 9.65204 13.5071 9.95779 13.7653 10.2325C14.0401 10.4908 14.3458 10.6922 14.6846 10.8378L17.8567 11.9999L14.6857 13.1619C14.0016 13.4575 13.4562 14.0033 13.1611 14.6875L11.999 17.8586L10.837 14.6875C10.6916 14.3481 10.477 14.0428 10.2069 13.791C9.9553 13.5214 9.65031 13.3071 9.31136 13.1619L6.13925 11.9999L9.31032 10.8378C9.9948 10.5424 10.5406 9.99669 10.836 9.31221L11.998 6.14217Z" fill="white"/>
<path d="M2.05127 21.5539C2.08738 21.6425 2.14124 21.7227 2.20953 21.7897C2.2765 21.858 2.35674 21.9118 2.44531 21.9479C2.53388 21.9841 2.6289 22.0017 2.72453 21.9997C2.82401 22.0031 2.92314 21.9862 3.01584 21.9499C3.10853 21.9136 3.19282 21.8587 3.26353 21.7887L5.28153 19.7987C5.42153 19.6417 5.49153 19.4617 5.49153 19.2587C5.49153 19.0557 5.42153 18.8757 5.28153 18.7187C5.12453 18.5787 4.94453 18.5087 4.74153 18.5087C4.54149 18.5075 4.34859 18.583 4.20253 18.7197L2.20953 20.7347C2.13952 20.8056 2.08478 20.8901 2.04866 20.983C2.01254 21.0758 1.99582 21.1751 1.99953 21.2747C1.99755 21.3703 2.01515 21.4653 2.05127 21.5539Z" fill="white"/>
<path d="M21.2508 22.0007C21.0478 22.0007 20.8758 21.9297 20.7358 21.7897L18.7188 19.7987C18.5788 19.6417 18.5088 19.4617 18.5088 19.2587C18.5071 19.0584 18.5823 18.8652 18.7188 18.7187C18.8653 18.5821 19.0586 18.507 19.2588 18.5087C19.4589 18.5075 19.6518 18.583 19.7978 18.7197L21.7908 20.7347C21.8608 20.8056 21.9156 20.8901 21.9517 20.983C21.9878 21.0758 22.0045 21.1751 22.0008 21.2747C22.003 21.3705 21.9855 21.4657 21.9494 21.5545C21.9132 21.6432 21.8593 21.7236 21.7908 21.7907C21.7199 21.8607 21.6354 21.9154 21.5425 21.9516C21.4497 21.9877 21.3504 22.0044 21.2508 22.0007Z" fill="white"/>
<path d="M21.7898 2.21034C21.7191 2.14028 21.6348 2.08542 21.5421 2.04913C21.4494 2.01285 21.3503 1.9959 21.2508 1.99934C21.1552 1.99735 21.0602 2.01496 20.9716 2.05108C20.883 2.08719 20.8028 2.14105 20.7358 2.20934L18.7188 4.20334C18.5827 4.3493 18.5076 4.54178 18.5088 4.74134C18.5088 4.94434 18.5788 5.12434 18.7188 5.28134C18.8758 5.42134 19.0558 5.49134 19.2588 5.49134C19.4618 5.49134 19.6418 5.42134 19.7988 5.28134L21.7898 3.26434C21.8583 3.19745 21.9123 3.11725 21.9486 3.02867C21.9849 2.9401 22.0027 2.84504 22.0008 2.74934C22.0045 2.64976 21.9878 2.55048 21.9517 2.45761C21.9156 2.36474 21.8608 2.28025 21.7908 2.20934L21.7898 2.21034Z" fill="white"/>
<path d="M3.26353 2.21141L5.28053 4.20241C5.42053 4.35841 5.49153 4.53841 5.49153 4.74141C5.49153 4.94441 5.42153 5.12441 5.28153 5.28141C5.13506 5.41797 4.94178 5.49313 4.74153 5.49141C4.54128 5.49313 4.348 5.41797 4.20153 5.28141L2.21053 3.26441C2.14206 3.19752 2.08802 3.11732 2.05173 3.02874C2.01544 2.94017 1.99767 2.84511 1.99953 2.74941C1.99582 2.64983 2.01254 2.55055 2.04866 2.45768C2.08478 2.36481 2.13952 2.28032 2.20953 2.20941C2.35053 2.06941 2.52253 1.99941 2.72553 1.99941C2.8251 1.9957 2.92439 2.01242 3.01725 2.04854C3.11012 2.08465 3.19462 2.1394 3.26553 2.20941L3.26353 2.21141Z" fill="white"/>
</svg>
