<svg width="24" height="24" viewBox="0 0 24 24" fill="none" xmlns="http://www.w3.org/2000/svg">
<path d="M11.3122 11.8321L2.89781 10.1221C2.66169 10.0741 2.44757 9.95108 2.28749 9.77008C2.1164 9.58408 2.01735 9.34308 2.00734 9.09008C1.99134 8.84008 2.05337 8.61408 2.19444 8.41108C2.33552 8.20808 2.53062 8.06708 2.78075 7.98908L20.546 2.06208C20.7411 1.98408 20.9562 1.97608 21.1563 2.03908C21.3594 2.08608 21.5385 2.17908 21.6956 2.32008C21.8337 2.47308 21.9307 2.65908 21.9757 2.86008C22.0208 3.06108 22.0138 3.27108 21.9537 3.46808L16.0236 21.2241C15.9646 21.4541 15.8225 21.6541 15.6244 21.7871C15.4373 21.9271 15.2182 21.9971 14.9681 21.9971H14.9211C14.6679 21.9871 14.4278 21.8881 14.2407 21.7171C14.0606 21.5571 13.9376 21.3431 13.8895 21.1071L12.1796 12.6971C12.1356 12.4841 12.0286 12.2881 11.8735 12.1351C11.7204 11.9801 11.5243 11.8741 11.3112 11.8301L11.3122 11.8321ZM20.2889 3.72608L4.63271 8.95108L11.6183 10.3561C12.1336 10.4661 12.5718 10.7081 12.93 11.0831C13.3052 11.4431 13.5474 11.8801 13.6574 12.3941L15.0631 19.3761L20.2889 3.72608Z" fill="white"/>
</svg>
