<svg width="24" height="24" viewBox="0 0 24 24" fill="none" xmlns="http://www.w3.org/2000/svg">
<path d="M4.90376 5.099C3.97176 5.821 3.42676 6.933 3.42676 8.111V17.241C3.42676 19.345 5.13276 21.051 7.23676 21.051H13.1158C13.5108 21.051 13.8298 20.731 13.8298 20.337C13.8298 19.943 13.5098 19.623 13.1158 19.623H7.23676C5.92176 19.623 4.85576 18.557 4.85576 17.242V9.383H8.18976C9.63676 9.383 10.8098 8.21 10.8098 6.763V3.429H16.7638C18.0788 3.429 19.1448 4.495 19.1448 5.81V11.739C19.1448 12.134 19.4648 12.453 19.8588 12.453C20.2528 12.453 20.5728 12.133 20.5728 11.739V5.81C20.5728 3.706 18.8668 2 16.7628 2H10.2078C9.36276 2 8.54176 2.281 7.87476 2.798L4.90476 5.099H4.90376ZM4.86076 7.953C4.90576 7.276 5.23776 6.647 5.77876 6.228L8.74876 3.927C8.94176 3.778 9.15476 3.66 9.37976 3.576V6.762C9.37976 7.42 8.84676 7.953 8.18876 7.953H4.86076Z" fill="white"/>
<path d="M16.9708 14.146C17.1138 14.003 17.3018 13.934 17.4888 13.937C17.6758 13.934 17.8638 14.004 18.0058 14.146L20.3638 16.504C20.6428 16.783 20.6428 17.235 20.3638 17.514C20.0848 17.793 19.6328 17.793 19.3538 17.514L18.2038 16.364V21.286C18.2038 21.681 17.8838 22 17.4898 22C17.0958 22 16.7758 21.68 16.7758 21.286V16.364L15.6258 17.514C15.3468 17.793 14.8948 17.793 14.6158 17.514C14.3368 17.235 14.3368 16.783 14.6158 16.504L16.9738 14.146H16.9708Z" fill="white"/>
</svg>
