<svg width="24" height="24" viewBox="0 0 24 24" fill="none" xmlns="http://www.w3.org/2000/svg">
<path d="M8.09078 9.838C7.66578 9.838 7.32178 10.182 7.32178 10.607C7.32178 11.032 7.66578 11.376 8.09078 11.376H15.9748C16.3998 11.376 16.7438 11.032 16.7438 10.607C16.7438 10.182 16.3998 9.838 15.9748 9.838H8.09078Z" fill="white"/>
<path d="M8.31278 14.055C8.31278 13.63 8.65678 13.286 9.08178 13.286H14.9178C15.3428 13.286 15.6868 13.63 15.6868 14.055C15.6868 14.48 15.3428 14.824 14.9178 14.824H9.08178C8.65678 14.824 8.31278 14.48 8.31278 14.055Z" fill="white"/>
<path d="M8.09078 16.735C7.66578 16.735 7.32178 17.079 7.32178 17.504C7.32178 17.929 7.66578 18.273 8.09078 18.273H15.9748C16.3998 18.273 16.7438 17.929 16.7438 17.504C16.7438 17.079 16.3998 16.735 15.9748 16.735H8.09078Z" fill="white"/>
<path d="M8.92278 2C6.23178 2 4.05078 4.181 4.05078 6.872V17.128C4.05078 19.819 6.23178 22 8.92278 22H15.0768C17.7678 22 19.9488 19.819 19.9488 17.128V6.872C19.9488 4.181 17.7678 2 15.0768 2H8.92278ZM5.58978 6.872C5.58978 5.031 7.08178 3.539 8.92278 3.539H15.0768C16.9178 3.539 18.4098 5.031 18.4098 6.872V17.128C18.4098 18.969 16.9178 20.461 15.0768 20.461H8.92278C7.08178 20.461 5.58978 18.969 5.58978 17.128V6.872Z" fill="white"/>
</svg>
