<svg width="24" height="24" viewBox="0 0 24 24" fill="none" xmlns="http://www.w3.org/2000/svg">
<path d="M8.71293 2.55405C9.22993 2.37605 9.75993 2.23905 10.2989 2.14405C10.8629 2.04805 11.4339 2.00005 12.0059 2.00005C13.3449 1.99205 14.6709 2.26205 15.8999 2.79305C17.0899 3.28705 18.1689 4.01505 19.0719 4.93405C19.9899 5.83805 20.7179 6.91705 21.2109 8.10705C21.7419 9.33605 22.0119 10.6621 22.0039 12.0011V13.8761C22.0039 14.7101 21.7069 15.423 21.1149 16.015C20.8439 16.295 20.5179 16.5161 20.1589 16.6641C19.7999 16.812 19.4129 16.886 19.0229 16.88H18.6919C18.6079 17.184 18.5029 17.4801 18.3749 17.7681C18.0379 18.5951 17.5389 19.3461 16.9089 19.9791C16.2759 20.6091 15.5249 21.1081 14.6979 21.4461C13.8639 21.8151 12.9669 21.9991 12.0059 21.9991C11.0439 21.9991 10.1469 21.8141 9.31393 21.4451C8.48693 21.1081 7.73593 20.6091 7.10293 19.9791C6.47293 19.3461 5.97393 18.5951 5.63593 17.7681C5.50893 17.4791 5.40393 17.1811 5.31993 16.8781H4.98593C4.59193 16.8811 4.20093 16.8051 3.83593 16.6551C3.47093 16.5051 3.14093 16.2831 2.86293 16.0031C2.58493 15.7231 2.36593 15.3901 2.21893 15.0241C2.07193 14.6581 1.99893 14.2671 2.00493 13.8721V11.9981C2.00893 10.8781 2.19593 9.76605 2.55893 8.70605C2.58493 8.60905 2.63293 8.51905 2.69993 8.44405C2.76693 8.36905 2.84993 8.31005 2.94293 8.27205C3.03493 8.22505 3.13493 8.19605 3.23893 8.18805C3.34293 8.18005 3.44593 8.19205 3.54393 8.22405C3.73693 8.30405 3.87993 8.44005 3.97693 8.63305C4.02493 8.72005 4.05293 8.81705 4.06193 8.91605C4.07093 9.01505 4.05793 9.11505 4.02493 9.20905C3.86393 9.64605 3.74293 10.0971 3.66393 10.5561C3.58293 11.0321 3.54293 11.5151 3.54393 11.9981V13.8731C3.54393 14.2731 3.67993 14.6191 3.95193 14.9071C4.24093 15.1951 4.58593 15.3401 4.98593 15.3401H5.08593C5.08293 15.2521 5.08193 15.1641 5.08293 15.0751V13.4171C5.08293 13.0961 5.19593 12.8241 5.41893 12.6001C5.64393 12.3751 5.91493 12.2641 6.23593 12.2641H17.7739C18.0949 12.2641 18.3669 12.3771 18.5909 12.6001C18.8159 12.8251 18.9269 13.0961 18.9269 13.4171V15.0751C18.9269 15.1641 18.9249 15.253 18.9219 15.3411H19.0229C19.4229 15.3411 19.7589 15.1971 20.0319 14.9081C20.3199 14.6201 20.4649 14.2751 20.4649 13.8741V11.9981C20.4649 10.8291 20.2399 9.73105 19.7919 8.70605C19.3719 7.69905 18.7599 6.78405 17.9889 6.01305C17.2179 5.24205 16.3029 4.63005 15.2969 4.21005C14.2709 3.76205 13.1739 3.53705 12.0039 3.53705C11.5079 3.53705 11.0269 3.57805 10.5619 3.65705C10.1029 3.73605 9.65193 3.85605 9.21493 4.01805C9.11693 4.05005 9.01293 4.06205 8.90993 4.05405C8.80693 4.04605 8.70593 4.01705 8.61393 3.97005C8.43893 3.87505 8.30293 3.72205 8.22893 3.53705C8.16493 3.34005 8.17293 3.12705 8.25393 2.93605C8.29893 2.84305 8.36193 2.76105 8.44093 2.69505C8.51993 2.62905 8.61093 2.58005 8.70993 2.55205L8.71093 2.55305L8.71293 2.55405ZM12.0049 20.4621C12.7419 20.4621 13.4389 20.3181 14.0969 20.0291C14.7399 19.7671 15.3249 19.3791 15.8159 18.8881C16.3069 18.3971 16.6949 17.8121 16.9559 17.1691C17.2439 16.5131 17.3889 15.8151 17.3889 15.0781V13.8041H6.61993V15.0781C6.61993 15.8151 6.76393 16.5121 7.05293 17.1701C7.32593 17.8261 7.70193 18.4031 8.18193 18.9001C8.68193 19.3831 9.26993 19.7661 9.91293 20.0291C10.5689 20.3171 11.2669 20.4621 12.0039 20.4621H12.0049Z" fill="white"/>
<path d="M2.00393 5.60505C2.00393 5.74905 2.07593 5.83705 2.21893 5.87005L4.40693 6.61605C4.44293 6.63505 4.47493 6.65905 4.50293 6.68805C4.54693 6.71605 4.58093 6.75805 4.59793 6.80805L5.31993 8.97205C5.36693 9.11605 5.46493 9.18705 5.60793 9.18705C5.75093 9.18705 5.83993 9.11505 5.87293 8.97205L6.61893 6.80805C6.63293 6.76305 6.65793 6.72105 6.69093 6.68705C6.72493 6.65405 6.76593 6.62905 6.81093 6.61505L8.97493 5.87005C9.11893 5.83705 9.18993 5.74905 9.18993 5.60405C9.18993 5.45905 9.11793 5.36405 8.97493 5.31705L6.81093 4.59505C6.76193 4.58005 6.72293 4.55505 6.68993 4.52305C6.65893 4.47505 6.63493 4.43505 6.61793 4.40305L5.87293 2.21505C5.83993 2.07105 5.75193 2.00005 5.60693 2.00005C5.46193 2.00005 5.36693 2.07205 5.31993 2.21505L4.59893 4.40205C4.55293 4.48205 4.48693 4.54905 4.40593 4.59505L2.21793 5.31705C2.07393 5.36405 2.00293 5.46205 2.00293 5.60505H2.00393Z" fill="white"/>
</svg>
