<svg width="24" height="24" viewBox="0 0 24 24" fill="none" xmlns="http://www.w3.org/2000/svg">
<path d="M11.3116 12.6877C11.6028 12.3933 11.6002 11.9184 11.3056 11.6272C11.011 11.3359 10.5362 11.3386 10.245 11.6333L9.57806 12.3076C9.2868 12.6023 9.28949 13.0771 9.58405 13.3684C9.8786 13.6596 10.3535 13.6569 10.6447 13.3623L11.3116 12.6877Z" fill="white"/>
<path d="M13.9995 2.33443C14.7148 1.53707 16.0137 2.27047 15.7001 3.29488L14.4898 7.2485L16.0409 6.67818L19.9768 7.56368C20.7998 7.78976 20.9795 8.87667 20.2731 9.35568L18.186 10.2878L21.5043 12.1831C21.8758 12.3952 22.0517 12.8357 21.9285 13.2453C21.8052 13.6547 21.4155 13.9253 20.9886 13.8972L20.324 13.8535L21.8645 16.0891C22.0995 16.4301 22.0136 16.8972 21.6725 17.132C21.3315 17.3672 20.8644 17.2812 20.6294 16.9401L18.4162 13.7285L16.8461 13.6255L17.792 14.6731C18.322 15.26 17.993 16.2009 17.2126 16.3298L15.3115 16.6435C15.7428 17.0239 16.1393 17.4934 16.4078 18.0346C16.6685 18.56 16.816 19.1706 16.7314 19.8305C16.6467 20.4924 16.3362 21.1411 15.7852 21.7522C15.5079 22.0598 15.0336 22.0842 14.726 21.8068C14.4184 21.5295 14.3939 21.0554 14.6712 20.7475C15.0527 20.3247 15.2038 19.9509 15.2437 19.6399C15.2838 19.3264 15.2189 19.0131 15.0641 18.7011C14.7621 18.0922 14.15 17.5598 13.5879 17.2536C12.7753 18.1079 11.7342 18.2929 11.0345 18.2485L7.79749 21.3283C7.40472 21.7021 6.78577 21.6948 6.40198 21.312L5.12433 20.0376C4.66272 19.5771 4.87073 18.7898 5.49951 18.6174C5.49951 18.6174 5.53937 18.5996 5.6178 18.5354C5.70966 18.4604 5.82239 18.3481 5.95331 18.1955C6.21509 17.8903 6.50299 17.479 6.79022 17.0222L6.86523 16.9018C6.93347 16.7915 7.00085 16.6799 7.06696 16.5683C6.55103 16.7697 6.03186 16.9641 5.57397 17.1355C5.15869 17.2907 4.79382 17.4275 4.52734 17.5334L3.67523 18.3134C3.03369 18.9008 2 18.4455 2 17.5759V14.9189C2 14.5522 2.26489 14.2395 2.62646 14.1792C3.73761 13.9936 6.70068 12.6477 8.40173 8.65133L8.46387 8.50533L13.9995 2.33443ZM18.5252 12.2089L15.9097 10.7151C15.6526 10.5683 15.6385 10.2028 15.8835 10.0368L18.5337 8.72286L16.2237 8.11031C16.1433 8.08834 16.0579 8.092 15.9797 8.12081L13.9254 9.05416C13.8448 9.15157 13.754 9.24239 13.6569 9.32638C13.5099 9.45309 13.3486 9.56442 13.1863 9.65939C12.8101 9.87985 12.3542 10.0583 11.863 10.163C11.1295 10.3191 10.2589 10.3203 9.43622 9.98922C7.73071 13.4182 5.13806 14.9985 3.5 15.5063V16.4401L3.71307 16.2451L3.83655 16.1945C4.11542 16.0803 4.57422 15.9082 5.08826 15.7155L5.12402 15.7024L5.19478 15.6758C5.60685 15.521 6.04881 15.355 6.45746 15.196C6.6969 15.1027 6.92816 15.0109 7.14307 14.9228C7.37427 14.8281 7.58649 14.7375 7.76953 14.654C8.18719 14.4633 8.46808 14.5444 8.75439 14.727C9.18262 14.9997 9.31378 15.5898 9.07776 16.0393C8.80011 16.5683 8.44238 17.2126 8.06006 17.8205C7.72205 18.3581 7.362 18.8923 6.92651 19.3569L7.38794 19.7265L10.6411 16.6584L10.9821 16.7329C11.3304 16.809 12.2536 16.7617 12.7985 15.8166L12.9758 15.509L16.0652 14.999L13.9158 12.6184C13.6751 12.3518 13.8805 11.9277 14.2389 11.9511L18.4732 12.2292C18.4904 12.2219 18.5077 12.2151 18.5252 12.2089ZM12.7499 8.12081L13.9254 4.20162L10.4289 8.72189C10.7955 8.79025 11.1801 8.77486 11.5505 8.69576C11.8925 8.62301 12.1968 8.50069 12.4279 8.3652C12.519 8.31173 12.59 8.26144 12.6443 8.21774C12.6914 8.17989 12.7259 8.14693 12.7499 8.12081Z" fill="white"/>
</svg>
