<svg width="24" height="24" viewBox="0 0 24 24" fill="none" xmlns="http://www.w3.org/2000/svg">
<path d="M16.3328 2.84202L19.4478 5.25402C19.9328 5.62902 20.3068 6.09702 20.5718 6.65902C20.8528 7.20602 20.9938 7.79102 20.9938 8.41602V17.994C20.9938 19.103 20.6038 20.047 19.8228 20.828C19.0418 21.609 18.0978 21.999 16.9888 21.999H7.01281C5.90381 21.999 4.95981 21.609 4.17881 20.828C3.39781 20.047 3.00781 19.102 3.00781 17.994V6.00402C3.00781 4.89502 3.39781 3.95102 4.17881 3.17002C4.95981 2.38902 5.90381 1.99902 7.01281 1.99902H13.8738C14.3268 1.99902 14.7558 2.07702 15.1628 2.23402C15.5828 2.37402 15.9738 2.57702 16.3318 2.84302L16.3328 2.84202ZM7.01181 20.5H16.9878C17.6898 20.5 18.2838 20.258 18.7678 19.774C19.2528 19.274 19.4938 18.682 19.4938 17.994V9.75102H16.0048C15.6428 9.75602 15.2828 9.69002 14.9458 9.55402C14.6088 9.41802 14.3038 9.21702 14.0468 8.96202C13.7898 8.70702 13.5858 8.40302 13.4468 8.06802C13.3088 7.73302 13.2388 7.37402 13.2408 7.01102V3.49802H7.01181C6.30981 3.49802 5.71581 3.74802 5.23181 4.24702C4.99681 4.47502 4.81181 4.74802 4.68681 5.05002C4.56181 5.35202 4.49981 5.67702 4.50581 6.00402V17.994C4.50581 18.681 4.74781 19.274 5.23181 19.774C5.71581 20.259 6.30981 20.5 7.01181 20.5ZM18.5338 6.44802L15.4188 4.03602C15.3128 3.96102 15.2038 3.89102 15.0908 3.82602C14.9778 3.76102 14.8608 3.70702 14.7388 3.66102V7.01002C14.7388 7.35402 14.8638 7.65002 15.1138 7.89902C15.3638 8.13402 15.6608 8.25102 16.0028 8.25102H19.4928C19.4638 7.89802 19.3598 7.55402 19.1878 7.24402C19.0328 6.93202 18.8088 6.66002 18.5338 6.44802Z" fill="white"/>
</svg>
