<svg width="24" height="24" viewBox="0 0 24 24" fill="none" xmlns="http://www.w3.org/2000/svg">
<path d="M2.74012 3.33008C2.32912 3.33008 1.99712 3.66308 1.99712 4.07308C1.99712 4.48308 2.33012 4.81608 2.74012 4.81608H14.6393C15.0503 4.81608 15.3823 4.48308 15.3823 4.07308C15.3823 3.66308 15.0493 3.33008 14.6393 3.33008H2.74012Z" fill="white"/>
<path d="M2.74012 7.29308C2.32912 7.29308 1.99712 7.62608 1.99712 8.03608C1.99712 8.44608 2.33012 8.77908 2.74012 8.77908H13.9283C14.3393 8.77908 14.6713 8.44608 14.6713 8.03608C14.6713 7.62608 14.3383 7.29308 13.9283 7.29308H2.74012Z" fill="white"/>
<path d="M1.99614 12.0009C1.99614 11.5899 2.32914 11.2579 2.73914 11.2579H13.2373C13.6483 11.2579 13.9803 11.5909 13.9803 12.0009C13.9803 12.4109 13.6473 12.7439 13.2373 12.7439H2.73914C2.32814 12.7439 1.99614 12.4109 1.99614 12.0009Z" fill="white"/>
<path d="M2.74012 15.2208C2.32912 15.2208 1.99712 15.5538 1.99712 15.9638C1.99712 16.3738 2.33012 16.7068 2.74012 16.7068H12.5503C12.9613 16.7068 13.2933 16.3738 13.2933 15.9638C13.2933 15.5538 12.9603 15.2208 12.5503 15.2208H2.74012Z" fill="white"/>
<path d="M1.99614 19.9267C1.99614 19.5157 2.32914 19.1837 2.73914 19.1837H11.8283C12.2393 19.1837 12.5713 19.5167 12.5713 19.9267C12.5713 20.3367 12.2383 20.6697 11.8283 20.6697H2.73914C2.32814 20.6697 1.99614 20.3367 1.99614 19.9267Z" fill="white"/>
<path d="M18.454 4.07234C18.043 4.07234 17.711 4.40534 17.711 4.81534V17.4143L16.177 15.8803C15.887 15.5903 15.416 15.5903 15.126 15.8803C14.836 16.1703 14.836 16.6413 15.126 16.9313L17.928 19.7333C17.964 19.7693 18.003 19.8013 18.045 19.8283C18.334 20.0183 18.726 19.9873 18.98 19.7333L21.782 16.9313C22.072 16.6413 22.072 16.1703 21.782 15.8803C21.492 15.5903 21.021 15.5903 20.731 15.8803L19.197 17.4143V4.81534C19.197 4.40434 18.864 4.07234 18.454 4.07234Z" fill="white"/>
</svg>
