<svg width="24" height="24" viewBox="0 0 24 24" fill="none" xmlns="http://www.w3.org/2000/svg">
<path d="M6.76089 5.9943C5.85436 5.9943 5.0799 6.3143 4.43953 6.9553C4.13676 7.25556 3.89762 7.6137 3.73637 8.00835C3.57512 8.40299 3.49506 8.82606 3.50098 9.2523V17.2443C3.50098 18.1503 3.81416 18.9243 4.43953 19.5643C5.0799 20.1893 5.85436 20.5023 6.76089 20.5023H14.7576C15.6481 20.5023 16.4146 20.1893 17.0559 19.5643C17.6963 18.9243 18.0165 18.1503 18.0165 17.2443V13.2603C18.0131 13.1606 18.0301 13.0612 18.0666 12.9683C18.1031 12.8755 18.1582 12.791 18.2286 12.7203C18.2995 12.6504 18.3838 12.5957 18.4766 12.5596C18.5693 12.5235 18.6685 12.5067 18.7679 12.5103C18.9711 12.5103 19.1432 12.5803 19.2832 12.7203C19.4403 12.8613 19.5184 13.0413 19.5184 13.2603V17.2443C19.5184 17.9003 19.3933 18.5183 19.1432 19.0963C18.6589 20.2359 17.751 21.1433 16.6107 21.6273C16.0255 21.8787 15.3946 22.0064 14.7576 22.0023H6.76089C6.12393 22.0064 5.49301 21.8787 4.9078 21.6273C4.34301 21.3862 3.82669 21.0447 3.38391 20.6193C2.95832 20.1768 2.61659 19.6607 2.37531 19.0963C2.12377 18.5114 1.99602 17.8809 2.00009 17.2443V9.2523C2.00009 8.5963 2.12517 7.9793 2.37531 7.4003C2.85984 6.26105 3.76769 5.35409 4.9078 4.8703C5.49294 4.61856 6.12386 4.49054 6.76089 4.4943H10.7472C10.9664 4.4943 11.1465 4.5723 11.2876 4.7293C11.4276 4.8693 11.4977 5.0413 11.4977 5.2443C11.5014 5.34388 11.4847 5.44316 11.4485 5.53603C11.4124 5.6289 11.3576 5.71339 11.2876 5.7843C11.2166 5.85431 11.1321 5.90905 11.0391 5.94517C10.9462 5.98128 10.8469 5.998 10.7472 5.9943H6.76089Z" fill="white"/>
<path d="M15.8551 3.49982C15.7556 3.50338 15.6565 3.4866 15.5637 3.45048C15.471 3.41437 15.3866 3.3597 15.3158 3.28982C15.1791 3.14334 15.1039 2.95006 15.1056 2.74982C15.1056 2.54682 15.1757 2.37482 15.3158 2.23382C15.3831 2.15757 15.4665 2.09709 15.5598 2.05665C15.6532 2.0162 15.7544 1.9968 15.8561 1.99982H21.9997V8.13982C22.0027 8.24148 21.9833 8.34257 21.9428 8.43589C21.9024 8.52922 21.8418 8.61249 21.7656 8.67982C21.6984 8.74823 21.618 8.80216 21.5292 8.83828C21.4404 8.87439 21.3451 8.89194 21.2493 8.88982C21.0489 8.89154 20.8555 8.81638 20.7089 8.67982C20.6389 8.6089 20.5841 8.52441 20.548 8.43154C20.5118 8.33867 20.4951 8.23939 20.4988 8.13982V4.55582L12.7843 12.2898C12.6379 12.4267 12.4445 12.5023 12.244 12.5008C12.0436 12.5025 11.8502 12.4274 11.7036 12.2908C11.567 12.1443 11.4918 11.9511 11.4935 11.7508C11.4935 11.5478 11.5636 11.3678 11.7036 11.2108L19.4432 3.50082H15.8561L15.8551 3.49982Z" fill="white"/>
</svg>
