<svg width="24" height="24" viewBox="0 0 24 24" fill="none" xmlns="http://www.w3.org/2000/svg">
<path d="M11.9988 6.005C11.9028 6.005 11.8088 5.989 11.7178 5.958C11.6268 5.913 11.5398 5.858 11.4598 5.794C11.3958 5.714 11.3408 5.628 11.2958 5.536C11.2648 5.446 11.2488 5.351 11.2488 5.255V2.749C11.2488 2.655 11.2648 2.562 11.2958 2.468C11.3378 2.382 11.3928 2.303 11.4598 2.234C11.5318 2.16 11.6198 2.104 11.7178 2.07C11.8048 2.025 11.9008 2.001 11.9988 2C12.0928 2 12.1868 2.023 12.2798 2.07C12.3738 2.1 12.4598 2.155 12.5378 2.234C12.6008 2.296 12.6478 2.374 12.6778 2.468C12.7258 2.562 12.7488 2.655 12.7488 2.749V5.255C12.7478 5.353 12.7238 5.449 12.6788 5.536C12.6478 5.63 12.6008 5.717 12.5388 5.794C12.4588 5.858 12.3718 5.913 12.2798 5.958C12.1898 5.989 12.0948 6.005 11.9988 6.005Z" fill="white"/>
<path d="M6.93977 7.948C7.03077 7.979 7.12577 7.995 7.22177 7.995C7.32477 7.996 7.42777 7.98 7.52577 7.948C7.61677 7.904 7.69677 7.84 7.76077 7.761C7.83777 7.701 7.89477 7.619 7.92477 7.526C7.98577 7.336 7.98577 7.131 7.92477 6.94C7.89377 6.846 7.83877 6.769 7.76077 6.706L6.00377 4.926C5.97277 4.895 5.93377 4.871 5.88677 4.856C5.83977 4.824 5.79977 4.793 5.76977 4.762C5.71677 4.745 5.66177 4.737 5.60577 4.738C5.51477 4.707 5.41577 4.707 5.32377 4.738C5.27577 4.738 5.22777 4.746 5.18277 4.762L5.04277 4.856C5.01177 4.871 4.97277 4.895 4.92577 4.926L4.83177 5.067C4.81577 5.098 4.79277 5.137 4.76177 5.184L4.71477 5.325V5.629L4.76177 5.77C4.79377 5.803 4.81777 5.843 4.83177 5.887C4.85877 5.929 4.89077 5.968 4.92577 6.004L6.70577 7.784C6.77477 7.851 6.85377 7.906 6.93977 7.948Z" fill="white"/>
<path d="M16.4958 12C16.6358 12 16.7538 12.055 16.8478 12.164C16.8918 12.205 16.9258 12.257 16.9468 12.314C16.9678 12.371 16.9738 12.432 16.9648 12.492C16.9328 12.9 16.8468 13.301 16.7068 13.686C16.5668 14.077 16.3788 14.443 16.1438 14.787C15.8758 15.196 15.5438 15.56 15.1608 15.864C14.7878 16.175 14.3688 16.428 13.9198 16.613C12.9988 16.982 11.9908 17.079 11.0158 16.894C10.5328 16.801 10.0668 16.635 9.63377 16.402C9.20777 16.165 8.81377 15.874 8.46277 15.536C8.12477 15.184 7.83377 14.791 7.59677 14.365C7.36377 13.932 7.19877 13.466 7.10477 12.983C6.91877 12.008 7.01677 11.001 7.38577 10.079C7.57077 9.63 7.82377 9.211 8.13477 8.838C8.44677 8.448 8.80577 8.12 9.21177 7.855C9.55577 7.62 9.92077 7.433 10.3118 7.292C10.7028 7.152 11.1008 7.066 11.5068 7.034C11.5668 7.026 11.6278 7.032 11.6848 7.052C11.7418 7.072 11.7928 7.106 11.8348 7.15C11.9448 7.244 11.9988 7.361 11.9988 7.502V9.001C11.9988 9.828 12.2888 10.54 12.8648 11.132C13.1438 11.412 13.4768 11.633 13.8428 11.782C14.2088 11.931 14.6008 12.005 14.9968 11.999H16.4958V12ZM14.9028 13.944C14.9498 13.866 14.9968 13.796 15.0428 13.734C15.0908 13.655 15.1298 13.577 15.1608 13.499H14.9968C13.7478 13.499 12.6858 13.061 11.8108 12.187C10.9378 11.314 10.4998 10.251 10.4998 9.002V8.838C10.4218 8.869 10.3438 8.908 10.2658 8.955C10.1978 9.005 10.1278 9.052 10.0548 9.095C9.77277 9.283 9.51977 9.512 9.30577 9.774C9.08477 10.044 8.90277 10.343 8.76577 10.664C8.63977 10.98 8.55377 11.31 8.50877 11.647C8.47777 11.991 8.50077 12.334 8.57877 12.678C8.64177 13.021 8.75077 13.349 8.90677 13.661C9.07877 13.958 9.28177 14.231 9.51677 14.48C9.76677 14.715 10.0398 14.918 10.3358 15.09C10.6478 15.246 10.9758 15.355 11.3188 15.418C11.6628 15.496 12.0058 15.519 12.3498 15.488C12.6868 15.443 13.0168 15.356 13.3328 15.23C13.6608 15.09 13.9578 14.91 14.2218 14.691C14.4878 14.473 14.7148 14.223 14.9008 13.942L14.9028 13.944Z" fill="white"/>
<path d="M2.74777 12.75H5.25377C5.34977 12.75 5.44377 12.734 5.53477 12.703C5.62877 12.656 5.71477 12.602 5.79277 12.539C5.85477 12.462 5.90177 12.375 5.93277 12.281C5.97777 12.194 6.00277 12.098 6.00377 12C6.00277 11.902 5.97877 11.806 5.93377 11.719C5.90277 11.625 5.85577 11.538 5.79377 11.461C5.71677 11.399 5.62877 11.352 5.53477 11.321C5.44777 11.276 5.35177 11.251 5.25377 11.25H2.74777C2.64977 11.251 2.55377 11.275 2.46677 11.32C2.37877 11.348 2.29877 11.396 2.23277 11.46C2.15677 11.536 2.09277 11.623 2.04477 11.719C1.98377 11.901 1.98377 12.098 2.04477 12.281C2.09277 12.377 2.15677 12.464 2.23277 12.539C2.29477 12.602 2.37277 12.656 2.46677 12.703C2.55677 12.734 2.65177 12.75 2.74777 12.75Z" fill="white"/>
<path d="M5.32477 19.285H5.46477L5.46377 19.284H5.60577L5.74577 19.237C5.84177 19.2 5.92977 19.144 6.00377 19.073L7.85477 17.199L7.94877 17.058C7.99177 16.993 8.01677 16.917 8.02077 16.839C8.02477 16.761 8.00777 16.683 7.97177 16.613C7.97177 16.565 7.96277 16.518 7.94777 16.473C7.91077 16.377 7.85477 16.289 7.78377 16.215C7.70977 16.144 7.62177 16.088 7.52577 16.051C7.47977 16.035 7.43277 16.027 7.38577 16.027C7.28677 15.997 7.18077 15.997 7.08077 16.027C7.03277 16.027 6.98477 16.036 6.93977 16.051L6.92077 16.064C6.88077 16.091 6.84077 16.118 6.79977 16.144L6.70577 16.238L4.92577 17.995C4.86277 18.073 4.80877 18.159 4.76177 18.253C4.70077 18.435 4.70077 18.632 4.76177 18.815C4.80677 18.907 4.86177 18.993 4.92577 19.073C4.96777 19.1 5.00777 19.132 5.04377 19.167C5.09377 19.184 5.14077 19.208 5.18377 19.237L5.32477 19.285Z" fill="white"/>
<path d="M11.4608 21.766C11.5388 21.845 11.6248 21.907 11.7188 21.954C11.9008 22.015 12.0978 22.015 12.2808 21.954C12.3768 21.906 12.4638 21.842 12.5388 21.766C12.6028 21.7 12.6508 21.62 12.6788 21.532C12.7238 21.445 12.7488 21.349 12.7498 21.251V18.745C12.7488 18.647 12.7248 18.551 12.6798 18.464C12.6488 18.37 12.6018 18.283 12.5398 18.206C12.4628 18.144 12.3748 18.097 12.2808 18.066C12.1938 18.021 12.0978 17.996 11.9998 17.995C11.9018 17.996 11.8058 18.02 11.7188 18.065C11.6248 18.096 11.5378 18.143 11.4608 18.205C11.3968 18.285 11.3428 18.372 11.2968 18.464C11.2658 18.554 11.2498 18.649 11.2498 18.745V21.251C11.2498 21.345 11.2658 21.438 11.2968 21.532C11.3388 21.618 11.3938 21.697 11.4608 21.766Z" fill="white"/>
<path d="M18.3928 19.284H18.6738C18.7238 19.267 18.7708 19.243 18.8138 19.214C18.8538 19.201 18.8928 19.185 18.9308 19.167C18.9818 19.133 19.0298 19.094 19.0728 19.05C19.1368 18.984 19.1848 18.903 19.2128 18.815C19.2578 18.728 19.2818 18.632 19.2828 18.534C19.2828 18.425 19.2598 18.323 19.2118 18.229C19.1818 18.135 19.1348 18.058 19.0718 17.995L17.2918 16.238C17.2558 16.203 17.2168 16.172 17.1748 16.144C17.1388 16.109 17.0988 16.078 17.0568 16.051C16.9918 16.008 16.9158 15.983 16.8378 15.979C16.7598 15.975 16.6818 15.991 16.6118 16.027C16.5638 16.027 16.5168 16.036 16.4718 16.051C16.3758 16.088 16.2878 16.143 16.2138 16.215C16.1428 16.289 16.0868 16.377 16.0498 16.473L16.0028 16.614V16.918L16.0498 17.059L16.0628 17.078C16.0898 17.118 16.1168 17.158 16.1428 17.199L16.2368 17.293L17.9938 19.073C18.0358 19.1 18.0758 19.132 18.1118 19.167C18.1618 19.184 18.2088 19.208 18.2518 19.237L18.3928 19.284Z" fill="white"/>
<path d="M18.7438 12.75H21.2498C21.3458 12.75 21.4398 12.734 21.5308 12.703C21.6168 12.661 21.6958 12.606 21.7648 12.539C21.8388 12.467 21.8958 12.379 21.9298 12.281C21.9748 12.194 21.9988 12.098 21.9998 12C21.9988 11.902 21.9748 11.806 21.9298 11.719C21.8958 11.621 21.8398 11.533 21.7648 11.461C21.6988 11.397 21.6188 11.349 21.5308 11.321C21.4438 11.276 21.3478 11.251 21.2498 11.25H18.7438C18.6458 11.251 18.5498 11.275 18.4628 11.32C18.3688 11.351 18.2818 11.398 18.2048 11.46C18.1408 11.54 18.0858 11.627 18.0408 11.719C17.9798 11.901 17.9798 12.098 18.0408 12.281C18.0878 12.375 18.1418 12.461 18.2048 12.539C18.2828 12.602 18.3688 12.656 18.4628 12.703C18.5528 12.734 18.6478 12.75 18.7438 12.75Z" fill="white"/>
<path d="M16.4728 7.948C16.5708 7.98 16.6738 7.996 16.7768 7.995H16.9178C16.9678 7.978 17.0148 7.955 17.0588 7.925C17.1028 7.911 17.1428 7.887 17.1758 7.855C17.2178 7.828 17.2568 7.796 17.2928 7.761L19.0728 6.004C19.1048 5.971 19.1288 5.931 19.1428 5.887C19.1698 5.845 19.2018 5.805 19.2368 5.769C19.2518 5.724 19.2608 5.677 19.2608 5.629C19.2748 5.575 19.2828 5.52 19.2838 5.464C19.2838 5.416 19.2758 5.369 19.2608 5.324C19.2608 5.276 19.2518 5.229 19.2368 5.184C19.2058 5.136 19.1748 5.098 19.1428 5.066C19.1258 5.016 19.1028 4.969 19.0728 4.926C19.0258 4.895 18.9788 4.871 18.9318 4.856C18.8958 4.821 18.8568 4.79 18.8148 4.762C18.7678 4.746 18.7218 4.738 18.6738 4.738C18.6278 4.723 18.5808 4.715 18.5338 4.715C18.4788 4.716 18.4238 4.724 18.3698 4.738C18.3218 4.738 18.2738 4.746 18.2288 4.762C18.1928 4.797 18.1538 4.828 18.1118 4.856C18.0678 4.87 18.0278 4.894 17.9948 4.926L16.2378 6.73C16.1618 6.79 16.1048 6.871 16.0738 6.964C16.0128 7.154 16.0128 7.359 16.0738 7.55C16.1118 7.638 16.1678 7.718 16.2378 7.784C16.3078 7.85 16.3858 7.906 16.4728 7.948Z" fill="white"/>
</svg>
