<svg width="24" height="24" viewBox="0 0 24 24" fill="none" xmlns="http://www.w3.org/2000/svg">
<path d="M4.66699 2C5.8373 2 7.34524 2.00034 8.82227 2.00098L11.085 2.00195C12.1012 2.0024 13.079 2.38979 13.8203 3.08496L16.7314 5.81445C17.5377 6.57061 17.9946 7.62611 17.9951 8.73145L17.9961 10.1201C17.9962 10.5344 17.6604 10.8701 17.2461 10.8701C16.8322 10.87 16.4965 10.5349 16.4961 10.1211V8.95215H13.0098C11.3065 8.95215 9.85765 7.63206 9.85645 5.92285L9.84375 3.50195L8.82129 3.50098C7.34448 3.50034 5.83702 3.5 4.66699 3.5C4.18387 3.5 3.5 4.0006 3.5 5V19C3.5 19.9994 4.18387 20.5 4.66699 20.5H15.333C15.8161 20.5 16.5 19.9994 16.5 19V18.749C16.5 18.3348 16.8357 17.999 17.25 17.999C17.664 17.999 17.9997 18.3341 18 18.748V19C18 20.6569 16.8058 22 15.333 22H4.66699C3.19423 22 2 20.6569 2 19V5C2 3.34315 3.19423 2 4.66699 2ZM11.3564 5.9209C11.3564 6.72975 12.0593 7.45215 13.0098 7.45215H16.1426C16.0241 7.2536 15.8771 7.07048 15.7051 6.90918L12.7949 4.17871C12.395 3.80366 11.8846 3.57221 11.3438 3.51562L11.3564 5.9209Z" fill="white"/>
<path d="M8.32812 11.5156C9.04052 11.5157 9.65424 11.7748 10.0781 12.2754C10.3041 12.5426 10.1769 12.9313 9.875 13.1084C9.5216 13.3154 9.0786 13.1004 8.7002 12.9434C8.59163 12.8983 8.47021 12.875 8.33594 12.875C7.98406 12.875 7.81649 13.0432 7.81641 13.2432C7.81641 13.4912 8.01637 13.6276 8.77637 13.8516C9.64025 14.1075 10.5596 14.4277 10.5596 15.6035C10.5595 16.7154 9.69556 17.3555 8.43164 17.3555C7.49607 17.3554 6.82116 17.0188 6.4248 16.4883C6.21776 16.2111 6.36113 15.8371 6.66016 15.6631C7.03485 15.4451 7.5018 15.6611 7.88477 15.8643C8.04704 15.9504 8.24127 15.9951 8.47168 15.9951C8.97568 15.9951 9.12793 15.8111 9.12793 15.6191C9.1278 15.2993 8.75973 15.2029 8.04785 15.0029C7.16795 14.7469 6.38379 14.2989 6.38379 13.251C6.38397 12.2032 7.24024 11.5156 8.32812 11.5156Z" fill="white"/>
<path d="M19.1436 11.5156C19.9273 11.5156 20.6219 11.7973 21.126 12.2461C21.4247 12.5121 21.31 12.9693 20.9629 13.168C20.6384 13.3535 20.2199 13.233 19.8828 13.0713C19.679 12.9735 19.4346 12.9151 19.1602 12.915C18.2802 12.915 17.6485 13.5552 17.6484 14.4512C17.6484 15.2672 18.184 15.9951 19.248 15.9951C19.9358 15.9951 20.3441 15.7076 20.5361 15.2598H19.792C19.4519 15.2598 19.1759 14.9836 19.1758 14.6436C19.1758 14.3034 19.4518 14.0273 19.792 14.0273H21.4316C21.7453 14.0273 22 14.282 22 14.5957C21.9998 16.2435 20.8555 17.3555 19.2236 17.3555C17.4558 17.3553 16.2237 16.0672 16.2236 14.4434C16.2236 12.8035 17.4878 11.5159 19.1436 11.5156Z" fill="white"/>
<path d="M14.9883 11.6357C15.4878 11.6359 15.8418 12.1222 15.6885 12.5977L14.415 16.543C14.2816 16.9556 13.8976 17.2353 13.4639 17.2354H13.2158C12.782 17.2354 12.3971 16.9557 12.2637 16.543L10.9902 12.5977C10.8368 12.1225 11.1911 11.6359 11.6904 11.6357C12.0199 11.6357 12.3099 11.8548 12.3994 12.1719L13.3359 15.4912L14.2793 12.1709C14.3693 11.8542 14.6591 11.6357 14.9883 11.6357Z" fill="white"/>
</svg>
