<svg width="24" height="24" viewBox="0 0 24 24" fill="none" xmlns="http://www.w3.org/2000/svg">
<path d="M4.71 4.74902H19.3808V4.77246C20.7879 4.85254 21.9194 5.97852 21.9987 7.38574C22.0007 7.42083 22 7.45591 21.9994 7.49128C21.9991 7.50908 21.9987 7.52695 21.9987 7.54492L22.0002 9.76074C22.0002 10.125 21.5908 10.3711 21.2266 10.3711C20.3268 10.3711 19.5974 11.1006 19.5974 12C19.5974 12.8984 20.3268 13.6279 21.2266 13.6279C21.4081 13.6279 21.6008 13.6895 21.7486 13.7959C21.8971 13.9033 22.0002 14.0566 22.0002 14.2393L21.9987 16.457C21.9987 16.5127 22.0019 16.5684 21.9987 16.624C21.9154 18.0273 20.7853 19.1494 19.3808 19.2295V19.249H4.71V19.2334C3.26351 19.1973 2.08618 18.0566 2.00167 16.624C1.99831 16.5688 2.00094 16.5133 2.00167 16.458L2.0002 14.2393C2.0002 13.875 2.40958 13.6279 2.77377 13.6279C3.67362 13.6279 4.40297 12.8984 4.40297 12C4.40297 11.1006 3.67362 10.3711 2.77377 10.3711C2.40958 10.3711 2.0002 10.125 2.0002 9.76074L2.00167 7.38574C2.07372 5.94043 3.25471 4.78516 4.71 4.74902ZM20.498 7.38574H20.5124V7.26074C20.5124 6.70898 20.0645 6.26074 19.5119 6.26074L16.7621 6.24902L4.48846 6.24219C3.93595 6.24219 3.50239 6.69141 3.50239 7.24316V9.03027C4.85998 9.33594 5.8739 10.5498 5.8739 11.999C5.8739 13.4482 4.85998 14.6621 3.50239 14.9678V16.7607C3.50239 17.3126 3.94461 17.749 4.49652 17.749H19.5039C20.1289 17.749 20.5278 17.2107 20.498 16.624V15.0303L20.4985 14.9678C19.1407 14.6621 18.1265 13.4482 18.1265 11.999C18.1265 10.5498 19.1404 9.33594 20.498 9.03027V7.38574Z" fill="white"/>
<path d="M17.9149 8.63314C18.2078 8.34025 18.2078 7.86537 17.9149 7.57248C17.622 7.27958 17.1471 7.27958 16.8542 7.57247L9.18192 15.2453C8.88903 15.5382 8.88902 16.0131 9.18191 16.306C9.4748 16.5989 9.94968 16.5989 10.2426 16.306L17.9149 8.63314Z" fill="white"/>
<path d="M14.2995 12.935C15.1782 12.0563 16.6028 12.0563 17.4815 12.935C18.3601 13.8137 18.3601 15.2383 17.4815 16.117C16.6028 16.9957 15.1782 16.9957 14.2995 16.117C13.4208 15.2383 13.4208 13.8137 14.2995 12.935ZM16.4208 13.9957C16.1279 13.7028 15.653 13.7028 15.3601 13.9957C15.0673 14.2886 15.0673 14.7634 15.3601 15.0563C15.653 15.3492 16.1279 15.3492 16.4208 15.0563C16.7137 14.7634 16.7137 14.2886 16.4208 13.9957Z" fill="white"/>
<path d="M6.47983 8.50684V9.00684C6.47983 9.42105 6.81562 9.75684 7.22983 9.75684C7.64403 9.75684 7.97983 9.42105 7.97983 9.00684V8.50684C7.97983 8.09263 7.64403 7.75684 7.22983 7.75684C6.81562 7.75684 6.47983 8.09263 6.47983 8.50684Z" fill="white"/>
<path d="M6.47983 12.5068V12.0068C6.47983 11.5926 6.81562 11.2568 7.22983 11.2568C7.64403 11.2568 7.97983 11.5926 7.97983 12.0068V12.5068C7.97983 12.921 7.64403 13.2568 7.22983 13.2568C6.81562 13.2568 6.47983 12.921 6.47983 12.5068Z" fill="white"/>
<path d="M6.47983 15.5068V16.0068C6.47983 16.421 6.81562 16.7568 7.22983 16.7568C7.64403 16.7568 7.97983 16.421 7.97983 16.0068V15.5068C7.97983 15.0926 7.64403 14.7568 7.22983 14.7568C6.81562 14.7568 6.47983 15.0926 6.47983 15.5068Z" fill="white"/>
<path d="M12.8032 7.79088C11.9246 6.9122 10.4999 6.91221 9.62126 7.79088C8.74258 8.66956 8.74258 10.0942 9.62126 10.9729C10.4999 11.8515 11.9246 11.8515 12.8032 10.9729C13.6819 10.0942 13.6819 8.66956 12.8032 7.79088ZM10.6819 8.85154C10.9748 8.55865 11.4497 8.55865 11.7426 8.85154C12.0355 9.14444 12.0355 9.61931 11.7426 9.91221C11.4497 10.2051 10.9748 10.2051 10.6819 9.91221C10.389 9.61931 10.389 9.14444 10.6819 8.85154Z" fill="white"/>
</svg>
