<svg width="24" height="24" viewBox="0 0 24 24" fill="none" xmlns="http://www.w3.org/2000/svg">
<path d="M11.9999 5.21533C16.6249 5.21533 20.409 8.80361 20.7255 13.3481C20.73 13.4129 20.7322 14.0163 20.7353 14.4741C21.1114 14.6538 21.416 14.9288 21.6493 15.2993C21.883 15.6644 21.9998 16.072 21.9999 16.521L21.9911 16.7339C21.9732 16.9436 21.9281 17.1454 21.8564 17.3384C21.7648 17.5887 21.6275 17.8203 21.4521 18.021C21.2847 18.2183 21.0841 18.3833 20.8505 18.5151L20.6689 18.606C20.4841 18.6873 20.2879 18.741 20.0868 18.7661C20.0724 18.7732 20.0572 18.7797 20.0419 18.7847H15.1825L14.957 18.7729C14.736 18.7505 14.5263 18.6949 14.329 18.605C14.1321 18.5187 13.9487 18.4044 13.7851 18.2661L13.6288 18.1196C13.4844 17.9612 13.3607 17.7847 13.2616 17.5952L13.1708 17.4009C13.0565 17.1218 12.9981 16.8226 12.9999 16.521C13 16.3188 13.0242 16.1235 13.0712 15.9351L13.1259 15.7485C13.1931 15.5649 13.2786 15.3938 13.3827 15.2368L13.4941 15.0835C13.6532 14.8881 13.8444 14.7207 14.0595 14.5894C14.2739 14.4522 14.5117 14.355 14.7607 14.3022C14.8382 14.0735 14.9749 13.8693 15.1562 13.7114L15.2362 13.647C15.4636 13.4754 15.7424 13.3836 16.0273 13.3862L16.1171 13.395L16.2118 13.4019C15.9447 11.3861 14.2659 9.81643 12.2011 9.72021L11.9999 9.71533C10.2778 9.71537 8.79548 10.7398 8.12785 12.2124C8.17213 12.2285 8.21638 12.2453 8.25969 12.2642C8.54705 12.3899 8.79982 12.5638 9.01555 12.7856C9.23156 13.0024 9.40479 13.2578 9.52629 13.5386C9.65806 13.832 9.72713 14.1437 9.73332 14.4731C10.1103 14.6528 10.4156 14.9282 10.6493 15.2993C10.883 15.6644 10.9998 16.072 10.9999 16.521L10.9911 16.7339C10.9732 16.9436 10.9281 17.1454 10.8564 17.3384C10.7648 17.5887 10.6275 17.8203 10.4521 18.021C10.2847 18.2183 10.0841 18.3833 9.85051 18.5151L9.66887 18.606C9.48406 18.6873 9.2879 18.741 9.08684 18.7661C9.07236 18.7732 9.05724 18.7797 9.04191 18.7847H4.18254L3.95695 18.7729C3.736 18.7505 3.52631 18.6949 3.32902 18.605C3.13209 18.5187 2.94868 18.4044 2.78508 18.2661L2.62883 18.1196C2.48442 17.9612 2.36069 17.7847 2.26164 17.5952L2.17082 17.4009C2.05648 17.1218 1.99806 16.8226 1.99992 16.521C1.99996 16.3188 2.02416 16.1235 2.07121 15.9351L2.1259 15.7485C2.19307 15.5649 2.27865 15.3938 2.38273 15.2368L2.49406 15.0835C2.65324 14.8881 2.84444 14.7207 3.05949 14.5894C3.12556 14.5471 3.19443 14.5096 3.26457 14.4751C3.25486 14.3064 3.24992 14.1364 3.24992 13.9653C3.24992 9.13287 7.16747 5.21538 11.9999 5.21533ZM7.34465 13.5747C7.1589 13.5747 7.02207 13.6175 6.89738 13.6978L6.89836 13.6987C6.75746 13.7909 6.64308 13.919 6.56828 14.0698C6.31504 14.581 5.79935 14.896 5.24406 14.9028L5.13273 14.8999C4.94029 15.3418 4.54776 15.668 4.07121 15.769C4.03507 15.7767 3.99978 15.7883 3.96574 15.8022L3.86809 15.853C3.85939 15.8586 3.85053 15.8642 3.84172 15.8696C3.77498 15.9104 3.71532 15.9622 3.66496 16.022C3.6176 16.0842 3.57602 16.1574 3.54191 16.2456C3.51567 16.3274 3.49997 16.4169 3.49992 16.521V16.5308C3.49935 16.632 3.51888 16.7327 3.55656 16.8267C3.59679 16.9219 3.65317 17.0092 3.72062 17.0874C3.74864 17.1144 3.77763 17.1405 3.80949 17.1626L3.93059 17.231L3.95109 17.2397C4.00771 17.2655 4.07886 17.2847 4.18254 17.2847H8.86027C8.87363 17.2826 8.88689 17.2795 8.90031 17.2778C8.97513 17.2685 9.04733 17.2442 9.1132 17.2075C9.19717 17.1601 9.25937 17.1082 9.30852 17.0503L9.32219 17.0337L9.39445 16.9341C9.41532 16.8988 9.43305 16.8614 9.44719 16.8228L9.45012 16.8149L9.48625 16.6812C9.49479 16.6326 9.49992 16.5794 9.49992 16.521C9.49985 16.3469 9.4595 16.2218 9.38664 16.1079L9.3798 16.0981C9.28955 15.955 9.19611 15.8779 9.08879 15.8267C8.57591 15.5821 8.24487 15.0686 8.2343 14.5005C8.23238 14.4018 8.21663 14.3143 8.18937 14.2329L8.15812 14.1528L8.15031 14.1343C8.11523 14.0532 8.06866 13.9766 8.01262 13.9087L7.95305 13.8442L7.93937 13.8306C7.86169 13.7507 7.77245 13.6864 7.66008 13.6372C7.58737 13.6056 7.5102 13.5862 7.43156 13.5786L7.35246 13.5747H7.34465ZM18.3446 13.5747C18.1589 13.5747 18.0221 13.6175 17.8974 13.6978L17.8984 13.6987C17.7575 13.7909 17.6431 13.919 17.5683 14.0698C17.315 14.581 16.7994 14.896 16.2441 14.9028L16.1327 14.8999C15.9403 15.3418 15.5478 15.668 15.0712 15.769C15.0351 15.7767 14.9998 15.7883 14.9657 15.8022L14.8681 15.853C14.8594 15.8586 14.8505 15.8642 14.8417 15.8696C14.775 15.9104 14.7153 15.9622 14.665 16.022C14.6176 16.0842 14.576 16.1574 14.5419 16.2456C14.5157 16.3274 14.5 16.4169 14.4999 16.521V16.5308C14.4994 16.632 14.5189 16.7327 14.5566 16.8267C14.5968 16.9219 14.6532 17.0092 14.7206 17.0874C14.7486 17.1144 14.7776 17.1405 14.8095 17.1626L14.9306 17.231L14.9511 17.2397C15.0077 17.2655 15.0789 17.2847 15.1825 17.2847H19.8603C19.8736 17.2826 19.8869 17.2795 19.9003 17.2778C19.9751 17.2685 20.0473 17.2442 20.1132 17.2075C20.1972 17.1601 20.2594 17.1082 20.3085 17.0503L20.3222 17.0337L20.3945 16.9341C20.4153 16.8988 20.4331 16.8614 20.4472 16.8228L20.4501 16.8149L20.4862 16.6812C20.4948 16.6326 20.4999 16.5794 20.4999 16.521C20.4999 16.3469 20.4595 16.2218 20.3866 16.1079L20.3798 16.0981C20.2896 15.955 20.1961 15.8779 20.0888 15.8267C19.5759 15.5821 19.2449 15.0686 19.2343 14.5005C19.2324 14.4018 19.2166 14.3143 19.1894 14.2329L19.1581 14.1528L19.1503 14.1343C19.1152 14.0532 19.0687 13.9766 19.0126 13.9087L18.953 13.8442L18.9394 13.8306C18.8617 13.7507 18.7725 13.6864 18.6601 13.6372C18.5874 13.6056 18.5102 13.5862 18.4316 13.5786L18.3525 13.5747H18.3446ZM11.9999 6.71533C8.18289 6.71538 5.05623 9.6653 4.77238 13.4097C4.85593 13.3937 4.94133 13.3854 5.02726 13.3862L5.11711 13.395L5.22453 13.4038C5.41805 13.0135 5.71341 12.6823 6.07805 12.4438C6.2196 12.3519 6.36724 12.2758 6.52141 12.2183C7.26071 9.89688 9.43346 8.21537 11.9999 8.21533C14.5724 8.21533 16.7481 9.90509 17.4823 12.2349C17.7505 12.1289 18.0378 12.0757 18.3446 12.0757L18.58 12.0864C18.7302 12.1014 18.8782 12.1326 19.0224 12.1772C18.2262 9.03825 15.3866 6.71533 11.9999 6.71533Z" fill="white"/>
</svg>
