<svg width="24" height="24" viewBox="0 0 24 24" fill="none" xmlns="http://www.w3.org/2000/svg">
<path d="M16.5391 2C17.3675 2.00003 18.0391 2.67159 18.0391 3.5C18.0391 3.68631 18.0025 3.86373 17.9404 4.02832L20.416 7.15234C20.4439 7.15081 20.4718 7.14844 20.5 7.14844C21.3284 7.14844 22 7.82001 22 8.64844C21.9998 9.40193 21.4437 10.0235 20.7197 10.1299L19.4658 13.085C19.601 13.3102 19.6806 13.5727 19.6807 13.8545C19.6807 14.6828 19.009 15.3544 18.1807 15.3545C18.0408 15.3545 17.9058 15.3336 17.7773 15.2979L11.0703 20.4424C11.071 20.4615 11.0732 20.4807 11.0732 20.5C11.0732 21.3283 10.4015 21.9999 9.57324 22C8.74481 22 8.07324 21.3284 8.07324 20.5C8.07324 20.432 8.07914 20.3654 8.08789 20.2998L3.93848 16.6836C3.79967 16.726 3.65268 16.75 3.5 16.75C2.67157 16.75 2 16.0784 2 15.25C2 14.4216 2.67157 13.75 3.5 13.75C3.68575 13.75 3.86317 13.785 4.02734 13.8467L9.57324 9.88574C9.57317 9.87989 9.57324 9.87403 9.57324 9.86816C9.57324 9.03974 10.2448 8.36816 11.0732 8.36816C11.8272 8.3683 12.4488 8.92478 12.5547 9.64941L17.4062 12.5713C17.6228 12.4404 17.8745 12.3618 18.1445 12.3555L19.3242 9.57715C19.122 9.32161 19.0001 8.99958 19 8.64844C19 8.40847 19.057 8.1816 19.1572 7.98047L16.7793 4.97852C16.701 4.99115 16.621 5 16.5391 5C15.7106 5 15.0391 4.32843 15.0391 3.5C15.0391 2.67157 15.7106 2 16.5391 2ZM11.9844 11.0566C11.7316 11.2507 11.4165 11.3681 11.0732 11.3682C10.8087 11.3682 10.5605 11.298 10.3447 11.1777L4.97852 15.0107C4.99105 15.0888 5 15.1684 5 15.25C5 15.3656 4.98569 15.4778 4.96094 15.5859L9.00684 19.1113C9.1816 19.04 9.37283 19 9.57324 19C9.82235 19 10.0569 19.0614 10.2637 19.1689L16.7246 14.2129C16.6988 14.1077 16.6839 13.9984 16.6816 13.8857L11.9844 11.0566Z" fill="white"/>
<path d="M20.3916 18.8086C20.5417 18.8086 20.6439 18.8841 20.6943 19.0342L20.9189 19.6631C20.9338 19.7102 20.9597 19.7537 20.9941 19.7891C21.0235 19.8362 21.0686 19.8715 21.1211 19.8896L21.7744 20.0898C21.9245 20.1402 22 20.2404 22 20.3926C22 20.5599 21.9245 20.6684 21.7744 20.7188L21.1211 20.9199C21.074 20.9348 21.0305 20.9606 20.9951 20.9951C20.9635 21.0416 20.9382 21.0924 20.9199 21.1455L20.6943 21.7744C20.6439 21.9245 20.5428 22 20.3916 22C20.2243 22 20.1148 21.9245 20.0654 21.7744L19.8398 21.1465C19.8216 21.0933 19.7962 21.0426 19.7646 20.9961C19.7303 20.9618 19.6892 20.936 19.6377 20.9199L18.9834 20.7188C18.8335 20.6683 18.7588 20.5597 18.7588 20.3926C18.7588 20.2415 18.8334 20.1402 18.9834 20.0898L19.6377 19.8896C19.6898 19.8713 19.7346 19.836 19.7637 19.7891C19.7981 19.7537 19.823 19.7101 19.8379 19.6631L20.0645 19.0352C20.1148 18.885 20.2254 18.8086 20.3916 18.8086Z" fill="white"/>
<path d="M16.9219 17.4043C17.072 17.4043 17.1742 17.4798 17.2246 17.6299L17.4492 18.2588C17.4641 18.3059 17.4899 18.3494 17.5244 18.3848C17.5538 18.4318 17.5989 18.4672 17.6514 18.4854L18.3057 18.6855C18.4556 18.736 18.5303 18.8361 18.5303 18.9883C18.5303 19.1554 18.4556 19.264 18.3057 19.3145L17.6514 19.5156C17.6042 19.5305 17.5607 19.5563 17.5254 19.5908C17.4939 19.6373 17.4684 19.6881 17.4502 19.7412L17.2246 20.3701C17.1742 20.5202 17.0731 20.5957 16.9219 20.5957C16.7547 20.5957 16.645 20.5202 16.5957 20.3701L16.3701 19.7422C16.3519 19.689 16.3265 19.6383 16.2949 19.5918C16.2606 19.5575 16.2194 19.5317 16.168 19.5156L15.5146 19.3145C15.3646 19.2641 15.2891 19.1555 15.2891 18.9883C15.2891 18.8371 15.3645 18.7359 15.5146 18.6855L16.168 18.4854C16.22 18.467 16.2648 18.4316 16.2939 18.3848C16.3284 18.3494 16.3543 18.3059 16.3691 18.2588L16.5947 17.6309C16.6451 17.4808 16.7558 17.4044 16.9219 17.4043Z" fill="white"/>
<path d="M3.83203 7.29883C4.00045 7.29883 4.11531 7.38337 4.17188 7.55176L4.4248 8.25781C4.4415 8.31067 4.47011 8.35971 4.50879 8.39941C4.5417 8.45197 4.5918 8.4914 4.65039 8.51172L5.38477 8.7373C5.55302 8.79386 5.63763 8.90549 5.6377 9.07617C5.6377 9.26385 5.55318 9.38582 5.38477 9.44238L4.65039 9.66797C4.59757 9.68463 4.54941 9.71425 4.50977 9.75293C4.47446 9.80496 4.4462 9.86143 4.42578 9.9209L4.17188 10.627C4.11532 10.7954 4.00168 10.8799 3.83203 10.8799C3.64459 10.8797 3.5221 10.7953 3.4668 10.627L3.21289 9.92188C3.19246 9.86243 3.16421 9.80592 3.12891 9.75391C3.0904 9.7154 3.04408 9.68602 2.98633 9.66797L2.25293 9.44238C2.08448 9.38583 2 9.26387 2 9.07617C2.00006 8.90662 2.08454 8.79384 2.25293 8.7373L2.98633 8.51172C3.04457 8.49122 3.09428 8.45178 3.12695 8.39941C3.16564 8.35971 3.19522 8.31067 3.21191 8.25781L3.46582 7.55273C3.52239 7.3847 3.64594 7.29897 3.83203 7.29883Z" fill="white"/>
<path d="M7.51758 2C7.76687 2 7.93682 2.12473 8.02051 2.37402L8.39355 3.41895C8.41826 3.49717 8.46131 3.56917 8.51855 3.62793C8.56732 3.70595 8.64155 3.76486 8.72852 3.79492L9.81445 4.12793C10.0637 4.21161 10.1884 4.37711 10.1885 4.62988C10.1885 4.90766 10.0637 5.08721 9.81445 5.1709L8.72852 5.50586C8.65031 5.53051 8.5792 5.57359 8.52051 5.63086C8.46809 5.70803 8.42579 5.79165 8.39551 5.87988L8.02051 6.9248C7.93682 7.1741 7.76865 7.29883 7.51758 7.29883C7.23996 7.29874 7.05844 7.17401 6.97656 6.9248L6.60059 5.88184C6.57034 5.79373 6.52887 5.70989 6.47656 5.63281C6.41958 5.57583 6.3511 5.53257 6.26562 5.50586L5.17969 5.1709C4.9306 5.08716 4.80566 4.90755 4.80566 4.62988C4.80571 4.37895 4.93057 4.21163 5.17969 4.12793L6.26562 3.79492C6.35203 3.76452 6.42626 3.70572 6.47461 3.62793C6.53186 3.56917 6.57392 3.49717 6.59863 3.41895L6.97461 2.37598C7.05827 2.12678 7.24174 2.00009 7.51758 2Z" fill="white"/>
</svg>
