<svg width="24" height="24" viewBox="0 0 24 24" fill="none" xmlns="http://www.w3.org/2000/svg">
<path d="M5.89915 4.22232C5.82375 4.44692 5.50225 4.44678 5.42716 4.22312L5.25831 3.75113C5.23461 3.67611 5.18151 3.60715 5.10714 3.58148L4.61666 3.43112C4.39358 3.35623 4.392 3.03536 4.61666 2.95993L5.10714 2.80877C5.18267 2.78498 5.2318 2.71481 5.2575 2.63991L5.42716 2.16793C5.50178 1.94567 5.82424 1.94238 5.89834 2.16793L6.068 2.63911C6.09349 2.71338 6.13588 2.78274 6.21917 2.80877L6.70965 2.95993C6.93419 3.03532 6.93273 3.35622 6.70965 3.43112L6.21917 3.58148C6.14517 3.60752 6.09244 3.67633 6.06881 3.75113L5.89915 4.22232Z" fill="white"/>
<path d="M4.12148 8.00474C4.01119 8.33326 3.54093 8.33307 3.4311 8.00592L3.18412 7.31554C3.14946 7.20581 3.07179 7.10493 2.96301 7.06739L2.24559 6.84745C1.91929 6.73791 1.91698 6.26858 2.24559 6.15826L2.96301 5.93715C3.08429 5.89895 3.14329 5.80572 3.18294 5.69017L3.4311 4.99979C3.54024 4.6747 4.0119 4.66989 4.1203 4.99979L4.36846 5.68899C4.40574 5.79763 4.46774 5.89908 4.58957 5.93715L5.30699 6.15826C5.63543 6.26852 5.63329 6.73791 5.30699 6.84745L4.58957 7.06739C4.48133 7.10547 4.40419 7.20613 4.36963 7.31554L4.12148 8.00474Z" fill="white"/>
<path d="M20.8755 19.0114C20.7888 19.2696 20.4193 19.2694 20.333 19.0123L20.139 18.4699C20.1117 18.3836 20.0507 18.3044 19.9652 18.2749L19.4015 18.102C19.1451 18.016 19.1432 17.6472 19.4015 17.5605L19.9652 17.3867C20.052 17.3594 20.1085 17.2787 20.138 17.1927L20.333 16.6502C20.4188 16.3947 20.7894 16.3909 20.8746 16.6502L21.0696 17.1917C21.0989 17.2771 21.1476 17.3568 21.2433 17.3867L21.8071 17.5605C22.0652 17.6471 22.0635 18.016 21.8071 18.102L21.2433 18.2749C21.1583 18.3048 21.0977 18.3839 21.0705 18.4699L20.8755 19.0114Z" fill="white"/>
<path fill-rule="evenodd" clip-rule="evenodd" d="M12 19.658C10.7777 19.658 9.62855 19.3447 8.62849 18.794C5.66245 19.7355 3.24598 19.6338 2.35444 18.2931C1.35458 16.7895 2.53345 14.1199 5.1045 11.4462C5.6784 8.15777 8.54727 5.65799 12 5.65799C12.4303 5.65799 12.8516 5.69682 13.2605 5.77117C17.1524 4.0392 20.5518 3.81552 21.6475 5.46328C22.6358 6.94939 21.4955 9.57469 18.9863 12.2171C18.9954 12.3629 19 12.5099 19 12.658C19 16.524 15.866 19.658 12 19.658ZM19.4387 9.29663C20.009 8.45419 20.3274 7.73635 20.447 7.18703C20.5653 6.64385 20.467 6.39693 20.3985 6.29389C20.3299 6.19084 20.1402 6.00472 19.5936 5.90369C19.0408 5.80153 18.2556 5.81758 17.2582 6.01761C16.6789 6.13378 16.0539 6.30678 15.396 6.53549C16.8936 7.36797 18.0539 8.73402 18.6199 10.3768C18.9274 10.0091 19.2011 9.64767 19.4387 9.29663ZM13.7992 14.5823C15.1914 13.6564 16.4093 12.6629 17.4129 11.6778C16.9506 9.10787 14.703 7.15799 12 7.15799C8.96243 7.15799 6.5 9.62042 6.5 12.658C6.5 14.5103 7.41563 16.1487 8.81896 17.1453C10.3633 16.5862 12.0775 15.7272 13.7992 14.5823ZM14.6298 15.8313C13.3089 16.7097 11.9776 17.4381 10.7002 18.0035C11.117 18.1045 11.5522 18.158 12 18.158C14.6696 18.158 16.895 16.256 17.395 13.7332C16.5618 14.4557 15.6346 15.1631 14.6298 15.8313ZM6.74373 17.7388C6.86185 17.7151 6.98188 17.689 7.10369 17.6606C6.05094 16.6301 5.32213 15.2699 5.08423 13.7471C4.89504 13.9884 4.72114 14.2264 4.5632 14.4597C3.99298 15.3022 3.67452 16.02 3.55493 16.5693C3.43667 17.1125 3.53495 17.3594 3.60347 17.4625C3.672 17.5655 3.86169 17.7517 4.40834 17.8527C4.96116 17.9548 5.74631 17.9388 6.74373 17.7388Z" fill="white"/>
<path d="M19.6157 21.881C19.5625 22.0396 19.3356 22.0395 19.2826 21.8816L19.1634 21.5485C19.1467 21.4955 19.1092 21.4468 19.0567 21.4287L18.7105 21.3226C18.5531 21.2697 18.552 21.0433 18.7105 20.99L19.0567 20.8833C19.11 20.8665 19.1447 20.817 19.1629 20.7642L19.2826 20.431C19.3353 20.2742 19.5629 20.2718 19.6152 20.431L19.7349 20.7636C19.7529 20.816 19.7828 20.865 19.8416 20.8833L20.1878 20.99C20.3463 21.0432 20.3452 21.2697 20.1878 21.3226L19.8416 21.4287C19.7894 21.4471 19.7522 21.4957 19.7355 21.5485L19.6157 21.881Z" fill="white"/>
<path d="M17.8649 19.7078C17.9112 19.8458 18.1096 19.8458 18.1561 19.7073L18.2607 19.4166C18.2753 19.3705 18.3078 19.328 18.3535 19.312L18.656 19.2192C18.7936 19.173 18.7946 18.9751 18.656 18.9286L18.3535 18.8353C18.3021 18.8193 18.276 18.7765 18.2602 18.7307L18.1556 18.44C18.1099 18.3009 17.9109 18.3029 17.8649 18.44L17.7603 18.7312C17.7444 18.7774 17.7141 18.8206 17.6675 18.8353L17.365 18.9286C17.2264 18.9751 17.2273 19.173 17.365 19.2192L17.6675 19.312C17.7134 19.3278 17.7461 19.3704 17.7608 19.4166L17.8649 19.7078Z" fill="white"/>
</svg>
