<svg width="24" height="24" viewBox="0 0 24 24" fill="none" xmlns="http://www.w3.org/2000/svg">
<path d="M3.61643 8.43867C3.61643 7.61967 3.90443 6.91567 4.47943 6.32567C5.06843 5.73667 5.77343 5.44267 6.59243 5.44267H10.7314C10.8234 5.44567 10.9144 5.43067 11.0004 5.39667C11.0864 5.36267 11.1634 5.31267 11.2284 5.24767C11.2924 5.18267 11.3434 5.10467 11.3764 5.01967C11.4094 4.93467 11.4254 4.84367 11.4214 4.75167C11.4234 4.66367 11.4074 4.57667 11.3734 4.49467C11.3394 4.41267 11.2904 4.33967 11.2274 4.27767C11.1654 4.20767 11.0894 4.15167 11.0034 4.11467C10.9174 4.07767 10.8244 4.05967 10.7304 4.06167H6.59143C5.98843 4.06167 5.42043 4.17667 4.88843 4.40667C4.37343 4.63467 3.90543 4.95667 3.50843 5.35467C3.11443 5.75167 2.79943 6.21967 2.58143 6.73467C2.35043 7.27267 2.23243 7.85267 2.23643 8.43867V17.6447C2.23643 18.2477 2.35143 18.8157 2.58143 19.3477C2.81143 19.8657 3.12043 20.3257 3.50843 20.7277C3.91043 21.1157 4.37043 21.4247 4.88843 21.6547C5.42043 21.8847 5.98743 21.9997 6.59143 21.9997H15.7974C16.4004 21.9997 16.9684 21.8847 17.5014 21.6547C18.0164 21.4357 18.4844 21.1217 18.8814 20.7277C19.2804 20.3307 19.6014 19.8627 19.8294 19.3477C20.0594 18.8157 20.1754 18.2487 20.1754 17.6447V13.5057C20.1784 13.4117 20.1604 13.3187 20.1224 13.2327C20.0844 13.1467 20.0294 13.0707 19.9594 13.0087C19.8974 12.9457 19.8244 12.8967 19.7424 12.8627C19.6604 12.8287 19.5734 12.8137 19.4854 12.8147C19.3934 12.8117 19.3024 12.8267 19.2174 12.8597C19.1324 12.8927 19.0544 12.9437 18.9894 13.0077C18.9254 13.0727 18.8744 13.1507 18.8414 13.2357C18.8084 13.3207 18.7924 13.4127 18.7964 13.5037V17.6427C18.7964 18.4617 18.5024 19.1657 17.9124 19.7557C17.6364 20.0337 17.3064 20.2537 16.9434 20.4017C16.5804 20.5497 16.1914 20.6227 15.7994 20.6177H6.59343C5.77443 20.6177 5.07043 20.3307 4.48043 19.7557C4.20243 19.4797 3.98243 19.1497 3.83443 18.7867C3.68643 18.4237 3.61343 18.0347 3.61843 17.6427L3.61743 8.43667L3.61643 8.43867Z" fill="white"/>
<path d="M20.8125 2.94933C20.5085 2.64233 20.1455 2.40033 19.7455 2.23733C19.3455 2.07433 18.9165 1.99333 18.4855 1.99933C17.5795 1.99933 16.8035 2.31533 16.1565 2.94733L7.31855 11.7883C7.23355 11.8743 7.16755 11.9763 7.12555 12.0903C7.08155 12.2053 7.06055 12.3203 7.06055 12.4353V15.7763C7.06055 16.0353 7.14655 16.2583 7.31955 16.4453C7.50655 16.6173 7.72855 16.7043 7.98855 16.7043H11.3295C11.4445 16.7043 11.5595 16.6833 11.6745 16.6403C11.7885 16.5983 11.8915 16.5323 11.9775 16.4463L20.8145 7.60433C21.1205 7.30033 21.3625 6.93733 21.5255 6.53733C21.6885 6.13733 21.7695 5.70833 21.7625 5.27733C21.7625 4.37133 21.4465 3.59533 20.8145 2.94833V2.95033L20.8125 2.94933ZM11.2425 15.1713C11.1985 15.2153 11.1475 15.2513 11.0915 15.2793C11.0355 15.2953 10.9765 15.3033 10.9185 15.3013H8.91355C8.79355 15.2993 8.67855 15.2533 8.59055 15.1723C8.50955 15.0843 8.46355 14.9683 8.46155 14.8483V12.8433C8.45955 12.7853 8.46655 12.7263 8.48255 12.6703C8.50955 12.6143 8.54655 12.5633 8.59055 12.5193L14.3255 6.78433L16.9775 9.43633L11.2425 15.1713ZM17.1495 3.96133C17.5225 3.58733 17.9685 3.40033 18.4865 3.40033C19.0045 3.40033 19.4425 3.58733 19.8015 3.96133C20.1745 4.32033 20.3615 4.75933 20.3615 5.27633C20.3615 5.79333 20.1745 6.23833 19.8005 6.61233L17.9905 8.42433L15.3385 5.77133L17.1495 3.96133Z" fill="white"/>
</svg>
