<svg width="24" height="24" viewBox="0 0 24 24" fill="none" xmlns="http://www.w3.org/2000/svg">
<path d="M12.0001 20.501V3.49905C10.8641 3.49205 9.73915 3.72305 8.69815 4.17805C7.68315 4.60505 6.76115 5.22505 5.98215 6.00405C5.21215 6.77605 4.59915 7.69105 4.17815 8.69705C3.72315 9.73805 3.49115 10.863 3.49915 11.999C3.49915 13.17 3.72615 14.27 4.17815 15.301C4.60315 16.312 5.21415 17.233 5.98215 18.017C6.76515 18.784 7.68715 19.396 8.69815 19.821C9.73915 20.276 10.8641 20.509 12.0001 20.501ZM12.0001 2.00005C13.3371 1.99305 14.6611 2.26405 15.8871 2.79605C17.0771 3.29305 18.1591 4.01705 19.0721 4.92705C19.9831 5.84005 20.7061 6.92105 21.2031 8.11105C21.7361 9.33705 22.0071 10.662 21.9991 11.999C22.0061 13.336 21.7351 14.66 21.2031 15.886C20.7061 17.076 19.9831 18.158 19.0721 19.071C18.1591 19.982 17.0771 20.706 15.8881 21.202C14.6611 21.735 13.3371 22.006 12.0001 21.998C10.6631 22.005 9.33915 21.734 8.11315 21.202C6.92315 20.705 5.84115 19.982 4.92815 19.071C4.01715 18.158 3.29315 17.076 2.79715 15.887C2.26415 14.66 1.99315 13.336 2.00115 11.999C1.99415 10.662 2.26515 9.33805 2.79715 8.11205C3.29415 6.92205 4.01815 5.84005 4.92815 4.92705C5.84115 4.01605 6.92315 3.29205 8.11215 2.79605C9.33915 2.26305 10.6631 1.99205 12.0001 2.00005Z" fill="white"/>
</svg>
