<svg width="24" height="24" viewBox="0 0 24 24" fill="none" xmlns="http://www.w3.org/2000/svg">
<path d="M13.4361 3.57095L4.34213 13.9107H10.3181C10.7711 13.9107 11.1311 14.0609 11.3961 14.3602C11.6621 14.6471 11.7561 14.9657 11.6781 15.3176L10.4821 20.4971L19.6461 11.3306H13.1541C12.7011 11.3306 12.3421 11.1805 12.0761 10.8811C11.948 10.7448 11.8583 10.5861 11.8136 10.4169C11.7689 10.2478 11.7705 10.0724 11.8181 9.90375L13.4361 3.57095ZM14.2561 2.10574C14.527 2.21402 14.7489 2.39207 14.8891 2.6136C15.0451 2.84793 15.0841 3.11562 15.0061 3.41417L13.2951 10.0797H19.8571C20.4821 10.0797 20.9041 10.314 21.1231 10.7835C21.3571 11.2397 21.2871 11.65 20.9131 12.0144L11.3501 21.592C11.1151 21.813 10.8421 21.9439 10.5301 21.9831C10.2355 22.0242 9.9329 21.9899 9.66213 21.8847C9.40342 21.7603 9.192 21.5777 9.05213 21.3577C8.91214 21.1358 8.87314 20.8823 8.93514 20.5946L10.2011 15.1616H4.13113C3.53713 15.1616 3.12313 14.9465 2.88913 14.5162C2.65413 14.0742 2.70113 13.6631 3.02913 13.2853L12.5451 2.45683C12.7641 2.20998 13.0371 2.06655 13.3651 2.02736C13.6642 1.9728 13.9764 2.0003 14.2551 2.10574H14.2561Z" fill="white"/>
</svg>
