<svg width="24" height="24" viewBox="0 0 24 24" fill="none" xmlns="http://www.w3.org/2000/svg">
<path d="M7.50201 2.10601C7.41601 2.05201 7.31801 2.01701 7.21701 2.00501C7.11601 1.99301 7.01301 2.00301 6.91601 2.03601C6.81701 2.05801 6.72501 2.10001 6.64401 2.16001C6.56301 2.22001 6.49601 2.29701 6.44701 2.38601L5.06401 4.77801C4.95701 4.95301 4.92301 5.16401 4.97101 5.36401C5.03301 5.56701 5.15801 5.72401 5.34601 5.83301L7.76001 7.21601C7.94701 7.32601 8.14301 7.35601 8.34601 7.30901C8.54501 7.25001 8.71301 7.11501 8.81501 6.93401C8.86801 6.84701 8.90201 6.75001 8.91401 6.64901C8.92601 6.54801 8.91601 6.44601 8.88501 6.34901C8.86301 6.25001 8.82101 6.15701 8.76001 6.07601C8.69901 5.99501 8.62201 5.92801 8.53301 5.87901L7.66601 5.38801C8.61901 4.88801 9.61101 4.59801 10.643 4.52001C11.644 4.42401 12.654 4.51901 13.619 4.80201C14.588 5.06701 15.486 5.51201 16.314 6.13801C17.147 6.76801 17.848 7.55701 18.377 8.45801C19.432 10.297 19.719 12.479 19.174 14.528C18.904 15.522 18.442 16.453 17.814 17.27C17.18 18.138 16.364 18.858 15.424 19.38C14.495 19.919 13.466 20.262 12.4 20.388C11.373 20.514 10.33 20.443 9.33001 20.177C8.33401 19.906 7.39701 19.453 6.56501 18.841C5.70401 18.199 4.98501 17.385 4.45501 16.451C4.40401 16.36 4.33301 16.282 4.24801 16.221C4.16301 16.16 4.06601 16.119 3.96301 16.099C3.87001 16.067 3.77101 16.057 3.67301 16.069C3.57501 16.081 3.48201 16.115 3.40001 16.169C3.21901 16.271 3.08401 16.439 3.02501 16.638C2.97701 16.835 3.00201 17.043 3.09501 17.224C3.73801 18.331 4.59901 19.296 5.62701 20.059C6.61201 20.81 7.73501 21.359 8.93201 21.676C10.124 21.989 11.364 22.076 12.588 21.934C13.861 21.775 15.089 21.36 16.198 20.714C17.318 20.09 18.292 19.235 19.057 18.207C19.807 17.239 20.356 16.132 20.674 14.949C20.987 13.757 21.074 12.517 20.932 11.293C20.775 10.027 20.36 8.80601 19.712 7.70701C19.113 6.65901 18.317 5.73501 17.369 4.98801C16.454 4.26501 15.413 3.71701 14.299 3.37101C13.193 3.02601 12.034 2.88301 10.877 2.94901C9.68401 2.99701 8.51201 3.28401 7.43201 3.79301L7.80701 3.16001C7.85301 3.07001 7.88101 2.97201 7.88901 2.87201C7.89701 2.77201 7.88501 2.67001 7.85401 2.57401C7.83201 2.47501 7.78901 2.38201 7.72901 2.30101C7.66901 2.22001 7.59101 2.15401 7.50201 2.10601Z" fill="white"/>
<path d="M12.692 7.70401C12.733 7.79301 12.753 7.89001 12.752 7.98801V13.003C12.752 13.104 12.731 13.204 12.691 13.297C12.651 13.39 12.592 13.474 12.518 13.543C12.377 13.683 12.205 13.753 12.002 13.753H9.00201C8.79901 13.753 8.61901 13.683 8.46201 13.543C8.32201 13.387 8.25201 13.207 8.25201 13.004C8.24801 12.904 8.26501 12.805 8.30101 12.712C8.33701 12.619 8.39201 12.535 8.46201 12.464C8.60801 12.327 8.80201 12.252 9.00201 12.254H11.252V7.98801C11.25 7.89201 11.268 7.79701 11.304 7.70901C11.34 7.62101 11.394 7.54001 11.462 7.47301C11.531 7.39901 11.615 7.34001 11.708 7.30001C11.801 7.26001 11.901 7.23901 12.002 7.23801C12.1 7.23701 12.197 7.25701 12.286 7.29801C12.375 7.33901 12.454 7.39801 12.518 7.47301C12.592 7.53601 12.652 7.61501 12.692 7.70401Z" fill="white"/>
</svg>
