<svg width="24" height="24" viewBox="0 0 24 24" fill="none" xmlns="http://www.w3.org/2000/svg">
<path fill-rule="evenodd" clip-rule="evenodd" d="M7.33081 9.5C8.98766 9.5 10.3308 8.15685 10.3308 6.5C10.3308 4.84315 8.98766 3.5 7.33081 3.5C5.67396 3.5 4.33081 4.84315 4.33081 6.5C4.33081 8.15685 5.67396 9.5 7.33081 9.5ZM7.33081 11C9.81609 11 11.8308 8.98528 11.8308 6.5C11.8308 4.01472 9.81609 2 7.33081 2C4.84553 2 2.83081 4.01472 2.83081 6.5C2.83081 8.98528 4.84553 11 7.33081 11Z" fill="white"/>
<path fill-rule="evenodd" clip-rule="evenodd" d="M16.6691 20.5C18.326 20.5 19.6691 19.1569 19.6691 17.5C19.6691 15.8431 18.326 14.5 16.6691 14.5C15.0123 14.5 13.6691 15.8431 13.6691 17.5C13.6691 19.1569 15.0123 20.5 16.6691 20.5ZM16.6691 22C19.1544 22 21.1691 19.9853 21.1691 17.5C21.1691 15.0147 19.1544 13 16.6691 13C14.1839 13 12.1691 15.0147 12.1691 17.5C12.1691 19.9853 14.1839 22 16.6691 22Z" fill="white"/>
<path d="M17.284 5.0496C17.5198 4.78997 17.9252 4.76639 18.1895 4.99694C18.4538 5.22748 18.477 5.62484 18.2413 5.88447L6.3776 18.9504C6.14186 19.21 5.73646 19.2336 5.47212 19.0031C5.20778 18.7725 5.1846 18.3752 5.42034 18.1155L17.284 5.0496Z" fill="white"/>
</svg>
