<svg width="24" height="24" viewBox="0 0 24 24" fill="none" xmlns="http://www.w3.org/2000/svg">
<path fill-rule="evenodd" clip-rule="evenodd" d="M21.9985 12C21.9985 15.3137 19.3122 18 15.9985 18C14.7718 18 13.631 17.6318 12.6807 17H6.68863C6.30749 17 5.99851 16.6642 5.99851 16.25C5.99851 15.8358 6.30749 15.5 6.68863 15.5H11.1246C10.5537 14.7064 10.1719 13.7678 10.0449 12.75H2.75195C2.33774 12.75 2.00195 12.4142 2.00195 12C2.00195 11.5858 2.33774 11.25 2.75195 11.25H10.0449C10.1719 10.2322 10.5537 9.29356 11.1246 8.5H6.74851C6.3343 8.5 5.99851 8.16421 5.99851 7.75C5.99851 7.33579 6.3343 7 6.74851 7H12.436C12.5064 7 12.5746 7.00971 12.6392 7.02785C13.5977 6.37899 14.7539 6 15.9985 6C19.3122 6 21.9985 8.68629 21.9985 12ZM20.4985 12C20.4985 14.4853 18.4838 16.5 15.9985 16.5C13.5132 16.5 11.4985 14.4853 11.4985 12C11.4985 9.51472 13.5132 7.5 15.9985 7.5C18.4838 7.5 20.4985 9.51472 20.4985 12Z" fill="white"/>
</svg>
