<svg width="24" height="24" viewBox="0 0 24 24" fill="none" xmlns="http://www.w3.org/2000/svg">
<path d="M6.68688 20.39L7.14388 14.813H4.25888L4.04388 16.761C3.94688 17.626 4.15588 18.403 4.66888 19.092C5.15388 19.763 5.87488 20.227 6.68688 20.39ZM4.42688 13.274H7.26388L7.62388 9.188H4.88488L4.42688 13.274ZM5.05288 7.649H7.74488L8.08088 3.562C7.34088 3.652 6.65388 3.991 6.13288 4.524C5.59688 5.052 5.25688 5.748 5.17188 6.495L5.05288 7.649ZM9.61988 3.538L9.28388 7.649H11.2309V3.538H9.62088H9.61988ZM12.7689 3.538V7.649H14.7159L14.3799 3.538H12.7699H12.7689ZM15.9179 3.562L16.2539 7.649H18.9459L18.8259 6.495C18.7399 5.747 18.4009 5.052 17.8649 4.524C17.3439 3.991 16.6569 3.651 15.9169 3.562H15.9179ZM19.1139 9.188H16.3749L16.7349 13.274H19.5719L19.1159 9.188H19.1139ZM19.7399 14.812H16.8549L17.3119 20.389C18.1239 20.226 18.8449 19.762 19.3299 19.091C19.8429 18.402 20.0519 17.624 19.9559 16.76L19.7399 14.812ZM15.7739 20.461L15.3169 14.812H12.7689V20.461H15.7739ZM11.2299 20.461V14.812H8.68188L8.22488 20.461H11.2299ZM8.82588 13.274H11.2299V9.188H9.16188L8.82588 13.274ZM12.7689 9.188V13.274H15.1729L14.8369 9.188H12.7689ZM7.38388 22C6.68688 22.005 5.99788 21.858 5.36388 21.567C4.74288 21.293 4.18688 20.892 3.72988 20.39C3.27788 19.888 2.93388 19.299 2.71988 18.659C2.49488 17.995 2.42188 17.289 2.50488 16.592L3.65688 6.327C3.76388 5.134 4.33388 4.029 5.24388 3.25C6.17388 2.416 7.25588 2 8.48988 2H15.5089C16.7429 2 17.8249 2.416 18.7539 3.25C19.6639 4.029 20.2329 5.134 20.3409 6.327L21.4949 16.592C21.5779 17.288 21.5039 17.994 21.2789 18.659C21.0639 19.299 20.7209 19.889 20.2689 20.39C19.8129 20.892 19.2559 21.293 18.6349 21.567C18.0019 21.857 17.3119 22.005 16.6149 22H7.38388Z" fill="white"/>
</svg>
