<svg width="24" height="24" viewBox="0 0 24 24" fill="none" xmlns="http://www.w3.org/2000/svg">
<path d="M15.5856 3.37665C15.9711 2.79633 16.8242 2.79632 17.2097 3.37665L17.8172 4.29115L18.8756 4.58562C19.5473 4.77249 19.8109 5.58292 19.3775 6.12844L18.6945 6.9881L18.7412 8.0846C18.7708 8.78041 18.0806 9.28128 17.4273 9.03811L16.3977 8.65491L15.3681 9.03811C14.7147 9.28128 14.0245 8.78041 14.0542 8.0846L14.1009 6.9881L13.4179 6.12844C12.9844 5.58292 13.248 4.77249 13.9197 4.58562L14.9782 4.29115L15.5856 3.37665ZM16.3977 4.66937L16.0522 5.18948C15.9227 5.38442 15.7273 5.52626 15.5016 5.58903L14.8996 5.7565L15.2881 6.24542C15.4337 6.42867 15.5084 6.65817 15.4984 6.89191L15.4718 7.51552L16.0574 7.29758C16.2769 7.2159 16.5185 7.2159 16.7379 7.29758L17.3235 7.51552L17.2969 6.89191C17.287 6.65817 17.3616 6.42867 17.5072 6.24542L17.8957 5.7565L17.2937 5.58903C17.0681 5.52626 16.8726 5.38442 16.7432 5.18948L16.3977 4.66937Z" fill="white"/>
<path d="M12.0389 11.2197C10.9769 10.1589 9.84729 9.32485 8.86077 8.8438C8.37071 8.60483 7.87989 8.43515 7.42844 8.38867C6.98413 8.34292 6.46287 8.40888 6.07819 8.79312C5.8522 9.01885 5.73619 9.29166 5.68821 9.56831C5.68066 9.58423 5.67364 9.60055 5.66721 9.61726L2.11194 18.8504C1.61269 20.147 2.86946 21.4297 4.17802 20.9592L13.4064 17.6408C13.4492 17.6254 13.4895 17.6063 13.5271 17.5839C13.8589 17.5568 14.1974 17.4441 14.4682 17.1736C14.8529 16.7893 14.9189 16.2686 14.8731 15.8249C14.8266 15.3739 14.6567 14.8837 14.4175 14.3942C13.9359 13.4088 13.1009 12.2805 12.0389 11.2197ZM7.2857 9.77191C7.51371 9.79539 7.83955 9.89326 8.25002 10.0934C9.06456 10.4906 10.0715 11.2211 11.0545 12.203C12.0375 13.1849 12.7688 14.1906 13.1664 15.0042C13.3668 15.4142 13.4648 15.7397 13.4883 15.9674C13.5016 16.0958 13.4891 16.1603 13.4805 16.187C13.4538 16.1956 13.3892 16.208 13.2607 16.1948C13.0327 16.1713 12.7069 16.0734 12.2964 15.8733C11.4819 15.4761 10.475 14.7456 9.49195 13.7637C8.50894 12.7818 7.77762 11.7761 7.37997 10.9625C7.17959 10.5525 7.08161 10.227 7.0581 9.99925C7.04486 9.87087 7.0573 9.8064 7.06591 9.77972C7.09263 9.77111 7.15717 9.75868 7.2857 9.77191ZM13.4753 16.2001L13.474 16.2021C13.474 16.2021 13.4745 16.2018 13.4753 16.2001ZM11.2993 16.9205L9.03732 17.7339C8.96593 17.658 8.87629 17.5969 8.77184 17.5583C7.69899 17.1614 7.06658 16.7934 6.61369 16.3326C6.16091 15.872 5.83125 15.2618 5.47257 14.2666C5.45709 14.2236 5.43781 14.1831 5.41524 14.1453L6.28777 11.8793C6.78383 12.7882 7.55424 13.7948 8.50754 14.747C9.43327 15.6717 10.4104 16.4241 11.2993 16.9205ZM3.70647 19.6508C3.51953 19.718 3.33999 19.5348 3.41132 19.3496L4.69956 16.004C4.95376 16.4978 5.24758 16.9276 5.62029 17.3068C6.05142 17.7454 6.56414 18.092 7.18909 18.3985L3.70647 19.6508Z" fill="white"/>
<path d="M21.6926 9.0367C22.0115 9.25113 22.096 9.68319 21.8813 10.0017L21.2883 10.8817C20.5936 11.9125 19.2408 12.2678 18.1284 11.7116C17.5778 11.4363 16.9085 11.6748 16.6567 12.2361L16.3867 12.8379C16.2296 13.1883 15.8177 13.3451 15.4669 13.1881C15.1161 13.0311 14.9591 12.6197 15.1163 12.2693L15.3863 11.6675C15.962 10.384 17.4925 9.83855 18.7515 10.4681C19.238 10.7113 19.8296 10.5559 20.1334 10.1052L20.7264 9.22522C20.9411 8.90667 21.3736 8.82227 21.6926 9.0367Z" fill="white"/>
<path d="M19.6674 15.4291C20.18 15.4291 20.5955 15.0141 20.5955 14.5021C20.5955 13.9901 20.18 13.575 19.6674 13.575C19.1548 13.575 18.7393 13.9901 18.7393 14.5021C18.7393 15.0141 19.1548 15.4291 19.6674 15.4291Z" fill="white"/>
<path d="M11.5056 3.1725C11.8753 3.27799 12.0893 3.66282 11.9837 4.03205L11.0556 7.27672C10.95 7.64594 10.5647 7.85973 10.1951 7.75424C9.82543 7.64875 9.61139 7.26392 9.717 6.8947L10.6451 3.65003C10.7507 3.2808 11.136 3.06701 11.5056 3.1725Z" fill="white"/>
<path d="M6.67386 6.15866C7.18644 6.15866 7.60197 5.7436 7.60197 5.23161C7.60197 4.71961 7.18644 4.30456 6.67386 4.30456C6.16128 4.30456 5.74575 4.71961 5.74575 5.23161C5.74575 5.7436 6.16128 6.15866 6.67386 6.15866Z" fill="white"/>
</svg>
