<svg width="24" height="24" viewBox="0 0 24 24" fill="none" xmlns="http://www.w3.org/2000/svg">
<path d="M6.26279 9.39898V7.75998C6.26279 6.96398 6.41079 6.21398 6.70779 5.51198C6.99079 4.82998 7.40479 4.20898 7.92579 3.68598C8.46079 3.16798 9.08779 2.75398 9.77479 2.46698C10.4738 2.15298 11.2328 1.99398 11.9998 1.99998C12.7958 1.99998 13.5388 2.15598 14.2248 2.46898C14.9068 2.75198 15.5278 3.16598 16.0508 3.68698C16.5838 4.20598 17.0058 4.82698 17.2918 5.51298C17.5888 6.21498 17.7368 6.96498 17.7368 7.76098V9.39998C18.4018 9.72198 18.9618 10.226 19.3528 10.853C19.7748 11.493 19.9858 12.211 19.9858 13.007V16.005C19.9858 16.832 19.8298 17.605 19.5168 18.323C19.2158 19.04 18.7778 19.693 18.2288 20.243C17.6808 20.786 17.0388 21.222 16.3328 21.532C15.5918 21.845 14.7948 22.005 13.9908 22H10.0098C9.18279 22 8.40079 21.844 7.66779 21.531C6.95679 21.218 6.30679 20.782 5.74779 20.243C5.21079 19.687 4.78179 19.036 4.48379 18.323C4.16879 17.591 4.00879 16.802 4.01379 16.005V13.007C4.01379 12.211 4.21779 11.492 4.62379 10.853C5.02679 10.228 5.59379 9.72498 6.26279 9.39898ZM16.2388 9.00098V7.75998C16.2388 6.58898 15.8248 5.58998 14.9978 4.76198C14.1708 3.91898 13.1718 3.49698 11.9998 3.49698C10.8278 3.49698 9.82979 3.91898 9.00179 4.76198C8.17479 5.58898 7.76079 6.58798 7.76079 7.75998V9.00098H16.2388ZM18.4868 13.006C18.4868 12.304 18.2448 11.71 17.7618 11.226C17.5338 10.991 17.2608 10.806 16.9588 10.681C16.6568 10.556 16.3318 10.494 16.0048 10.5H7.99479C7.30879 10.5 6.72279 10.742 6.23779 11.226C5.75379 11.71 5.51279 12.303 5.51279 13.005V16.003C5.51279 17.237 5.94979 18.299 6.82379 19.188C7.69779 20.062 8.75979 20.5 10.0088 20.5H13.9898C15.2388 20.5 16.3008 20.062 17.1748 19.188C18.0488 18.299 18.4858 17.237 18.4858 16.004L18.4868 13.006Z" fill="white"/>
<path d="M12.5154 12.4678C12.3744 12.3278 12.2024 12.2578 11.9994 12.2578C11.7994 12.2558 11.6064 12.3308 11.4594 12.4678C11.3894 12.5388 11.3344 12.6228 11.2984 12.7158C11.2624 12.8088 11.2454 12.9078 11.2494 13.0068V17.9948C11.2474 18.1948 11.3224 18.3878 11.4594 18.5348C11.6054 18.6708 11.7984 18.7468 11.9994 18.7448C12.0954 18.7468 12.1904 18.7298 12.2794 18.6938C12.3684 18.6578 12.4484 18.6038 12.5154 18.5358C12.5894 18.4668 12.6484 18.3828 12.6884 18.2908C12.7284 18.1988 12.7494 18.0978 12.7494 17.9968V13.0088C12.7494 12.7898 12.6714 12.6098 12.5154 12.4688V12.4678Z" fill="white"/>
</svg>
