<svg width="24" height="24" viewBox="0 0 24 24" fill="none" xmlns="http://www.w3.org/2000/svg">
<path fill-rule="evenodd" clip-rule="evenodd" d="M16 8V6C16 3.79086 14.2091 2 12 2C9.79086 2 8 3.79086 8 6V8H6C4.89543 8 4 8.89543 4 10V18C4 20.2091 5.79086 22 8 22H16C18.2091 22 20 20.2091 20 18V10C20 8.89543 19.1046 8 18 8H16ZM14.5 8V6C14.5 4.61929 13.3807 3.5 12 3.5C10.6193 3.5 9.5 4.61929 9.5 6V8H14.5ZM14.5 9.5V11.75C14.5 12.1642 14.8358 12.5 15.25 12.5C15.6642 12.5 16 12.1642 16 11.75V9.5H18C18.2761 9.5 18.5 9.72386 18.5 10V18C18.5 19.3807 17.3807 20.5 16 20.5H8C6.61929 20.5 5.5 19.3807 5.5 18V10C5.5 9.72386 5.72386 9.5 6 9.5H8V11.75C8 12.1642 8.33579 12.5 8.75 12.5C9.16421 12.5 9.5 12.1642 9.5 11.75V9.5H14.5Z" fill="white"/>
</svg>
