<svg width="24" height="24" viewBox="0 0 24 24" fill="none" xmlns="http://www.w3.org/2000/svg">
<path d="M12.0026 2.00007C11.1036 2.00007 10.2506 2.16807 9.44261 2.50307C8.66061 2.82207 7.94661 3.28707 7.33961 3.87407C6.74261 4.45607 6.26261 5.14707 5.92261 5.90807C5.56861 6.69907 5.38961 7.55607 5.39561 8.42207C5.39561 8.84907 5.38061 9.42107 5.35061 10.1361C5.33461 10.8371 5.27461 11.5991 5.16761 12.4221C5.06061 13.2441 4.88561 14.0671 4.64161 14.8891C4.42661 15.6811 4.09561 16.4361 3.65861 17.1301C3.41461 17.5261 3.40061 17.9531 3.61261 18.4091C3.82761 18.8511 4.19161 19.0721 4.70961 19.0721H19.2926C19.7946 19.0721 20.1526 18.8511 20.3666 18.4091C20.5956 17.9531 20.5876 17.5251 20.3446 17.1301C19.9066 16.4341 19.5676 15.6801 19.3386 14.8901C19.1126 14.0801 18.9446 13.2551 18.8366 12.4221C18.7296 11.5991 18.6606 10.8371 18.6306 10.1361C18.6166 9.56507 18.6096 8.99307 18.6076 8.42207C18.6076 7.52307 18.4316 6.68507 18.0816 5.90807C17.7416 5.14707 17.2616 4.45607 16.6646 3.87407C16.0576 3.28707 15.3436 2.82107 14.5616 2.50307C13.7506 2.16707 12.8796 1.99607 12.0016 2.00007H12.0026ZM6.86061 8.42307C6.86061 7.73707 6.98961 7.09707 7.24861 6.50307C7.51461 5.92107 7.88661 5.39407 8.34561 4.94907C8.82461 4.48707 9.38161 4.11507 9.99161 3.85107C10.6296 3.59007 11.3136 3.45807 12.0026 3.46307C12.6926 3.45807 13.3766 3.59007 14.0146 3.85207C14.6386 4.12507 15.1796 4.49207 15.6376 4.94907C16.1086 5.38907 16.4886 5.91707 16.7576 6.50307C17.0166 7.09807 17.1456 7.73807 17.1456 8.42407C17.1456 8.85007 17.1536 9.43607 17.1686 10.1831C17.1986 10.9291 17.2756 11.7371 17.3966 12.6051C17.5036 13.4281 17.6716 14.2811 17.8996 15.1651C18.1436 16.0331 18.4856 16.8491 18.9286 17.6111H5.07661C5.51961 16.8491 5.85361 16.0341 6.08261 15.1651C6.32661 14.2811 6.50161 13.4281 6.60861 12.6051C6.73061 11.7371 6.79861 10.9291 6.81361 10.1831C6.84461 9.43607 6.86061 8.85007 6.86061 8.42307Z" fill="white"/>
<path d="M9.77226 20.5934C9.86326 20.5534 9.96126 20.5354 10.0603 20.5374H13.9463C14.0453 20.5344 14.1443 20.5534 14.2353 20.5924C14.3263 20.6314 14.4073 20.6914 14.4733 20.7654C14.5403 20.8304 14.5923 20.9094 14.6283 20.9954C14.6643 21.0814 14.6803 21.1744 14.6783 21.2684C14.6803 21.4634 14.6063 21.6524 14.4733 21.7954C14.4043 21.8634 14.3213 21.9174 14.2313 21.9524C14.1413 21.9874 14.0443 22.0034 13.9463 22.0004H10.0613C9.84726 22.0004 9.67226 21.9324 9.53426 21.7954C9.39726 21.6424 9.32926 21.4664 9.32926 21.2684C9.32726 21.1744 9.34426 21.0824 9.38026 20.9954C9.41626 20.9084 9.46826 20.8304 9.53526 20.7654C9.60026 20.6914 9.68126 20.6324 9.77226 20.5934Z" fill="white"/>
</svg>
