<svg width="24" height="24" viewBox="0 0 24 24" fill="none" xmlns="http://www.w3.org/2000/svg">
<path d="M16.8083 1.99933C17.0193 1.99933 17.1923 2.07433 17.3283 2.22533C17.4633 2.36033 17.5303 2.52533 17.5303 2.72133V3.69233H17.7783C18.8473 3.69233 19.7573 4.06833 20.5093 4.82133C21.2613 5.57433 21.6383 6.48333 21.6383 7.55233V18.1383C21.6383 19.2073 21.2623 20.1173 20.5093 20.8693C19.7563 21.6213 18.8463 21.9983 17.7783 21.9983H6.22133C5.15233 21.9983 4.24233 21.6223 3.49033 20.8693C2.73833 20.1163 2.36133 19.2063 2.36133 18.1383V7.55233C2.36133 6.48333 2.73733 5.57333 3.49033 4.82133C4.24333 4.06933 5.15333 3.69233 6.22133 3.69233H6.46933V2.72133C6.46933 2.52533 6.53633 2.36033 6.67133 2.22533C6.73633 2.15133 6.81633 2.09333 6.90633 2.05433C6.99633 2.01533 7.09333 1.99633 7.19133 1.99933C7.38733 1.99933 7.55233 2.07433 7.68733 2.22533C7.83833 2.36033 7.91333 2.52533 7.91333 2.72133V3.69233H16.0843V2.72133C16.0843 2.52533 16.1513 2.36033 16.2873 2.22533C16.3543 2.15433 16.4343 2.09733 16.5243 2.05833C16.6143 2.01933 16.7093 1.99933 16.8073 1.99933H16.8083ZM6.22233 5.13733C5.55933 5.13733 4.98833 5.37033 4.50733 5.83733C4.04033 6.30333 3.80733 6.87533 3.80733 7.55133V8.74833H20.1953V7.55233C20.1953 6.87533 19.9543 6.30333 19.4733 5.83733C19.2543 5.61133 18.9903 5.43233 18.6993 5.31233C18.4083 5.19233 18.0953 5.13233 17.7803 5.13733H6.22233ZM20.1943 10.1933H3.80633V18.1393C3.80633 18.8023 4.03933 19.3733 4.50633 19.8543C4.98833 20.3213 5.55933 20.5543 6.22133 20.5543H17.7783C18.4413 20.5543 19.0043 20.3213 19.4713 19.8543C19.9533 19.3723 20.1933 18.8013 20.1933 18.1393L20.1943 10.1933Z" fill="white"/>
<path d="M13.918 12.3604H16.807C17.349 12.3604 17.809 12.5484 18.184 12.9244C18.559 13.3004 18.748 13.7594 18.748 14.3014V17.1904C18.748 17.7174 18.56 18.1684 18.184 18.5444C17.808 18.9204 17.349 19.1084 16.807 19.1084H13.918C13.666 19.1114 13.415 19.0634 13.183 18.9664C12.951 18.8694 12.74 18.7254 12.564 18.5444C12.188 18.1684 12 17.7164 12 17.1904V14.3014C12 13.7594 12.188 13.2994 12.564 12.9244C12.94 12.5494 13.392 12.3604 13.918 12.3604ZM16.808 13.8054H13.919C13.854 13.8044 13.79 13.8184 13.732 13.8454C13.674 13.8724 13.622 13.9134 13.581 13.9634C13.536 14.0074 13.501 14.0604 13.478 14.1184C13.455 14.1764 13.443 14.2394 13.445 14.3024V17.1914C13.443 17.2544 13.454 17.3164 13.477 17.3754C13.5 17.4344 13.535 17.4864 13.579 17.5314C13.623 17.5764 13.676 17.6104 13.735 17.6334C13.793 17.6564 13.856 17.6674 13.919 17.6654H16.808C16.943 17.6654 17.056 17.6204 17.147 17.5304C17.197 17.4894 17.238 17.4374 17.265 17.3794C17.292 17.3214 17.306 17.2564 17.305 17.1914V14.3024C17.306 14.2374 17.293 14.1734 17.265 14.1144C17.237 14.0554 17.197 14.0044 17.147 13.9634C17.106 13.9134 17.054 13.8724 16.996 13.8454C16.938 13.8184 16.873 13.8044 16.808 13.8054Z" fill="white"/>
</svg>
