<svg width="24" height="24" viewBox="0 0 24 24" fill="none" xmlns="http://www.w3.org/2000/svg">
<path d="M9 3C9 2.44772 9.44772 2 10 2H14C14.5523 2 15 2.44772 15 3V4.38574H16C19.3137 4.38574 22 7.07204 22 10.3857V11.2907C22 14.4361 19.5798 17.0161 16.5 17.2702V18.9869C16.5 19.4528 16.1813 19.8444 15.75 19.9554V21.25C15.75 21.6642 15.4142 22 15 22C14.5858 22 14.25 21.6642 14.25 21.25V19.9869H12.75V21.25C12.75 21.6642 12.4142 22 12 22C11.5858 22 11.25 21.6642 11.25 21.25V19.9869H9.75V21.25C9.75 21.6642 9.41421 22 9 22C8.58579 22 8.25 21.6642 8.25 21.25V19.9554C7.81869 19.8444 7.5 19.4528 7.5 18.9869V17.2702C4.42024 17.0161 2 14.4361 2 11.2907V10.3857C2 7.07203 4.68629 4.38574 8 4.38574H9V3ZM16 9.88575C16 7.76838 14.3548 6.03526 12.2731 5.89492H11.7269C9.64515 6.03526 8 7.76838 8 9.88574V11.7907C8 13.9403 9.69554 15.6938 11.8221 15.7869H12.1779C14.3045 15.6938 16 13.9403 16 11.7907V9.88575ZM8.22506 15.7907C7.16289 14.788 6.5 13.3668 6.5 11.7907V9.88574C6.5 8.30971 7.16289 6.88851 8.22506 5.88574H8C5.51472 5.88574 3.5 7.90046 3.5 10.3857V11.2907C3.5 13.776 5.51472 15.7907 8 15.7907H8.22506ZM17.5 11.7907C17.5 13.3668 16.8371 14.788 15.7749 15.7907H16C18.4853 15.7907 20.5 13.776 20.5 11.2907V10.3857C20.5 7.90046 18.4853 5.88574 16 5.88574H15.7749C16.8371 6.88851 17.5 8.30972 17.5 9.88575V11.7907ZM10.7 3.5C10.5895 3.5 10.5 3.58954 10.5 3.7V4.38574H13.5V3.7C13.5 3.58954 13.4105 3.5 13.3 3.5H10.7ZM14.8 18.4869C14.9105 18.4869 15 18.3973 15 18.2869V17.2907H9V18.2869C9 18.3973 9.08954 18.4869 9.2 18.4869H14.8Z" fill="white"/>
</svg>
