<svg width="24" height="24" viewBox="0 0 24 24" fill="none" xmlns="http://www.w3.org/2000/svg">
<path d="M18.019 4.45901C17.394 3.81901 16.645 3.50001 15.771 3.50001C14.897 3.50001 14.147 3.82001 13.523 4.45901L6.56902 11.531C6.08002 12.031 5.69002 12.619 5.42102 13.265C4.92302 14.537 4.92302 15.95 5.42102 17.222C5.68702 17.863 6.07002 18.441 6.56902 18.956C7.06802 19.471 7.63802 19.853 8.27802 20.103C8.88402 20.365 9.53802 20.5 10.198 20.502C10.866 20.499 11.527 20.364 12.142 20.103C12.784 19.841 13.365 19.451 13.851 18.956L18.02 14.717C18.087 14.648 18.167 14.594 18.256 14.558C18.345 14.522 18.44 14.504 18.536 14.506C18.636 14.495 18.738 14.509 18.832 14.545C18.926 14.581 19.01 14.64 19.076 14.716C19.144 14.783 19.198 14.863 19.234 14.952C19.27 15.041 19.288 15.136 19.285 15.232C19.293 15.332 19.279 15.432 19.242 15.526C19.205 15.62 19.149 15.703 19.075 15.772L14.905 20.011C14.281 20.656 13.532 21.166 12.704 21.51C11.908 21.835 11.057 22.002 10.198 22.002C9.35602 22.002 8.51902 21.838 7.69202 21.51C6.86802 21.158 6.12002 20.649 5.49102 20.011C4.86302 19.374 4.36902 18.617 4.03902 17.786C3.54602 16.559 3.42002 15.214 3.67802 13.917C3.93602 12.62 4.56602 11.425 5.49102 10.48L12.446 3.40701C12.899 2.93901 13.415 2.58801 13.992 2.35401C14.549 2.12401 15.146 2.00401 15.749 2.00201C16.359 2.00201 16.964 2.12201 17.529 2.35401C18.113 2.59201 18.64 2.95101 19.075 3.40701C19.544 3.87701 19.887 4.39901 20.105 4.97601C20.572 6.11701 20.572 7.39501 20.105 8.53601C19.886 9.13001 19.534 9.66701 19.076 10.105L12.12 17.178C11.589 17.725 10.949 17.997 10.2 17.997C9.45102 17.997 8.81102 17.724 8.28002 17.178C8.02302 16.929 7.82002 16.63 7.68402 16.3C7.54802 15.97 7.47902 15.615 7.48502 15.257C7.48502 14.492 7.75002 13.844 8.28002 13.314L12.449 9.05101C12.589 8.91101 12.762 8.84001 12.965 8.84001C13.064 8.83601 13.163 8.85301 13.256 8.88901C13.349 8.92501 13.433 8.98001 13.504 9.05001C13.66 9.19201 13.738 9.37101 13.738 9.59001C13.738 9.79301 13.668 9.96501 13.528 10.106L9.35902 14.368C9.10902 14.603 8.98402 14.899 8.98402 15.257C8.98402 15.602 9.10902 15.891 9.35902 16.124C9.59302 16.374 9.87402 16.499 10.201 16.499C10.545 16.499 10.834 16.374 11.067 16.124L18.022 9.05201C18.325 8.75701 18.565 8.40401 18.726 8.01301C18.887 7.62201 18.967 7.20201 18.959 6.78001C18.959 5.87501 18.646 5.10101 18.022 4.46201L18.019 4.45901Z" fill="white"/>
</svg>
