<svg width="24" height="24" viewBox="0 0 24 24" fill="none" xmlns="http://www.w3.org/2000/svg">
<path fill-rule="evenodd" clip-rule="evenodd" d="M3.59779 12.0005C3.59779 6.91872 7.71738 2.79913 12.7991 2.79913C17.8809 2.79913 22.0005 6.91872 22.0005 12.0005C22.0005 17.0822 17.8809 21.2018 12.7991 21.2018C11.6349 21.2018 10.5194 20.9852 9.49216 20.5895C9.40277 20.555 9.34738 20.5337 9.30555 20.5187C9.27839 20.5089 9.26628 20.5052 9.26353 20.5044C9.249 20.5011 9.24374 20.5005 9.24374 20.5005C9.24374 20.5005 9.23745 20.4996 9.22078 20.499C9.22542 20.4992 9.21999 20.4985 9.18777 20.5009C9.15243 20.5037 9.10585 20.5084 9.02499 20.5168L3.90483 21.0461C3.6869 21.0686 3.47512 21.0905 3.3009 21.0926C3.12738 21.0946 2.85259 21.0829 2.59425 20.9253C2.28139 20.7345 2.06831 20.4157 2.01159 20.0536C1.96475 19.7547 2.05899 19.4963 2.12721 19.3367C2.1957 19.1765 2.29692 18.9893 2.40107 18.7965L4.041 15.7611C4.11104 15.6314 4.15203 15.5552 4.18047 15.4966C4.19812 15.4602 4.20431 15.4437 4.20577 15.4395C4.2129 15.4112 4.21343 15.4022 4.21343 15.4022C4.21343 15.4022 4.2143 15.3933 4.21247 15.3678C4.21143 15.3626 4.20676 15.3397 4.19161 15.2885C4.16847 15.2102 4.13357 15.1062 4.07791 14.9411C3.76635 14.0168 3.59779 13.0275 3.59779 12.0005ZM12.7991 4.29913C8.5458 4.29913 5.09779 7.74714 5.09779 12.0005C5.09779 12.8625 5.23914 13.69 5.49934 14.462C5.50712 14.4851 5.51496 14.5082 5.52281 14.5313C5.60612 14.777 5.69 15.0243 5.70736 15.2437C5.72343 15.4468 5.70915 15.6141 5.65891 15.8115C5.60476 16.0243 5.49376 16.2289 5.38825 16.4233C5.37901 16.4403 5.36982 16.4572 5.36071 16.4741L3.73442 19.4843C3.72008 19.5108 3.7065 19.536 3.69364 19.5599C3.72061 19.5571 3.74904 19.5542 3.77905 19.5511L8.87076 19.0247C8.8811 19.0237 8.89149 19.0226 8.90194 19.0215C9.02382 19.0088 9.15271 18.9953 9.27809 19.0001C9.39429 19.0045 9.48987 19.0173 9.60317 19.0434C9.72574 19.0716 9.86112 19.1239 9.99441 19.1755C10.0068 19.1802 10.0191 19.185 10.0314 19.1897C10.8894 19.5203 11.8222 19.7018 12.7991 19.7018C17.0525 19.7018 20.5005 16.2538 20.5005 12.0005C20.5005 7.74714 17.0525 4.29913 12.7991 4.29913Z" fill="white"/>
<path d="M13.1902 12.9378C13.0693 12.9862 12.9398 13.0092 12.8097 13.0056V13.0046C12.5287 13.0046 12.2867 12.9116 12.0827 12.7246C11.8957 12.5206 11.8027 12.2786 11.8027 11.9976C11.7989 11.8675 11.8218 11.7381 11.87 11.6172C11.9181 11.4963 11.9905 11.3865 12.0827 11.2946C12.1766 11.1968 12.2895 11.1193 12.4146 11.0668C12.5396 11.0143 12.6741 10.9881 12.8097 10.9896C12.9419 10.9868 13.0732 11.0125 13.1946 11.0652C13.3159 11.1178 13.4244 11.1961 13.5127 11.2946C13.6112 11.3829 13.6895 11.4914 13.7421 11.6127C13.7948 11.7341 13.8205 11.8654 13.8177 11.9976C13.8192 12.1332 13.7929 12.2677 13.7405 12.3927C13.688 12.5178 13.6105 12.6307 13.5127 12.7246C13.4209 12.817 13.3111 12.8895 13.1902 12.9378Z" fill="white"/>
<path d="M9.18222 12.9378C9.06132 12.9862 8.93181 13.0092 8.80165 13.0056V13.0046C8.53665 13.0046 8.30165 12.9116 8.09865 12.7246C7.91165 12.5206 7.81765 12.2786 7.81765 11.9976C7.81404 11.8675 7.83711 11.738 7.88543 11.6171C7.93376 11.4962 8.00632 11.3864 8.09865 11.2946C8.30165 11.0916 8.53665 10.9896 8.80165 10.9896C8.9339 10.9868 9.0652 11.0125 9.18654 11.0652C9.30789 11.1178 9.41641 11.1961 9.50465 11.2946C9.60319 11.3829 9.68146 11.4914 9.73411 11.6127C9.78675 11.7341 9.81253 11.8654 9.80965 11.9976C9.8112 12.1332 9.78494 12.2677 9.73248 12.3927C9.68002 12.5178 9.60248 12.6307 9.50465 12.7246C9.41285 12.817 9.30312 12.8895 9.18222 12.9378Z" fill="white"/>
<path d="M17.7245 12.3927C17.7769 12.2677 17.8032 12.1332 17.8016 11.9976C17.8046 11.8655 17.779 11.7342 17.7265 11.6129C17.6741 11.4915 17.596 11.383 17.4976 11.2946C17.3096 11.0916 17.0826 10.9896 16.8176 10.9896C16.682 10.9881 16.5476 11.0143 16.4225 11.0668C16.2975 11.1193 16.1845 11.1968 16.0906 11.2946C15.9036 11.4816 15.8096 11.7166 15.8096 11.9976C15.805 12.2673 15.9058 12.5282 16.0906 12.7246C16.2936 12.9116 16.5366 13.0046 16.8166 13.0046C16.9431 13.0069 17.0687 12.9832 17.1856 12.935C17.3026 12.8869 17.4084 12.8153 17.4966 12.7246C17.5945 12.6307 17.672 12.5178 17.7245 12.3927Z" fill="white"/>
</svg>
