<svg width="24" height="24" viewBox="0 0 24 24" fill="none" xmlns="http://www.w3.org/2000/svg">
<path d="M10.501 6.49639V19.9854C10.501 20.1254 10.548 20.2514 10.641 20.3604C10.735 20.4544 10.853 20.5004 10.993 20.5004H13.007C13.147 20.5004 13.265 20.4544 13.358 20.3604C13.45 20.2574 13.5 20.1234 13.499 19.9854V6.49639H19.986C20.126 6.49639 20.244 6.44939 20.338 6.35639C20.39 6.31439 20.432 6.26039 20.46 6.19939C20.488 6.13839 20.503 6.07139 20.501 6.00439V4.01439C20.502 3.94739 20.488 3.88039 20.46 3.81939C20.432 3.75839 20.39 3.70439 20.338 3.66239C20.296 3.61039 20.242 3.56839 20.181 3.54039C20.12 3.51239 20.053 3.49739 19.986 3.49939H4.01502C3.94502 3.49939 3.87502 3.51439 3.81102 3.54239C3.74702 3.57039 3.68902 3.61139 3.64102 3.66339C3.59502 3.70939 3.55902 3.76439 3.53502 3.82439C3.51102 3.88439 3.50002 3.94939 3.50102 4.01439V6.00439C3.50102 6.14439 3.54702 6.26239 3.64102 6.35639C3.74402 6.44739 3.87802 6.49739 4.01602 6.49639H10.503H10.501ZM2.00002 4.01439C2.00002 3.45139 2.19602 2.97539 2.58602 2.58539C2.97602 2.19539 3.45202 1.99939 4.01502 1.99939H19.986C20.549 1.99939 21.025 2.19539 21.415 2.58539C21.805 2.97539 22.001 3.45139 22.001 4.01439V6.00439C22.001 6.55139 21.806 7.01939 21.415 7.40939C21.025 7.79939 20.549 7.99539 19.986 7.99539H14.998V19.9854C14.998 20.5484 14.803 21.0244 14.412 21.4144C14.022 21.8044 13.553 22.0004 13.007 22.0004H10.993C10.731 22.0044 10.472 21.9534 10.23 21.8534C9.98802 21.7534 9.77002 21.6034 9.58802 21.4154C9.39802 21.2294 9.24802 21.0074 9.14702 20.7614C9.04602 20.5154 8.99702 20.2524 9.00202 19.9864V7.99639H4.01402C3.45102 7.99639 2.97502 7.80139 2.58502 7.41039C2.19502 7.02039 1.99902 6.55139 1.99902 6.00539V4.01539L2.00002 4.01439Z" fill="white"/>
</svg>
