<svg width="24" height="24" viewBox="0 0 24 24" fill="none" xmlns="http://www.w3.org/2000/svg">
<path d="M13.99 7.24598C14.209 7.24598 14.389 7.32398 14.53 7.48098C14.67 7.62098 14.74 7.79298 14.74 7.99598V8.18398L17.457 5.46598C17.603 5.32998 17.796 5.25498 17.996 5.25598C18.199 5.25598 18.379 5.32598 18.536 5.46598C18.676 5.62298 18.746 5.80298 18.746 6.00598C18.746 6.20898 18.676 6.38898 18.536 6.54598L15.818 9.26198H16.006C16.209 9.26198 16.381 9.33198 16.521 9.47198C16.678 9.61298 16.756 9.79298 16.756 10.012C16.756 10.113 16.735 10.213 16.694 10.306C16.653 10.399 16.595 10.482 16.521 10.551C16.454 10.619 16.374 10.673 16.285 10.709C16.196 10.745 16.102 10.763 16.006 10.761H13.992C13.792 10.763 13.6 10.687 13.453 10.551C13.317 10.405 13.241 10.212 13.243 10.011V7.99898C13.243 7.79598 13.313 7.62398 13.453 7.48398C13.522 7.40998 13.606 7.35098 13.698 7.31098C13.79 7.27098 13.891 7.24998 13.992 7.24898L13.991 7.24798L13.99 7.24598Z" fill="white"/>
<path d="M6.005 12V4.01498C6.005 3.45198 6.201 2.97598 6.591 2.58598C6.981 2.19598 7.449 1.99998 7.996 1.99998H19.986C20.252 1.99498 20.515 2.04398 20.761 2.14498C21.007 2.24598 21.229 2.39598 21.415 2.58598C21.806 2.97598 22.001 3.45198 22.001 4.01498V16.005C22.001 16.551 21.805 17.02 21.415 17.41C21.025 17.8 20.549 17.996 19.986 17.996H12.001V19.986C12.001 20.549 11.805 21.025 11.415 21.415C11.025 21.805 10.557 22.001 10.01 22.001H4.015C3.452 22.001 2.976 21.805 2.586 21.415C2.196 21.025 2 20.549 2 19.986V13.991C2 13.445 2.196 12.976 2.586 12.586C2.976 12.196 3.452 12 4.015 12H6.005ZM20.337 3.66298C20.243 3.55398 20.125 3.49898 19.985 3.49898H7.995C7.928 3.49798 7.861 3.51198 7.8 3.53998C7.739 3.56798 7.685 3.60998 7.643 3.66198C7.55 3.75598 7.503 3.87398 7.503 4.01398V11.999H10.009C10.555 11.999 11.024 12.195 11.414 12.585C11.804 12.975 12 13.443 12 13.99V16.496H19.985C20.05 16.498 20.115 16.486 20.175 16.462C20.235 16.438 20.29 16.401 20.336 16.355C20.445 16.262 20.5 16.144 20.5 16.004V4.01398C20.5 3.87298 20.446 3.75598 20.336 3.66198L20.337 3.66298ZM10.361 20.36C10.452 20.257 10.502 20.123 10.501 19.985V17.995H7.995C7.449 17.995 6.98 17.799 6.59 17.409C6.2 17.019 6.004 16.551 6.004 16.004V13.498H4.014C3.876 13.497 3.743 13.547 3.639 13.639C3.545 13.732 3.499 13.85 3.499 13.99V19.985C3.498 20.123 3.548 20.256 3.639 20.36C3.742 20.451 3.876 20.501 4.014 20.5H10.009C10.074 20.502 10.139 20.49 10.199 20.467C10.259 20.444 10.314 20.407 10.36 20.361L10.361 20.36ZM10.501 14.553L8.558 16.496H10.501V14.553ZM7.504 13.499V15.442L9.447 13.499H7.504Z" fill="white"/>
</svg>
