<svg width="24" height="24" viewBox="0 0 24 24" fill="none" xmlns="http://www.w3.org/2000/svg">
<path d="M16.3052 17.4513C16.5091 17.4514 16.6425 17.5437 16.7026 17.7267L16.979 18.4923C17.0012 18.5571 17.0313 18.6193 17.0698 18.6759C17.1116 18.7177 17.1615 18.7491 17.2241 18.7687L18.022 19.0148C18.205 19.0763 18.2964 19.2083 18.2964 19.4123C18.2963 19.5965 18.2049 19.719 18.022 19.7804L17.2241 20.0255C17.1608 20.0479 17.1072 20.0915 17.0718 20.1486C17.0298 20.1916 16.9981 20.2436 16.98 20.3009L16.7036 21.0675C16.6422 21.2505 16.5078 21.3438 16.3052 21.3439C16.1221 21.3439 15.9975 21.2516 15.936 21.0685L15.6616 20.3009C15.6435 20.2436 15.6118 20.1916 15.5698 20.1486C15.534 20.0912 15.4795 20.0476 15.4155 20.0255L14.6177 19.7804C14.435 19.7189 14.3433 19.5976 14.3433 19.4123C14.3433 19.2084 14.4349 19.0763 14.6177 19.0148L15.4155 18.7687C15.473 18.7506 15.5258 18.719 15.5688 18.6769C15.6073 18.6203 15.6384 18.559 15.6606 18.4943L15.936 17.7267C15.9975 17.5436 16.1208 17.4513 16.3052 17.4513Z" fill="white"/>
<path d="M8.16101 2.65607C8.63543 2.65611 9.08806 2.8568 9.40613 3.2088L11.0995 5.0838C11.2886 5.29313 11.5391 5.41183 11.7968 5.43927C11.8346 5.43339 11.8735 5.4305 11.913 5.43048C11.9526 5.43049 11.9921 5.43334 12.0302 5.43927C12.2877 5.4118 12.5373 5.29307 12.7264 5.0838L14.4208 3.2088C14.7389 2.85689 15.1915 2.65607 15.6659 2.65607H16.8505C17.5489 2.65611 18.2235 2.92473 18.7245 3.40997L21.2108 5.81818C22.2044 6.78057 22.2677 8.33339 21.3505 9.36993L20.1805 10.6922C19.602 11.3458 18.5851 11.3814 17.9598 10.7762C17.9554 10.7719 17.9501 10.7684 17.9501 10.7684L17.9471 10.7674C17.9429 10.7667 17.9331 10.7669 17.9218 10.7713L17.9169 10.7733C17.9165 10.8011 17.9154 10.8296 17.912 10.8572L17.9247 12.0535C17.9293 12.4705 17.5927 12.8113 17.1757 12.8113C16.765 12.8113 16.4311 12.4807 16.4266 12.0701L16.412 10.7108C16.4548 9.3661 18.092 8.80724 19.0077 9.69415C19.0108 9.69703 19.0177 9.70141 19.0311 9.70099C19.0384 9.7007 19.0438 9.69942 19.0468 9.69806C19.0493 9.69684 19.0526 9.69415 19.0526 9.69415L20.2225 8.37091C20.6037 7.94006 20.5802 7.30437 20.163 6.90021L17.6766 4.492C17.4885 4.30979 17.2378 4.19402 16.9677 4.16779L16.8505 4.16193H15.6659C15.6174 4.16193 15.5705 4.18262 15.538 4.21857L13.8446 6.09357C13.5137 6.45983 13.1042 6.70892 12.6669 6.84064V9.88165C12.6669 10.2976 12.3288 10.6345 11.913 10.6346C11.4972 10.6344 11.16 10.2975 11.16 9.88165V6.84064C10.7226 6.70896 10.3133 6.45988 9.9823 6.09357L8.28797 4.21857C8.2717 4.20067 8.25201 4.18626 8.23035 4.17657L8.16101 4.16193H7.39539C7.10287 4.16193 6.82449 4.2678 6.61316 4.45197L3.87976 6.8338C3.3982 7.25358 3.38042 7.96553 3.83582 8.40704L5.19519 9.72345C5.20134 9.72936 5.21255 9.73611 5.23035 9.73615C5.2482 9.7361 5.25938 9.72938 5.26551 9.72345C6.19257 8.82584 7.84943 9.39277 7.89246 10.7527L7.8114 18.1102C7.81527 18.1411 7.81726 18.1727 7.81726 18.2039C7.81726 18.787 8.31262 19.3004 8.97351 19.3006H11.5956L11.6727 19.3045C12.0522 19.3432 12.3485 19.6638 12.3485 20.0535C12.3485 20.4693 12.0113 20.8064 11.5956 20.8065H8.97351C7.54306 20.8062 6.33925 19.6902 6.3114 18.2547L6.39246 10.9002C6.38858 10.8692 6.3866 10.8377 6.3866 10.8065C6.38369 10.8042 6.37844 10.8007 6.37097 10.7977C6.35658 10.7919 6.34346 10.7916 6.33582 10.7928C6.33308 10.7932 6.33038 10.7936 6.328 10.7947C6.32531 10.7961 6.31998 10.7991 6.31336 10.8055C5.71247 11.3875 4.74827 11.3874 4.14734 10.8055L2.78797 9.48907C1.69699 8.43206 1.74609 6.69566 2.89051 5.69806L5.62293 3.31622C6.1128 2.88924 6.74462 2.65607 7.39539 2.65607H8.16101Z" fill="white"/>
<path d="M14.4995 13.9279C14.6552 13.9281 14.7573 13.998 14.8032 14.1378L15.0142 14.7238C15.0312 14.7733 15.0551 14.8201 15.0845 14.8634C15.1164 14.8953 15.1539 14.9197 15.2017 14.9347L15.812 15.1222C15.9519 15.1692 16.022 15.2709 16.022 15.4269C16.0219 15.5677 15.9518 15.6612 15.812 15.7081L15.2017 15.8956C15.1534 15.9127 15.1125 15.9459 15.0854 15.9894C15.0533 16.0224 15.029 16.0627 15.0151 16.1066L14.8042 16.6925C14.7573 16.8323 14.6542 16.9033 14.4995 16.9035C14.3595 16.9035 14.2643 16.8335 14.2173 16.6935L14.0073 16.1066C13.9935 16.0627 13.9691 16.0224 13.937 15.9894C13.9096 15.9456 13.8677 15.9125 13.8188 15.8956L13.2095 15.7081C13.0696 15.6612 12.9996 15.5687 12.9995 15.4269C12.9995 15.2709 13.0695 15.1692 13.2095 15.1222L13.8188 14.9347C13.8628 14.9209 13.9031 14.8966 13.936 14.8644C13.9654 14.8211 13.9894 14.7742 14.0063 14.7248L14.2173 14.1378C14.2643 13.9979 14.3585 13.9279 14.4995 13.9279Z" fill="white"/>
<path d="M18.4546 14.5343C18.5787 14.5344 18.6601 14.59 18.6968 14.7013L18.8647 15.1681C18.8783 15.2075 18.897 15.245 18.9204 15.2794C18.9458 15.3049 18.976 15.3241 19.0142 15.3361L19.4995 15.4855C19.6109 15.5229 19.6675 15.6035 19.6675 15.7277C19.6675 15.8399 19.6109 15.9149 19.4995 15.9523L19.0142 16.1007C18.9756 16.1143 18.943 16.1412 18.9214 16.1759C18.8959 16.2021 18.8768 16.2339 18.8657 16.2687L18.6978 16.7355C18.6603 16.8469 18.5779 16.9034 18.4546 16.9035C18.3432 16.9034 18.2674 16.8479 18.23 16.7365L18.063 16.2687C18.0519 16.2339 18.0328 16.2021 18.0073 16.1759C17.9856 16.141 17.9524 16.1142 17.9136 16.1007L17.4272 15.9523C17.316 15.9148 17.2603 15.8406 17.2603 15.7277C17.2603 15.6036 17.316 15.523 17.4272 15.4855L17.9136 15.3361C17.9484 15.3251 17.9802 15.3059 18.0063 15.2804C18.0297 15.246 18.0485 15.2084 18.062 15.1691L18.23 14.7013C18.2674 14.59 18.3424 14.5343 18.4546 14.5343Z" fill="white"/>
</svg>
