<svg width="24" height="24" viewBox="0 0 24 24" fill="none" xmlns="http://www.w3.org/2000/svg">
<path d="M20.7149 9.51802L14.5099 15.7C13.6509 16.559 12.6129 16.989 11.3949 16.989C10.1919 16.989 9.1629 16.559 8.3039 15.7C7.4449 14.841 7.0149 13.812 7.0149 12.608C7.0149 11.391 7.4449 10.353 8.3039 9.49302L14.4859 3.28802C15.3449 2.42902 16.3819 1.99902 17.6019 1.99902C18.8189 1.99902 19.8569 2.42802 20.7159 3.28702C21.5749 4.14602 22.0049 5.18402 22.0049 6.40202C22.0049 7.62002 21.5739 8.65802 20.7149 9.51802ZM15.5399 4.36502L11.5589 8.34702L15.6569 12.445L19.6389 8.46402C20.2159 7.88602 20.5049 7.19902 20.5049 6.40402C20.5109 6.02302 20.4359 5.64402 20.2869 5.29302C20.1379 4.94202 19.9169 4.62602 19.6379 4.36502C19.0749 3.78802 18.3959 3.49902 17.6009 3.49902C16.8059 3.49902 16.1169 3.78802 15.5399 4.36502Z" fill="white"/>
<path d="M12.9879 20.407C12.9409 20.547 12.8379 20.618 12.6829 20.618C12.5429 20.618 12.4479 20.548 12.4009 20.408L12.1909 19.821C12.1769 19.777 12.1529 19.737 12.1209 19.704C12.0939 19.66 12.0519 19.627 12.0029 19.61L11.3929 19.423C11.2529 19.376 11.1829 19.283 11.1829 19.141C11.1829 18.985 11.2529 18.884 11.3929 18.837L12.0029 18.649C12.0469 18.635 12.0869 18.611 12.1199 18.579C12.1489 18.536 12.1729 18.489 12.1899 18.439L12.4009 17.852C12.4479 17.712 12.5419 17.642 12.6829 17.642C12.8389 17.642 12.9409 17.712 12.9869 17.852L13.1979 18.438C13.2149 18.488 13.2379 18.535 13.2679 18.578C13.2999 18.61 13.3379 18.634 13.3859 18.649L13.9959 18.837C14.1359 18.884 14.2059 18.985 14.2059 19.141C14.2059 19.282 14.1359 19.376 13.9959 19.423L13.3859 19.61C13.3369 19.627 13.2959 19.66 13.2689 19.704C13.2369 19.737 13.2129 19.777 13.1989 19.821L12.9879 20.407Z" fill="white"/>
<path d="M5.0489 22C5.3449 22 5.5409 21.859 5.6349 21.578L6.0569 20.36C6.0849 20.272 6.1329 20.192 6.1969 20.126C6.2689 20.052 6.3569 19.996 6.4549 19.962L7.6969 19.563C7.9779 19.47 8.1179 19.274 8.1179 18.977C8.1179 18.681 7.9779 18.485 7.6959 18.391L6.4549 17.993C6.3619 17.962 6.2759 17.915 6.1969 17.852C6.1389 17.781 6.0919 17.703 6.0569 17.618L5.6349 16.377C5.5409 16.095 5.3459 15.955 5.0489 15.955C4.7669 15.955 4.5799 16.096 4.4869 16.377L4.0649 17.618C4.0269 17.706 3.9709 17.786 3.9009 17.853C3.8349 17.917 3.7539 17.965 3.6659 17.993L2.4249 18.391C2.1429 18.485 2.0029 18.68 2.0029 18.977C2.0029 19.274 2.1439 19.47 2.4249 19.563L3.6659 19.962C3.7589 19.992 3.8399 20.049 3.9009 20.126C3.9769 20.186 4.0339 20.267 4.0649 20.36L4.4869 21.578C4.5799 21.86 4.7679 22 5.0489 22Z" fill="white"/>
<path d="M4.7449 12.023C4.6819 12.195 4.5489 12.281 4.3449 12.281C4.1579 12.281 4.0329 12.195 3.9709 12.023L3.7599 11.414C3.7439 11.352 3.7119 11.295 3.6659 11.25C3.6209 11.204 3.5639 11.172 3.5019 11.156L2.8919 10.946C2.7049 10.898 2.6119 10.781 2.6119 10.594C2.6119 10.391 2.7049 10.258 2.8919 10.195L3.5019 9.98502C3.5639 9.97002 3.6209 9.93702 3.6659 9.89102C3.7119 9.84602 3.7439 9.78902 3.7599 9.72702L3.9699 9.11702C4.0329 8.94502 4.1579 8.85902 4.3459 8.85902C4.5489 8.85902 4.6819 8.94502 4.7439 9.11702L4.9549 9.72702C4.9709 9.78902 5.0029 9.84602 5.0489 9.89102C5.0949 9.93602 5.1509 9.96902 5.2129 9.98402L5.8229 10.195C6.0099 10.258 6.1029 10.391 6.1029 10.594C6.1029 10.781 6.0099 10.898 5.8229 10.945L5.2129 11.156C5.1509 11.172 5.0939 11.204 5.0489 11.25C5.0039 11.296 4.9709 11.352 4.9549 11.414L4.7449 12.023Z" fill="white"/>
</svg>
