<svg width="24" height="24" viewBox="0 0 24 24" fill="none" xmlns="http://www.w3.org/2000/svg">
<path d="M14.017 12.1301C13.34 12.1341 12.669 11.9971 12.048 11.7271C11.45 11.4711 10.904 11.1091 10.434 10.6591C9.98398 10.1901 9.62198 9.64308 9.36598 9.04608C9.09598 8.42508 8.95898 7.75408 8.96298 7.07708C8.96298 6.36508 9.09798 5.70808 9.36598 5.10708C9.63498 4.49108 9.99198 3.95308 10.434 3.49508C10.898 3.03308 11.446 2.66208 12.048 2.40408C12.669 2.13408 13.34 1.99608 14.017 2.00008C14.729 2.00008 15.386 2.13508 15.986 2.40408C16.603 2.67208 17.141 3.03708 17.6 3.49508C18.059 3.95308 18.423 4.49108 18.691 5.10908C18.964 5.72908 19.102 6.40008 19.095 7.07808C19.095 7.77308 18.96 8.43008 18.691 9.04708C18.432 9.64908 18.062 10.1961 17.6 10.6601C17.131 11.1101 16.585 11.4721 15.988 11.7281C15.368 12.0011 14.696 12.1381 14.018 12.1311L14.017 12.1301ZM14.017 10.6121C14.998 10.6121 15.836 10.2721 16.532 9.59208C16.868 9.26608 17.134 8.87508 17.314 8.44308C17.494 8.01108 17.582 7.54608 17.575 7.07808C17.575 6.09708 17.228 5.25908 16.532 4.56308C16.206 4.22708 15.815 3.96008 15.382 3.78108C14.949 3.60208 14.485 3.51308 14.016 3.52008C13.035 3.52008 12.197 3.86708 11.502 4.56308C11.171 4.89208 10.911 5.28508 10.736 5.71708C10.561 6.14908 10.474 6.61208 10.482 7.07908C10.482 8.06008 10.822 8.89808 11.502 9.59308C11.831 9.92308 12.223 10.1841 12.655 10.3591C13.087 10.5341 13.55 10.6211 14.016 10.6131L14.017 10.6121Z" fill="white"/>
<path d="M5.98639 15.1464C5.96239 15.2404 5.91739 15.3284 5.85539 15.4034C5.38039 15.9734 5.06339 16.6764 4.90639 17.5144C4.74839 18.3364 4.66939 19.2384 4.66939 20.2194C4.67239 20.3224 4.65239 20.4244 4.61139 20.5194C4.57039 20.6144 4.50839 20.6984 4.43139 20.7664C4.28939 20.9084 4.11539 20.9794 3.91039 20.9794C3.68839 20.9794 3.50639 20.9084 3.36339 20.7664C3.22139 20.6234 3.15039 20.4414 3.15039 20.2194C3.15339 19.2094 3.24039 18.2024 3.41139 17.2074C3.58539 16.1964 4.01839 15.2484 4.66839 14.4544C4.73039 14.3734 4.80939 14.3064 4.89839 14.2574C4.98739 14.2084 5.08739 14.1794 5.18939 14.1714C5.38639 14.1524 5.58239 14.2124 5.73539 14.3374C5.81139 14.4024 5.87339 14.4824 5.91839 14.5724C5.96339 14.6624 5.98939 14.7594 5.99739 14.8594C6.01439 14.9554 6.01039 15.0524 5.98639 15.1464Z" fill="white"/>
<path d="M8.89159 19.1752C8.76459 19.8092 8.70159 20.4972 8.70159 21.2402C8.70259 21.4432 8.62659 21.6393 8.48759 21.7873C8.41559 21.8583 8.33059 21.9132 8.23759 21.9492C8.14459 21.9852 8.04359 22.0033 7.94359 21.9993C7.73759 21.9993 7.55459 21.9282 7.39659 21.7862C7.25459 21.6272 7.18359 21.4453 7.18359 21.2393C7.18359 20.4643 7.25459 19.6653 7.39659 18.8433C7.54959 18.0323 7.89059 17.2683 8.39259 16.6133C8.91459 15.9173 9.63459 15.3792 10.5516 14.9992C11.4696 14.6032 12.6236 14.4062 14.0156 14.4062C15.4236 14.4062 16.5856 14.6042 17.5026 14.9992C18.4206 15.3782 19.1406 15.9163 19.6616 16.6133C20.1636 17.2663 20.4976 18.0313 20.6356 18.8433C20.7776 19.6653 20.8486 20.4643 20.8486 21.2393C20.8496 21.4423 20.7736 21.6382 20.6346 21.7862C20.5626 21.8572 20.4776 21.9123 20.3846 21.9482C20.2916 21.9842 20.1906 22.0022 20.0906 21.9982C19.8846 21.9982 19.7016 21.9272 19.5436 21.7852C19.4006 21.6262 19.3296 21.4443 19.3296 21.2383C19.3296 20.4953 19.2666 19.8073 19.1406 19.1733C19.0296 18.5413 18.8006 17.9893 18.4526 17.5133C18.1206 17.0713 17.6146 16.6992 16.9346 16.3993C16.2546 16.0822 15.2826 15.9242 14.0176 15.9242C12.7676 15.9242 11.8026 16.0822 11.1226 16.3993C10.4426 16.7003 9.93659 17.0713 9.60459 17.5133C9.25759 17.9893 9.01959 18.5413 8.89259 19.1733L8.89159 19.1752Z" fill="white"/>
<path d="M7.493 6.622C7.631 6.474 7.707 6.278 7.706 6.075C7.706 5.973 7.684 5.872 7.644 5.778C7.604 5.684 7.544 5.6 7.469 5.53C7.397 5.459 7.312 5.404 7.218 5.367C7.124 5.33 7.024 5.313 6.923 5.317C6.824 5.316 6.726 5.337 6.636 5.378C6.546 5.419 6.466 5.479 6.402 5.554C6.017 5.942 5.711 6.401 5.501 6.906C5.279 7.431 5.165 7.996 5.168 8.566C5.168 9.594 5.485 10.496 6.117 11.272C6.765 12.046 7.564 12.545 8.513 12.766C8.711 12.799 8.914 12.757 9.082 12.648C9.172 12.599 9.25 12.531 9.311 12.449C9.372 12.367 9.416 12.273 9.438 12.173C9.462 12.075 9.464 11.974 9.444 11.875C9.424 11.776 9.381 11.684 9.32 11.604C9.267 11.519 9.198 11.446 9.116 11.389C9.034 11.332 8.942 11.292 8.844 11.272C8.239 11.136 7.696 10.802 7.302 10.323C6.895 9.829 6.677 9.207 6.686 8.568C6.686 8.188 6.757 7.832 6.899 7.5C7.043 7.152 7.24 6.859 7.493 6.622Z" fill="white"/>
</svg>
