<svg width="24" height="24" viewBox="0 0 24 24" fill="none" xmlns="http://www.w3.org/2000/svg">
<path d="M10.6271 3.89608C10.6271 3.99908 10.6051 4.10008 10.5641 4.19408C10.5231 4.28808 10.4631 4.37308 10.3881 4.44308C10.3201 4.51208 10.2391 4.56708 10.1491 4.60308C10.0591 4.63908 9.96309 4.65708 9.86609 4.65608H6.82409C5.90409 4.65608 5.12109 4.98008 4.47209 5.63108C4.16409 5.93008 3.92109 6.28808 3.75809 6.68508C3.59509 7.08208 3.51409 7.50708 3.52109 7.93608V16.0641C3.52109 16.9661 3.83709 17.7431 4.47109 18.3921C5.12009 19.0261 5.90509 19.3431 6.82309 19.3431H9.86509C10.0721 19.3431 10.2461 19.4221 10.3881 19.5801C10.5461 19.7221 10.6261 19.8971 10.6261 20.1031C10.6291 20.2061 10.6091 20.3081 10.5681 20.4031C10.5271 20.4981 10.4651 20.5821 10.3881 20.6501C10.3201 20.7191 10.2391 20.7741 10.1491 20.8111C10.0591 20.8481 9.96309 20.8651 9.86609 20.8631H6.82409C6.17909 20.8671 5.53909 20.7381 4.94609 20.4841C4.37209 20.2541 3.84709 19.9151 3.40209 19.4861C2.97109 19.0371 2.62409 18.5131 2.38009 17.9411C2.12509 17.3481 1.99609 16.7091 2.00009 16.0641V7.93608C2.00009 7.27108 2.12709 6.64408 2.38009 6.05808C2.88309 4.91608 3.80009 4.00808 4.94609 3.51608C5.53909 3.26108 6.17809 3.13208 6.82409 3.13608H9.86609C10.0721 3.13608 10.2461 3.20708 10.3881 3.34908C10.5461 3.49208 10.6261 3.67308 10.6261 3.89708L10.6271 3.89608Z" fill="white"/>
<path d="M16.8915 17.1094L22.0005 12.0004L16.8925 6.89036C16.8205 6.81936 16.7345 6.76336 16.6405 6.72736C16.5465 6.69136 16.4455 6.67336 16.3445 6.67736C16.1385 6.67736 15.9645 6.74936 15.8215 6.89136C15.6795 7.04936 15.6085 7.23236 15.6085 7.43736C15.6075 7.64036 15.6835 7.83636 15.8225 7.98536L19.0775 11.2414H10.2855C10.1825 11.2384 10.0795 11.2584 9.98552 11.2994C9.89152 11.3404 9.80652 11.4014 9.73852 11.4794C9.59652 11.6224 9.52552 11.7964 9.52552 12.0014C9.52352 12.2044 9.59952 12.4004 9.73852 12.5494C9.81052 12.6204 9.89552 12.6764 9.99052 12.7134C10.0855 12.7504 10.1855 12.7674 10.2865 12.7634H19.0785L15.8225 16.0194C15.6805 16.1774 15.6095 16.3604 15.6095 16.5654C15.6075 16.7684 15.6845 16.9644 15.8235 17.1134C15.8915 17.1824 15.9725 17.2374 16.0625 17.2744C16.1525 17.3114 16.2485 17.3284 16.3455 17.3264C16.4465 17.3304 16.5465 17.3134 16.6405 17.2764C16.7345 17.2394 16.8195 17.1844 16.8915 17.1134V17.1094Z" fill="white"/>
</svg>
