<svg width="24" height="24" viewBox="0 0 24 24" fill="none" xmlns="http://www.w3.org/2000/svg">
<path d="M18.1395 3.44695H6.58248C5.91948 3.44695 5.34848 3.68795 4.86748 4.16895C4.64148 4.38795 4.46248 4.65195 4.34248 4.94295C4.22248 5.23395 4.16248 5.54695 4.16748 5.86195V12.837C4.16748 13.236 3.84448 13.559 3.44548 13.559C3.04648 13.559 2.72348 13.236 2.72348 12.837V5.86195C2.72348 4.79295 3.09948 3.88295 3.85248 3.13095C4.60548 2.37895 5.51548 2.00195 6.58348 2.00195H18.1405C19.2095 2.00195 20.1195 2.37795 20.8715 3.13095C21.6235 3.88395 22.0005 4.79395 22.0005 5.86195V17.419C22.0005 18.488 21.6245 19.398 20.8715 20.15C20.1185 20.902 19.2085 21.279 18.1405 21.279H11.1655C10.7665 21.279 10.4435 20.956 10.4435 20.557C10.4435 20.158 10.7665 19.835 11.1655 19.835H18.1405C18.8035 19.835 19.3665 19.602 19.8335 19.135C20.3155 18.653 20.5555 18.082 20.5555 17.42C20.5555 5.42734 20.5545 18.1921 20.5545 5.86095C20.5545 5.19795 20.3135 4.63495 19.8325 4.16795C19.3655 3.68595 18.8015 3.44695 18.1395 3.44695Z" fill="white"/>
<path d="M5.89248 14.826C5.80348 14.791 5.70748 14.775 5.61148 14.779C5.41848 14.777 5.23348 14.85 5.09248 14.981C5.02548 15.049 4.97248 15.131 4.93748 15.22C4.90248 15.309 4.88648 15.405 4.89048 15.501V17.668H2.72348C2.53048 17.667 2.34448 17.739 2.20348 17.871C2.13648 17.939 2.08348 18.02 2.04848 18.109C2.01348 18.198 1.99748 18.293 2.00048 18.389C1.99848 18.582 2.07148 18.768 2.20248 18.909C2.34348 19.041 2.52948 19.114 2.72248 19.112H4.88948V21.279C4.88748 21.371 4.90448 21.463 4.93948 21.548C4.97448 21.633 5.02648 21.711 5.09148 21.775C5.15748 21.846 5.23848 21.903 5.32748 21.942C5.41648 21.981 5.51348 22.001 5.61048 22.001C5.70848 22.004 5.80548 21.985 5.89548 21.946C5.98548 21.907 6.06548 21.848 6.13048 21.775C6.26548 21.64 6.33248 21.475 6.33248 21.278V19.111H8.49948C8.59548 19.115 8.69048 19.098 8.78048 19.064C8.87048 19.03 8.95148 18.977 9.01948 18.909C9.15448 18.759 9.22148 18.585 9.22148 18.39C9.22148 18.179 9.15448 18.006 9.01948 17.87C8.95148 17.803 8.86948 17.75 8.78048 17.715C8.69148 17.68 8.59548 17.664 8.49948 17.668H6.33248V15.501C6.33248 15.29 6.26548 15.117 6.13048 14.981C6.06248 14.913 5.98048 14.861 5.89148 14.826H5.89248Z" fill="white"/>
<path fill-rule="evenodd" clip-rule="evenodd" d="M8.46108 8.34148C8.23085 8.59095 8.06735 8.89568 7.98614 9.22683C7.90543 9.58527 7.94166 9.90908 8.02252 10.3148C8.1146 10.6933 8.29755 11.1135 8.57984 11.5739C8.8976 12.0756 9.25502 12.5512 9.64935 12.9956L9.65088 12.9973C9.86123 13.2379 10.0792 13.4712 10.3047 13.6967C10.5359 13.928 10.768 14.1556 11.0003 14.3807C11.2388 14.5959 11.4718 14.7992 11.7013 14.9893L11.7028 14.9905C11.9342 15.1844 12.155 15.3672 12.365 15.5405C12.5749 15.3681 12.7957 15.1848 13.0268 14.9907C13.2568 14.7987 13.4877 14.5949 13.7176 14.3805C13.9574 14.1572 14.1929 13.929 14.4251 13.6967C14.6547 13.4672 14.8726 13.2339 15.079 12.9979L15.0803 12.9963C15.4743 12.5517 15.8323 12.0761 16.1499 11.5745C16.4325 11.1127 16.6154 10.6935 16.7074 10.3146C16.7886 9.91066 16.8203 9.5877 16.7326 9.23035L16.7312 9.22433C16.6518 8.8713 16.4745 8.54719 16.2194 8.29047C16.0267 8.09889 15.8391 7.96096 15.6572 7.86999L15.6529 7.86788C15.4714 7.77373 15.3026 7.72089 15.1452 7.70275C14.9652 7.68517 14.7841 7.70134 14.6104 7.75071L14.6077 7.75148C14.4322 7.79969 14.2325 7.90062 14.0068 8.06861L13.4163 8.566C13.1154 8.81813 12.76 8.946 12.366 8.946C11.9721 8.946 11.6173 8.81865 11.3164 8.56652L10.725 8.06789C10.5018 7.90143 10.2984 7.80023 10.1157 7.75157L10.1082 7.74958C9.93898 7.70014 9.76193 7.68369 9.58748 7.7015C9.42858 7.7202 9.25477 7.77304 9.06485 7.86828C8.89044 7.95878 8.706 8.09656 8.51321 8.28935L8.46108 8.34148ZM11.5918 6.96758L12.2207 7.50215C12.2648 7.53934 12.3093 7.55562 12.366 7.55562H12.3688C12.4207 7.55607 12.4699 7.53793 12.5084 7.50472L12.5104 7.50305L13.1404 6.96865L13.1497 6.96188C13.4943 6.70961 13.848 6.52644 14.2092 6.42048C14.5575 6.3164 14.9236 6.28445 15.2849 6.3273C15.6396 6.36365 15.9835 6.46672 16.2996 6.63074L16.3032 6.63264C16.6411 6.81354 16.9483 7.04695 17.2134 7.32367C17.6488 7.75647 17.9504 8.30591 18.0821 8.9061C18.2249 9.49803 18.2193 10.0748 18.0564 10.6294C17.9291 11.1828 17.6872 11.74 17.3379 12.2998L17.3363 12.3024C16.9743 12.8703 16.5687 13.4084 16.1228 13.9124C15.666 14.4325 15.1802 14.9263 14.6674 15.3911C14.1923 15.8244 13.703 16.2423 13.2008 16.6444C12.9586 16.8452 12.6773 16.951 12.3655 16.951C12.054 16.951 11.772 16.8455 11.53 16.6442C11.0278 16.2422 10.5385 15.8242 10.0634 15.391C9.54963 14.9246 9.06027 14.4318 8.59816 13.9138L8.59529 13.9106C8.1562 13.4048 7.75501 12.8673 7.39517 12.3023L7.3935 12.2997C7.04428 11.7394 6.80237 11.1828 6.67511 10.6292C6.51297 10.0756 6.50243 9.49918 6.63813 8.90648L6.6384 8.90531C6.77796 8.30611 7.08279 7.75814 7.51901 7.32387C7.78388 7.04677 8.09126 6.81397 8.42887 6.63322L8.43176 6.63167C8.74355 6.46883 9.08349 6.365 9.43462 6.3274C9.80011 6.28384 10.1709 6.31577 10.5231 6.41982C10.8846 6.52623 11.2379 6.70872 11.5824 6.9607L11.5918 6.96758Z" fill="white"/>
</svg>
