<svg width="24" height="24" viewBox="0 0 24 24" fill="none" xmlns="http://www.w3.org/2000/svg">
<path d="M3.52139 19.2488C3.65603 18.6521 3.93336 18.1082 4.32331 17.6762C4.72076 17.2134 5.33755 16.8287 6.17456 16.5199C7.0107 16.1963 8.17585 16.0345 9.67001 16.0345C11.1651 16.0345 12.3293 16.1963 13.1655 16.5199C14.0025 16.8277 14.6193 17.2134 15.0167 17.6762C15.4067 18.1082 15.684 18.6521 15.8186 19.2488C15.9555 19.8496 16.0248 20.5047 16.0248 21.2141C16.0233 21.4117 16.0893 21.6024 16.2091 21.7469C16.3374 21.8814 16.5066 21.9555 16.682 21.9541C16.7693 21.9577 16.8564 21.9412 16.9379 21.9056C17.0194 21.87 17.0935 21.8159 17.1558 21.7469C17.2786 21.592 17.34 21.4144 17.34 21.2141C17.34 20.4436 17.2514 19.6494 17.0733 18.8325C16.9083 18.0156 16.5311 17.2756 15.9415 16.6126C15.3659 15.9654 14.571 15.4642 13.5568 15.11C12.5417 14.74 11.2467 14.5546 9.67001 14.5546C8.09337 14.5546 6.79837 14.7391 5.78325 15.11C4.76901 15.4642 3.97411 15.9654 3.39856 16.6126C2.80809 17.2756 2.42467 18.0156 2.24657 18.8325C2.0825 19.6494 2.00003 20.4436 2.00003 21.2141C1.99851 21.4117 2.06446 21.6024 2.18427 21.7469C2.24649 21.8159 2.32062 21.87 2.4021 21.9056C2.48358 21.9412 2.57069 21.9577 2.65805 21.9541C2.74196 21.956 2.82533 21.9386 2.90303 21.903C2.98074 21.8674 3.05114 21.8142 3.1099 21.7469C3.17483 21.6786 3.22662 21.5961 3.26208 21.5045C3.29754 21.4129 3.31592 21.314 3.31608 21.2141C3.311 20.5519 3.37998 19.8916 3.52139 19.2488Z" fill="white"/>
<path d="M19.6921 5.50963C19.7328 5.60312 19.7523 5.70443 19.7494 5.80634V7.30164H21.2538C21.3495 7.29979 21.4445 7.31758 21.5331 7.35393C21.6217 7.39029 21.7019 7.44442 21.7688 7.513C21.8449 7.58013 21.9054 7.66318 21.946 7.75631C21.9866 7.84943 22.0063 7.95034 22.0038 8.05192C22.0036 8.1534 21.9827 8.25377 21.9423 8.34681C21.9019 8.43986 21.8428 8.5236 21.7688 8.59285C21.6288 8.73309 21.4568 8.80321 21.2538 8.80321H19.7494V10.3033C19.7492 10.4047 19.7283 10.5051 19.6879 10.5981C19.6475 10.6912 19.5884 10.7749 19.5144 10.8442C19.3744 10.9844 19.2024 11.0546 18.9994 11.0546C18.7804 11.0546 18.6004 10.9844 18.4594 10.8442C18.3194 10.6879 18.2494 10.5076 18.2494 10.3033V8.80321H16.7505C16.5315 8.80321 16.3515 8.73309 16.2105 8.59285C16.0705 8.43658 16.0005 8.25627 16.0005 8.05293C15.9968 7.95318 16.0135 7.85373 16.0496 7.7607C16.0857 7.66767 16.1405 7.58304 16.2105 7.512C16.2814 7.44188 16.3659 7.38704 16.4588 7.35086C16.5516 7.31468 16.6509 7.29793 16.7505 7.30164H18.2494V5.80634C18.2457 5.7066 18.2624 5.60715 18.2986 5.51412C18.3347 5.42109 18.3894 5.33646 18.4594 5.26542C18.5303 5.1953 18.6148 5.14046 18.7077 5.10428C18.8006 5.0681 18.8998 5.05135 18.9994 5.05506C19.0951 5.05308 19.1901 5.07072 19.2786 5.10689C19.3672 5.14307 19.4475 5.19702 19.5144 5.26542C19.5909 5.33277 19.6515 5.41615 19.6921 5.50963Z" fill="white"/>
<path d="M9.66563 12.0545C8.99669 12.0583 8.33428 11.9228 7.72063 11.6565C7.13024 11.4034 6.59028 11.046 6.12663 10.6015C5.66991 10.1429 5.30414 9.60209 5.04863 9.00748C4.79709 8.39007 4.66966 7.72915 4.67363 7.06248C4.67363 6.35948 4.79863 5.71048 5.04863 5.11648C5.31363 4.50748 5.67363 3.97648 6.12663 3.52348C6.58508 3.0664 7.12594 2.70028 7.72063 2.44448C8.3342 2.1778 8.99662 2.04191 9.66563 2.04548C10.3536 2.04548 11.0016 2.17848 11.6106 2.44448C12.2206 2.70948 12.7506 3.06948 13.2046 3.52248C13.6576 3.97548 14.0176 4.50648 14.2826 5.11648C14.5326 5.70948 14.6576 6.35848 14.6576 7.06148C14.6576 7.74848 14.5326 8.39748 14.2826 9.00648C14.0271 9.60109 13.6613 10.1419 13.2046 10.6005C12.741 11.045 12.201 11.4024 11.6106 11.6555C10.997 11.9221 10.3346 12.058 9.66563 12.0545ZM9.66563 10.5545C10.6346 10.5545 11.4556 10.2185 12.1256 9.54648C12.4582 9.2249 12.7214 8.83858 12.8989 8.41135C13.0764 7.98413 13.1644 7.52506 13.1576 7.06248C13.1576 6.09348 12.8136 5.26548 12.1266 4.57748C11.4546 3.89048 10.6346 3.54748 9.66563 3.54748C8.69663 3.54748 7.86863 3.89048 7.18163 4.57748C6.85514 4.90262 6.59759 5.29028 6.42439 5.71726C6.25119 6.14424 6.1659 6.60177 6.17363 7.06248C6.17363 8.03148 6.50963 8.85948 7.18163 9.54648C7.50665 9.87285 7.89414 10.1303 8.32095 10.3035C8.74775 10.4767 9.20509 10.5621 9.66563 10.5545Z" fill="white"/>
</svg>
