<svg width="24" height="24" viewBox="0 0 24 24" fill="none" xmlns="http://www.w3.org/2000/svg">
<path d="M6.74854 5.77177C6.31394 5.06339 6.24625 4.15269 6.64938 3.35694C7.26708 2.13766 8.75624 1.64998 9.97553 2.26767C10.5177 2.54236 11.2749 3.18102 11.8371 3.84267C11.8921 3.90739 11.9466 3.97391 12 4.04191C12.0534 3.97391 12.1079 3.90739 12.1629 3.84267C12.7251 3.18102 13.4823 2.54236 14.0245 2.26767C15.2438 1.64998 16.7329 2.13766 17.3506 3.35694C17.7537 4.15269 17.6861 5.06339 17.2515 5.77177H20C21.1046 5.77177 22 6.6672 22 7.77177V9.77177C22 10.7037 21.3626 11.4867 20.5 11.7088V19.9951C20.5 21.0996 19.6046 21.9951 18.5 21.9951H5.5C4.39543 21.9951 3.5 21.0996 3.5 19.9951V11.7088C2.63739 11.4867 2 10.7037 2 9.77177V7.77177C2 6.6672 2.89543 5.77177 4 5.77177H6.74854ZM7.98747 4.03482C7.74416 4.5151 7.93626 5.10169 8.41653 5.345C8.7241 5.50081 9.47442 5.70315 10.2167 5.75622C10.5812 5.78228 10.8886 5.76764 11.1037 5.71883C11.1629 5.7054 11.2055 5.69181 11.2354 5.68025C11.227 5.64929 11.2128 5.60691 11.1886 5.55124C11.1007 5.34891 10.9307 5.09245 10.6941 4.81396C10.2122 4.24685 9.60521 3.76157 9.29764 3.60576C8.81737 3.36245 8.23078 3.55455 7.98747 4.03482ZM16.0125 4.03482C15.7692 3.55455 15.1826 3.36245 14.7024 3.60576C14.3948 3.76157 13.7878 4.24685 13.3059 4.81396C13.0693 5.09245 12.8993 5.34891 12.8114 5.55124C12.7872 5.60691 12.773 5.64929 12.7646 5.68025C12.7945 5.69181 12.8371 5.7054 12.8963 5.71883C13.1114 5.76764 13.4188 5.78228 13.7833 5.75622C14.5256 5.70315 15.2759 5.50081 15.5835 5.345C16.0637 5.10169 16.2558 4.5151 16.0125 4.03482ZM20.5 9.77177V7.77177C20.5 7.49562 20.2761 7.27177 20 7.27177H15.5V10.2718H20C20.2761 10.2718 20.5 10.0479 20.5 9.77177ZM14 7.27177H10V10.2718H14V7.27177ZM8.5 7.27177H4C3.72386 7.27177 3.5 7.49563 3.5 7.77177V9.77177C3.5 10.0479 3.72386 10.2718 4 10.2718H8.5V7.27177ZM5 19.9951C5 20.2712 5.22386 20.4951 5.5 20.4951H10V11.7718H5V19.9951ZM11.5 20.4951H12.5V11.7718H11.5V20.4951ZM18.5 20.4951C18.7761 20.4951 19 20.2712 19 19.9951V11.7718H14V20.4951H18.5Z" fill="white"/>
</svg>
