<svg width="24" height="24" viewBox="0 0 24 24" fill="none" xmlns="http://www.w3.org/2000/svg">
<path d="M7.99621 10.244C7.89521 10.244 7.79521 10.265 7.70221 10.306C7.60921 10.347 7.52621 10.405 7.45721 10.479C7.38921 10.546 7.33521 10.626 7.29921 10.715C7.26321 10.804 7.24521 10.898 7.24721 10.994C7.24721 11.213 7.31721 11.393 7.45721 11.534C7.61321 11.674 7.79321 11.744 7.99721 11.744H13.9932C14.0922 11.748 14.1912 11.731 14.2832 11.695C14.3752 11.659 14.4592 11.604 14.5302 11.535C14.6002 11.464 14.6552 11.38 14.6912 11.287C14.7272 11.194 14.7442 11.095 14.7412 10.995C14.7432 10.899 14.7252 10.805 14.6892 10.716C14.6532 10.627 14.5992 10.547 14.5312 10.48C14.4642 10.404 14.3812 10.343 14.2872 10.302C14.1932 10.261 14.0932 10.242 13.9912 10.245H7.99521L7.99621 10.244Z" fill="white"/>
<path d="M10.9942 19.987C9.79521 19.994 8.60721 19.756 7.50521 19.286C6.43821 18.835 5.46821 18.183 4.64721 17.365C3.83021 16.544 3.17821 15.574 2.72721 14.507C2.24021 13.401 1.99221 12.204 2.00121 10.995C2.00121 9.76198 2.24321 8.59898 2.72721 7.50598C3.17721 6.43898 3.82921 5.46798 4.64721 4.64698C5.46821 3.82998 6.43821 3.17898 7.50521 2.72798C8.60421 2.24298 9.79321 1.99498 10.9942 2.00198C12.2432 2.00198 13.4142 2.24398 14.5072 2.72798C15.5742 3.17898 16.5442 3.83098 17.3652 4.64898C18.1822 5.46898 18.8332 6.43898 19.2842 7.50498C19.7542 8.60798 19.9932 9.79498 19.9862 10.994C19.9952 12.201 19.7552 13.397 19.2842 14.507C18.8332 15.574 18.1812 16.544 17.3632 17.365C16.5422 18.182 15.5722 18.834 14.5052 19.285C13.3952 19.757 12.2002 19.996 10.9942 19.987ZM10.9942 18.488C12.0002 18.496 12.9972 18.297 13.9222 17.902C15.7152 17.141 17.1422 15.714 17.9032 13.921C18.2972 12.996 18.4972 11.999 18.4892 10.993C18.4892 9.96298 18.2942 8.99498 17.9032 8.08897C17.5292 7.19298 16.9802 6.38098 16.2872 5.70098C15.6042 5.02198 14.8032 4.47398 13.9222 4.08398C12.9972 3.68998 12.0002 3.48997 10.9942 3.49797C9.96421 3.49797 8.99521 3.69398 8.09021 4.08398C7.20021 4.46898 6.39021 5.01697 5.70221 5.69998C5.01921 6.38798 4.47021 7.19798 4.08521 8.08798C3.69221 9.00598 3.49321 9.99498 3.49921 10.993C3.49921 12.039 3.69521 13.016 4.08521 13.921C4.47821 14.807 5.02521 15.615 5.70121 16.309C6.38621 16.99 7.19721 17.531 8.08921 17.902C8.99521 18.292 9.96421 18.488 10.9942 18.488Z" fill="white"/>
<path d="M18.4742 18.053C18.3812 18.093 18.2982 18.154 18.2302 18.23C18.0742 18.371 17.9962 18.551 17.9962 18.769C17.9942 18.874 18.0142 18.978 18.0552 19.074C18.0962 19.17 18.1552 19.258 18.2302 19.331L20.6662 21.766C20.7372 21.84 20.8232 21.898 20.9172 21.938C21.0112 21.978 21.1132 21.999 21.2162 21.999C21.3192 21.999 21.4202 21.978 21.5152 21.938C21.6092 21.898 21.6952 21.839 21.7662 21.766C21.8402 21.695 21.8982 21.609 21.9382 21.515C21.9782 21.421 21.9992 21.319 21.9992 21.216C21.9992 21.113 21.9782 21.012 21.9382 20.917C21.8982 20.822 21.8392 20.737 21.7662 20.666L19.3312 18.23C19.1752 18.074 18.9872 17.996 18.7692 17.996C18.6672 17.993 18.5662 18.012 18.4732 18.053H18.4742Z" fill="white"/>
</svg>
