<svg width="24" height="24" viewBox="0 0 24 24" fill="none" xmlns="http://www.w3.org/2000/svg">
<path d="M12.7745 2.00007C13.6525 1.99607 14.5235 2.16707 15.3345 2.50307C16.1165 2.82207 16.8305 3.28707 17.4375 3.87407C17.8735 4.29907 18.2475 4.78207 18.5495 5.30807L20.3365 3.80307C20.6495 3.54007 21.1135 3.57707 21.3735 3.88607C21.6335 4.19507 21.5915 4.65907 21.2785 4.92207L3.66447 19.7551C3.35147 20.0181 2.88747 19.9811 2.62747 19.6721C2.36747 19.3631 2.40947 18.8991 2.72247 18.6361L4.36547 17.2521C4.38547 17.2111 4.40747 17.1711 4.43247 17.1301C4.86947 16.4361 5.20047 15.6811 5.41547 14.8891C5.65947 14.0671 5.83347 13.2441 5.94147 12.4221C6.04947 11.6001 6.10947 10.8371 6.12447 10.1361C6.15447 9.42007 6.16947 8.84907 6.16947 8.42207C6.16247 7.55607 6.34247 6.69907 6.69647 5.90807C7.03647 5.14707 7.51647 4.45607 8.11347 3.87407C8.72047 3.28707 9.43447 2.82107 10.2165 2.50307C11.0235 2.16807 11.8775 2.00007 12.7765 2.00007H12.7745ZM17.4115 6.26507C17.1535 5.77407 16.8145 5.32807 16.4085 4.94907C15.9515 4.49207 15.4095 4.12507 14.7855 3.85207C14.1475 3.59007 13.4635 3.45807 12.7735 3.46307C12.0845 3.45807 11.4005 3.59007 10.7625 3.85107C10.1525 4.11607 9.59447 4.48707 9.11647 4.94907C8.65747 5.39407 8.28547 5.92107 8.01947 6.50307C7.76047 7.09707 7.63147 7.73807 7.63147 8.42307C7.63147 8.85007 7.61547 9.43607 7.58447 10.1831C7.56947 10.9291 7.50147 11.7371 7.37947 12.6051C7.27347 13.4241 7.09947 14.2731 6.85747 15.1521L17.4115 6.26507ZM20.0655 19.0741H6.67447L8.41147 17.6111H19.6995C19.2565 16.8491 18.9145 16.0331 18.6705 15.1651C18.4425 14.2811 18.2745 13.4281 18.1675 12.6051C18.0465 11.7371 17.9695 10.9291 17.9395 10.1831C17.9355 9.97507 17.9315 9.78007 17.9285 9.59707L19.3795 8.37607V8.42307C19.3815 8.99507 19.3895 9.56607 19.4025 10.1371C19.4325 10.8381 19.5015 11.6001 19.6085 12.4231C19.7175 13.2571 19.8855 14.0811 20.1105 14.8911C20.3395 15.6811 20.6785 16.4351 21.1165 17.1311C21.3605 17.5271 21.3685 17.9541 21.1385 18.4101C20.9245 18.8521 20.5665 19.0731 20.0645 19.0731L20.0655 19.0741ZM10.5435 20.5931C10.6345 20.5531 10.7325 20.5351 10.8315 20.5371H14.7175C14.8165 20.5341 14.9155 20.5531 15.0065 20.5921C15.0975 20.6311 15.1785 20.6911 15.2445 20.7651C15.3115 20.8301 15.3635 20.9091 15.3995 20.9951C15.4355 21.0811 15.4515 21.1741 15.4495 21.2681C15.4515 21.4631 15.3775 21.6521 15.2445 21.7951C15.1755 21.8631 15.0925 21.9171 15.0025 21.9521C14.9125 21.9871 14.8155 22.0031 14.7185 22.0001H10.8335C10.6195 22.0001 10.4445 21.9321 10.3065 21.7951C10.1695 21.6421 10.1015 21.4661 10.1015 21.2681C10.0995 21.1741 10.1165 21.0821 10.1525 20.9951C10.1885 20.9081 10.2405 20.8301 10.3075 20.7651C10.3725 20.6911 10.4535 20.6321 10.5445 20.5931H10.5435Z" fill="white"/>
</svg>
