<svg width="24" height="24" viewBox="0 0 24 24" fill="none" xmlns="http://www.w3.org/2000/svg">
<path fill-rule="evenodd" clip-rule="evenodd" d="M18.25 2C20.3211 2 22 3.67893 22 5.75C22 7.82107 20.3211 9.5 18.25 9.5C16.9202 9.5 15.7527 8.80739 15.0869 7.76367L9.37305 11.0332C9.45516 11.3417 9.5 11.6656 9.5 12C9.5 12.3344 9.45516 12.6583 9.37305 12.9668L15.0869 16.2354C15.7528 15.192 16.9205 14.5 18.25 14.5C20.3211 14.5 22 16.1789 22 18.25C22 20.3211 20.3211 22 18.25 22C16.1789 22 14.5 20.3211 14.5 18.25C14.5 18.0476 14.516 17.849 14.5469 17.6553L8.70215 14.3105C8.01569 15.1864 6.94909 15.75 5.75 15.75C3.67893 15.75 2 14.0711 2 12C2 9.92893 3.67893 8.25 5.75 8.25C6.94881 8.25 8.01567 8.81298 8.70215 9.68848L14.5469 6.34473C14.516 6.15103 14.5 5.95239 14.5 5.75C14.5 3.67893 16.1789 2 18.25 2ZM18.25 16C17.0074 16 16 17.0074 16 18.25C16 19.4926 17.0074 20.5 18.25 20.5C19.4926 20.5 20.5 19.4926 20.5 18.25C20.5 17.0074 19.4926 16 18.25 16ZM5.75 9.75C4.50736 9.75 3.5 10.7574 3.5 12C3.5 13.2426 4.50736 14.25 5.75 14.25C6.99264 14.25 8 13.2426 8 12C8 10.7574 6.99264 9.75 5.75 9.75ZM18.25 3.5C17.0074 3.5 16 4.50736 16 5.75C16 6.99264 17.0074 8 18.25 8C19.4926 8 20.5 6.99264 20.5 5.75C20.5 4.50736 19.4926 3.5 18.25 3.5Z" fill="white"/>
</svg>
