<svg width="24" height="24" viewBox="0 0 24 24" fill="none" xmlns="http://www.w3.org/2000/svg">
<path d="M2 5.75002C2 4.71802 2.367 3.83502 3.1 3.10002C3.834 2.36602 4.724 1.99902 5.77 1.99902H18.23C19.276 1.99902 20.166 2.36602 20.9 3.10002C21.634 3.83402 22 4.71802 22 5.75002V18.247C22 19.294 21.633 20.185 20.9 20.92C20.166 21.638 19.276 21.998 18.23 21.998H5.77C4.724 21.998 3.834 21.638 3.1 20.92C2.367 20.185 2 19.294 2 18.247V5.75002ZM5.77 3.50002C5.145 3.50002 4.607 3.72602 4.154 4.18002C3.716 4.61702 3.498 5.14002 3.498 5.75102V18.248C3.498 18.873 3.716 19.405 4.154 19.843C4.607 20.28 5.145 20.499 5.77 20.499H18.23C18.526 20.504 18.82 20.449 19.094 20.336C19.368 20.223 19.616 20.055 19.823 19.843C20.276 19.405 20.502 18.873 20.502 18.248V5.75102C20.502 5.14102 20.275 4.61802 19.823 4.18002C19.62 3.96102 19.373 3.78802 19.099 3.67102C18.825 3.55402 18.529 3.49602 18.231 3.50002H5.77Z" fill="white"/>
<path d="M5.49479 6.4887C5.22179 6.2157 5.22179 5.7717 5.49479 5.4987C5.76779 5.2257 6.21179 5.2257 6.48479 5.4987L8.32279 7.3367C8.59579 7.6097 8.59579 8.05369 8.32279 8.32669C8.04979 8.59969 7.60579 8.59969 7.33279 8.32669L5.49479 6.4887Z" fill="white"/>
<path d="M15.6755 16.6645C15.4025 16.3915 15.4025 15.9475 15.6755 15.6745C15.9485 15.4015 16.3925 15.4015 16.6655 15.6745L18.5045 17.5135C18.7775 17.7865 18.7775 18.2305 18.5045 18.5035C18.2315 18.7765 17.7875 18.7765 17.5145 18.5035L15.6755 16.6645Z" fill="white"/>
<path d="M10.5856 11.5746C10.3126 11.3016 10.3126 10.8576 10.5856 10.5846C10.8586 10.3116 11.3026 10.3116 11.5756 10.5846L13.4146 12.4236C13.6876 12.6966 13.6876 13.1396 13.4146 13.4136C13.1416 13.6876 12.6976 13.6866 12.4246 13.4136L10.5856 11.5746Z" fill="white"/>
<path d="M5.98405 16.6645C5.71105 16.3915 5.71105 15.9475 5.98405 15.6745C6.25705 15.4015 6.70105 15.4015 6.97405 15.6745L8.81205 17.5135C9.08505 17.7865 9.08505 18.2305 8.81205 18.5035C8.53905 18.7765 8.09505 18.7765 7.82205 18.5035L5.98405 16.6645Z" fill="white"/>
<path d="M15.6755 6.49065C15.4025 6.21765 15.4025 5.77365 15.6755 5.50065C15.9485 5.22765 16.3925 5.22765 16.6655 5.50065L18.5045 7.33865C18.7775 7.61165 18.7775 8.05565 18.5045 8.32865C18.2315 8.60165 17.7875 8.60165 17.5145 8.32865L15.6755 6.49065Z" fill="white"/>
<path d="M5.49479 11.5746C5.22179 11.3016 5.22179 10.8576 5.49479 10.5846C5.76779 10.3116 6.21179 10.3116 6.48479 10.5846L8.32279 12.4236C8.59579 12.6966 8.59579 13.1396 8.32279 13.4136C8.04979 13.6876 7.60579 13.6866 7.33279 13.4136L5.49479 11.5746Z" fill="white"/>
<path d="M10.3698 6.4887C10.0968 6.2157 10.0968 5.7717 10.3698 5.4987C10.6428 5.2257 11.0868 5.2257 11.3598 5.4987L13.1988 7.3367C13.4718 7.6097 13.4718 8.05369 13.1988 8.32669C12.9258 8.59969 12.4818 8.59969 12.2088 8.32669L10.3698 6.4887Z" fill="white"/>
<path d="M10.5856 16.6645C10.3126 16.3915 10.3126 15.9475 10.5856 15.6745C10.8586 15.4015 11.3026 15.4015 11.5756 15.6745L13.4146 17.5135C13.6876 17.7865 13.6876 18.2305 13.4146 18.5035C13.1416 18.7765 12.6976 18.7765 12.4246 18.5035L10.5856 16.6645Z" fill="white"/>
<path d="M15.4606 11.5785C15.1876 11.3055 15.1876 10.8615 15.4606 10.5885C15.7336 10.3155 16.1776 10.3155 16.4506 10.5885L18.2896 12.4275C18.5626 12.7005 18.5626 13.1445 18.2896 13.4175C18.0166 13.6905 17.5726 13.6905 17.2996 13.4175L15.4606 11.5785Z" fill="white"/>
</svg>
