<svg width="24" height="24" viewBox="0 0 24 24" fill="none" xmlns="http://www.w3.org/2000/svg">
<path d="M5.00577 13.007H8.00453C8.83202 13.007 9.53543 13.304 10.1138 13.896C10.7071 14.475 11.0033 15.177 11.0033 16.004V19.001C11.0033 19.828 10.7061 20.539 10.1138 21.132C9.83961 21.413 9.51141 21.635 9.1492 21.784C8.78699 21.933 8.39676 22.006 8.00453 21.999H5.00577C4.61053 22.005 4.2183 21.931 3.85109 21.782C3.48387 21.633 3.15168 21.412 2.87251 21.132C2.59235 20.853 2.37122 20.521 2.22213 20.154C2.07304 19.787 2 19.396 2.005 19V16.003C2.005 15.176 2.29517 14.473 2.87151 13.895C3.46586 13.303 4.17628 13.006 5.00376 13.006L5.00577 13.007ZM8.00453 14.506H5.00577C4.59953 14.506 4.24832 14.654 3.95215 14.951C3.80706 15.085 3.69299 15.248 3.61595 15.43C3.5389 15.612 3.50188 15.808 3.50688 16.005V19.002C3.50688 19.408 3.65597 19.759 3.95315 20.056C4.24932 20.352 4.60053 20.501 5.00677 20.501H8.00553C8.42778 20.501 8.77898 20.352 9.06015 20.056C9.35732 19.759 9.50541 19.408 9.50541 19.002V16.005C9.50541 15.583 9.35732 15.232 9.06015 14.951C8.92607 14.806 8.76297 14.692 8.58087 14.615C8.39876 14.538 8.20164 14.501 8.00453 14.506Z" fill="white"/>
<path d="M5.00677 2.00005H8.00553C8.83302 2.00005 9.53643 2.29705 10.1148 2.88905C10.7071 3.46805 11.0043 4.17005 11.0043 4.99705V7.99405C11.0043 8.82105 10.7071 9.53205 10.1148 10.125C9.84061 10.406 9.51241 10.627 9.1502 10.776C8.78799 10.925 8.39776 10.998 8.00553 10.991H5.00677C4.61153 10.997 4.2193 10.923 3.85209 10.774C3.48487 10.625 3.15268 10.404 2.87351 10.124C2.59335 9.84505 2.37222 9.51305 2.22313 9.14605C2.07404 8.77905 2.001 8.38805 2.006 7.99205V4.99505C2.006 4.16805 2.29617 3.46505 2.87251 2.88705C3.46686 2.29505 4.17728 1.99805 5.00476 1.99805L5.00677 2.00005ZM5.00677 3.49905C4.60053 3.49905 4.24932 3.64705 3.95315 3.94405C3.80806 4.07805 3.69399 4.24105 3.61695 4.42305C3.5399 4.60505 3.50288 4.80105 3.50788 4.99805V7.99505C3.50788 8.40105 3.65697 8.75205 3.95415 9.04905C4.25032 9.34505 4.60153 9.49405 5.00777 9.49405H8.00653C8.42878 9.49405 8.77998 9.34505 9.06115 9.04905C9.35832 8.75205 9.50641 8.40105 9.50641 7.99505V4.99805C9.50641 4.57605 9.35832 4.22505 9.06115 3.94405C8.92707 3.79905 8.76398 3.68505 8.58187 3.60805C8.39976 3.53105 8.20365 3.49405 8.00653 3.49905H5.00677Z" fill="white"/>
<path d="M16.0072 2.00005H19.006C19.8335 2.00005 20.5369 2.29705 21.1152 2.88905C21.7086 3.46805 22.0048 4.17005 22.0048 4.99705V7.99405C22.0048 8.82105 21.7076 9.53205 21.1152 10.125C20.8411 10.406 20.5129 10.627 20.1507 10.776C19.7885 10.925 19.3982 10.998 19.006 10.991H16.0072C15.612 10.997 15.2188 10.923 14.8526 10.774C14.4863 10.625 14.1531 10.404 13.874 10.124C13.5938 9.84505 13.3727 9.51305 13.2236 9.14605C13.0745 8.77905 13.0015 8.38805 13.0065 7.99205V4.99505C13.0065 4.16805 13.2966 3.46505 13.873 2.88705C14.4673 2.29505 15.1777 1.99805 16.0052 1.99805L16.0072 2.00005ZM19.006 3.49905H16.0072C15.601 3.49905 15.2498 3.64705 14.9536 3.94405C14.8085 4.07805 14.6945 4.24105 14.6174 4.42305C14.5404 4.60505 14.5033 4.80105 14.5084 4.99805V7.99505C14.5084 8.40105 14.6574 8.75205 14.9546 9.04905C15.2508 9.34505 15.602 9.49405 16.0082 9.49405H19.007C19.4292 9.49405 19.7805 9.34505 20.0616 9.04905C20.3588 8.75205 20.5069 8.40105 20.5069 7.99505V4.99805C20.5069 4.57605 20.3588 4.22505 20.0616 3.94405C19.9275 3.79905 19.7634 3.68505 19.5823 3.60805C19.4012 3.53105 19.2031 3.49405 19.006 3.49905Z" fill="white"/>
<path d="M5.28684 5.30124C5.09973 5.48824 5.00567 5.72324 5.00567 6.00324L5.00667 7.01024C5.00467 7.27224 5.10573 7.52424 5.28684 7.71224C5.49096 7.89924 5.7331 7.99324 6.01326 7.99324H7.02086C7.14693 7.99524 7.273 7.97124 7.39007 7.92324C7.50714 7.87524 7.6132 7.80324 7.70126 7.71224C7.90438 7.50924 8.00544 7.27424 8.00544 7.01024V6.00324C8.00844 5.87124 7.98242 5.74024 7.93039 5.61924C7.87836 5.49824 7.80031 5.38924 7.70126 5.30124C7.51315 5.09824 7.28601 4.99624 7.02186 4.99624H6.01426C5.87919 4.99424 5.74411 5.02124 5.61903 5.07324C5.49396 5.12524 5.38089 5.20324 5.28684 5.30124Z" fill="white"/>
<path d="M16.3006 5.30137C16.5037 5.09837 16.7389 4.99637 17.003 4.99637H18.0106C18.1427 4.99337 18.2738 5.01937 18.3948 5.07137C18.5159 5.12337 18.625 5.20237 18.713 5.30037C18.8111 5.38837 18.8901 5.49737 18.9421 5.61837C18.9942 5.73937 19.0202 5.87037 19.0182 6.00337V7.01037C19.0182 7.14237 18.9912 7.27237 18.9381 7.39337C18.8851 7.51437 18.8091 7.62337 18.713 7.71337C18.621 7.80537 18.5119 7.87837 18.3908 7.92637C18.2698 7.97437 18.1407 7.99737 18.0106 7.99437H17.003C16.7379 7.99437 16.5027 7.90037 16.3006 7.71337C16.1135 7.51037 16.0194 7.27537 16.0194 7.01137V6.00437C16.0154 5.87437 16.0384 5.74537 16.0875 5.62437C16.1365 5.50337 16.2085 5.39337 16.3006 5.30137Z" fill="white"/>
<path d="M5.61815 16.083C5.74323 16.031 5.8773 16.004 6.01338 16.006H7.02098C7.14905 16.005 7.27713 16.031 7.3942 16.084C7.51126 16.137 7.61633 16.214 7.70038 16.31C7.79743 16.395 7.87448 16.499 7.92651 16.616C7.97854 16.733 8.00556 16.86 8.00456 16.989V17.996C8.00656 18.131 7.98054 18.266 7.92751 18.391C7.87448 18.516 7.79743 18.629 7.70038 18.723C7.61232 18.814 7.50626 18.885 7.38919 18.933C7.27212 18.981 7.14705 19.005 7.01998 19.003H6.01238C5.73122 19.003 5.48908 18.91 5.28596 18.723C5.09885 18.519 5.00579 18.277 5.00579 17.997V16.991C5.00379 16.865 5.0268 16.739 5.07583 16.622C5.12486 16.505 5.1959 16.399 5.28596 16.311C5.38001 16.213 5.49308 16.136 5.61815 16.083Z" fill="white"/>
<path d="M18.0333 18.9785C17.8932 18.8225 17.7211 18.7445 17.518 18.7445C17.4159 18.7415 17.3148 18.7605 17.2218 18.8015C17.1287 18.8425 17.0457 18.9025 16.9776 18.9785C16.8375 19.1195 16.7675 19.2915 16.7675 19.4945V20.9935C16.7655 21.1935 16.8406 21.3865 16.9776 21.5335C17.0487 21.6035 17.1327 21.6585 17.2258 21.6945C17.3188 21.7305 17.4179 21.7475 17.518 21.7435C17.614 21.7455 17.7081 21.7275 17.7971 21.6915C17.8862 21.6555 17.9662 21.6015 18.0333 21.5335C18.1073 21.4645 18.1663 21.3805 18.2064 21.2885C18.2464 21.1965 18.2674 21.0955 18.2684 20.9945V19.4955C18.2684 19.2925 18.1903 19.1195 18.0333 18.9785Z" fill="white"/>
<path d="M21.7006 19.21C21.7406 19.299 21.7616 19.396 21.7596 19.494V20.993C21.7596 21.094 21.7386 21.194 21.6986 21.287C21.6586 21.38 21.5995 21.463 21.5255 21.532C21.3844 21.672 21.2123 21.742 21.0092 21.742C20.8061 21.742 20.6259 21.672 20.4689 21.532C20.3288 21.375 20.2587 21.195 20.2587 20.992V19.493C20.2567 19.397 20.2737 19.302 20.3108 19.214C20.3478 19.126 20.4008 19.045 20.4689 18.978C20.5379 18.904 20.6219 18.846 20.715 18.805C20.8081 18.764 20.9081 18.744 21.0092 18.744C21.1072 18.743 21.2043 18.763 21.2933 18.803C21.3824 18.843 21.4614 18.903 21.5255 18.977C21.5995 19.041 21.6596 19.12 21.6996 19.209L21.7006 19.21Z" fill="white"/>
<path d="M14.8238 14.8334C14.7777 14.8804 14.7537 14.9344 14.7537 14.9974V20.9924C14.7557 21.1924 14.6797 21.3854 14.5426 21.5324C14.4715 21.6024 14.3875 21.6564 14.2954 21.6924C14.2034 21.7284 14.1043 21.7454 14.0053 21.7414C13.8012 21.7414 13.621 21.6714 13.465 21.5314C13.3239 21.3744 13.2538 21.1944 13.2538 20.9914V14.9964C13.2508 14.7654 13.2949 14.5364 13.3829 14.3224C13.471 14.1084 13.603 13.9164 13.7691 13.7554C14.1133 13.4114 14.5266 13.2394 15.0109 13.2394H16.5107C16.7419 13.2364 16.971 13.2804 17.1851 13.3684C17.3993 13.4564 17.5914 13.5884 17.7525 13.7544C18.0967 14.0984 18.2688 14.5114 18.2688 14.9954V16.4944C18.2708 16.5634 18.2958 16.6294 18.3388 16.6824C18.3598 16.7044 18.3858 16.7224 18.4139 16.7344C18.4419 16.7464 18.4719 16.7524 18.5029 16.7524H20.0028C20.0368 16.7544 20.0718 16.7484 20.1039 16.7364C20.1359 16.7244 20.1659 16.7064 20.1909 16.6824C20.2339 16.6294 20.2589 16.5634 20.2609 16.4944V13.9884C20.2589 13.8924 20.277 13.7984 20.313 13.7094C20.349 13.6204 20.403 13.5404 20.4711 13.4734C20.5401 13.3994 20.6242 13.3404 20.7162 13.3004C20.8083 13.2604 20.9093 13.2394 21.0104 13.2384C21.1084 13.2374 21.2055 13.2574 21.2946 13.2984C21.3836 13.3394 21.4627 13.3984 21.5267 13.4734C21.6007 13.5364 21.6608 13.6154 21.7008 13.7044C21.7408 13.7934 21.7618 13.8904 21.7608 13.9874V16.4934C21.7608 16.9774 21.5887 17.3904 21.2445 17.7344C20.9013 18.0784 20.4881 18.2504 20.0028 18.2504H18.5029C18.0186 18.2504 17.6054 18.0784 17.2612 17.7344C16.933 17.3904 16.7689 16.9774 16.7689 16.4934V14.9944C16.7689 14.9314 16.7379 14.8774 16.6748 14.8304C16.6278 14.7674 16.5738 14.7364 16.5107 14.7364H15.0109C14.9488 14.7364 14.8858 14.7674 14.8228 14.8304L14.8238 14.8334Z" fill="white"/>
</svg>
