<svg width="24" height="24" viewBox="0 0 24 24" fill="none" xmlns="http://www.w3.org/2000/svg">
<path d="M17.7539 2C17.3401 1.99877 17.0036 2.33385 17.0023 2.74842C17.0011 3.163 17.3356 3.50008 17.7495 3.50132L19.4464 3.50638C18.686 4.32044 14.7979 8.39177 11.0935 10.5894C7.36813 12.7995 3.56012 14.0325 2.5706 14.3519L2.51404 14.3702C2.43761 14.3949 2.38411 14.4123 2.35563 14.4226C2.05216 14.5316 1.88431 14.9922 2.08633 15.3883C2.32069 15.8477 2.76154 15.8183 3.14426 15.6992C3.17646 15.6892 3.23082 15.6742 3.30617 15.6533C4.12653 15.4262 7.35759 14.5317 11.8821 11.8544C16.8224 8.93097 20.3683 4.63923 20.3683 4.63923C20.4144 4.61061 20.4564 4.5778 20.494 4.54157L20.4889 6.26193C20.4877 6.67651 20.8222 7.01359 21.236 7.01482C21.6499 7.01606 21.9864 6.68098 21.9876 6.2664L21.998 2.76334C21.9993 2.34876 21.6648 2.01168 21.2509 2.01044L17.7539 2Z" fill="white"/>
<path d="M21.194 8.2453C21.6297 8.2453 21.9828 8.59907 21.9828 9.03547V21.2098C21.9828 21.6462 21.6297 22 21.194 22C20.7584 22 20.4052 21.6462 20.4052 21.2098V9.03547C20.4052 8.59907 20.7584 8.2453 21.194 8.2453Z" fill="white"/>
<path d="M18.3018 11.2875C18.3018 10.8511 17.9486 10.4973 17.513 10.4973C17.0773 10.4973 16.7242 10.8511 16.7242 11.2875V21.2098C16.7242 21.6462 17.0773 22 17.513 22C17.9486 22 18.3018 21.6462 18.3018 21.2098V11.2875Z" fill="white"/>
<path d="M14.6207 13.7822C14.6207 13.3458 14.2676 12.9921 13.8319 12.9921C13.3963 12.9921 13.0431 13.3458 13.0431 13.7822V21.2098C13.0431 21.6462 13.3963 22 13.8319 22C14.2676 22 14.6207 21.6462 14.6207 21.2098V13.7822Z" fill="white"/>
<path d="M10.9397 15.784C10.9397 15.3476 10.5865 14.9938 10.1509 14.9938C9.71521 14.9938 9.36205 15.3476 9.36205 15.784L9.36205 21.2098C9.36205 21.6462 9.71521 22 10.1509 22C10.5865 22 10.9397 21.6462 10.9397 21.2098V15.784Z" fill="white"/>
<path d="M6.46979 16.9956C6.90543 16.9956 7.25859 17.3494 7.25859 17.7858L7.25859 21.2098C7.25859 21.6462 6.90543 22 6.46979 22C6.03415 22 5.68099 21.6462 5.68099 21.2098L5.68099 17.7858C5.68099 17.3494 6.03415 16.9956 6.46979 16.9956Z" fill="white"/>
<path d="M3.57753 18.6064C3.57753 18.17 3.22437 17.8162 2.78873 17.8162C2.35308 17.8162 1.99993 18.17 1.99993 18.6064V21.2098C1.99993 21.6462 2.35308 22 2.78873 22C3.22437 22 3.57752 21.6462 3.57752 21.2098L3.57753 18.6064Z" fill="white"/>
</svg>
