<svg width="24" height="24" viewBox="0 0 24 24" fill="none" xmlns="http://www.w3.org/2000/svg">
<path d="M5.9167 2.01765L18.0839 2C19.1673 2 20.0897 2.38079 20.8523 3.14435C21.6149 3.90792 21.9967 4.8294 21.9967 5.91279L22.0034 18.0696C22.0034 19.1529 21.6226 20.0754 20.859 20.838C20.0955 21.6006 19.173 21.9824 18.0906 21.9824L5.6266 22C4.61917 21.924 3.76465 21.5123 3.06305 20.7637C2.36144 20.0151 2.01064 19.1236 2.01064 18.0872L2.00391 5.93044C2.00391 4.84705 2.38469 3.92457 3.14826 3.162C3.91183 2.39943 4.83431 2.01765 5.9167 2.01765ZM14.721 3.46561H8.79338C8.88533 3.89337 8.96929 4.34212 9.04524 4.81585C9.13619 5.28858 9.21889 6.98636 9.28085 7.50507L10.5621 7.41412C11.4376 7.35315 12.3151 7.32317 13.1936 7.32217C13.6364 7.30718 14.0781 7.29918 14.5209 7.29918L14.5142 5.77731C14.5301 5.36554 14.5531 4.96876 14.5821 4.58698C14.6281 4.1902 14.6741 3.81641 14.72 3.46661H14.722L14.721 3.46561ZM14.5449 8.76336C14.1171 8.76336 13.6824 8.77135 13.2406 8.78634C12.8129 8.78634 12.3781 8.79434 11.9364 8.80833C11.5246 8.82432 11.1048 8.84731 10.6771 8.87629L9.44176 8.96824C9.47175 9.36502 9.49573 9.76179 9.50973 10.1586C9.54071 10.5553 9.5557 10.9591 9.5557 11.3709C9.57169 11.8446 9.5637 12.3243 9.53371 12.8131C9.51772 13.3008 9.48774 13.7895 9.44176 14.2772C9.89951 14.3692 10.3642 14.4911 10.838 14.643C11.3107 14.78 11.7904 14.9479 12.2792 15.1458C12.7979 15.3606 13.3166 15.5275 13.8353 15.6495C14.354 15.7564 14.8507 15.8254 15.3224 15.8544C15.4144 15.2907 15.4444 14.703 15.4144 14.0933C15.3784 13.4507 15.2705 12.8141 15.0946 12.1944C14.7927 11.0721 14.6088 9.9217 14.5449 8.76136H14.5459L14.5449 8.76336ZM16.8096 15.8564C17.4672 15.8184 18.3475 15.709 18.9831 15.5351C19.5788 15.3672 20.0965 15.1833 20.5392 14.9854V9.47152C19.8796 9.27763 19.206 9.13271 18.5254 9.03676C17.7738 8.92583 16.7896 8.85131 16.032 8.80833C16.062 9.31205 16.116 9.81476 16.192 10.3185C16.2679 10.8222 16.3759 11.3099 16.5118 11.7827C16.7097 12.5152 16.8246 13.2248 16.8556 13.9105C16.9016 14.5811 16.8856 15.2307 16.8096 15.8564ZM15.0016 17.3205C14.4639 17.2566 13.9292 17.1646 13.4005 17.0467C12.8299 16.9178 12.2712 16.7409 11.7305 16.52C11.3127 16.3411 10.885 16.1882 10.4482 16.0632C10.0494 15.9293 9.64465 15.8154 9.23588 15.7194C9.12894 16.3441 8.98402 18.1699 8.80112 18.7806C8.63322 19.3763 8.42733 19.9549 8.18347 20.5196H14.1781C14.331 20.2298 14.4759 19.917 14.6138 19.5821C14.7688 19.2403 14.8977 17.6803 15.0026 17.3205H15.0016ZM15.8252 20.5186L18.0906 20.5172C18.7622 20.5172 19.3339 20.2813 19.8066 19.8076C20.2944 19.3348 20.5392 18.7552 20.5392 18.0696L20.5392 16.5645C19.9715 16.7774 19.3909 16.9533 18.8002 17.0902C18.1586 17.2271 17.2444 17.3125 16.5118 17.3425C16.4238 17.6983 16.3169 19.2573 16.192 19.6021C16.07 19.923 15.9481 20.2278 15.8262 20.5176L15.8252 20.5186ZM6.58137 20.5186C6.87121 19.9389 7.11507 19.3283 7.31396 18.6877C7.51185 18.032 7.67276 16.1532 7.79469 15.4666C7.03712 15.3636 6.04937 15.3339 5.2838 15.3459C4.59719 15.3459 3.99553 15.3838 3.47582 15.4598L3.47582 18.0852C3.47582 18.7718 3.71168 19.3515 4.18542 19.8242C4.67314 20.298 5.25281 20.5338 5.92443 20.5338L6.58237 20.5176L6.58137 20.5186ZM3.47482 13.9736C4.12146 13.9097 4.77009 13.8787 5.41972 13.8817C6.15231 13.8657 7.15306 13.9035 7.97759 14.0254C8.02357 13.5836 8.05355 13.1479 8.06954 12.7211C8.09952 12.2794 8.10752 11.8366 8.09153 11.3939C8.09453 10.6303 8.06354 9.86674 7.99958 9.10516C6.56039 9.27107 4.90302 9.49316 3.47482 9.74002V13.9736ZM3.47482 8.25286C4.08548 8.14592 4.73411 8.04798 5.41972 7.95603C6.12233 7.84909 7.0781 7.74093 7.83967 7.66498C7.76771 7.12928 7.67801 5.39352 7.58207 4.86182C7.49812 4.39309 7.39817 3.92735 7.28424 3.46561L5.9167 3.48182C5.24508 3.48182 4.6664 3.71769 4.17768 4.19142C3.70395 4.66415 3.46808 5.24382 3.46808 5.92944L3.47482 8.25286ZM20.5392 7.96137L20.5325 5.91279C20.5325 5.22618 20.2886 4.64651 19.7999 4.17377C19.578 3.9449 19.3102 3.763 19.0153 3.64107C18.7205 3.51914 18.4027 3.45918 18.0839 3.46417L16.2072 3.46561C16.1462 3.80142 16.0933 4.16722 16.0473 4.56399C16.0183 4.96077 15.9943 5.38053 15.9793 5.82328L15.9861 7.34416C16.7646 7.39013 17.7408 7.46465 18.4574 7.57259C19.19 7.66354 19.8816 7.79347 20.5392 7.96137Z" fill="white"/>
</svg>
