<svg width="24" height="24" viewBox="0 0 24 24" fill="none" xmlns="http://www.w3.org/2000/svg">
<path d="M15.2802 12.3417C14.1762 12.3417 13.2822 11.4467 13.2822 10.3437C13.2822 9.2407 14.1772 8.3457 15.2802 8.3457C15.6592 8.3457 16.0122 8.4507 16.3142 8.6337C16.4472 8.5107 16.6262 8.4357 16.8222 8.4357C17.2362 8.4357 17.5712 8.7717 17.5712 9.1847V11.5027C17.5712 11.9167 17.2352 12.2517 16.8222 12.2517C16.6262 12.2517 16.4482 12.1767 16.3142 12.0537C16.0122 12.2367 15.6582 12.3417 15.2802 12.3417ZM15.2802 11.0927C15.6942 11.0927 16.0292 10.7577 16.0292 10.3437C16.0292 9.9297 15.6932 9.5947 15.2802 9.5947C14.8672 9.5947 14.5312 9.9307 14.5312 10.3437C14.5312 10.7577 14.8672 11.0927 15.2802 11.0927Z" fill="white"/>
<path d="M10.3329 10.4926C10.4749 10.2016 10.7809 10.0436 11.0859 10.0766C11.3899 10.0446 11.6959 10.2016 11.8379 10.4926L15.4139 17.8086C15.5959 18.1806 15.4419 18.6296 15.0699 18.8106C14.6979 18.9916 14.2489 18.8386 14.0679 18.4666L13.0779 16.4406H9.09393L8.10393 18.4666C7.92193 18.8386 7.47293 18.9926 7.10193 18.8106C6.73093 18.6286 6.57593 18.1796 6.75793 17.8086L10.3329 10.4926ZM9.82593 14.9426H12.3439L11.0849 12.3666L9.82593 14.9426Z" fill="white"/>
<path d="M17.995 4.99895H16.871C16.658 4.14895 16.162 3.39795 15.465 2.86795C14.748 2.29095 13.928 2.00195 13.007 2.00195H6.005C4.897 2.00195 3.952 2.39295 3.171 3.17295C2.39 3.95295 2 4.89795 2 6.00695V17.997C2 19.105 2.391 20.05 3.171 20.831C3.951 21.612 4.896 22.002 6.005 22.002H17.995C19.103 22.002 20.048 21.611 20.829 20.831C21.61 20.051 22 19.106 22 17.997V9.00395C22 7.89595 21.609 6.95095 20.829 6.16995C20.049 5.38895 19.104 4.99895 17.995 4.99895ZM4.272 4.20195C4.756 3.73395 5.333 3.49995 6.005 3.49995H13.006C13.492 3.49595 13.967 3.64295 14.365 3.92195C14.769 4.18295 15.087 4.55795 15.278 4.99895H6.004C5.535 4.99895 5.083 5.07695 4.646 5.23395C4.224 5.38995 3.842 5.60895 3.498 5.88895C3.531 5.24895 3.808 4.64495 4.272 4.20195ZM3.499 17.996V9.00295C3.494 8.67595 3.555 8.35195 3.68 8.04895C3.805 7.74595 3.991 7.47395 4.225 7.24595C4.725 6.74595 5.317 6.49695 6.005 6.49695H17.995C18.682 6.49695 19.267 6.74695 19.752 7.24595C20.252 7.73095 20.501 8.31495 20.501 9.00295V17.996C20.501 18.683 20.251 19.276 19.752 19.776C19.267 20.261 18.683 20.502 17.995 20.502H6.005C5.318 20.502 4.725 20.26 4.225 19.776C3.74 19.276 3.499 18.684 3.499 17.996Z" fill="white"/>
</svg>
