<svg width="24" height="24" viewBox="0 0 24 24" fill="none" xmlns="http://www.w3.org/2000/svg">
<path d="M17.2479 8.81306L13.2779 7.49706C13.1049 7.43806 12.9189 7.43006 12.7419 7.47406C12.5769 7.50506 12.4269 7.59106 12.3179 7.72006L11.0019 9.01406C10.9109 9.10506 10.8049 9.18006 10.6899 9.23706C10.5769 9.28306 10.4549 9.30606 10.3329 9.30406H8.86092C8.60892 9.30406 8.36292 9.34906 8.12492 9.43706C7.89892 9.52806 7.69391 9.66506 7.52291 9.84006L2.48192 14.9031C2.11092 15.2601 1.95392 15.7361 2.01392 16.3301C2.08792 16.9101 2.34792 17.4301 2.79392 17.8911L6.11692 21.2151C6.57892 21.6611 7.09892 21.9131 7.67792 21.9731C8.27392 22.0471 8.74991 21.8991 9.10491 21.5271L14.1689 16.4861C14.3429 16.3151 14.4789 16.1101 14.5709 15.8841C14.6599 15.6461 14.7039 15.4011 14.7039 15.1481V13.6761C14.7039 13.5431 14.7269 13.4231 14.7719 13.3191C14.8319 13.2001 14.9049 13.0961 14.9949 13.0071L17.6269 10.3751C17.8649 10.1231 17.9469 9.83306 17.8729 9.50506C17.7989 9.16206 17.5899 8.93306 17.2489 8.81406L17.2479 8.81306ZM10.3329 10.7081C10.5859 10.7081 10.8239 10.6701 11.0469 10.5971C11.2849 10.5221 11.5009 10.4101 11.6939 10.2621L13.7459 12.3141C13.5979 12.5071 13.4849 12.7231 13.4109 12.9611C13.3359 13.1911 13.2979 13.4321 13.2999 13.6751V15.1471C13.3009 15.2161 13.2859 15.2851 13.2549 15.3471C13.2359 15.3981 13.2059 15.4441 13.1669 15.4811L8.12592 20.5441C8.11092 20.5441 8.08091 20.5591 8.03691 20.5901C8.00691 20.6041 7.93992 20.6041 7.83592 20.5901C7.71991 20.5661 7.60791 20.5291 7.50092 20.4781C7.35891 20.4131 7.23092 20.3231 7.12192 20.2121L3.79892 16.8881C3.68692 16.7791 3.59692 16.6511 3.53192 16.5091C3.48092 16.4021 3.44292 16.2901 3.41992 16.1741C3.40592 16.0691 3.40592 16.0031 3.41992 15.9741C3.44992 15.9281 3.46492 15.8981 3.46492 15.8841L8.52792 10.8431C8.56492 10.8031 8.61091 10.7731 8.66191 10.7541C8.72492 10.7231 8.79291 10.7081 8.86292 10.7091H10.3349L10.3329 10.7081Z" fill="white"/>
<path d="M10.5559 5.15506C11.1069 4.59406 11.7679 4.15406 12.4969 3.86106C13.1969 3.57006 13.9469 3.41806 14.7049 3.41606C15.4629 3.41606 16.1989 3.56406 16.9129 3.86206C17.6459 4.14706 18.3089 4.58906 18.8539 5.15506C19.4199 5.70006 19.8609 6.36306 20.1459 7.09506C20.4439 7.80906 20.5929 8.54406 20.5929 9.30306C20.5929 10.0461 20.4439 10.7831 20.1459 11.5111C19.8639 12.2251 19.4319 12.8721 18.8529 13.4521C18.5419 13.7631 18.1979 14.0401 17.8269 14.2771C17.4699 14.5001 17.0909 14.6861 16.6899 14.8351C16.5979 14.8611 16.5129 14.9061 16.4399 14.9681C16.3669 15.0301 16.3079 15.1061 16.2659 15.1921C16.2289 15.2761 16.2099 15.3671 16.2099 15.4591C16.2099 15.5511 16.2289 15.6421 16.2659 15.7261C16.2949 15.8141 16.3409 15.8951 16.4029 15.9641C16.4649 16.0331 16.5389 16.0891 16.6229 16.1281C16.7919 16.2021 16.9839 16.2101 17.1589 16.1511C17.6569 15.9691 18.1349 15.7371 18.5859 15.4591C19.0519 15.1731 19.4789 14.8281 19.8569 14.4331C20.5579 13.7541 21.1049 12.9321 21.4619 12.0241C21.8189 11.1311 21.9979 10.2241 21.9979 9.30206C21.9979 8.36606 21.8189 7.45106 21.4619 6.55806C21.0969 5.65406 20.5509 4.83506 19.8569 4.15006C19.1729 3.45506 18.3529 2.90906 17.4479 2.54406C16.5759 2.19106 15.6449 2.00906 14.7039 2.00806C13.7819 2.00806 12.8749 2.18706 11.9819 2.54406C11.0739 2.90206 10.2529 3.44906 9.57392 4.14906C9.17892 4.52706 8.83391 4.95506 8.54691 5.42006C8.26391 5.88106 8.03291 6.35606 7.85491 6.84706C7.79491 7.02206 7.80391 7.21306 7.87791 7.38306C7.91691 7.46706 7.97291 7.54206 8.04191 7.60306C8.11091 7.66406 8.19191 7.71106 8.27991 7.74006C8.36391 7.77706 8.45491 7.79606 8.54691 7.79606C8.63891 7.79606 8.72991 7.77706 8.81391 7.74006C8.89991 7.69806 8.97591 7.63906 9.03791 7.56606C9.09991 7.49306 9.14491 7.40706 9.17091 7.31606C9.31891 6.91406 9.50591 6.53606 9.72891 6.17906C9.96691 5.80806 10.2429 5.46506 10.5539 5.15306L10.5559 5.15506Z" fill="white"/>
</svg>
