<svg width="24" height="24" viewBox="0 0 24 24" fill="none" xmlns="http://www.w3.org/2000/svg">
<path d="M16.2562 2.00393C16.4592 2.00393 16.6312 2.07497 16.7722 2.21603C16.9282 2.35609 17.0062 2.53617 17.0062 2.75526V3.95545C17.0092 4.05716 16.9898 4.15829 16.9493 4.25165C16.9089 4.34502 16.8484 4.42833 16.7722 4.49568C16.7051 4.56413 16.6247 4.61808 16.5359 4.65421C16.4472 4.69035 16.352 4.7079 16.2562 4.70578C16.0559 4.7075 15.8626 4.6323 15.7162 4.49568C15.6462 4.42474 15.5914 4.34021 15.5553 4.2473C15.5192 4.15439 15.5025 4.05507 15.5062 3.95545V2.75526C15.5025 2.65564 15.5192 2.55632 15.5553 2.46341C15.5914 2.3705 15.6462 2.28597 15.7162 2.21503C15.8626 2.07841 16.0559 2.00221 16.2562 2.00393Z" fill="white"/>
<path d="M13.7254 6.48755C13.8654 6.64461 14.0374 6.72265 14.2404 6.72265C14.3422 6.72554 14.4433 6.70597 14.5366 6.66534C14.63 6.62471 14.7132 6.564 14.7804 6.48755C14.8548 6.42407 14.9143 6.34501 14.9547 6.25598C14.9952 6.16695 15.0155 6.07011 15.0144 5.97232C15.0173 5.87053 14.9978 5.76936 14.9571 5.67599C14.9165 5.58262 14.8558 5.49934 14.7794 5.43208L11.7794 2.43077C11.7086 2.36086 11.6243 2.30616 11.5316 2.27004C11.4389 2.23391 11.3398 2.21711 11.2404 2.22068C11.1448 2.2187 11.0498 2.23631 10.9612 2.27244C10.8726 2.30858 10.7924 2.36246 10.7254 2.43077C10.6552 2.50163 10.6003 2.58612 10.564 2.67904C10.5277 2.77195 10.5108 2.87132 10.5144 2.97101C10.5144 3.1741 10.5844 3.34617 10.7244 3.48623L13.7254 6.48755Z" fill="white"/>
<path d="M21.5385 2.2715C21.6312 2.3078 21.7154 2.36269 21.7862 2.43278L21.7872 2.43178C21.8572 2.50272 21.9119 2.58725 21.948 2.68016C21.9841 2.77307 22.0009 2.87239 21.9972 2.97201C21.9991 3.06768 21.9815 3.16275 21.9454 3.25135C21.9093 3.33996 21.8554 3.42023 21.7872 3.48724L18.7872 6.48855C18.7199 6.56501 18.6367 6.62571 18.5434 6.66634C18.45 6.70698 18.3489 6.72654 18.2472 6.72365C18.0442 6.72365 17.8721 6.64562 17.7321 6.48855C17.5751 6.34849 17.4971 6.17641 17.4971 5.97332C17.4943 5.87154 17.5138 5.77036 17.5544 5.67699C17.595 5.58362 17.6557 5.50034 17.7321 5.43309L20.7322 2.43178C20.7991 2.36346 20.8794 2.30958 20.9679 2.27345C21.0565 2.23732 21.1515 2.2197 21.2472 2.22169C21.3466 2.21825 21.4458 2.2352 21.5385 2.2715Z" fill="white"/>
<path d="M2.21394 20.7143L15.7162 7.42698L15.7152 7.42599C15.8616 7.28937 16.0549 7.21417 16.2552 7.21589C16.4554 7.21417 16.6487 7.28937 16.7952 7.42599C16.9317 7.57252 17.0069 7.76588 17.0052 7.96622C17.0069 8.16656 16.9317 8.35992 16.7952 8.50646L3.29294 21.7938C3.13594 21.9339 2.95594 22.0039 2.75294 22.0039C2.54994 22.0039 2.36994 21.9339 2.21294 21.7938C2.07294 21.6367 2.00294 21.4567 2.00294 21.2536C2.00175 21.0534 2.07726 20.8605 2.21394 20.7143Z" fill="white"/>
<path d="M18.7864 9.44389L21.7864 12.4452C21.9264 12.5853 21.9974 12.7653 21.9974 12.9844C21.9995 13.0801 21.9819 13.1752 21.9458 13.2638C21.9096 13.3524 21.8557 13.4327 21.7874 13.4997C21.7166 13.5699 21.6321 13.6248 21.5393 13.6611C21.4464 13.6974 21.3471 13.7143 21.2474 13.7108C21.1518 13.7127 21.0568 13.6951 20.9682 13.659C20.8796 13.6229 20.7994 13.569 20.7324 13.5007L17.7324 10.4993C17.6577 10.4359 17.598 10.3567 17.5573 10.2675C17.5167 10.1782 17.4963 10.0812 17.4974 9.98312C17.4974 9.76303 17.5754 9.58395 17.7324 9.44289C17.7959 9.36849 17.8749 9.30897 17.9639 9.26851C18.0529 9.22806 18.1497 9.20767 18.2474 9.20878C18.4664 9.20878 18.6454 9.28682 18.7864 9.44389Z" fill="white"/>
<path d="M12.788 8.50545C12.928 8.34838 12.998 8.1683 12.998 7.96521C12.998 7.76213 12.928 7.59005 12.788 7.44899C12.647 7.29292 12.467 7.21489 12.248 7.21489H11.264C11.1623 7.21187 11.0612 7.23128 10.9679 7.27174C10.8746 7.3122 10.7913 7.37271 10.724 7.44899C10.584 7.59005 10.514 7.76213 10.514 7.96521C10.5123 8.16555 10.5874 8.35891 10.724 8.50545C10.7949 8.57549 10.8794 8.63026 10.9723 8.66639C11.0651 8.70252 11.1644 8.71925 11.264 8.71554H12.248C12.3476 8.71925 12.4468 8.70252 12.5397 8.66639C12.6326 8.63026 12.7171 8.57549 12.788 8.50545Z" fill="white"/>
<path d="M21.2481 8.71554H20.2641C20.0451 8.71554 19.8651 8.64551 19.7241 8.50545C19.5841 8.34838 19.5141 8.1683 19.5141 7.96521C19.512 7.86938 19.5296 7.77412 19.5657 7.68534C19.6018 7.59655 19.6557 7.51611 19.7241 7.44899C19.7915 7.37271 19.8747 7.3122 19.9681 7.27174C20.0614 7.23128 20.1625 7.21187 20.2641 7.21489H21.2481C21.3498 7.21187 21.4509 7.23128 21.5442 7.27174C21.6375 7.3122 21.7208 7.37271 21.7881 7.44899C21.8565 7.51611 21.9105 7.59655 21.9466 7.68534C21.9827 7.77412 22.0003 7.86938 21.9981 7.96521C21.9999 8.16555 21.9247 8.35891 21.7881 8.50545C21.7172 8.57549 21.6327 8.63026 21.5399 8.66639C21.447 8.70252 21.3477 8.71925 21.2481 8.71554Z" fill="white"/>
<path d="M17.0062 12.9594V11.975C17.0092 11.8733 16.9898 11.7722 16.9493 11.6788C16.9089 11.5854 16.8484 11.5021 16.7722 11.4348C16.7051 11.3663 16.6247 11.3124 16.5359 11.2762C16.4472 11.2401 16.352 11.2226 16.2562 11.2247C16.0559 11.223 15.8626 11.2982 15.7162 11.4348C15.6462 11.5057 15.5914 11.5902 15.5553 11.6832C15.5192 11.7761 15.5025 11.8754 15.5062 11.975V12.9594C15.5062 13.1785 15.5762 13.3586 15.7162 13.4997C15.8732 13.6397 16.0532 13.7098 16.2562 13.7098C16.4592 13.7098 16.6312 13.6397 16.7722 13.4997C16.8484 13.4323 16.9089 13.349 16.9493 13.2556C16.9898 13.1623 17.0092 13.0612 17.0062 12.9594Z" fill="white"/>
</svg>
