<svg width="24" height="24" viewBox="0 0 24 24" fill="none" xmlns="http://www.w3.org/2000/svg">
<path d="M10.675 3.60894C10.7761 3.59394 10.8731 3.55894 10.9602 3.50594C11.0473 3.45294 11.1213 3.38094 11.1804 3.29694C11.2424 3.21594 11.2865 3.12294 11.3115 3.02394C11.3365 2.92494 11.3405 2.82194 11.3245 2.72194C11.3035 2.62394 11.2634 2.52994 11.2064 2.44794C11.1493 2.36594 11.0753 2.29594 10.9902 2.24194C10.9142 2.17994 10.8251 2.13394 10.73 2.10994C10.635 2.08594 10.5349 2.08194 10.4378 2.09894C9.89538 2.19394 9.09476 2.45794 8.03994 2.88994C7.00013 3.32194 6.03238 3.99194 5.13769 4.90394C4.01782 6.03894 3.30526 7.11694 3.00303 8.13994C2.71581 9.16294 2.53166 9.96994 2.4506 10.5609V10.7039L2.40357 11.0639C2.38755 11.1759 2.37955 11.2879 2.37955 11.3989V11.4949L2.33151 11.8069V12.0939C2.29848 12.3329 2.25945 12.5569 2.21042 12.7649C2.17939 12.9569 2.13035 13.1329 2.0673 13.2929C1.98724 13.4829 1.97824 13.6959 2.04229 13.8919C2.08132 13.9859 2.14036 14.0709 2.21442 14.1419C2.28848 14.2129 2.37755 14.2659 2.47362 14.2989C2.65576 14.3789 2.86192 14.3879 3.05007 14.3239C3.24422 14.2419 3.39934 14.0869 3.4824 13.8919C3.59449 13.6199 3.67355 13.3399 3.72159 13.0529C3.78163 12.7839 3.82967 12.5119 3.8647 12.2379V11.9259L3.91374 11.5909V11.1829L3.96077 10.8969V10.8239C3.97378 10.8019 3.98179 10.7779 3.98579 10.7519C4.04884 10.2079 4.20096 9.52094 4.44115 8.68994C4.69734 7.84294 5.2888 6.93994 6.21652 5.98094C6.98412 5.21394 7.80676 4.64694 8.68744 4.27894C9.58313 3.91194 10.2466 3.68794 10.678 3.60794L10.675 3.60894Z" fill="white"/>
<path d="M14.8022 2.0747C14.7031 2.0427 14.598 2.0327 14.4949 2.0447C14.3918 2.0567 14.2918 2.0917 14.2027 2.1467C14.1156 2.1947 14.0386 2.2597 13.9765 2.3387C13.9145 2.4177 13.8694 2.5067 13.8434 2.6037C13.7954 2.7977 13.8214 3.0017 13.9155 3.1787C14.0276 3.3707 14.1797 3.4907 14.3708 3.5387C15.1715 3.7627 16.0101 4.1467 16.8898 4.6897C17.7705 5.2167 18.5211 5.9837 19.1445 6.9907C19.4488 7.4857 19.713 8.0617 19.9371 8.7157C20.1613 9.3697 20.3124 10.1137 20.3925 10.9447C20.4886 11.7747 20.4886 12.7027 20.3925 13.7257C20.3124 14.7487 20.1213 15.8907 19.8171 17.1527C19.784 17.2477 19.774 17.3487 19.786 17.4487C19.798 17.5487 19.8331 17.6437 19.8881 17.7287C20.0002 17.9047 20.1603 18.0157 20.3685 18.0637C20.5766 18.1267 20.7678 18.1037 20.9439 17.9917C21.035 17.9417 21.1141 17.8737 21.1761 17.7907C21.2382 17.7077 21.2822 17.6127 21.3042 17.5117C21.6235 16.2027 21.8316 14.9877 21.9287 13.8687C22.0238 12.7507 22.0238 11.7277 21.9287 10.8007C21.8476 9.9287 21.6695 9.0687 21.3993 8.2357C21.1641 7.5127 20.8419 6.8207 20.4405 6.1747C19.689 4.9447 18.7853 4.0167 17.7304 3.3937C16.6746 2.7697 15.6989 2.3307 14.8032 2.0757L14.8022 2.0747Z" fill="white"/>
<path d="M7.72605 9.72145C7.96524 9.11345 8.47763 8.45845 9.26124 7.75545C10.0448 7.03645 11.0446 6.69145 12.2606 6.72445C12.9801 6.75645 13.5876 6.88445 14.083 7.10745C14.5784 7.31545 14.9867 7.56245 15.3059 7.84945C15.6582 8.15345 15.9384 8.48145 16.1456 8.83245C16.3708 9.16845 16.5459 9.47945 16.674 9.76845C16.7541 9.95945 16.8902 10.0955 17.0823 10.1755C17.2785 10.2395 17.4916 10.2305 17.6818 10.1505C17.8659 10.0625 18.011 9.90845 18.0891 9.71945C18.1291 9.62345 18.1471 9.52045 18.1431 9.41745C18.1391 9.31445 18.1121 9.21245 18.0651 9.12045C17.8709 8.72445 17.6548 8.34045 17.4176 7.96945C17.1223 7.49445 16.7591 7.06645 16.3377 6.69945C15.8744 6.29945 15.3059 5.95645 14.6344 5.66845C13.9789 5.38045 13.2033 5.22045 12.3076 5.18745C11.492 5.17245 10.7474 5.29245 10.0769 5.54845C9.43538 5.78745 8.83591 6.12645 8.3025 6.55445C7.7911 6.95345 7.36677 7.38445 7.03051 7.84945C6.69525 8.32845 6.44706 8.76745 6.28794 9.16745C6.24891 9.26245 6.22789 9.36345 6.22789 9.46645C6.22789 9.56945 6.2479 9.67045 6.28794 9.76545C6.32997 9.85545 6.39001 9.93645 6.46407 10.0025C6.53813 10.0685 6.6252 10.1185 6.72027 10.1505C6.81134 10.1895 6.90842 10.2105 7.00749 10.2105C7.10657 10.2105 7.20465 10.1905 7.29472 10.1505C7.39379 10.1145 7.48386 10.0575 7.55892 9.98245C7.63398 9.90745 7.69102 9.81745 7.72705 9.71845L7.72605 9.72145Z" fill="white"/>
<path d="M13.1952 10.7055C13.1001 10.5625 12.978 10.4405 12.8349 10.3455C12.6918 10.2495 12.4836 10.2095 12.2104 10.2255C12.0473 10.2355 11.8862 10.2685 11.731 10.3215C11.628 10.3645 11.5309 10.4205 11.4438 10.4895C11.3798 10.5365 11.3157 10.6005 11.2517 10.6805C11.1986 10.7535 11.1586 10.8345 11.1316 10.9205C11.0485 11.1265 11.0005 11.3455 10.9885 11.5665C10.9725 11.8065 10.9634 12.0695 10.9634 12.3585V12.4545C10.9244 13.3865 10.7803 14.3115 10.5311 15.2105C10.2749 16.0575 9.97968 16.8165 9.64342 17.4875C9.14604 18.5545 8.49153 19.5395 7.70091 20.4125C7.63486 20.4895 7.5538 20.5515 7.46373 20.5975C7.37366 20.6435 7.27458 20.6695 7.17351 20.6765C6.96835 20.6775 6.77119 20.6005 6.62208 20.4605C6.54402 20.4005 6.48097 20.3245 6.43493 20.2375C6.3889 20.1505 6.36288 20.0545 6.35787 19.9565C6.35787 19.7335 6.42993 19.5415 6.57404 19.3815C6.79821 19.1255 7.06242 18.7825 7.36666 18.3505C7.71693 17.8685 8.02116 17.3545 8.27736 16.8165C8.56458 16.2255 8.82078 15.5625 9.04496 14.8275C9.25312 14.0755 9.38022 13.2685 9.42825 12.4065V12.2855C9.42825 12.0295 9.43626 11.7275 9.45327 11.3755C9.4843 11.0235 9.57337 10.6715 9.71648 10.3215C9.79754 10.1295 9.90062 9.94554 10.0287 9.76954C10.1568 9.57854 10.326 9.40254 10.5321 9.24254C10.7483 9.09454 10.9825 8.97354 11.2277 8.88254C11.4838 8.78754 11.7631 8.72254 12.0673 8.69154H12.1153C12.7068 8.65954 13.1952 8.77154 13.5785 9.02654C13.9778 9.26554 14.29 9.56954 14.5142 9.93654C14.7053 10.2725 14.8334 10.6315 14.8975 11.0155C14.9605 11.3835 14.9856 11.7105 14.9696 11.9985V12.0705C14.9205 12.7515 14.8575 13.4305 14.7784 14.1085C14.6983 14.7955 14.5542 15.5305 14.3461 16.3135C14.1379 17.0805 13.8347 17.9035 13.4354 18.7825C13.0501 19.6455 12.5146 20.5885 11.8271 21.6115C11.7741 21.6965 11.704 21.7705 11.622 21.8285C11.5399 21.8865 11.4458 21.9265 11.3477 21.9475C11.1476 21.9805 10.9424 21.9385 10.7723 21.8275C10.6012 21.7075 10.4821 21.5275 10.437 21.3235C10.403 21.1235 10.446 20.9185 10.5571 20.7485C11.1816 19.8215 11.677 18.9585 12.0443 18.1605C12.3966 17.3775 12.6688 16.6335 12.8599 15.9315C13.0511 15.2275 13.1792 14.5485 13.2432 13.8945C13.3233 13.2555 13.3863 12.6165 13.4344 11.9765V11.8805C13.4504 11.7205 13.4344 11.5285 13.3863 11.3045C13.3593 11.0955 13.2943 10.8915 13.1952 10.7055Z" fill="white"/>
<path d="M17.7047 12.5972C17.8058 12.6042 17.9049 12.6312 17.9949 12.6762C18.085 12.7212 18.1661 12.7842 18.2321 12.8612C18.3752 13.0212 18.4403 13.2052 18.4233 13.4122C18.3913 13.8752 18.3282 14.4182 18.2321 15.0422C18.12 15.6662 17.9679 16.3292 17.7758 17.0312C17.6006 17.7182 17.3765 18.4222 17.1043 19.1412C16.8401 19.8452 16.5188 20.5262 16.1455 21.1782C16.1005 21.2702 16.0374 21.3522 15.9584 21.4192C15.8793 21.4862 15.7882 21.5342 15.6892 21.5622C15.5921 21.5872 15.49 21.5912 15.3919 21.5742C15.2939 21.5572 15.1988 21.5212 15.1147 21.4662C15.0226 21.4212 14.9406 21.3582 14.8745 21.2792C14.8085 21.2002 14.7594 21.1092 14.7314 21.0112C14.7064 20.9142 14.7024 20.8122 14.7194 20.7132C14.7364 20.6142 14.7724 20.5192 14.8285 20.4352C15.1477 19.8442 15.435 19.2212 15.6912 18.5652C15.9313 17.9102 16.1395 17.2632 16.3156 16.6242C16.4828 16.0252 16.6109 15.4172 16.6989 14.8022C16.794 14.2272 16.8591 13.7322 16.8901 13.3162C16.8971 13.2152 16.9241 13.1172 16.9692 13.0262C17.0142 12.9352 17.0772 12.8552 17.1543 12.7892C17.2274 12.7202 17.3144 12.6672 17.4095 12.6342C17.5046 12.6012 17.6056 12.5882 17.7067 12.5972H17.7047Z" fill="white"/>
<path d="M6.59844 12.5736C6.8066 12.6216 6.96573 12.7336 7.07781 12.9086C7.20591 13.0846 7.24594 13.2766 7.19791 13.4836C7.10283 13.9646 6.87866 14.6186 6.52639 15.4496C6.19113 16.2646 5.68674 17.0246 5.01621 17.7276C4.94516 17.8026 4.86009 17.8636 4.76502 17.9046C4.66995 17.9456 4.56787 17.9666 4.46379 17.9666C4.25963 17.9676 4.06247 17.8906 3.91336 17.7516C3.77025 17.6116 3.68518 17.4236 3.67317 17.2236C3.67317 17.0146 3.74523 16.8316 3.88934 16.6716C4.41675 16.1216 4.83908 15.4796 5.13731 14.7786C5.42453 14.0916 5.60767 13.5566 5.68874 13.1726C5.70875 13.0736 5.74978 12.9806 5.80683 12.8976C5.86387 12.8146 5.93793 12.7446 6.024 12.6916C6.19413 12.5816 6.40029 12.5386 6.60044 12.5726L6.59844 12.5736Z" fill="white"/>
</svg>
