<svg width="24" height="24" viewBox="0 0 24 24" fill="none" xmlns="http://www.w3.org/2000/svg">
<path d="M3.5002 16.8584C3.08588 16.8584 2.75 17.1942 2.75 17.6084C2.75 18.0226 3.08588 18.3584 3.5002 18.3584C8.52919 18.3584 14.8214 18.5167 19.6186 21.3943C19.8137 21.5113 20.0515 21.5335 20.2649 21.4546C20.4783 21.3757 20.6443 21.2042 20.7163 20.9884L21.7166 17.9884C21.8476 17.5954 21.6352 17.1707 21.2421 17.0397C20.849 16.9087 20.4242 17.1211 20.2932 17.514L19.5803 19.652C14.5031 16.973 8.21943 16.8584 3.5002 16.8584Z" fill="white"/>
<path d="M17.2487 8.24902C17.6631 8.24902 17.9989 8.58481 17.9989 8.99902C17.9989 9.41324 17.6631 9.74902 17.2487 9.74902C16.8344 9.74902 16.4985 9.41324 16.4985 8.99902C16.4985 8.58481 16.8344 8.24902 17.2487 8.24902Z" fill="white"/>
<path d="M15.0036 8.99902C15.0036 10.6559 13.6601 11.999 12.0028 11.999C10.3455 11.999 9.00198 10.6559 9.00198 8.99902C9.00198 7.34217 10.3455 5.99902 12.0028 5.99902C13.6601 5.99902 15.0036 7.34217 15.0036 8.99902ZM13.5032 8.99902C13.5032 8.1706 12.8314 7.49902 12.0028 7.49902C11.1741 7.49902 10.5024 8.1706 10.5024 8.99902C10.5024 9.82745 11.1741 10.499 12.0028 10.499C12.8314 10.499 13.5032 9.82745 13.5032 8.99902Z" fill="white"/>
<path d="M7.50146 8.99902C7.50146 8.58481 7.16559 8.24902 6.75126 8.24902C6.33694 8.24902 6.00106 8.58481 6.00106 8.99902C6.00106 9.41324 6.33694 9.74902 6.75126 9.74902C7.16559 9.74902 7.50146 9.41324 7.50146 8.99902Z" fill="white"/>
<path d="M22 12.499C22 14.1559 20.6565 15.499 18.9992 15.499H5.0008C3.3435 15.499 2 14.1559 2 12.499V5.49902C2 3.84217 3.3435 2.49902 5.0008 2.49902H18.9992C20.6565 2.49902 22 3.84217 22 5.49902V12.499ZM20.4996 6.49902C19.1185 6.49902 17.9989 5.37974 17.9989 3.99902H6.00106C6.00106 5.37974 4.88148 6.49902 3.5004 6.49902L3.5004 11.499C4.88148 11.499 6.00106 12.6183 6.00106 13.999H17.9989C17.9989 12.6183 19.1185 11.499 20.4996 11.499V6.49902Z" fill="white"/>
</svg>
