<svg width="24" height="24" viewBox="0 0 24 24" fill="none" xmlns="http://www.w3.org/2000/svg">
<path d="M4.99804 14.2445C4.99804 13.8303 5.33383 13.4945 5.74804 13.4945H14.248C14.6623 13.4945 14.998 13.8303 14.998 14.2445C14.998 14.6587 14.6623 14.9945 14.248 14.9945H5.74804C5.33383 14.9945 4.99804 14.6587 4.99804 14.2445Z" fill="white"/>
<path d="M16.752 13.4945C16.3377 13.4945 16.002 13.8303 16.002 14.2445C16.002 14.6587 16.3377 14.9945 16.752 14.9945H18.252C18.6662 14.9945 19.002 14.6587 19.002 14.2445C19.002 13.8303 18.6662 13.4945 18.252 13.4945H16.752Z" fill="white"/>
<path d="M4.99804 17.2454C4.99804 16.8312 5.33383 16.4954 5.74804 16.4954H9.64804C10.0623 16.4954 10.398 16.8312 10.398 17.2454C10.398 17.6596 10.0623 17.9954 9.64805 17.9954H5.74805C5.33383 17.9954 4.99804 17.6596 4.99804 17.2454Z" fill="white"/>
<path d="M12.148 16.4954C11.7338 16.4954 11.398 16.8312 11.398 17.2454C11.398 17.6596 11.7338 17.9954 12.148 17.9954H18.248C18.6623 17.9954 18.998 17.6596 18.998 17.2454C18.998 16.8312 18.6623 16.4954 18.248 16.4954H12.148Z" fill="white"/>
<path d="M6 3.00201C3.79086 3.00201 2 4.79288 2 7.00201V16.998C2 19.2072 3.79086 20.998 6 20.998H18C20.2091 20.998 22 19.2072 22 16.998V7.00201C22 4.79287 20.2091 3.00201 18 3.00201H6ZM18 4.50201C19.3807 4.50201 20.5 5.6213 20.5 7.00201V16.998C20.5 18.3788 19.3807 19.498 18 19.498H6C4.61929 19.498 3.5 18.3788 3.5 16.998V7.00201C3.5 5.6213 4.61929 4.50201 6 4.50201H18Z" fill="white"/>
</svg>
