<svg width="24" height="24" viewBox="0 0 24 24" fill="none" xmlns="http://www.w3.org/2000/svg">
<path d="M12.642 2.43399C12.68 2.51699 12.699 2.60699 12.698 2.69799V21.304C12.699 21.395 12.68 21.485 12.642 21.568C12.604 21.651 12.549 21.724 12.48 21.783C12.421 21.852 12.347 21.908 12.265 21.946C12.183 21.984 12.092 22.003 12.001 22.002C11.907 22.002 11.814 21.982 11.727 21.945C11.64 21.908 11.563 21.853 11.499 21.784C11.369 21.654 11.304 21.494 11.304 21.305V2.69899C11.302 2.60999 11.319 2.52199 11.352 2.43899C11.385 2.35599 11.436 2.28199 11.499 2.21999C11.563 2.15099 11.641 2.09599 11.727 2.05899C11.813 2.02199 11.906 2.00199 12.001 2.00199C12.092 2.00099 12.182 2.01999 12.265 2.05799C12.348 2.09599 12.421 2.15099 12.481 2.22099C12.55 2.27999 12.605 2.35299 12.643 2.43599L12.642 2.43399Z" fill="white"/>
<path d="M14.331 3.87399C14.238 3.87099 14.146 3.88599 14.06 3.91999C13.974 3.95399 13.895 4.00399 13.829 4.06999C13.764 4.13599 13.713 4.21399 13.68 4.30099C13.647 4.38799 13.631 4.47999 13.634 4.57199C13.634 4.76099 13.699 4.92799 13.829 5.07299C13.96 5.20299 14.127 5.26799 14.331 5.26799H16.183C16.372 5.26799 16.532 5.20299 16.663 5.07299C16.732 5.00899 16.786 4.93099 16.824 4.84499C16.862 4.75899 16.881 4.66599 16.881 4.57099C16.884 4.47699 16.865 4.38299 16.828 4.29699C16.791 4.21099 16.734 4.13399 16.664 4.07099C16.602 4.00699 16.527 3.95699 16.445 3.92299C16.363 3.88899 16.274 3.87299 16.185 3.87499H14.333L14.331 3.87399Z" fill="white"/>
<path d="M18.32 4.23899C18.411 4.24299 18.499 4.26699 18.579 4.30999C19.006 4.52199 19.396 4.80099 19.733 5.13699C20.08 5.45399 20.367 5.83099 20.583 6.24899C20.626 6.33199 20.652 6.42299 20.659 6.51599C20.666 6.60899 20.655 6.70299 20.626 6.79199C20.566 6.96899 20.442 7.11699 20.277 7.20699C20.194 7.24999 20.102 7.27599 20.009 7.28299C19.916 7.28999 19.821 7.27899 19.732 7.24999C19.646 7.22199 19.567 7.17599 19.5 7.11599C19.433 7.05599 19.378 6.98299 19.34 6.90099C19.18 6.60999 18.985 6.35599 18.753 6.13899C18.521 5.90699 18.258 5.71699 17.969 5.57199C17.887 5.53399 17.814 5.47899 17.754 5.41199C17.694 5.34499 17.649 5.26599 17.62 5.17999C17.591 5.09099 17.58 4.99699 17.587 4.90299C17.594 4.80899 17.62 4.71799 17.663 4.63499C17.697 4.55099 17.75 4.47499 17.818 4.41499C17.886 4.35499 17.967 4.31099 18.055 4.28699C18.138 4.25099 18.228 4.23399 18.319 4.23799L18.32 4.23899Z" fill="white"/>
<path d="M21.063 8.79799C21.064 8.70699 21.045 8.61699 21.008 8.53399C20.971 8.45099 20.915 8.37799 20.846 8.31799C20.787 8.24899 20.713 8.19399 20.63 8.15599C20.547 8.11799 20.457 8.09999 20.366 8.10099C20.272 8.10099 20.179 8.11999 20.092 8.15799C20.005 8.19599 19.928 8.24999 19.864 8.31899C19.8 8.38099 19.75 8.45599 19.717 8.53899C19.684 8.62199 19.667 8.70999 19.669 8.79899V10.934C19.669 11.123 19.734 11.289 19.864 11.435C20.01 11.565 20.177 11.63 20.366 11.63C20.555 11.63 20.715 11.565 20.846 11.435C20.915 11.371 20.969 11.293 21.007 11.206C21.045 11.119 21.064 11.027 21.064 10.932L21.063 8.79799Z" fill="white"/>
<path d="M20.845 12.697C20.714 12.552 20.554 12.479 20.365 12.479C20.271 12.479 20.178 12.499 20.091 12.537C20.004 12.575 19.927 12.629 19.862 12.698C19.732 12.829 19.667 12.988 19.667 13.178V15.247C19.664 15.34 19.679 15.432 19.713 15.518C19.747 15.604 19.798 15.683 19.863 15.749C19.999 15.876 20.179 15.946 20.365 15.944C20.454 15.946 20.543 15.93 20.625 15.896C20.707 15.862 20.782 15.812 20.845 15.749C20.916 15.686 20.972 15.609 21.01 15.522C21.048 15.435 21.066 15.341 21.063 15.247V13.178C21.063 12.989 20.991 12.829 20.845 12.698V12.697Z" fill="white"/>
<path d="M17.817 19.742C17.751 19.678 17.699 19.602 17.664 19.517C17.621 19.437 17.595 19.35 17.588 19.26C17.581 19.17 17.592 19.079 17.62 18.994C17.646 18.904 17.69 18.821 17.75 18.75C17.81 18.679 17.885 18.621 17.968 18.58C18.258 18.449 18.52 18.268 18.753 18.035C18.986 17.802 19.183 17.539 19.34 17.251C19.423 17.095 19.564 16.978 19.732 16.925C19.82 16.889 19.915 16.874 20.01 16.881C20.105 16.888 20.196 16.919 20.277 16.968C20.361 17.008 20.436 17.066 20.496 17.137C20.556 17.208 20.6 17.292 20.626 17.381C20.655 17.467 20.666 17.557 20.658 17.647C20.65 17.737 20.625 17.825 20.582 17.904C20.364 18.325 20.081 18.702 19.732 19.036C19.398 19.371 19.007 19.644 18.578 19.843C18.498 19.887 18.409 19.913 18.317 19.92C18.225 19.927 18.134 19.915 18.047 19.884C17.961 19.853 17.882 19.804 17.816 19.741L17.817 19.742Z" fill="white"/>
<path d="M13.634 19.429C13.634 19.24 13.699 19.08 13.829 18.95C13.892 18.879 13.969 18.823 14.056 18.785C14.143 18.747 14.237 18.729 14.331 18.732H16.183C16.372 18.732 16.532 18.804 16.663 18.95C16.808 19.08 16.881 19.24 16.881 19.429C16.884 19.524 16.866 19.618 16.828 19.704C16.79 19.79 16.734 19.868 16.663 19.931C16.601 19.995 16.526 20.045 16.443 20.078C16.36 20.111 16.272 20.128 16.183 20.126H14.331C14.238 20.129 14.146 20.114 14.06 20.08C13.974 20.046 13.895 19.995 13.829 19.93C13.764 19.864 13.713 19.786 13.68 19.699C13.647 19.612 13.631 19.52 13.634 19.428V19.429Z" fill="white"/>
<path d="M4.33104 8.27399C4.33104 7.44699 4.62204 6.74199 5.20304 6.16099C5.79804 5.56599 6.51704 5.26799 7.36004 5.26799H9.62504C9.81404 5.26799 9.97404 5.20299 10.105 5.07199C10.174 5.00799 10.228 4.92999 10.266 4.84399C10.304 4.75799 10.323 4.66499 10.323 4.56999C10.326 4.47599 10.307 4.38199 10.27 4.29599C10.233 4.20999 10.176 4.13299 10.106 4.06999C10.044 4.00599 9.96904 3.95599 9.88604 3.92199C9.80304 3.88799 9.71504 3.87199 9.62604 3.87399H7.36104C6.75104 3.87399 6.17704 3.98999 5.64004 4.22299C4.58904 4.67399 3.74804 5.50699 3.28704 6.55299C3.05304 7.09599 2.93504 7.68199 2.93804 8.27399V15.725C2.93804 16.335 3.05404 16.908 3.28704 17.446C3.51904 17.969 3.83204 18.434 4.22404 18.84C4.63004 19.232 5.10204 19.545 5.64004 19.777C6.17804 20.009 6.75204 20.126 7.36104 20.126H9.62604C9.81504 20.126 9.97504 20.061 10.106 19.931C10.177 19.868 10.233 19.791 10.271 19.704C10.309 19.617 10.327 19.523 10.324 19.429C10.325 19.338 10.306 19.248 10.268 19.165C10.23 19.082 10.175 19.009 10.106 18.95C10.047 18.881 9.97304 18.825 9.89104 18.787C9.80904 18.749 9.71804 18.73 9.62704 18.731H7.36204C6.52004 18.731 5.80004 18.441 5.20504 17.86C4.92404 17.581 4.70204 17.248 4.55204 16.881C4.40204 16.514 4.32804 16.121 4.33304 15.725V8.27499L4.33104 8.27399Z" fill="white"/>
</svg>
