<svg width="24" height="24" viewBox="0 0 24 24" fill="none" xmlns="http://www.w3.org/2000/svg">
<path d="M12.338 5.05887L12.3615 5.14968H13.8736C14.9419 5.14968 15.8521 5.52517 16.6041 6.27819C17.3561 7.03122 17.7326 7.94137 17.7326 9.00866V12.6646L19.8539 13.2523C20.2213 13.339 20.5651 13.5033 20.8651 13.7319C21.1651 13.9604 21.412 14.2512 21.5926 14.5829C21.7906 14.9073 21.9212 15.2685 21.9752 15.645C22.0293 16.0216 22.0069 16.4052 21.9079 16.7725L21.3202 18.9388C21.2243 19.3081 21.0549 19.654 20.8222 19.956C20.5896 20.2581 20.2988 20.5111 19.9662 20.6989C19.2897 21.0897 18.5601 21.1866 17.7775 20.9917L13.1288 19.751C12.8043 19.6642 12.4982 19.5183 12.2258 19.3224C11.9605 19.1326 11.7258 18.9041 11.5268 18.6459H10.985C9.932 18.6459 9.02898 18.2704 8.27698 17.5174C7.52498 16.7644 7.14847 15.8542 7.14847 14.7869V11.7636L6.22301 12.0105C5.85874 12.1167 5.47713 12.1473 5.10062 12.1014C4.72411 12.0554 4.36086 11.932 4.03333 11.7402C3.69865 11.5493 3.40683 11.2932 3.17419 10.9871C2.94155 10.681 2.77319 10.33 2.67932 9.95657L2.11506 7.79036C2.00894 7.42609 1.97833 7.04448 2.02527 6.66797C2.07221 6.29146 2.19465 5.92923 2.38648 5.6017C2.79156 4.9099 3.37826 4.46604 4.14659 4.27014L8.79532 3.00694C9.57691 2.81001 10.3075 2.91612 10.984 3.32325C11.3166 3.50487 11.6084 3.7518 11.8411 4.05076C12.0737 4.34972 12.2431 4.69256 12.337 5.05989L12.338 5.05887ZM4.53024 5.64557C4.13944 5.75169 3.8466 5.97719 3.65069 6.32207C3.45479 6.66695 3.40989 7.03632 3.51601 7.42711L4.07924 9.59333C4.18536 9.96984 4.41086 10.2637 4.75574 10.4729C5.10266 10.6698 5.47101 10.7137 5.8618 10.6086L7.14847 10.2708V9.00662C7.14847 7.96892 7.50151 7.08121 8.20862 6.3435C8.54738 5.97923 8.95552 5.68639 9.40958 5.4813C9.86363 5.27621 10.3524 5.16295 10.8503 5.14764C10.7044 4.85174 10.4554 4.61808 10.1504 4.49257C9.84935 4.3436 9.50345 4.31197 9.18 4.40278L4.53126 5.64353L4.53024 5.64557ZM14.4389 18.598L18.1612 19.5908C18.5366 19.6969 18.8989 19.651 19.2448 19.4561C19.5774 19.2632 19.8203 18.9459 19.9213 18.5755L20.509 16.4093C20.6151 16.0185 20.5621 15.6491 20.3508 15.3043C20.1549 14.9573 19.8692 14.7318 19.4937 14.6278L17.7316 14.1768V14.7859C17.7316 15.7491 17.4153 16.5909 16.7837 17.3133C16.1521 18.0357 15.3684 18.4643 14.4358 18.6L14.4379 18.599L14.4389 18.598ZM13.8736 6.59246H10.985C10.3238 6.59246 9.75956 6.83327 9.29224 7.31487C9.06572 7.53425 8.88715 7.7975 8.76675 8.08932C8.64635 8.38114 8.58717 8.69337 8.59227 9.00866V14.7859C8.59227 15.4481 8.82491 16.0195 9.29121 16.5011C9.75854 16.9684 10.3218 17.2011 10.984 17.2011H13.8726C14.5491 17.2011 15.1215 16.9684 15.5878 16.5011C16.0551 16.0195 16.2878 15.4491 16.2878 14.7859V9.00866C16.2878 8.34645 16.0551 7.78322 15.5878 7.31589C15.3684 7.08223 15.1021 6.89755 14.8073 6.77307C14.5124 6.64858 14.194 6.58634 13.8736 6.59246Z" fill="white"/>
</svg>
