<svg width="24" height="24" viewBox="0 0 24 24" fill="none" xmlns="http://www.w3.org/2000/svg">
<path d="M20.9471 8.11298L7.34008 21.695C7.24408 21.791 7.13408 21.87 7.01208 21.93C6.89308 21.979 6.76608 22.002 6.63708 22H3.03008C2.89508 22.001 2.76108 21.975 2.63608 21.923C2.51108 21.871 2.39908 21.793 2.30508 21.696C2.20708 21.602 2.13008 21.49 2.07808 21.365C2.02608 21.24 1.99908 21.106 2.00108 20.971V17.364C2.00108 17.224 2.02508 17.099 2.07108 16.989C2.13108 16.868 2.21008 16.757 2.30608 16.661L15.8891 3.05498C16.5911 2.35298 17.4341 2.00098 18.4171 2.00098C19.4001 2.00098 20.2451 2.35298 20.9471 3.05498C21.6491 3.75698 22.0011 4.60098 22.0011 5.58398C22.0011 6.56698 21.6491 7.41098 20.9471 8.11298ZM6.21608 20.454C6.27908 20.454 6.34208 20.446 6.40308 20.431C6.46408 20.401 6.52008 20.362 6.56808 20.314L16.8021 10.08L13.9211 7.19898L3.68708 17.433C3.63908 17.481 3.59908 17.537 3.56908 17.598C3.55408 17.659 3.54608 17.722 3.54608 17.785V19.963C3.54408 20.028 3.55508 20.093 3.57908 20.154C3.60308 20.215 3.63908 20.27 3.68508 20.316C3.73108 20.362 3.78608 20.398 3.84708 20.422C3.90808 20.446 3.97208 20.457 4.03808 20.455L6.21608 20.454ZM14.9981 6.12298L17.8791 9.00298L19.8701 7.01198C20.2601 6.62198 20.4561 6.14598 20.4561 5.58298C20.4561 5.01998 20.2611 4.53698 19.8701 4.13098C19.6791 3.94198 19.4521 3.79298 19.2031 3.69198C18.9541 3.59098 18.6871 3.54198 18.4181 3.54498C17.8551 3.54498 17.3791 3.73998 16.9891 4.13098L14.9981 6.12298Z" fill="white"/>
</svg>
