<svg width="24" height="24" viewBox="0 0 24 24" fill="none" xmlns="http://www.w3.org/2000/svg">
<path d="M16.988 12H13.9904C13.4448 12 12.9752 12.1958 12.5855 12.5855C12.1948 12.9762 12 13.4438 12 13.9904V16.988C11.995 17.2538 12.044 17.5176 12.1449 17.7634C12.2458 18.0092 12.3957 18.232 12.5855 18.4169C12.7674 18.6057 12.9852 18.7546 13.227 18.8555C13.4688 18.9564 13.7286 19.0064 13.9904 19.0024H16.988C17.5506 19.0024 18.0272 18.8066 18.4169 18.4169C18.8076 18.0272 19.0024 17.5506 19.0024 16.988V13.9904C19.0024 13.4448 18.8066 12.9752 18.4169 12.5855C18.0272 12.1948 17.5506 12 16.988 12ZM13.9904 13.4988H16.4265L13.4988 16.4265V13.9904C13.4968 13.9255 13.5078 13.8605 13.5318 13.7996C13.5558 13.7386 13.5917 13.6837 13.6377 13.6377C13.6837 13.5917 13.7386 13.5558 13.7996 13.5318C13.8605 13.5078 13.9255 13.4968 13.9904 13.4988ZM14.553 17.5036L17.5036 14.553V16.988C17.5036 17.059 17.4886 17.1279 17.4606 17.1928C17.4327 17.2578 17.3917 17.3157 17.3397 17.3637C17.2458 17.4566 17.1279 17.5036 16.988 17.5036H14.553Z" fill="white"/>
<path d="M2 6.0048V17.9952C2 19.1033 2.39069 20.0486 3.17106 20.8289C3.95144 21.6093 4.89568 22 6.0048 22H17.9952C19.1033 22 20.0486 21.6093 20.8289 20.8289C21.6093 20.0486 22 19.1043 22 17.9952V6.0048C22 4.89668 21.6093 3.95144 20.8289 3.17106C20.0486 2.39069 19.1043 2 17.9952 2H6.0048C4.89668 2 3.95144 2.39069 3.17106 3.17106C2.39069 3.95144 2 4.89568 2 6.0048ZM3.4988 17.9952V6.0048C3.49381 5.67806 3.55476 5.35332 3.67966 5.05156C3.80456 4.7498 3.99041 4.47602 4.22522 4.2482C4.72482 3.7486 5.31735 3.4988 6.0048 3.4988H17.9952C18.6827 3.4988 19.2672 3.7486 19.7518 4.2482C20.2514 4.73281 20.5012 5.31735 20.5012 6.0048V17.9952C20.5012 18.6827 20.2514 19.2752 19.7518 19.7748C19.2672 20.2594 18.6827 20.5012 17.9952 20.5012H6.0048C5.31735 20.5012 4.72482 20.2594 4.22522 19.7748C3.74061 19.2752 3.4988 18.6827 3.4988 17.9952Z" fill="white"/>
</svg>
