<svg width="24" height="24" viewBox="0 0 24 24" fill="none" xmlns="http://www.w3.org/2000/svg">
<path d="M12.0003 16.7776C12.2031 16.7776 12.375 16.7077 12.5159 16.5678C12.5897 16.4986 12.6485 16.415 12.6887 16.3222C12.729 16.2294 12.7497 16.1293 12.7497 16.0282V4.57619L14.998 6.82361C15.1539 6.96352 15.3338 7.03347 15.5376 7.03347C15.7395 7.03347 15.9113 6.96352 16.0522 6.82361C16.126 6.75441 16.1848 6.67082 16.225 6.57801C16.2652 6.4852 16.286 6.38514 16.2861 6.28399C16.2871 6.18633 16.2667 6.08962 16.2263 6.0007C16.1859 5.91178 16.1265 5.83281 16.0522 5.76935L12.5389 2.23184C12.4696 2.15856 12.3861 2.1002 12.2935 2.06033C12.2009 2.02046 12.1011 1.99993 12.0003 2C11.899 2.00018 11.7989 2.02112 11.7061 2.06151C11.6133 2.1019 11.5298 2.16089 11.4607 2.23484L7.9493 5.77035C7.87505 5.8338 7.81563 5.91278 7.77523 6.0017C7.73483 6.09062 7.71443 6.18733 7.71548 6.28499C7.71548 6.48785 7.79342 6.66772 7.9493 6.82461C8.0892 6.96451 8.26207 7.03447 8.46492 7.03447C8.66776 7.03447 8.84763 6.96451 9.00351 6.82461L11.2518 4.57619V16.0282C11.2518 16.231 11.3218 16.4109 11.4617 16.5678C11.6186 16.7077 11.7984 16.7776 12.0013 16.7776H12.0003Z" fill="white"/>
<path d="M3.1951 13.2172C3.05421 13.0773 2.89033 13.0073 2.70247 13.0073V13.0063C2.61047 13.006 2.51938 13.0246 2.43483 13.0608C2.35027 13.0971 2.27404 13.1503 2.21084 13.2172C2.06995 13.3421 2 13.506 2 13.7088V17.5032C2 18.7363 2.42968 19.7985 3.28903 20.6879C4.16238 21.5623 5.20859 22 6.42668 22H17.5743C18.7924 22 19.8296 21.5623 20.689 20.6879C21.5633 19.7985 22 18.7363 22 17.5032V13.7088C22 13.506 21.9301 13.3421 21.7902 13.2162C21.6493 13.0763 21.4854 13.0063 21.2985 13.0063C21.2065 13.006 21.1154 13.0246 21.0309 13.0608C20.9463 13.0971 20.8701 13.1503 20.8069 13.2172C20.665 13.3421 20.5951 13.506 20.5951 13.7088V17.5042C20.5951 18.3476 20.2993 19.0731 19.7057 19.6826C19.1282 20.2752 18.4177 20.572 17.5743 20.572H6.42668C5.58331 20.572 4.86485 20.2752 4.2723 19.6826C3.69473 19.0731 3.40495 18.3476 3.40495 17.5042V13.7098C3.40495 13.507 3.335 13.3431 3.1951 13.2172Z" fill="white"/>
</svg>
