<svg width="24" height="24" viewBox="0 0 24 24" fill="none" xmlns="http://www.w3.org/2000/svg">
<path d="M22 7.90377C22 8.70149 21.7138 9.38656 21.1424 9.95795C20.8785 10.2289 20.5629 10.4421 20.2127 10.5862C19.8626 10.7303 19.4881 10.8003 19.1105 10.7932C18.73 10.7993 18.3514 10.7283 17.9982 10.5842C17.645 10.44 17.3243 10.2279 17.0554 9.95795C16.7854 9.689 16.5723 9.36829 16.4292 9.0151C16.286 8.66191 16.215 8.28436 16.2201 7.90276C16.2201 7.10504 16.4982 6.42809 17.0554 5.87091C17.6278 5.29951 18.3118 5.01331 19.1095 5.01331C19.9073 5.01331 20.5842 5.29951 21.1414 5.87091C21.7128 6.42809 21.999 7.10605 21.999 7.90276L22 7.90377Z" fill="white"/>
<path d="M2.72176 7.18116C2.62433 7.18116 2.52791 7.20145 2.4386 7.24104C2.34929 7.28062 2.26911 7.33644 2.20213 7.40748C2.13616 7.47244 2.0844 7.54957 2.04989 7.63482C2.01538 7.72007 1.99813 7.81142 2.00016 7.90377C2.00016 8.11487 2.06714 8.28842 2.20213 8.42341C2.35233 8.55839 2.52588 8.62537 2.72176 8.62537C4.25631 8.62537 5.49754 8.88925 6.44547 9.41497C7.40862 9.92751 8.16169 10.5375 8.70263 11.2438C9.2588 11.9665 9.64346 12.7337 9.85354 13.5457C10.0799 14.3444 10.1925 15.0356 10.1925 15.6232C10.1925 15.8191 10.2595 15.9916 10.3945 16.1418C10.5457 16.2768 10.7193 16.3438 10.9141 16.3438C11.109 16.3438 11.2754 16.2768 11.4114 16.1418C11.4825 16.0748 11.5393 15.9946 11.5779 15.9053C11.6164 15.816 11.6367 15.7196 11.6367 15.6222C11.6367 14.1932 11.9453 13.026 12.5613 12.1238C13.1794 11.2205 13.9244 10.506 14.7972 9.97927C14.8774 9.92954 14.9474 9.86357 15.0012 9.78643C15.055 9.7093 15.0935 9.621 15.1128 9.52865C15.1362 9.4373 15.1402 9.3419 15.125 9.24853C15.1098 9.15516 15.0753 9.06585 15.0235 8.98668C14.9768 8.90143 14.9119 8.82734 14.8337 8.76848C14.7556 8.70961 14.6663 8.66902 14.5708 8.64872C14.4795 8.62639 14.3841 8.62334 14.2907 8.63857C14.1974 8.65379 14.1091 8.6883 14.0289 8.73803C13.3773 9.14501 12.7785 9.63014 12.2457 10.1822C11.6865 10.7648 11.2287 11.4357 10.8918 12.1694C10.7649 11.8569 10.6137 11.5544 10.4391 11.2662C10.2717 10.9475 10.0758 10.6461 9.85253 10.3639C9.49731 9.90315 9.09642 9.47891 8.65595 9.09934C8.16879 8.71063 7.63901 8.37774 7.07675 8.10777C6.44953 7.80736 5.79085 7.58002 5.11188 7.42981C4.32634 7.25727 3.52354 7.17405 2.71973 7.18116H2.72176Z" fill="white"/>
<path d="M2.92474 17.7677C2.78875 17.9037 2.72176 18.0691 2.72176 18.265C2.71973 18.4578 2.79382 18.6436 2.92474 18.7846C3.06582 18.9156 3.25155 18.9886 3.44438 18.9866H21.2774C21.3697 18.9886 21.4611 18.9714 21.5463 18.9369C21.6316 18.9024 21.7087 18.8506 21.7737 18.7846C21.8447 18.7176 21.9016 18.6375 21.9411 18.5482C21.9807 18.4588 22 18.3624 22 18.265C22 18.0691 21.9249 17.9037 21.7737 17.7677C21.6387 17.6175 21.4733 17.5424 21.2774 17.5424H3.44539C3.34796 17.5424 3.25155 17.5627 3.16223 17.6012C3.07292 17.6398 2.99071 17.6966 2.92474 17.7677Z" fill="white"/>
</svg>
