<svg width="24" height="24" viewBox="0 0 24 24" fill="none" xmlns="http://www.w3.org/2000/svg">
<path d="M13.6161 19.199C13.6504 19.1754 13.686 19.155 13.7226 19.1378C14.5415 18.2987 15.4757 16.4823 15.7754 14.1328C15.0008 13.8241 14.3346 13.2685 13.8127 12.6043C13.507 12.2152 13.2428 11.7795 13.028 11.3147C12.4684 12.0186 11.7704 12.6078 11.0498 13.0863C10.0555 13.7465 8.96977 14.2287 8.02145 14.5306C8.09081 15.058 8.19417 15.6236 8.34988 16.1806C8.70468 17.45 9.29103 18.5325 10.2208 19.0997C10.394 19.153 10.5567 19.2819 10.6483 19.4394C10.8806 19.7985 10.7565 20.2943 10.3857 20.5017C10.0751 20.9276 6.81969 21.4544 5.98728 19.7407C5.96712 19.6991 5.94683 19.6466 5.92481 19.5896C5.85107 19.3988 5.75796 19.1578 5.58542 19.1121L4.60647 18.853C3.02842 18.4353 2.15953 16.7429 2.73976 15.2171L3.22268 13.9472C3.24589 13.8861 3.24429 13.8184 3.21823 13.7585L2.22773 11.4831C1.62656 10.102 2.24826 8.4943 3.6222 7.87702L4.79595 7.10105C5.01812 7.00123 5.05401 6.54702 5.0762 6.26608C5.08008 6.21695 5.08355 6.17311 5.08751 6.1374C5.31401 4.09899 7.61165 3.01688 9.32738 4.14057L10.0183 4.5931C10.129 4.66557 10.277 4.6393 10.3559 4.53315L10.8293 3.89657C11.8757 2.48955 13.954 2.40808 15.1074 3.72886L16.1715 4.94747C16.2521 5.03974 16.3876 5.06003 16.4917 4.9954C18.7083 3.61882 21.2917 6.13861 20.7108 8.4621L20.6048 8.88584C20.5629 9.0537 20.6913 9.143 20.8098 9.22539L20.8284 9.23837C22.4374 10.3646 22.3811 12.7659 20.7212 13.8155C20.4121 14.011 20.5799 14.2258 20.7617 14.4483C22.0894 16.0735 21.1805 18.5272 19.1144 18.8954L17.6643 19.1538C17.6165 19.1623 17.5768 19.1955 17.5599 19.241L17.3705 19.7511C16.7387 21.4519 14.4532 21.7363 13.4239 20.2421C13.1889 19.901 13.275 19.434 13.6161 19.199ZM13.9586 9.36406C13.97 9.40004 13.982 9.43793 13.9949 9.47785C14.1594 10.2952 14.5158 11.0713 14.9921 11.6775C15.5046 12.3297 16.1181 12.7406 16.7353 12.8582C17.1422 12.9357 17.4093 13.3284 17.3317 13.7353C17.3107 13.8459 17.2898 13.9563 17.269 14.0665C16.8881 16.0813 16.5197 18.0305 15.2092 19.7098C15.5193 19.7338 15.8395 19.5649 15.9643 19.2288L16.1538 18.7187C16.3557 18.1751 16.8302 17.7788 17.4012 17.6771L18.8513 17.4186C20.0409 17.2066 20.0421 15.9384 19.424 15.1817C18.7595 14.3683 18.9562 13.1569 19.8439 12.5955C20.6027 12.1157 20.7573 11.0196 19.9682 10.4672C19.331 10.0212 18.952 9.3125 19.1496 8.52204L19.2556 8.0983C19.5175 7.05052 18.3682 5.59577 17.2831 6.26966C16.5546 6.72206 15.6057 6.58 15.0416 5.9341L13.9775 4.71549C13.4533 4.11513 12.5086 4.15217 12.033 4.79172L11.5595 5.4283C11.0069 6.17133 9.97114 6.35526 9.1965 5.84792L8.50555 5.3954C7.72567 4.88463 6.77566 5.54382 6.6727 6.47037L6.62296 6.91811C6.55455 7.53371 6.09957 8.40843 5.53457 8.66227L4.23693 9.24527C3.61241 9.52585 3.32982 10.2566 3.60307 10.8844L4.59357 13.1599C4.77605 13.5791 4.78723 14.053 4.62472 14.4804L4.14181 15.7502C3.87806 16.4438 4.27301 17.213 4.99031 17.4029C5.07938 17.4265 5.16934 17.4491 5.25944 17.4717C5.99091 17.6552 6.7323 17.8413 7.09558 18.5892L7.33654 19.0853C7.58708 19.6011 8.13347 19.8444 8.64877 19.7683C7.74071 18.8927 7.2164 17.6976 6.90525 16.5844C6.66221 15.715 6.53373 14.8403 6.46356 14.0987C6.40437 13.7196 6.64337 13.3511 7.02287 13.2563C7.9483 13.0249 9.15132 12.5463 10.22 11.8367C11.2396 11.1597 12.0719 10.3165 12.4779 9.34162C12.6145 9.01359 12.7621 8.74389 13.0998 8.68761C13.2403 8.6642 13.3762 8.68511 13.5014 8.73048C13.7914 8.83557 13.8449 9.00467 13.9586 9.36406Z" fill="white"/>
</svg>
