<svg width="24" height="24" viewBox="0 0 24 24" fill="none" xmlns="http://www.w3.org/2000/svg">
<path d="M6.80241 9.23215C6.80439 9.13652 6.78679 9.0415 6.75067 8.95293C6.71456 8.86436 6.6607 8.78412 6.59241 8.71715C6.52518 8.64072 6.44195 8.58005 6.34862 8.53943C6.25529 8.49882 6.15415 8.47926 6.05241 8.48215C5.95129 8.48247 5.8513 8.50348 5.7586 8.5439C5.66591 8.58431 5.58246 8.64327 5.51341 8.71715C5.44512 8.78412 5.39127 8.86436 5.35515 8.95293C5.31904 9.0415 5.30143 9.13652 5.30341 9.23215L5.30365 14.0124C5.30365 14.6684 5.42765 15.2854 5.67765 15.8644C5.92765 16.4424 6.26365 16.9494 6.68565 17.3874C7.12365 17.8094 7.63065 18.1454 8.20865 18.3954C8.78765 18.6454 9.40465 18.7704 10.0607 18.7704L17.268 18.7702V21.2542C17.268 21.4732 17.338 21.6532 17.478 21.7942C17.619 21.9342 17.799 22.0042 18.018 22.0042C18.221 22.0042 18.393 21.9342 18.533 21.7942C18.6095 21.727 18.6701 21.6437 18.7108 21.5504C18.7514 21.4571 18.7709 21.356 18.768 21.2542V18.7702H21.252C21.3517 18.7738 21.451 18.7569 21.5439 18.7206C21.6367 18.6843 21.7212 18.6294 21.792 18.5592C21.9286 18.4127 22.0038 18.2195 22.002 18.0192C22.0055 17.92 21.9886 17.8211 21.9525 17.7286C21.9164 17.6361 21.8618 17.5519 21.792 17.4812C21.7212 17.411 21.6367 17.3561 21.5439 17.3198C21.451 17.2835 21.3517 17.2666 21.252 17.2702L10.0607 17.2704C9.17065 17.2704 8.40465 16.9504 7.76365 16.3094C7.12365 15.6694 6.80365 14.9034 6.80365 14.0124L6.80241 9.23215Z" fill="white"/>
<path d="M6.73908 2.7505C6.74278 2.65093 6.72606 2.55165 6.68995 2.45878C6.65383 2.36591 6.59908 2.28142 6.52908 2.2105C6.45817 2.1405 6.37367 2.08575 6.2808 2.04964C6.18793 2.01352 6.08865 1.9968 5.98908 2.0005C5.78917 1.99904 5.5963 2.07418 5.45008 2.2105C5.38007 2.28142 5.32533 2.36591 5.28921 2.45878C5.25309 2.55165 5.23637 2.65093 5.24008 2.7505V5.4925H2.75408C2.65241 5.48949 2.55133 5.50889 2.458 5.54933C2.36468 5.58978 2.2814 5.65026 2.21408 5.72651C2.14567 5.7936 2.09174 5.874 2.05562 5.96275C2.0195 6.0515 2.00196 6.14671 2.00408 6.2425C2.00408 6.4455 2.07408 6.6255 2.21408 6.7825C2.35508 6.9225 2.53508 6.9925 2.75408 6.9925H13.991C14.881 6.9925 15.647 7.3125 16.288 7.9525C16.928 8.5785 17.248 9.34451 17.248 10.2505V14.9255C17.248 15.1445 17.319 15.3245 17.46 15.4655C17.6 15.6055 17.78 15.6755 17.999 15.6755C18.202 15.6755 18.374 15.6055 18.514 15.4655C18.5905 15.3982 18.6511 15.315 18.6918 15.2217C18.7324 15.1284 18.7519 15.0272 18.749 14.9255V10.2505C18.749 9.59451 18.624 8.9765 18.374 8.3985C18.134 7.83469 17.7834 7.32467 17.343 6.8985C16.9169 6.45815 16.4069 6.10759 15.843 5.8675C15.2582 5.61611 14.6276 5.48843 13.991 5.4925H6.73908V2.7505Z" fill="white"/>
</svg>
