<svg width="24" height="24" viewBox="0 0 24 24" fill="none" xmlns="http://www.w3.org/2000/svg">
<path d="M15.7207 11.9475C16.4117 11.9475 17.0627 12.0805 17.6747 12.3475C18.2667 12.6005 18.8027 12.9685 19.2517 13.4305C19.7077 13.8855 20.0687 14.4185 20.3357 15.0315C20.6017 15.6445 20.7357 16.2955 20.7357 16.9855C20.7357 17.6765 20.6017 18.3275 20.3357 18.9395C20.0787 19.5365 19.7117 20.0805 19.2527 20.5405C18.8067 21.0005 18.2697 21.3615 17.6757 21.6005C17.0587 21.8685 16.3937 22.0045 15.7207 22.0005C15.0487 22.0075 14.3827 21.8715 13.7667 21.6005C13.1677 21.3575 12.6227 20.9975 12.1657 20.5405C11.7067 20.0795 11.3397 19.5365 11.0827 18.9395C10.8147 18.3235 10.6787 17.6575 10.6817 16.9855C10.6817 16.2955 10.8157 15.6435 11.0827 15.0315C11.3497 14.4185 11.7107 13.8865 12.1657 13.4305C12.6267 12.9715 13.1697 12.6045 13.7667 12.3475C14.3817 12.0765 15.0477 11.9405 15.7207 11.9475ZM12.2827 16.9845C12.2827 17.2205 12.2987 17.4475 12.3297 17.6675C12.3767 17.8875 12.4467 18.0995 12.5417 18.3035L17.9557 14.3715C17.6487 14.1155 17.2987 13.9155 16.9207 13.7825C16.5397 13.6245 16.1317 13.5445 15.7197 13.5465C15.2637 13.5395 14.8117 13.6255 14.3907 13.7995C13.9697 13.9735 13.5887 14.2325 13.2717 14.5595C12.6117 15.2185 12.2827 16.0275 12.2827 16.9845ZM13.4847 19.5985C13.7817 19.8495 14.1197 20.0535 14.4967 20.2115C14.8737 20.3525 15.2817 20.4225 15.7227 20.4225C16.6637 20.4225 17.4717 20.0855 18.1467 19.4095C18.8217 18.7335 19.1597 17.9265 19.1597 16.9845C19.1597 16.7495 19.1367 16.5225 19.0897 16.3015C19.0427 16.0825 18.9717 15.8695 18.8777 15.6665L13.4867 19.5985H13.4847Z" fill="white"/>
<path d="M11.53 6.74414C11.483 6.74414 11.452 6.76714 11.437 6.81414L11.39 7.00314C11.378 7.02914 11.361 7.05314 11.342 7.07314H11.084C11.021 7.07314 10.982 7.10414 10.967 7.16714C10.951 7.21414 10.967 7.25314 11.014 7.28414L11.179 7.40114C11.194 7.41714 11.202 7.44114 11.202 7.47114C11.218 7.48714 11.218 7.50314 11.202 7.51814L11.155 7.70714C11.139 7.75414 11.147 7.79314 11.179 7.82414C11.199 7.83914 11.224 7.84714 11.249 7.84714C11.274 7.84714 11.299 7.83914 11.319 7.82414L11.484 7.70714C11.5 7.69114 11.516 7.68314 11.532 7.68314C11.562 7.68314 11.586 7.69114 11.602 7.70714L11.767 7.82414C11.814 7.85514 11.853 7.85514 11.884 7.82414C11.931 7.79314 11.946 7.75414 11.931 7.70714L11.884 7.51814C11.868 7.50314 11.86 7.48714 11.86 7.47114C11.872 7.44514 11.888 7.42214 11.907 7.40114L12.072 7.28414C12.119 7.25314 12.135 7.21414 12.119 7.16714C12.104 7.10414 12.065 7.07314 12.002 7.07314H11.743C11.728 7.05714 11.719 7.03314 11.719 7.00314L11.649 6.81414C11.634 6.76714 11.595 6.74414 11.532 6.74414H11.53Z" fill="white"/>
<path d="M12.8718 8.43945C12.8248 8.43945 12.7938 8.46345 12.7778 8.50945L12.7318 8.69845C12.7198 8.72445 12.7028 8.74745 12.6838 8.76845H12.4258C12.3628 8.76845 12.3238 8.80045 12.3088 8.86245C12.2928 8.90945 12.3088 8.94945 12.3558 8.97945L12.5208 9.09845C12.5358 9.11345 12.5438 9.13745 12.5438 9.16845C12.5598 9.18445 12.5598 9.19945 12.5438 9.21545L12.4968 9.40345C12.4808 9.45045 12.4888 9.49045 12.5208 9.52045C12.5408 9.53545 12.5658 9.54345 12.5908 9.54345C12.6158 9.54345 12.6408 9.53545 12.6608 9.52045L12.8258 9.40345C12.8418 9.38845 12.8578 9.38045 12.8728 9.38045C12.9038 9.38045 12.9278 9.38845 12.9428 9.40345L13.1088 9.52045C13.1558 9.55245 13.1948 9.55245 13.2258 9.52045C13.2728 9.48945 13.2878 9.45045 13.2728 9.40345L13.2258 9.21545C13.2098 9.19945 13.2028 9.18345 13.2028 9.16845C13.2178 9.13745 13.2428 9.11345 13.2728 9.09845L13.4138 8.97945C13.4608 8.94845 13.4768 8.90945 13.4608 8.86245C13.4448 8.80045 13.4058 8.76845 13.3438 8.76845H13.0848C13.0688 8.75345 13.0608 8.72945 13.0608 8.69845L12.9908 8.50945C12.9758 8.46345 12.9368 8.43945 12.8738 8.43945H12.8718Z" fill="white"/>
<path d="M12.235 10.582C12.188 10.582 12.157 10.606 12.142 10.652L12.071 10.841C12.071 10.857 12.056 10.872 12.024 10.888C12.009 10.903 11.993 10.911 11.977 10.911H11.766C11.719 10.911 11.687 10.942 11.672 11.005C11.656 11.052 11.672 11.091 11.719 11.122L11.86 11.216C11.892 11.232 11.907 11.255 11.907 11.287V11.357L11.837 11.522C11.821 11.584 11.837 11.631 11.884 11.663C11.904 11.678 11.929 11.686 11.954 11.686C11.979 11.686 12.004 11.678 12.024 11.663L12.167 11.546C12.189 11.534 12.213 11.526 12.237 11.523C12.267 11.523 12.291 11.53 12.307 11.546L12.472 11.663C12.503 11.694 12.542 11.694 12.589 11.663C12.636 11.632 12.651 11.585 12.636 11.522L12.566 11.356V11.286C12.578 11.26 12.593 11.237 12.612 11.216L12.777 11.122C12.809 11.091 12.816 11.052 12.801 11.005C12.785 10.942 12.754 10.911 12.707 10.911H12.518C12.488 10.911 12.464 10.903 12.448 10.888L12.401 10.841L12.355 10.652C12.339 10.606 12.3 10.582 12.236 10.582H12.235Z" fill="white"/>
<path d="M8.72723 7.52148C8.83623 7.52148 8.90723 7.57548 8.93823 7.68648H8.93723L9.31623 8.84148C9.33023 8.88548 9.35423 8.92548 9.38623 8.95848C9.42723 8.98748 9.47623 9.00448 9.52723 9.00548H10.7522C10.8622 9.00548 10.9332 9.05948 10.9632 9.17048C10.9952 9.26448 10.9722 9.34348 10.8932 9.40548L9.90523 10.1355C9.88323 10.1425 9.86223 10.1545 9.84623 10.1705C9.83023 10.1865 9.81723 10.2075 9.81123 10.2295C9.79523 10.2755 9.79523 10.3245 9.81123 10.3705L10.1882 11.5475C10.2202 11.6415 10.1882 11.7205 10.0952 11.7825C10.0162 11.8455 9.93723 11.8455 9.85923 11.7825L8.87023 11.0765C8.82423 11.0455 8.77723 11.0295 8.72923 11.0295C8.70723 11.0295 8.68623 11.0325 8.66523 11.0415C8.64423 11.0505 8.62623 11.0615 8.61123 11.0775L7.59823 11.7835C7.52023 11.8465 7.43323 11.8465 7.33923 11.7835C7.26123 11.7215 7.23823 11.6425 7.26923 11.5485L7.64623 10.3715C7.66223 10.3255 7.66223 10.2765 7.64623 10.2305C7.63923 10.2085 7.62723 10.1875 7.61123 10.1715C7.59523 10.1555 7.57423 10.1425 7.55223 10.1365L6.56423 9.40648C6.48623 9.34448 6.46223 9.26548 6.49423 9.17148C6.52523 9.06248 6.59523 9.00648 6.70623 9.00648H7.92923C7.95123 9.00748 7.97223 9.00348 7.99323 8.99548C8.01423 8.98748 8.03223 8.97548 8.04723 8.95948C8.09123 8.93248 8.12423 8.89048 8.14123 8.84248L8.51823 7.68748C8.55023 7.57848 8.62023 7.52248 8.73123 7.52248L8.72723 7.52148Z" fill="white"/>
<path d="M14.803 2.00154C15.634 1.98554 16.529 2.09454 17.485 2.33054C18.443 2.56554 19.189 2.76954 19.722 2.94354C20.131 3.06854 20.452 3.30454 20.687 3.64854C20.923 3.97754 21.041 4.34754 21.041 4.75554V12.6415C21.041 12.7515 20.986 12.8225 20.876 12.8535C20.827 12.8705 20.775 12.8725 20.725 12.8595C20.675 12.8465 20.63 12.8205 20.594 12.7825C20.472 12.6445 20.338 12.5185 20.193 12.4055C20.062 12.2755 19.92 12.1575 19.769 12.0525C19.648 11.9625 19.544 11.8505 19.464 11.7225C19.4 11.5905 19.367 11.4455 19.37 11.2995V4.75354C19.37 4.69054 19.354 4.64354 19.323 4.61254C19.3 4.57354 19.268 4.54054 19.229 4.51754C18.68 4.34554 17.973 4.15654 17.11 3.95254C16.263 3.74854 15.503 3.65454 14.827 3.67054C14.294 3.66454 13.765 3.76854 13.274 3.97554C12.802 4.16454 12.309 4.38454 11.79 4.63554L11.767 4.65854C11.249 4.92554 10.676 5.17654 10.048 5.41154C9.43499 5.64654 8.72899 5.74954 7.92899 5.71754C7.45899 5.70154 6.96499 5.64754 6.44599 5.55254C5.94399 5.44254 5.48099 5.33254 5.05699 5.22354C5.00399 5.20754 4.94799 5.20554 4.89499 5.21854C4.84199 5.23154 4.79199 5.25654 4.75099 5.29454C4.71399 5.32154 4.68499 5.35754 4.66399 5.39754C4.64299 5.43754 4.63299 5.48354 4.63299 5.52954V13.4395C4.63299 13.5025 4.64899 13.5565 4.67999 13.6045C4.71099 13.6365 4.74999 13.6595 4.79699 13.6745C5.22099 13.8015 5.73099 13.9335 6.32799 14.0765C6.93999 14.2175 7.48899 14.2955 7.97499 14.3105H8.42299L8.84599 14.2645C9.11299 14.2175 9.37199 14.3345 9.62299 14.6175C9.88899 14.8845 9.98499 15.1505 9.90499 15.4185C9.88699 15.5175 9.83799 15.6085 9.76399 15.6775C9.69699 15.7425 9.61699 15.7905 9.52799 15.8185C9.27699 15.8815 9.01799 15.9285 8.75199 15.9605C8.48499 15.9765 8.20999 15.9845 7.92799 15.9845C7.26999 15.9465 6.61599 15.8525 5.97299 15.7025C5.41999 15.5765 4.87099 15.4355 4.32599 15.2785C3.91799 15.1645 3.56099 14.9155 3.31299 14.5725C3.08199 14.2415 2.95799 13.8465 2.95899 13.4425V5.53254C2.95899 4.85754 3.22599 4.33254 3.75999 3.95554C4.29299 3.56354 4.86599 3.44554 5.47799 3.60154C5.88699 3.71154 6.31099 3.81354 6.74999 3.90754C7.20599 3.98554 7.61399 4.03354 7.97599 4.04854C8.55599 4.06454 9.07399 3.98654 9.52899 3.81354C9.99999 3.64154 10.494 3.42954 11.013 3.17854L11.13 3.10854C11.616 2.85754 12.158 2.61354 12.754 2.37854C13.35 2.14354 14.033 2.01654 14.803 2.00154Z" fill="white"/>
</svg>
