<svg width="24" height="24" viewBox="0 0 24 24" fill="none" xmlns="http://www.w3.org/2000/svg">
<path d="M12.0002 5.46564C15.609 5.46564 18.5346 8.39117 18.5346 12C18.5346 15.6088 15.609 18.5344 12.0002 18.5344C8.39136 18.5344 5.46582 15.6088 5.46582 12C5.46582 8.39118 8.39136 5.46564 12.0002 5.46564ZM7.00098 12C7.00098 12.0332 7.0013 12.0662 7.00194 12.0992L8.95952 9.99231C9.35606 9.56123 9.85524 9.34047 10.4366 9.34047C11.0179 9.34047 11.5162 9.56047 11.9132 9.99106L13.0156 11.1666L13.0718 11.1103C13.2552 10.9213 13.4753 10.7719 13.7185 10.671C13.9617 10.5702 14.223 10.5201 14.4862 10.5238C15.0407 10.5243 15.5238 10.7204 15.9209 11.1052L15.9243 11.1085L16.9962 12.1809C16.9983 12.1208 16.9994 12.0606 16.9994 12C16.9994 9.23902 14.7612 7.00079 12.0002 7.00079C9.2392 7.00079 7.00098 9.23902 7.00098 12ZM10.4462 10.8749L10.4366 10.8752C10.2967 10.8752 10.186 10.9224 10.0858 11.0287L7.38674 13.9293C8.14187 15.7328 9.9235 16.9992 12.0002 16.9992C14.0642 16.9992 15.8367 15.7483 16.5997 13.9623L14.8255 12.1886C14.7839 12.1463 14.7341 12.113 14.6791 12.0906C14.6241 12.0683 14.5651 12.0575 14.5058 12.0588L14.4989 12.059C14.362 12.059 14.2517 12.102 14.1524 12.1937L14.0537 12.2924L15.0583 13.3702C15.1953 13.5229 15.2644 13.7105 15.2515 13.9177C15.2507 14.0179 15.2289 14.1168 15.1874 14.2081C15.1455 14.3002 15.0846 14.3824 15.0088 14.4493C14.937 14.5181 14.8524 14.5722 14.7596 14.6082C14.6635 14.6456 14.5609 14.6629 14.4579 14.6591L14.4483 14.6587C14.3474 14.6517 14.249 14.6248 14.1585 14.5796C14.0699 14.5354 13.9906 14.4744 13.9251 14.4L10.7799 11.0207C10.7386 10.9732 10.6873 10.9353 10.6295 10.9101C10.5718 10.8849 10.5092 10.8728 10.4462 10.8749Z" fill="white"/>
<path d="M3.10017 3.10144C2.36672 3.83673 2 4.71909 2 5.7515V18.2485C2 19.2959 2.36672 20.1863 3.10017 20.9216C3.83462 21.6399 4.72396 22 5.77017 22H18.2298C19.276 22 20.1654 21.6399 20.8998 20.9216C21.6333 20.1863 22 19.2959 22 18.2485V5.7515C22 4.71909 21.6333 3.83673 20.8998 3.10144C20.1654 2.36715 19.276 2 18.2298 2H5.77017C4.72396 2 3.83462 2.36715 3.10017 3.10144ZM4.15438 4.18087C4.60704 3.72669 5.14564 3.5006 5.77017 3.5006H18.2298C18.5281 3.49609 18.824 3.55431 19.0983 3.67149C19.3727 3.78867 19.6195 3.96221 19.8226 4.18087C20.2753 4.61805 20.5021 5.14126 20.5021 5.7515V18.2485C20.5021 18.8727 20.2753 19.405 19.8226 19.8431C19.616 20.0557 19.3681 20.2235 19.0941 20.3364C18.8202 20.4493 18.526 20.5047 18.2298 20.4994H5.77017C5.14564 20.4994 4.60704 20.2803 4.15438 19.8431C3.71671 19.405 3.49888 18.8737 3.49888 18.2485V5.7515C3.49888 5.14126 3.71671 4.61805 4.15438 4.18087Z" fill="white"/>
</svg>
