<svg width="24" height="24" viewBox="0 0 24 24" fill="none" xmlns="http://www.w3.org/2000/svg">
<path d="M18.863 2.76327L21.238 5.13727C21.745 5.64627 22 6.25527 22 6.96627C22 7.67927 21.745 8.28927 21.238 8.79727L17.359 12.6753L20.321 15.6423C20.41 15.7313 20.484 15.8343 20.539 15.9473C20.582 16.0493 20.604 16.1653 20.604 16.2963V19.6523C20.605 19.7783 20.581 19.9033 20.532 20.0193C20.483 20.1353 20.411 20.2403 20.32 20.3273C20.233 20.4183 20.128 20.4903 20.012 20.5393C19.896 20.5883 19.771 20.6123 19.645 20.6113H16.289C16.17 20.6133 16.051 20.5913 15.94 20.5463C15.827 20.4903 15.724 20.4163 15.635 20.3283L12.668 17.3663L8.79605 21.2373C8.28805 21.7443 7.67805 21.9993 6.96605 21.9993C6.25405 21.9993 5.64405 21.7443 5.13605 21.2373L2.76105 18.8623C2.25405 18.3533 1.99905 17.7443 1.99905 17.0333C1.99405 16.6923 2.05905 16.3533 2.19005 16.0383C2.32105 15.7233 2.51505 15.4383 2.76105 15.2013L6.62705 11.3353L2.97905 7.69227C2.32605 7.03927 1.99805 6.25427 1.99805 5.33927C1.99805 4.42427 2.32505 3.64027 2.97905 2.98627C3.63205 2.33327 4.41705 2.00527 5.33305 2.00527C6.24905 2.00527 7.03105 2.33227 7.68505 2.98627L11.328 6.63527L15.201 2.76227C15.709 2.25427 16.319 2.00027 17.031 2.00027C17.372 1.99527 17.71 2.06027 18.025 2.19227C18.34 2.32427 18.624 2.51727 18.861 2.76327H18.863ZM15.641 10.9553C15.679 10.9803 15.715 11.0093 15.748 11.0413L16.38 11.6733L17.251 10.8023L15.682 9.23327C15.552 9.10327 15.487 8.94327 15.487 8.75427C15.484 8.66127 15.499 8.56927 15.533 8.48327C15.567 8.39727 15.618 8.31827 15.683 8.25227C15.819 8.12527 15.999 8.05527 16.185 8.05727C16.371 8.05627 16.55 8.12627 16.686 8.25327L18.232 9.82027L19.103 8.94927L18.471 8.31827C18.341 8.17227 18.276 8.00527 18.276 7.81627C18.274 7.63027 18.344 7.45027 18.471 7.31427C18.607 7.18727 18.787 7.11727 18.973 7.11927C19.159 7.11827 19.338 7.18827 19.474 7.31527L20.106 7.94727L20.258 7.79427C20.49 7.56227 20.607 7.28727 20.607 6.96727C20.607 6.63327 20.491 6.35027 20.258 6.11727L17.883 3.74227C17.651 3.51027 17.368 3.39327 17.033 3.39327C16.713 3.39327 16.437 3.50927 16.205 3.74227L12.32 7.62727L15.641 10.9543V10.9553ZM10.983 15.6803L7.62205 12.3253L3.74405 16.2033C3.51205 16.4353 3.39505 16.7193 3.39505 17.0533C3.39405 17.2073 3.42405 17.3603 3.48405 17.5033C3.54405 17.6463 3.63205 17.7743 3.74405 17.8813L6.11905 20.2563C6.35105 20.4883 6.62705 20.6053 6.94605 20.6053C7.28105 20.6053 7.56405 20.4893 7.79605 20.2563L7.94805 20.1043L7.31605 19.4733C7.18605 19.3273 7.12105 19.1603 7.12105 18.9713C7.11905 18.7853 7.18905 18.6053 7.31605 18.4693C7.45205 18.3423 7.63205 18.2723 7.81805 18.2743C8.00405 18.2733 8.18305 18.3433 8.31905 18.4703L8.95105 19.1023L9.82205 18.2303L8.25305 16.6843C8.12305 16.5383 8.05805 16.3713 8.05805 16.1823C8.05705 15.9963 8.12705 15.8163 8.25405 15.6803C8.31605 15.6163 8.39105 15.5663 8.47305 15.5333C8.55505 15.5003 8.64405 15.4833 8.73205 15.4853C8.82405 15.4823 8.91705 15.4983 9.00305 15.5313C9.08905 15.5643 9.16805 15.6163 9.23305 15.6813L10.802 17.2493L11.673 16.3783L11.041 15.7463C11.02 15.7253 11.001 15.7033 10.983 15.6803ZM16.509 19.1513C16.566 19.1653 16.624 19.1723 16.683 19.1723L18.709 19.1733C18.77 19.1753 18.83 19.1643 18.886 19.1423C18.942 19.1203 18.994 19.0863 19.036 19.0433C19.079 19.0003 19.112 18.9493 19.135 18.8933C19.158 18.8373 19.168 18.7763 19.166 18.7163V16.6903C19.166 16.6313 19.159 16.5733 19.145 16.5163C19.117 16.4593 19.08 16.4083 19.035 16.3633L9.51505 6.84327L6.83505 9.52327L16.355 19.0433C16.4 19.0873 16.452 19.1243 16.508 19.1523L16.509 19.1513ZM5.83405 8.52027L8.51405 5.84027L6.66205 3.98827C6.29905 3.62527 5.85605 3.44327 5.33305 3.44327C5.08305 3.43927 4.83505 3.48627 4.60305 3.57927C4.37105 3.67227 4.16005 3.81127 3.98305 3.98727C3.62005 4.36427 3.43805 4.81527 3.43805 5.33827C3.43805 5.86127 3.62005 6.30527 3.98305 6.66727L5.83505 8.51927L5.83405 8.52027Z" fill="white"/>
</svg>
