<svg width="24" height="24" viewBox="0 0 24 24" fill="none" xmlns="http://www.w3.org/2000/svg">
<path d="M12.4446 3.39416C12.3064 3.32571 12.154 3.29086 11.9998 3.29245C11.8378 3.29245 11.6895 3.32693 11.5551 3.3933L5.51534 6.12225C5.34631 6.19777 5.19986 6.316 5.0904 6.46531C4.99645 6.59978 4.943 6.74803 4.92921 6.91008C4.86198 7.87978 4.89473 8.99688 5.03006 10.2631C5.16453 11.5293 5.48087 12.8085 5.97994 14.1014C6.49108 15.3814 7.22547 16.6071 8.18138 17.7785C9.12436 18.9508 10.3707 19.9196 11.9188 20.6876C11.9439 20.7005 11.9717 20.7072 11.9998 20.7074C12.028 20.7072 12.0558 20.7005 12.0809 20.6876C13.6298 19.9205 14.8753 18.9499 15.8183 17.7785C16.7751 16.6062 17.5017 15.3814 17.9991 14.1014C18.5119 12.8085 18.8352 11.5293 18.9696 10.2631C19.1041 8.99688 19.1377 7.87978 19.0705 6.91008C19.0567 6.74689 18.9935 6.59176 18.8895 6.46531C18.791 6.31373 18.6501 6.19443 18.4843 6.12225L12.4446 3.39416ZM11.0301 2.20207C11.3404 2.06674 11.6628 1.99951 11.9998 1.99951C12.336 1.99951 12.6601 2.06674 12.9695 2.20207L19.03 4.94913C19.3808 5.11118 19.6764 5.36028 19.9195 5.69644C20.1746 6.01968 20.3229 6.39032 20.3634 6.80837C20.4306 7.81772 20.3979 9.00981 20.2626 10.3838C20.1143 11.7577 19.7644 13.1506 19.2118 14.5651C18.6602 15.9658 17.8586 17.313 16.8078 18.606C15.7571 19.8989 14.3702 20.9764 12.6463 21.8383C12.4476 21.9451 12.2254 22.0005 11.9998 21.9995C11.7743 22.0005 11.5521 21.9451 11.3534 21.8383C9.62946 20.9764 8.24171 19.8989 7.19185 18.606C6.14112 17.313 5.3395 15.9658 4.78699 14.5651C4.23534 13.1515 3.88538 11.7577 3.73713 10.3838C3.60266 9.00981 3.56904 7.81772 3.63628 6.80751C3.67679 6.39032 3.81729 6.01968 4.06036 5.69644C4.31636 5.36028 4.61891 5.11031 4.96972 4.94913L11.0301 2.20207Z" fill="white"/>
<path d="M16.9493 9.37357C16.9493 9.19859 16.8881 9.04344 16.7674 8.90811C16.7063 8.84777 16.6343 8.80058 16.5542 8.76945C16.4742 8.73832 16.3886 8.72391 16.3028 8.7271C16.1278 8.7271 15.9796 8.7883 15.8589 8.90897L11.131 13.6359L9.01063 11.494C8.94951 11.4336 8.87668 11.3865 8.79663 11.3553C8.71658 11.3242 8.63101 11.3098 8.54518 11.313C8.3702 11.313 8.22194 11.3733 8.10127 11.494C7.96594 11.6293 7.89871 11.7845 7.89871 11.9594C7.89899 12.0466 7.9171 12.1328 7.95193 12.2127C7.98677 12.2926 8.03759 12.3645 8.10127 12.424L10.6871 15.0099C10.7461 15.0675 10.8139 15.1152 10.888 15.1513C11.0454 15.2042 11.2158 15.2042 11.3733 15.1513C11.4524 15.1125 11.5273 15.0654 11.5965 15.0108L16.7682 9.83902C16.8889 9.7037 16.9493 9.54854 16.9493 9.37357Z" fill="white"/>
</svg>
