<svg width="24" height="24" viewBox="0 0 24 24" fill="none" xmlns="http://www.w3.org/2000/svg">
<path fill-rule="evenodd" clip-rule="evenodd" d="M2.15497 9.58054L2.00273 6.88678C1.95749 6.08636 2.47908 5.36339 3.25074 5.16344L15.3453 2.02952C15.8406 1.9012 16.3424 2.20338 16.4683 2.69988L17.0288 4.90919C17.1541 5.40325 16.8614 5.90932 16.3693 6.03951L9.16953 7.94443H15.6954C16.6165 7.94443 17.36 8.69857 17.36 9.62481V9.76329C17.36 10.1702 17.0302 10.5 16.6233 10.5H16.462C16.1442 10.5 15.8866 10.2424 15.8866 9.92456C15.8866 9.60785 15.633 9.42972 15.3243 9.42972H4.1901C3.88136 9.42972 3.62782 9.6832 3.62782 9.99991V15.3046C3.62782 15.6213 3.88136 15.8748 4.1901 15.8748H9.75736C10.1675 15.8748 10.5 16.2073 10.5 16.6174C10.5 17.0276 10.1675 17.3601 9.75736 17.3601H3.81896C2.89786 17.3601 2.1544 16.6059 2.1544 15.6797V9.62481C2.1544 9.61002 2.15459 9.59526 2.15497 9.58054ZM3.93609 6.519C3.83061 6.54633 3.7667 6.6595 3.80131 6.76832L4.06757 7.60564C4.0992 7.7051 4.20076 7.75977 4.29724 7.73429L6.00162 7.28428L4.59395 6.34854L3.93609 6.519ZM6.51974 5.84953L7.91722 6.77849L9.42169 6.38126L8.03222 5.45762L6.51974 5.84953ZM12.6786 5.52132L11.3064 4.60922L9.95801 4.95862L11.3373 5.87547L12.6786 5.52132ZM14.5942 5.01554L15.5011 4.77608C15.6018 4.74949 15.6651 4.64414 15.6382 4.53831L15.4356 3.73961C15.4089 3.6341 15.304 3.57338 15.2036 3.59941L13.2322 4.11021L14.5942 5.01554Z" fill="white"/>
<path d="M8.20577 11.3201C8.20577 10.8387 8.73868 10.5533 9.13297 10.8236L11.0696 12.151C11.4168 12.3891 11.4168 12.906 11.0696 13.1441L9.13297 14.4715C8.73868 14.7418 8.20577 14.4564 8.20577 13.975V11.3201Z" fill="white"/>
<path fill-rule="evenodd" clip-rule="evenodd" d="M14 12C12.8954 12 12 12.8954 12 14V20C12 21.1046 12.8954 22 14 22H20C21.1046 22 22 21.1046 22 20V14C22 12.8954 21.1046 12 20 12H14ZM20 13.5H14C13.7239 13.5 13.5 13.7239 13.5 14V16.4581L14.0021 15.8792C14.6673 15.112 15.8436 15.0702 16.5616 15.7882L17.378 16.6046L17.8413 16.2755C18.5373 15.7809 19.4886 15.8609 20.0923 16.4646L20.5 16.8723V14C20.5 13.7239 20.2761 13.5 20 13.5ZM13.5 20V18.7477L15.1353 16.8619C15.2303 16.7523 15.3984 16.7463 15.501 16.8489L17.635 18.9829C17.9278 19.2758 18.4027 19.2758 18.6956 18.9829C18.9885 18.69 18.9885 18.2151 18.6956 17.9222L18.4538 17.6804L18.7101 17.4982C18.8095 17.4276 18.9454 17.439 19.0317 17.5253L20.5 18.9936V20C20.5 20.2761 20.2761 20.5 20 20.5H14C13.7239 20.5 13.5 20.2761 13.5 20Z" fill="white"/>
</svg>
