<svg width="24" height="24" viewBox="0 0 24 24" fill="none" xmlns="http://www.w3.org/2000/svg">
<path d="M20.1695 2.76444C20.2757 2.67247 20.398 2.60273 20.5314 2.55826C20.6648 2.51379 20.8043 2.49661 20.9437 2.50671C21.2409 2.50671 21.4905 2.60778 21.6937 2.81094C21.7917 2.89887 21.8706 3.00803 21.9231 3.12931C21.9757 3.2506 22.0009 3.38199 21.9979 3.51439C22.0141 3.78021 21.9363 4.02278 21.7634 4.24109L14.2387 12.8685C13.8951 13.2586 13.4483 13.4709 12.9025 13.5012C12.6529 13.5143 12.4022 13.4749 12.1688 13.386C11.9353 13.297 11.721 13.1606 11.5421 12.9857C11.3673 12.82 11.2288 12.6209 11.1358 12.3985C11.0428 12.1762 10.9963 11.9376 11.0014 11.6971C11.0065 11.4565 11.06 11.22 11.1621 11.0017C11.2632 10.7834 11.4087 10.5883 11.5896 10.4297L20.1706 2.76343L20.1695 2.76444Z" fill="white"/>
<path d="M6.50172 15.2133V15.4236C6.50172 15.6591 6.45523 15.8855 6.36123 16.1038C6.2824 16.3079 6.15707 16.4868 5.98626 16.6425C5.81444 16.8143 5.61836 16.9477 5.40005 17.0417C5.18072 17.1195 4.94725 17.159 4.6966 17.159H2.00002C1.99901 17.4511 2.03135 17.7421 2.09402 18.0272C2.15668 18.3071 2.24259 18.582 2.35175 18.8479C2.4791 19.1177 2.62767 19.3754 2.79646 19.6211C2.96727 19.8535 3.15526 20.0728 3.35943 20.277C3.57572 20.4791 3.81121 20.659 4.06288 20.8157C4.32263 20.9693 4.59755 21.0947 4.88358 21.1907C5.15445 21.3019 5.43846 21.3807 5.72752 21.4262C6.02972 21.4737 6.33597 21.4969 6.64221 21.4959C7.19911 21.4818 7.74793 21.3615 8.25934 21.1442C8.79098 20.9097 9.25995 20.6055 9.66625 20.2295C10.0715 19.8394 10.393 19.3936 10.6264 18.8933C10.8579 18.392 10.9852 17.8503 11.0014 17.2984C11.0176 16.971 10.9862 16.6506 10.9074 16.3383C10.8457 16.0249 10.7518 15.7207 10.6264 15.4226C10.4859 15.1264 10.3141 14.8525 10.111 14.6019C9.92297 14.3361 9.69556 14.0945 9.43076 13.8752C9.30543 13.7812 9.16494 13.7033 9.00828 13.6397C8.85263 13.5619 8.68789 13.5143 8.51607 13.4992C8.34425 13.483 8.17242 13.4911 8.0006 13.5234C7.84394 13.5386 7.68728 13.5851 7.53062 13.6639C7.37497 13.7256 7.23449 13.8115 7.10916 13.9217C6.98383 14.0308 6.87366 14.1572 6.77967 14.2966C6.70184 14.4371 6.6321 14.5857 6.56843 14.7413C6.52194 14.897 6.49869 15.0547 6.49869 15.2103L6.50172 15.2133Z" fill="white"/>
</svg>
