<svg width="24" height="24" viewBox="0 0 24 24" fill="none" xmlns="http://www.w3.org/2000/svg">
<path d="M14.5288 11.8873C13.791 11.8873 13.1669 12.1425 12.6554 12.6549C12.143 13.1654 11.8878 13.7914 11.8878 14.5282V19.336C11.8878 20.0738 12.143 20.7056 12.6554 21.2324C13.1659 21.7438 13.792 22 14.5288 22H19.3369C20.0746 22 20.6988 21.7438 21.2102 21.2324C21.7371 20.7056 22 20.0738 22 19.336V14.5282C22 13.7904 21.7371 13.1663 21.2102 12.6549C20.6997 12.1425 20.0737 11.8873 19.3369 11.8873H14.5288ZM13.3325 14.5282C13.3325 14.1969 13.4452 13.9185 13.6706 13.6932C13.9114 13.4524 14.1974 13.332 14.5288 13.332H19.3369C19.6682 13.332 19.9533 13.4524 20.1941 13.6932C20.4349 13.9185 20.5562 14.1969 20.5562 14.5282V19.336C20.5562 19.6673 20.4358 19.9524 20.195 20.1932C19.9542 20.434 19.6682 20.5553 19.3378 20.5553H14.5288C14.1974 20.5553 13.9124 20.4349 13.6716 20.1942C13.45 19.964 13.3277 19.6567 13.3325 19.337V14.5282Z" fill="white"/>
<path d="M2.56441 2.56438C2.94004 2.18877 3.39947 2 3.94173 2H9.72068C10.2466 2 10.6993 2.18877 11.0749 2.56438C11.4515 2.94 11.6393 3.3994 11.6393 3.94164V9.72031C11.6393 10.2462 11.4505 10.6988 11.0749 11.0744C10.6983 11.451 10.2475 11.6388 9.72068 11.6388H3.94173C3.39947 11.6388 2.94004 11.4501 2.56441 11.0744C2.18878 10.6979 2 10.2471 2 9.72031V3.94164C2 3.3994 2.18878 2.94 2.56441 2.56438Z" fill="white"/>
<path d="M9.94606 18.658C9.84493 18.8054 9.69179 18.9103 9.51746 18.9517L9.42692 18.997H9.3595L7.48616 19.3129C7.29063 19.3428 7.10956 19.3052 6.9439 19.2002C6.86299 19.1424 6.79461 19.0683 6.74452 18.9826C6.69444 18.8969 6.66169 18.8015 6.65013 18.7033C6.63376 18.6137 6.63568 18.5212 6.65495 18.4326C6.67421 18.344 6.71178 18.2593 6.76379 18.1841C6.82158 18.1032 6.89574 18.0349 6.98146 17.9848C7.06718 17.9347 7.16253 17.902 7.26078 17.8904L7.39562 17.8682C7.31953 17.823 7.23766 17.77 7.14616 17.7103L6.87647 17.484C6.66554 17.3183 6.43246 17.1382 6.17626 16.9427C5.92102 16.7318 5.69468 16.5286 5.49916 16.333C5.27378 16.0923 5.04744 15.8293 4.82206 15.5433C4.59668 15.2572 4.39345 14.9866 4.21238 14.7304C4.12184 14.61 4.03901 14.4974 3.96388 14.3914C3.88876 14.272 3.82133 14.1737 3.76066 14.0986C3.73176 14.0534 3.70864 14.0148 3.69323 13.9859L3.64797 13.8954L3.6027 13.8501V13.827H3.58054C3.52853 13.7481 3.49386 13.6594 3.47845 13.566C3.46304 13.4726 3.46689 13.3773 3.49001 13.2858C3.50927 13.1933 3.5478 13.1047 3.60173 13.0276C3.65567 12.9506 3.72598 12.8841 3.80592 12.8341C3.88201 12.7763 3.97062 12.7358 4.06405 12.7156C4.15748 12.6954 4.25476 12.6983 4.34818 12.7214C4.44065 12.7406 4.52829 12.7792 4.60631 12.8331C4.68432 12.887 4.74982 12.9564 4.79894 13.0373L4.82206 13.0604L4.84421 13.1057C4.86251 13.1259 4.87792 13.148 4.88948 13.1731C4.9203 13.2049 4.94341 13.2434 4.9569 13.2858C5.02432 13.3715 5.085 13.462 5.13797 13.5564C5.21984 13.67 5.30267 13.7837 5.38647 13.8954C5.56658 14.1362 5.75536 14.3847 5.94992 14.6399C6.13099 14.8778 6.32651 15.1041 6.53744 15.317C6.71659 15.4922 6.90441 15.6579 7.10185 15.813C7.31471 15.9834 7.52564 16.1568 7.73369 16.333C7.83482 16.4043 7.9321 16.4794 8.02745 16.5584C8.1045 16.6095 8.17963 16.6615 8.25379 16.7164C8.27883 16.7279 8.30099 16.7433 8.32121 16.7616C8.34626 16.7732 8.36841 16.7886 8.38864 16.8069L8.32121 16.4014C8.30484 16.3119 8.3058 16.2194 8.32507 16.1298C8.34433 16.0403 8.38093 15.9565 8.4339 15.8813C8.54756 15.7215 8.71611 15.6088 8.90778 15.5664C9.00217 15.551 9.09945 15.5548 9.19287 15.578C9.2863 15.6011 9.37395 15.6435 9.45004 15.7012C9.52902 15.7561 9.59547 15.8255 9.64556 15.9073C9.69564 15.9892 9.72935 16.0797 9.74284 16.1741L10.0588 18.1389C10.0751 18.2285 10.0732 18.3209 10.0539 18.4095C10.0347 18.4981 9.99807 18.5829 9.94606 18.658Z" fill="white"/>
<path d="M17.373 8.43359C17.1476 8.19282 16.9299 7.98864 16.718 7.82491C16.5524 7.68911 16.3501 7.5456 16.1093 7.39536C15.8685 7.2297 15.6345 7.0862 15.4091 6.96581C15.2887 6.9061 15.1837 6.84542 15.0932 6.78474C15.0026 6.72503 14.9198 6.68073 14.8447 6.64991L14.7994 6.62776L14.9121 6.92151C14.942 7.01011 14.9535 7.10353 14.9458 7.19696C14.9381 7.29038 14.9111 7.38091 14.8678 7.46278C14.8312 7.55235 14.7753 7.63228 14.706 7.69874C14.6366 7.76519 14.5529 7.81528 14.4614 7.84706C14.2841 7.90773 14.0905 7.89907 13.9191 7.82394C13.7409 7.7363 13.6032 7.5822 13.5358 7.39536L12.9039 5.61167C12.8885 5.59723 12.8808 5.57411 12.8808 5.54426C12.8808 5.51344 12.8731 5.48262 12.8587 5.45469C12.8124 5.28133 12.8288 5.09737 12.9039 4.9346C12.9925 4.77088 13.136 4.64278 13.3094 4.57344L15.1837 3.89637C15.2762 3.86651 15.3735 3.85496 15.4707 3.86266C15.568 3.87037 15.6615 3.89733 15.7481 3.94164C15.8358 3.97727 15.9138 4.03217 15.9764 4.10248C16.039 4.17278 16.0843 4.25657 16.1093 4.34807C16.1469 4.43379 16.1642 4.52721 16.1594 4.62159C16.1546 4.71598 16.1305 4.80651 16.0862 4.88934C16.0496 4.97891 15.9937 5.05885 15.9244 5.1253C15.855 5.19176 15.7712 5.24184 15.6797 5.27362L15.4775 5.34104L15.5449 5.3863C15.6316 5.4229 15.7144 5.46817 15.7924 5.52114C15.9042 5.58471 16.0169 5.64538 16.1315 5.70221C16.3569 5.838 16.6053 5.99596 16.877 6.17606C17.136 6.33304 17.3845 6.5064 17.6215 6.69518C17.896 6.90802 18.1522 7.14206 18.3891 7.39536C18.6376 7.62843 18.8784 7.86921 19.1115 8.11769C19.2097 8.21497 19.3012 8.32091 19.3821 8.43359C19.4611 8.52702 19.5439 8.61755 19.6306 8.70423C19.6576 8.73023 19.6807 8.76105 19.6981 8.79476C19.725 8.82076 19.7481 8.85158 19.7655 8.88529L19.8107 8.9296H19.8339C19.9514 9.08466 20.0072 9.27824 19.9918 9.47183C19.9851 9.56718 19.96 9.65964 19.9176 9.74535C19.8753 9.83107 19.8156 9.90619 19.7433 9.9688C19.5902 10.0901 19.3966 10.146 19.202 10.1267C19.1076 10.121 19.0152 10.093 18.9333 10.0458C18.8514 9.99865 18.7802 9.93316 18.7272 9.85515H18.705L18.6829 9.80988C18.6492 9.79255 18.6183 9.76943 18.5914 9.74246C18.574 9.70972 18.5509 9.6789 18.524 9.65289C18.4642 9.57777 18.3891 9.49398 18.2986 9.40441C18.2235 9.29847 18.1406 9.19349 18.0501 9.08851C17.8401 8.87663 17.6138 8.65896 17.373 8.43359Z" fill="white"/>
</svg>
