<svg width="24" height="24" viewBox="0 0 24 24" fill="none" xmlns="http://www.w3.org/2000/svg">
<path d="M18.6965 2.64852C18.965 2.38002 19.4001 2.38002 19.6676 2.64852L21.7842 4.76519C22.0719 5.05286 22.0719 5.51819 21.7842 5.80586C21.4966 6.09353 21.0312 6.09353 20.7436 5.80586L19.1821 4.24435L17.6205 5.80586C17.3329 6.09353 16.8675 6.09353 16.5799 5.80586C16.2922 5.51819 16.2922 5.05286 16.5799 4.76519L18.6965 2.64852Z" fill="white"/>
<path d="M19.1074 20.5004L11.2645 3.82646C11.2079 3.69323 11.111 3.58017 10.9889 3.50346C10.8678 3.42877 10.7285 3.3894 10.5862 3.3894C10.4438 3.3894 10.3045 3.42877 10.1834 3.50346C10.0714 3.58623 9.98356 3.69726 9.93007 3.82646L2.06396 20.4994C1.98724 20.6821 1.97917 20.886 2.04175 21.0748C2.11644 21.2565 2.25574 21.4038 2.43238 21.4886C2.607 21.5653 2.80383 21.5734 2.98451 21.5108C3.07737 21.4785 3.16216 21.4271 3.23282 21.3604C3.30348 21.2938 3.36101 21.2121 3.39836 21.1212L6.08937 15.4172H15.082L17.773 21.1212C17.8577 21.2978 18.0051 21.4371 18.1868 21.5118C18.3746 21.5734 18.5795 21.5653 18.7622 21.4896C18.849 21.4493 18.9257 21.3917 18.9893 21.3211C19.0529 21.2504 19.1003 21.1666 19.1306 21.0758C19.1689 20.9839 19.1871 20.885 19.1831 20.7861C19.179 20.6872 19.1538 20.5893 19.1084 20.5014L19.1074 20.5004ZM10.5973 5.85027L14.3915 13.9455H6.77979L10.5973 5.85027Z" fill="white"/>
<path d="M16.5799 8.92081L18.6955 11.0375C18.964 11.306 19.3991 11.306 19.6666 11.0375L21.7832 8.92081C22.0709 8.63314 22.0709 8.16781 21.7832 7.88014C21.4956 7.59247 21.0302 7.59247 20.7426 7.88014L19.181 9.44165L17.6195 7.88014C17.3319 7.59247 16.8665 7.59247 16.5789 7.88014C16.2912 8.16781 16.2912 8.63314 16.5789 8.92081H16.5799Z" fill="white"/>
</svg>
