<svg width="24" height="24" viewBox="0 0 24 24" fill="none" xmlns="http://www.w3.org/2000/svg">
<path d="M7.92285 3.74134C8.18953 3.45134 8.62447 3.42108 8.92578 3.65931L8.9834 3.71009L9.43848 4.1515L9.75879 4.44056C10.5272 5.08995 10.8856 5.50288 11.8623 5.71888L12.4658 5.85072C12.8702 5.94043 13.1277 6.35013 13.041 6.76576C12.9539 7.18175 12.5543 7.447 12.1494 7.35755L11.5469 7.22474C10.5059 6.99457 10.0784 6.58766 9.21875 5.95521V16.7921H9.19922C9.21224 16.908 9.21874 17.0256 9.21875 17.1447C9.21873 18.9976 7.60277 20.5001 5.60938 20.5001C3.61598 20.5001 2.00002 18.9976 2 17.1447C2.00013 15.2918 3.61605 13.7902 5.60938 13.7902L5.79492 13.7941C6.51132 13.8278 7.17224 14.0564 7.71875 14.423V4.39857C7.71876 4.37091 7.71988 4.34344 7.72266 4.31654C7.71073 4.11177 7.77515 3.90231 7.92285 3.74134ZM5.60938 15.3312C4.29974 15.3312 3.50014 16.2844 3.5 17.1447C3.50002 18.005 4.29964 18.9591 5.60938 18.9591C6.91911 18.9591 7.71873 18.005 7.71875 17.1447C7.71861 16.2844 6.91901 15.3312 5.60938 15.3312Z" fill="white"/>
<path d="M12.25 8.68568C12.6642 8.68568 13 9.03063 13 9.45618V19.7296C13 20.1552 12.6642 20.5001 12.25 20.5001C11.8358 20.5001 11.5 20.1552 11.5 19.7296V9.45618C11.5 9.03063 11.8358 8.68568 12.25 8.68568Z" fill="white"/>
<path d="M18.25 8.68568C18.6642 8.68568 19 9.03063 19 9.45618V19.7296C19 20.1552 18.6642 20.5001 18.25 20.5001C17.8358 20.5001 17.5 20.1552 17.5 19.7296V9.45618C17.5 9.03063 17.8358 8.68568 18.25 8.68568Z" fill="white"/>
<path d="M15.25 10.7404C15.6642 10.7404 16 11.0853 16 11.5109V17.6749C15.9999 18.1004 15.6642 18.4454 15.25 18.4454C14.8358 18.4454 14.5001 18.1004 14.5 17.6749V11.5109C14.5 11.0853 14.8358 10.7404 15.25 10.7404Z" fill="white"/>
<path d="M21.25 10.7404C21.6642 10.7404 22 11.0853 22 11.5109V17.6749C21.9999 18.1004 21.6642 18.4454 21.25 18.4454C20.8358 18.4454 20.5001 18.1004 20.5 17.6749V11.5109C20.5 11.0853 20.8358 10.7404 21.25 10.7404Z" fill="white"/>
</svg>
