<svg width="24" height="24" viewBox="0 0 24 24" fill="none" xmlns="http://www.w3.org/2000/svg">
<path d="M21.107 2.89371C21.7 3.48771 21.997 4.21371 21.997 5.07371C21.997 5.91771 21.7 6.63671 21.107 7.23071L18.083 10.2307L19.7 11.8707C19.7756 11.9435 19.8354 12.031 19.8759 12.1278C19.9163 12.2247 19.9364 12.3288 19.935 12.4337C19.9351 12.652 19.8509 12.862 19.7 13.0197C19.6234 13.0966 19.532 13.1571 19.4312 13.1973C19.3304 13.2376 19.2224 13.2568 19.114 13.2537C19.0093 13.2551 18.9054 13.2351 18.8088 13.1949C18.7121 13.1546 18.6247 13.095 18.552 13.0197L16.935 11.3787L6.64498 21.6685C6.54853 21.7799 6.42822 21.8681 6.29298 21.9265C6.16798 21.9735 6.02698 21.9965 5.87098 21.9965H3.08198C2.79435 21.9998 2.51686 21.8903 2.30898 21.6915C2.11007 21.4837 2.00056 21.2062 2.00398 20.9185V18.1285C2.00398 17.9735 2.02698 17.8325 2.07398 17.7075C2.1324 17.5723 2.22059 17.4519 2.33198 17.3555L12.622 7.06571L10.982 5.44871C10.9065 5.37605 10.8467 5.2887 10.8063 5.19204C10.7659 5.09539 10.7457 4.99147 10.747 4.88671C10.747 4.65171 10.825 4.45671 10.981 4.30071C11.1389 4.15015 11.3488 4.06633 11.567 4.06671C11.787 4.06671 11.974 4.14471 12.13 4.30071L13.77 5.91771L16.77 2.89471C17.0495 2.60668 17.3852 2.37902 17.7562 2.22577C18.1272 2.07252 18.5256 1.99695 18.927 2.00371C19.787 2.00371 20.513 2.30071 21.107 2.89371ZM5.65898 20.3805L15.762 10.2777L13.722 8.23871L3.61998 18.3415V20.3805H5.65898Z" fill="white"/>
</svg>
