<svg width="24" height="24" viewBox="0 0 24 24" fill="none" xmlns="http://www.w3.org/2000/svg">
<path d="M2 7.65785C2 6.69285 2.36327 5.87085 3.09195 5.19185C3.81848 4.51185 4.6929 4.17285 5.71198 4.17285L18.288 4.17285C19.3071 4.17285 20.1804 4.51185 20.9081 5.19185C21.6357 5.87185 22 6.69285 22 7.65785V16.3389C22 17.3039 21.6367 18.1259 20.9081 18.8049C20.1815 19.4839 19.3071 19.8239 18.288 19.8239H5.71198C4.6929 19.8239 3.81956 19.4849 3.09195 18.8049C2.36434 18.1249 2 17.3039 2 16.3389V7.65785ZM5.71198 5.47685C5.28977 5.47685 4.8965 5.57885 4.53323 5.78285C4.18818 5.96885 3.90207 6.23485 3.70275 6.55685L10.6252 12.1619C10.8288 12.3389 11.0688 12.4739 11.3453 12.5689C11.8986 12.7245 12.0783 12.7319 12.6322 12.5689C12.9226 12.4729 13.1712 12.3389 13.3737 12.1609L20.2962 6.55685C20.0926 6.23185 19.7979 5.96385 19.4443 5.78285C19.0981 5.57985 18.6963 5.47385 18.287 5.47685H5.71198ZM3.39735 8.02485V16.3389C3.39735 16.5289 3.41878 16.7059 3.46272 16.8689C3.50665 17.0319 3.57202 17.1879 3.65882 17.3379L8.70278 12.4259C8.71778 12.4119 8.73171 12.3989 8.74672 12.3849L3.39735 8.02485ZM4.64253 18.2749C4.80327 18.3559 4.96937 18.4179 5.14511 18.4579C5.33157 18.4989 5.52231 18.5189 5.71305 18.5199H18.288C18.4777 18.5199 18.6588 18.4999 18.8345 18.4589C19.0242 18.4179 19.1978 18.3569 19.3585 18.2759L14.2931 13.3229C14.2555 13.2803 14.2472 13.2582 14.2053 13.2219C13.8559 13.4789 13.4691 13.6769 13.048 13.8119C12.2089 14.0569 11.7932 14.0569 10.9542 13.8119C10.5352 13.6779 10.1441 13.4779 9.79687 13.2209C9.77865 13.2389 9.76472 13.2599 9.75294 13.2819C9.75294 13.2959 9.739 13.3099 9.709 13.3229L4.64361 18.2759L4.64253 18.2749ZM20.339 17.3369C20.4258 17.1889 20.4912 17.0309 20.5351 16.8669C20.5801 16.7039 20.6016 16.5279 20.6016 16.3379V8.02485L15.2511 12.3849V12.4059C15.2661 12.4059 15.2801 12.4129 15.2951 12.4259L20.339 17.3369Z" fill="white"/>
</svg>
