<svg width="24" height="24" viewBox="0 0 24 24" fill="none" xmlns="http://www.w3.org/2000/svg">
<path d="M16.042 2.00053C15.834 2.00053 15.611 2.06858 15.373 2.20168C15.15 2.33578 14.994 2.54393 14.905 2.82614L12.986 9.16489C12.956 9.25595 12.945 9.35303 12.953 9.4481C12.961 9.54317 12.987 9.63724 13.031 9.7223C13.128 9.88042 13.278 9.99951 13.455 10.0576C13.543 10.0876 13.635 10.0996 13.728 10.0916C13.821 10.0836 13.91 10.0566 13.991 10.0125C14.077 9.97149 14.153 9.91144 14.215 9.83839C14.277 9.76533 14.322 9.68027 14.348 9.5882L14.972 7.51165H17.113L17.737 9.5882C17.763 9.68027 17.809 9.76533 17.87 9.83839C17.931 9.91144 18.008 9.97049 18.094 10.0125C18.176 10.0566 18.265 10.0826 18.357 10.0906C18.449 10.0986 18.542 10.0866 18.63 10.0576C18.72 10.0325 18.803 9.9905 18.876 9.93346C18.949 9.87642 19.01 9.80436 19.054 9.7223C19.142 9.55017 19.166 9.35203 19.121 9.16388L17.202 2.82514C17.113 2.54193 16.949 2.33478 16.711 2.19967C16.488 2.06658 16.266 2.00053 16.042 2.00053ZM16.042 3.98801L16.689 6.08658H15.418L16.042 3.98801Z" fill="white"/>
<path d="M21.941 2.44486C21.979 2.52992 21.999 2.62199 21.998 2.71506V9.38905C21.999 9.48212 21.98 9.57419 21.941 9.65926C21.902 9.74432 21.846 9.81938 21.775 9.87942C21.715 9.95047 21.639 10.0075 21.554 10.0465C21.469 10.0856 21.377 10.1046 21.283 10.1036C21.187 10.1036 21.091 10.0836 21.003 10.0445C20.915 10.0055 20.835 9.94947 20.769 9.87942C20.636 9.74632 20.569 9.5822 20.569 9.38905V2.71506C20.567 2.62399 20.584 2.53292 20.618 2.44886C20.652 2.3648 20.704 2.28774 20.769 2.22369C20.835 2.15364 20.914 2.0976 21.003 2.05857C21.092 2.01954 21.187 2.00053 21.283 2.00053C21.376 1.99953 21.468 2.01854 21.553 2.05757C21.638 2.0966 21.713 2.15264 21.774 2.22369C21.845 2.28474 21.903 2.35979 21.941 2.44486Z" fill="white"/>
<path d="M11.545 2.93823C11.939 2.93823 12.259 3.25847 12.259 3.65276C12.259 4.04706 11.939 4.3673 11.545 4.3673H5.81395C5.15895 4.3673 4.59495 4.60547 4.11895 5.08183C3.89495 5.29899 3.71895 5.55919 3.59995 5.8474C3.48095 6.13562 3.42195 6.44485 3.42695 6.75608V15.6768L7.21895 11.5917C7.73895 11.0263 8.37795 10.7441 9.13695 10.7441C9.89595 10.7441 10.535 11.0263 11.056 11.5917L13.064 13.7343L13.487 13.31C13.724 13.0648 14.008 12.8717 14.323 12.7406C14.638 12.6095 14.976 12.5454 15.316 12.5504C16.045 12.5504 16.669 12.8036 17.191 13.31L19.622 15.7438V14.0495C19.622 13.6552 19.942 13.335 20.336 13.335C20.73 13.335 21.05 13.6552 21.05 14.0495V18.1836C21.05 19.2404 20.679 20.1411 19.935 20.8847C19.191 21.6282 18.291 22.0005 17.236 22.0005H5.81595C4.75995 22.0005 3.85995 21.6292 3.11695 20.8847C2.37395 20.1401 2.00195 19.2394 2.00195 18.1836V6.75508C2.00195 5.69829 2.37295 4.79762 3.11695 4.05406C3.86095 3.31051 4.76095 2.93823 5.81595 2.93823H11.547H11.545ZM19.622 17.7743L19.599 17.7523L19.577 17.7293L16.164 14.3147C16.057 14.2057 15.928 14.1196 15.786 14.0615C15.644 14.0035 15.492 13.9755 15.339 13.9795C15.012 13.9795 14.73 14.0906 14.492 14.3137L14.023 14.7831L15.852 16.7466C15.985 16.8947 16.045 17.0668 16.03 17.2609C16.031 17.354 16.012 17.4461 15.973 17.5311C15.934 17.6162 15.878 17.6913 15.807 17.7513C15.74 17.8184 15.659 17.8704 15.571 17.9044C15.483 17.9384 15.388 17.9545 15.293 17.9515C15.199 17.9455 15.108 17.9204 15.024 17.8784C14.94 17.8364 14.865 17.7783 14.803 17.7073L10.007 12.5514C9.89895 12.4273 9.76495 12.3293 9.61495 12.2632C9.46495 12.1972 9.30095 12.1661 9.13695 12.1711C8.79395 12.1711 8.50495 12.2982 8.26695 12.5514L3.47195 17.7073C3.47195 17.7223 3.46395 17.7373 3.44995 17.7523L3.42695 17.7743V18.1836C3.42695 18.8391 3.65695 19.4035 4.11895 19.8799C4.59495 20.3422 5.15895 20.5724 5.81395 20.5724H17.234C17.889 20.5724 18.446 20.3422 18.907 19.8799C19.383 19.4035 19.621 18.8391 19.621 18.1836L19.622 17.7743Z" fill="white"/>
</svg>
