<svg width="24" height="24" viewBox="0 0 24 24" fill="none" xmlns="http://www.w3.org/2000/svg">
<path d="M13.007 1.99897H6.005C4.896 1.99897 3.952 2.38897 3.171 3.16997C2.39 3.95097 2 4.89597 2 6.00397V17.994C2 19.103 2.39 20.047 3.171 20.828C3.952 21.609 4.897 21.999 6.005 21.999H17.995C19.104 21.999 20.048 21.609 20.829 20.828C21.61 20.047 22 19.102 22 17.994V9.00097C22 7.89197 21.61 6.94797 20.829 6.16697C20.048 5.38597 19.103 4.99597 17.995 4.99597H16.871C16.659 4.14697 16.163 3.39497 15.466 2.86497C14.773 2.29597 13.903 1.98997 13.007 1.99897ZM13.007 3.49797C13.507 3.49797 13.959 3.63797 14.366 3.91997C14.787 4.20097 15.091 4.55997 15.278 4.99697H6.004C5.535 4.99697 5.083 5.07497 4.645 5.23197C4.229 5.38497 3.841 5.60697 3.498 5.88697C3.531 5.24697 3.807 4.64297 4.271 4.19997C4.498 3.97297 4.769 3.79397 5.066 3.67397C5.363 3.55397 5.682 3.49397 6.003 3.49797H13.007ZM3.499 17.994V9.00097C3.499 8.31397 3.741 7.72897 4.225 7.24397C4.725 6.74397 5.317 6.49497 6.005 6.49497H17.995C18.682 6.49497 19.267 6.74497 19.752 7.24397C20.252 7.72897 20.501 8.31297 20.501 9.00097V17.994C20.501 18.681 20.251 19.274 19.752 19.774C19.524 20.009 19.251 20.194 18.949 20.319C18.647 20.444 18.322 20.506 17.995 20.5H6.005C5.675 20.504 5.347 20.442 5.042 20.317C4.737 20.192 4.459 20.007 4.226 19.774C3.992 19.541 3.807 19.263 3.683 18.958C3.559 18.653 3.496 18.325 3.5 17.995L3.499 17.994Z" fill="white"/>
<path d="M12.7493 17.7129C12.5463 17.7129 12.3663 17.6429 12.2093 17.5029C12.0693 17.3469 11.9983 17.1669 11.9983 16.9639C11.9973 16.7639 12.0723 16.5709 12.2093 16.4249L14.4353 14.2229H7.76034C7.54134 14.2229 7.36134 14.1529 7.22034 14.0129C7.08034 13.8559 7.01034 13.6769 7.01034 13.4739C7.00634 13.3739 7.02334 13.2749 7.06034 13.1819C7.09734 13.0889 7.15134 13.0049 7.22134 12.9339C7.29234 12.8639 7.37634 12.8099 7.46834 12.7739C7.56034 12.7379 7.65934 12.7209 7.75834 12.7249H14.4333L12.2083 10.4999C12.0683 10.3589 11.9983 10.1879 11.9983 9.98486C11.9943 9.88486 12.0113 9.78586 12.0473 9.69386C12.0833 9.60186 12.1383 9.51686 12.2083 9.44586C12.2773 9.37186 12.3613 9.31286 12.4543 9.27286C12.5473 9.23286 12.6473 9.21186 12.7483 9.21186C12.8493 9.21186 12.9493 9.23286 13.0413 9.27286C13.1333 9.31286 13.2173 9.37186 13.2863 9.44586L16.9633 13.1229C17.0093 13.1689 17.0453 13.2239 17.0693 13.2839C17.0933 13.3439 17.1043 13.4089 17.1033 13.4739C17.1053 13.5389 17.0933 13.6039 17.0693 13.6639C17.0453 13.7239 17.0093 13.7789 16.9633 13.8249L13.2873 17.5019C13.1303 17.6419 12.9503 17.7119 12.7473 17.7119L12.7493 17.7129Z" fill="white"/>
</svg>
