<svg width="24" height="24" viewBox="0 0 24 24" fill="none" xmlns="http://www.w3.org/2000/svg">
<path d="M2.00398 16.1111C2.00398 15.2941 2.15598 14.5241 2.45998 13.8031C2.76498 13.1051 3.19798 12.4691 3.73498 11.9281C4.27298 11.3931 4.90898 10.9681 5.60998 10.6771C6.32898 10.3571 7.10698 10.1941 7.89298 10.1971C8.70998 10.1971 9.47998 10.3571 10.201 10.6781C10.901 10.9691 11.538 11.3941 12.076 11.9281C12.611 12.4661 13.036 13.1021 13.327 13.8031C13.647 14.5241 13.807 15.2931 13.807 16.1111C13.807 16.9121 13.647 17.6731 13.326 18.3941C13.035 19.0941 12.611 19.7311 12.076 20.2691C11.535 20.8061 10.9 21.2391 10.201 21.5441C9.47098 21.8501 8.68598 22.0061 7.89298 22.0001C7.10898 22.0041 6.33198 21.8481 5.60998 21.5441C4.91098 21.2391 4.27498 20.8071 3.73398 20.2701C3.19698 19.7291 2.76498 19.0931 2.45998 18.3941C2.15498 17.6721 1.99998 16.8951 2.00398 16.1111ZM7.89298 11.7351C6.69098 11.7351 5.66498 12.1681 4.81598 13.0331C3.96698 13.8821 3.54198 14.9081 3.54198 16.1101C3.54198 17.3121 3.96698 18.3381 4.81598 19.1871C5.66498 20.0361 6.69098 20.4611 7.89298 20.4611C9.09498 20.4611 10.121 20.0361 10.97 19.1871C11.836 18.3381 12.268 17.3121 12.268 16.1101C12.268 14.9081 11.835 13.8821 10.97 13.0331C10.121 12.1671 9.09498 11.7351 7.89298 11.7351Z" fill="white"/>
<path d="M10.322 7.98605C10.85 7.76205 11.411 7.65005 12.004 7.65005C13.206 7.65005 14.232 8.07505 15.081 8.92405C15.93 9.77305 16.355 10.7991 16.355 12.0011C16.358 12.5971 16.235 13.1871 15.995 13.7321C15.77 14.2601 15.458 14.7171 15.058 15.1011C14.897 15.2621 14.818 15.4461 14.818 15.6541C14.816 15.8591 14.893 16.0581 15.033 16.2081C15.183 16.3481 15.381 16.4251 15.586 16.4231C15.791 16.4251 15.989 16.3471 16.139 16.2081C16.686 15.6751 17.12 15.0371 17.413 14.3321C17.733 13.5971 17.897 12.8031 17.894 12.0011C17.894 11.1841 17.742 10.4231 17.438 9.71705C17.145 9.01205 16.711 8.37405 16.164 7.84205C15.635 7.29705 15.01 6.87305 14.289 6.56805C13.584 6.26305 12.822 6.11205 12.005 6.11205C11.221 6.10805 10.444 6.26405 9.72098 6.56805C9.02798 6.84805 8.39798 7.26505 7.86998 7.79405C7.79798 7.86705 7.74198 7.95305 7.70498 8.04905C7.66798 8.14505 7.65098 8.24605 7.65498 8.34805C7.65298 8.44605 7.67098 8.54405 7.70898 8.63505C7.74698 8.72605 7.80198 8.80805 7.87198 8.87705C7.93698 8.95305 8.01798 9.01405 8.10898 9.05605C8.19998 9.09805 8.29998 9.11805 8.39998 9.11705C8.50198 9.12105 8.60398 9.10305 8.69898 9.06605C8.79398 9.02905 8.88098 8.97205 8.95298 8.90105C9.35398 8.50105 9.81098 8.19605 10.324 7.98805L10.322 7.98605Z" fill="white"/>
<path d="M13.061 4.78905C13.454 4.39905 13.92 4.08905 14.431 3.87605C14.963 3.65105 15.535 3.53605 16.113 3.53905C17.316 3.53905 18.342 3.96405 19.19 4.81305C20.04 5.66205 20.465 6.68805 20.465 7.89005C20.465 8.49905 20.345 9.07605 20.104 9.62105C19.885 10.1421 19.567 10.6161 19.167 11.0161C19.089 11.0851 19.027 11.1701 18.986 11.2651C18.945 11.3601 18.924 11.4641 18.927 11.5681C18.927 11.7761 18.999 11.9531 19.142 12.0971C19.288 12.2571 19.463 12.3371 19.672 12.3371C19.774 12.3411 19.876 12.3231 19.971 12.2861C20.066 12.2491 20.153 12.1931 20.225 12.1211C20.771 11.5741 21.211 10.9301 21.522 10.2221C21.843 9.50005 22.003 8.72405 22.003 7.89005C22.003 7.08905 21.851 6.32805 21.547 5.60705C21.242 4.90805 20.81 4.27205 20.273 3.73105C19.732 3.19405 19.096 2.76205 18.397 2.45705C17.675 2.15205 16.898 1.99705 16.114 2.00105C15.313 2.00105 14.551 2.15305 13.83 2.45705C13.144 2.75005 12.516 3.16505 11.98 3.68405C11.902 3.75305 11.84 3.83805 11.798 3.93405C11.756 4.03005 11.736 4.13305 11.739 4.23705C11.739 4.44505 11.811 4.62205 11.955 4.76505C12.026 4.84105 12.112 4.90105 12.207 4.94305C12.302 4.98505 12.405 5.00605 12.509 5.00605C12.716 5.00605 12.901 4.93305 13.061 4.78905Z" fill="white"/>
</svg>
