<svg width="24" height="24" viewBox="0 0 24 24" fill="none" xmlns="http://www.w3.org/2000/svg">
<path d="M2.00147 4.97536V10.9274C2.00147 11.4854 2.19547 11.9594 2.58247 12.3454C2.96947 12.7314 3.44247 12.9264 4.00047 12.9264H8.95247C9.49547 12.9264 9.96047 12.7334 10.3475 12.3454C10.7345 11.9584 10.9285 11.4854 10.9285 10.9274V4.97536C10.9285 4.15436 10.6335 3.45636 10.0455 2.88236C9.77747 2.59736 9.45247 2.37236 9.09247 2.22036C8.73247 2.06836 8.34347 1.99336 7.95247 1.99936H4.97647C4.15547 1.99936 3.44947 2.29436 2.86047 2.88236C2.58147 3.15436 2.36147 3.47936 2.21347 3.83936C2.06547 4.19936 1.99447 4.58536 2.00147 4.97536ZM7.95247 3.48736C8.37147 3.48736 8.72047 3.63536 8.99847 3.92936C9.29347 4.22336 9.43947 4.57236 9.43947 4.97436V10.9264C9.44047 11.0634 9.39147 11.1954 9.30047 11.2984C9.25447 11.3444 9.20047 11.3804 9.14047 11.4044C9.08047 11.4284 9.01647 11.4394 8.95147 11.4374H3.99947C3.86247 11.4384 3.73047 11.3894 3.62747 11.2984C3.53647 11.1954 3.48747 11.0634 3.48847 10.9264V4.97436C3.48847 4.57136 3.63547 4.22236 3.92947 3.92936C4.06447 3.78836 4.22647 3.67636 4.40647 3.60036C4.58647 3.52436 4.77947 3.48536 4.97447 3.48736H7.95247Z" fill="white"/>
<path d="M3.99934 15.0466H8.95134C9.49434 15.0466 9.95934 15.2396 10.3463 15.6276C10.7333 16.0146 10.9273 16.4806 10.9273 17.0226V19.0226C10.9273 19.8436 10.6323 20.5496 10.0443 21.1386C9.77234 21.4176 9.44734 21.6376 9.08734 21.7856C8.72734 21.9336 8.34134 22.0056 7.95134 21.9986H4.97534C4.58334 22.0046 4.19334 21.9316 3.83034 21.7836C3.46734 21.6356 3.13634 21.4166 2.86034 21.1386C2.58234 20.8616 2.36334 20.5316 2.21534 20.1676C2.06734 19.8036 1.99434 19.4146 2.00034 19.0226V17.0226C2.00034 16.4796 2.19434 16.0156 2.58134 15.6276C2.96834 15.2396 3.44134 15.0466 3.99934 15.0466ZM8.95134 16.5346H3.99934C3.86234 16.5336 3.73034 16.5826 3.62734 16.6736C3.58134 16.7196 3.54534 16.7736 3.52134 16.8336C3.49734 16.8936 3.48634 16.9576 3.48834 17.0226V19.0226C3.48834 19.4256 3.63534 19.7746 3.92934 20.0686C4.22334 20.3626 4.57234 20.5096 4.97434 20.5096H7.95034C8.36934 20.5096 8.71834 20.3616 8.99634 20.0686C9.29134 19.7736 9.43734 19.4246 9.43734 19.0226V17.0226C9.43934 16.9576 9.42834 16.8936 9.40434 16.8336C9.38034 16.7736 9.34434 16.7186 9.29934 16.6736C9.25434 16.6286 9.19934 16.5916 9.13834 16.5686C9.07834 16.5446 9.01434 16.5336 8.94934 16.5356L8.95134 16.5346Z" fill="white"/>
<path d="M13.073 19.0228V13.0708C13.073 12.5128 13.267 12.0388 13.654 11.6528C14.041 11.2668 14.514 11.0718 15.072 11.0718H20.024C20.567 11.0718 21.032 11.2648 21.419 11.6528C21.806 12.0398 22 12.5128 22 13.0708V19.0228C22 19.8438 21.705 20.5418 21.117 21.1158C20.849 21.4008 20.524 21.6258 20.164 21.7778C19.804 21.9298 19.415 22.0048 19.024 21.9988H16.048C15.227 21.9988 14.521 21.7038 13.932 21.1158C13.653 20.8438 13.433 20.5188 13.285 20.1588C13.137 19.7988 13.066 19.4128 13.073 19.0228ZM19.024 20.5108C19.443 20.5108 19.792 20.3628 20.07 20.0688C20.365 19.7748 20.511 19.4258 20.511 19.0238V13.0718C20.512 12.9348 20.463 12.8028 20.372 12.6998C20.326 12.6538 20.272 12.6178 20.212 12.5938C20.152 12.5698 20.088 12.5588 20.023 12.5608H15.071C14.934 12.5598 14.802 12.6088 14.699 12.6998C14.608 12.8028 14.559 12.9348 14.56 13.0718V19.0238C14.56 19.4268 14.707 19.7758 15.001 20.0688C15.136 20.2098 15.298 20.3218 15.478 20.3978C15.658 20.4738 15.851 20.5128 16.046 20.5108H19.024Z" fill="white"/>
<path d="M15.0709 8.95149H20.0229C20.5659 8.95149 21.0309 8.75849 21.4179 8.37049C21.8049 7.98349 21.9989 7.51749 21.9989 6.97549V4.97549C21.9989 4.15449 21.7039 3.44849 21.1159 2.85949C20.8439 2.58049 20.5189 2.36049 20.1589 2.21249C19.7989 2.06449 19.4129 1.99249 19.0229 1.99949H16.0469C15.6549 1.99349 15.2649 2.06649 14.9019 2.21449C14.5389 2.36249 14.2079 2.58149 13.9319 2.85949C13.6539 3.13649 13.4349 3.46649 13.2869 3.83049C13.1389 4.19449 13.0659 4.58349 13.0719 4.97549V6.97549C13.0719 7.51849 13.2659 7.98249 13.6529 8.37049C14.0399 8.75849 14.5129 8.95149 15.0709 8.95149ZM20.0229 7.46349H15.0709C14.9339 7.46449 14.8019 7.41549 14.6989 7.32449C14.6529 7.27849 14.6169 7.22449 14.5929 7.16449C14.5689 7.10449 14.5579 7.04049 14.5599 6.97549V4.97549C14.5599 4.57249 14.7069 4.22349 15.0009 3.92949C15.2949 3.63549 15.6439 3.48849 16.0459 3.48849H19.0219C19.4409 3.48849 19.7899 3.63649 20.0679 3.92949C20.3629 4.22449 20.5089 4.57349 20.5089 4.97549V6.97549C20.5109 7.04049 20.4999 7.10449 20.4759 7.16449C20.4519 7.22449 20.4159 7.27949 20.3709 7.32449C20.3259 7.36949 20.2709 7.40649 20.2099 7.42949C20.1499 7.45349 20.0859 7.46449 20.0209 7.46249L20.0229 7.46349Z" fill="white"/>
</svg>
