<svg width="24" height="24" viewBox="0 0 24 24" fill="none" xmlns="http://www.w3.org/2000/svg">
<path d="M11.2501 2.74902C11.2501 2.54602 11.3201 2.37402 11.4601 2.23402C11.5291 2.16002 11.6131 2.10102 11.7051 2.06102C11.7971 2.02102 11.8981 2.00002 11.9991 1.99902C12.2021 1.99902 12.3741 2.07702 12.5151 2.23402C12.6711 2.37402 12.7491 2.54602 12.7491 2.74902V14.225L14.9971 11.977C15.0661 11.903 15.1501 11.844 15.2421 11.804C15.3341 11.764 15.4351 11.743 15.5361 11.743C15.7381 11.743 15.9101 11.821 16.0511 11.978C16.2071 12.118 16.2851 12.298 16.2851 12.517C16.2861 12.615 16.2661 12.711 16.2251 12.8C16.1841 12.889 16.1251 12.968 16.0511 13.031L12.5381 16.568C12.3921 16.704 12.1991 16.779 11.9991 16.778C11.7991 16.78 11.6061 16.705 11.4591 16.568L7.94711 13.031C7.87311 12.968 7.81311 12.889 7.77311 12.8C7.73311 12.711 7.71211 12.614 7.71311 12.517C7.71311 12.297 7.79111 12.118 7.94711 11.977C8.01111 11.903 8.09011 11.843 8.17911 11.803C8.26811 11.763 8.36511 11.742 8.46311 11.744C8.56411 11.744 8.66411 11.765 8.75711 11.806C8.85011 11.847 8.93311 11.905 9.00211 11.979L11.2501 14.227V2.74902Z" fill="white"/>
<path d="M3.35511 13.44C3.39111 13.525 3.40811 13.617 3.40511 13.709V17.502C3.39911 17.904 3.47311 18.304 3.62111 18.678C3.76911 19.052 3.99111 19.393 4.27211 19.681C4.55111 19.969 4.88711 20.196 5.25711 20.349C5.62711 20.502 6.02511 20.577 6.42611 20.571H17.5731C18.4151 20.571 19.1271 20.274 19.7041 19.682C20.2981 19.072 20.5941 18.347 20.5941 17.504V13.71C20.5911 13.617 20.6081 13.525 20.6441 13.44C20.6801 13.355 20.7351 13.279 20.8051 13.217C20.8681 13.15 20.9451 13.097 21.0291 13.061C21.1131 13.025 21.2051 13.007 21.2961 13.007C21.3881 13.007 21.4791 13.025 21.5641 13.062C21.6491 13.099 21.7251 13.151 21.7881 13.218C21.8571 13.279 21.9121 13.355 21.9491 13.44C21.9861 13.525 22.0031 13.617 21.9991 13.709V17.504C21.9991 18.737 21.5611 19.799 20.6871 20.688C19.8291 21.562 18.7911 22 17.5721 22H6.42411C5.20711 22 4.16111 21.562 3.28611 20.688C2.42811 19.799 1.99911 18.737 1.99911 17.504V13.71C1.99511 13.617 2.01211 13.525 2.04911 13.44C2.08611 13.355 2.14011 13.279 2.20911 13.217C2.27211 13.15 2.34911 13.097 2.43311 13.061C2.51711 13.025 2.60911 13.007 2.70011 13.007C2.79211 13.007 2.88311 13.025 2.96811 13.061C3.05311 13.097 3.12911 13.151 3.19211 13.217C3.26111 13.278 3.31611 13.354 3.35211 13.439L3.35511 13.44Z" fill="white"/>
</svg>
