<svg width="24" height="24" viewBox="0 0 24 24" fill="none" xmlns="http://www.w3.org/2000/svg">
<path d="M11.9999 4.53L13.7569 8.302C13.9439 8.677 14.2019 8.989 14.5299 9.238C14.8739 9.488 15.2489 9.645 15.6539 9.708L19.7299 10.316L16.7089 13.408C16.4269 13.69 16.2179 14.035 16.0989 14.415C15.9899 14.79 15.9669 15.173 16.0289 15.563L16.7319 19.849L13.2189 17.904C12.8479 17.691 12.4279 17.578 12.0009 17.576C11.5789 17.576 11.1729 17.686 10.7829 17.904L7.26995 19.849L7.97295 15.562C8.03495 15.172 8.00395 14.789 7.87895 14.415C7.77495 14.034 7.57295 13.687 7.29295 13.408L4.27195 10.316L8.34795 9.707C8.74895 9.647 9.12695 9.485 9.44795 9.238C9.79195 8.988 10.0579 8.676 10.2439 8.302L12.0009 4.53H11.9999ZM8.88495 7.669C8.80695 7.809 8.69695 7.935 8.55695 8.044C8.42495 8.141 8.27295 8.205 8.11095 8.232L2.65395 9.052C2.34095 9.099 2.13795 9.278 2.04395 9.591C1.94995 9.904 2.01295 10.169 2.23195 10.388L6.21295 14.463C6.33795 14.573 6.42295 14.705 6.47095 14.861C6.51795 15.013 6.52595 15.175 6.49395 15.331L5.55795 21.069C5.49495 21.397 5.58795 21.655 5.83795 21.843C5.94795 21.934 6.08395 21.989 6.22595 22.001C6.36795 22.013 6.51095 21.983 6.63595 21.913L11.5079 19.22C11.6559 19.129 11.8259 19.081 11.9999 19.08C12.1719 19.08 12.3359 19.126 12.4919 19.22L17.3639 21.913C17.4879 21.983 17.6309 22.013 17.7729 22.001C17.9149 21.989 18.0499 21.933 18.1599 21.843C18.4099 21.655 18.5039 21.397 18.4409 21.069L17.5049 15.33C17.4899 15.172 17.5049 15.013 17.5519 14.861C17.5949 14.711 17.6759 14.574 17.7859 14.463L21.7679 10.387C21.9879 10.168 22.0499 9.902 21.9559 9.59C21.8619 9.277 21.6589 9.098 21.3459 9.05L15.8889 8.23C15.7209 8.201 15.5609 8.137 15.4189 8.043C15.2969 7.937 15.1939 7.81 15.1149 7.668L12.6809 2.446C12.5409 2.149 12.3139 2 12.0009 2C11.6879 2 11.4609 2.149 11.3209 2.446L8.88495 7.669Z" fill="white"/>
</svg>
