<svg width="24" height="24" viewBox="0 0 24 24" fill="none" xmlns="http://www.w3.org/2000/svg">
<path fill-rule="evenodd" clip-rule="evenodd" d="M20 10V13C20.5523 13 21 13.4477 21 14V16C21 16.5523 20.5523 17 20 17V18C20 20.2091 18.2091 22 16 22H8C5.79086 22 4 20.2091 4 18L4 17C3.44772 17 3 16.5523 3 16V14C3 13.4477 3.44772 13 4 13V10C4 5.58172 7.58172 2 12 2C16.4183 2 20 5.58172 20 10ZM5.5 18V17H18.5V18C18.5 19.3807 17.3807 20.5 16 20.5H8C6.61929 20.5 5.5 19.3807 5.5 18ZM5.93128 13H5.5V10C5.5 6.41015 8.41015 3.5 12 3.5C15.5899 3.5 18.5 6.41015 18.5 10V13H17.9984C17.9445 11.4467 17.0494 10.1033 15.8997 9.79672C15.5148 9.6941 15.0969 9.70644 14.6803 9.8178C14.0765 8.61146 13.0308 7.80762 12 7.80762C10.9638 7.80762 9.91225 8.6202 9.30998 9.83746L9.31114 9.83506C8.87423 9.70795 8.43387 9.68902 8.02997 9.79672C6.88025 10.1033 5.98515 11.4467 5.93128 13ZM7.43269 13C7.45141 12.6491 7.53589 12.32 7.66614 12.0383C7.91098 11.5086 8.23665 11.294 8.41643 11.2461C8.51155 11.2207 8.66531 11.2155 8.85953 11.2661L8.85999 11.2633C8.82083 11.5147 8.80005 11.7739 8.80005 12.0388C8.80005 12.3694 8.82407 12.6912 8.87098 13H7.43269ZM10.3942 13C10.3342 12.7106 10.3 12.3889 10.3 12.0388C10.3 11.2111 10.5887 10.479 10.9857 9.9742C11.4028 9.44389 11.8086 9.30762 12 9.30762C12.1915 9.30762 12.5973 9.44389 13.0144 9.9742C13.4114 10.479 13.7 11.2111 13.7 12.0388C13.7 12.3889 13.6659 12.7106 13.6059 13H10.3942ZM15.1291 13C15.176 12.6912 15.2 12.3694 15.2 12.0388C15.2 11.7693 15.1785 11.5058 15.1381 11.2503C15.3003 11.217 15.4295 11.2238 15.5132 11.2461C15.693 11.294 16.0187 11.5086 16.2635 12.0383C16.3938 12.32 16.4783 12.6491 16.497 13H15.1291ZM4.6 14.5C4.54477 14.5 4.5 14.5448 4.5 14.6V15.4C4.5 15.4552 4.54477 15.5 4.6 15.5H19.4C19.4552 15.5 19.5 15.4552 19.5 15.4V14.6C19.5 14.5448 19.4552 14.5 19.4 14.5H4.6Z" fill="white"/>
</svg>
