<svg width="24" height="24" viewBox="0 0 24 24" fill="none" xmlns="http://www.w3.org/2000/svg">
<path d="M3.8731 6.42207C3.8731 5.81207 3.9891 5.23907 4.2221 4.70107C4.4431 4.18107 4.7611 3.70807 5.1591 3.30707C5.5611 2.90407 6.0331 2.58007 6.5531 2.35007C7.0961 2.11607 7.6821 1.99707 8.2741 2.00107H13.7211C14.2981 2.00007 14.8691 2.11907 15.3981 2.35007C15.9371 2.56907 16.4261 2.89507 16.8361 3.30807L18.8401 5.31307C19.2471 5.71907 19.5591 6.19907 19.7771 6.75107C20.0091 7.28807 20.1261 7.84807 20.1261 8.42807V17.5781C20.1261 18.1881 20.0101 18.7611 19.7771 19.2991C19.3261 20.3501 18.4931 21.1911 17.4461 21.6521C16.9031 21.8861 16.3171 22.0041 15.7251 22.0011H8.2741C7.6831 22.0051 7.0971 21.8861 6.5531 21.6521C6.0371 21.4241 5.5651 21.1071 5.1591 20.7151C4.7641 20.3041 4.4461 19.8241 4.2221 19.2991C3.9881 18.7551 3.8701 18.1691 3.8731 17.5781V6.42207ZM8.2741 3.39307C7.4471 3.39307 6.7351 3.69007 6.1391 4.28607C5.8581 4.56507 5.6361 4.89807 5.4861 5.26507C5.3361 5.63207 5.2621 6.02507 5.2681 6.42107V17.5751C5.2681 18.4021 5.5581 19.1141 6.1391 19.7101C6.7341 20.3051 7.4471 20.6021 8.2741 20.6021H15.7251C16.5521 20.6021 17.2571 20.3051 17.8381 19.7101C18.4331 19.1151 18.7311 18.4031 18.7311 17.5751V8.42507C18.7311 8.01907 18.6511 7.63407 18.4911 7.27107C18.3521 6.90307 18.1371 6.56907 17.8591 6.29007L15.8551 4.28607C15.5711 4.00007 15.2291 3.77707 14.8531 3.63307C14.4971 3.47507 14.1111 3.39307 13.7211 3.39307H8.2741Z" fill="white"/>
<path d="M12.4792 7.79515C12.3482 7.64915 12.1882 7.57715 11.9992 7.57715C11.9052 7.57715 11.8122 7.59715 11.7252 7.63415C11.6382 7.67115 11.5612 7.72615 11.4972 7.79515C11.3672 7.92515 11.3022 8.08515 11.3022 8.27415V11.3021H8.27517C8.18117 11.3021 8.08817 11.3211 8.00117 11.3591C7.91417 11.3971 7.83717 11.4511 7.77317 11.5201C7.64317 11.6511 7.57817 11.8111 7.57817 12.0001C7.57617 12.1861 7.64617 12.3661 7.77317 12.5021C7.90917 12.6291 8.08817 12.6991 8.27417 12.6971H11.3022V15.7241C11.3002 15.9101 11.3702 16.0901 11.4972 16.2261C11.6332 16.3531 11.8132 16.4231 11.9992 16.4211C12.0882 16.4231 12.1772 16.4071 12.2592 16.3731C12.3412 16.3391 12.4162 16.2891 12.4792 16.2261C12.5482 16.1621 12.6022 16.0841 12.6402 15.9981C12.6782 15.9121 12.6972 15.8191 12.6972 15.7251V12.6971H15.7252C15.8142 12.6991 15.9022 12.6821 15.9852 12.6491C16.0682 12.6161 16.1422 12.5651 16.2042 12.5021C16.2732 12.4381 16.3282 12.3601 16.3652 12.2741C16.4022 12.1881 16.4222 12.0951 16.4222 12.0001C16.4222 11.8111 16.3502 11.6511 16.2042 11.5201C16.0742 11.3751 15.9142 11.3021 15.7252 11.3021H12.6972V8.27415C12.6972 8.08515 12.6252 7.92515 12.4792 7.79515Z" fill="white"/>
</svg>
