<svg width="24" height="24" viewBox="0 0 24 24" fill="none" xmlns="http://www.w3.org/2000/svg">
<path d="M4.50487 4.52403C3.86387 5.16503 3.54287 5.95103 3.54287 6.88003V17.12C3.54287 18.049 3.86387 18.843 4.50487 19.499C5.16087 20.14 5.95487 20.461 6.88387 20.461H17.1239C18.0529 20.461 18.8389 20.14 19.4809 19.499C20.1369 18.843 20.4659 18.049 20.4659 17.12V13.034C20.4619 12.932 20.4789 12.83 20.5159 12.735C20.5529 12.64 20.6089 12.553 20.6809 12.48C20.8309 12.34 21.0289 12.263 21.2349 12.265C21.3329 12.263 21.4309 12.281 21.5219 12.318C21.6129 12.355 21.6959 12.41 21.7639 12.481C21.8419 12.55 21.9039 12.635 21.9459 12.731C21.9879 12.827 22.0069 12.93 22.0039 13.035V17.121C22.0039 17.794 21.8759 18.428 21.6189 19.02C21.1229 20.189 20.1919 21.119 19.0229 21.616C18.4299 21.872 17.7959 22.001 17.1239 22.001H6.88387C6.21087 22.001 5.57687 21.873 4.98487 21.616C4.39287 21.359 3.87087 21.015 3.42287 20.582C2.98987 20.134 2.64587 19.613 2.38887 19.02C2.13187 18.427 2.00387 17.793 2.00387 17.121V6.88103C1.99987 6.22803 2.13087 5.58103 2.38887 4.98203C2.88487 3.81303 3.81587 2.88303 4.98487 2.38603C5.57787 2.13003 6.21187 2.00103 6.88387 2.00103H10.9699C11.0739 1.99803 11.1779 2.01803 11.2739 2.05903C11.3699 2.10003 11.4549 2.16203 11.5239 2.24103C11.5939 2.31003 11.6489 2.39203 11.6859 2.48303C11.7229 2.57403 11.7409 2.67203 11.7389 2.77003C11.7409 2.97503 11.6639 3.17403 11.5239 3.32403C11.4509 3.39603 11.3649 3.45203 11.2689 3.48903C11.1729 3.52603 11.0719 3.54303 10.9699 3.53903H6.88387C5.95487 3.53903 5.16087 3.86703 4.50487 4.52403Z" fill="white"/>
<path d="M17.1729 7.93803C17.3129 7.78803 17.3899 7.59003 17.3879 7.38503C17.3899 7.18003 17.3129 6.98103 17.1729 6.83103C17.0229 6.69103 16.8249 6.61403 16.6189 6.61603C16.4139 6.61403 16.2149 6.69103 16.0649 6.83103L8.66187 14.236V10.966C8.66387 10.868 8.64587 10.77 8.60887 10.68C8.57187 10.59 8.51687 10.507 8.44687 10.438C8.37787 10.36 8.29287 10.297 8.19687 10.256C8.10087 10.215 7.99787 10.194 7.89287 10.197C7.78887 10.197 7.68687 10.219 7.59187 10.26C7.49687 10.301 7.41087 10.362 7.34087 10.438C7.27087 10.507 7.21587 10.589 7.17887 10.68C7.14187 10.771 7.12387 10.868 7.12587 10.966V16.88H13.0389C13.2469 16.88 13.4239 16.808 13.5669 16.664C13.6429 16.593 13.7039 16.507 13.7449 16.412C13.7859 16.317 13.8079 16.214 13.8079 16.11C13.8109 16.006 13.7899 15.903 13.7489 15.807C13.7079 15.711 13.6449 15.627 13.5669 15.558C13.4979 15.488 13.4159 15.432 13.3249 15.395C13.2339 15.358 13.1369 15.339 13.0379 15.341H9.76787L17.1729 7.93703V7.93803Z" fill="white"/>
</svg>
