<svg width="24" height="24" viewBox="0 0 24 24" fill="none" xmlns="http://www.w3.org/2000/svg">
<path fill-rule="evenodd" clip-rule="evenodd" d="M14.8665 21.9964C18.0358 21.8356 20.5 19.2101 20.5 16V10.5C20.5 5.80558 16.6944 2 12 2C7.30558 2 3.5 5.80558 3.5 10.5V16C3.5 18.9946 5.47344 21.5303 8.33541 21.9821C8.37024 21.9899 8.40581 21.9952 8.44188 21.9979C8.44693 21.9986 8.45198 21.9993 8.45703 22L8.45736 21.9989C8.5254 22.0026 8.59509 21.997 8.66482 21.9811C9.06869 21.8891 9.3215 21.4871 9.2295 21.0832C8.72608 18.8735 8.48258 16.751 8.39176 15.0367C8.31863 13.6565 8.34614 12.5733 8.407 11.9333C8.42632 11.9257 8.44582 11.918 8.46548 11.9103C9.33647 11.5688 10.5353 11.0986 11.5491 10.5065C12.0582 10.2091 12.5574 9.86102 12.9616 9.45386C13.0915 9.72735 13.2435 9.99661 13.4187 10.2531C13.9452 11.0241 14.7108 11.7171 15.7433 12.0143C15.7327 12.8372 15.6624 14.2217 15.4784 15.7167C15.2356 17.6902 14.8111 19.706 14.1495 20.8811C13.9463 21.242 14.0742 21.6994 14.4351 21.9026C14.546 21.965 14.666 21.9962 14.7849 21.999L14.7852 22C14.7923 21.9997 14.7995 21.9995 14.8067 21.9992C14.8267 21.999 14.8467 21.9981 14.8665 21.9964ZM19 16V10.5C19 6.63401 15.866 3.5 12 3.5C8.13401 3.5 5 6.63401 5 10.5V16C5 17.7584 6.00856 19.2813 7.47876 20.0216C7.14502 18.2277 6.96918 16.5377 6.89386 15.116C6.82821 13.8769 6.80707 12.631 6.97148 11.4018C7.01703 11.0613 7.2505 10.7788 7.57029 10.6534C7.65135 10.6216 7.73248 10.5898 7.81363 10.5581C8.83005 10.1607 9.84984 9.7619 10.7926 9.21123C11.209 8.968 11.8472 8.58921 12.1731 8.10143C12.4035 7.75666 12.7102 7.363 13.123 7.32352C13.5357 7.28404 13.9001 7.58808 14.0106 7.98772C14.1411 8.45939 14.3547 8.96397 14.6574 9.40712C15.1163 10.079 15.6862 10.405 16.3623 10.5775C16.8401 10.6993 17.2253 11.0844 17.2313 11.5774C17.2487 13.0218 17.1438 14.4643 16.9672 15.8999C16.792 17.3242 16.5114 18.9044 16.0624 20.2214C17.7775 19.5863 19 17.9359 19 16Z" fill="white"/>
</svg>
