<svg width="24" height="24" viewBox="0 0 24 24" fill="none" xmlns="http://www.w3.org/2000/svg">
<path d="M2.00325 8.26205C1.9493 7.30739 2.57136 6.44762 3.48786 6.21014L19.614 2.03158C20.1435 1.89438 20.6827 2.21696 20.8185 2.75208L21.5658 5.69783C21.701 6.23103 21.3846 6.77449 20.8577 6.91389L9.47397 9.9258H20.0206C21.1138 9.9258 22 10.8215 22 11.9263V19.9995C22 21.1043 21.1138 22 20.0206 22H4.18528C3.09208 22 2.20587 21.1043 2.20587 19.9995V11.9263C2.20587 11.9002 2.20636 11.8742 2.20734 11.8484L2.20596 11.8488L2.00325 8.26205ZM3.93303 8.19038L4.28805 9.3068C4.36841 9.55952 4.63013 9.70476 4.88425 9.63766L7.67305 8.90132L5.26217 7.29873L4.28125 7.5529C4.00522 7.62442 3.84584 7.91619 3.93303 8.19038ZM9.6066 8.39079L12.2331 7.6973L9.84654 6.11084L7.20602 6.79504L9.6066 8.39079ZM14.1667 7.18677L16.5756 6.55072L14.2121 4.97963L11.7904 5.60715L14.1667 7.18677ZM19.8227 5.69338C20.0863 5.62379 20.2446 5.35198 20.1769 5.08528L19.9068 4.02036C19.8389 3.7528 19.5693 3.59151 19.3045 3.6601L16.156 4.47595L18.5092 6.04019L19.8227 5.69338ZM3.69043 12.4264V19.4994C3.69043 20.0518 4.13353 20.4996 4.68013 20.4996H19.5257C20.0723 20.4996 20.5154 20.0518 20.5154 19.4994V12.4264C20.5154 11.874 20.0723 11.4262 19.5257 11.4262H4.68013C4.13353 11.4262 3.69043 11.874 3.69043 12.4264Z" fill="white"/>
<path d="M11.2706 13.5246C10.7449 13.1643 10.0344 13.5448 10.0344 14.1867V17.7266C10.0344 18.3685 10.7449 18.749 11.2706 18.3886L13.8528 16.6187C14.3158 16.3013 14.3158 15.612 13.8528 15.2946L11.2706 13.5246Z" fill="white"/>
</svg>
