<svg width="24" height="24" viewBox="0 0 24 24" fill="none" xmlns="http://www.w3.org/2000/svg">
<path fill-rule="evenodd" clip-rule="evenodd" d="M19 18.8046C20.6569 18.8046 22 17.4614 22 15.8046V5L21.9998 4.96611C21.9816 3.32487 20.6455 2 19 2H6.58092C4.92406 2 3.58092 3.34315 3.58092 5V10.1692C3.58092 10.5834 3.9167 10.9192 4.33092 10.9192C4.74513 10.9192 5.08092 10.5834 5.08092 10.1692V6.46611H20.5V15.8046C20.5 16.633 19.8284 17.3046 19 17.3046H16.5553C16.1411 17.3046 15.8053 17.6404 15.8053 18.0546C15.8053 18.4688 16.1411 18.8046 16.5553 18.8046H19ZM19 3.5H6.58092C5.76382 3.5 5.09931 4.15333 5.08129 4.96611H20.4996C20.4816 4.15334 19.8171 3.5 19 3.5Z" fill="white"/>
<path fill-rule="evenodd" clip-rule="evenodd" d="M2.47556 16.8741L2.04534 14.9236C1.82792 13.9379 2.40901 12.908 3.43358 12.682L4.35752 12.4782L10.0229 8.80629L10.1841 8.69675C11.2503 8.22534 12.3173 9.04023 12.5668 10.1717L12.7968 11.2142C13.724 11.3928 14.4193 12.2471 14.6235 13.1729C14.7144 13.5851 14.7109 14.0129 14.6187 14.4101L14.5716 14.6129L14.5614 14.6151C14.4215 15.0507 14.1649 15.447 13.7896 15.7184L14.0197 16.7613C14.2901 17.9874 13.3146 19.2145 11.9926 19.0271L9.92899 18.7345L10.1991 19.1388C10.7355 19.9422 10.5835 21.0612 9.7876 21.6527C9.58045 21.8067 9.35243 21.9073 9.11769 21.9585C8.41587 22.1151 7.6688 21.8217 7.24725 21.194L5.23619 18.2015L4.67817 18.3246C3.67796 18.5452 2.69189 17.8549 2.47556 16.8741ZM4.35468 16.8636L4.67983 16.7919L4.5378 16.148L4.53898 16.1477L4.08117 14.0721L3.75602 14.1439C3.60174 14.1779 3.45452 14.359 3.5079 14.601L3.93812 16.5515C3.97916 16.7376 4.15125 16.9085 4.35468 16.8636ZM5.50251 13.5236L6.20003 16.6916L10.6562 17.3232L10.1252 14.9156L10.1263 14.9153L9.27952 11.0761L5.50251 13.5236ZM10.6292 10.2028L11.7395 15.2363L11.7383 15.2366L12.2479 17.547C12.4263 17.5417 12.6182 17.3636 12.5564 17.0834L11.9875 14.5042L11.9887 14.5039L11.1041 10.4937C11.0423 10.2135 10.7934 10.1326 10.6292 10.2028ZM13.4624 14.232C13.5334 14.0047 13.5506 13.7301 13.4832 13.4244C13.4157 13.1187 13.2846 12.8768 13.1246 12.7005C13.0025 12.566 12.8635 12.4697 12.7231 12.4124L13.2181 14.6622L13.2191 14.6612C13.3326 14.5394 13.4128 14.3907 13.4624 14.232ZM7.14113 18.3397L8.49747 20.3582C8.60665 20.5208 8.77099 20.5381 8.8854 20.4535C9.00734 20.3629 9.06191 20.1485 8.94472 19.9726M8.94472 19.9726L7.92873 18.4515L7.14113 18.3397" fill="white"/>
<path d="M15.1796 10.2884C14.9278 9.95948 14.9902 9.48873 15.3191 9.23693L16.3513 8.44665C16.6802 8.19484 17.151 8.25733 17.4028 8.58622C17.6546 8.91511 17.5921 9.38585 17.2632 9.63766L16.231 10.4279C15.9021 10.6797 15.4314 10.6173 15.1796 10.2884Z" fill="white"/>
<path d="M16.1755 14.8035C16.2656 14.3992 16.6663 14.1445 17.0706 14.2346L18.3395 14.5173C18.7438 14.6074 18.9985 15.0082 18.9084 15.4125C18.8184 15.8168 18.4176 16.0715 18.0133 15.9814L16.7444 15.6987C16.3401 15.6086 16.0854 15.2078 16.1755 14.8035Z" fill="white"/>
<path d="M15.5403 12.5763C15.4511 12.1718 15.7067 11.7716 16.1111 11.6824L17.3806 11.4024C17.7851 11.3132 18.1854 11.5688 18.2746 11.9732C18.3638 12.3777 18.1082 12.778 17.7037 12.8672L16.4342 13.1472C16.0297 13.2364 15.6295 12.9808 15.5403 12.5763Z" fill="white"/>
</svg>
