<svg width="24" height="24" viewBox="0 0 24 24" fill="none" xmlns="http://www.w3.org/2000/svg">
<path d="M3.61106 6.68704L9.18824 7.14456V4.25901L7.24098 4.04388C6.41177 3.93784 5.57449 4.16205 4.90991 4.66806C4.23827 5.15286 3.77468 5.875 3.61106 6.68704ZM10.7265 4.42667V7.26374L14.8129 7.6233V4.8842L10.7265 4.42667ZM16.3511 5.05287V7.74551L20.4386 8.08184C20.3487 7.34252 20.0093 6.65472 19.476 6.13457C18.9478 5.59826 18.2529 5.25891 17.5045 5.17407L16.3511 5.05287ZM20.4618 9.62005L16.3511 9.28373V11.23H20.4618V9.62005ZM20.4618 12.7682H16.3511V14.7145L20.4618 14.3781V12.7682ZM20.4375 15.9174L16.3501 16.2537V18.9463L17.5035 18.8261C18.2509 18.7403 18.9468 18.4019 19.475 17.8656C20.0083 17.3445 20.3477 16.6577 20.4375 15.9184V15.9174ZM14.8119 19.114V16.3749L10.7255 16.7344V19.5715L14.8119 19.114ZM9.18824 19.7392V16.8536L3.61106 17.3112C3.77468 18.1232 4.23827 18.8443 4.90991 19.3291C5.59873 19.8422 6.37642 20.0513 7.24098 19.9543L9.18824 19.7392ZM3.53935 15.7739L9.18824 15.3164V12.7692H3.53935V15.7739ZM3.53935 11.23H9.18824V8.68278L3.53935 8.22525V11.23ZM10.7265 8.8262V11.23H14.8129V9.16253L10.7265 8.8262ZM14.8119 12.7682H10.7255V15.172L14.8119 14.8357V12.7682ZM2.00012 7.38393C2.00012 6.6628 2.14354 5.98913 2.43341 5.36496C2.70712 4.74381 3.10809 4.1873 3.61106 3.73079C4.11303 3.27932 4.70186 2.93491 5.34219 2.72079C6.00677 2.49557 6.71275 2.42285 7.40864 2.50567L17.6732 3.65807C18.867 3.76513 19.9709 4.33476 20.7496 5.24477C21.5839 6.17396 22 7.25566 22 8.48987V15.5093C22 16.7435 21.5839 17.8252 20.7496 18.7544C19.9699 19.6644 18.866 20.2341 17.6732 20.3411L7.40864 21.4945C6.71174 21.5774 6.00576 21.5036 5.34219 21.2784C4.70186 21.0643 4.11303 20.7199 3.61106 20.2684C3.1091 19.8119 2.70813 19.2554 2.43341 18.6342C2.14354 18.001 1.99507 17.3111 2.00012 16.6153V7.38494V7.38393Z" fill="white"/>
</svg>
