<svg width="24" height="24" viewBox="0 0 24 24" fill="none" xmlns="http://www.w3.org/2000/svg">
<path d="M21.2844 10.3344C21.4165 11.131 21.4619 11.9341 21.4165 12.7458C21.3731 13.5574 21.2626 14.3681 21.0861 15.1788C20.8909 16.0714 20.6464 16.989 20.311 17.8327C20.2202 18.2864 20.0474 18.7185 20.0013 19.1823C19.9703 19.4702 19.9235 19.8617 20.1118 20.1119C20.4281 20.2829 20.5814 20.7207 20.3997 21.0406C20.2726 21.2975 19.9945 21.4729 19.7087 21.449C19.0933 21.3975 18.7048 20.6151 18.6068 20.0893C18.4977 19.2384 18.6478 18.4205 18.9165 17.6119C19.1291 16.9307 19.0614 16.2488 18.5851 15.7092C17.6631 18.5202 15.0038 20.5524 12.1915 21.2684C12.1898 21.6528 11.8854 22.0116 11.4833 21.9997C11.0038 21.9988 10.776 21.5782 10.7763 21.158C9.19119 20.7128 7.38456 19.8214 6.25964 18.5849C5.95686 19.0311 5.72559 19.4919 5.30797 19.8684C4.88018 20.2459 4.41025 20.5699 3.93616 20.8858C3.59926 21.0744 3.20857 21.3502 2.80794 21.3502C2.62208 21.3806 2.42634 21.332 2.2764 21.218C2.13116 21.1032 2.03635 20.9363 2.01205 20.7527C1.94364 20.3724 2.24538 20.0154 2.60873 19.9345C2.79362 19.8729 2.92089 19.7975 3.02886 19.6249C3.08834 19.5211 3.11761 19.3597 3.11761 19.1379C3.11761 18.8435 3.0959 18.5405 3.05152 18.2319C2.85025 16.7945 2.35885 15.4118 2.09891 13.984C1.95349 13.2777 2.01628 12.5597 2.00026 11.8388C2.00026 10.3344 2.33233 9.36984 3.02886 8.04952C3.73695 6.73672 4.56306 5.73349 5.50718 5.04076C6.4664 4.34803 7.38125 3.86104 8.25079 3.58074C8.63164 3.44178 9.02448 3.33815 9.42433 3.27118C9.88321 3.18305 10.3495 3.09469 10.8178 3.09469C10.8178 2.78074 10.7753 2.44345 11.0171 2.19955C11.1552 2.07032 11.3377 1.99904 11.5269 2.00041C11.6206 1.99717 11.714 2.01308 11.8013 2.04716C11.8886 2.08124 11.9681 2.13277 12.0348 2.1986C12.167 2.33168 12.234 2.50156 12.234 2.70824V3.07204C12.781 3.07204 13.3382 3.16498 13.8721 3.27118C14.5166 3.37525 15.1229 3.596 15.7301 3.82423C15.9736 3.58074 16.0624 3.43049 16.2834 3.15019C16.7146 2.64256 17.2908 2.2667 17.9648 2.13279C18.6373 2.0094 19.3547 2.15133 19.9569 2.46406C20.6764 2.82462 21.0858 3.24046 21.5009 3.8903C22.0845 4.76673 22.1539 5.83862 21.7218 6.78769C21.5603 7.1567 21.0064 7.87818 20.7402 8.20283C20.8833 9.18393 21.0535 8.74841 21.2844 10.3344ZM16.9924 4.48771C17.5079 4.79726 18.0168 5.19554 18.5181 5.68253C19.0204 6.15441 19.4773 6.73012 19.8908 7.40775C20.8769 6.49485 21.3836 5.05645 20.1335 4.08943C19.0654 3.1826 17.5928 3.08175 16.9914 4.48865L16.9924 4.48771ZM19.0279 14.2058C19.2708 14.3987 19.5133 14.6081 19.7133 14.8466C19.9786 13.6386 20.0674 12.4588 19.9786 11.3074C19.8586 9.35486 18.4957 7.29623 16.9027 6.16857C16.1068 5.57871 15.3468 5.15873 14.6236 4.90863C13.853 4.65811 13.0458 4.49636 12.234 4.48771V8.85173C12.5715 9.75608 12.94 10.6621 13.3632 11.5292C13.6427 12.0596 14.0637 12.6127 14.6236 13.1884C15.2248 13.7403 16.0436 13.9278 16.8376 13.984C17.0246 13.9988 18.2528 14.0242 18.2528 13.9179C18.547 13.8708 18.8078 14.0303 19.0279 14.2058ZM6.8129 16.7936C6.88654 16.9559 6.96773 17.1107 7.05648 17.2579C7.82574 18.4032 9.5011 19.2658 10.7754 19.698L10.8178 12.4579C10.0432 13.2683 9.01674 13.8374 7.94112 14.1388C7.71436 14.2063 7.42277 14.3162 7.18865 14.3162C7.18865 14.526 7.12673 14.7494 7.10085 14.958C7.02195 15.5742 6.9066 16.1802 6.8129 16.7936ZM12.1915 19.8094C14.0487 19.2478 15.8339 18.3076 16.7261 16.5284C16.9036 16.1745 17.0585 15.7979 17.1907 15.3996H16.7479C15.622 15.2805 14.4483 15.0196 13.6285 14.1841C13.0886 13.6503 12.6261 13.0419 12.234 12.3918L12.1915 19.8094ZM4.42333 17.811C4.4677 18.0762 4.50452 18.349 4.53379 18.6293C5.61626 17.5472 5.65046 15.6039 5.77248 14.1831C5.82294 13.8867 5.78967 13.5331 5.97169 13.2762C6.28027 12.8514 7.0647 12.908 7.54364 12.7684C8.30769 12.5497 8.98977 12.1712 9.60182 11.6614C10.0024 11.3347 10.8188 10.4927 10.8188 9.93613V4.51036C10.4496 4.51036 10.0738 4.57329 9.71229 4.64249C9.36799 4.71066 9.02812 4.79953 8.69453 4.90863C7.97227 5.15873 7.20471 5.57871 6.39371 6.16857C5.2648 6.98419 3.83984 8.5995 3.51697 9.95878C3.35508 10.5724 3.27289 11.2042 3.27245 11.8388C3.28755 12.4579 3.36119 13.0997 3.49337 13.7631C3.61139 14.4266 3.77377 15.1411 3.98054 15.9083C4.09867 16.549 4.32094 17.1642 4.42333 17.811Z" fill="white"/>
</svg>
