<svg width="24" height="24" viewBox="0 0 24 24" fill="none" xmlns="http://www.w3.org/2000/svg">
<path d="M7.36621 16.8785C7.36621 16.4745 7.69421 16.1465 8.09821 16.1465H12.9762C13.3802 16.1465 13.7082 16.4745 13.7082 16.8785C13.7082 17.2825 13.3802 17.6105 12.9762 17.6105H8.09821C7.69421 17.6105 7.36621 17.2825 7.36621 16.8785Z" fill="white"/>
<path d="M8.09821 13.2188C7.69421 13.2188 7.36621 13.5468 7.36621 13.9508C7.36621 14.3548 7.69421 14.6827 8.09821 14.6827H15.9032C16.3072 14.6827 16.6352 14.3548 16.6352 13.9508C16.6352 13.5468 16.3072 13.2188 15.9032 13.2188H8.09821Z" fill="white"/>
<path d="M7.36621 11.025C7.36621 10.621 7.69421 10.293 8.09821 10.293H15.9032C16.3072 10.293 16.6352 10.621 16.6352 11.025C16.6352 11.429 16.3072 11.757 15.9032 11.757H8.09821C7.69421 11.757 7.36621 11.429 7.36621 11.025Z" fill="white"/>
<path d="M11.4828 2.2145C11.7688 1.9285 12.2318 1.9285 12.5178 2.2145L16.2168 5.9135C18.6298 6.0745 20.5378 8.0835 20.5378 10.5375V17.3665C20.5378 19.9255 18.4628 22.0005 15.9038 22.0005H8.09884C5.53984 22.0005 3.46484 19.9255 3.46484 17.3665V10.5375C3.46484 8.0835 5.37184 6.0745 7.78584 5.9135L11.4848 2.2145H11.4828ZM14.1358 5.9025L11.9998 3.7665L9.86384 5.9025H14.1358ZM8.09784 7.3665C6.34684 7.3665 4.92684 8.7865 4.92684 10.5375V17.3665C4.92684 19.1175 6.34684 20.5375 8.09784 20.5375H15.9028C17.6538 20.5375 19.0738 19.1175 19.0738 17.3665V10.5375C19.0738 8.7865 17.6538 7.3665 15.9028 7.3665H8.09784Z" fill="white"/>
</svg>
