<svg width="24" height="24" viewBox="0 0 24 24" fill="none" xmlns="http://www.w3.org/2000/svg">
<path d="M14.2889 14.4148V17.5338H17.4079V14.4148H14.2889Z" fill="white"/>
<path fill-rule="evenodd" clip-rule="evenodd" d="M2.74958 11.727C2.3356 11.727 2 12.0626 2 12.4765V17.9957C2 19.1038 2.39069 20.0491 3.17106 20.8294C3.95144 21.6108 4.89568 22.0005 6.0048 22.0005H17.9952C19.1033 22.0005 20.0486 21.6098 20.8289 20.8294C21.6103 20.0491 22 19.1048 22 17.9957V6.00529C22 4.89718 21.6093 3.95193 20.8289 3.17156C20.0486 2.39018 19.1043 2.00049 17.9952 2.00049H12.7682C12.3543 2.00049 12.0188 2.33601 12.0188 2.74989C12.0188 3.16378 12.3543 3.49929 12.7682 3.49929H17.995C18.6825 3.49929 19.267 3.74909 19.7516 4.24869C19.7981 4.2938 19.8424 4.33977 19.8846 4.3866L4.3674 19.9038C4.31948 19.8631 4.27236 19.8202 4.22603 19.7753C3.74142 19.2757 3.49961 18.6831 3.49961 17.9957L3.49916 12.4765C3.49912 12.0625 3.16353 11.727 2.74958 11.727ZM8.06966 20.5017V17.56L8.09586 17.5338H11.1886V20.5017H8.06966ZM14.2889 14.4148L11.2154 14.4142L11.1886 14.441V17.5338H14.2889V20.5017H17.4079V17.5338H20.502L20.5017 14.4148H17.4079V11.3145H20.5015L20.5012 8.19552H17.4341L17.4079 8.22169V11.3145L14.3157 11.3139L14.2889 11.3407V14.4148Z" fill="white"/>
<path d="M5.42475 2.59328C5.5569 2.19964 5.84651 2 6.28233 2C6.67598 2 6.9431 2.19682 7.07526 2.59047L7.66573 4.24099C7.70475 4.36452 7.77216 4.47718 7.86256 4.56996C7.93961 4.69347 8.05674 4.78677 8.19434 4.83427L9.90953 5.36007C10.3032 5.49223 10.5 5.75372 10.5 6.15299C10.5 6.59163 10.3032 6.87562 9.90953 7.00778L8.19434 7.53639C8.07078 7.57532 7.95809 7.64273 7.86537 7.73321C7.78257 7.85511 7.71638 7.98749 7.66854 8.12686L7.07526 9.77738C6.9431 10.171 6.67879 10.3678 6.28233 10.3678C5.8437 10.3678 5.5569 10.171 5.42756 9.77738L4.83427 8.12968C4.78644 7.9903 4.72025 7.85792 4.63745 7.73603C4.54747 7.64605 4.44062 7.57857 4.30566 7.53639L2.59047 7.00778C2.19682 6.87562 2 6.59163 2 6.15299C2 5.75653 2.19682 5.49223 2.59047 5.36007L4.30566 4.83427C4.44222 4.78621 4.55828 4.69297 4.63463 4.56996C4.72503 4.47718 4.79244 4.36452 4.83146 4.24099L5.42475 2.59328Z" fill="white"/>
</svg>
