<svg width="24" height="24" viewBox="0 0 24 24" fill="none" xmlns="http://www.w3.org/2000/svg">
<path d="M5.19571 15.8417C4.93296 15.8268 4.67462 15.7676 4.43163 15.6665C4.18992 15.5593 3.96813 15.4118 3.77565 15.2305C3.40626 14.8716 3.1809 14.3901 3.14202 13.8766C3.10807 13.3689 3.25533 12.8657 3.55761 12.4565C3.24777 11.966 2.97073 11.4555 2.7283 10.9283C2.51716 10.4413 2.3488 9.93688 2.22513 9.42068C1.94839 8.48888 1.92695 7.51422 2.1599 6.49483C2.39714 5.47901 2.91127 4.54881 3.64519 3.80752C4.10074 3.34605 4.62349 2.95618 5.19571 2.65115C5.70832 2.36801 6.27213 2.18968 6.85432 2.12655C7.45731 2.07023 8.0655 2.12969 8.64617 2.30173C9.24252 2.47597 9.83981 2.7816 10.4371 3.21862L11.5944 4.20167C11.9552 4.50738 11.9972 4.55339 12.4123 4.20167L13.5696 3.21862C14.166 2.7816 14.7642 2.47597 15.3606 2.30173C15.9337 2.1305 16.5344 2.07103 17.13 2.12655C17.7124 2.18525 18.2724 2.3595 18.811 2.65115C19.3833 2.95645 19.9061 3.34664 20.3615 3.80845C21.0939 4.54718 21.6013 5.47883 21.8245 6.49483C22.0723 7.51329 22.0574 8.48888 21.7816 9.42068C21.6791 9.85863 21.5337 10.3022 21.3446 10.7532C21.1554 11.2042 20.9299 11.6561 20.6672 12.1071C21.3753 12.6327 22.1069 13.3831 21.9118 14.3251C21.7408 14.8928 21.4324 15.4014 20.8537 15.6237C20.8975 15.7541 21 15.8995 21.0289 16.0598C21.0578 16.22 21.0727 16.3878 21.0727 16.5629C21.0397 16.7804 20.9809 16.9931 20.8975 17.1966C20.8108 17.3997 20.6794 17.5963 20.5043 17.7855C20.33 17.9597 20.1409 18.106 19.9368 18.2225C19.7476 18.325 19.5436 18.3902 19.3255 18.4182C19.223 18.4331 19.1215 18.4405 19.0199 18.4405L18.7143 18.3967C18.6776 18.5015 18.6337 18.6036 18.5829 18.7024C18.5391 18.8049 18.4804 18.9073 18.4077 19.008C18.2046 19.3145 17.9567 19.5251 17.6651 19.6416C17.3893 19.7581 17.1339 19.8233 16.901 19.8382C16.5161 19.8864 16.1258 19.81 15.7875 19.6202C15.5018 19.4571 15.2376 19.2589 15.0011 19.0303C14.9573 19.1328 14.8986 19.2344 14.8268 19.336C14.7532 19.4385 14.674 19.5317 14.5864 19.6202L12.9483 21.2583C12.5262 21.6804 12.0165 21.8919 11.4201 21.8919C11.1389 21.8949 10.86 21.8402 10.6007 21.7313C10.3414 21.6223 10.1072 21.4613 9.91249 21.2583C9.7264 21.0733 9.57157 20.8593 9.45404 20.6247C9.35462 20.3886 9.29541 20.1376 9.27886 19.882C9.01611 19.8671 8.75778 19.8079 8.51479 19.7068C8.26961 19.5965 8.04739 19.4409 7.85973 19.2484C7.6755 19.0666 7.52723 18.8516 7.42272 18.6148C7.322 18.3717 7.26309 18.1134 7.24847 17.8507C6.98663 17.8507 6.73132 17.8004 6.48439 17.6979C6.23653 17.5814 6.01849 17.4286 5.8284 17.2394C5.63338 17.0622 5.47727 16.8465 5.36996 16.6058C5.26923 16.3627 5.21032 16.1044 5.19571 15.8417ZM4.64968 4.79057C4.08778 5.34755 3.69412 6.05154 3.51381 6.82189C3.33863 7.59342 3.35354 8.32209 3.55761 9.00603L3.57904 9.04983V9.09362C3.66663 9.45703 3.79056 9.83627 3.95083 10.2295C4.12507 10.6078 4.32914 11.001 4.56209 11.4082L5.43612 10.5351C5.62897 10.33 5.86272 10.1676 6.12226 10.0585C6.3818 9.94932 6.66134 9.89585 6.94284 9.90149C7.53919 9.90149 8.04889 10.113 8.47099 10.5351C8.66015 10.7243 8.80644 10.9423 8.90894 11.1902C9.00957 11.4231 9.06734 11.6701 9.08318 11.9328C9.34409 11.9328 9.5994 11.9906 9.84726 12.1071C10.0942 12.2096 10.3132 12.3549 10.5023 12.5441C10.6915 12.7481 10.8378 12.9727 10.9393 13.2206C11.0558 13.4535 11.121 13.6939 11.135 13.9418C11.3829 13.9567 11.6307 14.0145 11.8786 14.116C12.1255 14.2185 12.351 14.3713 12.5551 14.5754C12.7442 14.7646 12.8905 14.9826 12.9921 15.2305C13.0946 15.4634 13.1524 15.7038 13.1663 15.9507C13.4291 15.9657 13.6835 16.0234 13.9304 16.1259C14.1783 16.2284 14.3963 16.3803 14.5864 16.5844C14.6153 16.6133 14.6442 16.6496 14.674 16.6934C14.7133 16.7169 14.7402 16.781 14.783 16.781L16.0055 18.0482C16.1518 18.2076 16.2897 18.3166 16.4211 18.3744C16.5516 18.4331 16.668 18.4554 16.7705 18.4405C16.8764 18.4463 16.9819 18.4238 17.0762 18.3753C17.1523 18.3401 17.2193 18.2878 17.2718 18.2225C17.3455 18.12 17.3818 18.0333 17.3818 17.9597C17.3831 17.8864 17.3756 17.8132 17.3594 17.7417C17.3593 17.7112 17.352 17.6812 17.338 17.6541C17.3264 17.634 17.3191 17.6118 17.3166 17.5889L17.2942 17.5674L12.5989 12.6317C12.4716 12.4952 12.4016 12.3151 12.4032 12.1285C12.411 11.9403 12.4884 11.7617 12.6203 11.6272C12.687 11.564 12.7663 11.5157 12.8531 11.4855C12.9398 11.4553 13.032 11.4439 13.1235 11.452C13.3126 11.452 13.4794 11.5247 13.6257 11.6701L18.3639 16.672C18.4077 16.7158 18.3937 16.6859 18.4077 16.7158C18.5625 16.8561 18.7977 16.9702 18.9975 17.0205C19.1986 17.0205 19.333 16.9788 19.4784 16.8248C19.7792 16.5581 19.6154 16.1537 19.347 15.9309L19.2165 15.8004L14.6078 11.3231C14.4786 11.1955 14.4009 11.0246 14.3898 10.8433C14.3898 10.6383 14.4625 10.4715 14.6078 10.3401C14.6671 10.2707 14.7409 10.2153 14.824 10.1776C14.9071 10.1399 14.9974 10.1209 15.0886 10.1221C15.2778 10.1221 15.4455 10.1873 15.5909 10.3187L20.0244 14.6422L20.1805 14.7152C20.5566 14.7152 20.793 14.3462 20.5114 13.99C20.404 13.8541 20.3042 13.733 20.1882 13.6191L15.5581 8.94081C15.3505 8.72711 15.0684 8.60191 14.7707 8.59138C14.624 8.58249 14.477 8.60297 14.3382 8.65161C14.1995 8.70025 14.0719 8.77608 13.9629 8.87465L12.4561 10.2071C12.1207 10.4988 11.7284 10.659 11.2765 10.6879C10.8438 10.7179 10.4135 10.6025 10.0539 10.3599C9.81777 10.2011 9.62052 9.991 9.47692 9.74526C9.33332 9.49953 9.24708 9.22454 9.22464 8.94081C9.19037 8.65447 9.22163 8.36408 9.31606 8.09159C9.4105 7.81911 9.56563 7.57165 9.76975 7.36793L9.98872 7.14989C10.2752 6.84413 10.7106 6.87556 10.9932 7.12752C11.1237 7.25891 11.1889 7.4257 11.1889 7.6307C11.1889 7.81985 11.1237 7.98012 10.9932 8.11057L10.7742 8.35098C10.7122 8.40908 10.6643 8.48059 10.6341 8.56004C10.6039 8.63949 10.5922 8.72478 10.6 8.80942C10.6074 8.88896 10.6329 8.96575 10.6746 9.0339C10.7163 9.10206 10.773 9.15978 10.8404 9.20264C10.9569 9.27532 11.0733 9.31166 11.1898 9.31166C11.3133 9.30047 11.429 9.24641 11.5169 9.15885L13.045 7.82637C13.5316 7.39741 14.1678 7.17775 14.8154 7.21511C15.4994 7.23002 16.0734 7.47695 16.5393 7.95776L19.6412 11.0812C19.8304 10.7317 19.9907 10.3963 20.1221 10.0757C20.2525 9.74122 20.355 9.41416 20.4277 9.09362V9.04983L20.4491 9.00603C20.6532 8.32209 20.6606 7.59342 20.4715 6.82189C20.3051 6.05095 19.9179 5.34512 19.357 4.79057C18.9638 4.39828 18.5641 4.09917 18.156 3.89604C17.7627 3.67707 17.377 3.55314 16.9987 3.52425C16.5876 3.4832 16.1725 3.52019 15.7752 3.63327C15.3531 3.74975 14.9086 3.97617 14.4427 4.31069L13.3302 5.27138C12.4988 5.98145 11.5314 5.98695 10.6766 5.27138L9.56306 4.31069C9.09716 3.97524 8.64617 3.74975 8.20916 3.63327C7.81958 3.51974 7.41171 3.48271 7.00806 3.52425C6.62975 3.55314 6.23653 3.67707 5.8284 3.89604C5.43612 4.09917 5.0429 4.39828 4.64968 4.79057ZM6.70243 15.3171C6.61537 15.4615 6.57715 15.6301 6.59341 15.7979C6.6078 15.9722 6.68533 16.1352 6.81145 16.2564C6.94191 16.3728 7.09565 16.439 7.2699 16.453C7.43772 16.4693 7.60632 16.431 7.75071 16.344C7.76182 16.3201 7.77659 16.2981 7.7945 16.2787C7.82283 16.2648 7.84576 16.2418 7.85973 16.2135L9.51927 14.5754C9.5304 14.5515 9.54517 14.5295 9.56306 14.5102L9.60686 14.4655C9.70669 14.3264 9.75301 14.156 9.73731 13.9856C9.73163 13.9019 9.70944 13.8203 9.67201 13.7453C9.63459 13.6702 9.58267 13.6034 9.51927 13.5486C9.39813 13.4224 9.2351 13.3449 9.06082 13.3305C8.89331 13.3145 8.72507 13.3527 8.58094 13.4395C8.55465 13.4651 8.53263 13.4946 8.51572 13.5271L8.47099 13.57L6.81239 15.2305C6.79654 15.2444 6.78257 15.2593 6.76766 15.2743C6.74825 15.2918 6.72625 15.3063 6.70243 15.3171ZM7.57553 12.4565C7.66272 12.3125 7.70127 12.1442 7.68548 11.9766C7.67107 11.8019 7.59318 11.6385 7.46651 11.5172C7.39873 11.4471 7.31729 11.3915 7.22723 11.354C7.13717 11.3165 7.04039 11.2979 6.94284 11.2992C6.84513 11.2977 6.74817 11.3163 6.65794 11.3539C6.56771 11.3914 6.48613 11.447 6.41823 11.5172L4.7587 13.1777C4.68854 13.2455 4.633 13.3269 4.5955 13.417C4.558 13.507 4.53933 13.6038 4.54065 13.7014C4.54065 13.9054 4.61334 14.0797 4.7587 14.226C4.87983 14.3521 5.04286 14.4296 5.21714 14.444C5.38496 14.4603 5.55356 14.4221 5.69795 14.335L5.76318 14.2698C5.77709 14.2414 5.80003 14.2185 5.8284 14.2045L7.46651 12.5441L7.5103 12.5003C7.53417 12.4891 7.55617 12.4744 7.57553 12.4565ZM8.84278 18.2663C8.96685 18.3918 9.13132 18.4695 9.30712 18.4855C9.48293 18.5016 9.65873 18.4549 9.80347 18.3539L9.84726 18.3091C9.86425 18.277 9.88627 18.2477 9.91249 18.2225L11.5506 16.5844C11.5744 16.5732 11.5964 16.5584 11.6158 16.5406L11.6596 16.4968C11.7465 16.3527 11.7847 16.1844 11.7686 16.0169C11.7545 15.8423 11.6769 15.6789 11.5506 15.5575C11.4925 15.4925 11.422 15.4398 11.3433 15.4024C11.2646 15.3649 11.1792 15.3435 11.0921 15.3395C10.9214 15.3236 10.7506 15.3699 10.6113 15.4699L10.5461 15.5352C10.5315 15.55 10.5169 15.5649 10.5023 15.5799L8.84278 17.2394C8.81348 17.2685 8.78428 17.2977 8.75519 17.327C8.65536 17.4661 8.60904 17.6364 8.62474 17.8069C8.65269 17.9821 8.7263 18.1349 8.84278 18.2663ZM10.8089 19.336C10.7082 19.4751 10.6613 19.6458 10.6766 19.8168C10.6911 19.9912 10.769 20.1543 10.8955 20.2752C10.9633 20.3454 11.0448 20.4009 11.1348 20.4384C11.2249 20.4759 11.3217 20.4946 11.4192 20.4933C11.5169 20.4947 11.6139 20.4761 11.7041 20.4386C11.7943 20.4011 11.8759 20.3455 11.9438 20.2752L13.6034 18.6157C13.6738 18.5479 13.7296 18.4663 13.7672 18.3761C13.8049 18.2859 13.8237 18.1889 13.8223 18.0911C13.8235 17.9935 13.8047 17.8966 13.7671 17.8066C13.7294 17.7165 13.6737 17.6351 13.6034 17.5674C13.4824 17.4409 13.3193 17.363 13.1449 17.3484C12.9741 17.3325 12.8034 17.3788 12.6641 17.4789L12.5989 17.5451C12.5843 17.5597 12.5697 17.5743 12.5551 17.5889L10.8517 19.2922C10.8372 19.3068 10.8235 19.3214 10.8089 19.336Z" fill="white"/>
</svg>
