<svg width="24" height="24" viewBox="0 0 24 24" fill="none" xmlns="http://www.w3.org/2000/svg">
<path d="M18.1394 3.44695H6.58242C5.91942 3.44695 5.34842 3.68795 4.86742 4.16895C4.64142 4.38795 4.46242 4.65195 4.34242 4.94295C4.22242 5.23395 4.16242 5.54695 4.16742 5.86195V12.837C4.16742 13.236 3.84442 13.559 3.44542 13.559C3.04642 13.559 2.72342 13.236 2.72342 12.837V5.86195C2.72342 4.79295 3.09942 3.88295 3.85242 3.13095C4.60542 2.37895 5.51542 2.00195 6.58342 2.00195H18.1404C19.2094 2.00195 20.1194 2.37795 20.8714 3.13095C21.6234 3.88395 22.0004 4.79395 22.0004 5.86195V17.419C22.0004 18.488 21.6244 19.398 20.8714 20.15C20.1184 20.902 19.2084 21.279 18.1404 21.279H11.1654C10.7664 21.279 10.4434 20.956 10.4434 20.557C10.4434 20.158 10.7664 19.835 11.1654 19.835H18.1404C18.8034 19.835 19.3664 19.602 19.8334 19.135C20.3154 18.653 20.5554 18.082 20.5554 17.42V16.043L20.5324 16.021L20.5104 15.998L17.0564 12.545C16.9474 12.434 16.8174 12.347 16.6744 12.289C16.5314 12.231 16.3764 12.202 16.2214 12.206C15.8904 12.206 15.6054 12.319 15.3644 12.544L14.8894 13.019L16.7404 15.005C16.8754 15.155 16.9364 15.329 16.9204 15.525C16.9214 15.619 16.9014 15.712 16.8624 15.798C16.8234 15.884 16.7664 15.96 16.6944 16.021C16.6264 16.088 16.5444 16.141 16.4554 16.176C16.3664 16.211 16.2704 16.227 16.1744 16.223C16.0794 16.216 15.9864 16.191 15.9014 16.149C15.8164 16.107 15.7404 16.048 15.6784 15.976L10.8704 10.807C10.7564 10.682 10.6164 10.584 10.4604 10.517C10.3044 10.45 10.1364 10.418 9.96742 10.422C9.62042 10.422 9.32742 10.558 9.08742 10.828L7.12242 13.085C7.06042 13.157 6.98442 13.216 6.89942 13.259C6.81442 13.302 6.72142 13.327 6.62642 13.334C6.43742 13.336 6.25342 13.272 6.10642 13.153C6.03442 13.091 5.97542 13.015 5.93342 12.93C5.89142 12.845 5.86542 12.752 5.85942 12.657C5.85142 12.562 5.86342 12.467 5.89442 12.377C5.92542 12.287 5.97542 12.205 6.04042 12.136L8.00442 9.87895C8.24242 9.59595 8.53942 9.36795 8.87442 9.21195C9.20942 9.05595 9.57542 8.97495 9.94442 8.97495C10.7414 8.96095 11.4044 9.24695 11.9314 9.83295L13.9174 11.955L14.3464 11.526C14.5864 11.278 14.8744 11.083 15.1924 10.951C15.5104 10.819 15.8524 10.754 16.1974 10.759C16.9354 10.759 17.5664 11.015 18.0944 11.527L20.5544 13.988V5.86095C20.5544 5.19795 20.3134 4.63495 19.8324 4.16795C19.3654 3.68595 18.8014 3.44695 18.1394 3.44695Z" fill="white"/>
<path d="M5.89242 14.826C5.80342 14.791 5.70742 14.775 5.61142 14.779C5.41842 14.777 5.23342 14.85 5.09242 14.981C5.02542 15.049 4.97242 15.131 4.93742 15.22C4.90242 15.309 4.88642 15.405 4.89042 15.501V17.668H2.72342C2.53042 17.667 2.34442 17.739 2.20342 17.871C2.13642 17.939 2.08342 18.02 2.04842 18.109C2.01342 18.198 1.99742 18.293 2.00042 18.389C1.99842 18.582 2.07142 18.768 2.20242 18.909C2.34342 19.041 2.52942 19.114 2.72242 19.112H4.88942V21.279C4.88742 21.371 4.90442 21.463 4.93942 21.548C4.97442 21.633 5.02642 21.711 5.09142 21.775C5.15742 21.846 5.23842 21.903 5.32742 21.942C5.41642 21.981 5.51342 22.001 5.61042 22.001C5.70842 22.004 5.80542 21.985 5.89542 21.946C5.98542 21.907 6.06542 21.848 6.13042 21.775C6.26542 21.64 6.33242 21.475 6.33242 21.278V19.111H8.49942C8.59542 19.115 8.69042 19.098 8.78042 19.064C8.87042 19.03 8.95142 18.977 9.01942 18.909C9.15442 18.759 9.22142 18.585 9.22142 18.39C9.22142 18.179 9.15442 18.006 9.01942 17.87C8.95142 17.803 8.86942 17.75 8.78042 17.715C8.69142 17.68 8.59542 17.664 8.49942 17.668H6.33242V15.501C6.33242 15.29 6.26542 15.117 6.13042 14.981C6.06242 14.913 5.98042 14.861 5.89142 14.826H5.89242Z" fill="white"/>
</svg>
