<svg width="24" height="24" viewBox="0 0 24 24" fill="none" xmlns="http://www.w3.org/2000/svg">
<path d="M5.69922 4C5.69922 2.89543 6.59465 2 7.69922 2H16.3011C17.4057 2 18.3011 2.89543 18.3011 4V20C18.3011 21.1046 17.4057 22 16.3011 22H7.69922C6.59465 22 5.69922 21.1046 5.69922 20V4ZM7.69922 3.5C7.42308 3.5 7.19922 3.72386 7.19922 4V16.25H16.8011V4C16.8011 3.72386 16.5772 3.5 16.3011 3.5H7.69922ZM7.19922 17.75V20C7.19922 20.2761 7.42308 20.5 7.69922 20.5H16.3011C16.5772 20.5 16.8011 20.2761 16.8011 20V17.75H7.19922Z" fill="white"/>
<path d="M12.7624 13.0527C13.6518 12.8616 14.2204 12.2701 14.2204 11.368C14.2204 10.192 13.3004 9.87203 12.4364 9.61603C11.6764 9.39203 11.4764 9.25603 11.4764 9.00803C11.4764 8.80803 11.6444 8.64003 11.9964 8.64003C12.1307 8.64003 12.2519 8.66256 12.3605 8.70761C12.3888 8.71935 12.4175 8.73143 12.4464 8.74361C12.8047 8.89453 13.2084 9.06452 13.5355 8.87264C13.8376 8.69544 13.9645 8.30717 13.7382 8.03994C13.4776 7.73217 13.1453 7.5156 12.7624 7.39442V6.90393C12.7624 6.48972 12.4266 6.15393 12.0124 6.15393C11.5982 6.15393 11.2624 6.48972 11.2624 6.90393V7.39154C10.5428 7.62627 10.0444 8.21634 10.0444 9.01603C10.0444 10.064 10.8284 10.512 11.7084 10.768L11.7554 10.7812C12.4366 10.9724 12.7884 11.0712 12.7884 11.384C12.7884 11.576 12.6364 11.76 12.1324 11.76C11.9019 11.76 11.7079 11.7153 11.5456 11.6291C11.1625 11.4259 10.6955 11.2097 10.3207 11.4277C10.0216 11.6017 9.87777 11.9756 10.0849 12.2529C10.3523 12.6109 10.7467 12.8806 11.2624 13.0181V13.6608C11.2624 14.075 11.5982 14.4108 12.0124 14.4108C12.4266 14.4108 12.7624 14.075 12.7624 13.6608V13.0527Z" fill="white"/>
<path d="M11.0001 18.4578C10.5859 18.4578 10.2501 18.7936 10.2501 19.2078C10.2501 19.622 10.5859 19.9578 11.0001 19.9578H13.0001C13.4143 19.9578 13.7501 19.622 13.7501 19.2078C13.7501 18.7936 13.4143 18.4578 13.0001 18.4578H11.0001Z" fill="white"/>
</svg>
