<svg width="24" height="24" viewBox="0 0 24 24" fill="none" xmlns="http://www.w3.org/2000/svg">
<path d="M2.75003 13.4707H4.72003C4.81582 13.4728 4.91004 13.4553 4.99879 13.4192C5.08754 13.383 5.16794 13.3291 5.23503 13.2607C5.37503 13.1037 5.44503 12.9237 5.44503 12.7207C5.44503 12.5177 5.37503 12.3457 5.23503 12.2047C5.09403 12.0487 4.91503 11.9707 4.69503 11.9707H2.75003C2.6488 11.9707 2.54865 11.9915 2.45577 12.0317C2.36288 12.072 2.27925 12.1308 2.21003 12.2047C2.07003 12.3457 2.00003 12.5177 2.00003 12.7207C1.9983 12.921 2.07347 13.1142 2.21003 13.2607C2.3565 13.3973 2.54978 13.4724 2.75003 13.4707Z" fill="white"/>
<path d="M4.09876 20.2943C4.01023 20.2564 3.93029 20.2009 3.86376 20.1313V20.1303C3.72376 19.9903 3.65376 19.8183 3.65376 19.6153C3.65032 19.5158 3.66726 19.4167 3.70355 19.324C3.73984 19.2313 3.79469 19.147 3.86476 19.0763L5.24676 17.6933C5.31031 17.6188 5.3895 17.5592 5.47867 17.5188C5.56785 17.4783 5.66484 17.458 5.76276 17.4593C5.86418 17.4563 5.96502 17.4756 6.05815 17.5159C6.15129 17.5561 6.23445 17.6164 6.30176 17.6923C6.378 17.7596 6.43848 17.8429 6.47893 17.9362C6.51937 18.0295 6.53877 18.1306 6.53576 18.2323C6.53695 18.3302 6.51661 18.4272 6.47617 18.5163C6.43573 18.6055 6.37619 18.6847 6.30176 18.7483L4.91876 20.1303C4.85857 20.2068 4.77718 20.2638 4.68476 20.2943C4.49423 20.3556 4.28928 20.3556 4.09876 20.2943Z" fill="white"/>
<path d="M11.4602 5.23405C11.3202 5.09405 11.2502 4.92205 11.2502 4.71905V2.75005C11.2481 2.65425 11.2656 2.55904 11.3017 2.47029C11.3378 2.38154 11.3918 2.30114 11.4602 2.23405C11.5294 2.16023 11.6131 2.10139 11.7059 2.06114C11.7988 2.0209 11.899 2.0001 12.0002 2.00005C12.0981 1.99886 12.195 2.0192 12.2842 2.05963C12.3734 2.10007 12.4526 2.15961 12.5162 2.23405C12.5907 2.29761 12.6502 2.37679 12.6907 2.46597C12.7311 2.55515 12.7514 2.65214 12.7502 2.75005V4.71905C12.7514 4.81696 12.7311 4.91395 12.6907 5.00313C12.6502 5.09231 12.5907 5.17149 12.5162 5.23505C12.3752 5.37505 12.2032 5.44505 12.0002 5.44505C11.7972 5.44505 11.6172 5.37505 11.4602 5.23405Z" fill="white"/>
<path d="M5.8324 7.93604C5.7544 7.88804 5.6764 7.82604 5.5984 7.74804H5.5964L4.2134 6.36504C4.0734 6.22504 4.0034 6.05304 4.0034 5.85004C3.99982 5.7504 4.0167 5.65107 4.05299 5.5582C4.08928 5.46533 4.14421 5.38087 4.2144 5.31004C4.28137 5.24176 4.36161 5.1879 4.45018 5.15178C4.53875 5.11567 4.63377 5.09806 4.7294 5.10004C4.82888 5.09661 4.92801 5.11355 5.02071 5.14984C5.1134 5.18613 5.19769 5.24098 5.2684 5.31104L6.6524 6.69304C6.72851 6.76026 6.78892 6.84337 6.82935 6.93651C6.86979 7.02966 6.88926 7.13054 6.8864 7.23204C6.88759 7.32995 6.86725 7.42691 6.82682 7.51608C6.78638 7.60525 6.72683 7.68444 6.6524 7.74804C6.58909 7.82708 6.50921 7.89125 6.4184 7.93604C6.22786 7.99725 6.02294 7.99725 5.8324 7.93604Z" fill="white"/>
<path d="M21.25 13.4707H19.28C19.1842 13.4728 19.09 13.4553 19.0012 13.4192C18.9125 13.383 18.8321 13.3291 18.765 13.2607C18.625 13.1037 18.555 12.9237 18.555 12.7207C18.555 12.5177 18.625 12.3457 18.765 12.2047C18.906 12.0487 19.085 11.9707 19.305 11.9707H21.25C21.3512 11.9707 21.4514 11.9915 21.5442 12.0317C21.6371 12.072 21.7208 12.1308 21.79 12.2047C21.93 12.3457 22 12.5177 22 12.7207C22.0017 12.921 21.9265 13.1142 21.79 13.2607C21.6435 13.3973 21.4502 13.4724 21.25 13.4707Z" fill="white"/>
<path d="M19.9052 20.2943C19.9937 20.2564 20.0736 20.2009 20.1402 20.1313V20.1303C20.2802 19.9903 20.3502 19.8183 20.3502 19.6153C20.3536 19.5158 20.3366 19.4167 20.3004 19.324C20.2641 19.2313 20.2092 19.147 20.1392 19.0763L18.7572 17.6933C18.6936 17.6188 18.6144 17.5592 18.5252 17.5188C18.4361 17.4783 18.3391 17.458 18.2412 17.4593C18.1397 17.4563 18.0389 17.4756 17.9458 17.5159C17.8526 17.5561 17.7695 17.6164 17.7022 17.6923C17.6259 17.7596 17.5654 17.8429 17.525 17.9362C17.4845 18.0295 17.4651 18.1306 17.4682 18.2323C17.467 18.3302 17.4873 18.4272 17.5277 18.5163C17.5682 18.6055 17.6277 18.6847 17.7022 18.7483L19.0852 20.1303C19.1453 20.2068 19.2267 20.2638 19.3192 20.2943C19.5097 20.3556 19.7146 20.3556 19.9052 20.2943Z" fill="white"/>
<path d="M18.1705 7.93604C18.2485 7.88804 18.3265 7.82604 18.4045 7.74804H18.4065L19.7895 6.36504C19.9295 6.22504 19.9995 6.05304 19.9995 5.85004C20.0031 5.7504 19.9862 5.65107 19.9499 5.5582C19.9136 5.46533 19.8587 5.38087 19.7885 5.31004C19.7216 5.24176 19.6413 5.1879 19.5527 5.15178C19.4642 5.11567 19.3692 5.09806 19.2735 5.10004C19.174 5.09661 19.0749 5.11355 18.9822 5.14984C18.8895 5.18613 18.8052 5.24098 18.7345 5.31104L17.3505 6.69304C17.2744 6.76026 17.214 6.84337 17.1736 6.93651C17.1331 7.02966 17.1137 7.13054 17.1165 7.23204C17.1153 7.32995 17.1357 7.42691 17.1761 7.51608C17.2166 7.60525 17.2761 7.68444 17.3505 7.74804C17.4138 7.82708 17.4937 7.89125 17.5845 7.93604C17.7751 7.99725 17.98 7.99725 18.1705 7.93604Z" fill="white"/>
<path d="M9.34166 18.681C9.20065 18.3477 8.97464 18.0569 8.68603 17.8375C8.26451 17.5278 7.89198 17.1569 7.58087 16.7371C7.27656 16.3261 7.02898 15.8762 6.8448 15.3996L6.84392 15.3973C6.67079 14.9129 6.55994 14.4086 6.51395 13.8964L6.51378 13.8945C6.47698 13.3667 6.51397 12.8363 6.62366 12.3186C6.73353 11.8058 6.91175 11.3177 7.15727 10.8527L7.15809 10.8512C7.41017 10.394 7.72576 9.9746 8.09548 9.6053C8.46629 9.23641 8.88767 8.92141 9.34686 8.66988C9.80791 8.41516 10.3042 8.22979 10.8198 8.11977C11.6276 7.9486 12.464 7.96104 13.2663 8.15622C14.0717 8.33146 14.8233 8.69645 15.4579 9.22062C16.0985 9.73444 16.614 10.386 16.9659 11.1265C17.3217 11.8605 17.4999 12.6432 17.5 13.4733C17.5026 14.3055 17.3137 15.1271 16.9479 15.8752C16.5819 16.618 16.0533 17.2699 15.4011 17.7822L15.3999 17.7832C15.0983 18.0124 14.8489 18.3026 14.6679 18.6347C14.4937 18.9581 14.4079 19.2899 14.4079 19.6343V20.7325C14.4079 20.9196 14.3993 21.0625 14.3506 21.1941C14.3013 21.3273 14.2146 21.4394 14.0785 21.5747C13.9455 21.7116 13.7857 21.82 13.609 21.8931C13.4323 21.9662 13.2424 22.0026 13.051 21.9999H11.1354C10.7824 21.9999 10.4536 21.8625 10.1501 21.598C10.0068 21.4732 9.86337 21.3473 9.75834 21.1801C9.65123 21.0096 9.58713 20.802 9.58713 20.5158V19.778C9.58713 19.3836 9.50523 19.0198 9.34363 18.6853L9.34166 18.681ZM13.0588 20.6548V20.0117H10.937C10.937 20.2692 10.937 20.4391 10.937 20.6548C11.0077 20.6644 11.0648 20.6548 11.1354 20.6548L13.0525 20.6549C13.0546 20.6549 13.0588 20.6548 13.0588 20.6548ZM13.5426 17.8552C13.8098 17.4161 14.1548 17.029 14.5608 16.7127L14.5619 16.7118C15.0583 16.3362 15.4574 15.8479 15.7259 15.2875L15.7265 15.2862C16.0066 14.7228 16.1518 14.1025 16.1508 13.4738C16.1508 12.8519 16.0153 12.2596 15.7437 11.6961C15.48 11.1418 15.0933 10.6539 14.6131 10.27C14.2454 9.97008 13.8263 9.73722 13.3769 9.58346L13.3749 9.58276C12.9284 9.41879 12.4562 9.33541 11.9804 9.33658C11.8408 9.33658 11.695 9.34841 11.5426 9.3716L11.5365 9.37253C11.3888 9.3854 11.2423 9.40862 11.098 9.4424L11.096 9.44288C10.3184 9.60726 9.6357 9.97547 9.04502 10.5518C8.47905 11.107 8.09201 11.8176 7.93328 12.5929C7.76691 13.3681 7.82824 14.1755 8.11025 14.9167C8.39303 15.6679 8.85778 16.2834 9.5057 16.7643C9.89117 17.0494 10.201 17.408 10.4365 17.8398C10.6699 18.2463 10.8204 18.6805 10.8885 19.1416H13.0892C13.1582 18.6909 13.3088 18.2626 13.5413 17.8573L13.5426 17.8552Z" fill="white"/>
<path d="M14.3507 14.2515C14.4816 14.3736 14.6544 14.4408 14.8334 14.4392C14.919 14.4411 15.0041 14.4254 15.0835 14.3932C15.1628 14.3609 15.2347 14.3127 15.2946 14.2515C15.3628 14.1913 15.4169 14.1169 15.453 14.0335C15.4892 13.95 15.5065 13.8597 15.5038 13.7688C15.5038 12.7211 15.1337 11.8272 14.3936 11.087C13.6534 10.3469 12.7595 9.97677 11.7118 9.97677C11.6209 9.97407 11.5306 9.99142 11.4471 10.0276C11.3637 10.0637 11.2893 10.1178 11.2291 10.1859C11.1039 10.312 11.0414 10.4657 11.0414 10.6472C11.0398 10.8262 11.107 10.999 11.2291 11.1299C11.2925 11.1925 11.368 11.2414 11.451 11.2737C11.534 11.306 11.6228 11.321 11.7118 11.3177C12.3822 11.3177 12.9543 11.5617 13.4299 12.0507C13.9189 12.5262 14.1629 13.0983 14.1629 13.7688C14.1596 13.8578 14.1746 13.9466 14.2069 14.0296C14.2391 14.1126 14.2881 14.1881 14.3507 14.2515Z" fill="white"/>
</svg>
