<svg width="24" height="24" viewBox="0 0 24 24" fill="none" xmlns="http://www.w3.org/2000/svg">
<path d="M5.99563 3.42353C5.99563 3.03395 6.31145 2.71814 6.70102 2.71814H17.3165C18.8769 2.71814 20.1418 3.98309 20.1418 5.54348V9.85694L20.7942 9.22736C21.0701 8.95152 21.5173 8.95152 21.7931 9.22736C22.069 9.5032 22.069 9.95042 21.7931 10.2263L19.9396 12.057C19.7842 12.2124 19.5745 12.2802 19.3717 12.2606C19.2376 12.2484 19.1144 12.1987 19.0127 12.1221C18.9723 12.0957 18.934 12.0648 18.8985 12.0294L17.0864 10.2263C16.8106 9.95042 16.8106 9.5032 17.0864 9.22736C17.3622 8.95152 17.8095 8.95152 18.0853 9.22736L18.731 9.86411V6.01247C18.731 4.97221 17.8877 4.12891 16.8475 4.12891H6.70102C6.31144 4.12891 5.99563 3.8131 5.99563 3.42353Z" fill="white"/>
<path d="M3.20579 8.61476C2.92995 8.8906 2.48272 8.8906 2.20688 8.61476C1.93104 8.33892 1.93104 7.89169 2.20688 7.61585L4.04375 5.57808C4.29071 5.33112 4.67505 5.30527 4.95077 5.50051C4.99852 5.52942 5.04359 5.56449 5.08482 5.60572L6.93076 7.61585C7.2066 7.89169 7.2066 8.33892 6.93076 8.61476C6.65492 8.8906 6.2077 8.8906 5.93186 8.61476L5.24786 7.76657L5.24786 16.6955C5.24786 17.7357 6.09115 18.579 7.13141 18.579H12.6771C13.0667 18.579 13.3825 18.8948 13.3825 19.2844C13.3825 19.674 13.0667 19.9898 12.6771 19.9898H6.66242C5.10203 19.9898 3.83708 18.7248 3.83708 17.1644L3.83708 7.78257L3.20579 8.61476Z" fill="white"/>
<path d="M17.8593 13.2812C17.8588 13.133 17.7847 13.0341 17.6363 12.9855L17.6355 12.9847L16.9846 12.7833C16.9399 12.7625 16.9015 12.7304 16.8732 12.6902C16.8326 12.6619 16.8002 12.6235 16.7792 12.5787L16.5731 11.9293C16.5226 11.7812 16.4232 11.707 16.2749 11.7076C16.1132 11.7082 16.0088 11.7831 15.9594 11.9323L15.739 12.5833C15.7295 12.6285 15.7029 12.6684 15.6649 12.6946C15.6309 12.7295 15.5936 12.761 15.5534 12.7885L14.904 12.9947C14.7559 13.0452 14.6817 13.1446 14.6823 13.2928C14.6829 13.4538 14.7578 13.559 14.907 13.6084L15.558 13.8288C15.6003 13.8446 15.6384 13.87 15.6693 13.9029C15.7026 13.9338 15.7283 13.972 15.7442 14.0145L15.9694 14.6638C16.0199 14.8119 16.1256 14.886 16.2866 14.8854C16.4348 14.8849 16.5337 14.81 16.5831 14.6608L16.7845 14.0099C16.8118 13.9698 16.843 13.9325 16.8776 13.8985C16.9038 13.8601 16.9437 13.8333 16.9891 13.8236L17.6385 13.5984C17.7866 13.5479 17.8599 13.443 17.8593 13.2812Z" fill="white"/>
<path d="M13.8283 15.163C14.0047 15.2207 14.0927 15.3381 14.0933 15.5143C14.094 15.7064 14.0069 15.831 13.831 15.891L13.0597 16.1585C13.0058 16.17 12.9583 16.2019 12.9272 16.2475C12.8861 16.2878 12.8491 16.3321 12.8166 16.3797L12.5774 17.1529C12.5187 17.3301 12.4013 17.4191 12.2252 17.4197C12.034 17.4204 11.9084 17.3324 11.8485 17.1565L11.581 16.3852C11.562 16.3347 11.5316 16.2893 11.492 16.2527C11.4553 16.2136 11.4101 16.1835 11.3598 16.1647L10.5866 15.9029C10.4093 15.8442 10.3203 15.7192 10.3196 15.5281C10.319 15.3519 10.4071 15.2339 10.583 15.1739L11.3543 14.9291C11.402 14.8963 11.4464 14.8589 11.4867 14.8175C11.532 14.7863 11.5635 14.739 11.5748 14.6853L11.8366 13.9121C11.8953 13.7348 12.0193 13.6458 12.2114 13.6451C12.3875 13.6445 12.5055 13.7326 12.5655 13.9084L12.8104 14.6798C12.8353 14.733 12.8738 14.7786 12.922 14.8122C12.9556 14.86 13.0012 14.8982 13.0542 14.9228L13.8274 15.1621L13.8283 15.163Z" fill="white"/>
<path d="M20.2849 18.9562C20.5341 18.8658 20.6587 18.6817 20.6577 18.402C20.6567 18.1223 20.5307 17.9391 20.2808 17.8515L19.1097 17.4584C19.0265 17.4327 18.9505 17.3878 18.8879 17.3273C18.8293 17.2682 18.7838 17.1959 18.7552 17.1065L18.3535 15.9383C18.264 15.6739 18.0865 15.5418 17.8219 15.5428C17.5422 15.5438 17.359 15.6763 17.2714 15.9422L16.9009 17.1133C16.8752 17.1965 16.8304 17.2725 16.7698 17.3351C16.6973 17.3935 16.6148 17.4384 16.5264 17.4678L15.3808 17.8694C15.1155 17.9589 14.9844 18.144 14.9854 18.4228C14.9864 18.7025 15.1189 18.8856 15.3848 18.9732L16.5333 19.3448C16.6216 19.3736 16.704 19.4179 16.7767 19.4757C16.8351 19.548 16.88 19.6301 16.9095 19.7182L17.2905 20.8865C17.379 21.1518 17.5622 21.283 17.8419 21.2819C18.1065 21.281 18.2831 21.1485 18.3707 20.8826L18.7638 19.7114C18.7926 19.6231 18.837 19.5407 18.8948 19.468C18.9569 19.407 19.0326 19.3616 19.1156 19.3353L20.2839 18.9553L20.2849 18.9562Z" fill="white"/>
</svg>
