<svg width="24" height="24" viewBox="0 0 24 24" fill="none" xmlns="http://www.w3.org/2000/svg">
<path d="M6.52776 2.09846C6.61276 2.0434 6.70976 2.01136 6.80976 2.00235C6.90976 1.99335 7.01177 2.01036 7.10377 2.05041C7.31177 2.11347 7.46276 2.2346 7.55976 2.40978L12.0008 11.0618L16.4418 2.40978C16.5328 2.2376 16.6888 2.10847 16.8738 2.05041C16.9708 2.01036 17.0758 1.99435 17.1798 2.00235C17.2838 2.01036 17.3848 2.0434 17.4738 2.09846C17.5658 2.1435 17.6478 2.20657 17.7148 2.28565C17.7818 2.36473 17.8298 2.45583 17.8578 2.55493C17.8898 2.64903 17.9018 2.74914 17.8938 2.84824C17.8858 2.94734 17.8568 3.04444 17.8098 3.13153L12.8648 12.7436L14.7848 16.5165C15.0088 16.0991 15.3048 15.7307 15.6728 15.4104C16.0418 15.09 16.4648 14.8498 16.9448 14.6896C17.4158 14.5214 17.9148 14.4504 18.4138 14.4794C18.9128 14.5084 19.4008 14.6366 19.8488 14.8578C20.7928 15.3073 21.4328 16.019 21.7688 16.997C22.1208 17.9901 22.0658 18.9511 21.6008 19.881C21.1368 20.81 20.4088 21.4427 19.4158 21.779C18.9498 21.9462 18.4558 22.0203 17.9618 21.9953C17.4678 21.9702 16.9828 21.8481 16.5358 21.6349C15.6068 21.1854 14.9668 20.4807 14.6158 19.5197L11.9988 14.4484L9.38176 19.5187C9.03076 20.4797 8.38176 21.1844 7.43776 21.6329C6.50976 22.0653 5.55776 22.1144 4.57976 21.777C3.58876 21.4407 2.85976 20.808 2.39576 19.878C1.93176 18.9491 1.87576 17.9881 2.22776 16.995C2.56376 16.018 3.20376 15.3053 4.14776 14.8558C4.59576 14.6346 5.08376 14.5064 5.58276 14.4774C6.08176 14.4484 6.58176 14.5204 7.05176 14.6876C7.53176 14.8478 7.95576 15.087 8.32376 15.4084C8.69276 15.7297 8.98876 16.0971 9.21176 16.5135L11.1318 12.7406L6.18676 3.12953C6.13976 3.04144 6.11076 2.94534 6.10276 2.84624C6.09476 2.74713 6.10676 2.64703 6.13876 2.55293C6.16676 2.45383 6.21576 2.36273 6.28176 2.28365C6.34776 2.20457 6.42976 2.1415 6.52276 2.09645L6.52776 2.09846ZM6.57576 16.1311C5.99876 15.9369 5.36876 15.98 4.82476 16.2512C4.55976 16.3734 4.32176 16.5486 4.12476 16.7638C3.92776 16.979 3.77576 17.2323 3.67676 17.5076C3.57776 17.7828 3.53576 18.0752 3.55076 18.3665C3.56676 18.6578 3.63976 18.9441 3.76676 19.2073C4.03876 19.7529 4.47076 20.1293 5.06376 20.3375C5.67076 20.5457 6.25576 20.5137 6.81476 20.2414C7.37476 19.9691 7.75876 19.5437 7.96676 18.9681C8.06276 18.6948 8.10177 18.4045 8.08077 18.1152C8.05977 17.8259 7.98076 17.5436 7.84676 17.2873C7.72776 17.016 7.55276 16.7738 7.33376 16.5746C7.11476 16.3754 6.85576 16.2252 6.57476 16.1331L6.57576 16.1311ZM20.3318 17.5256C20.2348 17.2463 20.0828 16.99 19.8848 16.7708C19.6868 16.5516 19.4468 16.3754 19.1798 16.2502C18.9098 16.1161 18.6158 16.036 18.3158 16.016C18.0158 15.996 17.7138 16.034 17.4278 16.1301C16.8358 16.3383 16.4038 16.7227 16.1308 17.2833C16.0038 17.5466 15.9298 17.8319 15.9148 18.1242C15.8998 18.4165 15.9418 18.7078 16.0398 18.9831C16.1378 19.2584 16.2898 19.5107 16.4868 19.7269C16.6838 19.9431 16.9218 20.1173 17.1868 20.2394C17.7468 20.5117 18.3318 20.5437 18.9388 20.3355C19.5318 20.1273 19.9558 19.7509 20.2118 19.2053C20.4828 18.6447 20.5228 18.0852 20.3318 17.5236V17.5256Z" fill="white"/>
</svg>
