<svg width="24" height="24" viewBox="0 0 24 24" fill="none" xmlns="http://www.w3.org/2000/svg">
<path d="M17.5167 5.42609C17.9697 5.86309 18.1967 6.38609 18.1967 6.99609V9.01209C18.1967 9.62109 17.9697 10.1521 17.5167 10.6061C17.0797 11.0431 16.5567 11.2621 15.9467 11.2621H10.9307C10.6347 11.2645 10.3411 11.2078 10.0674 11.0951C9.79365 10.9825 9.5452 10.8162 9.33666 10.6061C8.89966 10.1521 8.68066 9.62209 8.68066 9.01209V6.99609C8.68066 6.38609 8.89966 5.86309 9.33666 5.42609C9.79066 4.97309 10.3207 4.74609 10.9307 4.74609H15.9467C16.5567 4.74609 17.0797 4.97309 17.5167 5.42609ZM16.4617 6.48109C16.3217 6.32409 16.1497 6.24609 15.9467 6.24609L10.9317 6.24709C10.8304 6.24728 10.7302 6.26822 10.6373 6.30864C10.5444 6.34906 10.4608 6.4081 10.3917 6.48209C10.2517 6.62209 10.1817 6.79409 10.1817 6.99709V9.01109C10.1799 9.21134 10.2551 9.40462 10.3917 9.55109C10.5379 9.68742 10.7308 9.76256 10.9307 9.76109H15.9467C16.0423 9.76308 16.1373 9.74547 16.2259 9.70935C16.3145 9.67324 16.3947 9.61938 16.4617 9.55109C16.5356 9.48208 16.5946 9.39864 16.635 9.30594C16.6754 9.21323 16.6964 9.11323 16.6967 9.01209V6.99609C16.6967 6.79309 16.6187 6.62109 16.4617 6.48109Z" fill="white"/>
<path d="M15.9471 12.7617C16.5571 12.7617 17.0801 12.9807 17.5171 13.4177C17.9701 13.8557 18.1971 14.3867 18.1971 15.0117V17.0037C18.1971 17.6287 17.9701 18.1597 17.5171 18.5977C17.0801 19.0347 16.5571 19.2537 15.9471 19.2537L4.25035 19.2538C3.64035 19.2538 3.11035 19.0348 2.65635 18.5978C2.44392 18.391 2.27612 18.1429 2.16329 17.8687C2.05047 17.5946 1.99501 17.3002 2.00035 17.0038V15.0118C2.00035 14.3868 2.21935 13.8558 2.65635 13.4178C2.86489 13.2077 3.11334 13.0414 3.38708 12.9288C3.66083 12.8161 3.95434 12.7593 4.25035 12.7618L15.9471 12.7617ZM16.6971 15.0117C16.6999 14.91 16.6804 14.8088 16.6398 14.7155C16.5992 14.6222 16.5385 14.5389 16.4621 14.4717C16.3951 14.4034 16.3148 14.3496 16.2263 14.3135C16.1377 14.2773 16.0427 14.2597 15.9471 14.2617L4.25035 14.2618C4.05045 14.2603 3.85757 14.3355 3.71135 14.4718C3.64135 14.5427 3.5866 14.6272 3.55048 14.7201C3.51437 14.8129 3.49765 14.9122 3.50135 15.0118V17.0038C3.50135 17.2068 3.57135 17.3868 3.71135 17.5438C3.86735 17.6838 4.04735 17.7538 4.25135 17.7538L15.9471 17.7537C16.1501 17.7537 16.3221 17.6837 16.4621 17.5437C16.5361 17.4746 16.5951 17.3909 16.6355 17.2981C16.6759 17.2052 16.6969 17.105 16.6971 17.0037V15.0117Z" fill="white"/>
<path d="M20.9539 2.05779C21.0473 2.01701 21.1484 1.99738 21.2502 2.00028C21.348 1.99935 21.4448 2.021 21.5338 2.06177C21.6228 2.10253 21.7018 2.16242 21.7652 2.2372C21.8397 2.3008 21.8994 2.38009 21.94 2.46944C21.9806 2.55878 22.0011 2.656 22.0002 2.75421V21.251C22 21.3527 21.979 21.4532 21.9386 21.5465C21.8982 21.6397 21.8392 21.7236 21.7652 21.7931C21.6252 21.9336 21.4531 22.0039 21.2502 22.0039C21.0312 22.0039 20.8512 21.9336 20.7102 21.7931C20.5702 21.6365 20.5002 21.4558 20.5002 21.252V2.7532C20.4982 2.6572 20.5158 2.56181 20.5519 2.4729C20.588 2.38398 20.6419 2.30343 20.7102 2.2362C20.7774 2.15948 20.8606 2.09856 20.9539 2.05779Z" fill="white"/>
</svg>
