<svg width="24" height="24" viewBox="0 0 24 24" fill="none" xmlns="http://www.w3.org/2000/svg">
<path d="M22.0001 11.9992C22.0081 10.6622 21.7361 9.33817 21.2041 8.11217C20.7071 6.92217 19.9841 5.84017 19.0731 4.92717C18.1601 4.01617 17.0791 3.29217 15.8891 2.79617C14.6631 2.26317 13.3381 1.99217 12.0011 2.00017C10.6641 1.99317 9.34013 2.26417 8.11413 2.79617C6.92413 3.29317 5.84212 4.01717 4.92913 4.92717C4.01813 5.84017 3.29413 6.92217 2.79813 8.11117C2.26513 9.33717 1.99413 10.6622 2.00213 11.9992C1.99513 13.3362 2.26613 14.6602 2.79813 15.8862C3.29513 17.0762 4.01912 18.1582 4.92913 19.0712C5.84212 19.9822 6.92412 20.7062 8.11312 21.2022C9.34013 21.7352 10.6641 22.0062 12.0011 21.9982C13.3381 22.0052 14.6621 21.7342 15.8881 21.2022C17.0781 20.7052 18.1601 19.9822 19.0731 19.0712C19.9841 18.1582 20.7081 17.0772 21.2041 15.8872C21.7371 14.6602 22.0081 13.3362 22.0001 11.9992ZM20.5011 11.9992C20.5081 13.1352 20.2771 14.2602 19.8221 15.3012C19.3951 16.3162 18.7751 17.2382 17.9961 18.0172C17.2241 18.7872 16.3091 19.4002 15.3031 19.8212C14.2621 20.2762 13.1371 20.5082 12.0011 20.5002C10.8651 20.5072 9.74013 20.2762 8.69913 19.8212C7.68813 19.3962 6.76713 18.7852 5.98312 18.0172C5.21613 17.2342 4.60413 16.3122 4.17913 15.3012C3.72413 14.2602 3.49213 13.1352 3.50013 11.9992C3.50013 10.8282 3.72713 9.72817 4.17913 8.69717C4.60013 7.69117 5.21212 6.77617 5.98312 6.00417C6.76113 5.22517 7.68413 4.60517 8.69913 4.17817C9.74013 3.72317 10.8651 3.49117 12.0011 3.49917C13.1721 3.49917 14.2721 3.72617 15.3031 4.17817C16.3131 4.60217 17.2291 5.22317 17.9961 6.00417C18.7781 6.77117 19.3991 7.68717 19.8221 8.69717C20.2771 9.73817 20.5091 10.8632 20.5011 11.9992Z" fill="white"/>
<path d="M14.2482 13.9059C14.2162 13.9849 14.1692 14.0569 14.1082 14.1169C14.0482 14.1779 13.9762 14.2259 13.8962 14.2579L8.72018 15.9669C8.50218 16.0469 8.31518 16.0069 8.15818 15.8509C8.00118 15.6949 7.96318 15.5069 8.04118 15.2879L9.75118 10.1119C9.78318 10.0329 9.83018 9.96187 9.89118 9.90187C9.95118 9.84087 10.0232 9.79287 10.1032 9.76087L15.2792 8.05187C15.4972 7.97187 15.6842 8.01187 15.8412 8.16787C15.9982 8.32387 16.0362 8.51187 15.9582 8.73087L14.2482 13.9059ZM11.1342 11.0019C11.0992 11.0199 11.0672 11.0439 11.0402 11.0719C11.0212 11.0929 11.0052 11.1159 10.9932 11.1419L10.1972 13.5779C10.1812 13.6119 10.1752 13.6499 10.1792 13.6869C10.1832 13.7239 10.1982 13.7599 10.2212 13.7889C10.2502 13.8119 10.2862 13.8259 10.3222 13.8299C10.3582 13.8339 10.3962 13.8279 10.4302 13.8129L12.8662 13.0169C12.8922 13.0049 12.9152 12.9889 12.9362 12.9699C12.9642 12.9429 12.9882 12.9109 13.0062 12.8759L13.8032 10.4409C13.8332 10.3629 13.8182 10.3009 13.7562 10.2529C13.7092 10.1909 13.6462 10.1749 13.5682 10.2059L11.1342 11.0019Z" fill="white"/>
</svg>
