<svg width="24" height="24" viewBox="0 0 24 24" fill="none" xmlns="http://www.w3.org/2000/svg">
<path d="M6.00502 20.5015H17.995C18.322 20.5065 18.646 20.4455 18.949 20.3205C19.252 20.1955 19.524 20.0095 19.752 19.7755C20.252 19.2755 20.501 18.6835 20.501 17.9955V10.7595C20.501 10.3455 20.837 10.0105 21.25 10.0105C21.663 10.0105 21.999 10.3465 21.999 10.7595V17.9955C21.999 19.1035 21.608 20.0485 20.828 20.8295C20.048 21.6105 19.103 22.0005 17.994 22.0005H6.00402C4.89602 22.0005 3.95102 21.6095 3.17002 20.8295C2.38902 20.0495 1.99902 19.1045 1.99902 17.9955V6.00549C1.99902 4.89749 2.39002 3.95249 3.17002 3.17149C3.95002 2.39049 4.89502 2.00049 6.00402 2.00049H13.24C13.654 2.00049 13.989 2.33649 13.989 2.74949C13.989 3.16249 13.653 3.49849 13.24 3.49849H6.00402C5.31702 3.49849 4.72402 3.74849 4.22402 4.24749C3.73902 4.73249 3.49802 5.31649 3.49802 6.00449V14.4355L6.05102 11.8825C6.59802 11.3515 7.24502 11.0865 7.99402 11.0865C8.75902 11.0865 9.40702 11.3525 9.93802 11.8825L10.383 12.3275L12.443 10.1265C12.99 9.51749 13.669 9.22149 14.48 9.23649C15.308 9.25249 15.988 9.56449 16.517 10.1735L18.554 12.5145C18.622 12.5865 18.673 12.6715 18.706 12.7645C18.739 12.8575 18.751 12.9565 18.742 13.0545C18.735 13.1525 18.709 13.2495 18.665 13.3375C18.621 13.4255 18.56 13.5045 18.485 13.5695C18.333 13.6935 18.142 13.7595 17.945 13.7575C17.846 13.7505 17.75 13.7245 17.662 13.6795C17.574 13.6345 17.495 13.5735 17.43 13.4995L15.392 11.1575C15.142 10.8765 14.83 10.7355 14.456 10.7355C14.097 10.7355 13.792 10.8685 13.543 11.1345L8.55502 16.4975C8.48702 16.5735 8.40402 16.6365 8.31202 16.6805C8.22002 16.7245 8.11902 16.7495 8.01702 16.7545C7.81402 16.7545 7.64102 16.6845 7.50102 16.5445C7.42602 16.4795 7.36502 16.4015 7.32102 16.3125C7.27702 16.2235 7.25102 16.1285 7.24402 16.0295C7.24202 15.8295 7.31702 15.6365 7.45402 15.4895L9.37402 13.4295L8.88102 12.9365C8.63102 12.7025 8.33502 12.5855 7.99202 12.5855C7.64902 12.5855 7.35902 12.7025 7.12602 12.9375L3.49602 16.5665V17.9955C3.49202 18.3255 3.55402 18.6535 3.67902 18.9585C3.80402 19.2635 3.98902 19.5415 4.22202 19.7745C4.45502 20.0085 4.73302 20.1935 5.03802 20.3175C5.34302 20.4415 5.67102 20.5045 6.00102 20.5005L6.00502 20.5015Z" fill="white"/>
<path d="M19.236 2.18849C19.189 2.06349 19.103 2.00049 18.978 2.00049C18.869 2.00049 18.798 2.06349 18.768 2.18849L18.228 3.92149C18.208 3.97449 18.176 4.02249 18.135 4.06149C18.094 4.09149 18.045 4.10849 17.994 4.10949H16.237C16.127 4.10949 16.05 4.17149 16.003 4.29649C15.972 4.40649 16.003 4.49949 16.097 4.57749L17.502 5.63149C17.544 5.67049 17.576 5.71849 17.596 5.77149C17.612 5.82549 17.612 5.88249 17.596 5.93649L17.056 7.66949C17.026 7.77949 17.056 7.87249 17.15 7.95049C17.244 8.02849 17.338 8.02849 17.432 7.95049L18.837 6.87349C18.878 6.84449 18.927 6.82749 18.977 6.82649C19.04 6.82649 19.095 6.84249 19.141 6.87349L20.547 7.95049C20.64 8.02849 20.734 8.02849 20.827 7.95049C20.937 7.87249 20.969 7.77849 20.922 7.67049L20.382 5.93649C20.366 5.88249 20.366 5.82649 20.382 5.77249C20.402 5.71849 20.434 5.67049 20.476 5.63149L21.882 4.57749C21.975 4.49949 22.007 4.40549 21.975 4.29749C21.945 4.17149 21.866 4.10949 21.741 4.10949H20.008C19.95 4.11049 19.893 4.09449 19.844 4.06249C19.815 4.01949 19.791 3.97249 19.774 3.92249L19.234 2.18849H19.236Z" fill="white"/>
</svg>
