<svg width="24" height="24" viewBox="0 0 24 24" fill="none" xmlns="http://www.w3.org/2000/svg">
<path d="M14.4752 3.26927C14.0741 3.37245 13.8325 3.78129 13.9357 4.18245C14.0389 4.58361 14.4477 4.82517 14.8489 4.72199L19.6913 3.47654C20.0924 3.37336 20.334 2.96452 20.2308 2.56336C20.1276 2.16221 19.7188 1.92064 19.3176 2.02382L14.4752 3.26927Z" fill="white"/>
<path d="M12.5798 4.71951L12.2774 5.7208C13.0542 6.42549 13.4873 7.45786 13.4213 8.52785L13.5107 8.55486C14.0394 8.71452 14.3386 9.27256 14.1789 9.80126L10.7097 21.2888C10.55 21.8175 9.99197 22.1167 9.46327 21.957L2.76219 19.9333C2.23349 19.7736 1.93432 19.2156 2.09399 18.6869L5.56323 7.19933C5.7229 6.67063 6.28093 6.37147 6.80963 6.53114L6.89906 6.55815C7.43634 5.63048 8.3685 5.01042 9.40549 4.85349L9.70788 3.8522C9.86755 3.3235 10.4256 3.02434 10.9543 3.184L11.9116 3.47311C12.4403 3.63277 12.7394 4.19081 12.5798 4.71951ZM10.6652 4.1413L10.4499 4.85409C10.613 4.87894 10.7763 4.91563 10.9388 4.96471C11.1013 5.01379 11.2576 5.07362 11.4072 5.14319L11.6225 4.4304L10.6652 4.1413ZM10.5056 16.7762L11.5111 13.4466L9.58697 12.8655L8.58143 16.1951L10.5056 16.7762ZM11.9448 12.0106L12.5984 9.84625L6.85462 8.11163L3.67449 18.6419L9.41828 20.3765L10.0719 18.2121L7.66912 17.4865C7.14042 17.3268 6.84126 16.7688 7.00093 16.2401L8.29557 11.9532C8.45524 11.4245 9.01327 11.1253 9.54197 11.285L11.9448 12.0106ZM10.5052 6.40066C9.72254 6.16431 8.90778 6.43065 8.4077 7.01376L11.9126 8.07224C11.8189 7.30981 11.2878 6.63701 10.5052 6.40066Z" fill="white"/>
<path d="M15.1991 5.60114C14.7848 5.60114 14.4491 5.93692 14.4491 6.35114C14.4491 6.76535 14.7848 7.10114 15.1991 7.10114H21.1991C21.6133 7.10114 21.9491 6.76535 21.9491 6.35114C21.9491 5.93692 21.6133 5.60114 21.1991 5.60114H15.1991Z" fill="white"/>
</svg>
