<svg width="24" height="24" viewBox="0 0 24 24" fill="none" xmlns="http://www.w3.org/2000/svg">
<path d="M6.75 22H10.6247C11.0347 22 11.3747 21.66 11.3747 21.25C11.3747 20.84 11.0347 20.5 10.6247 20.5H6.75C4.96 20.5 3.5 19.04 3.5 17.25V6.75C3.5 4.96 4.96 3.5 6.75 3.5H17.25C19.04 3.5 20.5 4.96 20.5 6.75L20.5 10.25C20.5 10.66 20.84 11 21.25 11C21.66 11 22 10.66 22 10.25L22 6.75C22 4.13 19.87 2 17.25 2H6.75C4.13 2 2 4.13 2 6.75V17.25C2 19.87 4.13 22 6.75 22Z" fill="white"/>
<path d="M6 7.01288C6 6.20157 6.93816 5.72063 7.63228 6.17611L11.0415 8.41323C11.6528 8.81438 11.6528 9.68562 11.0415 10.0868L7.63228 12.3239C6.93816 12.7794 6 12.2984 6 11.4871V7.01288Z" fill="white"/>
<path d="M18.5665 15.8045C18.4888 16.0357 18.3188 16.153 18.0628 16.153C17.8316 16.153 17.6748 16.0374 17.5972 15.8062L17.2504 14.8369C17.2275 14.7643 17.1879 14.6982 17.1348 14.6437C17.0895 14.5712 17.0208 14.5164 16.9399 14.4885L15.9327 14.1797C15.7015 14.1021 15.5859 13.9485 15.5859 13.714C15.5859 13.4564 15.7015 13.2896 15.9327 13.212L16.9399 12.9016C17.0125 12.8787 17.0787 12.8391 17.1331 12.786C17.1818 12.7144 17.2206 12.6367 17.2487 12.5548L17.5972 11.5855C17.6748 11.3543 17.83 11.2387 18.0628 11.2387C18.3204 11.2387 18.4888 11.3543 18.5648 11.5855L18.9132 12.5532C18.9413 12.635 18.9802 12.7128 19.0288 12.7843C19.0817 12.8372 19.1444 12.8768 19.2237 12.9016L20.231 13.212C20.4621 13.2896 20.5777 13.4564 20.5777 13.714C20.5777 13.9468 20.4621 14.1021 20.231 14.1797L19.2237 14.4885C19.1435 14.5167 19.0753 14.5715 19.0305 14.6437C18.9774 14.6982 18.9378 14.7643 18.9149 14.8369L18.5665 15.8045Z" fill="white"/>
<path d="M14.0393 19.4888C13.9617 19.72 13.7917 19.8373 13.5357 19.8373C13.3045 19.8373 13.1477 19.7217 13.07 19.4905L12.7233 18.5212C12.7004 18.4486 12.6608 18.3825 12.6077 18.328C12.5624 18.2555 12.4936 18.2007 12.4128 18.1728L11.4055 17.864C11.1744 17.7864 11.0588 17.6328 11.0588 17.3983C11.0588 17.1407 11.1744 16.9739 11.4055 16.8963L12.4128 16.5859C12.4854 16.563 12.5516 16.5234 12.606 16.4703C12.6547 16.3987 12.6935 16.321 12.7216 16.2391L13.07 15.2698C13.1477 15.0386 13.3029 14.923 13.5357 14.923C13.7933 14.923 13.9617 15.0386 14.0377 15.2698L14.3861 16.2375C14.4142 16.3193 14.4531 16.3971 14.5017 16.4686C14.5545 16.5215 14.6173 16.5611 14.6966 16.5859L15.7038 16.8963C15.935 16.9739 16.0506 17.1407 16.0506 17.3983C16.0506 17.6311 15.935 17.7864 15.7038 17.864L14.6966 18.1728C14.6164 18.201 14.5482 18.2558 14.5034 18.328C14.4503 18.3825 14.4107 18.4486 14.3878 18.5212L14.0393 19.4888Z" fill="white"/>
<path d="M19.9887 21.6516C19.9111 21.8828 19.7411 22 19.4851 22C19.2539 22 19.0971 21.8844 19.0194 21.6532L18.6727 20.6839C18.6498 20.6114 18.6102 20.5452 18.5571 20.4907C18.5118 20.4182 18.443 20.3634 18.3622 20.3355L17.3549 20.0267C17.1238 19.9491 17.0082 19.7955 17.0082 19.5611C17.0082 19.3035 17.1238 19.1367 17.3549 19.0591L18.3622 18.7486C18.4348 18.7258 18.501 18.6862 18.5554 18.633C18.6041 18.5615 18.6429 18.4837 18.671 18.4019L19.0194 17.4326C19.0971 17.2014 19.2523 17.0858 19.4851 17.0858C19.7427 17.0858 19.9111 17.2014 19.9871 17.4326L20.3355 18.4002C20.3636 18.4821 20.4025 18.5598 20.4511 18.6314C20.504 18.6842 20.5667 18.7239 20.646 18.7486L21.6532 19.0591C21.8844 19.1367 22 19.3035 22 19.5611C22 19.7939 21.8844 19.9491 21.6532 20.0267L20.646 20.3355C20.5658 20.3637 20.4976 20.4185 20.4528 20.4907C20.3997 20.5452 20.3601 20.6114 20.3372 20.6839L19.9887 21.6516Z" fill="white"/>
</svg>
