<svg width="24" height="24" viewBox="0 0 24 24" fill="none" xmlns="http://www.w3.org/2000/svg">
<path d="M8.5 11C9.32843 11 10 10.2165 10 9.25C10 8.2835 9.32843 7.5 8.5 7.5C7.67157 7.5 7 8.2835 7 9.25C7 10.2165 7.67157 11 8.5 11Z" fill="white"/>
<path d="M15.5 11C16.3284 11 17 10.2165 17 9.25C17 8.2835 16.3284 7.5 15.5 7.5C14.6716 7.5 14 8.2835 14 9.25C14 10.2165 14.6716 11 15.5 11Z" fill="white"/>
<path d="M14.8067 17.4627C15.1223 17.7173 15.5794 17.7647 15.8945 17.5094C16.2246 17.242 16.2702 16.7496 15.95 16.4704C13.7463 14.5489 10.2584 14.5805 8.05252 16.5015C7.73134 16.7812 7.77634 17.2749 8.10728 17.543C8.42159 17.7976 8.87739 17.7517 9.19196 17.4974C10.79 16.2056 13.2083 16.1736 14.8067 17.4627Z" fill="white"/>
<path d="M12 20.5C7.30558 20.5 3.5 16.6944 3.5 12C3.5 7.30558 7.30558 3.5 12 3.5C16.6944 3.5 20.5 7.30558 20.5 12C20.5 16.6944 16.6944 20.5 12 20.5ZM12 22C17.5228 22 22 17.5228 22 12C22 6.47715 17.5228 2 12 2C6.47715 2 2 6.47715 2 12C2 17.5228 6.47715 22 12 22Z" fill="white"/>
</svg>
