<svg width="24" height="24" viewBox="0 0 24 24" fill="none" xmlns="http://www.w3.org/2000/svg">
<path d="M2.00049 7.90343C2.00049 8.70218 2.2796 9.38625 2.83578 9.95765C3.10473 10.2276 3.42545 10.4408 3.77763 10.5839C4.12981 10.727 4.50838 10.799 4.89 10.7929C5.26755 10.8 5.64307 10.729 5.99221 10.5859C6.34135 10.4428 6.65801 10.2286 6.92189 9.95765C7.49329 9.38625 7.7795 8.70218 7.7795 7.90445C7.7795 7.10671 7.49329 6.42874 6.92189 5.87256C6.66105 5.5965 6.34642 5.37727 5.99627 5.22909C5.64612 5.08091 5.26958 5.00885 4.89 5.01494C4.09226 5.01494 3.4082 5.30014 2.83578 5.87256C2.56479 6.13644 2.35166 6.4531 2.20754 6.80223C2.06342 7.15137 1.99339 7.52588 2.00049 7.90343Z" fill="white"/>
<path d="M21.2771 7.18182C21.4729 7.18182 21.6384 7.25692 21.7734 7.40713C21.9246 7.54212 21.9997 7.70857 21.9997 7.90445C22.0027 8.00188 21.9834 8.09932 21.9439 8.18964C21.9043 8.27997 21.8464 8.35914 21.7734 8.42409C21.7084 8.49006 21.6313 8.54183 21.546 8.57633C21.4608 8.61084 21.3694 8.62809 21.2771 8.62607C19.7415 8.62607 18.4941 8.88995 17.531 9.41568C16.582 9.92822 15.837 10.5372 15.2961 11.2456C14.7592 11.9297 14.3603 12.7112 14.1218 13.5475C13.9107 14.3452 13.8062 15.0374 13.8062 15.624C13.8062 15.7214 13.7859 15.8179 13.7473 15.9072C13.7087 15.9965 13.6519 16.0767 13.5808 16.1437C13.5159 16.2096 13.4388 16.2614 13.3535 16.2959C13.2682 16.3304 13.1759 16.3477 13.0845 16.3456C12.8917 16.3477 12.706 16.2746 12.5649 16.1437C12.433 16.0026 12.3609 15.8168 12.3629 15.624C12.3629 14.195 12.0544 13.0288 11.4383 12.1255C10.8202 11.208 10.0753 10.4935 9.20345 9.98201C9.12327 9.93228 9.05324 9.86631 8.99945 9.78816C8.94566 9.71001 8.90709 9.62273 8.88781 9.53037C8.86446 9.43902 8.8604 9.34362 8.87563 9.25025C8.89085 9.15687 8.92536 9.06857 8.97712 8.98941C9.02076 8.90619 9.08267 8.83311 9.15575 8.77424C9.22882 8.71538 9.31509 8.67377 9.40643 8.65042C9.59927 8.60475 9.80226 8.63723 9.97074 8.74075C10.6172 9.14368 11.209 9.62983 11.7316 10.185C12.303 10.7615 12.7689 11.4344 13.1089 12.1712C13.2287 11.8708 13.3718 11.5694 13.5372 11.2689C13.7179 10.9533 13.9219 10.6509 14.1472 10.3657C14.4933 9.91503 14.8921 9.49282 15.3438 9.10207C15.8309 8.71233 16.3607 8.37944 16.923 8.10947C17.5502 7.80905 18.2089 7.5817 18.8879 7.43149C19.6105 7.26707 20.4073 7.18385 21.2801 7.18385L21.2771 7.18182Z" fill="white"/>
<path d="M21.2192 17.9908C21.2588 18.0761 21.2781 18.1695 21.2771 18.2638C21.2771 18.3613 21.2568 18.4577 21.2182 18.547C21.1796 18.6363 21.1228 18.7165 21.0507 18.7835C20.9157 18.9185 20.7503 18.9855 20.5544 18.9855H2.72312C2.52622 18.9855 2.35369 18.9185 2.20348 18.7835C2.06849 18.6323 2.00151 18.4597 2.00151 18.2638C1.99948 18.1715 2.01673 18.0801 2.05124 17.9949C2.08575 17.9096 2.13751 17.8325 2.20348 17.7675C2.27046 17.6965 2.35064 17.6397 2.43996 17.6011C2.52927 17.5625 2.62569 17.5422 2.72312 17.5412H20.5554C20.6498 17.5402 20.7432 17.5605 20.8285 17.5991C20.9137 17.6376 20.9898 17.6955 21.0507 17.7675C21.1228 17.8284 21.1796 17.9046 21.2192 17.9898V17.9908Z" fill="white"/>
</svg>
