<svg width="24" height="24" viewBox="0 0 24 24" fill="none" xmlns="http://www.w3.org/2000/svg">
<path d="M5.26493 2.80504C5.80601 2.62333 6.37653 2.67815 6.93689 2.93803C7.949 3.40906 8.49718 4.25265 8.69615 5.25359C8.88802 6.22002 8.76112 7.33973 8.4718 8.47569C7.92667 10.6166 6.743 13.0469 5.53801 15.1341C5.69231 15.3168 5.85271 15.465 6.01919 15.5807C6.52372 15.932 6.9511 16.067 7.31554 16.0863C7.67998 16.1056 8.03529 16.0132 8.39973 15.8173C9.16008 15.4092 9.86662 14.6113 10.5874 13.7068C10.4574 13.4672 10.3498 13.2286 10.2757 13.0053C9.86764 11.7891 9.64735 9.93548 9.86256 8.52137C9.96611 7.83716 10.1955 7.09203 10.7153 6.63521C10.9965 6.38853 11.3487 6.23829 11.7538 6.23017C12.1436 6.22306 12.5324 6.34691 12.909 6.554C13.6592 6.96615 14.0917 7.58641 14.247 8.31225C14.3952 9.00458 14.2825 9.74158 14.0683 10.4258C13.6988 11.6044 12.9669 12.8145 12.302 13.7494C12.4451 13.9159 12.5954 14.059 12.7436 14.1656C13.0024 14.3524 13.1628 14.3656 13.241 14.3483C13.4004 14.3138 13.5983 14.1971 13.8318 13.9332C14.0633 13.6712 14.2876 13.3109 14.5059 12.8825C14.7982 12.3069 15.0327 11.7089 15.2551 11.1445C15.3759 10.8369 15.4926 10.5385 15.6134 10.2593C15.7444 9.95578 16.0712 9.78524 16.3951 9.85224C16.7189 9.91924 16.9514 10.2045 16.9514 10.5354C16.9514 11.0674 17.0011 11.8704 17.1412 12.5444C17.2123 12.8845 17.2986 13.1525 17.3899 13.3281C17.4021 13.3515 17.4133 13.3708 17.4234 13.388C17.4965 13.3109 17.5899 13.1799 17.6945 12.9799C17.9432 12.5079 18.1503 11.8673 18.3229 11.2998C18.5289 10.6197 18.9309 9.9842 19.4497 9.53551C19.9654 9.08884 20.6648 8.77516 21.4282 8.91525C21.8069 8.98428 22.0576 9.3477 21.9886 9.72737C21.9195 10.107 21.5561 10.3578 21.1764 10.2877C20.9582 10.2481 20.6719 10.3223 20.3623 10.5913C20.0557 10.8572 19.7918 11.2623 19.6578 11.7059C19.4893 12.2622 19.2487 13.0246 18.9289 13.6306C18.7705 13.9311 18.5665 14.2468 18.2985 14.4803C18.0173 14.726 17.6102 14.9189 17.126 14.8123C16.6143 14.6996 16.3169 14.2905 16.1525 13.9738C16.0388 13.7555 15.9494 13.5078 15.8784 13.254C15.8367 13.3423 15.7931 13.4296 15.7505 13.5149C15.5078 13.993 15.2205 14.4702 14.8774 14.858C14.5363 15.2437 14.0968 15.5899 13.5415 15.7117C12.9141 15.8498 12.3456 15.599 11.9274 15.2975C11.7548 15.1727 11.5924 15.0295 11.4411 14.8742C10.7813 15.6833 9.99149 16.5492 9.06059 17.0476C8.51952 17.338 7.91042 17.5166 7.24144 17.4801C6.57245 17.4436 5.89941 17.1969 5.22331 16.7269C5.07206 16.6213 4.92993 16.5045 4.79492 16.3776C4.25283 17.2527 3.72596 18.0405 3.2661 18.6851C3.04276 18.9988 2.60625 19.0719 2.29257 18.8475C1.97888 18.6232 1.90579 18.1877 2.13014 17.875C2.65091 17.1451 3.2661 16.2172 3.89042 15.1838C3.33817 14.1951 2.99302 12.9586 2.81232 11.6897C2.60625 10.241 2.60726 8.69293 2.80014 7.30826C2.98998 5.9439 3.37675 4.65465 4.00716 3.79177C4.32795 3.35322 4.74213 2.98269 5.26696 2.80606L5.26493 2.80504ZM4.7401 13.7088C5.76033 11.8592 6.67803 9.86239 7.11962 8.13155C7.3866 7.08493 7.46173 6.19971 7.32773 5.52667C7.20083 4.88814 6.89426 4.45771 6.34912 4.20392C6.06285 4.07094 5.86184 4.07703 5.70957 4.1288C5.54207 4.18565 5.34209 4.32676 5.13195 4.61506C4.70051 5.20486 4.35739 6.22611 4.17974 7.50013C4.00513 8.75485 4.00411 10.173 4.19192 11.4927C4.30765 12.3069 4.4924 13.0621 4.7401 13.7098V13.7088ZM11.5416 12.3861C12.033 11.6328 12.4898 10.7923 12.7354 10.0096C12.9131 9.44211 12.9588 8.96905 12.8816 8.60563C12.8106 8.2757 12.6319 7.99552 12.236 7.77828C11.9995 7.64834 11.8533 7.62499 11.7792 7.62702C11.7213 7.62803 11.6817 7.64326 11.636 7.68387C11.501 7.80264 11.3335 8.12444 11.2411 8.73252C11.0726 9.83802 11.232 11.3536 11.5426 12.3871L11.5416 12.3861Z" fill="white"/>
<path d="M2 20.6039C2 20.2182 2.31267 19.9065 2.69741 19.9065H21.3001C21.6859 19.9065 21.9975 20.2192 21.9975 20.6039C21.9975 20.9887 21.6848 21.3013 21.3001 21.3013H2.69741C2.31165 21.3013 2 20.9887 2 20.6039Z" fill="white"/>
</svg>
