<svg width="24" height="24" viewBox="0 0 24 24" fill="none" xmlns="http://www.w3.org/2000/svg">
<path d="M2.00391 6.005C2.00391 4.896 2.39391 3.952 3.17491 3.171C3.95591 2.39 4.90091 2 6.00891 2V6.005H2.00391ZM10.0139 6.005H6.00891V10.01H2.00391V13.991H6.00891V17.996H2.00391C2.00391 19.105 2.39391 20.049 3.17491 20.83C3.95591 21.611 4.90091 22.001 6.00891 22.001V17.996H10.0139V22.001H13.9949V17.996H17.9999V22.001C19.1089 22.001 20.0529 21.611 20.8339 20.83C21.6149 20.049 22.0049 19.104 22.0049 17.996H17.9999V13.991H22.0049V10.01H17.9999V6.005H22.0049C22.0049 4.896 21.6149 3.952 20.8339 3.171C20.0529 2.39 19.1079 2 17.9999 2V6.005H13.9949V2H10.0139V6.005ZM10.0139 10.01V6.005H13.9949V10.01H10.0139ZM10.0139 13.99H6.00891V10.009H10.0139V13.99ZM13.9939 13.99V10.009H17.9989V13.99H13.9939ZM13.9939 13.99V17.995H10.0129V13.99H13.9939Z" fill="white"/>
</svg>
