<svg width="24" height="24" viewBox="0 0 24 24" fill="none" xmlns="http://www.w3.org/2000/svg">
<path d="M2.00099 12C1.99399 13.337 2.26499 14.661 2.79699 15.887C3.29399 17.077 4.01799 18.159 4.92799 19.0721C5.84099 19.983 6.92299 20.707 8.11199 21.203C9.33899 21.736 10.663 22.007 12 21.9991C12.687 21.9991 13.359 21.9291 14.014 21.788C15.291 21.5161 16.507 21.008 17.597 20.289C18.658 19.572 19.572 18.6571 20.29 17.5961C21.009 16.5051 21.517 15.29 21.789 14.013C21.929 13.357 21.999 12.685 21.999 11.999C22.007 10.662 21.736 9.33805 21.204 8.11205C20.707 6.92205 19.983 5.84005 19.073 4.92705C18.16 4.01605 17.078 3.29205 15.889 2.79605C14.662 2.26305 13.338 1.99205 12.001 2.00005C10.664 1.99305 9.33999 2.26405 8.11399 2.79605C6.92399 3.29305 5.84199 4.01705 4.92899 4.92705C4.01799 5.84005 3.29499 6.92205 2.79799 8.11105C2.26499 9.33705 1.99399 10.662 2.00199 11.999L2.00099 12ZM17.996 17.9951L6.00599 6.00505C6.77299 5.22305 7.68899 4.60205 8.69899 4.17905C9.73999 3.72405 10.865 3.49205 12.001 3.50005C13.172 3.50005 14.272 3.72705 15.303 4.17905C16.313 4.60305 17.229 5.22405 17.996 6.00505C18.778 6.77205 19.399 7.68805 19.822 8.69805C20.277 9.73905 20.508 10.864 20.501 12C20.508 13.136 20.277 14.261 19.822 15.302C19.398 16.312 18.777 17.2281 17.996 17.9951ZM10.993 16.754H7.24599V13.007C7.24199 12.907 7.25899 12.8081 7.29599 12.715C7.33299 12.622 7.38699 12.538 7.45699 12.467C7.60299 12.331 7.79599 12.255 7.99699 12.257C8.09599 12.253 8.19499 12.27 8.28699 12.306C8.37899 12.342 8.46299 12.397 8.53399 12.466C8.67399 12.607 8.74499 12.787 8.74499 13.006V14.177L9.96299 12.958C10.109 12.8221 10.302 12.747 10.502 12.748C10.705 12.748 10.885 12.818 11.042 12.958C11.182 13.115 11.252 13.295 11.252 13.498C11.252 13.701 11.182 13.8811 11.042 14.038L9.82299 15.255H10.994C11.093 15.251 11.193 15.268 11.285 15.304C11.377 15.34 11.462 15.3951 11.533 15.465C11.673 15.606 11.743 15.786 11.743 16.005C11.743 16.208 11.673 16.3881 11.533 16.5441C11.462 16.614 11.378 16.669 11.285 16.705C11.192 16.741 11.093 16.759 10.994 16.755L10.993 16.754Z" fill="white"/>
<path d="M12.712 7.30305C12.805 7.26205 12.906 7.24305 13.008 7.24605H16.755V10.9931C16.758 11.0951 16.738 11.196 16.698 11.289C16.658 11.382 16.597 11.465 16.52 11.533C16.38 11.673 16.208 11.743 16.005 11.743C15.786 11.743 15.606 11.673 15.465 11.533C15.325 11.392 15.255 11.2121 15.255 10.9931V9.82205L14.038 11.0411C13.881 11.1811 13.701 11.251 13.498 11.251C13.295 11.251 13.115 11.1811 12.958 11.0411C12.818 10.8841 12.748 10.7041 12.748 10.5011C12.746 10.3011 12.822 10.1091 12.958 9.96205L14.177 8.74405H13.006C12.787 8.74405 12.607 8.67405 12.466 8.53405C12.326 8.39305 12.256 8.21305 12.256 7.99405C12.254 7.89805 12.272 7.80305 12.308 7.71505C12.344 7.62705 12.398 7.54605 12.466 7.47905C12.533 7.40305 12.616 7.34205 12.71 7.30105L12.712 7.30305Z" fill="white"/>
</svg>
