<svg width="24" height="24" viewBox="0 0 24 24" fill="none" xmlns="http://www.w3.org/2000/svg">
<path d="M6.005 1.99902H17.995C19.104 1.99902 20.048 2.38902 20.829 3.17002C21.61 3.95102 22 4.89602 22 6.00402V17.994C22 19.103 21.61 20.047 20.829 20.828C20.048 21.609 19.103 21.999 17.995 21.999H6.005C4.896 21.999 3.952 21.609 3.171 20.828C2.39 20.047 2 19.102 2 17.994V6.00402C2 4.89502 2.39 3.95102 3.171 3.17002C3.952 2.38902 4.897 1.99902 6.005 1.99902ZM17.995 3.49802H6.005C5.318 3.49802 4.725 3.74802 4.225 4.24702C3.99 4.47502 3.805 4.74802 3.68 5.05002C3.555 5.35202 3.493 5.67702 3.499 6.00402V14.364L7.481 10.078C8.027 9.48402 8.698 9.18902 9.494 9.18902C10.29 9.18902 10.962 9.48502 11.508 10.078L13.616 12.326L14.06 11.881C14.309 11.624 14.607 11.421 14.938 11.284C15.269 11.147 15.623 11.079 15.981 11.085C16.746 11.085 17.402 11.351 17.949 11.881L20.501 14.434V6.00302C20.501 5.31602 20.251 4.73102 19.752 4.24602C19.267 3.74602 18.683 3.49702 17.995 3.49702V3.49802ZM20.501 16.565L20.477 16.542L20.454 16.518L16.871 12.936C16.758 12.821 16.623 12.731 16.474 12.67C16.325 12.609 16.165 12.58 16.004 12.584C15.66 12.584 15.364 12.701 15.115 12.935L14.622 13.428L16.542 15.488C16.682 15.644 16.745 15.824 16.729 16.028C16.73 16.126 16.71 16.222 16.669 16.311C16.628 16.4 16.569 16.479 16.495 16.542C16.424 16.612 16.34 16.667 16.247 16.703C16.154 16.739 16.055 16.756 15.956 16.752C15.857 16.745 15.761 16.719 15.673 16.675C15.585 16.631 15.506 16.57 15.441 16.495L10.406 11.085C10.293 10.955 10.152 10.852 9.994 10.783C9.836 10.714 9.665 10.681 9.492 10.687C9.132 10.687 8.828 10.82 8.579 11.086L3.545 16.496C3.545 16.512 3.537 16.527 3.522 16.543L3.498 16.566V17.995C3.498 18.682 3.74 19.275 4.224 19.775C4.724 20.26 5.316 20.501 6.004 20.501H17.994C18.681 20.501 19.266 20.259 19.751 19.775C20.251 19.275 20.5 18.683 20.5 17.995V16.566L20.501 16.565Z" fill="white"/>
</svg>
