<svg width="24" height="24" viewBox="0 0 24 24" fill="none" xmlns="http://www.w3.org/2000/svg">
<path fill-rule="evenodd" clip-rule="evenodd" d="M2 5C2 3.34315 3.34315 2 5 2H19C20.6569 2 22 3.34315 22 5V19C22 20.6569 20.6569 22 19 22H5C3.34315 22 2 20.6569 2 19V5ZM3.5 5.5C3.5 4.39543 4.39543 3.5 5.5 3.5H12.6504V8.04199H3.5V5.5ZM3.5 9.54199H12.6504V20.5H5.5C4.39543 20.5 3.5 19.6046 3.5 18.5V9.54199ZM14.1504 20.5H18.5C19.6046 20.5 20.5 19.6046 20.5 18.5V15.3101H14.1504V20.5ZM14.1504 13.8101V3.5H18.5C19.6046 3.5 20.5 4.39543 20.5 5.5V13.8101H14.1504Z" fill="white"/>
</svg>
