<svg width="24" height="24" viewBox="0 0 24 24" fill="none" xmlns="http://www.w3.org/2000/svg">
<path fill-rule="evenodd" clip-rule="evenodd" d="M3.45453 11.237C4.01465 12.5921 4.81899 13.7474 5.67649 14.6752C4.62563 16.0291 4 17.7295 4 19.5761C4 20.1824 4.06744 20.7729 4.19524 21.3406C4.26544 21.6525 4.55042 21.8618 4.87006 21.8618C5.37467 21.8618 5.72588 21.3547 5.62676 20.8599C5.54362 20.4449 5.5 20.0156 5.5 19.5761C5.5 15.9863 8.41015 13.0761 12 13.0761C15.5899 13.0761 18.5 15.9863 18.5 19.5761C18.5 20.0156 18.4564 20.4449 18.3732 20.8599C18.2741 21.3547 18.6253 21.8618 19.1299 21.8618C19.4496 21.8618 19.7346 21.6525 19.8048 21.3406C19.9326 20.7729 20 20.1824 20 19.5761C20 17.9333 19.5048 16.4061 18.6556 15.1357C19.6762 14.1408 20.669 12.8263 21.326 11.237C22.4976 8.40263 22.2676 7.03531 19.6329 5.94627C16.9982 4.85723 15.6125 5.63593 14.4689 8.40264C14.0046 9.52584 13.756 10.6703 13.6573 11.748C13.1226 11.6354 12.5682 11.5761 12 11.5761C11.6996 11.5761 11.4031 11.5927 11.1113 11.6249C11.0053 10.5834 10.7583 9.48317 10.3117 8.40264C8.60931 4.2842 6.4354 1.2737 3.80072 2.36274C1.16604 3.45178 1.75218 7.11858 3.45453 11.237ZM9.63364 11.9319C9.55025 10.9759 9.33327 9.96237 8.92541 8.97564C8.09409 6.96446 7.21098 5.39327 6.32352 4.46846C5.8891 4.01576 5.52048 3.78906 5.23053 3.69572C4.97542 3.6136 4.71135 3.60942 4.37372 3.74898C4.03609 3.88854 3.85204 4.07794 3.72937 4.31622C3.58994 4.58704 3.48896 5.00785 3.50096 5.63516C3.52548 6.91667 4.00946 8.65284 4.84077 10.664C5.30958 11.7982 5.98196 12.7793 6.7059 13.5783C7.54406 12.8379 8.5386 12.2705 9.63364 11.9319ZM15.1262 12.21C16.0994 12.6235 16.9739 13.2243 17.7043 13.9671C18.1355 13.5363 18.5577 13.0414 18.9406 12.4883C18.0724 11.9357 16.745 10.1378 16.2457 8.14368C16.1215 8.37259 15.991 8.64693 15.8551 8.97564C15.4074 10.0587 15.1897 11.1739 15.1262 12.21ZM19.9397 10.664C19.8653 10.8442 19.7856 11.0206 19.7015 11.1929C19.6255 11.1353 19.4361 10.9809 19.1658 10.6557C18.8273 10.2482 18.4656 9.69669 18.1688 9.06886C17.8315 8.35523 17.62 7.63878 17.5629 6.97543C17.8718 6.95931 18.3377 7.034 19.0599 7.33251C20.2421 7.82116 20.4184 8.18965 20.4657 8.35336C20.5497 8.64429 20.5203 9.25956 19.9397 10.664Z" fill="white"/>
</svg>
