<svg width="24" height="24" viewBox="0 0 24 24" fill="none" xmlns="http://www.w3.org/2000/svg">
<path d="M5.79088 6.56352C6.34243 6.56352 6.78956 6.11647 6.78956 5.565C6.78956 5.01354 6.34243 4.56649 5.79088 4.56649C5.23932 4.56649 4.7922 5.01354 4.7922 5.565C4.7922 6.11647 5.23932 6.56352 5.79088 6.56352Z" fill="white"/>
<path fill-rule="evenodd" clip-rule="evenodd" d="M2 4.74591C2 3.22939 3.22959 2 4.74636 2H11.7407C13.2575 2 14.4871 3.22939 14.4871 4.74591V10.0155H19.2536C20.7704 10.0155 22 11.2449 22 12.7614V19.2541C22 20.7706 20.7704 22 19.2536 22H13.3161C11.7993 22 10.5697 20.7706 10.5697 19.2541V14.4814H4.74636C3.22959 14.4814 2 13.252 2 11.7355V4.74591ZM10.5697 12.9836V12.7614C10.5697 11.5361 11.3724 10.4982 12.4808 10.1448L10.7459 8.62821L8.83295 10.7011C8.80687 10.7294 8.77912 10.7552 8.74999 10.7785C8.48418 11.0202 8.07502 11.0418 7.78334 10.8122L6.7026 9.96152L5.59767 10.8161C5.27047 11.0691 4.80005 11.0091 4.54695 10.6819C4.29385 10.3548 4.35392 9.88443 4.68112 9.63137L6.24838 8.41926C6.52012 8.20909 6.90002 8.21071 7.16996 8.42318L8.17025 9.21051L10.1394 7.07669C10.4146 6.77845 10.8773 6.75364 11.1829 7.02073L12.9891 8.59963V4.74591C12.9891 4.05658 12.4302 3.49777 11.7407 3.49777H4.74636C4.05692 3.49777 3.49802 4.05658 3.49802 4.74591V11.7355C3.49802 12.4248 4.05692 12.9836 4.74636 12.9836H10.5697ZM12.0677 12.7614C12.0677 12.0721 12.6266 11.5133 13.3161 11.5133H19.2536C19.9431 11.5133 20.502 12.0721 20.502 12.7614V19.2541C20.502 19.9434 19.9431 20.5022 19.2536 20.5022H13.3161C12.6266 20.5022 12.0677 19.9434 12.0677 19.2541V12.7614Z" fill="white"/>
<path d="M14.4715 17.5881V14.3924C14.4715 13.9982 14.9063 13.759 15.2392 13.9701L17.7958 15.5913C18.1079 15.7892 18.1049 16.2456 17.7902 16.4393L15.2336 18.0138C14.9005 18.219 14.4715 17.9793 14.4715 17.5881Z" fill="white"/>
</svg>
