<svg width="24" height="24" viewBox="0 0 24 24" fill="none" xmlns="http://www.w3.org/2000/svg">
<path d="M15.081 6.82198L9.34303 8.36198C8.88803 8.48398 8.47203 8.72198 8.13703 9.05298L2.78003 14.41C2.52703 14.656 2.32703 14.952 2.19303 15.278C2.05903 15.604 1.99303 15.955 1.99903 16.308C1.99903 17.051 2.25903 17.684 2.78003 18.205L5.79303 21.218C6.31403 21.739 6.94603 21.999 7.69003 21.999C8.43403 21.999 9.06703 21.739 9.58803 21.218L14.945 15.861C15.277 15.526 15.515 15.111 15.636 14.655L17.176 8.91898C17.34 8.27898 17.191 7.72898 16.73 7.26698C16.269 6.80498 15.718 6.65698 15.078 6.82098H15.08L15.081 6.82198ZM9.72403 9.76798L12.046 9.14298L14.858 11.955L14.233 14.277C14.203 14.382 14.158 14.477 14.099 14.567C14.053 14.658 13.993 14.74 13.92 14.812L8.54103 20.192C8.30303 20.43 8.01303 20.549 7.67103 20.549C7.34303 20.549 7.06103 20.43 6.82303 20.192L3.80803 17.179C3.69403 17.07 3.60303 16.938 3.54203 16.792C3.48103 16.646 3.45003 16.489 3.45103 16.331C3.45103 15.988 3.57003 15.698 3.80803 15.46L9.18803 10.081C9.26003 10.008 9.34303 9.94798 9.43403 9.90198C9.52303 9.84298 9.62003 9.79698 9.72303 9.76898L9.72403 9.76798Z" fill="white"/>
<path d="M20.359 13.972C20.328 14.061 20.279 14.142 20.215 14.21L20.214 14.209C20.155 14.284 20.088 14.359 20.014 14.433C19.951 14.497 19.891 14.564 19.835 14.634C19.478 14.99 19.091 15.304 18.675 15.571C18.275 15.838 17.849 16.062 17.403 16.241C17.315 16.278 17.22 16.297 17.124 16.297C17.028 16.297 16.933 16.278 16.845 16.241C16.757 16.205 16.677 16.15 16.612 16.081C16.547 16.012 16.496 15.929 16.465 15.839C16.422 15.753 16.397 15.659 16.393 15.563C16.389 15.467 16.406 15.371 16.443 15.282C16.483 15.19 16.541 15.107 16.614 15.038C16.687 14.969 16.773 14.915 16.867 14.88C17.215 14.728 17.551 14.549 17.872 14.344C18.207 14.129 18.514 13.875 18.787 13.585C18.846 13.541 18.899 13.488 18.943 13.429C18.999 13.373 19.051 13.314 19.099 13.251C19.161 13.18 19.236 13.121 19.32 13.079C19.404 13.037 19.496 13.012 19.59 13.005C19.687 12.995 19.785 13.006 19.877 13.037C19.969 13.068 20.054 13.117 20.126 13.183C20.204 13.245 20.269 13.322 20.315 13.411C20.361 13.5 20.388 13.597 20.393 13.696C20.401 13.789 20.39 13.884 20.359 13.972Z" fill="white"/>
<path d="M21.702 7.54498C21.76 7.62198 21.8 7.70998 21.821 7.80398C21.936 8.37698 21.996 8.95998 22 9.54498C21.985 10.006 21.932 10.46 21.844 10.906C21.754 11.354 21.62 11.785 21.442 12.201C21.409 12.293 21.355 12.377 21.286 12.447C21.217 12.517 21.133 12.57 21.04 12.603C20.952 12.64 20.857 12.659 20.761 12.659C20.665 12.659 20.57 12.64 20.482 12.603C20.304 12.529 20.17 12.402 20.08 12.224C20.006 12.038 20.006 11.83 20.08 11.643C20.229 11.314 20.342 10.97 20.415 10.616C20.488 10.244 20.526 9.87998 20.526 9.52298C20.526 9.28498 20.511 9.05398 20.481 8.83098C20.466 8.59298 20.436 8.35498 20.391 8.11698C20.368 8.02598 20.364 7.93198 20.38 7.83998C20.396 7.74798 20.43 7.65998 20.481 7.58198C20.587 7.41298 20.755 7.29198 20.949 7.24698C21.041 7.22398 21.137 7.22198 21.23 7.24198C21.323 7.26198 21.41 7.30098 21.485 7.35898C21.569 7.40498 21.643 7.46898 21.7 7.54598L21.702 7.54498Z" fill="white"/>
<path d="M18.273 4.74598C18.094 4.59698 17.908 4.46298 17.715 4.34398C17.63 4.29798 17.557 4.23498 17.499 4.15698C17.441 4.07898 17.401 3.99098 17.38 3.89698C17.335 3.70598 17.367 3.50598 17.47 3.33898C17.52 3.25898 17.585 3.19098 17.661 3.13698C17.737 3.08298 17.825 3.04598 17.916 3.02698C18.009 2.99598 18.109 2.98798 18.206 3.00398C18.303 3.01998 18.395 3.05798 18.474 3.11698C18.714 3.26698 18.945 3.43098 19.165 3.60698C19.646 3.93798 20.062 4.35398 20.392 4.83498C20.569 5.05598 20.733 5.28698 20.883 5.52598C20.942 5.60498 20.98 5.69698 20.996 5.79398C21.012 5.89098 21.004 5.99098 20.973 6.08398C20.954 6.17598 20.916 6.26298 20.863 6.33898C20.81 6.41498 20.741 6.48098 20.661 6.52998C20.494 6.63198 20.294 6.66498 20.103 6.61998C20.009 6.59898 19.921 6.55798 19.844 6.50098C19.767 6.44398 19.703 6.36998 19.657 6.28498C19.538 6.09198 19.404 5.90598 19.255 5.72798C19.121 5.54898 18.965 5.37798 18.787 5.21398C18.623 5.03598 18.451 4.87898 18.273 4.74598Z" fill="white"/>
<path d="M16.161 3.61998C16.069 3.63498 15.975 3.63198 15.884 3.60898C15.646 3.56398 15.408 3.53498 15.17 3.51898C14.947 3.48898 14.716 3.47398 14.478 3.47398C14.121 3.47398 13.756 3.51098 13.385 3.58498C13.031 3.65798 12.687 3.77098 12.358 3.91998C12.172 3.99498 11.964 3.99498 11.777 3.91998C11.598 3.82998 11.472 3.69598 11.398 3.51798C11.361 3.42998 11.342 3.33498 11.342 3.23898C11.342 3.14298 11.361 3.04798 11.398 2.95998C11.431 2.86798 11.485 2.78398 11.554 2.71498C11.623 2.64598 11.707 2.59198 11.799 2.55898C12.216 2.37998 12.65 2.24598 13.094 2.15698C13.543 2.06698 13.998 2.01498 14.456 2.00098C15.041 2.00498 15.624 2.06498 16.197 2.17998C16.291 2.20098 16.379 2.24098 16.456 2.29898C16.533 2.35698 16.597 2.42998 16.643 2.51398C16.701 2.58898 16.741 2.67698 16.76 2.76898C16.779 2.86098 16.777 2.95798 16.755 3.04998C16.71 3.24398 16.589 3.41298 16.42 3.51798C16.342 3.56898 16.254 3.60298 16.162 3.61898L16.161 3.61998Z" fill="white"/>
<path d="M10.922 4.68098C10.88 4.76498 10.821 4.84098 10.75 4.90198C10.691 4.94698 10.631 4.99898 10.572 5.05798C10.513 5.10298 10.46 5.15598 10.416 5.21498C10.118 5.49698 9.86603 5.80198 9.65703 6.12898C9.44803 6.45598 9.27003 6.79098 9.12103 7.13398C9.08603 7.22798 9.03203 7.31398 8.96303 7.38698C8.89403 7.45998 8.81103 7.51798 8.71903 7.55798C8.63003 7.59498 8.53403 7.61198 8.43803 7.60798C8.34203 7.60398 8.24803 7.57998 8.16203 7.53598C8.07203 7.50498 7.99003 7.45398 7.92003 7.38898C7.85003 7.32398 7.79603 7.24398 7.76003 7.15598C7.72303 7.06798 7.70403 6.97298 7.70403 6.87698C7.70403 6.78098 7.72303 6.68598 7.76003 6.59798C7.93803 6.15198 8.16303 5.72498 8.43003 5.32598C8.70003 4.90698 9.01503 4.51798 9.36803 4.16598C9.43803 4.10998 9.50503 4.04998 9.56803 3.98698C9.63903 3.91598 9.71303 3.84898 9.79103 3.78598C9.85903 3.72198 9.94003 3.67298 10.029 3.64198C10.118 3.61098 10.211 3.59998 10.305 3.60798C10.405 3.61298 10.502 3.63998 10.591 3.68598C10.68 3.73198 10.758 3.79698 10.819 3.87498C10.884 3.94698 10.934 4.03098 10.965 4.12398C10.996 4.21698 11.007 4.31398 10.997 4.41098C10.991 4.50498 10.966 4.59698 10.923 4.68098H10.922Z" fill="white"/>
</svg>
