<svg width="24" height="24" viewBox="0 0 24 24" fill="none" xmlns="http://www.w3.org/2000/svg">
<path d="M6.31878 2.80123C5.78655 3.3366 5.52043 3.9887 5.52043 4.75955L5.52143 6.01042H4.77111C4.40611 6.00464 4.04367 6.07265 3.70529 6.21042C3.36691 6.3482 3.05949 6.55292 2.80125 6.81247C2.27002 7.34683 2.00391 7.99893 2.00391 8.76978V16.3173C2.00391 17.0871 2.27002 17.7412 2.80125 18.2746C3.0594 18.5343 3.36679 18.7392 3.70517 18.8772C4.04355 19.0151 4.40603 19.0833 4.77111 19.0776H9.01395V18.3933C9.01395 18.2504 9.02996 18.1096 9.06097 17.9687C9.09198 17.8268 9.139 17.6929 9.20103 17.5671H4.76911C4.42596 17.5671 4.12883 17.4494 3.87872 17.2139C3.62861 16.9623 3.50356 16.6635 3.50356 16.3183V15.9862L6.41082 12.8263C6.46409 12.7826 6.53021 12.7579 6.5989 12.7559C6.63327 12.7544 6.66759 12.7599 6.69976 12.7722C6.73192 12.7845 6.76126 12.8032 6.78598 12.8273L9.57619 15.9168C9.68446 16.0477 9.833 16.1387 9.99838 16.1754C10.1657 16.1919 10.3345 16.1677 10.4906 16.1049L10.8197 15.7517C10.8832 15.6199 10.9075 15.4724 10.8898 15.327C10.8738 15.169 10.8117 15.0362 10.7017 14.9255L10.0694 14.2412L11.1949 13.416C11.2454 13.3882 11.3015 13.3724 11.359 13.3697C11.3896 13.3696 11.42 13.3758 11.4482 13.3879C11.4764 13.4 11.5019 13.4178 11.523 13.4402L12.3434 14.2181L13.3989 13.1564L12.5545 12.3553C12.2685 12.0613 11.8842 11.8845 11.476 11.8592C11.0538 11.828 10.6707 11.9377 10.3265 12.1893L9.06097 13.1101L7.91247 11.8129C7.56832 11.4356 7.13813 11.2464 6.62191 11.2464C6.10669 11.2303 5.6695 11.4195 5.30934 11.8129L3.50356 13.7702V8.76978C3.50356 8.4236 3.62961 8.13277 3.87972 7.89729C4.12983 7.64571 4.42596 7.51992 4.77011 7.51992H12.2734C12.4363 7.51694 12.5981 7.54908 12.7477 7.61417C12.8973 7.67926 13.0313 7.77579 13.1407 7.89729C13.3908 8.13277 13.5159 8.4236 13.5159 8.76978V13.0376L15.0166 11.5281V8.76878C15.0166 7.99893 14.7424 7.34582 14.1962 6.81146C13.664 6.2771 13.0237 6.00941 12.2734 6.00941H7.02108V4.75955C7.01742 4.59764 7.04678 4.43668 7.10734 4.28662C7.16791 4.13656 7.2584 4.00058 7.37324 3.88706C7.62334 3.63548 7.91947 3.50868 8.26362 3.50868H16.2611C16.4278 3.50421 16.5934 3.53566 16.747 3.60092C16.9006 3.66618 17.0385 3.76375 17.1515 3.88706C17.4016 4.12254 17.5266 4.41337 17.5266 4.75955V9.35849C17.7607 9.2488 18.0028 9.1693 18.253 9.123C18.5031 9.05961 18.7612 9.02841 19.0263 9.02841V4.75955C19.0263 3.9887 18.7532 3.3366 18.2059 2.80123C17.6747 2.26687 17.0264 2.00019 16.2601 2.00019H8.26462C7.9035 1.99592 7.54519 2.06462 7.21094 2.20222C6.8767 2.33981 6.57332 2.54351 6.31878 2.80123Z" fill="white"/>
<path d="M14.8058 21.7172L21.1595 15.3019C21.7228 14.7514 22.0039 14.0832 22.0039 13.2973C22.0039 12.5103 21.7228 11.8431 21.1595 11.2927C20.6123 10.7261 19.948 10.4433 19.1667 10.4433C18.794 10.4375 18.4242 10.51 18.0811 10.6563C17.7379 10.8025 17.4289 11.0193 17.1738 11.2927L10.7961 17.6838C10.7028 17.7776 10.6308 17.8905 10.585 18.0149C10.538 18.1407 10.5149 18.2665 10.5149 18.3923V21.0098C10.5131 21.2738 10.614 21.528 10.7961 21.7182C10.9992 21.9064 11.2343 22 11.4994 22H14.1025C14.2276 22 14.3526 21.9769 14.4777 21.9296C14.601 21.8835 14.713 21.811 14.8058 21.7172ZM12.0156 18.6036L16.1194 14.4767L17.9942 16.3635L13.8914 20.4905H12.0156V18.6036ZM19.0727 15.3019L17.1738 13.415L18.2293 12.3543C18.4944 12.0867 18.8065 11.9528 19.1667 11.9528C19.3425 11.9486 19.5172 11.9823 19.679 12.0516C19.8409 12.1208 19.9861 12.224 20.1051 12.3543C20.3702 12.621 20.5033 12.935 20.5033 13.2973C20.5033 13.6595 20.3702 13.9735 20.1051 14.2412L19.0727 15.3019Z" fill="white"/>
</svg>
