<svg width="24" height="24" viewBox="0 0 24 24" fill="none" xmlns="http://www.w3.org/2000/svg">
<path d="M10.7234 3.98203C11.3974 4.20603 12.0804 4.40703 12.7704 4.58403C13.4444 4.76103 14.1114 4.90503 14.7694 5.01803C15.4274 5.13003 16.0704 5.20303 16.6964 5.23403C17.2754 5.26703 17.8553 5.25203 18.4313 5.18703V11.859C18.4313 11.891 18.4234 11.915 18.4064 11.931C18.4064 11.947 18.3993 11.963 18.3823 11.979V12.003H18.3583C17.9403 12.131 17.3304 12.22 16.5274 12.268C15.7414 12.316 14.8334 12.148 13.8064 11.762C12.9224 11.441 12.0964 11.176 11.3254 10.968C10.6124 10.786 9.88735 10.649 9.15735 10.558C8.52635 10.479 7.88935 10.463 7.25535 10.51C6.68235 10.554 6.11635 10.667 5.57035 10.847V3.91003C5.58235 3.88403 5.59835 3.85903 5.61735 3.83803L5.64235 3.81403C5.65735 3.79803 5.67335 3.78903 5.68935 3.78903C6.28435 3.66103 7.02235 3.58003 7.90635 3.54903C8.80535 3.50103 9.74535 3.64603 10.7244 3.98303L10.7234 3.98203ZM5.56835 12.484C6.43535 12.13 7.47135 11.995 8.67635 12.075C9.87935 12.139 11.4144 12.517 13.2764 13.206C14.4804 13.672 15.5653 13.881 16.5283 13.833C17.5073 13.768 18.2784 13.648 18.8404 13.471C19.2104 13.343 19.4914 13.126 19.6834 12.82C19.8764 12.515 19.9734 12.193 19.9734 11.857V4.92003C19.9734 4.50303 19.8134 4.17303 19.4914 3.93203C19.3464 3.80903 19.1774 3.71803 18.9944 3.66403C18.8114 3.61003 18.6203 3.59503 18.4313 3.61903C17.5163 3.74703 16.4244 3.70703 15.1554 3.49903C13.8164 3.26903 12.4963 2.93903 11.2063 2.51203C10.0503 2.12603 8.94935 1.95703 7.90635 2.00503C6.86235 2.03703 6.01135 2.13303 5.35235 2.29403C4.95835 2.37603 4.60735 2.59903 4.36535 2.92103C4.14435 3.23003 4.02635 3.60003 4.02735 3.98003V21.227C4.02735 21.436 4.09935 21.621 4.24435 21.782C4.40435 21.926 4.58935 21.998 4.79935 21.998C4.90135 22.002 5.00335 21.984 5.09835 21.947C5.19335 21.91 5.28035 21.854 5.35235 21.782C5.49335 21.632 5.57035 21.433 5.56935 21.227V12.484H5.56835Z" fill="white"/>
</svg>
