<svg width="24" height="24" viewBox="0 0 24 24" fill="none" xmlns="http://www.w3.org/2000/svg">
<path d="M10.5096 8.16356C10.8208 7.53553 11.294 7.00204 11.8805 6.61824C12.4671 6.23751 13.1186 6.04306 13.8765 6.04306L13.8844 6.04302C14.3754 6.04043 14.8616 6.14046 15.3117 6.33669C15.7756 6.53967 16.1731 6.81492 16.5146 7.16614L16.5279 7.1797C16.8758 7.52846 17.1547 7.93969 17.3502 8.39182L17.3587 8.41114C17.5668 8.87458 17.6773 9.36617 17.6872 9.90105C17.6978 10.4693 18.0286 10.9827 18.5416 11.2272C19.1102 11.4982 19.5769 11.911 19.9531 12.5086L19.9592 12.5181C20.318 13.0786 20.5011 13.7013 20.5011 14.4248C20.5011 14.8931 20.4237 15.32 20.2758 15.7176L20.273 15.7254C20.1326 16.1091 19.9227 16.4636 19.6538 16.7711L19.6394 16.7879C19.3857 17.0869 19.0796 17.3406 18.7102 17.5491C18.3558 17.748 17.9663 17.8762 17.5631 17.9266C17.5098 17.9333 17.4571 17.9428 17.405 17.9551H6.84971C6.37257 17.9551 5.95415 17.8631 5.57566 17.6906L5.55526 17.6815C5.15606 17.5068 4.79374 17.2578 4.48749 16.948C4.18404 16.611 3.93951 16.2252 3.7642 15.8069C3.58628 15.3712 3.49621 14.9047 3.49912 14.434V14.4248C3.49912 13.9908 3.56546 13.5879 3.69321 13.2066C3.83782 12.816 4.03045 12.4715 4.26736 12.1681C4.5125 11.8692 4.80615 11.6137 5.13606 11.4122C5.14503 11.4067 5.15395 11.4011 5.1628 11.3954C5.48715 11.1878 5.84634 11.0405 6.22306 10.9607C6.74105 10.8508 7.16276 10.4761 7.33265 9.97454C7.43212 9.68091 7.61843 9.42443 7.8669 9.23902L7.87344 9.23409C8.10741 9.05749 8.39165 8.96073 8.68429 8.9576C8.76147 8.97021 8.83953 8.97677 8.91776 8.97721C8.99937 8.99083 9.08281 8.99768 9.16555 8.99768C9.7357 8.99768 10.2565 8.67445 10.5096 8.16356ZM11.0615 5.36155C10.2503 5.8918 9.59575 6.62932 9.16555 7.49768C9.08634 7.48405 9.00543 7.47724 8.92622 7.47724C8.85893 7.46446 8.7925 7.45765 8.72606 7.45765C8.09278 7.45167 7.47529 7.6553 6.9698 8.03682C6.47781 8.40396 6.10891 8.91185 5.91195 9.49328C5.35844 9.61063 4.83069 9.82704 4.35415 10.1321C3.87559 10.4244 3.45019 10.7959 3.09614 11.2308C2.7512 11.6694 2.47779 12.1626 2.27849 12.7077C2.09281 13.2536 1.99912 13.8252 1.99912 14.4248C1.99498 15.0953 2.1238 15.7599 2.37814 16.3803C2.6232 16.9672 2.9675 17.5074 3.39595 17.9773C3.84083 18.4338 4.36982 18.8 4.95376 19.0556C5.5389 19.3222 6.17088 19.4551 6.84971 19.4551H17.6496C17.6837 19.4441 17.717 19.4307 17.7493 19.415C18.3456 19.3404 18.9219 19.1507 19.4459 18.8563C19.9655 18.5633 20.4109 18.1971 20.7831 17.7584C21.1734 17.312 21.478 16.7975 21.6817 16.2407C21.8946 15.6683 22.0011 15.0636 22.0011 14.4248C22.0011 13.4266 21.7422 12.5212 21.2226 11.7095C20.703 10.8841 20.0251 10.2726 19.187 9.87315C19.1733 9.14066 19.02 8.44906 18.727 7.79664C18.4568 7.17139 18.071 6.60272 17.59 6.12044C17.1105 5.62729 16.5509 5.24146 15.9121 4.96209C15.2702 4.68208 14.5768 4.53935 13.8765 4.54304C12.8382 4.54304 11.9004 4.81644 11.0615 5.36155Z" fill="white"/>
<path d="M16.5887 11.8427C16.5481 11.9317 16.4884 12.0107 16.4139 12.0741L12.1677 16.3223C12.0737 16.4163 11.9557 16.4623 11.8157 16.4623C11.6747 16.4623 11.5577 16.4163 11.4647 16.3223L8.86977 13.7278C8.71277 13.5708 8.63477 13.3908 8.63477 13.1878C8.63495 13.0865 8.6559 12.9863 8.69632 12.8934C8.73673 12.8005 8.79577 12.7169 8.86977 12.6478C8.93674 12.5795 9.01698 12.5256 9.10555 12.4895C9.19412 12.4534 9.28914 12.4358 9.38477 12.4378C9.48425 12.4343 9.58338 12.4513 9.67607 12.4876C9.76876 12.5238 9.85306 12.5787 9.92377 12.6488L11.6047 14.3533C11.6656 14.3995 11.7402 14.4242 11.8167 14.4233C11.9097 14.4233 11.9797 14.4003 12.0267 14.3533L15.3599 11.0191C15.4268 10.9508 15.5071 10.8969 15.5957 10.8608C15.6842 10.8247 15.7792 10.8071 15.8749 10.8091C15.9743 10.8055 16.0734 10.8223 16.1661 10.8584C16.2587 10.8945 16.3431 10.9492 16.4139 11.0191C16.4903 11.0863 16.551 11.1695 16.5916 11.2629C16.6322 11.3562 16.6518 11.4573 16.6489 11.5591C16.6499 11.6569 16.6293 11.7537 16.5887 11.8427Z" fill="white"/>
</svg>
