<svg width="24" height="24" viewBox="0 0 24 24" fill="none" xmlns="http://www.w3.org/2000/svg">
<path d="M6.00891 2H17.9989C19.1079 2 20.0519 2.39 20.8329 3.171C21.6139 3.952 22.0039 4.897 22.0039 6.005V17.995C22.0039 19.104 21.6139 20.048 20.8329 20.829C20.0519 21.61 19.1069 22 17.9989 22H6.00891C4.89991 22 3.95591 21.61 3.17491 20.829C2.39391 20.048 2.00391 19.103 2.00391 17.995V6.005C2.00391 4.896 2.39391 3.952 3.17491 3.171C3.95591 2.39 4.90091 2 6.00891 2ZM17.9989 3.499H6.00891C5.32191 3.499 4.72891 3.749 4.22891 4.248C3.99391 4.476 3.80891 4.749 3.68391 5.051C3.55891 5.353 3.49691 5.678 3.50291 6.005V17.995C3.50291 18.682 3.74491 19.275 4.22891 19.775C4.72891 20.26 5.32091 20.501 6.00891 20.501H17.9989C18.6859 20.501 19.2709 20.259 19.7559 19.775C20.2559 19.275 20.5049 18.683 20.5049 17.995V6.005C20.5049 5.318 20.2549 4.733 19.7559 4.248C19.2709 3.748 18.6869 3.499 17.9989 3.499Z" fill="white"/>
<path d="M11.4639 5.489C11.3239 5.63 11.2539 5.802 11.2539 6.005C11.2519 6.205 11.3269 6.398 11.4639 6.545C11.6099 6.681 11.8029 6.757 12.0039 6.755H16.9919C17.0259 6.753 17.0609 6.759 17.0929 6.771C17.1249 6.783 17.1549 6.801 17.1799 6.825C17.2039 6.85 17.2219 6.879 17.2339 6.912C17.2459 6.945 17.2509 6.979 17.2499 7.013V12.001C17.2479 12.201 17.3229 12.394 17.4599 12.541C17.6059 12.677 17.7989 12.753 17.9999 12.751C18.0959 12.753 18.1909 12.736 18.2789 12.7C18.3669 12.664 18.4479 12.61 18.5149 12.542C18.5889 12.473 18.6479 12.389 18.6879 12.296C18.7279 12.203 18.7489 12.103 18.7489 12.002V7.014C18.7489 6.529 18.5769 6.116 18.2329 5.773C17.8899 5.429 17.4769 5.257 16.9919 5.257H12.0039C11.9029 5.257 11.8029 5.278 11.7099 5.318C11.6169 5.358 11.5339 5.417 11.4639 5.491V5.489Z" fill="white"/>
<path d="M12.5189 18.535C12.3779 18.675 12.2059 18.745 12.0029 18.745H7.01491C6.52991 18.745 6.11691 18.573 5.77391 18.229C5.42991 17.886 5.25791 17.473 5.25791 16.988V12C5.25591 11.904 5.27291 11.809 5.30891 11.72C5.34491 11.631 5.39891 11.551 5.46691 11.484C5.53591 11.41 5.61991 11.351 5.71291 11.311C5.80591 11.271 5.90591 11.25 6.00691 11.25C6.10491 11.249 6.20191 11.269 6.29091 11.309C6.37991 11.349 6.45891 11.409 6.52291 11.483C6.59691 11.547 6.65691 11.626 6.69691 11.715C6.73691 11.804 6.75791 11.901 6.75591 11.999V16.987C6.75391 17.021 6.75991 17.056 6.77191 17.088C6.78391 17.12 6.80291 17.15 6.82591 17.175C6.85091 17.199 6.87991 17.217 6.91291 17.229C6.94591 17.241 6.97991 17.246 7.01391 17.245H12.0019C12.0999 17.244 12.1969 17.264 12.2859 17.304C12.3749 17.344 12.4539 17.404 12.5179 17.478C12.5919 17.542 12.6519 17.621 12.6919 17.71C12.7319 17.799 12.7529 17.896 12.7509 17.994C12.7509 18.095 12.7299 18.195 12.6899 18.288C12.6499 18.381 12.5909 18.464 12.5169 18.534L12.5189 18.535Z" fill="white"/>
</svg>
