<svg width="24" height="24" viewBox="0 0 24 24" fill="none" xmlns="http://www.w3.org/2000/svg">
<path d="M17.0568 7.07705C17.0568 6.36505 16.9299 5.70805 16.6769 5.10705C16.4179 4.50605 16.0489 3.95905 15.5869 3.49605C15.1229 3.03405 14.5749 2.66305 13.9728 2.40505C13.3519 2.13505 12.6808 1.99705 12.0028 2.00005C11.3068 2.00005 10.6508 2.13505 10.0338 2.40405C9.41685 2.67205 8.87985 3.03705 8.41985 3.49505C7.95785 3.95905 7.58685 4.50705 7.32885 5.10905C7.07085 5.73305 6.94185 6.40305 6.94885 7.07805C6.94885 7.77305 7.07585 8.43005 7.32885 9.04705C7.59685 9.66405 7.96185 10.201 8.41985 10.661C8.87885 11.103 9.41585 11.46 10.0338 11.729C10.6508 11.997 11.3068 12.132 12.0028 12.132C12.6988 12.132 13.3549 11.997 13.9719 11.729C14.5699 11.473 15.1158 11.111 15.5858 10.661C16.0478 10.197 16.4188 9.64905 16.6769 9.04705C16.9299 8.43005 17.0568 7.77305 17.0568 7.07705ZM15.5388 7.07705C15.5388 8.05805 15.1909 8.89605 14.4949 9.59105C13.8149 10.271 12.9848 10.611 12.0038 10.611C11.5378 10.619 11.0749 10.532 10.6428 10.357C10.2109 10.182 9.81885 9.92105 9.48985 9.59105C9.15985 9.26205 8.89885 8.87005 8.72385 8.43805C8.54885 8.00605 8.46185 7.54305 8.46985 7.07705C8.46985 6.09605 8.80985 5.25805 9.48985 4.56205C9.81585 4.22605 10.2069 3.96005 10.6389 3.78005C11.0709 3.60005 11.5359 3.51205 12.0038 3.51905C12.9848 3.51905 13.8158 3.86605 14.4938 4.56205C14.8308 4.88805 15.0968 5.27905 15.2768 5.71105C15.4569 6.14305 15.5458 6.60805 15.5388 7.07705Z" fill="white"/>
<path d="M2.65685 2.78405C2.30885 3.13105 2.13485 3.55005 2.13485 4.04105V5.03705C2.13085 5.13805 2.14785 5.23805 2.18485 5.33205C2.22185 5.42605 2.27685 5.51205 2.34785 5.58305C2.49585 5.72105 2.69185 5.79705 2.89485 5.79605C2.99185 5.79805 3.08785 5.78005 3.17785 5.74405C3.26785 5.70805 3.34885 5.65305 3.41685 5.58405C3.49385 5.51605 3.55485 5.43205 3.59585 5.33705C3.63685 5.24205 3.65685 5.14005 3.65385 5.03705V4.04105C3.65185 4.00605 3.65785 3.97105 3.66985 3.93905C3.68185 3.90705 3.70085 3.87605 3.72485 3.85105C3.74985 3.82705 3.77985 3.80805 3.81285 3.79605C3.84585 3.78405 3.88085 3.77805 3.91485 3.78005H4.91085C5.01185 3.78405 5.11185 3.76705 5.20585 3.73005C5.29985 3.69305 5.38585 3.63805 5.45685 3.56705C5.59885 3.40805 5.66985 3.22605 5.66985 3.02005C5.66985 2.81405 5.59885 2.64005 5.45685 2.49805C5.31385 2.34005 5.13185 2.26105 4.90985 2.26105H3.91385C3.67985 2.25805 3.44785 2.30205 3.23085 2.39205C3.01385 2.48205 2.81885 2.61605 2.65685 2.78405Z" fill="white"/>
<path d="M2.65685 11.371C2.30885 11.023 2.13485 10.604 2.13485 10.114V9.09405C2.13285 8.99705 2.15085 8.90105 2.18685 8.81105C2.22285 8.72105 2.27785 8.64005 2.34685 8.57205C2.41685 8.49705 2.50185 8.43805 2.59585 8.39705C2.68985 8.35605 2.79085 8.33505 2.89385 8.33505C2.99285 8.33405 3.09085 8.35405 3.18185 8.39505C3.27285 8.43605 3.35185 8.49605 3.41685 8.57205C3.49185 8.63605 3.55285 8.71705 3.59385 8.80705C3.63485 8.89705 3.65585 8.99505 3.65385 9.09505V10.115C3.65385 10.146 3.65985 10.177 3.67185 10.205C3.68385 10.233 3.70185 10.259 3.72485 10.281C3.74985 10.305 3.77985 10.324 3.81285 10.336C3.84585 10.348 3.88085 10.354 3.91485 10.352H4.91085C5.01385 10.349 5.11585 10.369 5.21085 10.41C5.30585 10.451 5.38985 10.513 5.45785 10.59C5.52685 10.658 5.58185 10.739 5.61785 10.829C5.65385 10.919 5.67185 11.015 5.66985 11.112C5.67385 11.213 5.65685 11.313 5.61985 11.407C5.58285 11.501 5.52785 11.587 5.45685 11.658C5.38485 11.729 5.29985 11.784 5.20585 11.821C5.11185 11.858 5.01185 11.875 4.91085 11.871H3.91485C3.42385 11.871 3.00485 11.705 2.65785 11.373L2.65685 11.371Z" fill="white"/>
<path d="M21.3508 2.78405C21.0038 2.43605 20.5848 2.26205 20.0938 2.26205H19.0978C18.9948 2.25905 18.8928 2.27905 18.7978 2.32005C18.7028 2.36105 18.6188 2.42205 18.5508 2.49905C18.4088 2.64205 18.3378 2.81605 18.3378 3.02105C18.3358 3.22405 18.4118 3.41905 18.5508 3.56805C18.6228 3.63905 18.7078 3.69405 18.8018 3.73105C18.8958 3.76805 18.9958 3.78405 19.0968 3.78105H20.0928C20.1278 3.77905 20.1628 3.78505 20.1948 3.79705C20.2268 3.80905 20.2578 3.82805 20.2828 3.85205C20.3068 3.87705 20.3258 3.90705 20.3378 3.94005C20.3498 3.97305 20.3558 4.00805 20.3538 4.04205V5.03805C20.3498 5.13905 20.3668 5.23905 20.4038 5.33305C20.4408 5.42705 20.4958 5.51305 20.5668 5.58405C20.7148 5.72205 20.9108 5.79805 21.1138 5.79705C21.2108 5.79905 21.3068 5.78105 21.3968 5.74505C21.4868 5.70905 21.5678 5.65405 21.6358 5.58505C21.7128 5.51705 21.7738 5.43305 21.8148 5.33805C21.8558 5.24305 21.8758 5.14105 21.8718 5.03805V4.04205C21.8718 3.55105 21.6978 3.13205 21.3498 2.78505L21.3508 2.78405Z" fill="white"/>
<path d="M21.3508 11.371C21.0038 11.703 20.5848 11.869 20.0938 11.869H19.0978C18.8758 11.869 18.6938 11.798 18.5508 11.656C18.4088 11.513 18.3378 11.331 18.3378 11.109C18.3358 11.012 18.3538 10.916 18.3898 10.826C18.4258 10.736 18.4808 10.655 18.5498 10.587C18.6178 10.51 18.7018 10.448 18.7968 10.407C18.8918 10.366 18.9938 10.346 19.0968 10.349H20.0928C20.1278 10.351 20.1628 10.345 20.1948 10.333C20.2268 10.321 20.2578 10.302 20.2828 10.278C20.3048 10.257 20.3228 10.231 20.3358 10.202C20.3488 10.173 20.3538 10.143 20.3538 10.112V9.09205C20.3518 8.99505 20.3698 8.89905 20.4058 8.80905C20.4418 8.71905 20.4968 8.63805 20.5658 8.57005C20.6358 8.49505 20.7208 8.43605 20.8148 8.39505C20.9088 8.35405 21.0098 8.33305 21.1128 8.33305C21.2118 8.33205 21.3098 8.35205 21.4008 8.39305C21.4918 8.43405 21.5708 8.49405 21.6358 8.57005C21.7108 8.63405 21.7718 8.71405 21.8128 8.80505C21.8538 8.89605 21.8738 8.99305 21.8728 9.09305V10.113C21.8728 10.603 21.6988 11.022 21.3508 11.37V11.371Z" fill="white"/>
<path d="M4.90985 19.224C4.75185 19.84 4.67285 20.513 4.67285 21.24C4.67285 21.343 4.65185 21.444 4.61085 21.538C4.56985 21.632 4.50985 21.717 4.43485 21.787C4.29285 21.929 4.11885 22 3.91385 22C3.69185 22 3.50985 21.929 3.36685 21.787C3.22485 21.628 3.15385 21.446 3.15385 21.24C3.15785 20.417 3.25285 19.598 3.43785 18.797C3.64285 17.959 4.08685 17.2 4.76685 16.52C5.43085 15.856 6.34785 15.342 7.51785 14.978C8.68885 14.598 10.1828 14.408 12.0018 14.408C13.8208 14.408 15.3149 14.597 16.4859 14.978C17.6559 15.341 18.5729 15.856 19.2369 16.52C19.9169 17.2 20.3519 17.959 20.5419 18.797C20.7479 19.635 20.8509 20.45 20.8509 21.24C20.8519 21.443 20.7759 21.639 20.6369 21.787C20.5648 21.858 20.4799 21.913 20.3869 21.949C20.2938 21.985 20.1929 22.003 20.0929 21.999C19.8869 21.999 19.7039 21.928 19.5459 21.786C19.4029 21.627 19.3319 21.445 19.3319 21.239C19.3319 20.511 19.2529 19.84 19.0949 19.223C18.9369 18.606 18.6279 18.068 18.1699 17.609C17.7109 17.134 16.9999 16.739 16.0339 16.423C15.0689 16.091 13.7248 15.925 12.0008 15.925C10.2768 15.925 8.93285 16.091 7.96785 16.423C7.00285 16.739 6.29085 17.135 5.83185 17.609C5.37285 18.069 5.06485 18.605 4.90685 19.223L4.90985 19.224Z" fill="white"/>
</svg>
