<svg width="24" height="24" viewBox="0 0 24 24" fill="none" xmlns="http://www.w3.org/2000/svg">
<path d="M6.75 22H13.1051C13.5151 22 13.8551 21.66 13.8551 21.25C13.8551 20.84 13.5151 20.5 13.1051 20.5H6.75C4.96 20.5 3.5 19.04 3.5 17.25V6.75C3.5 4.96 4.96 3.5 6.75 3.5H17.25C19.04 3.5 20.5 4.96 20.5 6.75L20.5 10.3723C20.5 10.7823 20.84 11.1223 21.25 11.1223C21.66 11.1223 22 10.7823 22 10.3723L22 6.75C22 4.13 19.87 2 17.25 2H6.75C4.13 2 2 4.13 2 6.75V17.25C2 19.87 4.13 22 6.75 22Z" fill="white"/>
<path d="M14.4792 16.5444C14.3504 16.9281 13.8012 16.9278 13.673 16.5458L13.3845 15.7395C13.344 15.6114 13.2533 15.4935 13.1263 15.4497L12.2884 15.1928C11.9074 15.0649 11.9047 14.5168 12.2884 14.3879L13.1263 14.1297C13.2679 14.0851 13.3368 13.9762 13.3832 13.8413L13.673 13.035C13.8004 12.6554 14.3513 12.6497 14.4779 13.035L14.7677 13.8399C14.8112 13.9668 14.8836 14.0853 15.0259 14.1297L15.8638 14.3879C16.2473 14.5167 16.2448 15.0649 15.8638 15.1928L15.0259 15.4497C14.8995 15.4942 14.8094 15.6117 14.769 15.7395L14.4792 16.5444Z" fill="white"/>
<path d="M19.516 14.3502C19.4243 14.6233 19.0334 14.6231 18.9421 14.3512L18.7368 13.7773C18.708 13.6861 18.6435 13.6022 18.553 13.571L17.9567 13.3882C17.6854 13.2971 17.6835 12.907 17.9567 12.8153L18.553 12.6315C18.6449 12.6026 18.7046 12.5173 18.7359 12.4262L18.9421 11.8523C19.0329 11.5821 19.4249 11.5781 19.515 11.8523L19.7213 12.4252C19.7523 12.5155 19.8038 12.5999 19.9051 12.6315L20.5015 12.8153C20.7745 12.907 20.7727 13.2971 20.5015 13.3882L19.9051 13.571C19.8151 13.6027 19.751 13.6864 19.7223 13.7773L19.516 14.3502Z" fill="white"/>
<path d="M16.5743 12.1971C16.4989 12.4217 16.1774 12.4216 16.1023 12.1979L15.9334 11.7259C15.9097 11.6509 15.8566 11.5819 15.7822 11.5563L15.2918 11.4059C15.0687 11.331 15.0671 11.0102 15.2918 10.9347L15.7822 10.7836C15.8578 10.7598 15.9069 10.6896 15.9326 10.6147L16.1023 10.1427C16.1769 9.92047 16.4993 9.91718 16.5735 10.1427L16.7431 10.6139C16.7686 10.6882 16.811 10.7575 16.8943 10.7836L17.3848 10.9347C17.6093 11.0101 17.6078 11.331 17.3848 11.4059L16.8943 11.5563C16.8203 11.5823 16.7675 11.6511 16.7439 11.7259L16.5743 12.1971Z" fill="white"/>
<path d="M16.5 16.5129C16.5 15.7016 17.4382 15.2206 18.1323 15.6761L21.5415 17.9132C22.1528 18.3144 22.1528 19.1856 21.5415 19.5868L18.1323 21.8239C17.4382 22.2794 16.5 21.7984 16.5 20.9871V16.5129Z" fill="white"/>
</svg>
