<svg width="24" height="24" viewBox="0 0 24 24" fill="none" xmlns="http://www.w3.org/2000/svg">
<path d="M5.00855 2C3.34913 2 2.00391 3.34483 2.00391 5.00377L2.00391 18.9962C2.00391 20.6552 3.34913 22 5.00855 22H18.9993C20.6587 22 22.0039 20.6552 22.0039 18.9962V5.00377C22.0039 3.34483 20.6587 2 18.9993 2H5.00855ZM5.50932 3.50188H18.4985C19.6048 3.50188 20.5016 4.39844 20.5016 5.5044V18.4956C20.5016 19.6016 19.6048 20.4981 18.4985 20.4981H5.50932C4.40304 20.4981 3.50623 19.6016 3.50623 18.4956V5.5044C3.50623 4.39844 4.40304 3.50188 5.50932 3.50188Z" fill="white"/>
<path d="M6.24126 4.44247C5.13669 4.44247 4.24126 5.33791 4.24126 6.44247V17.5575C4.24126 18.6621 5.13669 19.5575 6.24126 19.5575H17.7665C18.8711 19.5575 19.7665 18.6621 19.7665 17.5575V6.44247C19.7665 5.33791 18.8711 4.44247 17.7665 4.44247H6.24126ZM6.74126 5.94247H17.2665C17.8188 5.94247 18.2665 6.39018 18.2665 6.94247V13.0708C17.7771 12.5804 17.5211 12.3705 16.8835 11.6921C16.4808 11.2637 15.8755 10.9271 15.1346 10.9457C14.435 10.9633 13.9514 11.2053 13.5013 11.6921C13.3985 11.8033 13.306 11.9038 13.2229 11.9946C12.6117 11.337 11.9968 10.6777 11.489 10.1374C11.0863 9.70897 10.856 9.38665 10.1151 9.40523C9.41548 9.42277 9.19575 9.65056 8.74561 10.1374C7.73978 11.2252 6.26189 12.7948 5.74126 13.3471V6.94247C5.74126 6.39018 6.18898 5.94247 6.74126 5.94247ZM18.2665 14.7343V17.0575C18.2665 17.6098 17.8188 18.0575 17.2665 18.0575H6.74126C6.18898 18.0575 5.74126 17.6098 5.74126 17.0575V15.1752C6.11784 14.7702 7.58742 13.0186 8.95486 11.5374C9.2062 11.2651 9.74911 10.6311 10.1151 10.6161C10.511 10.6 10.938 11.1279 11.1411 11.374C11.7967 12.1681 12.2964 12.8241 13.1321 13.725C13.1277 13.7448 13.1317 13.7582 13.1557 13.7504C13.7765 14.4196 14.3372 15.0256 14.6976 15.4154C14.9281 15.6647 15.3148 15.6816 15.5677 15.455C15.8261 15.2236 15.8464 14.8271 15.611 14.5723C15.2464 14.1777 14.6823 13.5677 14.0554 12.8915C14.1339 12.8079 14.2188 12.7167 14.3107 12.6172C14.5356 12.3736 14.7686 12.1872 15.1346 12.1723C15.5306 12.1561 15.8382 12.397 16.0451 12.6172C17.142 13.7844 17.7648 14.2461 18.2665 14.7343Z" fill="white"/>
</svg>
