<svg width="24" height="24" viewBox="0 0 24 24" fill="none" xmlns="http://www.w3.org/2000/svg">
<path d="M8.11233 8.23005C8.27333 8.20305 8.42533 8.13905 8.55733 8.04205C8.69733 7.93205 8.80733 7.80805 8.88533 7.66705L11.3213 2.44405C11.4613 2.14705 11.6883 1.99805 12.0013 1.99805C12.3143 1.99805 12.5413 2.14705 12.6813 2.44405L15.1173 7.66705C15.1953 7.80705 15.2973 7.93305 15.4223 8.04205C15.5623 8.13605 15.7193 8.19805 15.8913 8.23005L21.3483 9.05005C21.6613 9.09705 21.8643 9.27605 21.9583 9.58905C22.0523 9.90205 21.9893 10.167 21.7703 10.386L17.7893 14.461C17.6793 14.572 17.5983 14.709 17.5553 14.859C17.5083 15.011 17.4923 15.171 17.5083 15.329L18.4443 21.067C18.5073 21.395 18.4143 21.653 18.1643 21.841C18.0543 21.932 17.9183 21.987 17.7763 21.999C17.6343 22.011 17.4913 21.981 17.3663 21.911L12.4943 19.218C12.3463 19.127 12.1763 19.079 12.0023 19.078C11.8283 19.077 11.6583 19.127 11.5103 19.218L6.63833 21.911C6.51433 21.981 6.37133 22.011 6.22933 21.999C6.08733 21.987 5.95233 21.931 5.84233 21.841C5.59233 21.653 5.49833 21.395 5.56133 21.067L6.49733 15.328C6.52833 15.172 6.52133 15.011 6.47433 14.859C6.42833 14.705 6.33833 14.566 6.21633 14.461L2.23433 10.385C2.01433 10.166 1.95233 9.90005 2.04633 9.58805C2.14033 9.27505 2.34333 9.09605 2.65633 9.04805L8.11333 8.23105L8.11233 8.23005Z" fill="white"/>
</svg>
