<svg width="24" height="24" viewBox="0 0 24 24" fill="none" xmlns="http://www.w3.org/2000/svg">
<path fill-rule="evenodd" clip-rule="evenodd" d="M12.0055 5.46871C11.927 5.46871 11.8569 5.4882 11.798 5.5301C11.7398 5.57154 11.6963 5.63222 11.6657 5.70866L10.5543 8.03613L10.5532 8.0388C10.5286 8.09903 10.4833 8.14925 10.4257 8.18192L10.421 8.18537C10.3707 8.22213 10.3139 8.24784 10.254 8.25943L7.79987 8.63714C7.65322 8.65395 7.54913 8.74635 7.48802 8.89912L7.48729 8.90123C7.46189 8.97394 7.45951 9.05268 7.48156 9.12694C7.50316 9.19972 7.54614 9.26375 7.60606 9.31104L9.38538 11.1332C9.42198 11.1828 9.44703 11.2389 9.45836 11.299L9.4566 11.2993L9.46246 11.3114C9.48667 11.3616 9.49979 11.4175 9.49953 11.4732L9.05905 14.0513L9.0587 14.0552C9.04332 14.2243 9.09797 14.3611 9.22549 14.4567C9.28736 14.5031 9.35248 14.5306 9.42037 14.5349C9.48805 14.5391 9.55382 14.5199 9.61666 14.4809L11.8194 13.2858L11.8223 13.2839C11.8774 13.2489 11.9411 13.2297 12.0055 13.2287C12.0699 13.2297 12.1335 13.249 12.1886 13.284L14.3935 14.481C14.4563 14.5195 14.522 14.5383 14.5896 14.5341C14.6573 14.5299 14.7226 14.5026 14.7845 14.4567C14.912 14.3611 14.9668 14.2243 14.9514 14.0552L14.5319 11.4697L14.5313 11.4667C14.5192 11.4132 14.5189 11.3572 14.5304 11.3036C14.5552 11.2429 14.587 11.1858 14.6257 11.1332L16.4058 9.3111C16.4672 9.25746 16.5084 9.19496 16.5252 9.12376C16.5419 9.05264 16.533 8.97771 16.5027 8.90106C16.4793 8.82582 16.4438 8.76367 16.3938 8.71805C16.3433 8.67186 16.2809 8.64532 16.2091 8.63714L13.7553 8.25948C13.6884 8.24578 13.6241 8.22055 13.5651 8.18461C13.5185 8.14759 13.4833 8.10028 13.4577 8.03855L12.3453 5.7086C12.3147 5.63267 12.2712 5.57205 12.2131 5.53052C12.1543 5.48852 12.0842 5.46871 12.0055 5.46871ZM12.2422 8.60543L12.0485 8.19771H11.9745L11.7727 8.60342L11.7718 8.60545C11.6543 8.8705 11.4718 9.10161 11.2418 9.27746C11.0126 9.44046 10.7465 9.54527 10.4678 9.58315L9.8467 9.68233L10.3323 10.1922L10.3331 10.1931C10.5373 10.3972 10.6792 10.6356 10.7618 10.9068C10.8434 11.1651 10.8639 11.43 10.8232 11.7023L10.6993 12.3467L11.1679 12.1125L11.1705 12.111C11.4289 11.9614 11.7073 11.8867 12.0065 11.8867C12.3057 11.8867 12.584 11.9615 12.8413 12.111L13.3137 12.3453L13.1898 11.7022C13.1491 11.436 13.1698 11.1634 13.2514 10.9061C13.333 10.6351 13.4756 10.3963 13.6798 10.1932L14.1663 9.68236L13.5474 9.58333L13.5464 9.58319C13.2676 9.54434 13.0024 9.43951 12.7721 9.2774C12.5421 9.10155 12.3597 8.87044 12.2422 8.60543Z" fill="white"/>
<path fill-rule="evenodd" clip-rule="evenodd" d="M17 16.2474C18.8289 14.7813 20 12.5285 20 10.0021C20 5.5838 16.4183 2.00208 12 2.00208C7.58172 2.00208 4 5.5838 4 10.0021C4 12.5285 5.17108 14.7813 7 16.2474V20.9972C7 21.6778 7.66511 22.1596 8.31177 21.9474L11.6882 20.8395C11.8908 20.773 12.1092 20.773 12.3118 20.8395L15.6882 21.9474C16.3349 22.1596 17 21.6778 17 20.9972V16.2474ZM12 16.5021C15.5899 16.5021 18.5 13.5919 18.5 10.0021C18.5 6.41222 15.5899 3.50208 12 3.50208C8.41015 3.50208 5.5 6.41222 5.5 10.0021C5.5 13.5919 8.41015 16.5021 12 16.5021ZM8.57605 17.2344C9.61403 17.7267 10.7749 18.0021 12 18.0021C13.2251 18.0021 14.386 17.7267 15.4239 17.2344L15.5 17.2208V20.0076C15.5 20.1392 15.3752 20.2349 15.2481 20.2007L12.2595 19.3976C12.0895 19.3519 11.9105 19.3519 11.7405 19.3976L8.75191 20.2007C8.62485 20.2349 8.5 20.1392 8.5 20.0076V17.2208L8.57605 17.2344Z" fill="white"/>
</svg>
