<svg width="24" height="24" viewBox="0 0 24 24" fill="none" xmlns="http://www.w3.org/2000/svg">
<path d="M8.99466 7.36183C9.08324 7.32537 9.1634 7.27114 9.23021 7.20249L11.2702 4.90649V15.2425C11.2686 15.4427 11.3437 15.636 11.4802 15.7825C11.5473 15.8509 11.6277 15.9048 11.7164 15.9409C11.8052 15.9771 11.9004 15.9946 11.9962 15.9925C12.092 15.9946 12.1872 15.9771 12.276 15.9409C12.3647 15.9048 12.4451 15.8509 12.5122 15.7825C12.6522 15.6255 12.7222 15.4455 12.7222 15.2425V4.90649L14.7622 7.20349C14.8255 7.27005 14.9016 7.323 14.9861 7.35911C15.0705 7.39522 15.1614 7.41372 15.2532 7.41349C15.4535 7.41521 15.6467 7.34005 15.7932 7.20349C15.9332 7.04749 16.0032 6.86749 16.0032 6.66449C16.0032 6.44549 15.9332 6.26549 15.7932 6.12549L11.9962 2.00049L8.1992 6.12549C8.12945 6.19617 8.07485 6.28033 8.03874 6.37284C8.00263 6.46534 7.98578 6.56424 7.9892 6.66349C7.98748 6.86374 8.06264 7.05702 8.1992 7.20349C8.33799 7.33707 8.52259 7.41256 8.7152 7.41449C8.81098 7.41621 8.90609 7.39829 8.99466 7.36183Z" fill="white"/>
<path d="M8.24614 8.99827C8.66035 8.99827 8.99613 9.33405 8.99613 9.74827C8.99613 10.1625 8.66035 10.4983 8.24614 10.4983H7.99512C6.6144 10.4983 5.49512 11.6176 5.49512 12.9983V18.0005C5.49512 19.3812 6.6144 20.5005 7.99512 20.5005H16.0049C17.3856 20.5005 18.5049 19.3812 18.5049 18.0005V12.9983C18.5049 11.6176 17.3856 10.4983 16.0049 10.4983H15.7461C15.3319 10.4983 14.9961 10.1625 14.9961 9.74827C14.9961 9.33405 15.3319 8.99827 15.7461 8.99827H16.0049C18.214 8.99827 20.0049 10.7891 20.0049 12.9983V18.0005C20.0049 20.2096 18.214 22.0005 16.0049 22.0005H7.99512C5.78598 22.0005 3.99512 20.2096 3.99512 18.0005V12.9983C3.99512 10.7891 5.78598 8.99827 7.99512 8.99827H8.24614Z" fill="white"/>
</svg>
