<svg width="24" height="24" viewBox="0 0 24 24" fill="none" xmlns="http://www.w3.org/2000/svg">
<path d="M13.8062 2.12008C12.0602 1.84808 10.2722 2.04108 8.62516 2.67908C6.97816 3.31708 5.52716 4.38008 4.42016 5.75808C3.31316 7.13608 2.59016 8.78208 2.32216 10.5291C2.05416 12.2761 2.25216 14.0631 2.89516 15.7091C3.53816 17.3551 4.60416 18.8031 5.98516 19.9061C7.36616 21.0091 9.01416 21.7281 10.7612 21.9911C11.1862 22.0551 11.5832 21.7621 11.6472 21.3371C11.7112 20.9121 11.4182 20.5151 10.9932 20.4511C9.51616 20.2291 8.12416 19.6211 6.95716 18.6891C5.79016 17.7571 4.88916 16.5341 4.34616 15.1431C3.80316 13.7521 3.63516 12.2421 3.86216 10.7661C4.08816 9.29008 4.70016 7.89908 5.63516 6.73408C6.57016 5.56908 7.79615 4.67208 9.18816 4.13208C10.5812 3.59208 12.0912 3.42908 13.5672 3.65908C15.0432 3.88908 16.4322 4.50408 17.5942 5.44208C18.7562 6.38008 19.6502 7.60808 20.1872 9.00208C20.3412 9.40308 20.7922 9.60408 21.1932 9.44908C21.5942 9.29408 21.7952 8.84408 21.6402 8.44308C21.0062 6.79308 19.9472 5.34008 18.5722 4.23008C17.1972 3.12008 15.5532 2.39208 13.8072 2.12008H13.8062Z" fill="white"/>
<path d="M13.2512 5.0359C12.0202 4.8439 10.7612 4.9799 9.59916 5.4299C8.43717 5.8799 7.41517 6.6289 6.63617 7.5999C5.85717 8.5709 5.34616 9.7309 5.15716 10.9619C4.96816 12.1929 5.10816 13.4529 5.56116 14.6129C6.01416 15.7729 6.76516 16.7939 7.73916 17.5709C8.71216 18.3479 9.87316 18.8549 11.1052 19.0409C11.5302 19.1049 11.9272 18.8119 11.9912 18.3869C12.0552 17.9619 11.7622 17.5649 11.3372 17.5009C10.3762 17.3559 9.47017 16.9609 8.71117 16.3549C7.95217 15.7489 7.36516 14.9529 7.01217 14.0469C6.65817 13.1419 6.55017 12.1589 6.69717 11.1989C6.84416 10.2389 7.24216 9.3339 7.85016 8.5759C8.45816 7.8179 9.25616 7.2339 10.1622 6.8829C11.0682 6.5319 12.0512 6.4259 13.0112 6.5749C13.9712 6.7249 14.8752 7.1249 15.6312 7.7349C16.3872 8.3449 16.9692 9.1439 17.3182 10.0519C17.4722 10.4529 17.9232 10.6539 18.3242 10.4989C18.7252 10.3439 18.9262 9.8939 18.7712 9.4929C18.3242 8.3299 17.5782 7.3059 16.6092 6.5239C15.6402 5.7419 14.4812 5.2289 13.2502 5.0369L13.2512 5.0359Z" fill="white"/>
<path d="M18.6838 16.5414L20.6878 15.1044C21.0348 14.8564 20.9498 14.3184 20.5438 14.1884L12.4988 11.6074C12.2598 11.5304 12.0328 11.7534 12.1058 11.9944L14.5778 20.1664C14.7018 20.5744 15.2368 20.6684 15.4918 20.3254L17.0318 18.2504C17.0498 18.2714 17.0688 18.2914 17.0888 18.3114L19.7578 20.9804C20.2238 21.4464 20.9798 21.4464 21.4458 20.9804C21.9118 20.5144 21.9118 19.7584 21.4458 19.2924L18.7768 16.6234C18.7478 16.5944 18.7168 16.5664 18.6858 16.5414H18.6838Z" fill="white"/>
</svg>
