<svg width="24" height="24" viewBox="0 0 24 24" fill="none" xmlns="http://www.w3.org/2000/svg">
<path d="M16.0082 11.9996C16.0082 10.8896 15.6182 9.9446 14.8362 9.1636C14.0552 8.3826 13.1092 7.9916 12.0002 7.9916C10.8902 7.9916 9.94524 8.3816 9.16424 9.1636C8.38324 9.9446 7.99224 10.8906 7.99224 11.9996C7.99224 13.1096 8.38224 14.0546 9.16424 14.8356C9.94524 15.6166 10.8912 16.0076 12.0002 16.0076C13.1102 16.0076 14.0552 15.6176 14.8362 14.8356C15.6172 14.0546 16.0082 13.1086 16.0082 11.9996ZM14.5082 11.9996C14.5082 12.6876 14.2582 13.2806 13.7582 13.7806C13.5305 14.0155 13.2569 14.2012 12.9546 14.3262C12.6522 14.4513 12.3274 14.513 12.0002 14.5076C11.6699 14.5115 11.3421 14.4492 11.0362 14.3244C10.7303 14.1995 10.4525 14.0146 10.2192 13.7806C9.98519 13.5474 9.80027 13.2696 9.6754 12.9637C9.55053 12.6578 9.48825 12.33 9.49224 11.9996C9.49224 11.3116 9.73424 10.7266 10.2192 10.2416C10.7192 9.7416 11.3132 9.4916 12.0002 9.4916C12.6882 9.4916 13.2732 9.7416 13.7582 10.2416C14.2582 10.7266 14.5082 11.3116 14.5082 11.9996Z" fill="white"/>
<path d="M8.52116 3.8475V4.1952C8.52078 4.35632 8.47429 4.5142 8.38683 4.65138C8.30936 4.78395 8.19141 4.89017 8.0491 4.9555C7.90578 5.04026 7.74433 5.09227 7.57705 5.10756C7.41032 5.10719 7.24694 5.06227 7.10499 4.97775L6.8114 4.80251C6.59157 4.68181 6.34918 4.60434 6.09822 4.57458C5.84727 4.54483 5.59269 4.56336 5.34918 4.62912C4.84067 4.75893 4.45017 5.04173 4.18056 5.47658L2.27028 8.69394C2.13863 8.90352 2.05276 9.13692 2.01794 9.37977C1.98313 9.62262 2.0001 9.86979 2.06783 10.1061C2.21751 10.5984 2.51686 10.9758 2.96685 11.2363L3.28155 11.4097C3.41587 11.482 3.52141 11.5914 3.59625 11.7361C3.68644 11.8807 3.73154 12.0328 3.73154 12.1923C3.73111 12.3534 3.68462 12.5112 3.59721 12.6484C3.5293 12.7861 3.41905 12.9 3.28155 12.9748L2.96685 13.1482C2.52645 13.3976 2.20396 13.803 2.06783 14.2784C1.93255 14.7708 2.00067 15.2427 2.26932 15.6906L3.97739 18.5241C4.247 18.9581 4.63654 19.2409 5.14698 19.3707C5.65549 19.5005 6.14385 19.443 6.60823 19.1973L6.90087 19.023C7.04183 18.9382 7.20755 18.9001 7.37292 18.9145C7.53795 18.9145 7.6953 18.9581 7.84497 19.0443C7.99201 19.1137 8.11087 19.2286 8.1827 19.3707C8.27193 19.5005 8.31703 19.646 8.31703 19.8055V20.1532C8.31703 20.6604 8.50508 21.0952 8.87927 21.4568C9.25346 21.8185 9.71112 22.0002 10.2513 22.0002H13.5543C14.0945 22.0002 14.5522 21.8194 14.9264 21.4568C15.3006 21.0952 15.4886 20.6595 15.4886 20.1532V19.8055C15.4866 19.6536 15.5253 19.5038 15.6009 19.3707C15.6856 19.2308 15.8106 19.1177 15.9607 19.0452C16.1026 18.9607 16.266 18.9158 16.4327 18.9154C16.598 18.9007 16.7637 18.9385 16.9048 19.023L17.1974 19.1973C17.6618 19.443 18.1492 19.5014 18.6587 19.3707C19.1691 19.2409 19.5586 18.9581 19.8292 18.5232L21.7395 15.3068C22.0101 14.858 22.0695 14.387 21.9199 13.8946C21.8595 13.6591 21.7508 13.4376 21.6001 13.2435C21.4495 13.0493 21.26 12.8864 21.0429 12.7644L20.7282 12.591C20.5876 12.5132 20.471 12.4006 20.3905 12.2646C20.3162 12.1233 20.2775 11.967 20.2775 11.8085C20.2775 11.6499 20.3162 11.4936 20.3905 11.3523C20.471 11.2164 20.5876 11.1037 20.7282 11.0259L21.0429 10.8525C21.4929 10.592 21.7846 10.2146 21.9199 9.72227C21.995 9.48797 22.0178 9.24092 21.9867 8.99747C21.9557 8.75402 21.8714 8.51974 21.7395 8.31015L20.0324 5.47658C19.9062 5.26703 19.7377 5.08412 19.537 4.9387C19.3362 4.79328 19.1073 4.68832 18.8637 4.63005C18.6202 4.56429 18.3657 4.54576 18.1147 4.57552C17.8638 4.60527 17.6214 4.68274 17.4015 4.80344L17.1089 4.97775C16.967 5.06227 16.8036 5.1072 16.6368 5.10756C16.4696 5.09227 16.3081 5.04026 16.1648 4.9555C16.0192 4.88664 15.895 4.7817 15.805 4.65138C15.731 4.50996 15.6925 4.35367 15.6927 4.1952V3.8475C15.6927 3.34033 15.5056 2.90547 15.1305 2.54387C14.9524 2.36751 14.7387 2.22831 14.5027 2.13486C14.2667 2.04141 14.0134 1.99569 13.7585 2.00053L10.4554 2.00053C9.91525 2.00053 9.45759 2.18133 9.0834 2.54386C8.70921 2.90547 8.52116 3.34125 8.52116 3.8475ZM9.96035 3.8475C9.96035 3.71769 10.0054 3.60828 10.0947 3.52112C10.1942 3.43628 10.3227 3.39004 10.4554 3.39132L13.7585 3.39132C13.8928 3.39132 14.006 3.4349 14.0962 3.52113C14.2017 3.60829 14.2535 3.71677 14.2535 3.8475V4.1952C14.2535 4.63005 14.3658 5.0204 14.5903 5.36903C14.8158 5.71673 15.1008 5.98469 15.4452 6.17291C15.7906 6.36113 16.1725 6.46219 16.5918 6.47703C17.0264 6.49186 17.439 6.38987 17.8295 6.17291L18.1211 6.02085C18.173 5.98601 18.2328 5.96384 18.2955 5.95625C18.3581 5.94866 18.4218 5.95587 18.4809 5.97727C18.6152 6.00601 18.7131 6.07092 18.7736 6.17198L20.5027 9.00555C20.5624 9.11954 20.5784 9.25028 20.5478 9.37457C20.5332 9.43154 20.5053 9.48457 20.4665 9.52969C20.4276 9.57481 20.3787 9.61085 20.3233 9.63511L20.0086 9.80942C19.6351 10.0105 19.3304 10.3124 19.1317 10.6782C18.9403 11.0263 18.8399 11.4143 18.839 11.8085C18.839 12.1997 18.9369 12.5762 19.1317 12.9387C19.3264 13.3003 19.6191 13.5905 20.0086 13.8075L20.3233 13.9818C20.381 14.0085 20.4313 14.048 20.4703 14.0969C20.5093 14.1459 20.5358 14.203 20.5478 14.2637C20.5776 14.381 20.5616 14.5048 20.5027 14.6114L18.5694 17.8287C18.5038 17.9342 18.3992 18.0117 18.2768 18.0457C18.2155 18.0598 18.1517 18.0613 18.0898 18.0501C18.0278 18.0389 17.9689 18.0153 17.917 17.9808L17.6244 17.8278C17.2506 17.6144 16.8215 17.5089 16.3876 17.5237C15.9855 17.5335 15.592 17.6379 15.2411 17.8278C14.8957 18.016 14.6117 18.284 14.3871 18.6317C14.1608 18.9837 14.0436 19.3911 14.0494 19.8055V20.1532C14.0494 20.283 13.9966 20.3924 13.8921 20.4796C13.8479 20.5224 13.7952 20.5559 13.7371 20.5783C13.679 20.6006 13.6168 20.6112 13.5543 20.6094H10.2513C10.1189 20.6104 9.99079 20.5642 9.8915 20.4796C9.84723 20.4369 9.81248 20.386 9.78938 20.3298C9.76627 20.2737 9.75532 20.2136 9.75718 20.1532V19.8055C9.75718 19.3707 9.64396 18.9803 9.41945 18.6317C9.20951 18.2981 8.91536 18.0215 8.56457 17.8278C8.20616 17.6359 7.80466 17.5315 7.39499 17.5237C6.96865 17.5109 6.54746 17.6164 6.18127 17.8278L5.88864 17.9799C5.83268 18.0151 5.76991 18.0391 5.70411 18.0502C5.63831 18.0614 5.57085 18.0595 5.50581 18.0448C5.39226 18.0059 5.29692 17.9289 5.23716 17.8278L3.50702 14.9952C3.4482 14.8886 3.43214 14.7648 3.46193 14.6475C3.47393 14.5868 3.5005 14.5297 3.53949 14.4807C3.57849 14.4318 3.62882 14.3923 3.68644 14.3656L4.00114 14.1913C4.39068 13.9743 4.68332 13.6841 4.87809 13.3225C5.07286 12.9609 5.17072 12.5835 5.17072 12.1923C5.17072 11.801 5.07286 11.4245 4.87809 11.062C4.67938 10.6962 4.37463 10.3943 4.00114 10.1932L3.68644 10.0189C3.63111 9.99465 3.58218 9.9586 3.5433 9.91348C3.50442 9.86836 3.4766 9.81534 3.46193 9.75836C3.43136 9.63407 3.44734 9.50333 3.50702 9.38934L5.44033 6.17197C5.46869 6.12293 5.50745 6.08023 5.55408 6.04667C5.60071 6.01312 5.65415 5.98946 5.7109 5.97726C5.77371 5.95552 5.84087 5.94814 5.90713 5.95571C5.97338 5.96327 6.03693 5.98556 6.09276 6.02084L6.3854 6.1729C6.77494 6.38986 7.17983 6.49185 7.59912 6.47702C8.03375 6.46218 8.42425 6.36112 8.7687 6.1729C9.1141 5.98468 9.3981 5.71672 9.62262 5.36902C9.84809 5.02133 9.96035 4.63005 9.96035 4.1952V3.8475Z" fill="white"/>
</svg>
