<svg width="24" height="24" viewBox="0 0 24 24" fill="none" xmlns="http://www.w3.org/2000/svg">
<path d="M13.7976 12.2113C15.255 11.2819 16.2239 9.64147 16.2239 7.77146C16.2239 4.87392 13.8977 2.52454 11.0275 2.52454C8.15727 2.52454 5.83115 4.87392 5.83115 7.77146C5.83115 9.63944 6.798 11.2799 8.25537 12.2103C7.58383 12.4288 6.93656 12.7271 6.32873 13.1003C5.03015 13.8983 3.95305 15.0148 3.19655 16.3458C2.44006 17.6767 2.02844 19.1796 2.00012 20.7138C1.99304 21.1113 2.30656 21.441 2.70099 21.4491C3.09542 21.4572 3.42108 21.1426 3.42816 20.7452C3.45142 19.4527 3.79831 18.1864 4.43648 17.0648C5.07465 15.9432 5.98184 15.0027 7.07613 14.3301C8.16941 13.6576 9.41439 13.2753 10.6927 13.2176C11.9711 13.16 13.2434 13.43 14.3913 14.0014C14.7453 14.1774 15.1731 14.0318 15.347 13.6758C15.521 13.3198 15.3743 12.8879 15.0204 12.7109C14.6249 12.5137 14.2163 12.3469 13.7986 12.2103L13.7976 12.2113ZM14.7898 7.77146C14.7898 9.89026 13.0927 11.5843 11.0275 11.5843C8.96231 11.5843 7.26525 9.89026 7.26525 7.77146C7.26525 5.65267 8.96231 3.95864 11.0275 3.95864C13.0927 3.95864 14.7898 5.65267 14.7898 7.77146Z" fill="white"/>
<path d="M13.6166 16.7837C13.655 16.5804 13.9483 16.5753 13.9938 16.7766L14.365 18.4049C14.3812 18.4767 14.4378 18.5323 14.5116 18.5485L16.059 18.8883C16.2613 18.9328 16.2593 19.218 16.056 19.2585L14.5147 19.571C14.4408 19.5862 14.3822 19.6418 14.366 19.7146L13.9958 21.3277C13.9493 21.529 13.657 21.5229 13.6186 21.3206L13.3172 19.7257C13.3021 19.6468 13.2393 19.5862 13.1595 19.573L11.605 19.3171C11.3997 19.2828 11.3876 18.9965 11.5888 18.946L13.1716 18.5505C13.2444 18.5323 13.3 18.4737 13.3132 18.4008L13.6166 16.7817V16.7837Z" fill="white"/>
<path d="M18.6076 12.4065C18.5621 12.2053 18.2678 12.2103 18.2304 12.4136L17.7399 15.027C17.7257 15.0998 17.6711 15.1584 17.5973 15.1766L15.0426 15.8148C14.8403 15.8654 14.8525 16.1516 15.0578 16.185L17.5831 16.6006C17.663 16.6138 17.7257 16.6745 17.7409 16.7533L18.2284 19.3343C18.2668 19.5366 18.5601 19.5427 18.6056 19.3414L19.2023 16.7422C19.2195 16.6694 19.2772 16.6138 19.351 16.5986L21.846 16.0929C22.0493 16.0515 22.0523 15.7663 21.849 15.7228L19.348 15.1736C19.2751 15.1574 19.2185 15.1018 19.2013 15.03L18.6036 12.4075L18.6076 12.4065Z" fill="white"/>
</svg>
