<svg width="24" height="24" viewBox="0 0 24 24" fill="none" xmlns="http://www.w3.org/2000/svg">
<path fill-rule="evenodd" clip-rule="evenodd" d="M10.9796 2.71042C11.3301 1.76319 12.6699 1.76319 13.0204 2.71042L13.4612 3.9017C13.508 3.90987 13.5546 3.91844 13.6011 3.92741C13.682 3.7743 13.8025 3.6506 13.9386 3.55173C14.2559 3.32123 14.6892 3.20234 15.0467 3.15073C15.292 3.11531 15.5171 3.29476 15.5325 3.54614C15.5506 3.84138 15.5298 4.19797 15.4167 4.51052C16.0584 4.80801 16.6328 5.19934 17.1394 5.68406C17.5769 6.09419 17.9541 6.5736 18.2701 7.12148C18.7649 6.74228 19.5683 6.89197 19.8194 7.57054L20.0724 8.25433C20.1737 8.52805 20.3895 8.74386 20.6632 8.84515L21.347 9.09818C22.2177 9.42033 22.2177 10.6517 21.347 10.9739L20.6632 11.2269C20.3895 11.3282 20.1737 11.544 20.0724 11.8177L19.8194 12.5015C19.7065 12.8065 19.4821 13.0047 19.2242 13.096C19.143 13.9432 18.9996 14.7319 18.7936 15.4627C18.4529 16.6708 17.969 17.7151 17.3417 18.5988C16.7441 19.4673 15.9813 20.208 15.0955 20.78C14.2036 21.3449 13.22 21.7498 12.1896 21.9767C12.0585 22.0077 11.9223 22.0077 11.7911 21.9769C10.683 21.7495 9.69296 21.3727 8.82376 20.8456C7.93892 20.3168 7.17267 19.609 6.57633 18.7679C5.96178 17.8976 5.50037 16.8507 5.18692 15.6298C4.98115 14.8609 4.84036 14.0151 4.76419 13.0918C4.51121 12.9987 4.29177 12.8019 4.1806 12.5015L3.92758 11.8177C3.82629 11.544 3.61048 11.3282 3.33676 11.2269L2.65296 10.9739C1.78235 10.6517 1.78235 9.42033 2.65296 9.09818L3.33676 8.84515C3.61048 8.74386 3.82629 8.52805 3.92758 8.25433L4.1806 7.57054C4.42907 6.89906 5.21839 6.74547 5.71429 7.10976C6.02531 6.56698 6.39351 6.09145 6.81953 5.68436C7.33976 5.19739 7.93486 4.79825 8.58005 4.50149C8.4698 4.19112 8.44961 3.83854 8.4675 3.54614C8.48287 3.29476 8.70799 3.11531 8.95332 3.15073C9.3108 3.20234 9.74414 3.32123 10.0614 3.55173C10.1961 3.64962 10.3156 3.77185 10.3965 3.92287C10.4444 3.91371 10.4925 3.90499 10.5407 3.8967L10.9796 2.71042ZM7.72895 6.95645C7.31898 7.40023 6.97201 7.95283 6.6878 8.6179C6.67538 8.64844 6.66322 8.67926 6.6513 8.71037C6.72668 8.7663 6.81029 8.8119 6.90015 8.84515L7.58395 9.09818C8.45457 9.42033 8.45457 10.6517 7.58395 10.9739L6.90015 11.2269C6.62643 11.3282 6.41062 11.544 6.30934 11.8177L6.23861 12.0089C6.27283 13.2554 6.41018 14.3333 6.65012 15.2443C6.94396 16.3083 7.34146 17.1864 7.84159 17.8802L7.84284 17.8819C8.29754 18.5453 8.88629 19.1058 9.57188 19.5277C10.2618 19.941 11.0639 20.2466 11.9784 20.4417C12.8083 20.2494 13.5994 19.9195 14.3203 19.4659C15.0412 19.0122 15.6322 18.4278 16.0939 17.712C16.6082 16.9886 17.013 16.1026 17.3085 15.053C17.5674 14.1684 17.718 13.1509 17.7586 12.0013L17.6907 11.8177C17.5894 11.544 17.3736 11.3282 17.0998 11.2269L16.4161 10.9739C15.5454 10.6517 15.5454 9.42033 16.4161 9.09818L17.0998 8.84515C17.1836 8.81417 17.2619 8.77247 17.3331 8.72168C17.3193 8.68695 17.3051 8.65255 17.2907 8.61849L17.2901 8.61723C17.0195 7.95315 16.6798 7.39959 16.2711 6.95642C16.154 7.1631 15.9644 7.33594 15.7022 7.43297L14.9524 7.71042C15.1295 7.81776 15.2558 7.97332 15.3437 8.14564C15.5208 8.49255 15.5539 8.92896 15.5325 9.27909C15.5171 9.53047 15.292 9.70992 15.0467 9.6745C14.6892 9.62288 14.2559 9.504 13.9386 9.2735C13.7777 9.15659 13.6385 9.00496 13.5609 8.81104C13.5502 8.78446 13.5409 8.75741 13.5328 8.72989L13.0204 10.1148C12.6699 11.062 11.3301 11.062 10.9796 10.1148L10.4672 8.7299C10.4591 8.75741 10.4498 8.78446 10.4391 8.81104C10.3615 9.00496 10.2223 9.15659 10.0614 9.2735C9.74414 9.504 9.3108 9.62288 8.95332 9.6745C8.70799 9.70992 8.48287 9.53047 8.4675 9.27909C8.44608 8.92896 8.47925 8.49255 8.65629 8.14564C8.74422 7.97332 8.87052 7.81776 9.04763 7.71042L8.29782 7.43297C8.03562 7.33594 7.84599 7.16311 7.72895 6.95645ZM12 7.39696C12.5436 7.39696 12.9844 6.95625 12.9844 6.4126C12.9844 5.86895 12.5436 5.42823 12 5.42823C11.4564 5.42823 11.0156 5.86895 11.0156 6.4126C11.0156 6.95625 11.4564 7.39696 12 7.39696ZM5.86846 10.036C5.86846 10.4503 5.53267 10.786 5.11846 10.786C4.70424 10.786 4.36846 10.4503 4.36846 10.036C4.36846 9.62183 4.70424 9.28604 5.11846 9.28604C5.53267 9.28604 5.86846 9.62183 5.86846 10.036ZM18.8815 10.786C19.2958 10.786 19.6315 10.4503 19.6315 10.036C19.6315 9.62183 19.2958 9.28604 18.8815 9.28604C18.4673 9.28604 18.1315 9.62183 18.1315 10.036C18.1315 10.4503 18.4673 10.786 18.8815 10.786Z" fill="white"/>
</svg>
