<svg width="24" height="24" viewBox="0 0 24 24" fill="none" xmlns="http://www.w3.org/2000/svg">
<path d="M7.68182 18.4037C7.41155 18.7094 7.40814 19.1869 7.72869 19.4711C8.0285 19.756 8.49822 19.7025 8.76385 19.4291L11.902 15.9164L13.2184 19.1932C13.3627 19.5521 13.7741 19.7811 14.1655 19.6124C14.5644 19.4669 14.7294 19.0011 14.579 18.6334L12.988 14.6962L16.3381 10.9562C16.6186 10.6535 16.5651 10.1818 16.299 9.91126C16.0009 9.63465 15.5031 9.63783 15.2338 9.95521L12.3676 13.1552L11.1764 10.1869C11.1137 10.0138 10.9848 9.87684 10.8273 9.79457C10.6393 9.69642 10.4106 9.67665 10.2055 9.76698C9.83514 9.92445 9.65716 10.3729 9.81488 10.7445L11.2817 14.3925L7.68182 18.4037Z" fill="white"/>
<path d="M2.01385 18.7786C1.95379 19.1394 2.16815 19.5779 2.59222 19.6406C3.01263 19.7424 3.38153 19.438 3.46429 19.0586L3.71356 17.8496L3.71405 17.8462C3.82513 17.2458 3.94305 16.6458 4.06756 16.0481C4.22454 15.2791 4.38397 14.5107 4.54632 13.7429L4.54681 13.7407C4.65448 13.1948 4.76507 12.6494 4.8786 12.1045C4.94061 11.8062 5.0036 11.5081 5.06732 11.2102H8.02948C8.19061 11.2156 8.3349 11.168 8.45233 11.0857C8.64837 10.9482 8.76995 10.7136 8.76995 10.4644C8.76995 10.0649 8.46209 9.70337 8.02948 9.71777H5.3891C5.59442 8.73389 5.83587 7.99829 6.10662 7.50195C6.40667 6.97412 6.71136 6.59961 7.01702 6.36646C7.18914 6.24268 7.37567 6.1416 7.57171 6.06567C7.7348 6.00244 7.90448 5.9563 8.07806 5.92871C8.50384 5.85913 8.99603 5.82324 9.55584 5.82324C9.9555 5.83057 10.2946 5.4668 10.2951 5.07666C10.2951 4.9397 10.2526 4.80933 10.1835 4.69775C10.1523 4.64722 10.1157 4.60059 10.0749 4.55884C9.94427 4.4248 9.76019 4.33008 9.55731 4.33008C8.97381 4.33105 8.39105 4.37402 7.81341 4.45874C7.20452 4.55225 6.62957 4.79858 6.13983 5.17505C5.61834 5.55518 5.17791 6.09961 4.81366 6.80054C4.55658 7.29785 4.33123 7.89941 4.1369 8.60376C4.05682 8.89429 3.98211 9.20239 3.91253 9.52783C3.90057 9.58667 3.8891 9.63818 3.87811 9.6853L3.8703 9.71777H2.75164C2.33294 9.70435 1.99969 10.0591 2.01141 10.4658C2.01043 10.8655 2.32562 11.2234 2.75067 11.2109H3.56805C3.39398 12.0479 3.22528 12.8442 3.06146 13.5996L3.06121 13.6016C2.89471 14.418 2.74188 15.1624 2.59979 15.8345L2.59954 15.8367C2.46942 16.4968 2.35736 17.0793 2.26287 17.5837L2.10833 18.3201L2.01483 18.7722L2.01385 18.7786Z" fill="white"/>
<path d="M19.0442 11.5969C19.0532 11.645 19.0571 11.6941 19.0559 11.7431V13.9541H21.2666C21.3606 13.9521 21.4541 13.9697 21.541 14.0054C21.5891 14.0251 21.6348 14.05 21.677 14.0798C21.7112 14.104 21.7434 14.1313 21.7727 14.1614C21.8474 14.2273 21.907 14.3086 21.9468 14.4001C21.9868 14.4914 22.0061 14.5903 22.0037 14.6899C22.0034 14.7895 21.9829 14.8879 21.9431 14.9792C21.9036 15.0705 21.8455 15.1526 21.7727 15.2207C21.7092 15.2839 21.6392 15.3327 21.5625 15.3669C21.4729 15.407 21.3743 15.427 21.2666 15.427H19.0559V17.6377C19.0557 17.7373 19.0352 17.8357 18.9954 17.927C18.9556 18.0183 18.8977 18.1003 18.825 18.1682C18.6875 18.3059 18.5183 18.3747 18.3189 18.3747C18.1038 18.3747 17.927 18.3059 17.7883 18.1682C17.6509 18.0151 17.582 17.8381 17.582 17.6377V15.427H15.3711C15.156 15.427 14.9793 15.3581 14.8406 15.2207C14.7031 15.0674 14.6343 14.8904 14.6343 14.6909C14.6306 14.5932 14.647 14.4956 14.6826 14.4043C14.718 14.313 14.7717 14.23 14.8406 14.1604C14.9104 14.0915 14.9934 14.0378 15.0845 14.0024C15.1758 13.9668 15.2735 13.9504 15.3711 13.9541H17.582V11.7431C17.5784 11.6455 17.5947 11.5478 17.6304 11.4565C17.6658 11.3655 17.7195 11.2825 17.7883 11.2126C17.8313 11.1701 17.8794 11.1333 17.9314 11.1033C17.9636 11.0845 17.9973 11.0681 18.0322 11.0547C18.0596 11.0439 18.0877 11.0349 18.116 11.0278C18.1821 11.011 18.2505 11.0039 18.3189 11.0063C18.4129 11.0044 18.5064 11.0217 18.5933 11.0571C18.6804 11.0928 18.759 11.1455 18.825 11.2126C18.9002 11.2788 18.9597 11.3606 18.9995 11.4521C19.0198 11.4988 19.0347 11.5473 19.0442 11.5969Z" fill="white"/>
</svg>
