<svg width="24" height="24" viewBox="0 0 24 24" fill="none" xmlns="http://www.w3.org/2000/svg">
<path d="M12.0002 12C14.7616 12 17.0002 9.76142 17.0002 7C17.0002 4.23858 14.7616 2 12.0002 2C9.23874 2 7.00017 4.23858 7.00017 7C7.00017 9.76142 9.23874 12 12.0002 12ZM12.0002 10.5C10.0672 10.5 8.50017 8.933 8.50017 7C8.50017 5.067 10.0672 3.5 12.0002 3.5C13.9332 3.5 15.5002 5.067 15.5002 7C15.5002 8.933 13.9332 10.5 12.0002 10.5Z" fill="white"/>
<path d="M19.4331 14.185C19.1135 14.4485 19.068 14.9212 19.3315 15.2408C20.2576 16.3642 20.5003 18.0666 20.5003 20.0002C20.5003 20.4144 20.8361 20.7502 21.2503 20.7502C21.6645 20.7502 22.0003 20.4144 22.0003 20.0002C22.0003 18.0417 21.7793 15.852 20.4889 14.2866C20.2254 13.967 19.7527 13.9215 19.4331 14.185Z" fill="white"/>
<path d="M4.66887 15.2408C4.93235 14.9212 4.88684 14.4485 4.56723 14.185C4.24762 13.9215 3.77493 13.967 3.51145 14.2866C2.22101 15.852 2 18.0417 2 20.0002C2 20.4144 2.33579 20.7502 2.75 20.7502C3.16421 20.7502 3.5 20.4144 3.5 20.0002C3.5 18.0666 3.74271 16.3642 4.66887 15.2408Z" fill="white"/>
<path d="M18.5896 5.5151C18.2938 5.80501 18.289 6.27986 18.5789 6.57571C19.0657 7.07247 19.3645 7.75072 19.3645 8.50027C19.3645 9.80996 18.4483 10.9074 17.2211 11.1833C16.817 11.2742 16.563 11.6755 16.6539 12.0796C16.7447 12.4837 17.146 12.7377 17.5501 12.6468C19.447 12.2203 20.8645 10.5267 20.8645 8.50027C20.8645 7.34252 20.4006 6.29163 19.6502 5.52586C19.3603 5.23001 18.8855 5.22519 18.5896 5.5151Z" fill="white"/>
<path d="M5.58549 6.57571C5.87539 6.27986 5.87058 5.80501 5.57473 5.5151C5.27888 5.22519 4.80403 5.23001 4.51412 5.52586C3.76373 6.29163 3.2998 7.34252 3.2998 8.50027C3.2998 10.5267 4.71734 12.2203 6.61422 12.6468C7.01835 12.7377 7.41961 12.4837 7.51047 12.0796C7.60133 11.6755 7.34738 11.2742 6.94326 11.1833C5.71608 10.9074 4.7998 9.80996 4.7998 8.50027C4.7998 7.75072 5.0987 7.07247 5.58549 6.57571Z" fill="white"/>
<path d="M7.63142 17.575C6.94231 18.4938 6.75017 19.7797 6.75017 21.25C6.75017 21.6642 6.41438 22 6.00017 22C5.58595 22 5.25017 21.6642 5.25017 21.25C5.25017 19.7203 5.43302 18.0062 6.43142 16.675C7.4651 15.2968 9.23324 14.5 12.0002 14.5C14.7672 14.5 16.5353 15.2968 17.569 16.675C18.5673 18.0062 18.7502 19.7203 18.7502 21.25C18.7502 21.6642 18.4144 22 18.0002 22C17.586 22 17.2502 21.6642 17.2502 21.25C17.2502 19.7797 17.058 18.4938 16.3689 17.575C15.7151 16.7032 14.4833 16 12.0002 16C9.51714 16 8.28526 16.7032 7.63142 17.575Z" fill="white"/>
</svg>
