<svg width="24" height="24" viewBox="0 0 24 24" fill="none" xmlns="http://www.w3.org/2000/svg">
<path d="M9.00198 6.005V10.993C9.00198 12.102 9.39198 13.046 10.173 13.827C10.954 14.608 11.898 14.998 13.007 14.998H17.995C19.104 14.998 20.048 14.608 20.829 13.827C21.61 13.046 22 12.102 22 10.993V6.005C22 4.896 21.61 3.952 20.829 3.171C20.048 2.39 19.103 2 17.995 2H13.007C11.898 2 10.954 2.39 10.173 3.171C9.39198 3.952 9.00198 4.897 9.00198 6.005ZM17.995 3.499C18.682 3.499 19.267 3.749 19.752 4.248C20.252 4.733 20.501 5.317 20.501 6.005V10.993C20.501 11.695 20.251 12.289 19.752 12.773C19.524 13.008 19.251 13.193 18.949 13.318C18.647 13.443 18.322 13.505 17.995 13.499H13.007C12.305 13.499 11.711 13.257 11.227 12.773C10.742 12.289 10.501 11.696 10.501 10.994V6.005C10.501 5.318 10.743 4.733 11.227 4.248C11.711 3.748 12.304 3.499 13.006 3.499H17.995Z" fill="white"/>
<path d="M3.49898 12.492C3.49898 11.665 3.78898 10.962 4.36498 10.384C4.95898 9.791 5.66898 9.495 6.49598 9.495H7.01198C7.21498 9.495 7.38698 9.425 7.52698 9.285C7.60298 9.218 7.66398 9.135 7.70498 9.041C7.74598 8.947 7.76498 8.847 7.76198 8.745C7.76298 8.647 7.74198 8.551 7.70198 8.462C7.66198 8.373 7.60198 8.294 7.52698 8.231C7.46398 8.157 7.38498 8.097 7.29598 8.056C7.20698 8.015 7.10998 7.995 7.01298 7.996H6.49698C5.26398 7.996 4.20198 8.442 3.31298 9.331C2.43898 10.205 2.00098 11.259 2.00098 12.492V17.246C2.00098 17.901 2.12598 18.518 2.37598 19.097C2.62598 19.675 2.96198 20.181 3.38298 20.619C3.82098 21.041 4.32698 21.376 4.90498 21.626C5.48398 21.876 6.09998 22.001 6.75598 22.001H11.815C12.97 22.001 13.953 21.595 14.766 20.783C15.593 19.956 16.007 18.964 16.007 17.808V16.989C16.008 16.891 15.987 16.794 15.947 16.706C15.907 16.618 15.847 16.538 15.772 16.475C15.709 16.4 15.63 16.341 15.541 16.3C15.452 16.259 15.355 16.239 15.258 16.24C15.156 16.237 15.055 16.257 14.962 16.297C14.869 16.337 14.786 16.398 14.718 16.475C14.65 16.542 14.596 16.622 14.56 16.711C14.524 16.8 14.506 16.894 14.508 16.99V17.809C14.508 18.543 14.242 19.176 13.712 19.706C13.182 20.236 12.549 20.502 11.815 20.502H6.75698C5.86798 20.502 5.10198 20.182 4.46198 19.542C3.82198 18.902 3.50298 18.137 3.50298 17.247L3.50198 12.493L3.49898 12.492Z" fill="white"/>
</svg>
