<svg width="24" height="24" viewBox="0 0 24 24" fill="none" xmlns="http://www.w3.org/2000/svg">
<path d="M13.6376 5.67805V2.76905C13.6376 2.34305 13.9826 1.99805 14.4086 1.99805C14.5216 1.99805 14.6296 2.02305 14.7266 2.06705C14.8176 2.10505 14.9026 2.16005 14.9766 2.23405L21.7486 9.00605C21.7996 9.05705 21.8426 9.11405 21.8766 9.17405C21.9506 9.29305 21.9946 9.43305 21.9946 9.58305C21.9946 10.009 21.6496 10.354 21.2236 10.354H18.3146L14.0696 14.599L13.1276 20.546C13.0686 20.921 12.7486 21.189 12.3816 21.196C12.1756 21.203 11.9676 21.128 11.8106 20.971L7.96661 17.127L3.32161 21.772C3.02061 22.073 2.53261 22.073 2.23161 21.772C1.93061 21.471 1.93061 20.983 2.23161 20.682L6.87661 16.037L3.03261 12.193C2.97861 12.139 2.93461 12.079 2.89961 12.016C2.85161 11.935 2.81761 11.843 2.80161 11.744C2.73461 11.324 3.02161 10.929 3.44261 10.862L9.39261 9.92005L13.6366 5.67605L13.6376 5.67805ZM15.1786 4.61705V5.99805C15.1786 6.21505 15.0886 6.41105 14.9446 6.55105L14.9436 6.55205L10.2986 11.197C10.1536 11.342 9.96461 11.418 9.77361 11.422L5.16861 12.151L11.8386 18.821L12.5696 14.207C12.5766 14.02 12.6516 13.836 12.7946 13.693L17.4476 9.04005C17.5876 8.90005 17.7806 8.81305 17.9936 8.81305H19.3746L15.1776 4.61605L15.1786 4.61705Z" fill="white"/>
</svg>
