<svg width="24" height="24" viewBox="0 0 24 24" fill="none" xmlns="http://www.w3.org/2000/svg">
<path d="M6.00891 3.499C5.32191 3.499 4.72891 3.749 4.22891 4.248C3.99391 4.476 3.80891 4.749 3.68391 5.051C3.55891 5.353 3.49691 5.678 3.50291 6.005V17.995C3.50291 18.682 3.74491 19.275 4.22891 19.775C4.72891 20.26 5.32091 20.501 6.00891 20.501H17.9989C18.6859 20.501 19.2709 20.259 19.7559 19.775C20.2559 19.275 20.5049 18.683 20.5049 17.995V6.005C20.5049 5.318 20.2549 4.733 19.7559 4.248C19.2709 3.748 18.6869 3.499 17.9989 3.499H6.00891ZM2.00391 6.005C2.00391 4.896 2.39391 3.952 3.17491 3.171C3.95591 2.39 4.90091 2 6.00891 2H17.9989C19.1079 2 20.0519 2.39 20.8329 3.171C21.6139 3.952 22.0039 4.897 22.0039 6.005V17.995C22.0039 19.104 21.6139 20.048 20.8329 20.829C20.0519 21.61 19.1069 22 17.9989 22H6.00891C4.89991 22 3.95591 21.61 3.17491 20.829C2.39391 20.048 2.00391 19.103 2.00391 17.995V6.005Z" fill="white"/>
<path d="M7.51591 16.005H16.5089V7.012H7.51591V16.005ZM6.01691 6.52C6.01691 6.239 6.11091 6.004 6.29791 5.818C6.39191 5.72 6.50491 5.643 6.62991 5.59C6.75491 5.537 6.88891 5.511 7.02491 5.513H17.0009C17.2819 5.513 17.5169 5.615 17.7029 5.818C17.8009 5.906 17.8799 6.015 17.9319 6.136C17.9839 6.257 18.0099 6.388 18.0069 6.521V16.497C18.0089 16.633 17.9819 16.767 17.9299 16.892C17.8779 17.017 17.7999 17.13 17.7019 17.224C17.6099 17.316 17.5009 17.389 17.3799 17.437C17.2589 17.485 17.1299 17.508 16.9999 17.505H7.02391C6.74291 17.505 6.49991 17.411 6.29791 17.224C6.11291 17.028 6.01291 16.767 6.01691 16.498V6.52Z" fill="white"/>
</svg>
