<svg width="24" height="24" viewBox="0 0 24 24" fill="none" xmlns="http://www.w3.org/2000/svg">
<path d="M10.0254 4.35366C10.0254 3.25117 10.9191 2.35742 12.0216 2.35742H20.003C21.1055 2.35742 21.9992 3.25117 21.9992 4.35366V12.335C21.9992 13.4375 21.1055 14.3312 20.003 14.3312H18.0043V16.1018C18.0043 17.2042 17.1106 18.098 16.0081 18.098H13.9784V19.6463C13.9784 20.7488 13.0846 21.6426 11.9821 21.6426H3.99721C2.89472 21.6426 2.00098 20.7488 2.00098 19.6463V11.6614C2.00098 10.5589 2.89472 9.66517 3.99721 9.66517H6.03049V8.12042C6.03049 7.01793 6.92423 6.12418 8.02672 6.12418H10.0254V4.35366ZM11.5198 6.12418H16.0081C17.1106 6.12418 18.0043 7.01793 18.0043 8.12042V12.8436C18.0451 12.8385 18.0867 12.8359 18.1288 12.8359H19.5057C20.0569 12.8359 20.5038 12.389 20.5038 11.8377V4.85092C20.5038 4.29967 20.0569 3.8528 19.5057 3.8528H12.5189C11.9676 3.8528 11.5208 4.29967 11.5208 4.85092V6.0802C11.5208 6.09495 11.5204 6.10961 11.5198 6.12418ZM11.9821 9.66517C13.0846 9.66517 13.9784 10.5589 13.9784 11.6614V16.6026H15.5108C16.062 16.6026 16.5089 16.1557 16.5089 15.6045V8.61768C16.5089 8.06643 16.062 7.61956 15.5108 7.61956H8.52398C7.97273 7.61956 7.52586 8.06643 7.52586 8.61768V9.66517H11.9821ZM12.1167 13.4027C12.1167 13.1842 12.0389 13.0045 11.8822 12.8648H11.8842C11.8134 12.7949 11.7291 12.7402 11.6364 12.7042C11.5437 12.6681 11.4446 12.6515 11.3452 12.6551C11.1426 12.6551 10.9709 12.726 10.8312 12.8658L7.14604 16.5479C7.09913 16.5948 7.02926 16.6177 6.93544 16.6177C6.85759 16.6177 6.78772 16.5948 6.72584 16.5479L5.15016 14.9483C5.07939 14.8784 4.99505 14.8237 4.90236 14.7877C4.80966 14.7516 4.71057 14.735 4.61118 14.7387C4.40856 14.7387 4.23689 14.8085 4.09715 14.9483C3.94045 15.105 3.86259 15.2846 3.86259 15.4872C3.86278 15.5883 3.88368 15.6883 3.92403 15.781C3.96437 15.8737 4.02329 15.9572 4.09715 16.0262L6.5851 18.5132C6.63102 18.5592 6.68588 18.5954 6.74631 18.6194C6.80673 18.6434 6.87144 18.6548 6.93644 18.6529C7.00111 18.6546 7.06544 18.643 7.1255 18.619C7.18556 18.595 7.2401 18.559 7.28578 18.5132L11.8822 13.9168C11.9566 13.8535 12.0162 13.7747 12.0567 13.6859C12.0972 13.597 12.1177 13.5004 12.1167 13.4027Z" fill="white"/>
</svg>
