<svg width="24" height="24" viewBox="0 0 24 24" fill="none" xmlns="http://www.w3.org/2000/svg">
<path d="M6.54398 18.535L18.534 6.545C18.67 6.399 18.746 6.206 18.744 6.005C18.746 5.805 18.671 5.612 18.534 5.465C18.388 5.329 18.194 5.253 17.994 5.255C17.794 5.253 17.601 5.328 17.454 5.465L5.46398 17.455C5.32798 17.601 5.25198 17.795 5.25398 17.995C5.25398 18.198 5.32398 18.378 5.46398 18.535C5.62098 18.675 5.80098 18.745 6.00398 18.745C6.20698 18.745 6.38698 18.675 6.54398 18.535Z" fill="white"/>
<path d="M18.744 10.01C18.744 9.791 18.674 9.611 18.534 9.471C18.377 9.331 18.197 9.26 17.994 9.26C17.794 9.259 17.601 9.334 17.455 9.471L9.46798 17.456C9.32798 17.613 9.25798 17.793 9.25798 17.996C9.25698 18.196 9.33198 18.389 9.46898 18.536C9.53598 18.604 9.61598 18.658 9.70498 18.694C9.79398 18.73 9.88798 18.748 9.98398 18.746C10.083 18.749 10.182 18.733 10.275 18.696C10.368 18.659 10.452 18.605 10.523 18.535L18.534 10.525C18.674 10.385 18.744 10.213 18.744 10.01Z" fill="white"/>
<path d="M18.534 13.476C18.674 13.616 18.745 13.796 18.745 14.015C18.745 14.218 18.675 14.39 18.535 14.53L14.528 18.536C14.457 18.606 14.373 18.661 14.28 18.697C14.187 18.733 14.088 18.75 13.989 18.747C13.893 18.749 13.799 18.731 13.71 18.695C13.621 18.659 13.541 18.605 13.474 18.537C13.4 18.468 13.341 18.384 13.301 18.292C13.261 18.2 13.24 18.099 13.239 17.998C13.239 17.795 13.317 17.615 13.474 17.458L17.455 13.478C17.524 13.404 17.607 13.345 17.7 13.305C17.793 13.265 17.893 13.244 17.994 13.243C18.197 13.243 18.377 13.32 18.534 13.477V13.476Z" fill="white"/>
<path d="M14.74 6.005C14.741 6.205 14.666 6.398 14.529 6.544L6.54298 14.532C6.38598 14.672 6.20598 14.742 6.00298 14.742C5.79998 14.742 5.61998 14.671 5.46298 14.531C5.32298 14.391 5.25298 14.219 5.25298 14.016C5.24998 13.917 5.26598 13.818 5.30298 13.725C5.33998 13.632 5.39398 13.548 5.46398 13.477L13.475 5.465C13.542 5.397 13.622 5.343 13.711 5.307C13.8 5.271 13.894 5.253 13.99 5.255C14.089 5.251 14.189 5.268 14.281 5.304C14.373 5.34 14.458 5.395 14.529 5.465C14.665 5.611 14.742 5.804 14.74 6.005Z" fill="white"/>
<path d="M10.524 6.543C10.598 6.474 10.657 6.391 10.697 6.298C10.737 6.205 10.758 6.105 10.759 6.004C10.759 5.903 10.738 5.803 10.698 5.71C10.658 5.617 10.599 5.534 10.525 5.465C10.454 5.395 10.37 5.341 10.277 5.304C10.184 5.267 10.085 5.251 9.98598 5.255C9.88998 5.253 9.79498 5.271 9.70698 5.307C9.61898 5.343 9.53798 5.397 9.47098 5.465L5.46498 9.472C5.39498 9.543 5.33998 9.627 5.30398 9.719C5.26798 9.811 5.25098 9.911 5.25398 10.01C5.25398 10.213 5.32398 10.385 5.46398 10.525C5.53298 10.599 5.61698 10.658 5.70898 10.698C5.80098 10.738 5.90198 10.759 6.00298 10.759C6.10398 10.759 6.20398 10.738 6.29698 10.698C6.38998 10.658 6.47298 10.599 6.54198 10.525L10.523 6.543H10.524Z" fill="white"/>
<path d="M2.00098 6.005V17.995C2.00098 19.104 2.39098 20.048 3.17098 20.829C3.95098 21.61 4.89698 22 6.00498 22H17.995C19.104 22 20.048 21.61 20.829 20.829C21.61 20.048 22 19.103 22 17.995V6.005C22 4.896 21.61 3.952 20.829 3.171C20.048 2.39 19.103 2 17.995 2H6.00498C4.89598 2 3.95198 2.39 3.17098 3.171C2.38998 3.952 2.00098 4.897 2.00098 6.005ZM6.00498 3.499H17.995C18.682 3.499 19.267 3.749 19.752 4.248C20.252 4.733 20.501 5.317 20.501 6.005V17.995C20.501 18.682 20.251 19.275 19.752 19.775C19.524 20.01 19.251 20.195 18.949 20.32C18.647 20.445 18.322 20.507 17.995 20.501H6.00498C5.67498 20.505 5.34698 20.443 5.04198 20.318C4.73698 20.193 4.45898 20.008 4.22598 19.775C3.99198 19.542 3.80698 19.264 3.68298 18.959C3.55898 18.654 3.49598 18.326 3.49998 17.996V6.006C3.49998 5.319 3.74198 4.734 4.22598 4.249C4.72598 3.749 5.31798 3.5 6.00598 3.5L6.00498 3.499Z" fill="white"/>
</svg>
