<svg width="24" height="24" viewBox="0 0 24 24" fill="none" xmlns="http://www.w3.org/2000/svg">
<path d="M11.766 12.7694C11.8574 13.1636 11.6116 13.5568 11.2174 13.6472L6.55532 14.7231C6.16114 14.8145 5.76798 14.5686 5.67756 14.1745C5.58715 13.7803 5.83198 13.3871 6.22616 13.2967L10.8883 12.2198C11.2824 12.1284 11.6756 12.3742 11.766 12.7684V12.7694Z" fill="white"/>
<path d="M11.4348 15.5937C11.5263 15.9879 11.2804 16.3811 10.8862 16.4715L8.12798 17.1085C7.7338 17.1989 7.34064 16.954 7.25022 16.5599C7.1598 16.1657 7.40464 15.7725 7.79882 15.6821L10.5571 15.0451C10.9512 14.9537 11.3444 15.1995 11.4348 15.5937Z" fill="white"/>
<path d="M14.8158 18.1965L15.9689 18.4383C17.9439 18.8518 19.8812 17.59 20.3008 15.6161L21.9192 8.00067C22.3398 6.02266 21.077 4.0792 19.099 3.6586L15.1013 2.80929C13.1345 2.39072 11.2103 3.63727 10.7704 5.57769C10.1862 5.40498 9.55028 5.37653 8.91532 5.52384L4.83841 6.46459C2.86853 6.91973 1.64027 8.88555 2.09439 10.8554L3.84382 18.4332C4.29895 20.4031 6.26477 21.6314 8.23465 21.1772L12.3116 20.2365C13.4606 19.9713 14.3576 19.1921 14.8148 18.1975L14.8158 18.1965ZM12.1226 6.31119L12.1775 6.00235C12.3959 4.78019 13.5825 3.98167 14.7965 4.23971L18.7932 5.08903C19.9798 5.34098 20.7377 6.50726 20.4847 7.69488L18.8663 15.3103C18.6144 16.4948 17.4522 17.2517 16.2676 17.0038L15.148 16.7691C15.1562 16.4644 15.1267 16.1545 15.0546 15.8436L14.5578 13.6919L16.6953 14.1856C17.0895 14.2761 17.4826 14.0312 17.5731 13.637C17.6635 13.2429 17.4186 12.8497 17.0245 12.7593L14.2662 12.1223C14.2418 12.1162 14.2174 12.1121 14.1931 12.1091L13.9238 10.9408L17.6482 11.8002C18.0424 11.8917 18.4356 11.6458 18.526 11.2516C18.6164 10.8575 18.3716 10.4643 17.9774 10.3739L13.5571 9.35287L13.3062 8.26583C13.1233 7.47442 12.6956 6.80188 12.1226 6.31119ZM9.24448 6.95021C10.427 6.67692 11.6065 7.41448 11.8788 8.59601L13.6282 16.1738C13.9015 17.3563 13.1639 18.5358 11.9824 18.8081L7.90549 19.7489C6.72295 20.0221 5.54346 19.2846 5.27119 18.1031L3.52177 10.5253C3.24848 9.34271 3.98605 8.16322 5.16757 7.89095L9.24448 6.95021Z" fill="white"/>
</svg>
