<svg width="24" height="24" viewBox="0 0 24 24" fill="none" xmlns="http://www.w3.org/2000/svg">
<path d="M2.01038 3.26549C1.94187 3.67407 2.21958 4.06049 2.63066 4.12858L3.94994 4.34713C4.48893 4.43641 4.90824 4.86138 4.98753 5.39873L5.11275 6.2473L6.35403 14.9338C6.55871 16.3661 7.84486 17.3958 9.29645 17.2897L17.2888 16.6045C18.3675 16.5256 19.301 15.8292 19.6785 14.8218L21.8235 9.09837C22.4969 7.30149 21.1599 5.38846 19.2307 5.38846H6.51135L6.48075 5.18105C6.3063 3.9989 5.38382 3.06396 4.19805 2.86754L2.87877 2.64899C2.46769 2.5809 2.0789 2.85691 2.01038 3.26549ZM6.7287 6.88846H19.2307C20.1076 6.88846 20.7153 7.75802 20.4092 8.57478L20.4011 8.59641H6.97277L6.7287 6.88846ZM7.84823 14.7229L7.18711 10.0964H19.839L18.2643 14.2982C18.0927 14.7561 17.6683 15.0726 17.178 15.1085L9.18569 15.7937C8.52588 15.842 7.94126 15.3739 7.84823 14.7229Z" fill="white"/>
<path d="M10.6138 20.1109C10.6138 20.8013 10.0508 21.3609 9.35618 21.3609C8.66159 21.3609 8.09852 20.8013 8.09852 20.1109C8.09852 19.4206 8.66159 18.8609 9.35618 18.8609C10.0508 18.8609 10.6138 19.4206 10.6138 20.1109Z" fill="white"/>
<path d="M18.2929 20.1109C18.2929 20.8013 17.7298 21.3609 17.0353 21.3609C16.3407 21.3609 15.7776 20.8013 15.7776 20.1109C15.7776 19.4206 16.3407 18.8609 17.0353 18.8609C17.7298 18.8609 18.2929 19.4206 18.2929 20.1109Z" fill="white"/>
</svg>
