<svg width="24" height="24" viewBox="0 0 24 24" fill="none" xmlns="http://www.w3.org/2000/svg">
<path d="M16.0042 2.75C16.0042 2.969 16.0742 3.149 16.2142 3.29C16.3552 3.43 16.5352 3.5 16.7542 3.5H17.9952C18.6822 3.5 19.2672 3.75 19.7522 4.249C20.2522 4.734 20.5012 5.318 20.5012 6.006V6.755C20.5012 6.958 20.5712 7.138 20.7112 7.295C20.8522 7.435 21.0322 7.505 21.2512 7.505C21.4542 7.505 21.6262 7.435 21.7662 7.295C21.8402 7.226 21.8992 7.142 21.9392 7.05C21.9792 6.958 22.0002 6.857 22.0002 6.756V6.007C22.0002 4.898 21.6102 3.954 20.8292 3.173C20.0492 2.393 19.1032 2.002 17.9952 2.002H16.7542C16.6522 1.999 16.5512 2.019 16.4582 2.059C16.3652 2.099 16.2822 2.16 16.2142 2.237C16.1462 2.304 16.0922 2.384 16.0562 2.473C16.0202 2.562 16.0022 2.656 16.0042 2.752V2.75Z" fill="white"/>
<path d="M3.49817 16.238C3.50017 16.142 3.48217 16.048 3.44617 15.959C3.41017 15.87 3.35617 15.79 3.28817 15.723C3.22117 15.647 3.13817 15.586 3.04417 15.545C2.95017 15.504 2.85017 15.485 2.74817 15.488C2.64717 15.488 2.54717 15.509 2.45417 15.55C2.36117 15.591 2.27817 15.649 2.20917 15.723C2.14117 15.79 2.08717 15.87 2.05117 15.959C2.01517 16.048 1.99717 16.142 1.99917 16.238V17.995C1.99917 19.104 2.38917 20.048 3.16917 20.829C3.94917 21.61 4.89517 22 6.00317 22H7.24417C7.34417 22.004 7.44317 21.987 7.53617 21.95C7.62917 21.913 7.71317 21.859 7.78417 21.789C7.92017 21.643 7.99617 21.45 7.99417 21.249C7.99717 21.15 7.98117 21.051 7.94517 20.959C7.90917 20.867 7.85417 20.782 7.78517 20.712C7.71417 20.642 7.63017 20.587 7.53717 20.551C7.44417 20.515 7.34517 20.498 7.24517 20.501H6.00417C5.67417 20.505 5.34617 20.443 5.04117 20.318C4.73617 20.193 4.45817 20.008 4.22517 19.775C3.99117 19.542 3.80617 19.264 3.68217 18.959C3.55817 18.654 3.49517 18.326 3.49917 17.996V16.239L3.49817 16.238Z" fill="white"/>
<path d="M16.0542 20.959C16.0182 21.052 16.0012 21.151 16.0052 21.25C16.0032 21.45 16.0782 21.642 16.2152 21.789C16.2862 21.859 16.3702 21.914 16.4632 21.95C16.5562 21.986 16.6552 22.003 16.7552 22H17.9962C19.1042 22 20.0492 21.609 20.8302 20.829C21.6112 20.049 22.0012 19.104 22.0012 17.995V16.238C22.0012 16.035 21.9232 15.863 21.7662 15.723C21.6262 15.566 21.4542 15.488 21.2512 15.488C21.1492 15.485 21.0482 15.505 20.9552 15.545C20.8622 15.585 20.7792 15.646 20.7112 15.723C20.5712 15.863 20.5012 16.035 20.5012 16.238V17.995C20.5012 18.682 20.2512 19.275 19.7522 19.775C19.2672 20.26 18.6832 20.501 17.9952 20.501H16.7542C16.6542 20.497 16.5552 20.514 16.4632 20.55C16.3712 20.586 16.2862 20.641 16.2152 20.711C16.1452 20.782 16.0902 20.866 16.0542 20.959Z" fill="white"/>
<path d="M18.5342 6.544L6.54517 18.535C6.38817 18.675 6.20817 18.745 6.00517 18.745C5.80217 18.745 5.62217 18.675 5.46517 18.535C5.32517 18.378 5.25517 18.198 5.25517 17.995C5.25317 17.795 5.32817 17.602 5.46517 17.455L17.4552 5.465C17.6012 5.329 17.7952 5.253 17.9952 5.255C18.1952 5.253 18.3882 5.328 18.5352 5.465C18.6712 5.611 18.7472 5.804 18.7452 6.005C18.7462 6.205 18.6712 6.398 18.5342 6.544Z" fill="white"/>
<path d="M18.5342 9.472C18.6742 9.612 18.7452 9.792 18.7452 10.011C18.7452 10.214 18.6752 10.386 18.5352 10.526L10.5252 18.535C10.4542 18.605 10.3702 18.66 10.2782 18.696C10.1862 18.732 10.0862 18.749 9.98717 18.746C9.89117 18.748 9.79617 18.73 9.70817 18.694C9.62017 18.658 9.53917 18.604 9.47217 18.536C9.33517 18.39 9.26017 18.197 9.26117 17.996C9.26117 17.793 9.33117 17.613 9.47117 17.456L17.4572 9.472C17.6032 9.335 17.7952 9.259 17.9952 9.26C18.1982 9.26 18.3782 9.33 18.5352 9.47L18.5342 9.472Z" fill="white"/>
<path d="M18.7442 14.013C18.7442 13.794 18.6732 13.614 18.5332 13.474V13.476C18.3762 13.319 18.1962 13.241 17.9932 13.241C17.8922 13.241 17.7922 13.262 17.6992 13.303C17.6062 13.344 17.5232 13.402 17.4542 13.476L13.4732 17.456C13.3162 17.613 13.2382 17.793 13.2382 17.996C13.2382 18.097 13.2592 18.197 13.3002 18.29C13.3412 18.383 13.3992 18.466 13.4732 18.535C13.5402 18.603 13.6202 18.657 13.7092 18.693C13.7982 18.729 13.8922 18.747 13.9882 18.745C14.0872 18.748 14.1862 18.732 14.2792 18.695C14.3722 18.658 14.4562 18.604 14.5262 18.534L18.5332 14.527C18.6732 14.387 18.7432 14.215 18.7432 14.012L18.7442 14.013Z" fill="white"/>
<path d="M14.5282 5.465C14.6682 5.621 14.7392 5.801 14.7392 6.004C14.7392 6.207 14.6692 6.387 14.5292 6.544L6.54217 14.528C6.39617 14.665 6.20317 14.74 6.00317 14.739C5.80317 14.741 5.61017 14.666 5.46317 14.529C5.39517 14.462 5.34117 14.382 5.30517 14.293C5.26917 14.204 5.25117 14.109 5.25417 14.013C5.25017 13.913 5.26717 13.814 5.30317 13.722C5.33917 13.63 5.39417 13.545 5.46417 13.474L13.4742 5.466C13.6142 5.326 13.7862 5.255 13.9892 5.255C14.0892 5.251 14.1882 5.268 14.2812 5.304C14.3742 5.34 14.4582 5.396 14.5292 5.466L14.5282 5.465Z" fill="white"/>
<path d="M10.6972 5.71C10.6572 5.617 10.5982 5.534 10.5242 5.465L10.5262 5.466C10.4552 5.396 10.3712 5.341 10.2782 5.305C10.1852 5.269 10.0862 5.252 9.98717 5.256C9.78417 5.256 9.61217 5.327 9.47217 5.467L5.46617 9.469C5.39617 9.54 5.34117 9.624 5.30517 9.717C5.26917 9.81 5.25217 9.909 5.25617 10.008C5.25417 10.104 5.27217 10.198 5.30817 10.287C5.34417 10.376 5.39817 10.456 5.46617 10.523C5.53517 10.597 5.61917 10.656 5.71117 10.696C5.80317 10.736 5.90417 10.757 6.00517 10.757C6.10617 10.757 6.20617 10.736 6.29917 10.695C6.39217 10.654 6.47517 10.596 6.54417 10.522L10.5242 6.542C10.5982 6.473 10.6572 6.389 10.6972 6.297C10.7372 6.205 10.7582 6.104 10.7582 6.003C10.7582 5.902 10.7372 5.802 10.6962 5.709L10.6972 5.71Z" fill="white"/>
<path d="M7.24617 2C7.46517 2 7.64517 2.078 7.78617 2.235C7.92617 2.375 7.99617 2.547 7.99617 2.75C8.00017 2.85 7.98317 2.949 7.94717 3.041C7.91117 3.133 7.85617 3.218 7.78617 3.289C7.71517 3.359 7.63117 3.414 7.53817 3.45C7.44517 3.486 7.34617 3.503 7.24717 3.499H6.00617C5.31917 3.499 4.72617 3.749 4.22617 4.248C3.99117 4.476 3.80617 4.749 3.68117 5.051C3.55617 5.353 3.49417 5.678 3.50017 6.005V6.754C3.50017 6.957 3.43017 7.137 3.29017 7.294C3.21917 7.364 3.13517 7.419 3.04217 7.455C2.94917 7.491 2.85017 7.508 2.75117 7.504C2.55117 7.506 2.35917 7.43 2.21217 7.294C2.07617 7.148 2.00017 6.955 2.00217 6.754V6.005C2.00217 4.896 2.39217 3.952 3.17217 3.171C3.95217 2.39 4.89817 2 6.00617 2H7.24717H7.24617Z" fill="white"/>
</svg>
