<svg width="24" height="24" viewBox="0 0 24 24" fill="none" xmlns="http://www.w3.org/2000/svg">
<path d="M4.52482 7.06354L4.52203 7.06357C4.32904 7.06511 4.14271 6.99172 4.00182 6.86037L3.99933 6.85805C3.93142 6.7898 3.8783 6.70768 3.84416 6.617C3.81049 6.52754 3.79338 6.4324 3.79625 6.33676V5.65698C3.79625 4.65325 4.15493 3.79159 4.87192 3.07562C5.58898 2.35956 6.45663 2 7.47514 2L8.62071 2.00032L8.65837 2.00297C8.82906 2.01499 8.97685 2.08172 9.1001 2.20304L9.10308 2.20575C9.25352 2.34247 9.3288 2.5183 9.3288 2.72846C9.3288 2.82672 9.30851 2.92397 9.26894 3.01381C9.2299 3.10243 9.17401 3.18285 9.10329 3.24982L9.10104 3.25209C9.03606 3.31765 8.95848 3.36952 8.87251 3.40455C8.78623 3.4397 8.69455 3.45684 8.60081 3.45492H7.47514C6.85032 3.45492 6.32502 3.67014 5.8962 4.09895L5.89504 4.10012C5.68702 4.3015 5.52272 4.54364 5.41284 4.81104C5.30277 5.07891 5.2473 5.36713 5.25216 5.65617L5.25219 5.65783L5.25213 6.33381L5.25221 6.33673C5.25508 6.43592 5.23571 6.53288 5.19637 6.62325C5.15735 6.71289 5.0995 6.79316 5.027 6.85812L5.02299 6.86215C4.9583 6.92704 4.88122 6.9784 4.79588 7.01317C4.70979 7.04824 4.61834 7.06541 4.52482 7.06354Z" fill="white"/>
<path d="M16.8015 6.80564C16.8927 6.83996 16.9752 6.89355 17.0437 6.96207L17.0448 6.96316C17.1116 7.03226 17.1648 7.11414 17.1999 7.20364C17.2349 7.29271 17.2508 7.38788 17.2481 7.48388L17.2481 7.48754C17.2488 7.57979 17.2306 7.67165 17.1968 7.75607C17.1624 7.8422 17.1083 7.9208 17.0423 7.9858L7.99999 17.0281L8.00125 17.0306L7.9758 17.0553C7.90659 17.1224 7.82451 17.1757 7.73479 17.211C7.64549 17.246 7.55005 17.262 7.4538 17.2591L7.45104 17.2591C7.25636 17.2586 7.08728 17.1901 6.9519 17.0536C6.81677 16.9174 6.74819 16.7505 6.74772 16.5547L6.74764 16.552C6.74475 16.4557 6.76076 16.3603 6.79584 16.271C6.83108 16.1813 6.88451 16.099 6.95302 16.0305L16.0191 6.96242C16.0844 6.89614 16.1629 6.84335 16.2494 6.80811C16.335 6.77324 16.426 6.75616 16.5181 6.75777L16.5227 6.75765C16.6178 6.75498 16.7125 6.77213 16.8015 6.80564Z" fill="white"/>
<path d="M11.6083 17.0523C11.5392 17.1203 11.458 17.1737 11.3671 17.209C11.2774 17.2439 11.1826 17.2599 11.0868 17.2572L11.0822 17.2572C10.9902 17.2588 10.8982 17.2417 10.8134 17.2067C10.7295 17.1721 10.6528 17.121 10.5883 17.0565L10.5831 17.0517C10.5121 16.9901 10.4554 16.9149 10.4163 16.8284C10.3768 16.7407 10.3563 16.6464 10.3573 16.5508C10.3575 16.3401 10.4327 16.1647 10.5837 16.0282L16.0154 10.5966L16.0203 10.5913C16.0819 10.5203 16.1581 10.4625 16.2441 10.4243C16.3306 10.3858 16.4248 10.3654 16.5204 10.3664C16.7302 10.3665 16.9056 10.4418 17.0421 10.5928L17.0453 10.5962C17.1798 10.7321 17.2479 10.907 17.248 11.1151L17.2481 11.1172C17.25 11.2099 17.2329 11.3026 17.1976 11.3881C17.1623 11.4736 17.11 11.5516 17.0438 11.6168L11.6083 17.0523Z" fill="white"/>
<path d="M13.5001 7.05685L13.4728 7.02171L13.4131 6.96202C13.4024 6.9513 13.3913 6.94094 13.3799 6.93097C13.3507 6.90534 13.3193 6.88223 13.2861 6.86192C13.2497 6.83966 13.2112 6.82078 13.171 6.80564C13.0815 6.77195 12.9863 6.75481 12.8907 6.75769L12.8879 6.75777C12.6922 6.75824 12.5248 6.82723 12.3886 6.96236L6.95402 12.3969C6.8855 12.4655 6.8319 12.548 6.79758 12.6391C6.76407 12.7282 6.74692 12.8228 6.74959 12.918L6.74961 12.9226C6.74799 13.0146 6.76516 13.1068 6.80132 13.1919C6.83654 13.2748 6.88632 13.3525 6.95118 13.4165L6.95644 13.4221C7.0181 13.493 7.09398 13.5494 7.17802 13.5883C7.26361 13.6279 7.35858 13.6483 7.45362 13.6475L7.45631 13.6475C7.55384 13.6494 7.65166 13.6312 7.74238 13.5917C7.8323 13.5526 7.91174 13.4947 7.97658 13.4222L7.98042 13.4182L13.4135 7.98547C13.4847 7.92372 13.5412 7.84766 13.5802 7.76339C13.62 7.6773 13.6404 7.57989 13.6394 7.48444C13.6393 7.32015 13.5931 7.17659 13.5001 7.05685Z" fill="white"/>
<path d="M7.97479 9.81292L9.80362 7.98608C9.93923 7.84936 10.0083 7.68115 10.0083 7.48454C10.0083 7.27536 9.9397 7.09971 9.80399 6.96346L9.79979 6.9595C9.64925 6.82621 9.47601 6.75807 9.27985 6.75807C9.08793 6.75807 8.90127 6.83101 8.7609 6.96236L6.95256 8.76662L6.94849 8.77093C6.81529 8.92138 6.74717 9.09448 6.74708 9.29048C6.74611 9.48367 6.8183 9.67113 6.95115 9.81262L6.95188 9.81339C7.01639 9.88005 7.09474 9.93259 7.18147 9.96793C7.26706 10.0028 7.358 10.02 7.45008 10.0184L7.45471 10.0183C7.54949 10.021 7.64535 10.005 7.73419 9.97015C7.82391 9.9349 7.90627 9.88143 7.97479 9.81292Z" fill="white"/>
<path d="M14.5096 17.1244C14.4229 17.0891 14.3445 17.0366 14.28 16.9699L14.2793 16.9691C14.1464 16.8276 14.0743 16.6402 14.0752 16.447C14.0753 16.251 14.1434 16.0779 14.2766 15.9274L14.2807 15.9231L16.089 14.1189C16.2294 13.9875 16.4161 13.9146 16.608 13.9146C16.8042 13.9146 16.9774 13.9827 17.1279 14.116L17.1321 14.12C17.2679 14.2562 17.3365 14.4319 17.3365 14.641C17.3365 14.8376 17.2673 15.0059 17.1318 15.1426L15.3029 16.9695C15.2344 17.038 15.1521 17.0914 15.0623 17.1266C14.9735 17.1615 14.8776 17.1775 14.7829 17.1748L14.7782 17.1749C14.6862 17.1765 14.5952 17.1593 14.5096 17.1244Z" fill="white"/>
<path d="M19.475 7.06358L19.4778 7.06353C19.6708 7.06511 19.8571 6.99172 19.998 6.86037L20.0005 6.85807C20.0684 6.78981 20.1215 6.70769 20.1557 6.617C20.1893 6.52754 20.2065 6.4324 20.2036 6.33676L20.2035 6.33373L20.2036 5.65698C20.2036 4.65325 19.8449 3.79159 19.1279 3.07562C18.4108 2.35956 17.5432 2 16.5247 2H15.3794L15.3415 2.00297C15.1708 2.01499 15.0229 2.08166 14.8997 2.20298L14.8968 2.20581C14.7464 2.34253 14.671 2.5183 14.671 2.72846C14.671 2.82672 14.6913 2.92397 14.7309 3.01382C14.7699 3.10243 14.8258 3.18288 14.8965 3.24986L14.8988 3.25206C14.9638 3.31762 15.0413 3.36952 15.1273 3.40455C15.2136 3.4397 15.3053 3.45686 15.399 3.45494L15.4011 3.4549L16.5247 3.45492C17.1495 3.45492 17.6748 3.67014 18.1036 4.09895C18.3119 4.30045 18.477 4.54338 18.587 4.81104C18.6969 5.07864 18.7524 5.36655 18.7477 5.6553L18.7477 6.33673C18.7448 6.43592 18.7641 6.53288 18.8034 6.62324C18.8425 6.71289 18.9002 6.79328 18.9727 6.85824L18.9769 6.86204C19.0416 6.92692 19.1186 6.9784 19.2039 7.01317C19.29 7.04824 19.3815 7.06541 19.475 7.06358Z" fill="white"/>
<path d="M4.52203 16.9365L4.52482 16.9364C4.61834 16.9346 4.70979 16.9518 4.79588 16.9868C4.88122 17.0216 4.95818 17.0731 5.02287 17.138L5.02711 17.1418C5.0996 17.2067 5.15735 17.2871 5.19637 17.3768C5.23571 17.4671 5.25504 17.5641 5.25217 17.6633L5.25215 18.3447C5.24741 18.6334 5.30288 18.9214 5.41284 19.189C5.52282 19.4566 5.68792 19.6996 5.89623 19.9011C6.32504 20.3299 6.85034 20.5451 7.47514 20.5451L8.59874 20.5451L8.60081 20.5451C8.69455 20.5431 8.78623 20.5603 8.87251 20.5955C8.95848 20.6305 9.03602 20.6824 9.10101 20.7479L9.10333 20.7501C9.17405 20.8171 9.22991 20.8976 9.26894 20.9862C9.30851 21.076 9.3288 21.1733 9.3288 21.2715C9.3288 21.4817 9.25347 21.6575 9.10302 21.7942L9.10015 21.797C8.9769 21.9183 8.82906 21.985 8.65837 21.997L8.62038 22H7.47514C6.45663 22 5.58898 21.6404 4.87192 20.9244C4.15493 20.2084 3.79625 19.3468 3.79625 18.343L3.7963 17.6663L3.79621 17.6632C3.79334 17.5676 3.81049 17.4725 3.84416 17.383C3.8783 17.2923 3.93143 17.2102 3.99934 17.1419L4.00182 17.1396C4.14271 17.0083 4.32904 16.9349 4.52203 16.9365Z" fill="white"/>
<path d="M19.4778 16.9364L19.475 16.9365C19.3815 16.9346 19.29 16.9518 19.204 16.9868C19.1186 17.0216 19.0415 17.073 18.9768 17.1379L18.9728 17.1419C18.9003 17.2068 18.8425 17.2871 18.8035 17.3768C18.7641 17.4671 18.7447 17.5641 18.7476 17.6633L18.7477 17.6662L18.7477 18.3438C18.7524 18.6326 18.6969 18.9214 18.587 19.189C18.4771 19.4564 18.3128 19.6985 18.1048 19.8999L18.1036 19.901C17.6748 20.3298 17.1495 20.5451 16.5247 20.5451H15.399C15.3053 20.5432 15.2136 20.5603 15.1273 20.5955C15.0413 20.6305 14.9638 20.6823 14.8988 20.7479L14.8965 20.7502C14.8258 20.8172 14.7699 20.8976 14.7309 20.9862C14.6913 21.076 14.671 21.1733 14.671 21.2715C14.671 21.4817 14.7463 21.6575 14.8968 21.7943L14.8997 21.797C15.023 21.9183 15.1708 21.985 15.3415 21.997L15.3791 21.9997L16.5247 22C17.5432 22 18.4108 21.6404 19.1279 20.9244C19.8449 20.2084 20.2036 19.3468 20.2036 18.343V17.6632C20.2064 17.5676 20.1893 17.4725 20.1557 17.383C20.1215 17.2923 20.0684 17.2102 20.0005 17.1419L19.998 17.1396C19.8571 17.0083 19.6708 16.9349 19.4778 16.9364Z" fill="white"/>
</svg>
