<svg width="24" height="24" viewBox="0 0 24 24" fill="none" xmlns="http://www.w3.org/2000/svg">
<path d="M18.6321 2.81854C18.3778 2.55515 18.0723 2.34666 17.7344 2.20592C17.3964 2.06518 17.0332 1.99519 16.6672 2.00026C15.9028 2.00026 15.2482 2.27268 14.7023 2.81854L2.81855 14.7023C2.55504 14.9567 2.34648 15.2624 2.20573 15.6005C2.06499 15.9386 1.99507 16.302 2.00027 16.6682C2.00027 17.4316 2.2737 18.0852 2.81855 18.6321L5.36821 21.1817C5.91406 21.7266 6.56869 22 7.33308 22C8.09748 22 8.75211 21.7266 9.29796 21.1817L21.1817 9.29693C21.7266 8.75108 22 8.09646 22 7.33106C22 6.56767 21.7266 5.91404 21.1817 5.36719L18.6321 2.81854ZM15.7781 3.87033C16.0275 3.62085 16.3239 3.49612 16.6672 3.49612C17.0264 3.49612 17.3298 3.62085 17.5793 3.87033L20.1289 6.41998C20.3784 6.66945 20.5031 6.97381 20.5031 7.33206C20.5031 7.67534 20.3784 7.97072 20.1289 8.2202L19.7291 8.62048L18.0587 6.95007C17.913 6.81367 17.7205 6.73832 17.5209 6.73951C17.321 6.73779 17.1281 6.8128 16.982 6.94907C16.8457 7.09524 16.7707 7.28811 16.7724 7.48794C16.7724 7.69051 16.8423 7.87014 16.982 8.02681L18.6524 9.69622L17.6789 10.6696L17.0248 9.99251C16.8791 9.85611 16.6866 9.78076 16.4869 9.78196C16.2871 9.78024 16.0942 9.85524 15.9481 9.99152C15.8782 10.0623 15.8236 10.1466 15.7875 10.2393C15.7515 10.3319 15.7348 10.431 15.7385 10.5304C15.7385 10.733 15.8084 10.9046 15.9481 11.0443L16.6271 11.7234L15.6978 12.6528L14.0264 10.9814C13.9557 10.9116 13.8716 10.8571 13.7791 10.821C13.6866 10.785 13.5877 10.7682 13.4885 10.7718C13.3931 10.7698 13.2982 10.7874 13.2099 10.8234C13.1215 10.8595 13.0414 10.9132 12.9746 10.9814C12.8983 11.0484 12.8378 11.1315 12.7972 11.2246C12.7567 11.3178 12.7372 11.4187 12.7401 11.5202C12.7401 11.7228 12.8179 11.8944 12.9746 12.0341L14.646 13.7056L13.7623 14.5904L13.0726 13.9251C13.0056 13.849 12.9227 13.7885 12.8297 13.748C12.7368 13.7074 12.636 13.6879 12.5347 13.6906C12.4371 13.6896 12.3404 13.7101 12.2516 13.7506C12.1628 13.7912 12.084 13.8507 12.0208 13.9251C11.9446 13.9921 11.8842 14.075 11.8436 14.1679C11.8031 14.2609 11.7835 14.3616 11.7863 14.463C11.7863 14.6655 11.8641 14.8372 12.0208 14.9769L12.6988 15.655L11.7477 16.6061L10.0632 14.9226C9.99264 14.8527 9.90853 14.798 9.81603 14.7618C9.72353 14.7256 9.62461 14.7087 9.52533 14.7121C9.42991 14.7101 9.33508 14.7277 9.2467 14.7637C9.15832 14.7998 9.07825 14.8535 9.01141 14.9216C8.87477 15.0676 8.7994 15.2605 8.80085 15.4605C8.80085 15.6631 8.87071 15.8427 9.01041 15.9994L10.6949 17.6589L9.76769 18.5871L9.08911 17.9085C8.94335 17.7721 8.75086 17.6968 8.55124 17.698C8.35141 17.6962 8.15853 17.7713 8.01237 17.9075C7.87609 18.0537 7.80109 18.2466 7.80281 18.4464C7.80281 18.649 7.87266 18.8286 8.01237 18.9853L8.69094 19.6628L8.22322 20.1309C7.97374 20.3804 7.66938 20.5051 7.31013 20.5051C6.96785 20.5051 6.67147 20.3804 6.42199 20.1309L3.87234 17.5813C3.75266 17.4666 3.65772 17.3287 3.59336 17.1759C3.52901 17.0232 3.4966 16.8589 3.49813 16.6931C3.49813 16.3339 3.62287 16.0295 3.87234 15.7801L15.7781 3.87033Z" fill="white"/>
</svg>
