<svg width="24" height="24" viewBox="0 0 24 24" fill="none" xmlns="http://www.w3.org/2000/svg">
<path d="M21.4637 5.01464C21.2197 4.53826 20.9033 4.10308 20.5257 3.72419C20.1521 3.33524 19.7173 3.01062 19.2372 2.76338C18.8867 2.58851 18.5171 2.45484 18.1365 2.36439C17.7609 2.27092 17.3753 2.22368 16.9876 2.22469C16.8641 2.19353 16.7355 2.19353 16.613 2.22469C16.2233 2.25484 15.8327 2.33424 15.441 2.45886C15.0664 2.56841 14.7109 2.73424 14.3875 2.95132C13.7016 3.35635 13.1291 3.92921 12.7244 4.61564C12.5095 4.27695 12.2584 3.96238 11.9742 3.67796C11.69 3.39353 11.3756 3.14228 11.0362 2.9272C10.6957 2.72519 10.3342 2.56037 9.9586 2.43474C9.57999 2.30911 9.1853 2.23775 8.7866 2.22368C8.66307 2.19253 8.53452 2.19253 8.412 2.22368C8.02234 2.22368 7.63167 2.26992 7.24 2.36338C6.86038 2.45886 6.4918 2.59253 6.1393 2.76238C5.73357 2.98147 5.35596 3.24881 5.0145 3.55936C4.67505 3.8659 4.3828 4.22167 4.14679 4.61363C3.89974 5.01464 3.70993 5.44982 3.5854 5.90409C3.46087 6.34127 3.3976 6.79454 3.3976 7.26389C3.38253 7.70107 3.4217 8.13926 3.5151 8.57645C3.62456 8.99856 3.78826 9.40459 4.0072 9.79554C3.66976 9.99353 3.36245 10.2378 3.0933 10.5222C2.82616 10.8066 2.60421 11.1312 2.4375 11.483C2.26376 11.8317 2.13722 12.2026 2.06189 12.5855C1.99963 12.9654 1.98456 13.3503 2.0157 13.7342C2.06189 14.1091 2.15529 14.478 2.29589 14.8367C2.45256 15.1965 2.64739 15.5322 2.8824 15.8448L3.44379 16.3835L8.4823 21.495C8.57269 21.5905 8.68115 21.6679 8.80267 21.7202C8.92419 21.7724 9.05374 21.7996 9.1853 21.7996C9.4655 21.7996 9.70853 21.7051 9.9114 21.5182L14.9951 16.4528L15.5344 15.891L15.6499 15.7513L20.8049 10.6156C21.1946 10.1463 21.4918 9.62368 21.6947 9.04479C21.8966 8.47293 22 7.86992 22 7.26288C22 6.87293 21.9528 6.48901 21.8604 6.11313C21.769 5.73223 21.6354 5.36238 21.4607 5.01162H21.4617L21.4637 5.01464ZM9.25761 20.1373L4.50131 15.3302L4.22011 15.096C4.14177 15.0177 4.07047 14.9312 4.00921 14.8378C3.83747 14.6187 3.7029 14.3734 3.6105 14.1101C3.53317 13.8518 3.49401 13.5835 3.49401 13.3141C3.493 12.9845 3.55627 12.6579 3.68181 12.3523C3.74407 12.1955 3.81337 12.0548 3.89171 11.9302C3.98611 11.7905 4.09558 11.6558 4.22011 11.5312C4.32957 11.4217 4.44607 11.3212 4.5706 11.2267C4.70417 11.1362 4.84578 11.0579 4.9924 10.9915C5.14807 10.9292 5.31177 10.882 5.4845 10.8518C5.65624 10.8046 5.82797 10.7815 6.00071 10.7815C6.23471 10.7815 6.46067 10.8116 6.68061 10.8749C6.89854 10.9383 7.10241 11.0307 7.29021 11.1563C7.47701 11.2659 7.6397 11.3915 7.78131 11.5312C7.9209 11.6709 8.03941 11.8287 8.13281 12.0016C8.19507 12.095 8.24228 12.1885 8.2724 12.282C8.31961 12.3764 8.35877 12.4699 8.38991 12.5644C8.45217 12.7674 8.5536 12.9463 8.6942 13.1031C8.85087 13.2428 9.03767 13.3131 9.2566 13.3131C9.45947 13.3131 9.6312 13.2428 9.7718 13.1031C9.92446 12.9533 10.0379 12.7674 10.1002 12.5634C10.1625 12.3764 10.2478 12.1965 10.3573 12.0247C10.4668 11.8378 10.5923 11.6739 10.7319 11.5322C10.9669 11.2981 11.232 11.1182 11.5283 10.9935C11.8416 10.8538 12.161 10.7835 12.4894 10.7835C12.6611 10.7835 12.8248 10.7986 12.9815 10.8297C13.1382 10.8609 13.2868 10.9081 13.4274 10.9694C13.5831 11.0327 13.7317 11.1101 13.8723 11.2046C14.0119 11.2991 14.1455 11.4076 14.27 11.5332C14.503 11.7674 14.6868 12.0468 14.8093 12.3533C14.9348 12.6579 14.9981 12.9845 14.9971 13.3151C14.9961 13.5654 14.9569 13.8086 14.8796 14.0428C14.8143 14.284 14.7109 14.5141 14.5743 14.7232L14.4799 14.8398C14.4176 14.9342 14.3403 15.0197 14.2459 15.0981C14.1635 15.1805 14.0772 15.2579 13.9878 15.3322L11.6448 17.7001L9.2556 20.1393L9.25761 20.1373ZM19.7755 9.44579C19.5807 9.70308 19.3527 9.93122 19.0956 10.1262L16.4483 12.7996C16.4332 12.5674 16.386 12.3383 16.3087 12.1192C16.2454 11.8991 16.1591 11.687 16.0506 11.486C15.8688 11.1041 15.6228 10.7553 15.3235 10.4558C15.0292 10.1604 14.6888 9.91514 14.3162 9.72821C14.038 9.57243 13.7387 9.46188 13.4264 9.39956C13.1201 9.32017 12.8047 9.28097 12.4884 9.28298C12.3789 9.28298 12.2695 9.29102 12.16 9.3071C12.0505 9.3071 11.934 9.31514 11.8095 9.33022C11.2933 9.42469 10.8102 9.61162 10.3563 9.89303C9.91943 10.1734 9.54584 10.5403 9.2556 10.9714C8.94829 10.5393 8.55762 10.1724 8.1067 9.89303C7.67184 9.61263 7.18577 9.42067 6.6776 9.33022C6.5621 9.31414 6.4446 9.3061 6.3281 9.3071C6.21964 9.29102 6.11017 9.28298 5.9997 9.28298C5.84504 9.25183 5.68536 9.25183 5.5307 9.28298C5.31478 8.99253 5.14907 8.66791 5.0386 8.32218C4.9452 7.97846 4.898 7.62368 4.899 7.2669C4.90001 6.79152 4.99441 6.32117 5.1792 5.88298C5.35194 5.46087 5.59397 5.09303 5.9063 4.78047C6.22466 4.45886 6.59725 4.19755 7.00801 4.0076C7.22694 3.91313 7.45291 3.84378 7.68791 3.79655C7.92191 3.74931 8.16394 3.7262 8.41401 3.7262C8.88301 3.7262 9.32791 3.81966 9.74971 4.0066C10.1876 4.17946 10.5692 4.42971 10.8976 4.75735C11.1326 5.0076 11.3274 5.28198 11.4831 5.57846C11.6548 5.87595 11.7804 6.18851 11.8577 6.51715C11.9049 6.72017 11.9983 6.90007 12.1399 7.05585C12.2956 7.19554 12.4753 7.2659 12.6782 7.2659C12.7776 7.26992 12.8771 7.25283 12.9695 7.21665C13.0618 7.18047 13.1462 7.1262 13.2175 7.05585C13.3732 6.89906 13.4756 6.72017 13.5218 6.51615C13.6011 6.18951 13.7176 5.87595 13.8733 5.57846C14.045 5.2659 14.2559 4.99253 14.506 4.75836C14.8264 4.43474 15.209 4.17946 15.6308 4.0076C16.0677 3.81966 16.5206 3.7262 16.9906 3.7262C17.4646 3.7272 17.9346 3.82167 18.3725 4.0066C18.7782 4.19454 19.1378 4.45283 19.4501 4.78047C19.7785 5.09404 20.0356 5.46087 20.2234 5.88298C20.3329 6.18047 20.4102 6.48399 20.4574 6.79755C20.5046 7.09504 20.5127 7.39856 20.4805 7.71213C20.4333 8.0267 20.3469 8.33323 20.2234 8.6267C20.114 8.90811 19.9653 9.17343 19.7775 9.42368V9.4468H19.7765L19.7755 9.44579Z" fill="white"/>
</svg>
