<svg width="24" height="24" viewBox="0 0 24 24" fill="none" xmlns="http://www.w3.org/2000/svg">
<path d="M5.98556 4C4.89113 4 3.95376 4.39041 3.17246 5.17324C2.39015 5.95507 2 6.90107 2 8.01225L2 15.9877C2 17.0989 2.39015 18.0449 3.17246 18.8268C3.95276 19.6096 4.89113 20 5.98556 20H18.0144C19.1089 20 20.0462 19.6096 20.8275 18.8268C21.6098 18.0449 22 17.0989 22 15.9877V8.01225C22 6.90107 21.6098 5.95507 20.8275 5.17324C20.0472 4.39041 19.1089 4 18.0144 4H5.98556ZM18.0144 5.50159C18.7017 5.50159 19.2879 5.74385 19.7731 6.22936C20.2573 6.71388 20.4994 7.30851 20.4994 8.01125V8.2465H3.50059V8.01225C3.50059 7.30851 3.74268 6.71388 4.22687 6.22936C4.45475 5.99423 4.72839 5.80834 5.03087 5.68316C5.33336 5.55799 5.65827 5.49619 5.98556 5.50159H18.0144ZM3.50059 15.9877V9.74809H20.4994V15.9877C20.4994 16.6915 20.2573 17.2861 19.7731 17.7706C19.5452 18.0058 19.2716 18.1917 18.9691 18.3168C18.6666 18.442 18.3417 18.5038 18.0144 18.4984H5.98556C5.65827 18.5038 5.33336 18.442 5.03087 18.3168C4.72839 18.1917 4.45475 18.0058 4.22687 17.7706C3.74268 17.2861 3.50059 16.6905 3.50059 15.9877Z" fill="white"/>
<path d="M5.69167 15.2987C5.78441 15.2582 5.88446 15.2372 5.98563 15.237H8.9868C9.08858 15.2341 9.18975 15.2536 9.28312 15.2943C9.37649 15.335 9.45976 15.3957 9.52701 15.4722C9.59532 15.5393 9.6492 15.6196 9.68533 15.7082C9.72146 15.7969 9.73908 15.892 9.73709 15.9878C9.74067 16.0875 9.72378 16.1869 9.68748 16.2799C9.65118 16.3729 9.59622 16.4574 9.52601 16.5283C9.45531 16.5982 9.37111 16.6528 9.27856 16.689C9.18602 16.7251 9.08708 16.742 8.9878 16.7386H5.98663C5.78255 16.7386 5.60248 16.6685 5.44642 16.5283C5.30636 16.3872 5.23633 16.207 5.23633 15.9878C5.23435 15.892 5.25197 15.7969 5.28809 15.7082C5.32422 15.6196 5.3781 15.5393 5.44642 15.4722C5.51546 15.3982 5.59893 15.3392 5.69167 15.2987Z" fill="white"/>
</svg>
