<svg width="24" height="24" viewBox="0 0 24 24" fill="none" xmlns="http://www.w3.org/2000/svg">
<path d="M6.48352 5.42414C6.03052 5.86114 5.80352 6.38414 5.80352 6.99414V9.01014C5.80352 9.61914 6.03052 10.1501 6.48352 10.6041C6.92052 11.0411 7.44352 11.2601 8.05352 11.2601H13.0695C13.3655 11.2626 13.659 11.2058 13.9328 11.0932C14.2065 10.9805 14.455 10.8142 14.6635 10.6041C15.1005 10.1501 15.3195 9.62014 15.3195 9.01014V6.99414C15.3195 6.38414 15.1005 5.86114 14.6635 5.42414C14.2095 4.97114 13.6795 4.74414 13.0695 4.74414H8.05352C7.44352 4.74414 6.92052 4.97114 6.48352 5.42414ZM7.53852 6.47914C7.67852 6.32214 7.85052 6.24414 8.05352 6.24414L13.0685 6.24514C13.1698 6.24532 13.27 6.26627 13.3629 6.30669C13.4557 6.34711 13.5394 6.40614 13.6085 6.48014C13.7485 6.62014 13.8185 6.79214 13.8185 6.99514V9.00914C13.8202 9.20939 13.7451 9.40267 13.6085 9.54914C13.4623 9.68546 13.2694 9.76061 13.0695 9.75914H8.05352C7.95789 9.76112 7.86287 9.74352 7.7743 9.7074C7.68573 9.67129 7.60549 9.61743 7.53852 9.54914C7.4646 9.48012 7.40561 9.39669 7.36519 9.30398C7.32477 9.21128 7.30378 9.11127 7.30352 9.01014V6.99414C7.30352 6.79114 7.38152 6.61914 7.53852 6.47914Z" fill="white"/>
<path d="M8.05313 12.7598C7.44313 12.7598 6.92013 12.9788 6.48313 13.4158C6.03013 13.8538 5.80313 14.3848 5.80313 15.0098V17.0018C5.80313 17.6268 6.03013 18.1578 6.48313 18.5958C6.92013 19.0328 7.44313 19.2518 8.05313 19.2518L19.7498 19.2518C20.3598 19.2518 20.8898 19.0328 21.3438 18.5958C21.5563 18.3891 21.7241 18.1409 21.8369 17.8668C21.9497 17.5926 22.0052 17.2983 21.9998 17.0018V15.0098C21.9998 14.3848 21.7808 13.8538 21.3438 13.4158C21.1353 13.2057 20.8868 13.0395 20.6131 12.9268C20.3394 12.8142 20.0458 12.7574 19.7498 12.7598L8.05313 12.7598ZM7.30313 15.0098C7.30024 14.908 7.31979 14.8069 7.36041 14.7136C7.40103 14.6202 7.4617 14.537 7.53813 14.4698C7.6051 14.4015 7.68534 14.3476 7.77391 14.3115C7.86248 14.2754 7.9575 14.2578 8.05313 14.2598L19.7498 14.2598C19.9497 14.2584 20.1426 14.3335 20.2888 14.4698C20.3588 14.5408 20.4136 14.6252 20.4497 14.7181C20.4858 14.811 20.5025 14.9103 20.4988 15.0098V17.0018C20.4988 17.2048 20.4288 17.3848 20.2888 17.5418C20.1328 17.6818 19.9528 17.7518 19.7488 17.7518L8.05313 17.7518C7.85013 17.7518 7.67813 17.6818 7.53813 17.5418C7.46413 17.4726 7.4051 17.389 7.36468 17.2961C7.32426 17.2032 7.30331 17.1031 7.30313 17.0018V15.0098Z" fill="white"/>
<path d="M3.04624 2.05584C2.95291 2.01506 2.85178 1.99543 2.75003 1.99833C2.65222 1.9974 2.5554 2.01905 2.46641 2.05982C2.37742 2.10058 2.29843 2.16047 2.23503 2.23525C2.16049 2.29885 2.1008 2.37814 2.06019 2.46748C2.01958 2.55683 1.99904 2.65405 2.00003 2.75226V21.249C2.00022 21.3507 2.02117 21.4513 2.06158 21.5445C2.102 21.6378 2.16103 21.7217 2.23503 21.7911C2.37503 21.9317 2.54704 22.002 2.75003 22.002C2.96903 22.002 3.14903 21.9317 3.29003 21.7911C3.43003 21.6345 3.50003 21.4538 3.50003 21.25V2.75125C3.50202 2.65525 3.48441 2.55986 3.44829 2.47095C3.41218 2.38203 3.35832 2.30148 3.29003 2.23424C3.22281 2.15752 3.13957 2.09661 3.04624 2.05584Z" fill="white"/>
</svg>
