<svg width="24" height="24" viewBox="0 0 24 24" fill="none" xmlns="http://www.w3.org/2000/svg">
<path fill-rule="evenodd" clip-rule="evenodd" d="M5.99902 1.99902C4.93816 1.99902 3.92074 2.42045 3.1706 3.1706C2.42045 3.92074 1.99902 4.93816 1.99902 5.99902V17.999C1.99902 19.0599 2.42045 20.0773 3.1706 20.8275C3.92074 21.5776 4.93816 21.999 5.99902 21.999H17.999C19.0599 21.999 20.0773 21.5776 20.8275 20.8275C21.5776 20.0773 21.999 19.0599 21.999 17.999V5.99902C21.999 4.93816 21.5776 3.92074 20.8275 3.1706C20.0773 2.42045 19.0599 1.99902 17.999 1.99902H5.99902ZM17.999 3.49902H5.99902C5.33598 3.49902 4.7001 3.76242 4.23126 4.23126C3.76242 4.7001 3.49902 5.33598 3.49902 5.99902V16.939L7.55402 12.8828C7.8094 12.6273 8.11262 12.4246 8.44635 12.2863C8.78008 12.148 9.13778 12.0769 9.49902 12.0769C9.86027 12.0769 10.218 12.148 10.5517 12.2863C10.8854 12.4246 11.1886 12.6273 11.444 12.8828L13.499 14.9378L14.0553 14.3828C14.5709 13.8675 15.2701 13.5781 15.999 13.5781C16.728 13.5781 17.4271 13.8675 17.9428 14.3828L20.499 16.9378V5.99902C20.499 5.33598 20.2356 4.7001 19.7668 4.23126C19.298 3.76242 18.6621 3.49902 17.999 3.49902ZM5.99902 20.499C5.49313 20.4992 4.9991 20.3458 4.58219 20.0593C4.16529 19.7727 3.84513 19.3664 3.66402 18.894L8.61527 13.944C8.84968 13.7097 9.16757 13.578 9.49902 13.578C9.83048 13.578 10.1484 13.7097 10.3828 13.944L15.469 19.029C15.6112 19.1615 15.7992 19.2336 15.9935 19.2302C16.1878 19.2268 16.3732 19.1481 16.5106 19.0106C16.6481 18.8732 16.7268 18.6878 16.7302 18.4935C16.7336 18.2992 16.6615 18.1112 16.529 17.969L14.5615 15.999L15.1165 15.444C15.3509 15.2097 15.6688 15.078 16.0003 15.078C16.3317 15.078 16.6496 15.2097 16.884 15.444L20.334 18.894C20.1529 19.3664 19.8328 19.7727 19.4159 20.0593C18.9989 20.3458 18.5049 20.4992 17.999 20.499H5.99902ZM7.02902 6.02902C7.10271 5.96036 7.16181 5.87756 7.2028 5.78556C7.2438 5.69356 7.26584 5.59425 7.26762 5.49355C7.26939 5.39284 7.25087 5.29281 7.21315 5.19943C7.17542 5.10604 7.11928 5.0212 7.04806 4.94999C6.97684 4.87877 6.89201 4.82262 6.79862 4.7849C6.70523 4.74718 6.6052 4.72866 6.5045 4.73043C6.4038 4.73221 6.30448 4.75425 6.21249 4.79524C6.12049 4.83623 6.03769 4.89534 5.96902 4.96902L4.96902 5.96902C4.89534 6.03769 4.83623 6.12049 4.79524 6.21249C4.75425 6.30448 4.73221 6.4038 4.73043 6.5045C4.72866 6.6052 4.74718 6.70523 4.7849 6.79862C4.82262 6.89201 4.87877 6.97684 4.94999 7.04806C5.0212 7.11928 5.10604 7.17542 5.19943 7.21315C5.29281 7.25087 5.39284 7.26939 5.49355 7.26762C5.59425 7.26584 5.69356 7.2438 5.78556 7.2028C5.87756 7.16181 5.96036 7.10271 6.02902 7.02902L7.02902 6.02902ZM11.029 6.02902C11.1027 5.96036 11.1618 5.87756 11.2028 5.78556C11.2438 5.69356 11.2658 5.59425 11.2676 5.49355C11.2694 5.39284 11.2509 5.29281 11.2131 5.19943C11.1754 5.10604 11.1193 5.0212 11.0481 4.94999C10.9768 4.87877 10.892 4.82262 10.7986 4.7849C10.7052 4.74718 10.6052 4.72866 10.5045 4.73043C10.4038 4.73221 10.3045 4.75425 10.2125 4.79524C10.1205 4.83623 10.0377 4.89534 9.96902 4.96902L4.96902 9.96902C4.83654 10.1112 4.76442 10.2992 4.76785 10.4935C4.77128 10.6878 4.84999 10.8732 4.9874 11.0106C5.12481 11.1481 5.3102 11.2268 5.5045 11.2302C5.6988 11.2336 5.88685 11.1615 6.02902 11.029L11.029 6.02902ZM15.029 6.02902C15.1027 5.96036 15.1618 5.87756 15.2028 5.78556C15.2438 5.69356 15.2658 5.59425 15.2676 5.49355C15.2694 5.39284 15.2509 5.29281 15.2131 5.19943C15.1754 5.10604 15.1193 5.0212 15.0481 4.94999C14.9768 4.87877 14.892 4.82262 14.7986 4.7849C14.7052 4.74718 14.6052 4.72866 14.5045 4.73043C14.4038 4.73221 14.3045 4.75425 14.2125 4.79524C14.1205 4.83623 14.0377 4.89534 13.969 4.96902L9.46902 9.46902C9.33654 9.6112 9.26442 9.79925 9.26785 9.99355C9.27128 10.1878 9.34999 10.3732 9.4874 10.5106C9.62481 10.6481 9.8102 10.7268 10.0045 10.7302C10.1988 10.7336 10.3868 10.6615 10.529 10.529L15.029 6.02902ZM13.529 11.529L18.529 6.52902C18.6027 6.46036 18.6618 6.37756 18.7028 6.28556C18.7438 6.19356 18.7658 6.09425 18.7676 5.99355C18.7694 5.89284 18.7509 5.79281 18.7131 5.69943C18.6754 5.60604 18.6193 5.5212 18.5481 5.44999C18.4768 5.37877 18.392 5.32262 18.2986 5.2849C18.2052 5.24718 18.1052 5.22866 18.0045 5.23043C17.9038 5.23221 17.8045 5.25425 17.7125 5.29524C17.6205 5.33623 17.5377 5.39534 17.469 5.46902L12.469 10.469C12.3365 10.6112 12.2644 10.7992 12.2678 10.9935C12.2713 11.1878 12.35 11.3732 12.4874 11.5106C12.6248 11.6481 12.8102 11.7268 13.0045 11.7302C13.1988 11.7336 13.3868 11.6615 13.529 11.529ZM19.029 10.029C19.1615 9.88685 19.2336 9.6988 19.2302 9.5045C19.2268 9.3102 19.1481 9.12482 19.0106 8.9874C18.8732 8.84999 18.6878 8.77128 18.4935 8.76785C18.2992 8.76442 18.1112 8.83654 17.969 8.96902L15.969 10.969C15.8365 11.1112 15.7644 11.2992 15.7678 11.4935C15.7713 11.6878 15.85 11.8732 15.9874 12.0106C16.1248 12.1481 16.3102 12.2268 16.5045 12.2302C16.6988 12.2336 16.8868 12.1615 17.029 12.029L19.029 10.029Z" fill="white"/>
</svg>
