<svg width="24" height="24" viewBox="0 0 24 24" fill="none" xmlns="http://www.w3.org/2000/svg">
<path d="M9.80236 14.0011C9.80236 14.5534 9.35465 15.0011 8.80236 15.0011C8.25008 15.0011 7.80237 14.5534 7.80237 14.0011C7.80237 13.4488 8.25008 13.0011 8.80236 13.0011C9.35465 13.0011 9.80236 13.4488 9.80236 14.0011Z" fill="white"/>
<path d="M13.0006 14.0011C13.0006 14.5534 12.5529 15.0011 12.0006 15.0011C11.4483 15.0011 11.0006 14.5534 11.0006 14.0011C11.0006 13.4488 11.4483 13.0011 12.0006 13.0011C12.5529 13.0011 13.0006 13.4488 13.0006 14.0011Z" fill="white"/>
<path d="M16.1989 14.0011C16.1989 14.5534 15.7511 15.0011 15.1989 15.0011C14.6466 15.0011 14.1989 14.5534 14.1989 14.0011C14.1989 13.4488 14.6466 13.0011 15.1989 13.0011C15.7511 13.0011 16.1989 13.4488 16.1989 14.0011Z" fill="white"/>
<path d="M10.5106 8.16454C10.8218 7.53651 11.295 7.00301 11.8815 6.61922C12.4681 6.23849 13.1196 6.04404 13.8774 6.04404L13.8853 6.04399C14.3764 6.04141 14.8625 6.14143 15.3127 6.33766C15.7766 6.54064 16.174 6.8159 16.5155 7.16711L16.5289 7.18068C16.8767 7.52944 17.1557 7.94066 17.3512 8.3928L17.3597 8.41212C17.5678 8.87556 17.6783 9.36715 17.6882 9.90202C17.6988 10.4702 18.0296 10.9837 18.5426 11.2282C19.1111 11.4992 19.5779 11.9119 19.9541 12.5096L19.9602 12.5191C20.319 13.0796 20.5021 13.7023 20.5021 14.4258C20.5021 14.8941 20.4247 15.321 20.2768 15.7186L20.2739 15.7264C20.1336 16.11 19.9237 16.4645 19.6548 16.7721L19.6404 16.7889C19.3866 17.0879 19.0806 17.3416 18.7111 17.5501C18.3568 17.749 17.9672 17.8772 17.564 17.9276C17.5108 17.9343 17.4581 17.9438 17.406 17.9561H6.85068C6.37355 17.9561 5.95513 17.864 5.57664 17.6916L5.55623 17.6825C5.15704 17.5077 4.79472 17.2588 4.48846 16.949C4.18502 16.612 3.94049 16.2262 3.76517 15.8078C3.58726 15.3722 3.49719 14.9056 3.5001 14.435V14.4258C3.5001 13.9917 3.56644 13.5889 3.69419 13.2076C3.8388 12.817 4.03143 12.4725 4.26834 12.169C4.51347 11.8702 4.80712 11.6147 5.13703 11.4131C5.14601 11.4076 5.15492 11.4021 5.16378 11.3964C5.48812 11.1888 5.84732 11.0415 6.22404 10.9616C6.74203 10.8518 7.16374 10.477 7.33363 9.97552C7.4331 9.68189 7.61941 9.42541 7.86788 9.24L7.87441 9.23506C8.10839 9.05847 8.39263 8.96171 8.68527 8.95858C8.76244 8.97119 8.84051 8.97775 8.91874 8.97819C9.00034 8.99181 9.08379 8.99866 9.16653 8.99866C9.73667 8.99866 10.2575 8.67543 10.5106 8.16454ZM11.0625 5.36253C10.2513 5.89277 9.59673 6.63029 9.16653 7.49866C9.08732 7.48503 9.0064 7.47821 8.92719 7.47821C8.85991 7.46544 8.79347 7.45863 8.72704 7.45863C8.09375 7.45264 7.47627 7.65628 6.97078 8.0378C6.47878 8.40494 6.10989 8.91283 5.91293 9.49425C5.35942 9.61161 4.83167 9.82801 4.35512 10.133C3.87656 10.4254 3.45117 10.7969 3.09712 11.2318C2.75217 11.6704 2.47877 12.1636 2.27946 12.7087C2.09379 13.2546 2.0001 13.8261 2.0001 14.4258C1.99596 15.0963 2.12478 15.7609 2.37912 16.3813C2.62418 16.9681 2.96848 17.5084 3.39693 17.9783C3.84181 18.4348 4.37079 18.801 4.95474 19.0566C5.53987 19.3232 6.17186 19.4561 6.85068 19.4561H17.6506C17.6847 19.4451 17.718 19.4317 17.7502 19.416C18.3466 19.3414 18.9228 19.1517 19.4469 18.8573C19.9664 18.5643 20.4119 18.1981 20.7841 17.7594C21.1744 17.313 21.479 16.7985 21.6827 16.2416C21.8956 15.6693 22.0021 15.0645 22.0021 14.4258C22.0021 13.4275 21.7431 12.5221 21.2236 11.7104C20.704 10.8851 20.026 10.2736 19.1879 9.87412C19.1743 9.14164 19.021 8.45004 18.728 7.79761C18.4577 7.17237 18.072 6.6037 17.591 6.12141C17.1114 5.62826 16.5519 5.24243 15.9131 4.96307C15.2711 4.68306 14.5778 4.54032 13.8774 4.54402C12.8392 4.54402 11.9014 4.81742 11.0625 5.36253Z" fill="white"/>
</svg>
