<svg width="24" height="24" viewBox="0 0 24 24" fill="none" xmlns="http://www.w3.org/2000/svg">
<path d="M9.71851 4.06432C11.0209 2.78812 12.8066 2 14.775 2C18.7652 2 22 5.23474 22 9.225C22 11.1934 21.2118 12.9792 19.9356 14.2815C19.6457 14.5774 19.1708 14.5822 18.875 14.2923C18.5792 14.0024 18.5744 13.5275 18.8643 13.2317C19.8769 12.1983 20.5 10.7852 20.5 9.225C20.5 6.06317 17.9368 3.5 14.775 3.5C13.2148 3.5 11.8017 4.12309 10.7684 5.13568C10.4725 5.42559 9.99766 5.42077 9.70775 5.12492C9.41784 4.82908 9.42266 4.35423 9.71851 4.06432Z" fill="white"/>
<path fill-rule="evenodd" clip-rule="evenodd" d="M8.46244 16.2994C8.22539 16.2299 7.99912 16.1279 7.79013 15.9962V18.0371C7.79013 18.1029 7.76565 18.1602 7.71633 18.2092C7.69496 18.2307 7.66942 18.2477 7.64127 18.259C7.61312 18.2703 7.58295 18.2757 7.55262 18.275H6.83938C6.77362 18.275 6.71625 18.2529 6.66728 18.2092C6.62356 18.1602 6.60152 18.1029 6.60152 18.0371V13.8406C6.59919 13.4965 6.66902 13.1558 6.8065 12.8404C6.93806 12.5364 7.12742 12.2608 7.36408 12.029C7.60767 11.7975 7.89083 11.6116 8.2001 11.48C8.52433 11.343 8.87301 11.2733 9.225 11.2751C9.57699 11.2733 9.92568 11.343 10.2499 11.48C10.5575 11.6103 10.8382 11.7965 11.0779 12.029C11.3187 12.259 11.511 12.5349 11.6435 12.8404C11.781 13.1558 11.8508 13.4965 11.8485 13.8406C11.8508 14.1845 11.7809 14.5251 11.6435 14.8404C11.5098 15.1478 11.3178 15.4263 11.0779 15.6605C10.8382 15.8931 10.5575 16.0792 10.2499 16.2095C9.92436 16.3412 9.57619 16.408 9.225 16.4061C8.96266 16.4061 8.70835 16.3704 8.46244 16.2994ZM10.2331 14.8324C10.5175 14.5592 10.6599 14.2287 10.6599 13.8406C10.6599 13.458 10.5175 13.1299 10.2335 12.8572C9.95468 12.5837 9.61853 12.4473 9.225 12.4473C9.03683 12.4447 8.85001 12.4795 8.67547 12.5499C8.50094 12.6203 8.34218 12.7247 8.20849 12.8572C7.9297 13.1303 7.79013 13.458 7.79013 13.8406C7.79013 14.2287 7.9297 14.5592 8.20849 14.8324C8.34218 14.9648 8.50094 15.0692 8.67547 15.1396C8.85001 15.21 9.03683 15.2449 9.225 15.2422C9.61853 15.2422 9.95468 15.1055 10.2331 14.8324Z" fill="white"/>
<path fill-rule="evenodd" clip-rule="evenodd" d="M9.225 7.54998C5.23474 7.54998 2 10.7847 2 14.775C2 18.7652 5.23474 22 9.225 22C13.2153 22 16.45 18.7652 16.45 14.775C16.45 10.7847 13.2153 7.54998 9.225 7.54998ZM9.225 9.04998C6.06317 9.04998 3.5 11.6131 3.5 14.775C3.5 17.9368 6.06317 20.5 9.225 20.5C12.3868 20.5 14.95 17.9368 14.95 14.775C14.95 11.6131 12.3868 9.04998 9.225 9.04998Z" fill="white"/>
</svg>
