<svg width="24" height="24" viewBox="0 0 24 24" fill="none" xmlns="http://www.w3.org/2000/svg">
<path d="M20.5162 5.10293L17.5517 2.79859C17.217 2.54492 16.8438 2.34645 16.4463 2.21071C16.0535 2.06941 15.639 1.99778 15.2216 1.99904H8.68206C7.69421 1.99904 6.83887 2.32809 6.11806 2.98619C5.39524 3.64529 4.98866 4.45186 4.89328 5.4079C4.06739 5.6396 3.34026 6.13541 2.82321 6.8194C2.27507 7.5086 2 8.30815 2 9.21704L2 18.0013C2 19.0988 2.3845 20.0398 3.15249 20.8233C3.93756 21.6068 4.87923 21.999 5.97651 21.999H14.4696C15.3651 21.999 16.1562 21.7402 16.8469 21.2236C17.5196 20.7155 18.0137 20.0074 18.2584 19.2011C18.7513 19.2016 19.2392 19.1018 19.6923 18.9078C20.1453 18.7138 20.5541 18.4296 20.8937 18.0725C21.6316 17.3362 22 16.4503 22 15.416V8.11252C22 7.51662 21.8665 6.95985 21.6004 6.4432C21.3534 5.91533 20.9806 5.45537 20.5162 5.10293ZM16.5407 19.2011C16.334 19.5642 16.0329 19.8647 15.6693 20.0709C15.3079 20.2906 14.9083 20.3999 14.4696 20.3999H5.9755C5.6598 20.4043 5.34655 20.344 5.05509 20.2227C4.76362 20.1014 4.50013 19.9217 4.2809 19.6947C4.05991 19.4723 3.88567 19.2081 3.76843 18.9174C3.6512 18.6268 3.59333 18.3156 3.59823 18.0023V9.21704C3.59823 8.76159 3.71669 8.34627 3.95161 7.97007C4.18753 7.59387 4.49373 7.31197 4.86919 7.12337V15.415C4.86919 16.4644 5.23863 17.3582 5.9755 18.0946C6.32877 18.4514 6.75051 18.7332 7.21541 18.9232C7.68032 19.1131 8.17883 19.2073 8.68106 19.2001H16.5397L16.5407 19.2011ZM18.1871 17.7906H8.68106C8.36553 17.7948 8.05249 17.7344 7.76121 17.6131C7.46994 17.4918 7.20661 17.3122 6.98745 17.0854C6.76786 16.8666 6.59433 16.6061 6.47708 16.3192C6.35984 16.0323 6.30126 15.7249 6.30479 15.415V5.80818C6.30479 5.15008 6.53268 4.59331 6.98745 4.13886C7.20657 3.91194 7.4699 3.7323 7.76118 3.611C8.05246 3.48971 8.36552 3.42934 8.68106 3.43361H14.6343V6.77225C14.6343 7.49355 14.8853 8.11252 15.3872 8.62917C15.9052 9.13077 16.5246 9.38157 17.2465 9.38157H20.5634V15.416C20.5634 16.0581 20.3285 16.6149 19.8576 17.0854C19.644 17.3131 19.385 17.4935 19.0972 17.615C18.8095 17.7365 18.4994 17.7963 18.1871 17.7906ZM20.5634 7.948H17.2465C16.9162 7.948 16.6341 7.83765 16.3992 7.61895C16.2854 7.50947 16.1954 7.37784 16.1346 7.23221C16.0738 7.08658 16.0436 6.93003 16.0458 6.77225V3.57406C16.1562 3.62121 16.2656 3.67639 16.3751 3.73858C16.4855 3.80179 16.5869 3.86398 16.6813 3.92718L19.6458 6.23153C19.9129 6.43518 20.1247 6.693 20.2813 7.007C20.454 7.30495 20.5483 7.61895 20.5634 7.948Z" fill="white"/>
</svg>
