<svg width="24" height="24" viewBox="0 0 24 24" fill="none" xmlns="http://www.w3.org/2000/svg">
<path d="M5.26515 21.787C5.12515 21.928 4.95315 21.998 4.75015 21.998C4.53115 21.998 4.35115 21.928 4.21015 21.788C4.07015 21.632 4.00015 21.452 4.00015 21.249L4.00015 2.75223C3.99817 2.6566 4.01578 2.56158 4.05189 2.47301C4.08801 2.38445 4.14186 2.30421 4.21015 2.23723C4.27738 2.16081 4.36062 2.10013 4.45395 2.05952C4.54728 2.0189 4.64841 1.99934 4.75015 2.00223C4.84796 2.00131 4.94478 2.02188 5.03377 2.06248C5.12276 2.10309 5.20175 2.16274 5.26515 2.23723C5.33964 2.30063 5.39929 2.37962 5.4399 2.46861C5.48051 2.5576 5.50108 2.65442 5.50015 2.75223V21.247C5.49997 21.3483 5.47902 21.4485 5.4386 21.5414C5.39818 21.6343 5.33915 21.7179 5.26515 21.787Z" fill="white"/>
<path d="M19.2492 21.998C19.3488 22.0016 19.4481 21.9847 19.541 21.9485C19.6339 21.9122 19.7183 21.8572 19.7892 21.787C19.9257 21.6406 20.0009 21.4473 19.9992 21.247V2.75223C20.0011 2.6566 19.9835 2.56158 19.9474 2.47301C19.9113 2.38445 19.8574 2.30421 19.7892 2.23723C19.7219 2.16081 19.6387 2.10013 19.5454 2.05952C19.452 2.0189 19.3509 1.99934 19.2492 2.00223C19.148 2.00255 19.048 2.02357 18.9553 2.06398C18.8626 2.1044 18.7792 2.16336 18.7101 2.23723C18.6419 2.30421 18.588 2.38445 18.5519 2.47301C18.5158 2.56158 18.4982 2.6566 18.5002 2.75223V21.249C18.5002 21.452 18.5701 21.632 18.7101 21.788C18.8661 21.928 19.0452 21.998 19.2492 21.998Z" fill="white"/>
<path d="M15.2585 16.5C15.2585 17.125 15.0315 17.656 14.5785 18.094C14.1415 18.531 13.6185 18.75 13.0085 18.75H10.9925C10.6965 18.7525 10.403 18.6957 10.1293 18.583C9.85553 18.4704 9.60708 18.3041 9.39854 18.094C9.18611 17.8872 9.01831 17.6391 8.90548 17.3649C8.79265 17.0908 8.7372 16.7964 8.74254 16.5V7.5C8.74254 6.89 8.96154 6.367 9.39854 5.93C9.85254 5.477 10.3835 5.25 10.9925 5.25H13.0085C13.6185 5.25 14.1415 5.477 14.5785 5.93C15.0315 6.367 15.2585 6.89 15.2585 7.5V16.5ZM13.0085 17.25C13.2115 17.25 13.3835 17.18 13.5235 17.04C13.6 16.9728 13.6606 16.8895 13.7013 16.7962C13.7419 16.7029 13.7614 16.6017 13.7585 16.5V7.5C13.7595 7.40218 13.739 7.30533 13.6984 7.21633C13.6578 7.12733 13.5981 7.04836 13.5235 6.985C13.4601 6.91051 13.3812 6.85086 13.2922 6.81025C13.2032 6.76964 13.1064 6.74908 13.0085 6.75H10.9925C10.8914 6.75032 10.7914 6.77133 10.6987 6.81175C10.606 6.85216 10.5226 6.91112 10.4535 6.985C10.3853 7.05197 10.3314 7.13221 10.2953 7.22078C10.2592 7.30935 10.2416 7.40437 10.2435 7.5V16.5C10.2435 16.719 10.3135 16.899 10.4535 17.04C10.6095 17.18 10.7895 17.25 10.9935 17.25H13.0085Z" fill="white"/>
</svg>
