<svg width="24" height="24" viewBox="0 0 24 24" fill="none" xmlns="http://www.w3.org/2000/svg">
<path d="M12.805 5.76599C12.57 5.84999 12.453 6.02299 12.453 6.28599C12.453 6.54899 12.571 6.72199 12.805 6.80499L13.904 7.17899C13.982 7.20299 14.053 7.24599 14.112 7.30299C14.167 7.35899 14.209 7.42699 14.236 7.51099L14.61 8.60999C14.693 8.85899 14.86 8.98399 15.108 8.98399C15.371 8.98399 15.544 8.85999 15.627 8.60999L15.979 7.51099C16.003 7.43299 16.046 7.36199 16.103 7.30299C16.171 7.24799 16.249 7.20599 16.332 7.17899L17.41 6.80499C17.66 6.72199 17.784 6.54799 17.784 6.28599C17.784 6.02399 17.66 5.84999 17.41 5.76699L16.332 5.41399C16.249 5.38699 16.172 5.34499 16.104 5.28999C16.049 5.22199 16.008 5.14399 15.98 5.06199L15.626 3.96299C15.544 3.71299 15.372 3.58899 15.109 3.58899C14.86 3.58899 14.694 3.71299 14.611 3.96299L14.237 5.06199C14.21 5.14499 14.168 5.22199 14.113 5.28999C14.054 5.34699 13.983 5.38999 13.905 5.41399L12.805 5.76699L12.804 5.76599H12.805Z" fill="white"/>
<path d="M9.39315 4.13198C9.50015 4.06198 9.62515 4.02498 9.75315 4.02498C9.88115 4.02498 10.0062 4.06198 10.1132 4.13198C10.2202 4.20198 10.3042 4.30198 10.3552 4.41898L17.4302 19.462C17.4712 19.542 17.4942 19.63 17.4972 19.719C17.5002 19.808 17.4852 19.898 17.4502 19.981C17.4232 20.063 17.3802 20.138 17.3232 20.202C17.2662 20.266 17.1962 20.318 17.1182 20.354C16.9532 20.423 16.7692 20.43 16.5992 20.374C16.4332 20.305 16.3092 20.187 16.2262 20.022L13.8192 14.876H5.68515L3.27915 20.022C3.19815 20.186 3.05615 20.312 2.88415 20.374C2.72115 20.429 2.54415 20.422 2.38615 20.354C2.22015 20.271 2.10215 20.146 2.03315 19.98C2.00515 19.895 1.99515 19.806 2.00215 19.716C2.00915 19.626 2.03415 19.54 2.07515 19.461L9.15015 4.41898C9.20115 4.30198 9.28515 4.20198 9.39215 4.13098L9.39315 4.13198ZM13.1772 13.548L9.75415 6.24398L6.33115 13.548H13.1782H13.1772Z" fill="white"/>
<path d="M18.45 8.02898C18.45 8.19498 18.532 8.30498 18.698 8.35998L18.699 8.36098L19.425 8.58898C19.475 8.61198 19.517 8.64798 19.549 8.69298C19.594 8.72498 19.63 8.76798 19.653 8.81798L19.881 9.54398C19.937 9.70998 20.047 9.79298 20.213 9.79298C20.394 9.79298 20.511 9.70998 20.566 9.54298L20.815 8.81698C20.826 8.76698 20.856 8.72198 20.898 8.69298C20.936 8.65398 20.978 8.61898 21.023 8.58898L21.749 8.36098C21.915 8.30498 21.998 8.19498 21.998 8.02898C21.998 7.84898 21.915 7.73098 21.748 7.67598L21.022 7.42698C20.975 7.40898 20.932 7.38098 20.898 7.34398C20.861 7.30898 20.832 7.26698 20.815 7.21898L20.566 6.49298C20.51 6.32698 20.392 6.24398 20.213 6.24398C20.047 6.24398 19.937 6.32698 19.881 6.49398L19.653 7.21998C19.622 7.26498 19.587 7.30598 19.549 7.34398C19.52 7.38698 19.475 7.41698 19.424 7.42698L18.698 7.67598C18.532 7.73198 18.45 7.84898 18.45 8.02898Z" fill="white"/>
<path d="M16.229 11.224C16.063 11.28 15.981 11.39 15.981 11.556C15.981 11.722 16.063 11.833 16.229 11.888L16.955 12.137C17.011 12.151 17.052 12.179 17.08 12.22C17.122 12.262 17.158 12.311 17.184 12.365L17.412 13.091C17.468 13.243 17.578 13.319 17.744 13.319C17.924 13.319 18.042 13.243 18.097 13.091L18.346 12.365C18.36 12.31 18.389 12.26 18.429 12.22C18.463 12.183 18.506 12.155 18.553 12.137L19.279 11.888C19.445 11.832 19.529 11.722 19.529 11.556C19.529 11.39 19.446 11.279 19.28 11.224L18.554 10.975C18.506 10.957 18.464 10.929 18.429 10.892C18.388 10.852 18.359 10.802 18.346 10.747L18.097 10.021C18.041 9.86899 17.924 9.79299 17.744 9.79299C17.578 9.79299 17.468 9.86899 17.412 10.021L17.184 10.747C17.157 10.801 17.122 10.85 17.08 10.892C17.051 10.935 17.006 10.964 16.956 10.975L16.229 11.224Z" fill="white"/>
</svg>
