<svg width="24" height="24" viewBox="0 0 24 24" fill="none" xmlns="http://www.w3.org/2000/svg">
<path d="M2 12C2 6.477 6.477 2 12 2C17.523 2 22 6.477 22 12C22 17.523 17.523 22 12 22C6.477 22 2 17.523 2 12ZM5.487 6.376C5.848 6.718 6.364 7.275 6.53 7.803C6.833 8.768 6.495 9.461 6.084 10.302C5.998 10.478 5.909 10.661 5.822 10.853C5.675 11.179 5.479 11.408 5.291 11.629C5.047 11.915 4.814 12.188 4.713 12.641C4.595 13.17 4.554 13.51 4.713 14.028C4.957 14.826 5.431 15.227 6.192 15.569C6.834 15.858 7.364 15.554 7.911 15.24C8.41 14.954 8.924 14.659 9.551 14.798C9.731 14.838 9.901 14.87 10.065 14.901C10.869 15.053 11.495 15.171 12.094 15.994C12.64 16.745 12.782 17.177 12.98 17.782C13.016 17.89 13.053 18.004 13.095 18.126C13.344 18.854 13.243 19.942 13.161 20.526C17.02 20.006 20.067 16.928 20.54 13.054C20.287 12.848 19.817 12.483 19.557 12.393C18.977 12.193 18.559 12.312 18.132 12.433C17.731 12.547 17.323 12.662 16.766 12.52C16.685 12.499 16.605 12.479 16.527 12.459C15.383 12.169 14.594 11.969 13.696 11.124C12.417 9.922 11.808 8.674 12.061 6.938C12.251 5.64 13.706 4.268 14.349 3.718C13.602 3.506 12.814 3.393 12 3.393C9.398 3.393 7.065 4.548 5.487 6.374V6.376Z" fill="white"/>
</svg>
