<svg width="24" height="24" viewBox="0 0 24 24" fill="none" xmlns="http://www.w3.org/2000/svg">
<path d="M8.68429 7.68856C8.76176 7.70122 8.84012 7.70778 8.91864 7.70818C9.56997 7.8169 10.2162 7.48676 10.5096 6.89452C10.8208 6.26649 11.294 5.73299 11.8805 5.3492C12.4671 4.96847 13.1186 4.774 13.8765 4.774L13.8844 4.77397C14.3754 4.77139 14.8616 4.87141 15.3117 5.06764C15.7756 5.27062 16.1731 5.54588 16.5146 5.89709L16.5279 5.91066C16.8758 6.25942 17.1547 6.67064 17.3502 7.12278L17.3587 7.1421C17.5668 7.60554 17.6773 8.09713 17.6872 8.632C17.6978 9.20021 18.0286 9.71365 18.5416 9.95816C19.1102 10.2292 19.577 10.6419 19.9532 11.2395L19.9592 11.2491C20.318 11.8096 20.5011 12.4323 20.5011 13.1557C20.5011 13.624 20.4237 14.051 20.2758 14.4486L20.273 14.4563C20.1326 14.84 19.9227 15.1945 19.6538 15.5021L19.6394 15.5189C19.3857 15.8179 19.0796 16.0716 18.7102 16.2801C18.3558 16.479 17.9663 16.6072 17.5631 16.6576C17.4358 16.6673 17.3079 16.6736 17.1796 16.6779C16.7656 16.6914 16.4297 17.0218 16.4297 17.436C16.4297 17.8502 16.7656 18.1942 17.1797 18.184C17.3738 18.1792 17.5694 18.1685 17.7493 18.146C18.3456 18.0714 18.9219 17.8816 19.4459 17.5873C19.9655 17.2943 20.4109 16.928 20.7831 16.4894C21.1734 16.043 21.478 15.5285 21.6817 14.9716C21.8946 14.3993 22.0011 13.7945 22.0011 13.1557C22.0011 12.1575 21.7422 11.2521 21.2226 10.4404C20.703 9.6151 20.0251 9.00356 19.187 8.6041C19.1733 7.87162 19.02 7.18002 18.727 6.52759C18.4568 5.90235 18.071 5.33368 17.59 4.8514C17.1105 4.35825 16.5509 3.97241 15.9121 3.69305C15.2702 3.41304 14.5768 3.2703 13.8765 3.274C12.8382 3.274 11.9004 3.5474 11.0615 4.09251C10.2503 4.62275 9.59575 5.36027 9.16555 6.22864C9.08634 6.21501 9.00543 6.20819 8.92622 6.20819C8.85893 6.19542 8.7925 6.18861 8.72606 6.18861C8.09278 6.18263 7.47529 6.38626 6.9698 6.76778C6.47781 7.13492 6.10891 7.64281 5.91195 8.22423C5.35844 8.34159 4.83069 8.55799 4.35415 8.86303C3.87559 9.15535 3.45019 9.52688 3.09614 9.96176C2.7512 10.4004 2.47779 10.8935 2.27849 11.4386C2.09281 11.9846 1.99912 12.5561 1.99912 13.1557C1.99498 13.8262 2.1238 14.4909 2.37814 15.1113C2.6232 15.6981 2.9675 16.2383 3.39595 16.7083C3.84083 17.1648 4.36982 17.531 4.95376 17.7866C5.5389 18.0532 6.17088 18.186 6.84971 18.186H7.67285C8.08707 18.186 8.42285 17.8502 8.42285 17.436C8.42285 17.0218 8.08707 16.686 7.67285 16.686H6.84971C6.37257 16.686 5.95415 16.594 5.57566 16.4216L5.55526 16.4125C5.15606 16.2377 4.79374 15.9888 4.48749 15.679C4.18404 15.342 3.93951 14.9562 3.7642 14.5378C3.58628 14.1021 3.49619 13.6356 3.49909 13.165L3.49912 13.1557C3.49912 12.7217 3.56546 12.3189 3.69321 11.9376C3.83782 11.547 4.03045 11.2024 4.26736 10.899C4.5125 10.6002 4.80615 10.3446 5.13606 10.1431C5.14503 10.1376 5.15395 10.1321 5.1628 10.1264C5.48715 9.91878 5.84634 9.77149 6.22306 9.69162C6.74105 9.58179 7.16276 9.20701 7.33265 8.7055C7.43212 8.41187 7.61842 8.15537 7.86689 7.96996L7.87344 7.96504C8.10741 7.78845 8.39165 7.69169 8.68429 7.68856Z" fill="white"/>
<path d="M15.9513 13.9949C16.0259 13.9314 16.0857 13.8522 16.1263 13.763C16.1669 13.6739 16.1874 13.5769 16.1863 13.4789C16.1891 13.3773 16.1694 13.2764 16.1288 13.1832C16.0882 13.0901 16.0276 13.007 15.9513 12.9399L12.351 9.31553C12.3052 9.26933 12.2504 9.233 12.19 9.20875C12.1297 9.1845 12.065 9.17286 12 9.17453C11.9348 9.17259 11.87 9.18401 11.8095 9.20809C11.7489 9.23216 11.694 9.26839 11.648 9.31453L8.02412 12.9409C7.95394 13.0117 7.89901 13.0962 7.86272 13.189C7.82643 13.2819 7.80955 13.3812 7.81312 13.4809C7.81312 13.6829 7.88312 13.8549 8.02312 13.9959C8.16412 14.1359 8.33612 14.2059 8.53912 14.2059C8.6387 14.2096 8.73798 14.1929 8.83085 14.1567C8.92372 14.1206 9.00821 14.0659 9.07912 13.9959L11.25 11.8475V19.9772C11.25 20.1802 11.32 20.3592 11.46 20.5162C11.601 20.6562 11.781 20.7262 12 20.7262C12.203 20.7262 12.375 20.6562 12.515 20.5162C12.589 20.447 12.648 20.3634 12.6884 20.2706C12.7288 20.1777 12.7498 20.0775 12.75 19.9762V11.8465L14.8973 13.9959C15.0383 14.1359 15.2103 14.2059 15.4133 14.2059C15.5129 14.2096 15.6122 14.1929 15.705 14.1567C15.7979 14.1206 15.8824 14.0659 15.9533 13.9959L15.9513 13.9949Z" fill="white"/>
</svg>
