<svg width="24" height="24" viewBox="0 0 24 24" fill="none" xmlns="http://www.w3.org/2000/svg">
<path d="M6.57628 5.68549C6.57628 6.20649 6.15407 6.62849 5.63281 6.62849C5.11154 6.62849 4.68933 6.20649 4.68933 5.68549C4.68933 5.16449 5.11154 4.74249 5.63281 4.74249C6.15407 4.74249 6.57628 5.16449 6.57628 5.68549Z" fill="white"/>
<path d="M14.3215 14.4923V17.5073C14.3215 17.8763 14.7267 18.1033 15.0409 17.9093L17.4541 16.4243C17.7513 16.2413 17.7533 15.8113 17.4591 15.6243L15.0459 14.0943C14.7317 13.8943 14.3215 14.1203 14.3215 14.4923Z" fill="white"/>
<path fill-rule="evenodd" clip-rule="evenodd" d="M14 10V4C14 2.89543 13.1046 2 12 2H4C2.89543 2 2 2.89543 2 4V12C2 13.1046 2.89543 14 4 14H10V20C10 21.1046 10.8954 22 12 22H20C21.1046 22 22 21.1046 22 20V12C22 10.8954 21.1046 10 20 10H14ZM12 3.5H4C3.72386 3.5 3.5 3.72386 3.5 4V12C3.5 12.2761 3.72386 12.5 4 12.5H10V12C10 10.9263 10.8461 10.0502 11.908 10.0021L10.3468 8.63155L8.562 10.582C8.25494 10.9176 7.73812 10.952 7.38933 10.66L6.51347 9.92683L5.50134 10.733C5.17734 10.991 4.70548 10.9376 4.44742 10.6136C4.18937 10.2896 4.24283 9.8177 4.56683 9.55964L5.99414 8.42283C6.31011 8.17118 6.75955 8.17665 7.06929 8.43593L7.87525 9.11058L9.6701 7.14917C9.98241 6.80788 10.5103 6.77902 10.858 7.08423L12.5 8.5258V4C12.5 3.72386 12.2761 3.5 12 3.5ZM12 11.5H20C20.2761 11.5 20.5 11.7239 20.5 12V20C20.5 20.2761 20.2761 20.5 20 20.5H12C11.7239 20.5 11.5 20.2761 11.5 20V12C11.5 11.7239 11.7239 11.5 12 11.5Z" fill="white"/>
<path d="M5.30466 17.518C5.30466 17.127 4.9875 16.81 4.5963 16.81C4.20511 16.81 3.88795 17.127 3.88795 17.518V18.697H2.70836C2.31716 18.697 2 19.014 2 19.405C2 19.796 2.31716 20.113 2.70836 20.113H3.88795V21.292C3.88795 21.683 4.20511 22 4.5963 22C4.9875 22 5.30466 21.683 5.30466 21.292V20.113H6.48425C6.87545 20.113 7.19261 19.796 7.19261 19.405C7.19261 19.014 6.87545 18.697 6.48425 18.697H5.30466V17.518Z" fill="white"/>
</svg>
