<svg width="24" height="24" viewBox="0 0 24 24" fill="none" xmlns="http://www.w3.org/2000/svg">
<path d="M8.18296 2.71404C8.17996 2.61904 8.19596 2.52404 8.22996 2.43604C8.26396 2.34804 8.31696 2.26704 8.38396 2.20004C8.52296 2.07004 8.70796 1.99804 8.89796 2.00004H15.103C15.296 2.00004 15.46 2.06704 15.594 2.20004C15.744 2.33404 15.818 2.50604 15.818 2.71404C15.818 2.81004 15.798 2.90604 15.759 2.99404C15.72 3.08204 15.664 3.16204 15.594 3.22704C15.53 3.29204 15.454 3.34304 15.369 3.37804C15.284 3.41304 15.194 3.42904 15.103 3.42704H8.89696C8.70696 3.42804 8.52296 3.35704 8.38396 3.22704C8.25396 3.08804 8.18196 2.90304 8.18396 2.71304L8.18296 2.71404Z" fill="white"/>
<path d="M12.96 10.326C12.96 10.133 13.027 9.96904 13.16 9.83504C13.224 9.76204 13.303 9.70504 13.392 9.66604C13.481 9.62704 13.577 9.60904 13.674 9.61204C13.867 9.61204 14.031 9.68604 14.165 9.83504C14.315 9.96904 14.389 10.133 14.389 10.326V16.509C14.392 16.606 14.373 16.702 14.334 16.791C14.295 16.88 14.238 16.959 14.165 17.023C14.101 17.088 14.025 17.139 13.94 17.174C13.855 17.209 13.765 17.225 13.674 17.223C13.579 17.227 13.485 17.211 13.396 17.176C13.307 17.141 13.227 17.089 13.16 17.023C13.093 16.955 13.041 16.875 13.007 16.787C12.973 16.699 12.957 16.604 12.96 16.509V10.326Z" fill="white"/>
<path d="M10.046 9.67004C10.134 9.63204 10.229 9.61204 10.326 9.61204C10.423 9.60904 10.519 9.62804 10.608 9.66604C10.697 9.70404 10.776 9.76204 10.84 9.83504C10.905 9.89904 10.957 9.97504 10.991 10.06C11.025 10.145 11.042 10.235 11.04 10.326V16.509C11.043 16.604 11.027 16.699 10.993 16.787C10.959 16.875 10.906 16.956 10.839 17.023C10.772 17.089 10.692 17.141 10.603 17.176C10.514 17.211 10.421 17.226 10.326 17.223C10.132 17.223 9.95996 17.156 9.81196 17.023C9.67896 16.889 9.61196 16.717 9.61196 16.509V10.326C9.60996 10.235 9.62696 10.144 9.66096 10.06C9.69496 9.97604 9.74696 9.89904 9.81196 9.83504C9.87796 9.76504 9.95696 9.70804 10.046 9.67004Z" fill="white"/>
<path d="M19.857 4.85704H4.14296C3.95196 4.85604 3.76796 4.92804 3.62896 5.05804C3.56296 5.12504 3.51096 5.20504 3.47596 5.29404C3.44096 5.38304 3.42596 5.47604 3.42896 5.57104C3.42696 5.76204 3.49896 5.94604 3.62896 6.08504C3.76796 6.21504 3.95196 6.28704 4.14296 6.28604H5.32596V18.183C5.32596 19.239 5.69796 20.14 6.44196 20.884C7.18596 21.628 8.08596 22 9.14296 22H14.857C15.913 22 16.814 21.628 17.558 20.884C18.302 20.14 18.674 19.24 18.674 18.183V6.28504H19.857C19.948 6.28704 20.039 6.27004 20.123 6.23604C20.207 6.20204 20.284 6.15004 20.348 6.08504C20.418 6.01904 20.474 5.94004 20.513 5.85104C20.552 5.76204 20.571 5.66704 20.571 5.57104C20.571 5.36204 20.497 5.19104 20.348 5.05704C20.214 4.92404 20.05 4.85704 19.857 4.85704ZM16.532 19.879C16.07 20.341 15.513 20.571 14.858 20.571H9.14396C8.48896 20.571 7.92396 20.341 7.44796 19.879C6.98596 19.403 6.75596 18.838 6.75596 18.183V6.28604H17.247V18.183C17.247 18.838 17.009 19.403 16.533 19.879H16.532Z" fill="white"/>
</svg>
