<svg width="24" height="24" viewBox="0 0 24 24" fill="none" xmlns="http://www.w3.org/2000/svg">
<path fill-rule="evenodd" clip-rule="evenodd" d="M17.0752 13.1396C19.0075 13.1396 20.575 14.7068 20.5752 16.6396C20.5752 17.4465 20.3014 18.1902 19.8428 18.7822L21.7803 20.7197C22.0731 21.0126 22.0731 21.4874 21.7803 21.7803C21.4875 22.0731 21.0125 22.0732 20.7197 21.7803L18.6875 19.7471C18.2051 19.998 17.6565 20.1396 17.0752 20.1396C15.1429 20.1394 13.5762 18.5725 13.5762 16.6396C13.5764 14.707 15.1431 13.1399 17.0752 13.1396ZM17.0752 14.6396C15.9713 14.6399 15.0764 15.5354 15.0762 16.6396C15.0762 17.7441 15.9711 18.6394 17.0752 18.6396C18.1795 18.6396 19.0752 17.7442 19.0752 16.6396C19.075 15.5353 18.1793 14.6396 17.0752 14.6396Z" fill="white"/>
<path fill-rule="evenodd" clip-rule="evenodd" d="M17 2C19.2091 2 21 3.79086 21 6V11.8896C21 12.3039 20.6642 12.6396 20.25 12.6396C19.8358 12.6396 19.5 12.3039 19.5 11.8896V6C19.5 4.61929 18.3807 3.5 17 3.5H6C4.61929 3.5 3.5 4.61929 3.5 6V12.7793L6.81738 8.86133C7.4788 8.08019 8.66684 8.03118 9.39062 8.75488L11.2275 10.5908L11.8418 9.97754C12.5252 9.29419 13.634 9.29431 14.3174 9.97754L15.2949 10.9551C15.5878 11.248 15.5877 11.7226 15.2949 12.0156C15.0021 12.3087 14.5275 12.3092 14.2344 12.0166L13.2568 11.0391C13.1592 10.9415 13.0009 10.9415 12.9033 11.0391L12.2891 11.6523L12.668 12.0312C12.9604 12.3243 12.9607 12.7991 12.668 13.0918C12.375 13.3847 11.8994 13.3847 11.6064 13.0918L8.33008 9.81543C8.22677 9.71221 8.05741 9.71881 7.96289 9.83008L3.5 15.1006V17C3.5 18.3807 4.61929 19.5 6 19.5H11.8262C12.2404 19.5 12.5762 19.8358 12.5762 20.25C12.5762 20.6642 12.2404 21 11.8262 21H6L5.79395 20.9951C3.7488 20.8913 2.10865 19.2512 2.00488 17.2061L2 17V14.5605L1.99512 14.5566L2 14.5508V6C2 3.79086 3.79086 2 6 2H17Z" fill="white"/>
</svg>
