<svg width="24" height="24" viewBox="0 0 24 24" fill="none" xmlns="http://www.w3.org/2000/svg">
<path d="M5 4C5 2.89543 5.89543 2 7 2H17C18.1046 2 19 2.89543 19 4V8C19 9.10457 18.1046 10 17 10H14.5612V11.5L21.0936 11.5C21.5942 11.5 22 11.9058 22 12.4064C22 12.907 21.5942 13.3128 21.0936 13.3128H19.9984C19.9994 13.331 20 13.3494 20 13.3678V21.0936C20 21.5942 19.5942 22 19.0936 22C18.593 22 18.1872 21.5942 18.1872 21.0936V19.9328H15.4676V21.0936C15.4676 21.5942 15.0618 22 14.5612 22C14.0606 22 13.6548 21.5942 13.6548 21.0936V16.6228H5.81284V21.0936C5.81284 21.5942 5.40702 22 4.90642 22C4.40582 22 4 21.5942 4 21.0936V13.3678C4 13.3494 4.00055 13.331 4.00164 13.3128H2.90642C2.40582 13.3128 2 12.907 2 12.4064C2 11.9058 2.40582 11.5 2.90642 11.5H9.43883V10H7C5.89543 10 5 9.10457 5 8V4ZM6.5 4V8C6.5 8.27614 6.72386 8.5 7 8.5H17C17.2761 8.5 17.5 8.27614 17.5 8V4C17.5 3.72386 17.2761 3.5 17 3.5H7C6.72386 3.5 6.5 3.72386 6.5 4ZM18.1888 13.3128L5.8112 13.3128C5.81228 13.331 5.81284 13.3494 5.81284 13.3678V14.81L18.1872 14.81V13.3678C18.1872 13.3494 18.1877 13.331 18.1888 13.3128ZM11.2517 10V11.5H12.7483V10H11.2517ZM18.1872 16.6228H15.4676V18.12H18.1872V16.6228Z" fill="white"/>
</svg>
