<svg width="24" height="24" viewBox="0 0 24 24" fill="none" xmlns="http://www.w3.org/2000/svg">
<path d="M6.19579 5.96353L16.3558 2.15953L16.3568 2.16153C18.0398 1.53153 19.7238 2.85353 19.7238 4.60653V6.77353C21.1078 7.15953 21.9918 8.67353 21.9918 10.2295C21.9918 10.8515 21.8508 11.4655 21.5938 12.0045H21.5926C21.2054 12.8154 20.5542 13.4534 19.7228 13.686V15.853C19.7228 17.606 18.0388 18.928 16.3558 18.298L11.9538 16.65L12.6948 18.551C13.1788 19.794 12.6348 21.243 11.4108 21.793C11.0908 21.937 10.7608 22.003 10.4368 22.002C9.46879 22.005 8.55979 21.401 8.18079 20.435L5.84679 14.494H4.52079C3.13965 14.494 2.06513 13.3594 2.01089 12.0025L2.01075 12.001C2.00977 11.9658 2.00879 11.9287 2.00879 11.8925V8.56353C2.00879 7.15853 3.10279 5.96353 4.52079 5.96353H6.19579ZM3.40591 12.0025C3.4576 12.6437 3.96323 13.1 4.51879 13.1H5.62279V12.001H5.62479V7.35853H4.52079C3.93479 7.35853 3.40379 7.86653 3.40379 8.56353V11.8925C3.40379 11.9295 3.40479 11.9665 3.40779 12.0025H3.40591ZM15.1528 4.10553L7.03379 7.14453V12.0025H7.03179V13.314L15.1508 16.353V12.001H15.1528V4.10553ZM16.8598 3.46653L16.5618 3.57753V12.0025H16.5598V16.88L16.8578 16.991L16.8558 16.995C17.5338 17.239 18.3268 16.725 18.3268 15.852V12H18.3288V4.60553C18.3288 3.73253 17.5358 3.21853 16.8578 3.46253L16.8598 3.46653ZM20.5968 10.2295C20.5968 9.30953 20.2038 8.64153 19.7238 8.30953V12.0035H19.7218V12.149C19.7858 12.105 19.8478 12.055 19.9078 12H19.9097C20.3013 11.6355 20.5968 11.0272 20.5968 10.2295ZM7.55779 15.005L9.49079 19.926C9.66179 20.362 10.0438 20.603 10.4358 20.606C10.5668 20.605 10.6988 20.577 10.8238 20.521C11.3338 20.292 11.6088 19.647 11.3798 19.058L10.1838 15.988H10.1828L7.55779 15.005Z" fill="white"/>
</svg>
