<svg width="24" height="24" viewBox="0 0 24 24" fill="none" xmlns="http://www.w3.org/2000/svg">
<path fill-rule="evenodd" clip-rule="evenodd" d="M7 2.00049C5.89543 2.00049 5 2.89592 5 4.00049V13.0005H4C2.89543 13.0005 2 13.8959 2 15.0005V20.0005C2 21.1051 2.89543 22.0005 4 22.0005H9C9.26661 22.0005 9.52102 21.9483 9.75362 21.8536C9.98424 21.9465 10.2362 21.9976 10.5 21.9976H20C21.1046 21.9976 22 21.1021 22 19.9976V11.4976C22 10.393 21.1046 9.49756 20 9.49756H16V4.00049C16 2.89592 15.1046 2.00049 14 2.00049H7ZM9.5 19.4976C9.5 20.0402 9.04256 20.5005 8.5 20.5005H4.5C3.94772 20.5005 3.5 20.0528 3.5 19.5005V15.5005C3.5 14.9482 3.94772 14.5005 4.5 14.5005H8.5C9.05228 14.5005 9.5 14.9482 9.5 15.5005V19.4976ZM10.9382 20.4956C10.9786 20.3373 11 20.1714 11 20.0005V15.0005C11 14.2605 10.5981 13.6143 10.0006 13.2684V11.9976C10.0006 11.4453 10.4483 10.9976 11.0006 10.9976H19.5006C20.0529 10.9976 20.5006 11.4453 20.5006 11.9976V19.4976C20.5006 20.0498 20.0529 20.4976 19.5006 20.4976H11.0006C10.9797 20.4976 10.9589 20.4969 10.9382 20.4956ZM8.5 13.0005H6.5V4.50049C6.5 3.9482 6.94772 3.50049 7.5 3.50049H13.5C14.0523 3.50049 14.5 3.9482 14.5 4.50049V9.49756H10.5C9.39543 9.49756 8.5 10.393 8.5 11.4976V13.0005Z" fill="white"/>
</svg>
