<svg width="24" height="24" viewBox="0 0 24 24" fill="none" xmlns="http://www.w3.org/2000/svg">
<path d="M8.51141 3.6282C8.51141 3.24331 8.82381 2.93091 9.2087 2.93091H14.7901C15.175 2.93091 15.4874 3.24331 15.4874 3.6282C15.4874 4.01309 15.175 4.3255 14.7901 4.3255H9.2087C8.82381 4.3255 8.51141 4.01309 8.51141 3.6282Z" fill="white"/>
<path d="M13.1631 15.9523C13.1631 16.5944 12.6424 17.1151 12.0003 17.1151C11.3581 17.1151 10.8374 16.5944 10.8374 15.9523C10.8374 15.3101 11.3581 14.7894 12.0003 14.7894C12.6424 14.7894 13.1631 15.3101 13.1631 15.9523Z" fill="white"/>
<path d="M6.41858 5.72071C3.97856 5.72071 2 7.69927 2 10.1393V16.6508C2 19.0908 3.97856 21.0694 6.41858 21.0694H17.5814C20.0214 21.0694 22 19.0908 22 16.6508V10.1393C22 7.69927 20.0214 5.72071 17.5814 5.72071H6.41858ZM3.39561 16.6508V12.2465C3.89587 12.5762 4.50842 12.8601 5.19244 13.1C6.96784 13.7217 9.37519 14.0923 12.001 14.0923C14.6268 14.0923 17.0342 13.7207 18.8096 13.1C19.4926 12.8611 20.1052 12.5762 20.6064 12.2465V16.6508C20.6064 18.32 19.2527 19.6737 17.5835 19.6737H6.42062C4.7514 19.6737 3.39765 18.32 3.39765 16.6508H3.39561ZM20.1266 10.8693C19.7427 11.1868 19.1465 11.5032 18.3471 11.783C16.7555 12.3404 14.5115 12.6977 12 12.6977C9.48851 12.6977 7.24451 12.3404 5.65288 11.783C4.8535 11.5032 4.25727 11.1868 3.8734 10.8693C3.48545 10.5487 3.39561 10.2986 3.39561 10.1393C3.39561 8.47007 4.74936 7.11632 6.41858 7.11632H17.5814C19.2506 7.11632 20.6044 8.47007 20.6044 10.1393C20.6044 10.2975 20.5145 10.5477 20.1266 10.8693Z" fill="white"/>
</svg>
