<svg width="24" height="24" viewBox="0 0 24 24" fill="none" xmlns="http://www.w3.org/2000/svg">
<path d="M2.7061 4.19995C3.09639 4.19995 3.4122 4.51793 3.4122 4.90868V19.0912C3.4122 19.483 3.0954 19.8 2.7061 19.8C2.3168 19.8 2 19.482 2 19.0912V4.90868C2 4.51694 2.3168 4.19995 2.7061 4.19995Z" fill="white"/>
<path d="M20.5878 4.90868C20.5878 4.51694 20.9046 4.19995 21.2939 4.19995C21.6832 4.19995 22 4.51793 22 4.90868V19.0912C22 19.483 21.6832 19.8 21.2939 19.8C20.9046 19.8 20.5878 19.482 20.5878 19.0912V4.90868Z" fill="white"/>
<path d="M4.88046 5.37976C5.27075 5.37976 5.58656 5.69774 5.58656 6.08849V17.9076C5.58656 18.2994 5.26976 18.6163 4.88046 18.6163C4.49116 18.6163 4.17436 18.2984 4.17436 17.9076V6.08849C4.17436 5.69675 4.49116 5.37976 4.88046 5.37976Z" fill="white"/>
<path d="M18.4134 6.09044C18.4134 5.69869 18.7302 5.38171 19.1195 5.38171C19.5088 5.38171 19.8256 5.69969 19.8256 6.09044V17.9096C19.8256 18.3013 19.5088 18.6183 19.1195 18.6183C18.7302 18.6183 18.4134 18.3003 18.4134 17.9096V6.09044Z" fill="white"/>
<path d="M8.23168 6.32595H15.7674C16.8082 6.32595 17.6513 7.17224 17.6513 8.21689V15.7806C17.6513 16.8253 16.8082 17.6716 15.7674 17.6716H8.23168C7.19091 17.6716 6.34776 16.8253 6.34776 15.7806V8.21689C6.34776 7.17224 7.19091 6.32595 8.23168 6.32595ZM8.70539 7.7464C8.18501 7.7464 7.76294 8.17004 7.76294 8.69236V15.3112C7.76294 15.8335 8.18501 16.2571 8.70539 16.2571H15.2996C15.82 16.2571 16.2421 15.8335 16.2421 15.3112V8.69236C16.2421 8.17004 15.82 7.7464 15.2996 7.7464H8.70539Z" fill="white"/>
</svg>
