<svg width="24" height="24" viewBox="0 0 24 24" fill="none" xmlns="http://www.w3.org/2000/svg">
<path d="M10.7338 2.19012C10.7658 2.06507 10.8359 2.00305 10.9451 2.00305C11.0702 1.98705 11.1563 2.03406 11.2024 2.1431L11.9283 4.01474C11.9433 4.04676 11.9673 4.07777 11.9984 4.10878C12.0294 4.13979 12.0614 4.15579 12.0925 4.15579L13.8246 4.71799C13.9348 4.764 13.9888 4.85003 13.9888 4.97408C14.0048 5.08411 13.9498 5.15414 13.8246 5.18515L12.0925 5.86338C12.0574 5.88139 12.0264 5.9054 11.9984 5.93341C11.9793 5.95441 11.9633 5.97742 11.9513 6.00343L11.2494 7.82906C11.2184 7.9391 11.1393 7.99312 11.0162 7.99312C10.891 7.97711 10.8119 7.91509 10.7809 7.80505L10.2662 6.05045C10.2522 6.00643 10.2282 5.96642 10.1961 5.93341C10.1801 5.9034 10.1481 5.87939 10.102 5.86338L8.18165 5.25417C8.05649 5.22416 7.99341 5.14513 7.99341 5.02109C7.99341 4.89705 8.05649 4.81802 8.18165 4.78801L10.078 4.1788C10.125 4.1788 10.1561 4.1638 10.1721 4.13279C10.2041 4.09977 10.2282 4.05876 10.2422 4.01474L10.7338 2.19012Z" fill="white"/>
<path d="M5.91084 6.02544C5.89582 5.97842 5.87179 5.93941 5.84075 5.9084C5.80971 5.87739 5.77767 5.85538 5.74663 5.83937C5.7156 5.80936 5.67655 5.78536 5.62949 5.76935C5.59845 5.75434 5.5594 5.74634 5.51234 5.74634C5.48131 5.73034 5.44126 5.72233 5.3952 5.72233C5.35515 5.72433 5.3151 5.73234 5.27705 5.74634C5.24301 5.76435 5.21097 5.78836 5.18394 5.81637L3.12439 7.54496C2.8891 7.74903 2.68685 7.99012 2.51464 8.27121C2.34242 8.5353 2.21827 8.83241 2.14017 9.15952C2.04606 9.47063 2 9.79874 2 10.1429C2.01602 10.489 2.06308 10.8331 2.14017 11.1712L2.28035 11.7094C2.34843 11.9605 2.49661 12.1816 2.70187 12.3416C2.79999 12.4096 2.91113 12.4547 3.02827 12.4747C3.14542 12.4947 3.26557 12.4897 3.38071 12.4587L6.54162 11.6174C6.65576 11.5874 6.76189 11.5323 6.851 11.4553C6.94011 11.3783 7.0112 11.2813 7.05725 11.1732C7.16739 10.9381 7.19042 10.689 7.12734 10.425L5.97992 6.14348C5.9649 6.11247 5.94188 6.07345 5.90984 6.02644L5.91084 6.02544Z" fill="white"/>
<path d="M13.8552 21.2297L18.5545 15.3136L18.8348 15.1256L19.1152 14.8925C19.5367 14.5494 19.9892 14.1052 20.4728 13.559C20.9825 12.9738 21.408 12.3206 21.7374 11.6174C21.9707 11.1022 22.0488 10.603 21.9707 10.1199C21.9086 9.63568 21.7444 9.19153 21.4791 8.78639C21.2148 8.39626 20.8854 8.04614 20.4959 7.73303C20.1054 7.42092 19.6839 7.16383 19.2313 6.96176C18.7948 6.7737 18.3262 6.63365 17.8266 6.54062C17.351 6.43158 16.8604 6.39957 16.3748 6.44558C15.8902 6.5086 15.4306 6.66566 14.9931 6.91475C14.5725 7.14783 14.2281 7.51495 13.9628 8.01412C13.5573 8.76238 13.2759 9.48063 13.1198 10.1669C12.9756 10.7501 12.8895 11.3453 12.8624 11.9445C12.8474 12.0845 12.8394 12.2246 12.8394 12.3656V12.7157L10.4349 19.194C10.2157 19.6931 10.1996 20.1923 10.3879 20.6915C10.5681 21.1666 10.9185 21.5588 11.3711 21.7919C11.8086 21.9949 12.2532 22.049 12.7057 21.9559C13.1743 21.8459 13.5568 21.6048 13.8532 21.2307L13.8552 21.2297ZM15.767 8.17718C15.9863 8.05314 16.2436 7.97411 16.54 7.9441C16.8774 7.91409 17.2168 7.9381 17.5472 8.01412C17.9177 8.08015 18.2791 8.19019 18.6246 8.34124C18.8278 8.43527 19.0231 8.54431 19.2103 8.66835C19.3945 8.77539 19.5667 8.90143 19.7249 9.04348L18.157 10.2119C18.0749 10.2689 18.0058 10.3409 17.9537 10.426C17.9017 10.511 17.8676 10.605 17.8526 10.7031C17.8356 10.7981 17.8386 10.8951 17.8636 10.9881C17.8886 11.0812 17.9317 11.1682 17.9928 11.2422C18.0498 11.3233 18.1219 11.3933 18.207 11.4453C18.2921 11.4973 18.3863 11.5313 18.4844 11.5463C18.5825 11.5623 18.6836 11.5583 18.7798 11.5343C18.8759 11.5103 18.967 11.4673 19.0471 11.4063L20.4989 10.3299C20.4989 10.438 20.4909 10.547 20.4748 10.657C20.4608 10.7631 20.4288 10.8661 20.3817 10.9611C20.0854 11.6004 19.7329 12.1455 19.3274 12.5977C18.9219 13.0499 18.5395 13.424 18.181 13.7201C18.0098 13.8641 17.8296 13.9962 17.6413 14.1172C17.4851 14.2273 17.354 14.3133 17.2439 14.3743L17.1968 14.3983L14.3873 12.9938C14.3713 12.8858 14.3553 12.7528 14.3403 12.5967V12.0115C14.3833 11.5153 14.4614 11.0232 14.5736 10.538C14.7378 9.90178 14.9811 9.28856 15.2994 8.71337C15.3976 8.49129 15.5608 8.30322 15.767 8.17418V8.17718ZM15.5808 16.6691L13.286 15.5237L13.7776 14.4013L16.3768 15.6638L15.5808 16.6701V16.6691ZM11.8186 19.7792L12.7002 16.9042L14.6436 17.8625L12.6847 20.2943C12.6126 20.3994 12.5035 20.4734 12.3803 20.5044C12.2712 20.5204 12.1621 20.4974 12.0529 20.4344C11.9278 20.3874 11.8417 20.3023 11.7956 20.1783C11.7726 20.1143 11.7626 20.0453 11.7666 19.9762C11.7706 19.9072 11.7876 19.8412 11.8186 19.7792Z" fill="white"/>
<path d="M9.72656 14.5874L9.98387 15.5467C9.96885 15.6247 9.94483 15.7028 9.91379 15.7818C9.89276 15.8538 9.85171 15.9178 9.79664 15.9689C9.74958 16.0309 9.69452 16.0859 9.63244 16.1329C9.56536 16.1659 9.49427 16.1889 9.42118 16.2029C9.34408 16.219 9.26498 16.227 9.18589 16.227C9.1128 16.228 9.04171 16.212 8.97563 16.1799C8.89953 16.1649 8.82744 16.1329 8.76437 16.0859C8.70529 16.0279 8.65022 15.9649 8.60016 15.8988L8.34284 14.9865C8.31681 14.9065 8.28577 14.8275 8.24873 14.7514C8.21869 14.6764 8.17964 14.6064 8.13158 14.5414C8.07251 14.4824 8.01043 14.4273 7.94335 14.3763C7.89229 14.3103 7.82921 14.2543 7.75612 14.2123C7.68703 14.1783 7.61695 14.1472 7.54486 14.1182C7.46276 14.0862 7.37465 14.0712 7.28754 14.0722C7.21044 14.0562 7.13135 14.0562 7.05425 14.0722C6.97615 14.0722 6.89706 14.0792 6.81896 14.0952L4.87556 14.6104C4.79245 14.6274 4.71336 14.6594 4.64227 14.7034C4.57919 14.7354 4.51711 14.7735 4.45403 14.8215C4.38195 14.8635 4.31787 14.9185 4.2668 14.9855C4.21674 15.0526 4.16968 15.1226 4.12563 15.1956C4.07757 15.2606 4.03852 15.3316 4.00848 15.4067L3.96143 15.6418V15.8988C3.96143 15.9769 3.97745 16.0549 4.00848 16.1319L4.47706 18.0506C4.49208 18.0956 4.50009 18.1426 4.50009 18.1906V18.3317C4.50009 18.3797 4.49208 18.4267 4.47706 18.4717C4.46004 18.5217 4.43701 18.5688 4.40698 18.6128L4.31186 18.7538L4.21874 18.8479C4.16968 18.8649 4.12263 18.8889 4.07857 18.9179L3.9374 18.9649C3.84728 18.9959 3.75016 19.0039 3.65605 18.9879C3.55793 18.9709 3.46381 18.9399 3.3757 18.8949C3.2956 18.8459 3.22451 18.7818 3.16544 18.7068C3.10537 18.6198 3.05831 18.5257 3.02327 18.4267L2.50863 16.5081C2.41551 16.1569 2.39148 15.7918 2.43854 15.4317C2.50062 15.0726 2.61877 14.7384 2.78898 14.4253C2.9712 14.1192 3.2095 13.8491 3.49084 13.6301C3.78721 13.397 4.10761 13.2329 4.45103 13.1389L6.34838 12.6477C6.51959 12.6007 6.6908 12.5697 6.86301 12.5537C7.05125 12.5387 7.23748 12.5457 7.42571 12.5777C7.59792 12.5927 7.76813 12.6317 7.94035 12.6947C8.11256 12.7568 8.27576 12.8278 8.43196 12.9048C8.58915 12.9988 8.72832 13.1089 8.85348 13.2329C8.99465 13.343 9.12681 13.474 9.25197 13.6301C9.3621 13.7701 9.45522 13.9262 9.53232 14.0982C9.61041 14.2543 9.67249 14.4173 9.72055 14.5894H9.71955L9.72656 14.5874Z" fill="white"/>
</svg>
