<svg width="24" height="24" viewBox="0 0 24 24" fill="none" xmlns="http://www.w3.org/2000/svg">
<path d="M17.25 2C19.87 2 22 4.13 22 6.75V8.25C22 8.66 21.66 9 21.25 9C20.84 9 20.5 8.66 20.5 8.25V6.75C20.5 4.96 19.04 3.5 17.25 3.5H6.75C4.96 3.5 3.5 4.96 3.5 6.75V17.25C3.5 19.04 4.96 20.5 6.75 20.5H7.625L7.70117 20.5039C8.07614 20.543 8.375 20.8658 8.375 21.25C8.375 21.6599 8.03488 21.9998 7.625 22H6.75C4.13 22 2 19.87 2 17.25V6.75C2 4.13 4.13 2 6.75 2H17.25Z" fill="white"/>
<path d="M18.4141 10.085C19.414 10.085 20.2583 10.4367 20.9453 11.1396C21.6483 11.8426 22 12.6869 22 13.6709C22 14.6559 21.6483 15.4992 20.9453 16.2021L15.3809 21.7188C15.2884 21.8113 15.1773 21.8831 15.0547 21.9287C14.936 21.9776 14.8081 22.002 14.6797 22H11.0693C10.934 22.0014 10.7996 21.9752 10.6748 21.9229C10.5499 21.8704 10.4366 21.793 10.3428 21.6953C10.2451 21.6015 10.1677 21.4881 10.1152 21.3633C10.0629 21.2385 10.0367 21.1041 10.0381 20.9688V17.3584C10.0381 17.2336 10.0625 17.1082 10.1084 16.9834C10.1713 16.8588 10.2491 16.75 10.3428 16.6562L15.9072 11.1387C16.2291 10.7989 16.6183 10.53 17.0498 10.3486C17.4814 10.1672 17.9459 10.0772 18.4141 10.085ZM11.7266 17.4297C11.679 17.4776 11.6392 17.5332 11.6094 17.5938C11.5937 17.6549 11.5853 17.7182 11.585 17.7812V19.9609C11.585 20.1009 11.6326 20.227 11.7256 20.3359C11.8195 20.4298 11.9373 20.4756 12.0771 20.4756L14.2568 20.4766C14.322 20.4757 14.3865 20.4597 14.4443 20.4297C14.5052 20.3999 14.5611 20.3601 14.6094 20.3125L17.8047 17.1855L14.9219 14.3037L11.7266 17.4297ZM18.4141 11.6309C17.8522 11.6309 17.3753 11.8259 16.9844 12.2168L16 13.2012L18.8828 16.084L19.8672 15.0996C20.273 14.7097 20.4765 14.2328 20.4766 13.6699C20.4766 13.108 20.2731 12.6228 19.8672 12.2168C19.4772 11.8268 18.992 11.6309 18.4141 11.6309Z" fill="white"/>
<path d="M6 7.0127C6.00014 6.20167 6.93781 5.72085 7.63184 6.17578L11.042 8.41309C11.653 8.81426 11.653 9.68575 11.042 10.0869L7.63184 12.3242C6.93781 12.7792 6.00014 12.2983 6 11.4873V7.0127Z" fill="white"/>
</svg>
