<svg width="24" height="24" viewBox="0 0 24 24" fill="none" xmlns="http://www.w3.org/2000/svg">
<path d="M18.675 17.246H12C11.899 17.246 11.799 17.267 11.706 17.307C11.613 17.347 11.53 17.406 11.46 17.48C11.392 17.547 11.338 17.627 11.302 17.716C11.266 17.805 11.248 17.9 11.25 17.995C11.25 18.198 11.32 18.378 11.46 18.535C11.617 18.675 11.797 18.745 12 18.745H17.152C16.431 19.302 15.625 19.737 14.764 20.034C13.877 20.348 12.942 20.506 12 20.502C10.864 20.509 9.73903 20.278 8.69803 19.823C7.68703 19.399 6.76603 18.787 5.98203 18.019C5.21503 17.236 4.60303 16.314 4.17803 15.303C3.72303 14.262 3.49103 13.137 3.49903 12.001C3.49903 10.83 3.72603 9.73 4.17803 8.699C4.59903 7.693 5.21203 6.778 5.98203 6.006C6.76003 5.227 7.68303 4.607 8.69803 4.18C9.73903 3.725 10.864 3.493 12 3.501C12.968 3.501 13.888 3.657 14.764 3.97C15.625 4.267 16.431 4.702 17.152 5.258H12C11.899 5.258 11.799 5.279 11.706 5.319C11.613 5.359 11.53 5.418 11.46 5.492C11.392 5.559 11.338 5.639 11.302 5.728C11.266 5.817 11.248 5.912 11.25 6.008C11.25 6.211 11.32 6.391 11.46 6.548C11.617 6.688 11.797 6.758 12 6.758H18.675C18.972 7.133 19.229 7.53 19.447 7.952C19.682 8.359 19.877 8.795 20.033 9.264H13.991C13.791 9.262 13.599 9.338 13.452 9.474C13.382 9.545 13.327 9.629 13.291 9.722C13.255 9.815 13.238 9.914 13.242 10.013C13.242 10.216 13.312 10.396 13.452 10.552C13.608 10.692 13.788 10.762 13.992 10.762H20.408C20.504 11.382 20.527 12.011 20.478 12.636C20.463 12.839 20.439 13.042 20.408 13.246H13.991C13.89 13.246 13.79 13.267 13.698 13.307C13.606 13.347 13.522 13.406 13.453 13.48C13.385 13.547 13.331 13.627 13.295 13.716C13.259 13.805 13.241 13.899 13.243 13.995C13.243 14.214 13.313 14.394 13.453 14.535C13.609 14.675 13.789 14.745 13.993 14.745H20.034C19.881 15.207 19.685 15.654 19.448 16.08C19.226 16.492 18.967 16.884 18.676 17.251L18.675 17.246ZM12 22C13.337 22.008 14.661 21.736 15.887 21.204C17.077 20.707 18.159 19.984 19.072 19.073C19.983 18.16 20.707 17.079 21.203 15.889C21.736 14.663 22.007 13.338 21.999 12.001C22.007 10.664 21.735 9.34 21.203 8.114C20.706 6.924 19.983 5.842 19.072 4.929C18.159 4.018 17.078 3.294 15.888 2.798C14.662 2.265 13.337 1.994 12 2.002C10.663 1.995 9.33903 2.266 8.11303 2.798C6.92303 3.295 5.84103 4.019 4.92803 4.929C4.01703 5.842 3.29403 6.924 2.79703 8.113C2.26403 9.34 1.99303 10.664 2.00103 12.001C1.99403 13.338 2.26503 14.662 2.79703 15.888C3.29403 17.078 4.01803 18.16 4.92803 19.073C5.84103 19.984 6.92303 20.708 8.11203 21.204C9.33903 21.737 10.663 22.008 12 22Z" fill="white"/>
</svg>
