<svg width="24" height="24" viewBox="0 0 24 24" fill="none" xmlns="http://www.w3.org/2000/svg">
<path d="M14.2172 2.7494C14.2172 3.16328 13.8817 3.4988 13.4678 3.4988H6.0048C5.31735 3.4988 4.72482 3.7486 4.22522 4.2482C3.99052 4.47581 3.80498 4.74912 3.68004 5.05125C3.5551 5.35337 3.49341 5.6779 3.4988 6.0048V14.3651L7.48062 10.0795C8.02618 9.48601 8.69764 9.19025 9.494 9.19025C10.2904 9.19025 10.9618 9.48601 11.5084 10.0795L13.6167 12.3277L14.0604 11.8831C14.3091 11.6262 14.6078 11.4231 14.9381 11.2861C15.2684 11.1491 15.6233 11.0813 15.9808 11.0867C16.7462 11.0867 17.4017 11.3525 17.9492 11.8831L20.5012 14.4361V10.2434C20.5012 9.82952 20.8367 9.49401 21.2506 9.49401C21.6645 9.49401 22 9.82952 22 10.2434V17.9952C22 19.1043 21.6103 20.0486 20.8289 20.8289C20.0486 21.6093 19.1033 22 17.9952 22H6.0048C4.89568 22 3.95144 21.6103 3.17106 20.8289C2.39069 20.0486 2 19.1033 2 17.9952V6.0048C2 4.89568 2.38969 3.95144 3.17106 3.17106C3.95144 2.39069 4.89668 2 6.0048 2H13.4678C13.8817 2 14.2172 2.33552 14.2172 2.7494ZM20.4772 16.5434L20.4542 16.5194L16.8711 12.9373C16.7584 12.8226 16.6234 12.7322 16.4744 12.6717C16.3254 12.6112 16.1656 12.5819 16.0048 12.5855C15.6611 12.5855 15.3653 12.7024 15.1155 12.9363L14.6229 13.4289L16.5434 15.4892C16.6833 15.6451 16.7462 15.8249 16.7302 16.0288C16.7313 16.1264 16.7109 16.2231 16.6705 16.312C16.6301 16.401 16.5707 16.4799 16.4964 16.5434C16.4255 16.6133 16.3411 16.668 16.2483 16.7041C16.1555 16.7402 16.0563 16.7569 15.9568 16.7532C15.8584 16.7464 15.7622 16.7202 15.6739 16.6761C15.5856 16.6321 15.5069 16.571 15.4422 16.4964L10.4073 11.0867C10.2942 10.9567 10.1536 10.8534 9.99559 10.7844C9.83762 10.7155 9.66628 10.6825 9.494 10.6881C9.13429 10.6881 8.83054 10.8209 8.58074 11.0867L3.54676 16.4964C3.54676 16.5124 3.53877 16.5274 3.52378 16.5434L3.4998 16.5663V17.9952C3.4998 18.6827 3.74161 19.2752 4.22622 19.7748C4.72582 20.2594 5.31835 20.5012 6.0058 20.5012H17.9962C18.6837 20.5012 19.2682 20.2594 19.7528 19.7748C20.2524 19.2752 20.5022 18.6827 20.5022 17.9952L20.5012 16.5663L20.4772 16.5434Z" fill="white"/>
<path d="M16.5082 3.01288C16.5082 2.20157 17.4463 1.72063 18.1405 2.17611L21.5497 4.41323C22.161 4.81438 22.161 5.68562 21.5497 6.08677L18.1405 8.32389C17.4463 8.77937 16.5082 8.29843 16.5082 7.48712V3.01288Z" fill="white"/>
</svg>
