<svg width="24" height="24" viewBox="0 0 24 24" fill="none" xmlns="http://www.w3.org/2000/svg">
<path d="M15.0351 9.57447C15.0351 9.7632 15.1002 9.93054 15.2304 10.0756C15.3615 10.2057 15.5288 10.2708 15.7324 10.2708C15.9211 10.2708 16.081 10.2057 16.2112 10.0756C16.28 10.0113 16.3349 9.93355 16.3725 9.8472C16.41 9.76085 16.4295 9.66771 16.4297 9.57354C16.4297 9.12357 16.2698 8.73868 15.95 8.41979C15.8004 8.26507 15.6206 8.14268 15.4219 8.06017C15.2231 7.97765 15.0095 7.93678 14.7943 7.94007C14.3444 7.94007 13.9595 8.09998 13.6397 8.41979C13.4851 8.56928 13.3627 8.74886 13.2802 8.94745C13.1977 9.14605 13.1568 9.35944 13.1599 9.57447C13.1599 9.7632 13.225 9.93054 13.3561 10.0756C13.5011 10.2057 13.6685 10.2708 13.8581 10.2708C13.9504 10.274 14.0424 10.2583 14.1284 10.2248C14.2144 10.1912 14.2926 10.1404 14.3583 10.0756C14.4856 9.93955 14.5558 9.75984 14.5545 9.57354C14.5545 9.50196 14.5768 9.44339 14.6196 9.39969C14.6691 9.35935 14.7305 9.33647 14.7943 9.33461C14.8529 9.33461 14.9031 9.35599 14.9468 9.39969C15.0054 9.44339 15.0351 9.50196 15.0351 9.57447Z" fill="white"/>
<path d="M9.88318 10.2256C9.96952 10.2594 10.0619 10.2751 10.1545 10.2717L10.1536 10.2708C10.2425 10.2727 10.3308 10.2563 10.4132 10.2227C10.4955 10.1891 10.5701 10.1391 10.6324 10.0756C10.7011 10.0114 10.7559 9.9338 10.7934 9.84762C10.831 9.76144 10.8506 9.66849 10.8508 9.57447C10.8508 9.12357 10.6909 8.73868 10.3711 8.41979C10.0513 8.09998 9.66642 7.94007 9.21644 7.94007C9.00157 7.93704 8.78835 7.97803 8.58993 8.06054C8.3915 8.14304 8.21207 8.2653 8.06269 8.41979C7.74288 8.73868 7.5839 9.12357 7.5839 9.57354C7.5823 9.75971 7.65218 9.9394 7.77914 10.0756C7.91508 10.2023 8.09439 10.2722 8.28024 10.2708C8.37282 10.2743 8.46512 10.2587 8.55146 10.2251C8.6378 10.1916 8.71635 10.1407 8.78228 10.0756C8.91243 9.93054 8.97751 9.7632 8.97751 9.57447C8.97587 9.54244 8.9808 9.51041 8.99199 9.48036C9.00318 9.4503 9.0204 9.42285 9.04259 9.39969C9.0921 9.35935 9.15354 9.33647 9.21737 9.33461C9.24588 9.3345 9.27411 9.34021 9.30033 9.3514C9.32655 9.36259 9.3502 9.37902 9.36984 9.39969C9.39752 9.41931 9.41996 9.44542 9.4352 9.47573C9.45044 9.50604 9.458 9.53963 9.45724 9.57354C9.45563 9.75971 9.52551 9.9394 9.65247 10.0756C9.71832 10.1408 9.79684 10.1919 9.88318 10.2256Z" fill="white"/>
<path d="M8.23002 12.8199C8.29751 12.8838 8.3506 12.9614 8.38574 13.0475C8.68538 13.7381 9.17719 14.328 9.8026 14.747C10.4534 15.1819 11.2205 15.4097 12.0032 15.4006C12.8167 15.4006 13.5428 15.183 14.1824 14.747C14.8175 14.3332 15.3175 13.7424 15.6206 13.0475C15.6559 12.9616 15.709 12.8842 15.7765 12.8204C15.844 12.7566 15.9243 12.7079 16.012 12.6775C16.0946 12.6416 16.1837 12.623 16.2737 12.623C16.3638 12.623 16.4529 12.6416 16.5354 12.6775C16.6239 12.7085 16.7036 12.7602 16.7679 12.8283C16.8323 12.8964 16.8795 12.9789 16.9055 13.0689C16.9415 13.1515 16.9601 13.2406 16.9601 13.3306C16.9601 13.4207 16.9415 13.5098 16.9055 13.5923C16.4992 14.536 15.853 15.3067 14.967 15.9026C14.0801 16.4976 13.0928 16.7951 12.0032 16.7951C10.9136 16.7951 9.92625 16.4967 9.03932 15.9017C8.15332 15.3067 7.50718 14.536 7.10091 13.5923C7.02832 13.4268 7.02036 13.24 7.07859 13.0689C7.11126 12.9788 7.16333 12.8969 7.23113 12.8291C7.29892 12.7613 7.38078 12.7093 7.47092 12.6766C7.55349 12.6406 7.64258 12.6221 7.73263 12.6221C7.82269 12.6221 7.91178 12.6406 7.99434 12.6766C8.08219 12.7071 8.16253 12.7559 8.23002 12.8199Z" fill="white"/>
<path fill-rule="evenodd" clip-rule="evenodd" d="M18.047 8.96484C17.7442 8.96362 17.4773 8.87646 17.2462 8.70361C17.182 8.65625 17.1166 8.60693 17.05 8.55566L15.9662 7.6333C15.7899 7.4646 15.621 7.29126 15.4593 7.11279C15.1832 6.82178 14.9294 6.50293 14.697 6.1543C14.4597 5.82764 14.2891 5.45728 14.195 5.0647C14.1675 4.97892 14.1456 4.89286 14.1291 4.80649C13.4541 4.60705 12.7396 4.5 12 4.5C7.85786 4.5 4.5 7.85786 4.5 12C4.5 13.5385 4.96323 14.9688 5.75783 16.159C5.95394 16.0414 6.1551 15.9537 6.36016 15.8958C6.59265 15.8212 6.83792 15.7945 7.08099 15.8179C7.32405 15.8412 7.55983 15.9138 7.77389 16.0312C7.99367 16.1345 8.19363 16.271 8.37458 16.4387C8.6588 16.7097 8.85216 17.0384 8.95544 17.426C9.05872 17.8002 9.0521 18.168 8.93642 18.5299C8.91366 18.6248 8.88586 18.7183 8.85322 18.8099C9.81015 19.2528 10.8762 19.5 12 19.5C16.1421 19.5 19.5 16.1421 19.5 12C19.5 10.8397 19.2365 9.74085 18.7661 8.76017C18.5544 8.89548 18.3147 8.96376 18.047 8.96484ZM8.04755 20.0879C9.24064 20.6721 10.582 21 12 21C16.9706 21 21 16.9706 21 12C21 10.476 20.6212 9.0404 19.9526 7.78234L20.1277 7.6333C20.304 7.4646 20.473 7.29126 20.6346 7.11279C20.9107 6.82178 21.1645 6.50293 21.3969 6.1543C21.6342 5.82764 21.8048 5.45728 21.899 5.0647C22.0291 4.65747 22.0366 4.24365 21.9204 3.82251C21.8041 3.38647 21.5866 3.0166 21.2668 2.71167C21.0632 2.52295 20.8382 2.36938 20.5909 2.25317C20.35 2.12109 20.0847 2.03931 19.8112 2.01318C19.5377 1.98682 19.2618 2.01685 19.0002 2.10083C18.7399 2.17432 18.4851 2.29053 18.2378 2.44946L18.047 2.59766L17.8561 2.44946C17.6088 2.29053 17.3541 2.17432 17.0937 2.10083C16.8321 2.01685 16.5562 1.98682 16.2827 2.01318C16.0092 2.03931 15.7439 2.12109 15.503 2.25317C15.2557 2.36938 15.0307 2.52295 14.8271 2.71167C14.6396 2.89046 14.4873 3.09159 14.3699 3.31528C13.6148 3.10972 12.8202 3 12 3C7.02944 3 3 7.02944 3 12C3 13.3693 3.30581 14.6672 3.85286 15.8292C3.64246 15.8603 3.43901 15.9287 3.25211 16.0312C3.03233 16.1345 2.83237 16.271 2.65143 16.4387C2.3672 16.7097 2.17385 17.0384 2.07056 17.426C1.96728 17.8002 1.9739 18.168 2.08958 18.5299C2.17326 18.8788 2.32488 19.208 2.53575 19.4983C2.74231 19.8081 2.96789 20.0915 3.21327 20.3502C3.35693 20.5088 3.50709 20.6628 3.66376 20.8127L4.627 21.6325C4.68618 21.6781 4.74429 21.7219 4.80134 21.764C5.00671 21.9176 5.24392 21.9951 5.513 21.9961C5.78208 21.9951 6.01929 21.9176 6.22466 21.764C6.28171 21.7219 6.33982 21.6781 6.399 21.6325L7.36224 20.8127C7.51891 20.6628 7.66907 20.5088 7.81273 20.3502C7.89312 20.2654 7.97138 20.178 8.04755 20.0879ZM17.1214 3.64122C17.3969 3.8675 17.6649 4.08765 18.047 4.08398C18.429 4.08765 18.697 3.8675 18.9725 3.64122L19.0439 3.58276C19.6325 3.25708 20.4192 3.50391 20.5695 4.19263C20.6796 4.58716 20.4536 5.06543 20.2423 5.39087C20.0833 5.63818 19.8797 5.89941 19.6324 6.17554C19.3851 6.42285 19.1238 6.66943 18.8477 6.9165C18.5735 7.14746 18.3065 7.36377 18.047 7.56616C17.8604 7.42065 17.67 7.26807 17.4758 7.10791C17.3998 7.04517 17.3233 6.98144 17.2462 6.9165C16.9701 6.66943 16.7088 6.42285 16.4615 6.17554C16.2142 5.89941 16.0106 5.63818 15.8517 5.39087C15.6403 5.06543 15.4143 4.58716 15.5244 4.19263C15.6748 3.50391 16.4614 3.25708 17.05 3.58276L17.1214 3.64122ZM4.69032 17.2647L4.56308 17.1735C4.03996 16.8841 3.40474 17.1428 3.27111 17.7549C3.17327 18.1055 3.37414 18.5306 3.56196 18.8198C3.70325 19.0396 3.88419 19.2718 4.10398 19.5172C4.32376 19.737 4.55594 19.9561 4.80134 20.1757C4.86987 20.2334 4.93788 20.2901 5.00537 20.3458C5.17795 20.4882 5.34716 20.6238 5.513 20.7531C5.7437 20.5732 5.98093 20.381 6.22466 20.1757C6.47006 19.9561 6.70224 19.737 6.92202 19.5172C7.14181 19.2718 7.32275 19.0396 7.46404 18.8198C7.65187 18.5306 7.85273 18.1055 7.75489 17.7549C7.62126 17.1428 6.98008 16.8841 6.45696 17.1735L6.33568 17.2647C6.09085 17.4658 5.85254 17.6616 5.513 17.6583C5.17346 17.6616 4.93515 17.4658 4.69032 17.2647Z" fill="white"/>
</svg>
