<svg width="24" height="24" viewBox="0 0 24 24" fill="none" xmlns="http://www.w3.org/2000/svg">
<path d="M16.3482 15.2236C16.4679 14.8952 16.7804 14.6764 17.1301 14.6764C17.5311 14.6764 17.9096 14.4492 17.9096 14.002C17.9096 13.668 17.5483 13.367 17.4013 13.287C17.0669 13.1051 16.8985 12.7196 16.9923 12.3507C17.0362 12.1782 17.1322 12.0299 17.2609 11.9209C17.4074 11.7968 17.5963 11.7236 17.799 11.7236L18.7374 11.761C18.7401 11.761 18.7427 11.7609 18.7454 11.7609C19.1142 11.7566 19.4118 11.4563 19.4118 11.0866C19.4118 10.7322 19.1384 10.4416 18.791 10.4143C18.7733 10.4129 18.7555 10.4122 18.7374 10.4122L12.7886 10.4473C12.6143 10.4484 12.4666 10.3698 12.3859 10.2475C12.3241 10.1539 12.3016 10.0346 12.3368 9.90585C12.4808 9.37829 12.6123 8.83171 12.7257 8.29138C12.8248 7.81944 12.91 7.35227 12.9777 6.90673C13.0743 6.26987 13.135 5.67719 13.1487 5.1779C13.1511 5.09131 13.152 5.00754 13.1515 4.92683C13.1488 4.48993 13.1029 4.14284 13.0047 3.92628C12.9497 3.80477 12.8782 3.72435 12.7886 3.69222C12.2228 3.48927 11.9634 3.9299 11.7278 4.69579C11.7022 4.77874 11.677 4.86552 11.6517 4.9557C11.607 5.11484 11.5621 5.2846 11.5149 5.46275C11.1508 6.83819 10.6542 8.71426 9.11709 10.0682C8.81376 10.2728 8.31254 10.4578 7.95396 10.5304C5.94393 10.9376 4.67699 12.5145 4.67699 14.8637C4.67699 19.6789 10.9458 20.6459 14.7154 20.2658C15.1288 20.2244 15.5575 20.1058 15.5575 19.5872C15.5575 19.3478 15.2494 18.9492 15.2494 18.9492C14.9599 18.7359 14.84 18.3608 14.9522 18.0192C15.0644 17.6776 15.3833 17.4467 15.743 17.4467C16.2145 17.4467 16.8098 17.4014 16.8098 16.7723C16.8098 16.47 16.6785 16.2165 16.5944 16.1458C16.3267 15.9207 16.2283 15.5522 16.3482 15.2236ZM19.3427 14.8882C19.1654 15.3799 18.8351 15.7877 18.3754 16.0448C18.443 16.2944 18.4744 16.5447 18.4744 16.7723C18.4744 17.7135 17.9185 18.5248 17.1171 18.8959C17.1852 19.1218 17.2221 19.3559 17.2221 19.5872C17.2221 20.8972 16.1295 21.9262 14.8383 21.9262C9.97986 22.3616 2.92383 20.9788 2.92383 14.8637C2.92383 11.6266 4.80455 9.38096 7.69143 8.84876C7.85127 8.81929 8.00736 8.76372 8.13633 8.66481C9.0038 7.99957 9.40186 6.59112 9.77342 5.27649C9.99002 4.51008 10.1976 3.77556 10.484 3.23878C11.0156 2.24214 12.0262 1.83101 13.1309 2.06319C13.8172 2.20741 14.211 2.74086 14.4218 3.42806C14.7898 4.62756 14.6002 6.29546 14.4348 7.1794C14.4305 7.20213 14.4262 7.22484 14.4218 7.24754C14.3229 7.75744 14.1862 8.25881 14.013 8.74754L18.7374 8.74755C20.0292 8.74755 21.0764 9.79476 21.0764 11.0866C21.0764 12.2945 20.7045 12.9301 19.6429 13.3122C19.5692 13.3387 19.4922 13.364 19.4118 13.3882H19.335C19.3527 13.4597 19.3771 13.5314 19.4014 13.6029C19.4048 13.6131 19.4083 13.6234 19.4118 13.6337C19.4538 13.7579 19.4926 13.8814 19.4926 14.002C19.4926 14.2315 19.4652 14.4533 19.4118 14.6629C19.3922 14.7397 19.3692 14.8149 19.3427 14.8882Z" fill="white"/>
</svg>
