<svg width="24" height="24" viewBox="0 0 24 24" fill="none" xmlns="http://www.w3.org/2000/svg">
<path fill-rule="evenodd" clip-rule="evenodd" d="M8.46927 21.062C8.76627 21.359 9.11627 21.597 9.50027 21.765C9.89027 21.922 10.3043 22 10.7413 22C11.1783 22 11.5923 21.922 11.9833 21.765C12.3743 21.594 12.7173 21.359 13.0143 21.062L20.7453 13.238L21.2613 12.698C21.5743 12.354 21.7843 11.987 21.8943 11.597C22.0033 11.191 22.0263 10.762 21.9643 10.309L21.2613 4.82702C21.1983 4.34302 20.9953 3.93702 20.6513 3.60802C20.3233 3.26502 19.9253 3.05402 19.4563 2.97602L13.7403 2.03802C13.2413 1.96002 12.7413 1.99902 12.2413 2.15502C11.7573 2.31202 11.3273 2.57702 10.9523 2.95202L2.94027 10.965C2.31527 11.59 2.00227 12.347 2.00227 13.237C1.99627 13.663 2.07627 14.086 2.23727 14.481C2.39827 14.876 2.63727 15.234 2.94027 15.534L8.46927 21.062ZM12.6963 3.58439C12.4483 3.66611 12.2239 3.80175 12.013 4.01262C12.013 4.01264 12.013 4.0126 12.013 4.01262L4.00099 12.0256C3.65887 12.3677 3.50227 12.7426 3.50227 13.237V13.2476L3.50212 13.2581C3.49896 13.4824 3.54105 13.7057 3.62631 13.9149C3.71097 14.1226 3.8365 14.3105 3.99564 14.4681L4.00084 14.4733L9.52983 20.0013C9.6882 20.1596 9.87497 20.2886 10.0809 20.3816C10.279 20.4584 10.4956 20.5 10.7413 20.5C10.9866 20.5 11.2036 20.4586 11.4034 20.3813C11.6124 20.287 11.7919 20.1624 11.9508 20.0041C11.9518 20.0032 11.9527 20.0023 11.9536 20.0014L19.6694 12.1927L20.1624 11.6768C20.3289 11.4909 20.4091 11.3317 20.4482 11.1983C20.4987 11.0049 20.515 10.7815 20.4781 10.5124L20.4764 10.4998L19.7738 5.02064C19.7738 5.02028 19.7737 5.01993 19.7737 5.01957C19.7535 4.8659 19.7037 4.7774 19.6145 4.69205L19.5903 4.66891L19.5672 4.64471C19.4629 4.53571 19.359 4.48066 19.2115 4.45591C19.211 4.45584 19.2106 4.45577 19.2102 4.4557L13.5038 3.51929C13.2443 3.47943 12.9804 3.49699 12.6963 3.58439Z" fill="white"/>
<path d="M18.3 7.59897C18.3 8.64832 17.4493 9.49897 16.4 9.49897C15.3507 9.49897 14.5 8.64832 14.5 7.59897C14.5 6.54963 15.3507 5.69897 16.4 5.69897C17.4493 5.69897 18.3 6.54963 18.3 7.59897Z" fill="white"/>
</svg>
