<svg width="24" height="24" viewBox="0 0 24 24" fill="none" xmlns="http://www.w3.org/2000/svg">
<path d="M11.9988 8.51002C12.3428 8.51002 12.6778 8.56502 13.0058 8.67402C13.3498 8.76802 13.6618 8.90802 13.9418 9.09602C14.2238 9.28302 14.4738 9.51002 14.6908 9.77502C14.9108 10.04 15.0898 10.337 15.2308 10.664C15.3548 10.977 15.4338 11.304 15.4648 11.647C15.5118 11.991 15.4958 12.34 15.4178 12.678C15.3548 13.023 15.2358 13.355 15.0658 13.661C14.9098 13.958 14.7148 14.231 14.4798 14.48C14.2298 14.715 13.9498 14.918 13.6378 15.09C13.3358 15.248 13.0128 15.358 12.6778 15.418C12.3398 15.496 11.9918 15.519 11.6468 15.488C11.3098 15.443 10.9798 15.356 10.6638 15.23C10.3428 15.094 10.0438 14.912 9.77477 14.691C9.51277 14.476 9.28377 14.224 9.09577 13.942C8.90677 13.659 8.75677 13.352 8.64977 13.029C8.55777 12.693 8.51077 12.347 8.50977 11.999C8.50977 11.53 8.59577 11.086 8.76777 10.664C8.93877 10.227 9.18877 9.84502 9.51677 9.51702C9.83677 9.19402 10.2198 8.93902 10.6408 8.76802C11.0778 8.59602 11.5298 8.51002 11.9988 8.51002ZM11.9988 7.01102C11.4988 7.01102 11.0158 7.08102 10.5468 7.22102C10.0778 7.36202 9.63377 7.57302 9.21177 7.85502C8.80277 8.12302 8.43877 8.45502 8.13477 8.83802C7.82377 9.21102 7.57077 9.63002 7.38577 10.079C7.01677 11 6.91977 12.008 7.10477 12.983C7.19777 13.468 7.36177 13.928 7.59677 14.365C7.83077 14.787 8.11977 15.177 8.46277 15.536C8.82277 15.88 9.21177 16.169 9.63377 16.402C10.0668 16.635 10.5328 16.801 11.0158 16.894C11.9908 17.08 12.9988 16.982 13.9198 16.613C14.3688 16.428 14.7878 16.175 15.1608 15.864C15.5508 15.552 15.8788 15.193 16.1438 14.787C16.6968 13.963 16.9908 12.992 16.9868 12C16.9868 11.344 16.8618 10.711 16.6118 10.103C16.3688 9.48802 16.0028 8.93002 15.5358 8.46202C15.0688 7.99402 14.5098 7.62802 13.8958 7.38502C13.2938 7.13702 12.6498 7.01002 11.9988 7.01102Z" fill="white"/>
<path d="M6.93977 7.94802C6.84577 7.90102 6.76877 7.84702 6.70577 7.78402L4.92577 6.00402C4.89077 5.96802 4.85977 5.92902 4.83177 5.88702C4.81577 5.83902 4.79277 5.80102 4.76177 5.76902L4.71477 5.62902V5.32402L4.76177 5.18402C4.79277 5.13602 4.81577 5.09802 4.83177 5.06602L4.92577 4.92602C4.97277 4.89502 5.01177 4.87102 5.04377 4.85602L5.18377 4.76202C5.22877 4.74702 5.27577 4.73802 5.32377 4.73802C5.41477 4.70702 5.51377 4.70702 5.60577 4.73802C5.66177 4.73702 5.71677 4.74502 5.76977 4.76202C5.80577 4.79702 5.84477 4.82802 5.88677 4.85602C5.93077 4.87002 5.97077 4.89402 6.00377 4.92602L7.76077 6.70602C7.83777 6.76602 7.89477 6.84802 7.92477 6.94102C7.98577 7.13102 7.98577 7.33502 7.92477 7.52602C7.89477 7.61902 7.83777 7.70002 7.76077 7.76102C7.69677 7.84002 7.61677 7.90402 7.52577 7.94802C7.33577 8.00902 7.13077 8.00902 6.93977 7.94802Z" fill="white"/>
<path d="M2.74777 12.749H5.25377C5.34977 12.749 5.44377 12.733 5.53477 12.702C5.62677 12.657 5.71377 12.602 5.79377 12.538C5.85577 12.461 5.90277 12.374 5.93377 12.28C5.97877 12.193 6.00277 12.097 6.00377 11.999C6.00377 11.905 5.98077 11.812 5.93277 11.718C5.90177 11.624 5.85477 11.536 5.79277 11.459C5.71577 11.397 5.62877 11.35 5.53477 11.319C5.44177 11.272 5.34777 11.249 5.25377 11.249H2.74777C2.64977 11.25 2.55377 11.275 2.46677 11.32C2.37877 11.348 2.29877 11.396 2.23277 11.46C2.15677 11.535 2.09277 11.622 2.04477 11.718C1.98377 11.9 1.98377 12.097 2.04477 12.28C2.09277 12.376 2.15677 12.463 2.23277 12.538C2.30177 12.605 2.38077 12.66 2.46677 12.702C2.55677 12.733 2.65177 12.749 2.74777 12.749Z" fill="white"/>
<path d="M5.32377 19.283L5.18377 19.236C5.14077 19.207 5.09277 19.183 5.04277 19.166C5.00677 19.131 4.96777 19.1 4.92577 19.072C4.86277 18.994 4.80877 18.908 4.76177 18.814C4.70077 18.632 4.70077 18.435 4.76177 18.252C4.80677 18.161 4.86177 18.074 4.92577 17.994L6.79977 16.143L6.94077 16.05C7.00577 16.007 7.08177 15.982 7.15977 15.978C7.23777 15.974 7.31577 15.99 7.38577 16.026C7.43377 16.026 7.48077 16.035 7.52577 16.05C7.62177 16.087 7.70977 16.142 7.78377 16.214C7.85477 16.288 7.91077 16.376 7.94777 16.472C7.96277 16.517 7.97177 16.564 7.97177 16.612C8.00177 16.711 8.00177 16.818 7.97177 16.917C7.97177 16.965 7.96377 17.013 7.94777 17.058C7.91677 17.104 7.88477 17.151 7.85477 17.198L7.76077 17.292L6.00377 19.072C5.92977 19.143 5.84177 19.199 5.74577 19.236L5.60577 19.283H5.32377Z" fill="white"/>
<path d="M11.7188 21.953C11.8088 21.984 11.9038 22 11.9998 22C12.0958 22 12.1898 21.984 12.2808 21.953C12.3768 21.905 12.4638 21.841 12.5398 21.765C12.6038 21.699 12.6518 21.619 12.6798 21.531C12.7248 21.444 12.7488 21.348 12.7498 21.25V18.744C12.7498 18.65 12.7268 18.556 12.6788 18.463C12.6488 18.369 12.6018 18.284 12.5388 18.204C12.4608 18.142 12.3748 18.096 12.2808 18.064C12.1878 18.017 12.0938 17.994 11.9998 17.994C11.9018 17.995 11.8058 18.02 11.7188 18.065C11.6248 18.096 11.5378 18.143 11.4608 18.205C11.3968 18.285 11.3428 18.371 11.2968 18.463C11.2658 18.556 11.2498 18.65 11.2498 18.744V21.25C11.2498 21.346 11.2658 21.44 11.2968 21.531C11.3388 21.617 11.3938 21.696 11.4608 21.765C11.5358 21.841 11.6228 21.905 11.7188 21.953Z" fill="white"/>
<path d="M18.3928 19.283L18.2528 19.236C18.2098 19.207 18.1618 19.183 18.1118 19.166C18.0758 19.131 18.0368 19.1 17.9948 19.072L16.1438 17.198L16.0508 17.057L16.0038 16.917V16.612L16.0508 16.472C16.0878 16.376 16.1428 16.288 16.2148 16.214C16.2888 16.143 16.3768 16.087 16.4728 16.05C16.5178 16.035 16.5648 16.026 16.6128 16.026C16.7118 15.996 16.8178 15.996 16.9178 16.026C16.9658 16.026 17.0138 16.035 17.0588 16.05C17.1008 16.077 17.1398 16.108 17.1758 16.143C17.2178 16.17 17.2568 16.202 17.2928 16.237L19.0738 17.994C19.1358 18.071 19.1828 18.158 19.2138 18.252C19.2628 18.338 19.2868 18.435 19.2838 18.534C19.2818 18.632 19.2578 18.727 19.2128 18.814C19.1848 18.902 19.1368 18.983 19.0728 19.049C19.0298 19.093 18.9828 19.132 18.9318 19.166C18.8938 19.184 18.8548 19.2 18.8148 19.213C18.7708 19.242 18.7238 19.266 18.6738 19.283H18.3928Z" fill="white"/>
<path d="M18.7438 12.749H21.2498C21.3458 12.749 21.4398 12.733 21.5308 12.702C21.6168 12.66 21.6958 12.605 21.7648 12.538C21.8388 12.466 21.8958 12.378 21.9298 12.28C21.9748 12.193 21.9988 12.097 21.9998 11.999C21.9998 11.905 21.9758 11.812 21.9298 11.718C21.8958 11.62 21.8398 11.531 21.7648 11.459C21.6988 11.395 21.6188 11.347 21.5308 11.319C21.4368 11.272 21.3438 11.249 21.2498 11.249H18.7438C18.6458 11.25 18.5498 11.275 18.4628 11.32C18.3688 11.351 18.2818 11.398 18.2048 11.46C18.1408 11.54 18.0868 11.626 18.0408 11.718C17.9798 11.9 17.9798 12.097 18.0408 12.28C18.0858 12.371 18.1408 12.458 18.2048 12.538C18.2848 12.602 18.3708 12.656 18.4628 12.702C18.5528 12.733 18.6478 12.749 18.7438 12.749Z" fill="white"/>
<path d="M16.4728 7.94802C16.3778 7.90102 16.3008 7.84702 16.2378 7.78402C16.1678 7.71802 16.1128 7.63802 16.0738 7.55002C16.0128 7.36002 16.0128 7.15502 16.0738 6.96402C16.1048 6.87202 16.1618 6.79002 16.2378 6.73002L17.9948 4.92602C18.0278 4.89402 18.0678 4.87002 18.1118 4.85602C18.1538 4.82902 18.1938 4.79702 18.2298 4.76202C18.2748 4.74702 18.3218 4.73802 18.3698 4.73802C18.4238 4.72402 18.4788 4.71602 18.5348 4.71502C18.5828 4.71502 18.6298 4.72302 18.6748 4.73802C18.7228 4.73802 18.7698 4.74702 18.8148 4.76202C18.8568 4.78902 18.8968 4.82102 18.9328 4.85602C18.9828 4.87302 19.0298 4.89702 19.0728 4.92602C19.1028 4.97002 19.1258 5.01702 19.1428 5.06702C19.1778 5.10302 19.2098 5.14202 19.2368 5.18402C19.2528 5.22902 19.2608 5.27702 19.2608 5.32502C19.2758 5.37002 19.2838 5.41702 19.2838 5.46502C19.2828 5.52002 19.2748 5.57502 19.2608 5.62902C19.2608 5.67702 19.2528 5.72502 19.2368 5.77002C19.2018 5.80602 19.1708 5.84502 19.1428 5.88702C19.1288 5.93102 19.1048 5.97102 19.0728 6.00402L17.2928 7.76102C17.2568 7.79602 17.2178 7.82702 17.1758 7.85502C17.1428 7.88702 17.1028 7.91102 17.0588 7.92502C17.0148 7.95502 16.9668 7.97802 16.9168 7.99502H16.7768C16.6738 7.99602 16.5708 7.98002 16.4728 7.94802Z" fill="white"/>
<path d="M11.7188 5.95702C11.8088 5.98802 11.9038 6.00402 11.9998 6.00402C12.0958 6.00402 12.1898 5.98802 12.2808 5.95702C12.3728 5.91202 12.4598 5.85702 12.5398 5.79302C12.6018 5.71602 12.6488 5.62902 12.6798 5.53502C12.7248 5.44802 12.7488 5.35202 12.7498 5.25402V2.74802C12.7498 2.65402 12.7268 2.56102 12.6788 2.46702C12.6488 2.37302 12.6018 2.29502 12.5388 2.23302C12.4608 2.15402 12.3748 2.09902 12.2808 2.06902C12.1878 2.02202 12.0938 1.99902 11.9998 1.99902C11.9018 2.00002 11.8058 2.02402 11.7188 2.06902C11.6208 2.10302 11.5328 2.15902 11.4608 2.23302C11.3938 2.30202 11.3388 2.38102 11.2968 2.46702C11.2658 2.56102 11.2498 2.65402 11.2498 2.74802V5.25402C11.2498 5.35002 11.2658 5.44402 11.2968 5.53502C11.3418 5.62602 11.3968 5.71302 11.4608 5.79302C11.5408 5.85702 11.6268 5.91102 11.7188 5.95702Z" fill="white"/>
</svg>
