<svg width="24" height="24" viewBox="0 0 24 24" fill="none" xmlns="http://www.w3.org/2000/svg">
<path fill-rule="evenodd" clip-rule="evenodd" d="M11.4999 14.5082C11.4999 13.9559 11.9477 13.5082 12.4999 13.5082H19.4999C20.0522 13.5082 20.4999 13.9559 20.4999 14.5082V19C20.4999 20.6569 19.1568 22 17.4999 22H14.4999C12.9473 22 11.6702 20.8205 11.5156 19.3087H10.4241C9.31956 19.3087 8.42413 18.4133 8.42413 17.3087V17.0311C8.42413 15.9266 9.31956 15.0311 10.4241 15.0311H11.4999V14.5082ZM12.9999 15.1082C12.9999 15.053 13.0447 15.0082 13.0999 15.0082H18.8999C18.9552 15.0082 18.9999 15.053 18.9999 15.1082V19C18.9999 19.8284 18.3284 20.5 17.4999 20.5H14.4999C13.6715 20.5 12.9999 19.8284 12.9999 19V15.1082ZM11.4999 16.5311H10.4241C10.148 16.5311 9.92413 16.755 9.92413 17.0311V17.3087C9.92413 17.5849 10.148 17.8087 10.4241 17.8087H11.4999V16.5311Z" fill="white"/>
<path fill-rule="evenodd" clip-rule="evenodd" d="M14.4999 6V8H16.4999C17.6045 8 18.4999 8.89543 18.4999 10V11.25C18.4999 11.6642 18.1642 12 17.7499 12L-nan -nanCnan nan nan nan -nan -nanC-nan -nan -nan -nan -nan -nanC-nan -nan -nan -nan -nan -nanC-nan -nan -nan -nan -nan -nanC-nan -nan -nan -nan -nan -nanC-nan -nan -nan -nan -nan -nanC-nan -nan -nan -nan -nan -nanC-nan -nan -nan -nan -nan -nanC-nan -nan -nan -nan -nan -nanC-nan -nan -nan -nan -nan -nanC-nan -nan -nan -nan -nan -nanC-nan -nan -nan -nan -nan -nanC-nan -nan -nan -nan -nan -nanC-nan -nan -nan -nan -nan -nanC-nan -nan -nan -nan -nan -nanL-nan -nanC-nan -nan -nan -nan -nan -nanC-nan -nan -nan -nan -nan -nanC-nan -nan -nan -nan -nan -nanC-nan -nan -nan -nan -nan -nanC-nan -nan -nan -nan -nan -nanC-nan -nan -nan -nan -nan -nanC-nan -nan -nan -nan -nan -nanC-nan -nan -nan -nan -nan -nanC-nan -nan -nan -nan -nan -nanC-nan -nan -nan -nan -nan -nanC-nan -nan -nan -nan -nan -nanC-nan -nan -nan -nan -nan -nanC-nan -nan -nan -nan -nan -nanC-nan -nan -nan -nan -nan -nanCnan nan nan nan -nan -nanL17.7499 12C17.3357 12 16.9999 11.6642 16.9999 11.25V10C16.9999 9.72386 16.7761 9.5 16.4999 9.5C12.7357 9.5 8.2642 9.5 4.49994 9.5C4.2238 9.5 3.99994 9.72386 3.99994 10V18C3.99994 19.3807 5.11923 20.5 6.49994 20.5H8.98456C9.39877 20.5 9.73456 20.8358 9.73456 21.25L-nan -nanCnan nan nan nan -nan -nanC-nan -nan -nan -nan -nan -nanC-nan -nan -nan -nan -nan -nanC-nan -nan -nan -nan -nan -nanC-nan -nan -nan -nan -nan -nanC-nan -nan -nan -nan -nan -nanC-nan -nan -nan -nan -nan -nanC-nan -nan -nan -nan -nan -nanC-nan -nan -nan -nan -nan -nanC-nan -nan -nan -nan -nan -nanC-nan -nan -nan -nan -nan -nanC-nan -nan -nan -nan -nan -nanC-nan -nan -nan -nan -nan -nanC-nan -nan -nan -nan -nan -nanC-nan -nan -nan -nan -nan -nanL-nan -nanC-nan -nan -nan -nan -nan -nanC-nan -nan -nan -nan -nan -nanC-nan -nan -nan -nan -nan -nanC-nan -nan -nan -nan -nan -nanC-nan -nan -nan -nan -nan -nanC-nan -nan -nan -nan -nan -nanC-nan -nan -nan -nan -nan -nanC-nan -nan -nan -nan -nan -nanC-nan -nan -nan -nan -nan -nanC-nan -nan -nan -nan -nan -nanC-nan -nan -nan -nan -nan -nanC-nan -nan -nan -nan -nan -nanC-nan -nan -nan -nan -nan -nanC-nan -nan -nan -nan -nan -nanCnan nan nan nan -nan -nanL9.73456 21.25C9.73456 21.6642 9.39877 22 8.98456 22H6.49994C4.2908 22 2.49994 20.2091 2.49994 18V10C2.49994 8.89543 3.39537 8 4.49994 8H6.49994V6C6.49994 3.79086 8.2908 2 10.4999 2C12.7091 2 14.4999 3.79086 14.4999 6ZM12.9999 6V8H7.99994V6C7.99994 4.61929 9.11923 3.5 10.4999 3.5C11.8807 3.5 12.9999 4.61929 12.9999 6Z" fill="white"/>
<path d="M18.8318 2.15571C18.858 2.0533 18.9154 2.0025 19.0048 2.0025C19.1073 1.98939 19.1778 2.0279 19.2155 2.11721L19.8101 3.65019C19.8224 3.67641 19.8421 3.7018 19.8675 3.7272C19.8929 3.7526 19.9192 3.76571 19.9446 3.76571L21.3633 4.22618C21.4535 4.26387 21.4978 4.33433 21.4978 4.43593C21.5109 4.52606 21.4658 4.58341 21.3633 4.60881L19.9446 5.16432C19.9159 5.17907 19.8905 5.19873 19.8675 5.22168C19.8519 5.23888 19.8388 5.25773 19.829 5.27903L19.2541 6.77432C19.2287 6.86445 19.1639 6.90869 19.063 6.90869C18.9605 6.89558 18.8957 6.84478 18.8703 6.75466L18.4488 5.31754C18.4373 5.28149 18.4176 5.24871 18.3914 5.22168C18.3783 5.1971 18.352 5.17743 18.3143 5.16432L16.7414 4.66535C16.6389 4.64077 16.5872 4.57604 16.5872 4.47444C16.5872 4.37284 16.6389 4.30811 16.7414 4.28353L18.2946 3.78456C18.3332 3.78456 18.3586 3.77227 18.3717 3.74687C18.3979 3.71983 18.4176 3.68624 18.4291 3.65019L18.8318 2.15571Z" fill="white"/>
</svg>
