<svg width="24" height="24" viewBox="0 0 24 24" fill="none" xmlns="http://www.w3.org/2000/svg">
<path d="M17.25 8.93114C17.2679 8.93114 17.2857 8.93178 17.3034 8.93301H17.3572L17.3553 8.93848C17.7196 8.98966 18 9.30266 18 9.68114C18 10.0954 17.6642 10.4311 17.25 10.4311H16.8239L12.9421 21.3354C12.6266 22.2215 11.3734 22.2215 11.0579 21.3354L7.17608 10.4311H6.75C6.33579 10.4311 6 10.0954 6 9.68114C6 9.30267 6.28035 8.98967 6.64471 8.93848L6.64276 8.93301H6.69662C6.71425 8.93178 6.73205 8.93114 6.75 8.93114H7.38932C7.13974 8.33653 7.00183 7.68346 7.00183 6.99818C7.00183 4.23776 9.23959 2 12 2C14.7604 2 16.9982 4.23776 16.9982 6.99818C16.9982 7.68346 16.8603 8.33653 16.6107 8.93114H17.25ZM14.9161 8.93114C15.2839 8.37737 15.4982 7.7128 15.4982 6.99818C15.4982 5.06619 13.932 3.5 12 3.5C10.068 3.5 8.50183 5.06619 8.50183 6.99818C8.50183 7.7128 8.71611 8.37737 9.08392 8.93114H14.9161ZM10.6304 15.6618L13.8262 14.3793L14.7136 11.8864L9.92417 13.6781L10.6304 15.6618ZM11.1338 17.0761L12 19.5091L13.1549 16.265L11.1338 17.0761ZM8.76896 10.433L9.42105 12.2647L14.3177 10.433H8.76896Z" fill="white"/>
</svg>
