<svg width="24" height="24" viewBox="0 0 24 24" fill="none" xmlns="http://www.w3.org/2000/svg">
<path fill-rule="evenodd" clip-rule="evenodd" d="M12.4898 9.36737C12.146 9.36737 11.9162 9.19638 11.8022 8.85256L11.8003 8.85072L11.3278 7.34305C11.2793 7.23975 11.2045 7.151 11.1109 7.08564C11.045 6.99182 10.9556 6.91699 10.8516 6.86869L9.34396 6.39616C9.00014 6.28033 8.8273 6.05048 8.8273 5.70666C8.8273 5.33158 9.00013 5.08888 9.3458 4.97305L10.8535 4.4564C10.9583 4.43398 11.0504 4.37209 11.1109 4.28357C11.1915 4.20448 11.2642 4.11765 11.3278 4.02432L11.8003 2.51665C11.9162 2.17283 12.146 2 12.4898 2C12.8631 2 13.1076 2.17283 13.2234 2.51849L13.7401 4.02616C13.7771 4.12412 13.8362 4.21221 13.9129 4.28357C13.9847 4.36056 14.0735 4.41974 14.1721 4.4564L15.6798 4.97305C16.0237 5.08888 16.1965 5.33342 16.1965 5.70666C16.1965 6.05048 16.0237 6.28033 15.678 6.39616L14.1703 6.86869C14.0776 6.93245 13.9914 7.00512 13.9129 7.08564C13.8241 7.14665 13.7622 7.23948 13.7401 7.34489L13.2234 8.85256C13.1076 9.19638 12.8649 9.36737 12.4898 9.36737Z" fill="white"/>
<path fill-rule="evenodd" clip-rule="evenodd" d="M5.43255 15.0748C5.70784 15.0748 5.89186 14.9379 5.98461 14.6626L6.39829 13.454C6.41638 13.3701 6.4659 13.2964 6.53667 13.2479C6.60728 13.1773 6.6888 13.1187 6.7781 13.0741L7.98528 12.6958C8.23849 12.6031 8.36509 12.419 8.36509 12.1437C8.36509 11.8434 8.23849 11.6491 7.98528 11.5563L6.7781 11.1427C6.68637 11.1198 6.60279 11.0719 6.53667 11.0043C6.4751 10.9467 6.42773 10.8757 6.39829 10.7967L5.98461 9.58953C5.89333 9.31424 5.70931 9.17586 5.43255 9.17586C5.15725 9.17586 4.97323 9.31424 4.88049 9.59101L4.46681 10.7982C4.43716 10.8766 4.3898 10.9472 4.32842 11.0043C4.2623 11.0719 4.17873 11.1198 4.08699 11.1427L2.87982 11.5563C2.62661 11.6491 2.5 11.8449 2.5 12.1437C2.5 12.419 2.62661 12.6031 2.87982 12.6958L4.08699 13.0741C4.17629 13.1187 4.25782 13.1773 4.32842 13.2479C4.39762 13.2935 4.44325 13.3627 4.46681 13.4554L4.88049 14.6626C4.97176 14.9379 5.15578 15.0748 5.43255 15.0748Z" fill="white"/>
<path fill-rule="evenodd" clip-rule="evenodd" d="M17.2064 21.3039L17.2082 21.3056C17.0424 21.768 16.7022 22 16.1841 22C15.6659 22 15.3257 21.768 15.1617 21.3056L14.4255 19.1388C14.3774 18.9848 14.2937 18.8443 14.1812 18.7288C14.0713 18.6206 13.937 18.5369 13.7712 18.4845L11.6044 17.7483C11.1141 17.5843 10.8681 17.2563 10.8681 16.7661C10.8681 16.2479 11.1124 15.9077 11.6044 15.7437L13.7712 15.0493C13.9252 15.0013 14.0657 14.9176 14.1812 14.8051C14.2889 14.6702 14.3716 14.5172 14.4255 14.3532L15.1617 12.2282C15.3257 11.7362 15.6677 11.492 16.1841 11.492C16.7022 11.492 17.0424 11.7362 17.2064 12.2282L17.9025 14.3532C17.9566 14.5166 18.0393 14.669 18.1468 14.8033C18.2811 14.9109 18.4335 14.9936 18.5969 15.0476L20.7638 15.7454C21.2557 15.9077 21.5 16.2461 21.5 16.7643C21.5 17.2546 21.2557 17.5826 20.7638 17.7465L18.5969 18.4828C18.4335 18.5368 18.2811 18.6195 18.1468 18.727C18.0343 18.8426 17.9506 18.9831 17.9025 19.137L17.2064 21.3039Z" fill="white"/>
</svg>
