<svg width="24" height="24" viewBox="0 0 24 24" fill="none" xmlns="http://www.w3.org/2000/svg">
<path d="M12 3.54332C10.8464 3.5353 9.70489 3.76601 8.6446 4.21942C7.62042 4.65577 6.68853 5.28372 5.90009 6.07015C5.12168 6.85258 4.50075 7.77745 4.07042 8.7936C3.61701 9.85388 3.3873 10.9954 3.39432 12.148C3.39332 13.6196 3.76848 15.066 4.4837 16.352C5.18989 17.5798 6.17494 18.6251 7.35962 19.4015C7.02458 18.7194 6.7427 17.8988 6.50998 16.9399C6.2913 15.9668 6.18297 14.8343 6.18297 13.5413C6.18297 13.3818 6.23413 13.2364 6.33544 13.105C6.44177 12.9796 6.58822 12.8953 6.74972 12.8652C7.41378 12.7168 8.06881 12.5282 8.7098 12.2995C9.46213 12.0246 10.1844 11.6745 10.8665 11.2532C11.5636 10.8169 12.1154 10.3233 12.5216 9.77163C12.9439 9.21992 13.1536 8.61705 13.1536 7.96403C13.1536 7.77544 13.2188 7.61494 13.3502 7.48454C13.4776 7.35514 13.6491 7.2779 13.8297 7.26686C13.9179 7.25784 14.0062 7.26887 14.0895 7.29896C14.1727 7.32906 14.247 7.37821 14.3092 7.44141C14.4466 7.55676 14.5329 7.72027 14.5489 7.89882C14.592 8.33417 14.6873 8.84977 14.8328 9.44562C14.9782 10.0264 15.2029 10.5791 15.5079 11.1007C15.7988 11.6244 16.1479 12.0447 16.5541 12.3647C16.9764 12.6837 17.47 12.8432 18.0357 12.8432C18.2393 12.8432 18.4069 12.9154 18.5373 13.0608C18.6677 13.1922 18.7329 13.3517 18.7329 13.5403C18.7329 14.0639 18.6757 14.7099 18.5593 15.4793C18.457 16.2487 18.2544 17.0331 17.9484 17.8316L17.7749 18.268C17.7167 18.3984 17.6515 18.5368 17.5783 18.6812C18.0427 18.289 18.464 17.8537 18.8422 17.3742C19.2043 16.8807 19.5173 16.357 19.7781 15.8053C20.0389 15.2536 20.2426 14.6658 20.388 14.0409C20.5345 13.4199 20.6077 12.784 20.6067 12.145C20.6147 10.9914 20.384 9.84987 19.9306 8.78958C19.4982 7.76942 18.8683 6.84355 18.0788 6.06614C17.3014 5.27669 16.3756 4.64775 15.3554 4.21541C14.2951 3.762 13.1526 3.53229 12 3.54031V3.54332ZM2 12.149C2 10.7697 2.26081 9.46869 2.78443 8.24991C3.8066 5.8595 5.7105 3.9556 8.10091 2.93243C9.33373 2.4078 10.6608 2.14097 12 2.15C13.3793 2.15 14.6803 2.41081 15.8991 2.93443C17.0818 3.44201 18.1551 4.17428 19.0589 5.09112C19.9757 5.99492 20.708 7.06725 21.2156 8.25092C21.7392 9.4707 22 10.7697 22 12.15C22 13.3116 21.8114 14.416 21.4332 15.4623C21.0681 16.4985 20.5395 17.4695 19.8654 18.3372C19.1963 19.1808 18.3938 19.9091 17.49 20.4939C16.5782 21.1028 15.5691 21.5521 14.5058 21.823C14.3382 21.8671 14.1607 21.8521 14.0042 21.7799C13.8457 21.6936 13.7223 21.5552 13.6551 21.3876C13.597 21.2241 13.605 21.0446 13.6772 20.8871C13.7404 20.7226 13.8658 20.5902 14.0263 20.5169C14.6512 20.2411 15.1919 19.8047 15.5941 19.253C16.0325 18.6672 16.3846 18.0222 16.6404 17.3361C16.853 16.8014 17.0145 16.2467 17.1199 15.6809C17.2222 15.1292 17.2874 14.6277 17.3155 14.1783C16.6364 14.0629 16.0034 13.761 15.4858 13.3066C15.0063 12.8753 14.6011 12.3667 14.2871 11.8039C14.1697 11.5973 14.0614 11.3866 13.9621 11.172C13.8748 10.9543 13.7946 10.7366 13.7223 10.5189C13.4465 10.9112 13.1265 11.2673 12.7634 11.5873C12.4043 11.9042 12.0181 12.1881 11.6088 12.4369C10.9558 12.8432 10.2656 13.1842 9.53937 13.4601C8.82716 13.7359 8.18116 13.9476 7.60036 14.092C7.62845 15.1664 7.74581 16.0892 7.94944 16.8586C8.15207 17.643 8.37677 18.2971 8.62454 18.8197C8.88535 19.3283 9.14816 19.7205 9.40897 19.9953C9.66978 20.2702 9.87341 20.4537 10.0189 20.54C10.1753 20.6223 10.2927 20.7637 10.3459 20.9322C10.375 21.0095 10.388 21.0917 10.384 21.174C10.38 21.2562 10.3599 21.3375 10.3238 21.4117C10.2656 21.5712 10.1493 21.7036 9.99779 21.7819C9.8403 21.8541 9.66275 21.8701 9.49624 21.825C8.43395 21.5542 7.42482 21.1048 6.51199 20.4959C5.60819 19.9111 4.8057 19.1828 4.13662 18.3392C3.46253 17.4715 2.93289 16.5005 2.56876 15.4643C2.18758 14.402 1.99599 13.2805 2.00201 12.152L2 12.149Z" fill="white"/>
</svg>
