<svg width="24" height="24" viewBox="0 0 24 24" fill="none" xmlns="http://www.w3.org/2000/svg">
<path d="M8.20991 11.251H20.5049V6.005C20.5049 5.318 20.2549 4.733 19.7559 4.248C19.2709 3.748 18.6869 3.499 17.9989 3.499H8.20991V11.251ZM20.5049 12.749H17.2969V20.501H17.9989C18.6859 20.501 19.2709 20.259 19.7559 19.775C20.2559 19.275 20.5049 18.683 20.5049 17.995V12.749ZM15.7979 20.501V12.749H3.50291V17.995C3.50291 18.682 3.74491 19.275 4.22891 19.775C4.72891 20.26 5.32091 20.501 6.00891 20.501H15.7979ZM3.50291 11.251H6.71091V3.499H6.00891C5.32191 3.499 4.72891 3.749 4.22891 4.248C3.99391 4.476 3.80891 4.749 3.68391 5.051C3.55891 5.353 3.49691 5.678 3.50291 6.005V11.251ZM2.00391 11.251V6.005C2.00391 4.896 2.39391 3.952 3.17491 3.171C3.95591 2.39 4.90091 2 6.00891 2H17.9989C19.1079 2 20.0519 2.39 20.8329 3.171C21.6139 3.952 22.0039 4.897 22.0039 6.005V17.995C22.0039 19.104 21.6139 20.048 20.8329 20.829C20.0519 21.61 19.1069 22 17.9989 22H6.00891C4.89991 22 3.95591 21.61 3.17491 20.829C2.39391 20.048 2.00391 19.103 2.00391 17.995V11.25V11.251Z" fill="white"/>
</svg>
