<svg width="24" height="24" viewBox="0 0 24 24" fill="none" xmlns="http://www.w3.org/2000/svg">
<path d="M10.7495 12.0011C13.5109 12.0011 15.7495 9.76252 15.7495 7.0011C15.7495 4.23968 13.5109 2.0011 10.7495 2.0011C7.98809 2.0011 5.74951 4.23968 5.74951 7.0011C5.74951 9.76252 7.98809 12.0011 10.7495 12.0011ZM10.7495 10.5011C8.81651 10.5011 7.24951 8.9341 7.24951 7.0011C7.24951 5.0681 8.81651 3.5011 10.7495 3.5011C12.6825 3.5011 14.2495 5.0681 14.2495 7.0011C14.2495 8.9341 12.6825 10.5011 10.7495 10.5011Z" fill="white"/>
<path d="M3.49951 21.2501C3.49951 19.8124 3.74416 18.5661 4.65484 17.6554C6.2837 16.0266 8.36472 15.9599 10.5146 16.0049C10.9458 16.0138 11.3095 15.6727 11.3095 15.2414C11.3095 14.8447 10.9998 14.5158 10.6032 14.5065C7.99795 14.445 5.54852 14.6404 3.59419 16.5948C2.25486 17.9341 1.99951 19.6878 1.99951 21.2501C1.99951 21.6643 2.3353 22.0001 2.74951 22.0001C3.16372 22.0001 3.49951 21.6643 3.49951 21.2501Z" fill="white"/>
<path d="M17.6896 16.6866C17.1373 16.6866 16.6896 17.1344 16.6896 17.6866V20.9966C16.6896 21.5489 17.1373 21.9966 17.6896 21.9966H19.3446C20.8109 21.9966 21.9996 20.808 21.9996 19.3416C21.9996 17.8753 20.8109 16.6866 19.3446 16.6866H17.6896ZM18.4896 18.1866H19.3446C19.9825 18.1866 20.4996 18.7038 20.4996 19.3416C20.4996 19.9795 19.9825 20.4966 19.3446 20.4966H18.4896C18.3239 20.4966 18.1896 20.3623 18.1896 20.1966V18.4866C18.1896 18.321 18.3239 18.1866 18.4896 18.1866Z" fill="white"/>
<path d="M11.4576 17.4391C11.4576 17.0249 11.7934 16.6891 12.2076 16.6891C12.6218 16.6891 12.9576 17.0249 12.9576 17.4391V18.6429H14.6896V17.4422C14.6896 17.028 15.0254 16.6922 15.4396 16.6922C15.8538 16.6922 16.1896 17.028 16.1896 17.4422V21.2497C16.1896 21.6639 15.8538 21.9997 15.4396 21.9997C15.0254 21.9997 14.6896 21.6639 14.6896 21.2497V20.1429H12.9576V21.2466C12.9576 21.6609 12.6218 21.9966 12.2076 21.9966C11.7934 21.9966 11.4576 21.6609 11.4576 21.2466V17.4391Z" fill="white"/>
</svg>
