<svg width="24" height="24" viewBox="0 0 24 24" fill="none" xmlns="http://www.w3.org/2000/svg">
<path d="M14.9418 5.99908C14.9418 5.79608 15.0118 5.62408 15.1528 5.48308C15.2201 5.40684 15.3034 5.34635 15.3967 5.30591C15.49 5.26547 15.5911 5.24607 15.6928 5.24908H21.2468C21.4498 5.24908 21.6218 5.32708 21.7618 5.48308C21.9188 5.62408 21.9968 5.79608 21.9968 5.99908V11.4591C21.9967 11.5604 21.9757 11.6606 21.9353 11.7535C21.8949 11.8464 21.8358 11.93 21.7618 11.9991C21.6948 12.0674 21.6146 12.1212 21.526 12.1573C21.4374 12.1935 21.3424 12.2111 21.2468 12.2091C21.1472 12.2128 21.0479 12.1961 20.955 12.16C20.8622 12.1238 20.7777 12.0691 20.7068 11.9991C20.5702 11.8526 20.4951 11.6593 20.4968 11.4591V7.78108L14.4 15.258C14.2536 15.3946 14.0603 15.4698 13.86 15.468C13.7644 15.47 13.6694 15.4523 13.5809 15.4162C13.4923 15.3801 13.4121 15.3263 13.345 15.258L8.96904 11.952L3.28904 18.539C3.14297 18.6757 2.95008 18.7512 2.75004 18.75C2.6523 18.7512 2.5555 18.7308 2.46651 18.6903C2.37751 18.6499 2.29849 18.5904 2.23504 18.516C2.16042 18.4525 2.10069 18.3734 2.06008 18.2842C2.01947 18.195 1.99897 18.098 2.00004 18C2.00004 17.781 2.07804 17.602 2.23504 17.46L8.45304 10.383C8.51655 10.3084 8.5957 10.2487 8.68487 10.2081C8.77404 10.1675 8.87106 10.147 8.96904 10.148C9.18804 10.148 9.36704 10.227 9.50804 10.383L13.86 13.688L19.3938 6.75008H15.6908C15.5914 6.75365 15.4923 6.73686 15.3996 6.70075C15.3069 6.66464 15.2226 6.60996 15.1518 6.54008C15.0152 6.39361 14.9401 6.19933 14.9418 5.99908Z" fill="white"/>
</svg>
