<svg width="24" height="24" viewBox="0 0 24 24" fill="none" xmlns="http://www.w3.org/2000/svg">
<path d="M9.21118 2.56293C9.72717 2.18793 10.3132 2.00093 10.9692 2.00093L13.0285 2.00073C13.6599 1.99256 14.2769 2.1898 14.7865 2.56273C15.2898 2.92111 15.6671 3.42927 15.8645 4.01473C15.9652 4.27632 16.1164 4.51554 16.3095 4.71873C16.5081 4.91912 16.7607 5.05741 17.0365 5.11673C17.8869 5.32979 18.6393 5.82645 19.1695 6.52473C19.7465 7.24273 20.0365 8.06273 20.0365 8.98473V11.6196C20.0365 12.7136 19.6455 13.6516 18.8645 14.4316C18.0835 15.2136 17.1385 15.6036 16.0285 15.6036L7.96917 15.6038C6.85917 15.6038 5.91418 15.2138 5.13317 14.4318C4.35118 13.6508 3.96118 12.7138 3.96118 11.6198V8.98493C3.9513 8.09197 4.24936 7.22288 4.80518 6.52393C5.38317 5.80593 6.10118 5.33693 6.96117 5.11793C7.23701 5.05865 7.48962 4.92036 7.68818 4.71993C7.89118 4.50093 8.03918 4.26593 8.13318 4.01593C8.33618 3.42293 8.69518 2.93793 9.21118 2.56293ZM10.0792 3.78193C9.82918 3.96893 9.64918 4.21193 9.53918 4.50893L9.53818 4.50793C9.38218 4.97793 9.10818 5.40793 8.71818 5.79793C8.33628 6.17708 7.85807 6.44472 7.33518 6.57193C6.80417 6.71193 6.35818 7.00893 6.00018 7.46193C5.64018 7.89893 5.46018 8.40693 5.46018 8.98493V11.6198C5.45478 11.947 5.51651 12.2718 5.64155 12.5741C5.76659 12.8765 5.95229 13.15 6.18717 13.3778C6.67118 13.8618 7.26518 14.1038 7.96818 14.1038L16.0295 14.1036C16.7315 14.1036 17.3255 13.8616 17.8095 13.3776C18.2945 12.8926 18.5365 12.3066 18.5365 11.6196V8.98473C18.5365 8.40673 18.3575 7.89873 17.9975 7.46073C17.6385 7.00873 17.1925 6.71073 16.6615 6.57073C16.1155 6.43073 15.6455 6.17273 15.2555 5.79773C14.8805 5.40673 14.6145 4.97673 14.4585 4.50873C14.3495 4.21173 14.1615 3.96973 13.8955 3.78173C13.6455 3.59473 13.3565 3.50073 13.0285 3.50073L10.9692 3.50093C10.6412 3.50093 10.3442 3.59493 10.0792 3.78193Z" fill="white"/>
<path d="M21.4477 14.4156C21.5441 14.4357 21.6345 14.478 21.7117 14.5391C21.789 14.6002 21.8509 14.6784 21.8927 14.7676C22.0027 14.9386 22.0257 15.1266 21.9627 15.3296C21.8227 15.7986 21.5577 16.3296 21.1667 16.9236C20.5566 17.8279 19.6996 18.7001 18.7463 19.1246C17.7303 19.5786 16.5263 19.9066 15.1363 20.1096C15.038 20.1256 14.9375 20.1214 14.8409 20.0974C14.7443 20.0733 14.6536 20.0298 14.5743 19.9696C14.4923 19.9128 14.4228 19.8397 14.3704 19.7549C14.3179 19.6701 14.2835 19.5753 14.2693 19.4766C14.2523 19.382 14.256 19.2848 14.2801 19.1917C14.3043 19.0987 14.3484 19.012 14.4093 18.9376C14.4662 18.8558 14.5393 18.7865 14.6241 18.7342C14.7089 18.6819 14.8036 18.6477 14.9023 18.6336C16.1833 18.4306 17.2693 18.1336 18.1603 17.7426C18.9596 17.378 19.4577 16.7925 19.9247 16.0566C20.2367 15.6036 20.4397 15.2206 20.5347 14.9076C20.5555 14.8178 20.5955 14.7336 20.652 14.6607C20.7084 14.5879 20.78 14.5281 20.8617 14.4856C20.9486 14.4323 21.0459 14.3984 21.1471 14.3863C21.2482 14.3742 21.3508 14.3842 21.4477 14.4156Z" fill="white"/>
<path d="M2.1634 16.2083C2.43051 15.8711 2.92605 15.8302 3.2724 16.0853C3.76991 16.4518 4.35461 16.808 5.02655 17.1534C6.00116 17.6377 7.98381 18.131 9.41699 18.4087L8.86735 17.7438C8.8057 17.6707 8.75966 17.5857 8.73207 17.4941C8.70449 17.4025 8.69594 17.3063 8.70695 17.2113C8.72613 17.0092 8.81282 16.8366 8.96703 16.6935C9.04028 16.6318 9.12542 16.5857 9.21719 16.5581C9.30895 16.5305 9.4054 16.522 9.50056 16.5332C9.60005 16.5389 9.6973 16.565 9.78634 16.6097C9.87538 16.6544 9.95433 16.7169 10.0183 16.7933L11.6698 18.74C11.8368 18.9598 11.9065 19.2095 11.8798 19.4902C11.8755 19.621 11.8423 19.7492 11.7827 19.8656C11.723 19.982 11.6383 20.0838 11.5347 20.1636L9.53895 21.8335C9.46589 21.8954 9.38094 21.9416 9.28933 21.9694C9.19773 21.9971 9.10141 22.0058 9.00631 21.9949C8.8068 21.9777 8.62148 21.8846 8.48857 21.7349C8.42558 21.6577 8.37906 21.5684 8.35188 21.4725C8.3247 21.3766 8.31743 21.2762 8.33053 21.1774C8.34971 20.9753 8.43565 20.8107 8.58825 20.6846L9.46016 19.9436C7.85433 19.6647 5.70162 19.1321 4.56174 18.5688C3.68682 18.149 2.92543 17.698 2.27752 17.2162C1.95648 16.9775 1.91498 16.5219 2.1634 16.2083Z" fill="white"/>
<path d="M11.999 10.7681C11.3097 10.7681 10.751 10.2093 10.751 9.52002C10.751 8.83074 11.3097 8.27197 11.999 8.27197C12.6883 8.27197 13.2471 8.83074 13.2471 9.52002C13.2471 10.2093 12.6883 10.7681 11.999 10.7681ZM11.999 12.2681C13.5167 12.2681 14.7471 11.0377 14.7471 9.52002C14.7471 8.00232 13.5167 6.77197 11.999 6.77197C10.4813 6.77197 9.25098 8.00232 9.25098 9.52002C9.25098 11.0377 10.4813 12.2681 11.999 12.2681Z" fill="white"/>
</svg>
