<svg width="24" height="24" viewBox="0 0 24 24" fill="none" xmlns="http://www.w3.org/2000/svg">
<path d="M6 17.0781C6.54366 17.0781 6.98438 17.5188 6.98438 18.0625C6.98438 18.6062 6.54366 19.0469 6 19.0469C5.45634 19.0469 5.01562 18.6062 5.01562 18.0625C5.01562 17.5188 5.45634 17.0781 6 17.0781Z" fill="white"/>
<path d="M8 2L8.2041 2.01074C9.21278 2.113 10 2.96435 10 4V8.3125L13.29 5.02246C14.0224 4.29015 15.1812 4.24481 15.9668 4.88574L16.1191 5.02246L18.9473 7.85059L19.084 8.00195C19.7249 8.78746 19.6795 9.94639 18.9473 10.6787L15.626 14H20L20.1914 14.0088C21.1389 14.0988 21.8934 14.8501 21.9893 15.7959L22 16V20L21.9893 20.2041C21.887 21.2128 21.0357 22 20 22H6L5.79395 21.9951C5.6886 21.9898 5.58448 21.9792 5.48145 21.9658C5.39163 21.9542 5.30269 21.9403 5.21484 21.9229C5.20212 21.9203 5.18944 21.9177 5.17676 21.915C5.12925 21.9051 5.08203 21.8944 5.03516 21.8828C5.00598 21.8756 4.97716 21.8672 4.94824 21.8594C4.91617 21.8507 4.88429 21.8415 4.85254 21.832C4.83555 21.827 4.81865 21.8217 4.80176 21.8164C4.64444 21.7671 4.49106 21.7092 4.34277 21.6416C4.31054 21.6269 4.27883 21.6112 4.24707 21.5957C4.21368 21.5794 4.18032 21.5631 4.14746 21.5459C4.13429 21.539 4.12148 21.5315 4.1084 21.5244C4.07294 21.5053 4.03774 21.4859 4.00293 21.4658C3.98068 21.453 3.9585 21.44 3.93652 21.4268C3.90231 21.4061 3.86849 21.3849 3.83496 21.3633C3.81955 21.3533 3.80432 21.3432 3.78906 21.333C3.75392 21.3096 3.71892 21.2861 3.68457 21.2617C3.6635 21.2467 3.64284 21.2312 3.62207 21.2158C3.59516 21.1959 3.56837 21.1759 3.54199 21.1553C3.52463 21.1417 3.50736 21.1281 3.49023 21.1143C3.45749 21.0878 3.42544 21.0606 3.39355 21.0332C3.37588 21.018 3.35822 21.0028 3.34082 20.9873C3.31982 20.9686 3.29892 20.9498 3.27832 20.9307C3.20899 20.8662 3.14176 20.7996 3.07715 20.7305C3.04551 20.6966 3.01484 20.6619 2.98438 20.627C2.98287 20.6252 2.981 20.6238 2.97949 20.6221L2.92871 20.5635C2.91134 20.5427 2.89488 20.5211 2.87793 20.5C2.86111 20.479 2.84453 20.4578 2.82812 20.4365C2.81566 20.4203 2.80324 20.4041 2.79102 20.3877C2.77126 20.3612 2.75153 20.3346 2.73242 20.3076C2.67392 20.2249 2.61862 20.1399 2.56641 20.0527C2.55935 20.041 2.55186 20.0294 2.54492 20.0176L2.51758 19.9697C2.49676 19.933 2.47671 19.8958 2.45703 19.8584C2.45344 19.8516 2.44984 19.8447 2.44629 19.8379C2.42113 19.7893 2.39723 19.7401 2.37402 19.6904C2.37095 19.6838 2.3673 19.6775 2.36426 19.6709C2.28853 19.5064 2.22404 19.3358 2.1709 19.1602C2.15188 19.0973 2.13413 19.0338 2.11816 18.9697C2.05682 18.7234 2.01818 18.4681 2.00488 18.2061L2 18V4C2 2.96435 2.78722 2.11301 3.7959 2.01074L4 2H8ZM4.00391 3.5625C3.72776 3.5625 3.50391 3.78636 3.50391 4.0625V18.0664C3.50391 19.445 4.62319 20.5625 6.00391 20.5625C7.38462 20.5625 8.50391 19.445 8.50391 18.0664V4.0625C8.50391 3.78636 8.28005 3.5625 8.00391 3.5625H4.00391ZM9.12598 20.5H20C20.2761 20.5 20.5 20.2761 20.5 20V16C20.5 15.7583 20.3286 15.5563 20.1006 15.5098L20 15.5H14.126L9.12598 20.5ZM15.0586 6.08301C14.8633 5.88775 14.5458 5.88775 14.3506 6.08301L10 10.4336V13.416L9.99805 13.418V17.5117L17.8867 9.61816C18.0818 9.42291 18.0819 9.10636 17.8867 8.91113L15.0586 6.08301Z" fill="white"/>
</svg>
