<svg width="24" height="24" viewBox="0 0 24 24" fill="none" xmlns="http://www.w3.org/2000/svg">
<path d="M6.005 2H17.995C19.104 2 20.048 2.39 20.829 3.171C21.61 3.952 22 4.897 22 6.005V17.995C22 19.104 21.61 20.048 20.829 20.829C20.048 21.61 19.103 22 17.995 22H6.005C4.896 22 3.952 21.61 3.171 20.829C2.39 20.048 2 19.103 2 17.995V6.005C2 4.896 2.39 3.952 3.171 3.171C3.952 2.39 4.897 2 6.005 2ZM17.995 3.499H6.005C5.318 3.499 4.725 3.749 4.225 4.248C3.99 4.476 3.805 4.749 3.68 5.051C3.555 5.353 3.493 5.678 3.499 6.005V17.995C3.499 18.682 3.741 19.275 4.225 19.775C4.725 20.26 5.317 20.501 6.005 20.501H17.995C18.682 20.501 19.267 20.259 19.752 19.775C20.252 19.275 20.501 18.683 20.501 17.995V6.005C20.501 5.318 20.251 4.733 19.752 4.248C19.267 3.748 18.683 3.499 17.995 3.499Z" fill="white"/>
<path d="M9.518 6.472C9.377 6.332 9.205 6.262 9.002 6.262C8.802 6.26 8.609 6.335 8.462 6.472C8.392 6.543 8.337 6.627 8.301 6.72C8.265 6.813 8.248 6.912 8.252 7.011V8.252H6.004C5.903 8.252 5.803 8.273 5.71 8.313C5.617 8.353 5.534 8.412 5.464 8.486C5.324 8.627 5.254 8.799 5.254 9.002C5.252 9.202 5.327 9.395 5.464 9.542C5.61 9.679 5.803 9.754 6.004 9.752H8.252V10.993C8.248 11.093 8.265 11.192 8.301 11.285C8.337 11.378 8.392 11.462 8.462 11.533C8.608 11.669 8.801 11.745 9.002 11.743C9.098 11.745 9.193 11.728 9.282 11.692C9.371 11.656 9.451 11.602 9.518 11.534C9.594 11.467 9.655 11.384 9.695 11.29C9.735 11.196 9.755 11.096 9.752 10.994V7.013C9.752 6.794 9.674 6.613 9.518 6.472Z" fill="white"/>
<path d="M14.458 17.528C14.318 17.387 14.248 17.207 14.248 16.988V13.007C14.244 12.907 14.261 12.808 14.297 12.716C14.333 12.624 14.388 12.539 14.458 12.468C14.604 12.332 14.798 12.256 14.998 12.258C15.094 12.256 15.189 12.273 15.278 12.309C15.367 12.345 15.447 12.399 15.514 12.467C15.59 12.534 15.651 12.617 15.691 12.711C15.731 12.805 15.751 12.905 15.748 13.007V14.248H17.996C18.094 14.247 18.191 14.267 18.28 14.307C18.369 14.347 18.448 14.407 18.512 14.481C18.586 14.544 18.646 14.624 18.686 14.713C18.726 14.802 18.747 14.899 18.745 14.997C18.745 15.098 18.724 15.198 18.684 15.291C18.644 15.384 18.585 15.467 18.511 15.537C18.37 15.677 18.198 15.747 17.995 15.747H15.747V16.988C15.75 17.09 15.731 17.191 15.69 17.284C15.649 17.377 15.589 17.46 15.513 17.528C15.372 17.668 15.2 17.738 14.997 17.738C14.794 17.738 14.614 17.668 14.457 17.528H14.458Z" fill="white"/>
<path d="M11.46 8.487C11.32 8.628 11.25 8.8 11.25 9.003C11.248 9.203 11.323 9.396 11.46 9.543C11.606 9.679 11.8 9.755 12 9.753H17.995C18.091 9.755 18.186 9.738 18.275 9.702C18.364 9.666 18.444 9.612 18.511 9.544C18.585 9.475 18.644 9.391 18.684 9.298C18.724 9.205 18.745 9.105 18.745 9.004C18.745 8.801 18.667 8.629 18.511 8.488C18.37 8.332 18.198 8.254 17.995 8.254H12C11.899 8.254 11.799 8.275 11.706 8.315C11.613 8.355 11.53 8.413 11.46 8.487Z" fill="white"/>
<path d="M12.515 15.537C12.374 15.677 12.202 15.747 11.999 15.747H6.004C5.801 15.747 5.621 15.677 5.464 15.537C5.324 15.38 5.254 15.2 5.254 14.997C5.252 14.901 5.269 14.806 5.305 14.717C5.341 14.628 5.395 14.548 5.463 14.481C5.532 14.407 5.616 14.348 5.709 14.308C5.802 14.268 5.902 14.247 6.003 14.247H11.998C12.096 14.246 12.193 14.266 12.282 14.306C12.371 14.346 12.45 14.406 12.514 14.48C12.588 14.544 12.648 14.623 12.688 14.712C12.728 14.801 12.749 14.898 12.747 14.996C12.747 15.097 12.726 15.197 12.686 15.29C12.646 15.383 12.587 15.466 12.513 15.536L12.515 15.537Z" fill="white"/>
</svg>
