<svg width="24" height="24" viewBox="0 0 24 24" fill="none" xmlns="http://www.w3.org/2000/svg">
<path d="M5.08766 3.42722C5.25786 3.178 5.46859 2.98247 5.71781 2.84267C5.98324 2.68665 6.26285 2.60864 6.55867 2.60864H17.4443C17.7402 2.60864 18.0127 2.68665 18.2619 2.84267C18.5273 2.98247 18.7452 3.178 18.9164 3.42722L21.7186 7.86558C21.9212 8.1766 22.0144 8.51193 21.9982 8.86955C21.983 9.22819 21.8655 9.55542 21.6487 9.85124L13.3788 20.7136C13.0364 21.1655 12.5764 21.3914 12 21.3914C11.4235 21.3914 10.9636 21.1655 10.6212 20.7136L2.3513 9.85124C2.13754 9.56757 2.01597 9.22515 2.00179 8.86955C1.98558 8.51193 2.07979 8.1766 2.2814 7.86558L5.08463 3.42722H5.08766ZM4.03607 9.59391L9.4551 16.718L6.97911 9.59391H4.03607ZM7.07333 8.09859L9.24641 4.10397H6.55867C6.51612 4.10802 6.4756 4.12423 6.44217 4.15057C6.40772 4.1688 6.3753 4.19211 6.34896 4.22047L3.89829 8.09859H7.07333ZM8.56865 9.59391L11.768 18.8445C11.7994 18.9539 11.8774 19.0076 12.002 19.0076C12.1266 19.0076 12.2046 18.9539 12.235 18.8445L15.4354 9.59391H8.56764H8.56865ZM15.2267 8.09859L13.1235 4.24479C13.1174 4.2225 13.1053 4.20224 13.0881 4.18603C13.0708 4.16982 13.0516 4.15766 13.0293 4.15057C13.0141 4.13537 12.9959 4.12322 12.9756 4.11511C12.9553 4.10701 12.9341 4.10295 12.9128 4.10397H11.0912C11.0416 4.10498 10.993 4.12119 10.9514 4.15057C10.919 4.16678 10.8967 4.19717 10.8805 4.24377L8.77735 8.09758H15.2257L15.2267 8.09859ZM17.0239 9.59391L14.5479 16.718L19.9669 9.59391H17.0239ZM20.1078 8.09859L17.6551 4.22149C17.6227 4.18907 17.5821 4.16576 17.5386 4.15158C17.5061 4.12018 17.4758 4.10397 17.4454 4.10397H14.7597L16.9327 8.09859H20.1088H20.1078Z" fill="white"/>
</svg>
