<svg width="24" height="24" viewBox="0 0 24 24" fill="none" xmlns="http://www.w3.org/2000/svg">
<path d="M18.5124 8.99957H20.0124C21.1149 8.99957 22.0044 9.92094 22.0044 11.0156V19.9793C22.0044 21.074 21.1152 21.9953 20.0124 21.9953H18.5124C17.4226 22.0099 16.4992 21.0563 16.5204 19.9793V11.0156C16.5204 9.9209 17.4095 8.99957 18.5124 8.99957ZM20.0124 10.4996H18.5124C18.2431 10.4951 18.0125 10.7512 18.0204 11.0156V19.9793C18.0204 20.2628 18.2237 20.4943 18.5124 20.4943H20.0124C20.2997 20.4943 20.5067 20.263 20.5044 19.9793V11.0156C20.5122 10.7533 20.2746 10.4952 20.0124 10.4996Z" fill="white"/>
<path d="M2.00974 13.9862V19.9811C2.00974 21.0756 2.8996 21.9955 4.00174 21.9955H5.50174C6.61296 21.9955 7.51773 21.0931 7.51773 19.9811V13.9862C7.51773 12.8977 6.58382 11.9746 5.50174 11.9958H4.00174C2.91697 11.9958 2.00974 12.9007 2.00974 13.9862ZM4.00174 13.4946H5.50174C5.76898 13.4946 6.01773 13.7117 6.01773 13.9862V19.9811C6.01773 20.2574 5.78011 20.504 5.50174 20.4957H4.00174C3.71676 20.5036 3.50801 20.2602 3.50974 19.9811V13.9862C3.50105 13.7148 3.73056 13.4859 4.00174 13.4946Z" fill="white"/>
<path d="M11.2691 14.8041H12.7691C13.8545 14.8041 14.7611 15.7104 14.7611 16.7961V19.9795C14.7611 21.0741 13.8719 21.9955 12.7691 21.9955H11.2691C10.1736 21.9955 9.23122 21.0915 9.25305 19.9795V16.7961C9.25305 15.6935 10.1744 14.8041 11.2691 14.8041ZM12.7691 16.3041H11.2691C10.9894 16.3018 10.7455 16.5104 10.7541 16.7961V19.9795C10.7541 20.2739 10.9728 20.4969 11.2691 20.4945H12.7691C13.056 20.4945 13.2628 20.2625 13.2611 19.9795V16.7961C13.2694 16.5354 13.0297 16.2957 12.7691 16.3041Z" fill="white"/>
<path fill-rule="evenodd" clip-rule="evenodd" d="M16.496 4.74954C16.496 3.23101 17.727 2 19.2455 2C20.7641 2 21.9951 3.23101 21.9951 4.74954C21.9951 6.26807 20.7641 7.49908 19.2455 7.49908C18.6877 7.49908 18.1687 7.33297 17.7352 7.04752L14.6818 9.91073C14.7306 10.1157 14.7564 10.3296 14.7564 10.5495C14.7564 12.0681 13.5254 13.2991 12.0069 13.2991C10.4883 13.2991 9.25733 12.0681 9.25733 10.5495C9.25733 10.5007 9.25861 10.4521 9.26112 10.4039L7.03035 9.28559C6.53634 10.0177 5.69916 10.4991 4.74954 10.4991C3.23101 10.4991 2 9.26807 2 7.74954C2 6.23101 3.23101 5 4.74954 5C6.26807 5 7.49908 6.23101 7.49908 7.74954C7.49908 7.78167 7.49853 7.81366 7.49744 7.84552L9.75198 8.97577C10.249 8.26492 11.0737 7.8 12.0069 7.8C12.7501 7.8 13.4244 8.09488 13.9193 8.57401L16.7546 5.91527C16.5887 5.56135 16.496 5.16627 16.496 4.74954ZM19.2455 3.5C18.5554 3.5 17.996 4.05944 17.996 4.74954C17.996 5.43965 18.5554 5.99908 19.2455 5.99908C19.9356 5.99908 20.4951 5.43965 20.4951 4.74954C20.4951 4.05944 19.9356 3.5 19.2455 3.5ZM4.74954 6.5C4.05944 6.5 3.5 7.05944 3.5 7.74954C3.5 8.43965 4.05944 8.99908 4.74954 8.99908C5.43965 8.99908 5.99908 8.43965 5.99908 7.74954C5.99908 7.05944 5.43965 6.5 4.74954 6.5ZM10.7573 10.5495C10.7573 9.85944 11.3168 9.3 12.0069 9.3C12.697 9.3 13.2564 9.85944 13.2564 10.5495C13.2564 11.2396 12.697 11.7991 12.0069 11.7991C11.3168 11.7991 10.7573 11.2396 10.7573 10.5495Z" fill="white"/>
</svg>
