<svg width="24" height="24" viewBox="0 0 24 24" fill="none" xmlns="http://www.w3.org/2000/svg">
<path d="M2 5C2 3.34315 3.34315 2 5 2H15C16.6569 2 18 3.34315 18 5V5.75C18 6.16421 17.6642 6.5 17.25 6.5C16.8358 6.5 16.5 6.16421 16.5 5.75V5C16.5 4.17157 15.8284 3.5 15 3.5H5C4.17157 3.5 3.5 4.17157 3.5 5V10.5C5.13744 10.5 6.77488 10.5006 8.41231 10.5013C9.02539 10.5015 9.63846 10.5018 10.2515 10.502C10.6649 10.5021 11 10.8373 11 11.2507C11 11.6641 10.6649 11.9993 10.2515 11.9994C7.65789 12 6.03979 12 3.5 12C3.5 12.8284 4.17157 13.5 5 13.5H11.25C11.6642 13.5 12 13.8358 12 14.25C12 14.6642 11.6642 15 11.25 15H10.75V16.5H11.75C12.1642 16.5 12.5 16.8358 12.5 17.25C12.5 17.6642 12.1642 18 11.75 18H8.25C7.83579 18 7.5 17.6642 7.5 17.25C7.5 16.8358 7.83579 16.5 8.25 16.5H9.25V15H5C3.34315 15 2 13.6569 2 12V5Z" fill="white"/>
<path d="M16.25 19.25C16.25 18.8358 16.5858 18.5 17 18.5H18.5C18.9142 18.5 19.25 18.8358 19.25 19.25C19.25 19.6642 18.9142 20 18.5 20H17C16.5858 20 16.25 19.6642 16.25 19.25Z" fill="white"/>
<path fill-rule="evenodd" clip-rule="evenodd" d="M13.5 10C13.5 8.89543 14.3954 8 15.5 8H20C21.1046 8 22 8.89543 22 10V20C22 21.1046 21.1046 22 20 22H15.5C14.3954 22 13.5 21.1046 13.5 20V10ZM15.5 9.5H20C20.2761 9.5 20.5 9.72386 20.5 10V16.5H15V10C15 9.72386 15.2239 9.5 15.5 9.5ZM15 18V20C15 20.2761 15.2239 20.5 15.5 20.5H20C20.2761 20.5 20.5 20.2761 20.5 20V18H15Z" fill="white"/>
</svg>
