<svg width="24" height="24" viewBox="0 0 24 24" fill="none" xmlns="http://www.w3.org/2000/svg">
<path d="M6.39764 2.80201C6.65564 2.54301 6.96264 2.33901 7.30064 2.20101C7.63864 2.06301 8.00164 1.99501 8.36664 2.00001C9.14464 2.00001 9.80964 2.26801 10.3576 2.80101L17.9546 10.204C18.3006 10.536 18.4746 10.94 18.4746 11.417C18.4746 11.894 18.3006 12.297 17.9546 12.629L11.4826 18.927C10.7326 19.649 9.82364 20.009 8.75564 20.009C7.70264 20.009 6.80064 19.649 6.04964 18.927L3.43264 16.374C2.68164 15.638 2.30664 14.75 2.30664 13.712C2.30664 12.674 2.68164 11.786 3.43264 11.05L10.1416 4.53501L9.38464 3.80001C9.25264 3.66601 9.09364 3.56001 8.91864 3.48901C8.74364 3.41801 8.55664 3.38401 8.36764 3.38801C7.97764 3.38801 7.64564 3.52601 7.37164 3.80001L6.11564 5.03201C5.98064 5.15801 5.80164 5.22801 5.61664 5.22701C5.52364 5.22701 5.43164 5.20701 5.34564 5.17001C5.25964 5.13301 5.18364 5.07901 5.11964 5.01101C5.05664 4.94901 5.00664 4.87501 4.97264 4.79301C4.93864 4.71101 4.92264 4.62301 4.92464 4.53401C4.92464 4.33301 4.99664 4.16601 5.14064 4.03601L6.39664 2.80401L6.39764 2.80201ZM11.1376 5.48601L4.36264 12.087C4.34364 12.105 4.32164 12.119 4.29764 12.13H16.4826L16.9806 11.654C17.0136 11.624 17.0406 11.587 17.0596 11.546C17.0786 11.505 17.0886 11.461 17.0886 11.416C17.0876 11.371 17.0776 11.327 17.0586 11.286C17.0396 11.245 17.0136 11.209 16.9806 11.178L11.1376 5.48601Z" fill="white"/>
<path d="M18.5896 17.242C18.4376 17.242 18.3366 17.167 18.2866 17.015L18.2856 17.014L18.0776 16.35C18.0566 16.304 18.0236 16.265 17.9816 16.237C17.9526 16.196 17.9136 16.163 17.8676 16.141L17.2036 15.933C17.0516 15.882 16.9756 15.781 16.9756 15.629C16.9756 15.464 17.0516 15.357 17.2046 15.306L17.8686 15.078C17.9146 15.068 17.9556 15.041 17.9816 15.002C18.0176 14.967 18.0486 14.929 18.0776 14.888L18.2856 14.224C18.3366 14.072 18.4376 13.996 18.5896 13.996C18.7536 13.996 18.8616 14.072 18.9126 14.225L19.1406 14.889C19.1566 14.932 19.1826 14.971 19.2166 15.002C19.2486 15.036 19.2876 15.062 19.3306 15.078L19.9946 15.306C20.1466 15.357 20.2226 15.465 20.2226 15.629C20.2226 15.78 20.1466 15.882 19.9936 15.933L19.3296 16.141C19.2886 16.169 19.2506 16.201 19.2166 16.237C19.1776 16.264 19.1506 16.305 19.1406 16.351L18.9126 17.015C18.8616 17.166 18.7546 17.242 18.5896 17.242Z" fill="white"/>
<path d="M15.9206 19.316C16.0416 19.316 16.1226 19.256 16.1636 19.134L16.3456 18.601C16.3536 18.564 16.3756 18.532 16.4066 18.51C16.4376 18.479 16.4736 18.453 16.5126 18.433L17.0446 18.266C17.1566 18.225 17.2116 18.144 17.2116 18.023C17.2116 17.891 17.1556 17.805 17.0446 17.764L16.5126 17.582C16.4726 17.572 16.4356 17.551 16.4066 17.521C16.3796 17.496 16.3586 17.464 16.3456 17.43L16.1636 16.898C16.1236 16.777 16.0426 16.716 15.9206 16.716C15.7986 16.716 15.7186 16.777 15.6776 16.899L15.4956 17.431C15.4826 17.466 15.4616 17.497 15.4346 17.522C15.4056 17.552 15.3686 17.573 15.3286 17.583L14.7966 17.765C14.6846 17.806 14.6296 17.892 14.6296 18.024C14.6296 18.145 14.6856 18.226 14.7966 18.267L15.3286 18.434C15.3676 18.454 15.4036 18.479 15.4346 18.511C15.4646 18.531 15.4856 18.562 15.4956 18.602L15.6776 19.134C15.7176 19.255 15.7986 19.316 15.9206 19.316Z" fill="white"/>
<path d="M20.0656 21.737C20.0026 21.912 19.8736 22 19.6776 22C19.4816 22 19.3526 21.912 19.2906 21.737L19.0116 20.916C18.9936 20.858 18.9616 20.804 18.9186 20.761C18.8766 20.72 18.8256 20.688 18.7636 20.668L17.9426 20.389C17.7566 20.327 17.6636 20.203 17.6636 20.017C17.6636 19.821 17.7566 19.692 17.9426 19.63L18.7636 19.367C18.8216 19.349 18.8756 19.317 18.9186 19.274C18.9596 19.223 18.9906 19.165 19.0116 19.103L19.2906 18.297C19.3526 18.111 19.4826 18.018 19.6776 18.018C19.8726 18.018 20.0026 18.111 20.0656 18.297L20.3296 19.103C20.3496 19.165 20.3816 19.223 20.4226 19.274C20.4736 19.315 20.5316 19.346 20.5936 19.367L21.4146 19.632C21.6016 19.694 21.6936 19.822 21.6936 20.018C21.6936 20.204 21.6006 20.328 21.4146 20.39L20.5936 20.669C20.5316 20.689 20.4736 20.721 20.4226 20.762C20.3796 20.806 20.3486 20.859 20.3296 20.917L20.0656 21.738L20.0666 21.739L20.0656 21.737Z" fill="white"/>
</svg>
