<svg width="24" height="24" viewBox="0 0 24 24" fill="none" xmlns="http://www.w3.org/2000/svg">
<path fill-rule="evenodd" clip-rule="evenodd" d="M21.9999 6.00472V17.9949C21.9999 18.0728 21.9919 18.1588 21.9759 18.2527C21.9759 18.3306 21.9689 18.4086 21.9529 18.4865C21.954 18.542 21.9463 18.5973 21.9299 18.6504C21.9295 18.698 21.9214 18.7452 21.9059 18.7902C21.7294 19.6942 21.2401 20.5071 20.5241 21.0864C19.8067 21.6959 18.9633 21.9996 17.9951 21.9996H6.00496C5.02688 22.0134 4.08044 21.6532 3.35913 20.9924C2.60974 20.305 2.1721 19.4707 2.04721 18.4865H2.02422V18.3466C2.02246 18.3063 2.01437 18.2665 2.00024 18.2287V6.00472C2.00024 4.89663 2.39092 3.9514 3.17128 3.17104C3.95165 2.38968 4.89587 2 6.00496 2H17.9951C19.1032 2 20.0485 2.39068 20.8288 3.17104C21.6102 3.9514 21.9999 4.89563 21.9999 6.00472ZM16.4185 3.49877H17.7253L16.6689 5.57196H15.3622L16.4185 3.49877ZM20.4658 5.57196H18.351L19.2367 3.83367C19.4194 3.94439 19.5911 4.08255 19.7517 4.24816C20.1429 4.62767 20.381 5.06846 20.4658 5.57196ZM13.4297 3.49877H14.7364L13.6801 5.57196H12.3734L13.4297 3.49877ZM10.4409 3.49877H11.7476L10.6913 5.57196H9.38452L10.4409 3.49877ZM7.45204 3.49877H8.75875L7.70241 5.57196H6.3957L7.45204 3.49877ZM4.22542 4.24816C4.66581 3.80777 5.1784 3.56148 5.76457 3.5093L4.71359 5.57196H3.53402C3.61593 5.06846 3.84591 4.62767 4.22542 4.24816ZM20.5011 7.07074V14.4358L17.9482 11.8829C17.6903 11.6252 17.3832 11.4219 17.0453 11.2851C16.7073 11.1483 16.3453 11.0808 15.9808 11.0866C15.2314 11.0866 14.5919 11.3523 14.0604 11.8829L13.5218 12.4215L11.5314 10.1733C10.9849 9.54882 10.3064 9.23607 9.49411 9.23607C8.68277 9.22109 8.00333 9.50985 7.45677 10.1034L3.50002 14.3649V7.07074H20.5011ZM3.523 16.5431L3.49902 16.5661V16.9877H15.5591L10.4074 11.1565C10.1576 10.8757 9.84582 10.7348 9.47112 10.7348C9.11142 10.7348 8.80767 10.8677 8.55787 11.1335L3.54598 16.4961C3.54598 16.5121 3.53798 16.5271 3.523 16.5431ZM17.5505 16.9877H20.5011V16.5661L20.4771 16.5431L20.4541 16.5191L16.8711 12.936C16.6373 12.7022 16.3485 12.5853 16.0038 12.5853C15.6611 12.5853 15.3643 12.7022 15.1145 12.937L14.529 13.5216L14.506 13.5455L17.5505 16.9877ZM4.41227 19.9383C3.95964 19.5486 3.67088 19.064 3.54598 18.4865H5.28953L4.51038 20.0157C4.47728 19.9908 4.44457 19.965 4.41227 19.9383ZM5.94559 20.5002C5.9653 20.5006 5.98509 20.5008 6.00496 20.5008H7.252L8.27836 18.4865H6.97165L5.94559 20.5002ZM9.96047 18.4865L8.93411 20.5008H10.2408L11.2672 18.4865H9.96047ZM12.9493 18.4865L11.923 20.5008H13.2297L14.256 18.4865H12.9493ZM15.9381 18.4865L14.9118 20.5008H16.2185L17.2449 18.4865H15.9381ZM18.927 18.4865L17.9006 20.5008H17.9951C18.6046 20.5008 19.1342 20.313 19.5878 19.9383C20.0405 19.5486 20.3212 19.064 20.4301 18.4865H18.927Z" fill="white"/>
</svg>
