<svg width="24" height="24" viewBox="0 0 24 24" fill="none" xmlns="http://www.w3.org/2000/svg">
<path d="M7 14.7741C7.41421 14.7741 7.75 14.4383 7.75 14.0241C7.75 13.6099 7.41421 13.2741 7 13.2741H5.5C5.08579 13.2741 4.75 13.6099 4.75 14.0241C4.75 14.4383 5.08579 14.7741 5.5 14.7741H7Z" fill="white"/>
<path d="M7.75 17.0241C7.75 17.4383 7.41421 17.7741 7 17.7741H5.5C5.08579 17.7741 4.75 17.4383 4.75 17.0241C4.75 16.6099 5.08579 16.2741 5.5 16.2741H7C7.41421 16.2741 7.75 16.6099 7.75 17.0241Z" fill="white"/>
<path d="M12.0324 2.00317C12.4467 2.00317 12.7824 2.33896 12.7824 2.75317V3.99665H14.5C15.6046 3.99665 16.5 4.89208 16.5 5.99665V7.58488L19.1484 6.33857C20.4749 5.71434 22 6.68218 22 8.14821V19.9966C22 21.1012 21.1046 21.9966 20 21.9966H4C2.89543 21.9966 2 21.1012 2 19.9966V12.7249C2 11.622 2.45539 10.568 3.25854 9.81214L4.1939 8.93179C5.10513 8.07417 6.41881 7.89307 7.5 8.38851V5.99665C7.5 4.89208 8.39543 3.99665 9.5 3.99665H11.2824V2.75317C11.2824 2.33896 11.6182 2.00317 12.0324 2.00317ZM15 5.99665C15 5.7205 14.7761 5.49665 14.5 5.49665H9.5C9.22386 5.49665 9 5.7205 9 5.99665V9.58488L9.24146 9.81214C10.0446 10.568 10.5 11.622 10.5 12.7249V20.4966H13.5V10.2659C13.5 9.49113 13.9474 8.7861 14.6484 8.45622L15 8.29077V5.99665ZM3.5 19.9966C3.5 20.2728 3.72386 20.4966 4 20.4966H7.5V20.4926H9V12.7249C9 12.0356 8.71538 11.3769 8.21341 10.9044L7.27805 10.0241C6.70047 9.48049 5.79953 9.48049 5.22195 10.0241L4.28659 10.9044C3.78462 11.3769 3.5 12.0356 3.5 12.7249V19.9966ZM15.2871 9.81345C15.1119 9.89592 15 10.0722 15 10.2659V20.4926H16.5V20.4966H20C20.2761 20.4966 20.5 20.2728 20.5 19.9966V18.7466H18.2396C17.8254 18.7466 17.4896 18.4109 17.4896 17.9966C17.4896 17.5824 17.8254 17.2466 18.2396 17.2466H20.5V15.7466H18.2396C17.8254 15.7466 17.4896 15.4109 17.4896 14.9966C17.4896 14.5824 17.8254 14.2466 18.2396 14.2466H20.5V12.7466H18.2396C17.8254 12.7466 17.4896 12.4109 17.4896 11.9966C17.4896 11.5824 17.8254 11.2466 18.2396 11.2466H20.5V8.14821C20.5 7.78171 20.1187 7.53974 19.7871 7.6958L15.2871 9.81345Z" fill="white"/>
</svg>
