<svg width="24" height="24" viewBox="0 0 24 24" fill="none" xmlns="http://www.w3.org/2000/svg">
<path d="M4.58677 5.51518C4.97045 5.13149 5.35414 4.84066 5.7368 4.6427C6.13477 4.44269 6.51846 4.32228 6.88786 4.27942C7.28175 4.23861 7.68074 4.27534 8.06136 4.38657C8.48689 4.49984 8.92772 4.7274 9.38181 5.06822L10.4686 5.98458C10.9094 6.35398 11.4217 6.53868 12.0033 6.53868C12.585 6.53868 13.0972 6.35398 13.5381 5.98458L14.6248 5.06924C15.0799 4.72842 15.5126 4.50086 15.9249 4.38759C16.3126 4.27738 16.7167 4.24167 17.1178 4.28146C17.4872 4.3233 17.8637 4.44473 18.2474 4.64372C18.6454 4.84271 19.0362 5.13455 19.4209 5.51722C19.9628 6.06213 20.3393 6.74991 20.5077 7.49891C20.6924 8.252 20.6852 8.96222 20.4862 9.62857L20.4648 9.67143V9.73469C20.2801 10.5021 19.9168 11.3256 19.377 12.2072C18.7821 13.147 18.1117 14.0379 17.3739 14.8706C16.9902 15.3094 16.5851 15.743 16.1586 16.1696C15.732 16.5961 15.2993 17.0155 14.8575 17.4268C14.432 17.8237 14.0054 18.2003 13.5789 18.5564C13.1391 18.9258 12.7197 19.2738 12.3217 19.6003C12.2339 19.6809 12.1207 19.7258 12.0013 19.7279C11.8829 19.7258 11.7686 19.6809 11.6809 19.6003C11.2839 19.2727 10.8645 18.9258 10.4237 18.5564C9.99612 18.2023 9.56345 17.8247 9.12262 17.4268C8.69608 17.0135 8.26953 16.5951 7.84401 16.1696C7.42461 15.7502 7.01949 15.3165 6.62867 14.8695C5.88987 14.0369 5.22046 13.146 4.62554 12.2062C4.08573 11.3266 3.72245 10.501 3.53775 9.73469V9.67143L3.51632 9.62755C3.31734 8.96018 3.30305 8.24995 3.47347 7.49789C3.65612 6.74889 4.03879 6.06315 4.58166 5.5162L4.58677 5.51518ZM10.2349 3.98043C9.65325 3.55491 9.07058 3.25694 8.48791 3.08551C7.92156 2.91816 7.32563 2.86713 6.73887 2.93754C6.17253 2.99775 5.62353 3.1651 5.11943 3.42838C4.55717 3.72941 4.04593 4.11717 3.60612 4.57841C2.88773 5.2917 2.38568 6.19275 2.15608 7.17849C1.92852 8.1724 1.94995 9.12447 2.21934 10.0337C2.43262 10.9715 2.84487 11.9297 3.45612 12.9103C4.09491 13.9134 4.80718 14.8675 5.5868 15.7655C6.41335 16.6921 7.28889 17.5737 8.20831 18.4084C9.06446 19.1891 9.94612 19.9422 10.8512 20.6667C11.1921 20.9514 11.5758 21.0932 12.0023 21.0932C12.4288 21.0932 12.8115 20.9514 13.1534 20.6667C14.0585 19.9422 14.9401 19.1891 15.7963 18.4084C16.7127 17.5778 17.581 16.6951 18.3974 15.7655C19.1882 14.8716 19.9076 13.9175 20.5495 12.9103C21.1608 11.9307 21.573 10.9715 21.7863 10.0337C22.0567 9.12447 22.07 8.1724 21.8291 7.17849C21.6138 6.19173 21.1179 5.28864 20.4015 4.57841C19.9607 4.11717 19.4495 3.72839 18.8872 3.42736C18.376 3.16204 17.8198 2.99571 17.2463 2.93754C16.6667 2.86815 16.079 2.91918 15.5198 3.08653C14.9381 3.25694 14.3544 3.55593 13.7717 3.98247L12.6421 4.94067C12.4646 5.09373 12.238 5.17639 12.0033 5.17435C11.7615 5.17435 11.5482 5.09577 11.3635 4.93965L10.2329 3.98043H10.2349Z" fill="white"/>
</svg>
