<svg width="24" height="24" viewBox="0 0 24 24" fill="none" xmlns="http://www.w3.org/2000/svg">
<path d="M11.791 4.01629C11.7917 4.21353 11.7039 4.34336 11.5281 4.40709L10.7036 4.67443C10.645 4.69294 10.5917 4.72499 10.5479 4.76798C10.5071 4.81926 10.4758 4.87739 10.4555 4.93966L10.1783 5.76552C10.1165 5.95303 9.99201 6.04646 9.80539 6.04714C9.60814 6.04787 9.47896 5.95536 9.41652 5.76831L9.14785 4.94444C9.12707 4.88233 9.09538 4.82442 9.05425 4.77344C9.00296 4.7327 8.94483 4.70143 8.88257 4.68109L8.0727 4.41907C7.88519 4.35732 7.79174 4.22816 7.79102 4.03092C7.7903 3.83434 7.8828 3.70383 8.06985 3.64072L8.87773 3.3575C8.94007 3.33678 8.99821 3.30508 9.04939 3.2639C9.09206 3.21975 9.12372 3.16616 9.1418 3.10749L9.4031 2.28169C9.46484 2.09418 9.59401 2.00073 9.79125 2C9.97787 1.99932 10.1031 2.09251 10.1662 2.2789L10.4495 3.10271C10.4696 3.16572 10.5017 3.21675 10.543 3.25843C10.5871 3.3011 10.6407 3.33276 10.6994 3.35084L11.5253 3.62808C11.7015 3.68986 11.7903 3.81905 11.791 4.01629Z" fill="white"/>
<path d="M7.33746 7.69673C7.33792 7.82331 7.28154 7.90662 7.16876 7.94752L6.63963 8.11908C6.60206 8.13095 6.56783 8.15152 6.5397 8.17911C6.51355 8.21201 6.49348 8.24932 6.48043 8.28928L6.30252 8.81925C6.2629 8.93958 6.183 8.99954 6.06324 8.99998C5.93666 9.00044 5.85377 8.94108 5.81369 8.82104L5.64128 8.29235C5.62795 8.25249 5.60761 8.21533 5.58122 8.18261C5.5483 8.15647 5.511 8.1364 5.47104 8.12335L4.95133 7.9552C4.831 7.91558 4.77103 7.8327 4.77057 7.70612C4.77011 7.57997 4.82947 7.49622 4.94951 7.45572L5.46794 7.27397C5.50794 7.26068 5.54525 7.24033 5.5781 7.21391C5.60548 7.18558 5.6258 7.15119 5.6374 7.11353L5.80508 6.5836C5.8447 6.46327 5.92759 6.4033 6.05417 6.40283C6.17392 6.4024 6.25427 6.4622 6.29476 6.58181L6.47655 7.11046C6.48948 7.15091 6.51006 7.18365 6.53658 7.2104C6.56491 7.23778 6.5993 7.2581 6.63695 7.2697L7.16693 7.44761C7.28001 7.48726 7.337 7.57016 7.33746 7.69673Z" fill="white"/>
<path d="M13.5 13.5C13.5 14.3284 12.8284 15 12 15C11.1716 15 10.5 14.3284 10.5 13.5C10.5 12.6716 11.1716 12 12 12C12.8284 12 13.5 12.6716 13.5 13.5Z" fill="white"/>
<path fill-rule="evenodd" clip-rule="evenodd" d="M12.7595 7.85815C12.34 7.43872 11.66 7.43872 11.2406 7.85815L10.1248 8.97392H8.54676C7.95359 8.97392 7.47273 9.45477 7.47273 10.0479V11.626L6.30417 12.7946C5.88473 13.214 5.88473 13.894 6.30417 14.3135L7.29197 15.3013L4.83323 19.7689C4.65014 20.1016 4.89014 20.5089 5.26988 20.51L6.48411 20.5134C6.65445 20.5139 6.81283 20.601 6.90437 20.7447L7.55693 21.7687C7.76102 22.0889 8.23354 22.0737 8.41664 21.741L10.3034 18.3127L11.2406 19.2499C11.66 19.6693 12.34 19.6693 12.7595 19.2499L13.6967 18.3127L15.5834 21.741C15.7665 22.0737 16.239 22.0889 16.4431 21.7687L17.0957 20.7447C17.1872 20.601 17.3456 20.5139 17.5159 20.5134L18.7302 20.51C19.1099 20.5089 19.3499 20.1016 19.1668 19.7689L16.7081 15.3013L17.6959 14.3135C18.1153 13.894 18.1153 13.214 17.6959 12.7946L16.6019 11.7006V10.0479C16.6019 9.45477 16.1211 8.97392 15.5279 8.97392H13.8752L12.7595 7.85815ZM8.97273 10.4739H10.7461L12 9.22003L13.2539 10.4739H15.1019V12.3219L16.334 13.554L15.1019 14.7861V16.6031H13.2849L12 17.888L10.7151 16.6031H8.97273V14.8607L7.66604 13.554L8.97273 12.2473V10.4739ZM16.112 19.5903L15.2935 18.1031H15.5279C15.8501 18.1031 16.1393 17.9612 16.3361 17.7364L17.0671 19.0647C16.7063 19.148 16.3754 19.3302 16.112 19.5903ZM7.69391 17.682C7.89021 17.938 8.1992 18.1031 8.54676 18.1031H8.70657L7.88809 19.5903C7.62464 19.3302 7.29371 19.148 6.93296 19.0647L7.69391 17.682Z" fill="white"/>
</svg>
