<svg width="24" height="24" viewBox="0 0 24 24" fill="none" xmlns="http://www.w3.org/2000/svg">
<path fill-rule="evenodd" clip-rule="evenodd" d="M7.9688 16.6806V10.6806C7.9688 9.91564 8.2348 9.26563 8.7658 8.73563C9.3128 8.18863 9.96881 7.91563 10.7348 7.91563H16.7348C17.4848 7.91563 18.1248 8.18863 18.6568 8.73563C19.2038 9.26663 19.4768 9.91463 19.4768 10.6806V16.6806C19.4768 17.4306 19.2038 18.0786 18.6568 18.6256C18.1248 19.1566 17.4848 19.4226 16.7348 19.4226H10.7348C10.3721 19.4281 10.0119 19.3611 9.67544 19.2255C9.33895 19.09 9.03293 18.8886 8.7753 18.6332C8.51767 18.3778 8.31363 18.0735 8.17514 17.7382C8.03665 17.403 7.9665 17.0434 7.9688 16.6806ZM12.9148 9.41463H10.7338C10.3908 9.41463 10.0938 9.53963 9.8438 9.78963C9.5938 10.0396 9.4688 10.3366 9.4688 10.6796V12.8596L12.9148 9.41463ZM9.4688 14.9926V16.7746C9.4848 16.7896 9.4928 16.8136 9.4928 16.8446L16.8988 9.43863H16.8048C16.7898 9.42263 16.7658 9.41463 16.7348 9.41463H15.0468L9.4688 14.9926ZM17.9538 10.4926L10.5468 17.8996C10.5759 17.9146 10.6081 17.9225 10.6408 17.9226H12.4218L17.9768 12.3676V10.5866C17.9766 10.5539 17.9688 10.5217 17.9538 10.4926ZM17.9768 14.4776L14.5318 17.9226H16.7348C16.8957 17.9263 17.0556 17.897 17.2048 17.8364C17.3539 17.7759 17.489 17.6854 17.6018 17.5706C17.8518 17.3206 17.9768 17.0246 17.9768 16.6806V14.4776Z" fill="white"/>
<path fill-rule="evenodd" clip-rule="evenodd" d="M18.0002 22.008H6.00019C4.89119 22.008 3.94519 21.617 3.16419 20.836C2.38219 20.055 1.99219 19.11 1.99219 18V6C1.99219 4.891 2.38319 3.945 3.16419 3.164C3.94519 2.382 4.89019 1.992 6.00019 1.992H18.0002C19.1092 1.992 20.0552 2.383 20.8362 3.164C21.6182 3.945 22.0082 4.89 22.0082 6V18C22.0082 19.109 21.6172 20.055 20.8362 20.836C20.0552 21.618 19.1102 22.008 18.0002 22.008ZM3.49219 6V18C3.48825 18.3304 3.55055 18.6582 3.67542 18.9641C3.80028 19.27 3.98518 19.5478 4.21919 19.781C4.45243 20.015 4.73021 20.1999 5.0361 20.3248C5.342 20.4496 5.66981 20.5119 6.00019 20.508H18.0002C18.3273 20.5134 18.6521 20.4517 18.9545 20.3266C19.2569 20.2016 19.5304 20.0159 19.7582 19.781C20.2582 19.281 20.5082 18.688 20.5082 18V6C20.5082 5.312 20.2582 4.727 19.7582 4.242C19.2732 3.742 18.6882 3.492 18.0002 3.492H6.00019C5.31219 3.492 4.71919 3.742 4.21919 4.242C3.73419 4.727 3.49219 5.312 3.49219 6Z" fill="white"/>
</svg>
