<svg width="24" height="24" viewBox="0 0 24 24" fill="none" xmlns="http://www.w3.org/2000/svg">
<path d="M7.99502 8.74405C7.99502 8.54105 8.06502 8.36905 8.20602 8.22905C8.27502 8.15505 8.35902 8.09605 8.45102 8.05605C8.54302 8.01605 8.64402 7.99505 8.74502 7.99405H15.255C15.458 7.99405 15.63 8.07205 15.77 8.22905C15.927 8.36905 16.005 8.54105 16.005 8.74405C16.008 8.84605 15.988 8.94705 15.948 9.04005C15.908 9.13305 15.847 9.21605 15.77 9.28405C15.703 9.35205 15.623 9.40605 15.534 9.44205C15.445 9.47805 15.35 9.49605 15.255 9.49405H12.749V15.256C12.749 15.357 12.728 15.457 12.688 15.55C12.648 15.643 12.589 15.726 12.515 15.795C12.448 15.863 12.368 15.917 12.279 15.953C12.19 15.989 12.095 16.007 11.999 16.004C11.799 16.006 11.606 15.931 11.459 15.794C11.322 15.648 11.247 15.455 11.249 15.254V9.49405H8.74302C8.54302 9.49605 8.35002 9.42005 8.20402 9.28405C8.13402 9.21305 8.07902 9.12905 8.04302 9.03605C8.00702 8.94305 7.99102 8.84405 7.99502 8.74405Z" fill="white"/>
<path d="M6.44902 3.68605C5.90102 4.04705 5.39102 4.46305 4.92702 4.92705C4.46302 5.39105 4.04702 5.90105 3.68602 6.44905C3.32702 6.99605 3.02102 7.57705 2.77302 8.18305C2.52302 8.77605 2.33502 9.39305 2.21002 10.033C2.07002 10.689 2.00002 11.345 2.00002 12.001V19.987C1.99902 20.251 2.04702 20.513 2.14002 20.76C2.35402 21.253 2.74702 21.646 3.24002 21.86C3.49002 21.954 3.74802 22 4.01302 22H11.999C12.655 22 13.311 21.93 13.967 21.79C14.608 21.665 15.224 21.477 15.817 21.227C16.427 20.977 17.004 20.673 17.551 20.314C18.099 19.953 18.609 19.537 19.073 19.073C19.537 18.609 19.954 18.099 20.314 17.55C20.674 17.004 20.978 16.434 21.227 15.841C21.476 15.236 21.664 14.609 21.79 13.967C21.93 13.311 22 12.655 22 11.999C22 11.343 21.93 10.687 21.79 10.031C21.665 9.39005 21.477 8.77405 21.227 8.18105C20.977 7.57105 20.673 6.99405 20.314 6.44705C19.955 5.90005 19.542 5.39405 19.073 4.92505C18.604 4.45605 18.098 4.04405 17.551 3.68405C17.004 3.32505 16.423 3.01905 15.817 2.77105C15.224 2.52105 14.607 2.33305 13.967 2.20805C13.311 2.06805 12.655 1.99805 11.999 1.99805C11.338 1.99805 10.678 2.06905 10.031 2.20805C9.38902 2.33305 8.76201 2.52205 8.15701 2.77105C7.56301 3.02105 6.99402 3.32505 6.44702 3.68405L6.44902 3.68605ZM15.232 4.15305C16.266 4.58205 17.205 5.21105 17.996 6.00405C18.789 6.79505 19.418 7.73405 19.847 8.76805C20.282 9.79005 20.505 10.889 20.503 12C20.504 13.118 20.281 14.225 19.847 15.256C19.414 16.281 18.785 17.211 17.996 17.996C17.205 18.789 16.266 19.418 15.232 19.847C14.21 20.282 13.111 20.505 12 20.503H4.01402C3.94102 20.504 3.86802 20.488 3.80202 20.456C3.75202 20.421 3.70502 20.382 3.66202 20.338C3.61502 20.292 3.57602 20.245 3.54502 20.198C3.51402 20.136 3.49802 20.065 3.49802 19.987V12.001C3.49502 10.89 3.71802 9.79105 4.15402 8.76905C4.58301 7.73505 5.21202 6.79605 6.00502 6.00505C6.79002 5.21605 7.72002 4.58805 8.74502 4.15405C9.77202 3.72205 10.875 3.49905 11.989 3.49905C13.103 3.49905 14.206 3.72205 15.233 4.15405L15.232 4.15305Z" fill="white"/>
</svg>
