<svg width="24" height="24" viewBox="0 0 24 24" fill="none" xmlns="http://www.w3.org/2000/svg">
<path d="M12 9.6814C12.4142 9.6814 12.75 10.0177 12.75 10.4325V12.9302H15.25C15.6642 12.9302 16 13.2665 16 13.6813C16 14.0962 15.6642 14.4325 15.25 14.4325H12.75V16.9302C12.75 17.345 12.4142 17.6813 12 17.6813C11.5858 17.6813 11.25 17.345 11.25 16.9302V14.4325H8.75C8.33579 14.4325 8 14.0962 8 13.6813C8 13.2665 8.33579 12.9302 8.75 12.9302H11.25V10.4325C11.25 10.0177 11.5858 9.6814 12 9.6814Z" fill="white"/>
<path d="M16.874 4.99805C16.4299 3.27282 14.8638 1.99805 13 1.99805H6C3.79086 1.99805 2 3.78891 2 5.99805V17.998C2 20.2071 3.79086 21.998 6 21.998H18C20.2091 21.998 22 20.2071 22 17.998V8.99805C22 6.78891 20.2091 4.99805 18 4.99805H16.874ZM6 3.49805H13C14.0252 3.49805 14.9062 4.1151 15.292 4.99805H6C5.05547 4.99805 4.1874 5.32543 3.50308 5.8729C3.56828 4.55033 4.66125 3.49805 6 3.49805ZM3.5 8.99805C3.5 7.61734 4.61929 6.49805 6 6.49805H18C19.3807 6.49805 20.5 7.61734 20.5 8.99805V17.998C20.5 19.3787 19.3807 20.498 18 20.498H6C4.61929 20.498 3.5 19.3787 3.5 17.998V8.99805Z" fill="white"/>
</svg>
