<svg width="24" height="24" viewBox="0 0 24 24" fill="none" xmlns="http://www.w3.org/2000/svg">
<path d="M12.278 15.057C12.375 15.025 12.464 14.972 12.539 14.903H12.54C12.62 14.842 12.686 14.764 12.735 14.675C12.784 14.586 12.812 14.489 12.82 14.388C12.828 14.287 12.815 14.185 12.783 14.088C12.751 13.991 12.7 13.902 12.633 13.825C12.565 13.748 12.482 13.686 12.39 13.642C12.298 13.598 12.197 13.572 12.095 13.567C11.997 13.558 11.898 13.571 11.806 13.603C11.714 13.635 11.628 13.687 11.557 13.755C11.399 13.883 11.298 14.068 11.275 14.27C11.266 14.368 11.279 14.467 11.311 14.56C11.343 14.653 11.395 14.738 11.463 14.81C11.524 14.89 11.602 14.957 11.691 15.005C11.78 15.053 11.878 15.083 11.979 15.09C12.08 15.1 12.183 15.088 12.28 15.056L12.278 15.057Z" fill="white"/>
<path d="M10.032 12.398C9.863 12.522 9.655 12.581 9.447 12.563C9.351 12.558 9.258 12.532 9.173 12.487C9.088 12.442 9.014 12.38 8.955 12.305C8.887 12.233 8.836 12.148 8.804 12.055C8.772 11.962 8.76 11.863 8.768 11.765C8.773 11.663 8.798 11.563 8.842 11.47C8.886 11.377 8.948 11.295 9.024 11.227C9.185 11.105 9.385 11.046 9.587 11.062C9.806 11.078 9.977 11.164 10.103 11.32C10.172 11.395 10.224 11.485 10.256 11.581C10.288 11.677 10.3 11.781 10.29 11.882C10.283 11.981 10.257 12.077 10.213 12.165C10.169 12.253 10.107 12.332 10.033 12.397L10.032 12.398Z" fill="white"/>
<path d="M14.506 12.586C14.303 12.57 14.13 12.484 13.99 12.328C13.867 12.177 13.808 11.984 13.826 11.79C13.831 11.688 13.856 11.587 13.9 11.494C13.944 11.401 14.006 11.318 14.083 11.25C14.234 11.126 14.428 11.068 14.623 11.086C14.725 11.091 14.826 11.116 14.918 11.161C15.01 11.206 15.093 11.268 15.161 11.344C15.23 11.419 15.282 11.508 15.315 11.605C15.348 11.702 15.359 11.804 15.349 11.906C15.342 12.005 15.316 12.101 15.272 12.19C15.228 12.279 15.166 12.357 15.092 12.422C14.923 12.546 14.715 12.604 14.506 12.586Z" fill="white"/>
<path d="M11.484 9.822C11.625 9.979 11.797 10.064 12 10.08C12.102 10.09 12.204 10.079 12.301 10.046C12.398 10.013 12.487 9.962 12.562 9.893C12.638 9.834 12.7 9.76 12.744 9.675C12.788 9.59 12.814 9.497 12.819 9.401C12.839 9.2 12.781 8.998 12.655 8.839C12.59 8.757 12.509 8.689 12.416 8.641C12.323 8.593 12.221 8.564 12.116 8.559C12.018 8.55 11.92 8.563 11.827 8.595C11.734 8.627 11.649 8.679 11.578 8.746C11.498 8.807 11.431 8.885 11.383 8.974C11.335 9.063 11.306 9.161 11.298 9.262C11.29 9.363 11.303 9.465 11.335 9.561C11.367 9.657 11.418 9.746 11.485 9.823L11.484 9.822Z" fill="white"/>
<path d="M12.936 3.57C13.436 3.065 14.034 2.666 14.693 2.399C15.323 2.135 16 2 16.683 2C17.37 2 18.034 2.133 18.674 2.399C19.333 2.666 19.93 3.064 20.431 3.569C20.936 4.069 21.334 4.667 21.601 5.326C21.867 5.966 22 6.63 22 7.316C22 8.002 21.867 8.667 21.601 9.307C21.334 9.966 20.935 10.563 20.43 11.064L11.063 20.43C10.563 20.935 9.966 21.334 9.307 21.601C8.677 21.865 8 22 7.317 22C6.633 22.001 5.956 21.865 5.326 21.601C4.667 21.334 4.07 20.935 3.569 20.43C3.064 19.93 2.666 19.333 2.399 18.674C2.135 18.044 2 17.367 2 16.684C2 15.997 2.133 15.333 2.399 14.693C2.666 14.034 3.064 13.437 3.569 12.936L12.936 3.57ZM19.354 4.646C18.621 3.897 17.73 3.522 16.684 3.522C15.639 3.522 14.749 3.897 14.015 4.646L12.959 5.675L18.322 11.039L19.352 9.985C20.101 9.252 20.476 8.361 20.476 7.316C20.476 6.271 20.101 5.38 19.352 4.646H19.354ZM17.247 12.116L11.883 6.754L6.894 11.742L12.257 17.105L17.247 12.116ZM4.646 14.014C3.897 14.747 3.523 15.638 3.523 16.683C3.523 17.728 3.898 18.619 4.647 19.353C5.38 20.102 6.271 20.477 7.316 20.477C8.361 20.477 9.252 20.102 9.986 19.353L11.181 18.182L5.818 12.819L4.646 14.014Z" fill="white"/>
</svg>
